<svg height="384pt" preserveAspectRatio="xMidYMid meet" viewBox="0 0 596 384" width="596pt" xmlns="http://www.w3.org/2000/svg"><g transform="matrix(.1 0 0 -.1 0 384)"><path d="m2620 1945v-705h165 165v255 255h295 295v130 130h-295-295v190 190h370 370v130 130h-535-535z"/><path d="m3836 2638c4-7 113-161 242-342 130-181 235-334 235-340 0-10-72-110-435-608l-78-108h189 188l164 240c90 132 166 240 169 240s80-108 170-240l165-239 188-1c103 0 187 2 187 5s-115 164-255 359-255 359-255 365 108 160 240 343l241 333-168 3c-92 1-172 1-178-2-6-2-80-103-165-225-84-121-156-221-159-221-3 1-77 102-164 225l-159 225h-184c-145 0-184-3-178-12z"/><path d="m1230 2501v-141h224c123 0 248-5 277-10 129-24 245-115 306-238 26-52 28-67 28-167 0-104-2-114-32-176-41-83-121-159-210-202l-68-32-262-3-263-3v-140-139h291c331 0 383 7 514 70 244 118 395 360 395 632-1 305-191 563-485 659-66 22-89 23-392 27l-323 3z"/><path d="m1025 2316c-139-34-240-131-279-265-60-205 66-425 274-477 172-44 357 40 433 197 110 224-7 481-248 543-69 19-111 19-180 2z"/><path d="m1443 2283c-18-2-33-7-33-9 0-3 15-24 34-47 142-174 140-407-6-573-17-19-27-38-23-42 14-14 150-6 203 12 70 24 153 100 189 174 24 50 28 69 28 147s-4 98-28 146c-64 132-216 211-364 192z"/></g></svg>