<svg viewBox="0 0 999.49 837.92" xmlns="http://www.w3.org/2000/svg"><g fill="#f9d2e5"><path d="m682.06 0h24.84v24.84h-24.84z"/><path d="m846.21 86.13h41.5v41.5h-41.5z"/><path d="m901.75 315.07h41.5v41.5h-41.5z"/><path d="m632.98 442.92h24.84v24.84h-24.84z"/><path d="m427.86 603.51h24.84v24.84h-24.84z"/><path d="m832.82 678.13h24.84v24.84h-24.84z"/><path d="m230.43 473.94h24.84v24.84h-24.84z"/><path d="m481.74 28.14h41.5v41.5h-41.5z"/><path d="m271.68 204.15h41.5v41.5h-41.5z"/><path d="m396.23 353.7h49.56v49.56h-49.56z"/><path d="m682.24 595.79h49.56v49.56h-49.56z"/><path d="m615.35 88.13h49.56v49.56h-49.56z"/></g><path d="m878.37 115.74 42.05 202.9" fill="none" stroke="#f9d2e5" stroke-miterlimit="10" stroke-width="4.28"/><path d="m920.6 346.77-71.11 334.61" fill="none" stroke="#f9d2e5" stroke-miterlimit="10" stroke-width="4.28"/><path d="m285.39 236.51-40.73 239.6" fill="none" stroke="#f9d2e5" stroke-miterlimit="10" stroke-width="4.28"/><path d="m793.05 231.12 65.56-111" fill="none" stroke="#f9d2e5" stroke-miterlimit="10" stroke-width="4.28"/><text fill="#ff00af" font-family="Raleway-Medium, Raleway" font-size="40.06" font-weight="500" transform="translate(327.45 776.85)">De<tspan letter-spacing="0em" x="52.36" y="0">c</tspan><tspan letter-spacing="0em" x="74.36" y="0">e</tspan><tspan letter-spacing="0em" x="98.03" y="0">n</tspan><tspan x="121.47" y="0">trali</tspan><tspan letter-spacing="-.01em" x="192.98" y="0">z</tspan><tspan letter-spacing="0em" x="212.33" y="0">ed Finan</tspan><tspan letter-spacing="0em" x="373.39" y="0">c</tspan><tspan x="395.38" y="0">e </tspan><tspan fill="#000" x="429.19" y="0">E</tspan><tspan fill="#000" letter-spacing="-.02em" x="453.43" y="0">x</tspan><tspan fill="#000" x="473.02" y="0">change</tspan></text><g fill="none" stroke-miterlimit="10"><path d="m960.29 821.27v13.59l36.32-24.7-36.32-24.71v13.59h-626.54-26.73v13.59l-36.32-24.71 36.32-24.7v13.59" stroke="#000" stroke-width="3.24"/><g stroke="#f9d2e5" stroke-width="4.28"><path d="m652.44 447.42 126.63-196.77"/><path d="m488.91 57.04-184.71 156.64"/><path d="m418.99 397.99 19.24 207.24"/><path d="m835.5 684.92-108.25-51.51"/><path d="m400.88 389.54-145.61 99.19"/><path d="m625.03 130.38-187.12 230.19"/><path d="m634.69 450.91-193.76-63.38"/><path d="m848.22 107.1-184.55 6.98"/><path d="m622.92 102.31-103.22-45.27"/><path d="m655.52 95.07 36.22-73.34"/><path d="m405.61 363.08-102.31-127.67"/><path d="m699.08 601.62-48.74-138"/><path d="m780.28 236.37-124.76-105.99"/><path d="m449.41 618.2 384.91 72.66"/><path d="m519.7 43.46 167.51-28.98"/><path d="m703.51 17.2 149.32 80.7"/><path d="m430.54 609.66-183.26-113.27"/></g></g><path d="m0 188.32v667c184.19 0 333.51-149.32 333.51-333.51s-149.32-333.49-333.51-333.49zm73.52 582.1v-497.19c107.33 31.7 185.66 131 185.66 248.6s-78.33 216.89-185.66 248.59z" fill="#ff00af" transform="translate(0 -107.57)"/><path d="m330.88 108.68h73.52v611.17h-73.52z" fill="#ff00af"/><path d="m358.14 377.5h196.78v73.52h-196.78z" fill="#ff00af"/><path d="m358.14 108.68h236.87v73.52h-236.87z" fill="#ff00af"/><path d="m939.79 108.68-298.88 611.17h-81.85l299.44-611.17z"/><path d="m559.06 108.68 298.88 611.17h81.85l-299.43-611.17z"/><path d="m787.64 247.82 56.51 435.09" fill="none" stroke="#f9d2e5" stroke-miterlimit="10" stroke-width="4.28"/><path d="m735.57 469.61 122.37 250.24h81.85l-144.15-294.22z"/><path d="m772.8 227.23h24.84v24.84h-24.84z" fill="#f9d2e5"/></svg>