<svg viewBox="0 0 1430.7 1199.44" xmlns="http://www.w3.org/2000/svg"><g fill="#f9d2e5"><path d="m976.33 0h35.56v35.56h-35.56z"/><path d="m1211.3 123.3h59.41v59.41h-59.41z"/><path d="m1290.8 451h59.41v59.41h-59.41z"/><path d="m906.07 634.01h35.56v35.56h-35.56z"/><path d="m612.46 863.89h35.56v35.56h-35.56z"/><path d="m1192.13 970.71h35.56v35.56h-35.56z"/><path d="m329.84 678.41h35.56v35.56h-35.56z"/><path d="m689.59 40.28h59.41v59.41h-59.41z"/><path d="m388.89 292.22h59.41v59.41h-59.41z"/><path d="m567.17 506.3h70.94v70.94h-70.94z"/><path d="m976.58 852.84h70.94v70.94h-70.94z"/><path d="m880.83 126.15h70.94v70.94h-70.94z"/></g><path d="m1257.33 165.68 60.19 290.44" fill="none" stroke="#f9d2e5" stroke-miterlimit="10" stroke-width="6.13"/><path d="m1317.78 496.38-101.8 478.97" fill="none" stroke="#f9d2e5" stroke-miterlimit="10" stroke-width="6.13"/><path d="m408.52 338.55-58.31 342.96" fill="none" stroke="#f9d2e5" stroke-miterlimit="10" stroke-width="6.13"/><path d="m1135.2 330.84 93.84-158.89" fill="none" stroke="#f9d2e5" stroke-miterlimit="10" stroke-width="6.13"/><text fill="#ff00af" font-family="Raleway-Medium, Raleway" font-size="57.35" font-weight="500" transform="translate(468.72 1112.02)">De<tspan letter-spacing="0em" x="74.95" y="0">c</tspan><tspan x="106.44" y="0">e</tspan><tspan letter-spacing="0em" x="140.33" y="0">n</tspan><tspan x="173.88" y="0">trali</tspan><tspan letter-spacing="-.01em" x="276.24" y="0">z</tspan><tspan x="303.94" y="0">ed Finan</tspan><tspan letter-spacing="0em" x="534.48" y="0">c</tspan><tspan x="565.96" y="0">e </tspan><tspan fill="#000" x="614.36" y="0">E</tspan><tspan fill="#000" letter-spacing="-.02em" x="649.06" y="0">x</tspan><tspan fill="#000" x="677.1" y="0">change</tspan></text><g fill="none" stroke-miterlimit="10"><path d="m1374.59 1175.6v19.45l51.99-35.36-51.99-35.36v19.45h-896.85-38.26v19.44l-51.99-35.36 51.99-35.36v19.45" stroke="#000" stroke-width="4.64"/><g stroke="#f9d2e5" stroke-width="6.13"><path d="m933.92 640.46 181.26-281.67"/><path d="m699.85 81.65-264.4 224.22"/><path d="m599.76 569.7 27.53 296.64"/><path d="m1195.97 980.42-154.96-73.73"/><path d="m573.84 557.61-208.44 141.98"/><path d="m894.7 186.63-267.86 329.5"/><path d="m908.52 645.45-277.36-90.73"/><path d="m1214.18 153.3-264.18 10"/><path d="m891.67 146.45-147.75-64.8"/><path d="m938.33 136.09 51.85-104.99"/><path d="m580.61 519.73-146.46-182.75"/><path d="m1000.69 861.18-69.77-197.54"/><path d="m1116.92 338.35-178.59-151.72"/><path d="m643.31 884.92 550.96 104.01"/><path d="m743.92 62.21 239.78-41.48"/><path d="m1007.02 24.62 213.75 115.51"/><path d="m616.29 872.69-262.32-162.14"/></g></g><path d="m246.5 115.59v954.8c263.65 0 477.39-213.75 477.39-477.4s-213.74-477.4-477.39-477.4zm105.23 833.24v-711.69c153.64 45.37 265.77 187.5 265.77 355.86s-112.13 310.46-265.77 355.83z" fill="#ff00af" transform="translate(-246.5)"/><path d="m473.64 155.57h105.23v874.85h-105.23z" fill="#ff00af"/><path d="m512.65 540.37h281.67v105.23h-281.67z" fill="#ff00af"/><path d="m512.65 155.57h339.07v105.23h-339.07z" fill="#ff00af"/><path d="m1345.25 155.56-427.82 874.85h-117.17l428.63-874.85z"/><path d="m800.26 155.56 427.83 874.85h117.16l-428.62-874.85z"/><path d="m1127.46 354.74 80.89 622.8" fill="none" stroke="#f9d2e5" stroke-miterlimit="10" stroke-width="6.13"/><path d="m1052.92 672.22 175.17 358.19h117.16l-206.34-421.15z"/><path d="m1106.21 325.27h35.56v35.56h-35.56z" fill="#f9d2e5"/></svg>