<svg viewBox="0 0 79.99 67.06" xmlns="http://www.w3.org/2000/svg"><g fill="#f9d2e5"><path d="m54.59 0h1.99v1.99h-1.99z"/><path d="m67.73 6.89h3.32v3.32h-3.32z"/><path d="m72.17 25.22h3.32v3.32h-3.32z"/><path d="m50.66 35.45h1.99v1.99h-1.99z"/><path d="m34.24 48.3h1.99v1.99h-1.99z"/><path d="m66.65 54.27h1.99v1.99h-1.99z"/><path d="m18.44 37.93h1.99v1.99h-1.99z"/><path d="m38.56 2.25h3.32v3.32h-3.32z"/><path d="m21.74 16.34h3.32v3.32h-3.32z"/><path d="m31.71 28.31h3.97v3.97h-3.97z"/><path d="m54.6 47.68h3.97v3.97h-3.97z"/><path d="m49.25 7.05h3.97v3.97h-3.97z"/></g><path d="m70.3 9.26 3.37 16.24" fill="none" stroke="#f9d2e5" stroke-miterlimit="10" stroke-width=".34"/><path d="m73.68 27.75-5.69 26.78" fill="none" stroke="#f9d2e5" stroke-miterlimit="10" stroke-width=".34"/><path d="m22.84 18.93-3.26 19.17" fill="none" stroke="#f9d2e5" stroke-miterlimit="10" stroke-width=".34"/><path d="m63.47 18.5 5.25-8.89" fill="none" stroke="#f9d2e5" stroke-miterlimit="10" stroke-width=".34"/><text fill="#ff00af" font-family="Raleway-Medium, Raleway" font-size="3.21" font-weight="500" transform="translate(26.21 62.17)">De<tspan letter-spacing="-.01em" x="4.19" y="0">c</tspan><tspan x="5.95" y="0">e</tspan><tspan letter-spacing="-.01em" x="7.85" y="0">n</tspan><tspan letter-spacing="0em" x="9.72" y="0">trali</tspan><tspan letter-spacing="-.01em" x="15.44" y="0">z</tspan><tspan letter-spacing="0em" x="16.99" y="0">ed Finan</tspan><tspan letter-spacing="0em" x="29.88" y="0">c</tspan><tspan x="31.64" y="0">e </tspan><tspan fill="#000" letter-spacing="0em" x="34.35" y="0">E</tspan><tspan fill="#000" letter-spacing="-.02em" x="36.29" y="0">x</tspan><tspan fill="#000" x="37.86" y="0">change</tspan></text><g fill="none" stroke-miterlimit="10"><path d="m76.86 65.73v1.09l2.9-1.98-2.9-1.98v1.09h-50.15-2.14v1.09l-2.9-1.98 2.9-1.98v1.09" stroke="#000" stroke-width=".26"/><g stroke="#f9d2e5" stroke-width=".34"><path d="m52.22 35.81 10.13-15.75"/><path d="m39.13 4.57-14.78 12.53"/><path d="m33.53 31.85 1.54 16.59"/><path d="m66.87 54.82-8.66-4.13"/><path d="m32.08 31.18-11.65 7.94"/><path d="m50.02 10.44-14.97 18.42"/><path d="m50.8 36.09-15.51-5.07"/><path d="m67.89 8.57-14.77.56"/><path d="m49.86 8.19-8.27-3.62"/><path d="m52.46 7.61 2.9-5.87"/><path d="m32.46 29.06-8.19-10.22"/><path d="m55.95 48.15-3.9-11.04"/><path d="m62.45 18.92-9.99-8.48"/><path d="m35.97 49.48 30.8 5.81"/><path d="m41.59 3.48 13.41-2.32"/><path d="m56.3 1.38 11.96 6.46"/><path d="m34.46 48.79-14.67-9.06"/></g></g><path d="m0 13.05v53.39a26.69 26.69 0 0 0 26.69-26.69 26.69 26.69 0 0 0 -26.69-26.7zm5.88 46.59v-39.79a20.75 20.75 0 0 1 14.86 19.9 20.74 20.74 0 0 1 -14.86 19.89z" fill="#ff00af" transform="translate(0 -6.59)"/><path d="m26.48 8.7h5.88v48.91h-5.88z" fill="#ff00af"/><path d="m28.66 30.21h15.75v5.88h-15.75z" fill="#ff00af"/><path d="m28.66 8.7h18.96v5.88h-18.96z" fill="#ff00af"/><path d="m75.22 8.7-23.92 48.91h-6.56l23.97-48.91z"/><path d="m44.74 8.7 23.93 48.91h6.55l-23.97-48.91z"/><path d="m63.04 19.83 4.52 34.83" fill="none" stroke="#f9d2e5" stroke-miterlimit="10" stroke-width=".34"/><path d="m58.87 37.59 9.8 20.02h6.55l-11.54-23.55z"/><path d="m61.85 18.19h1.99v1.99h-1.99z" fill="#f9d2e5"/></svg>