<svg viewBox="0 0 477.02 399.91" xmlns="http://www.w3.org/2000/svg"><g fill="#f9d2e5"><path d="m325.52 0h11.86v11.86h-11.86z"/><path d="m403.87 41.11h19.81v19.81h-19.81z"/><path d="m430.37 150.37h19.81v19.81h-19.81z"/><path d="m302.1 211.39h11.86v11.86h-11.86z"/><path d="m204.2 288.04h11.86v11.86h-11.86z"/><path d="m397.47 323.65h11.86v11.86h-11.86z"/><path d="m109.98 226.19h11.86v11.86h-11.86z"/><path d="m229.92 13.43h19.81v19.81h-19.81z"/><path d="m129.66 97.43h19.81v19.81h-19.81z"/><path d="m189.11 168.81h23.65v23.65h-23.65z"/><path d="m325.61 284.35h23.65v23.65h-23.65z"/><path d="m293.68 42.06h23.65v23.65h-23.65z"/></g><path d="m419.21 55.24 20.07 96.84" fill="none" stroke="#f9d2e5" stroke-miterlimit="10" stroke-width="2.04"/><path d="m439.37 165.5-33.94 159.7" fill="none" stroke="#f9d2e5" stroke-miterlimit="10" stroke-width="2.04"/><path d="m136.21 112.88-19.44 114.35" fill="none" stroke="#f9d2e5" stroke-miterlimit="10" stroke-width="2.04"/><path d="m378.49 110.31 31.29-52.98" fill="none" stroke="#f9d2e5" stroke-miterlimit="10" stroke-width="2.04"/><text fill="#ff00af" font-family="Raleway-Medium, Raleway" font-size="19.12" font-weight="500" transform="translate(156.28 370.76)">De<tspan letter-spacing="0em" x="24.99" y="0">c</tspan><tspan letter-spacing="0em" x="35.49" y="0">e</tspan><tspan letter-spacing="0em" x="46.79" y="0">n</tspan><tspan x="57.97" y="0">trali</tspan><tspan letter-spacing="-.01em" x="92.1" y="0">z</tspan><tspan letter-spacing="0em" x="101.34" y="0">ed Finan</tspan><tspan letter-spacing="-.01em" x="178.2" y="0">c</tspan><tspan x="188.7" y="0">e </tspan><tspan fill="#000" letter-spacing="0em" x="204.84" y="0">E</tspan><tspan fill="#000" letter-spacing="-.02em" x="216.41" y="0">x</tspan><tspan fill="#000" x="225.76" y="0">change</tspan></text><g fill="none" stroke-miterlimit="10"><path d="m458.31 391.96v6.49l17.33-11.79-17.33-11.79v6.48h-299.03-12.75v6.49l-17.33-11.79 17.33-11.79v6.48" stroke="#000" stroke-width="1.55"/><g stroke="#f9d2e5" stroke-width="2.04"><path d="m311.39 213.54 60.43-93.91"/><path d="m233.34 27.22-88.16 74.76"/><path d="m199.97 189.95 9.18 98.9"/><path d="m398.75 326.89-51.66-24.59"/><path d="m191.33 185.91-69.5 47.35"/><path d="m298.31 62.23-89.31 109.86"/><path d="m302.92 215.2-92.48-30.25"/><path d="m404.83 51.11-88.09 3.34"/><path d="m297.3 48.83-49.27-21.61"/><path d="m312.85 45.37 17.29-35"/><path d="m193.58 173.29-48.83-60.94"/><path d="m333.65 287.13-23.27-65.86"/><path d="m372.4 112.81-59.55-50.58"/><path d="m214.49 295.05 183.7 34.67"/><path d="m248.03 20.74 79.95-13.83"/><path d="m335.76 8.21 71.26 38.51"/><path d="m205.48 290.97-87.46-54.06"/></g></g><path d="m62.18 38.54v318.34a159.17 159.17 0 0 0 0-318.34zm35.08 277.81v-237.28a123.72 123.72 0 0 1 0 237.28z" fill="#ff00af" transform="translate(-62.18)"/><path d="m157.92 51.87h35.09v291.69h-35.09z" fill="#ff00af"/><path d="m170.93 180.17h93.91v35.09h-93.91z" fill="#ff00af"/><path d="m170.93 51.87h113.05v35.09h-113.05z" fill="#ff00af"/><path d="m448.53 51.87-142.65 291.69h-39.06l142.91-291.69z"/><path d="m266.82 51.87 142.64 291.69h39.07l-142.91-291.69z"/><path d="m375.91 118.28 26.97 207.65" fill="none" stroke="#f9d2e5" stroke-miterlimit="10" stroke-width="2.04"/><path d="m351.06 224.13 58.4 119.43h39.07l-68.8-140.42z"/><path d="m368.83 108.45h11.86v11.86h-11.86z" fill="#f9d2e5"/></svg>