<svg fill="none" height="61" viewBox="0 0 186 61" width="186" xmlns="http://www.w3.org/2000/svg"><path d="m12.1863 60.2732c-.4779 0-.9442-.0061-1.4184-.0168-.98226-.0128-1.96221-.0983-2.93184-.2558-.90412-.1558-1.77998-.4454-2.59867-.8594-.81118-.4107-1.55105-.9491-2.19126-1.5946-.64947-.638-1.19018-1.3779-1.60071-2.1905-.41506-.8179-.702299-1.6945-.851723-2.5994-.161365-.9723-.248671-1.9555-.261163-2.941-.009945-.3308-.022964-1.4323-.022964-1.4323v-36.2342s.013866-1.0845.023042-1.4032c.011962-.98394.098759-1.96558.259642-2.93639.1497-.90738.437166-1.78655.852446-2.60708.40902-.81202.94673-1.5525 1.59229-2.19275.64483-.64633 1.38707-1.18751 2.19963-1.60379.81682-.412712 1.69101-.700322 2.59331-.853196.97281-.159104 1.95617-.245123 2.94187-.257336l1.4153-.019152h161.1969l1.432.019921c.977.011606 1.952.096857 2.915.255029.912.154792 1.795.444409 2.621.859324 1.628.83893 2.953 2.1662 3.788 3.79577.409.81488.692 1.68688.84 2.58641.163.97877.254 1.96813.272 2.96014.005.4442.005.9214.005 1.3963.012.5882.012 1.148.012 1.7125v32.8276c0 .5698 0 1.1259-.012 1.6865 0 .51 0 .9773-.006 1.4582-.018.9744-.108 1.9461-.268 2.9073-.147.9114-.432 1.7949-.847 2.6195-.414.8038-.951 1.5373-1.593 2.1735-.641.6491-1.382 1.1906-2.195 1.6039-.824.4172-1.706.7079-2.617.8624-.969.1583-1.949.2438-2.931.2558-.46.0107-.941.0168-1.408.0168l-1.7.0031z" fill="#f5516c"/><g fill="#fff"><path d="m37.7903 30.7455c.0169-1.3092.3647-2.5929 1.0109-3.7316.6463-1.1387 1.5701-2.0954 2.6855-2.7811-.7086-1.012-1.6433-1.8448-2.7301-2.4323-1.0867-.5875-2.2954-.9135-3.5302-.9521-2.634-.2765-5.1875 1.5761-6.5297 1.5761-1.3682 0-3.4348-1.5487-5.6601-1.5029-1.4394.0465-2.8422.4651-4.0718 1.2149-1.2295.7499-2.2439 1.8055-2.9442 3.0639-3.0335 5.2522-.7708 12.971 2.1351 17.2165 1.4539 2.0789 3.1531 4.401 5.3764 4.3187 2.1757-.0903 2.9883-1.3874 5.6145-1.3874 2.6018 0 3.3642 1.3874 5.6326 1.335 2.3346-.0379 3.8055-2.0881 5.2084-4.1867 1.0446-1.4812 1.8484-3.1184 2.3817-4.8507-1.3563-.5737-2.5138-1.5339-3.3281-2.761-.8142-1.227-1.2493-2.6666-1.2509-4.1393z"/><path d="m33.5055 18.0574c1.2729-1.5281 1.9-3.4922 1.7481-5.4752-1.9447.2043-3.7411 1.1337-5.0312 2.6032-.6308.7179-1.1139 1.553-1.4217 2.4577s-.4343 1.8612-.3723 2.8148c.9728.01 1.9351-.2008 2.8145-.6166s1.653-1.0258 2.2626-1.7839z"/><path d="m65.2927 41.4737h-7.4245l-1.783 5.2647h-3.1448l7.0324-19.4781h3.2673l7.0324 19.4781h-3.1983zm-6.6556-2.4294h5.8852l-2.9012-8.5443h-.0812z"/><path d="m85.4611 39.6384c0 4.413-2.362 7.2484-5.9265 7.2484-.9029.0472-1.8009-.1608-2.5911-.6002-.7903-.4394-1.4408-1.0925-1.8771-1.8844h-.0674v7.0339h-2.915v-18.8991h2.8216v2.362h.0536c.4564-.7881 1.1179-1.4378 1.9141-1.8799s1.6974-.66 2.6077-.6307c3.6042 0 5.9801 2.8491 5.9801 7.25zm-2.9962 0c0-2.8752-1.4858-4.7654-3.7529-4.7654-2.2272 0-3.7253 1.93-3.7253 4.7654 0 2.8613 1.4981 4.7776 3.7253 4.7776 2.2671 0 3.7529-1.8764 3.7529-4.7776z"/><path d="m101.091 39.6384c0 4.4131-2.362 7.2484-5.9265 7.2484-.9029.0472-1.8009-.1608-2.5912-.6002-.7902-.4394-1.4407-1.0924-1.877-1.8844h-.0675v7.034h-2.9149v-18.8991h2.8215v2.362h.0536c.4564-.7882 1.1179-1.4378 1.9141-1.8799.7963-.4421 1.6975-.6601 2.6077-.6307 3.6044 0 5.9802 2.8491 5.9802 7.2499zm-2.9962 0c0-2.8751-1.4858-4.7654-3.7529-4.7654-2.2272 0-3.7253 1.9301-3.7253 4.7654 0 2.8614 1.4981 4.7776 3.7253 4.7776 2.2671 0 3.7529-1.8764 3.7529-4.7776z"/><path d="m111.42 41.3113c.216 1.9316 2.093 3.1998 4.657 3.1998 2.457 0 4.225-1.2683 4.225-3.0099 0-1.5119-1.066-2.4172-3.591-3.0376l-2.524-.6081c-3.577-.8639-5.237-2.5366-5.237-5.2509 0-3.3608 2.928-5.6692 7.087-5.6692 4.116 0 6.938 2.3084 7.033 5.6692h-2.943c-.176-1.9439-1.783-3.1172-4.131-3.1172s-3.955 1.1871-3.955 2.915c0 1.377 1.026 2.1874 3.537 2.8077l2.146.5269c3.996.9451 5.657 2.5505 5.657 5.3995 0 3.6441-2.903 5.9265-7.52 5.9265-4.32 0-7.236-2.2288-7.424-5.7519z"/><path d="m129.671 29.1777v3.3607h2.701v2.3084h-2.701v7.829c0 1.2162.541 1.783 1.728 1.783.321-.0056.641-.0282.959-.0675v2.2946c-.534.0997-1.076.1449-1.619.1348-2.875 0-3.996-1.0799-3.996-3.834v-8.1399h-2.065v-2.3084h2.065v-3.3607z"/><path d="m133.936 39.6398c0-4.4682 2.631-7.276 6.735-7.276 4.117 0 6.737 2.8077 6.737 7.276 0 4.4805-2.606 7.276-6.737 7.276-4.13 0-6.735-2.7956-6.735-7.276zm10.501 0c0-3.0651-1.404-4.8741-3.766-4.8741s-3.765 1.8228-3.765 4.8741c0 3.0773 1.403 4.8726 3.765 4.8726s3.766-1.7953 3.766-4.8726z"/><path d="m149.813 32.537h2.78v2.4171h.067c.188-.7549.631-1.422 1.253-1.8893.622-.4672 1.386-.7061 2.163-.6764.336-.0012.671.0353.999.1088v2.7265c-.424-.1296-.867-.1891-1.31-.1761-.423-.0172-.846.0575-1.238.2188-.391.1614-.744.4057-1.032.7161-.289.3104-.507.6796-.639 1.0822-.133.4026-.176.8291-.129 1.2502v8.4232h-2.915z"/><path d="m170.513 42.5686c-.392 2.5779-2.902 4.3472-6.114 4.3472-4.132 0-6.696-2.768-6.696-7.2086 0-4.4544 2.578-7.3434 6.573-7.3434 3.929 0 6.4 2.699 6.4 7.0049v.9987h-10.03v.1761c-.047.5227.019 1.0492.192 1.5446.172.4954.449.9484.81 1.3288.361.3805.799.6797 1.285.8778s1.009.2906 1.533.2713c.689.0645 1.38-.095 1.971-.4549s1.05-.9009 1.309-1.5425zm-9.854-4.2385h7.1c.026-.4699-.045-.9402-.209-1.3813s-.418-.8434-.745-1.1819c-.327-.3384-.72-.6056-1.156-.7848-.435-.1791-.902-.2664-1.373-.2563-.475-.0028-.945.0884-1.384.2684-.44.18-.839.4452-1.175.7802-.336.3351-.603.7335-.784 1.1722-.182.4386-.275.9088-.274 1.3835z"/><path d="m58.2722 12.599c.6112-.0439 1.2244.0485 1.7955.2703.5712.2219 1.0859.5677 1.5072 1.0126.4213.4448.7386.9777.929 1.56.1905.5824.2493 1.1998.1722 1.8076 0 2.99-1.616 4.7088-4.4039 4.7088h-3.3806v-9.3593zm-1.9269 8.0357h1.7646c.4367.0261.8737-.0455 1.2792-.2096s.7694-.4166 1.065-.739c.2957-.3225.5157-.7068.6441-1.125s.162-.8597.0982-1.2925c.0592-.4311.0222-.87-.1082-1.2851-.1303-.4151-.3509-.7963-.6459-1.1162-.295-.3198-.6571-.5705-1.0603-.734-.4033-.1635-.8377-.2358-1.2721-.2117h-1.7646z"/><path d="m64.3185 18.4247c-.0444-.4641.0087-.9325.1559-1.3749s.3852-.8492.6988-1.1943c.3136-.345.6959-.6207 1.1223-.8094.4264-.1886.8876-.2861 1.3539-.2861.4662 0 .9274.0975 1.3538.2861.4264.1887.8087.4644 1.1223.8094.3136.3451.5516.7519.6988 1.1943s.2003.9108.1559 1.3749c.0453.4647-.0072.9336-.154 1.3768-.1468.4431-.3847.8507-.6984 1.1964s-.6963.622-1.1231.8111c-.4268.189-.8885.2867-1.3553.2867-.4669 0-.9286-.0977-1.3554-.2867-.4268-.1891-.8094-.4654-1.1231-.8111s-.5516-.7533-.6984-1.1964c-.1468-.4432-.1993-.9121-.154-1.3768zm5.228 0c0-1.531-.6878-2.4263-1.8949-2.4263-1.2116 0-1.8932.8953-1.8932 2.4263 0 1.5433.6817 2.4317 1.8932 2.4317 1.2071 0 1.8949-.8945 1.8949-2.4317z"/><path d="m79.8352 21.9581h-1.446l-1.4598-5.2019h-.1103l-1.4537 5.2019h-1.4322l-1.9469-7.063h1.4139l1.2652 5.3895h.1042l1.4521-5.3895h1.3373l1.4521 5.3895h.1103l1.2591-5.3895h1.3939z"/><path d="m83.4111 14.8948h1.3419v1.122h.1041c.1767-.4029.4748-.7408.8526-.9663.3778-.2256.8166-.3277 1.2552-.292.3436-.0259.6887.026 1.0096.1516.321.1256.6095.3219.8443.5741.2348.2523.4098.5542.5121.8833.1022.3291.1291.6771.0787 1.018v4.5723h-1.3939v-4.2223c0-1.135-.4933-1.6995-1.5241-1.6995-.2334-.0109-.4663.0288-.6829.1164-.2165.0876-.4116.2209-.5717.391-.1602.17-.2818.3726-.3563.594-.0746.2213-.1004.4562-.0757.6885v4.132h-1.3939z"/><path d="m91.6318 12.1379h1.394v9.8202h-1.394z"/><path d="m94.962 18.4224c-.0444-.4642.0088-.9326.156-1.375.1472-.4425.3853-.8493.6989-1.1944.3137-.345.696-.6207 1.1224-.8094.4265-.1886.8876-.2861 1.354-.2861.4663 0 .9274.0975 1.3539.2861.4268.1887.8088.4644 1.1228.8094.313.3451.551.7519.698 1.1944.148.4424.201.9108.156 1.375.046.4646-.007.9336-.154 1.3767-.147.4432-.384.8507-.698 1.1964-.314.3458-.697.622-1.1234.8111-.4268.189-.8885.2867-1.3553.2867-.4669 0-.9286-.0977-1.3554-.2867-.4269-.1891-.8095-.4653-1.1232-.8111-.3137-.3457-.5517-.7532-.6985-1.1964-.1469-.4431-.1994-.9121-.1542-1.3767zm5.228 0c0-1.5311-.6878-2.4264-1.8948-2.4264-1.2117 0-1.8933.8953-1.8933 2.4264 0 1.5432.6817 2.4317 1.8933 2.4317 1.207 0 1.8948-.8946 1.8948-2.4317z"/><path d="m103.093 19.9619c0-1.2714.946-2.0044 2.627-2.1085l1.913-.1103v-.6097c0-.7459-.493-1.1672-1.446-1.1672-.778 0-1.317.2857-1.472.7851h-1.35c.143-1.2132 1.284-1.9914 2.886-1.9914 1.771 0 2.77.8816 2.77 2.3735v4.8259h-1.342v-.9926h-.11c-.224.3561-.539.6463-.911.8412-.373.1948-.791.2872-1.211.2678-.296.0308-.596-.0008-.88-.0929-.283-.092-.544-.2425-.766-.4417-.222-.1991-.399-.4425-.521-.7146-.122-.272-.186-.5665-.187-.8646zm4.54-.6036v-.5904l-1.725.1102c-.972.0651-1.414.396-1.414 1.0187 0 .6357.552 1.0056 1.31 1.0056.222.0225.447 0 .66-.066s.411-.1743.582-.3183c.17-.1441.31-.321.411-.5202.101-.1993.161-.4167.176-.6396z"/><path d="m110.853 18.4236c0-2.2318 1.147-3.6457 2.931-3.6457.442-.0203.88.0854 1.263.3048.384.2195.697.5435.903.9344h.105v-3.8792h1.393v9.8202h-1.335v-1.1159h-.111c-.222.3882-.546.7083-.937.9255s-.834.3233-1.281.3068c-1.796.0001-2.931-1.4138-2.931-3.6509zm1.439 0c0 1.4981.707 2.3995 1.888 2.3995 1.174 0 1.901-.9144 1.901-2.3934 0-1.472-.734-2.3995-1.901-2.3995-1.174 0-1.888.9075-1.888 2.3934z"/><path d="m123.216 18.4247c-.044-.4641.009-.9325.156-1.3749s.385-.8492.699-1.1943c.313-.345.696-.6207 1.122-.8094.426-.1886.888-.2861 1.354-.2861s.927.0975 1.354.2861c.426.1887.808.4644 1.122.8094.314.3451.552.7519.699 1.1943s.2.9108.156 1.3749c.045.4647-.008.9336-.154 1.3768-.147.4431-.385.8507-.699 1.1964-.313.3457-.696.622-1.123.8111-.427.189-.888.2867-1.355.2867s-.929-.0977-1.356-.2867c-.426-.1891-.809-.4654-1.123-.8111-.313-.3457-.551-.7533-.698-1.1964-.147-.4432-.199-.9121-.154-1.3768zm5.228 0c0-1.531-.688-2.4263-1.895-2.4263-1.212 0-1.893.8953-1.893 2.4263 0 1.5433.682 2.4317 1.893 2.4317 1.207 0 1.895-.8945 1.895-2.4317z"/><path d="m131.748 14.8948h1.342v1.122h.104c.177-.4029.475-.7408.853-.9663.377-.2256.816-.3277 1.255-.292.343-.0259.689.026 1.009.1516.321.1256.61.3219.845.5741.234.2523.409.5542.512.8833.102.3291.129.6771.078 1.018v4.5723h-1.393v-4.2223c0-1.135-.494-1.6995-1.525-1.6995-.233-.0109-.466.0288-.682.1164-.217.0876-.412.2209-.572.391-.16.17-.282.3726-.356.594-.075.2213-.101.4562-.076.6885v4.132h-1.394z"/><path d="m145.622 13.1366v1.7906h1.53v1.1742h-1.53v3.6318c0 .7399.305 1.0638.999 1.0638.178-.0005.355-.0113.531-.0321v1.1611c-.25.0447-.503.0686-.758.0712-1.55 0-2.167-.5453-2.167-1.9071v-3.9888h-1.122v-1.1741h1.122v-1.7906z"/><path d="m149.058 12.1379h1.381v3.8922h.111c.185-.4067.491-.7464.876-.9729.386-.2264.832-.3285 1.277-.2923.342-.0186.684.0385 1.001.1672.317.1286.602.3258.835.5773.232.2515.406.5511.509.8776s.133.6717.088 1.011v4.5601h-1.396v-4.2162c0-1.1282-.525-1.6995-1.51-1.6995-.24-.0197-.481.0133-.706.0965-.226.0832-.43.2147-.6.3852-.169.1706-.299.3761-.381.6022-.081.2261-.113.4673-.091.7067v4.1251h-1.394z"/><path d="m163.263 20.0499c-.19.6455-.6 1.2039-1.16 1.5775-.559.3735-1.232.5385-1.901.4659-.465.0123-.928-.0768-1.355-.2612-.428-.1843-.81-.4595-1.12-.8063-.311-.3469-.542-.7572-.678-1.2024-.136-.4451-.173-.9146-.11-1.3757-.062-.4626-.024-.933.112-1.3795.136-.4466.366-.8587.675-1.2086.308-.3499.689-.6294 1.115-.8195s.888-.2865 1.355-.2825c1.965 0 3.151 1.3427 3.151 3.5606v.4864h-4.988v.0781c-.022.2592.011.5201.096.766s.22.4713.397.6618.392.3419.631.4445c.239.1025.497.154.757.1511.334.0401.672-.02.971-.1724.299-.1525.546-.3905.71-.6838zm-4.904-2.2762h3.568c.017-.237-.015-.4752-.095-.699-.08-.2239-.206-.4285-.369-.6009-.164-.1723-.362-.3084-.582-.3997-.219-.0912-.455-.1356-.693-.1301-.241-.003-.48.0422-.703.1331-.224.0909-.427.2256-.597.3961-.171.1705-.305.3734-.396.5968s-.136.4626-.133.7037z"/></g></svg>