<svg fill="none" height="60" viewBox="0 0 180 60" width="180" xmlns="http://www.w3.org/2000/svg"><path d="m12.6671 58.6875c-.457 0-.903-.0059-1.3564-.0161-.9393-.0122-1.87645-.094-2.8037-.2446-.86461-.1489-1.70219-.4259-2.48511-.8219-.77573-.3926-1.48327-.9075-2.0955-1.5249-.62109-.61-1.13817-1.3176-1.53076-2.0947-.39692-.7821-.67161-1.6205-.8145-2.4858-.15432-.9298-.23781-1.87-.24975-2.8125-.00951-.3163-.02196-1.3696-.02196-1.3696v-34.6509s.01326-1.0371.02203-1.3418c.01144-.941.09445-1.87972.2483-2.80811.14316-.86771.41806-1.70847.81519-2.49315.39115-.77652.90536-1.48465 1.52271-2.09692.61665-.61809 1.32645-1.13561 2.10351-1.53371.78112-.39467 1.61711-.66971 2.47998-.8159.93029-.15216 1.87066-.23442 2.81326-.24609l1.3535-.01832h154.1531l1.369.01905c.934.0111 1.866.09262 2.788.24388.872.14803 1.716.42499 2.506.82178 1.557.80227 2.824 2.07153 3.623 3.6299.391.77926.661 1.61315.803 2.47337.155.93601.242 1.88212.26 2.83082.005.4248.005.8811.005 1.3352.012.5625.012 1.0979.012 1.6377v31.393c0 .5449 0 1.0767-.012 1.6128 0 .4878 0 .9346-.006 1.3946-.018.9317-.103 1.8609-.257 2.7802-.139.8716-.413 1.7165-.81 2.505-.395.7686-.909 1.4701-1.523 2.0785-.613.6207-1.321 1.1386-2.099 1.5338-.788.399-1.631.677-2.502.8247-.927.1514-1.864.2332-2.804.2446-.439.0102-.899.0161-1.346.0161l-1.626.003z" fill="#072440"/><g fill="#fff"><path d="m37.1532 30.4502c.0162-1.252.3487-2.4796.9668-3.5685.618-1.089 1.5014-2.0039 2.5681-2.6596-.6776-.9678-1.5715-1.7642-2.6108-2.326-1.0392-.5618-2.1952-.8736-3.376-.9106-2.5188-.2643-4.9607 1.5073-6.2443 1.5073-1.3084 0-3.2847-1.481-5.4128-1.4372-1.3765.0445-2.718.4447-3.8938 1.1618s-2.1458 1.7265-2.8155 2.93c-2.901 5.0226-.7372 12.4042 2.0418 16.4641 1.3903 1.988 3.0152 4.2087 5.1414 4.13 2.0806-.0863 2.8577-1.3268 5.3691-1.3268 2.4881 0 3.2172 1.3268 5.3865 1.2767 2.2326-.0363 3.6392-1.9969 4.9808-4.0037.9989-1.4166 1.7676-2.9821 2.2776-4.6388-1.2971-.5486-2.4039-1.4668-3.1826-2.6403-.7787-1.1734-1.1947-2.5501-1.1963-3.9584z"/><path d="m33.0557 18.3165c1.2173-1.4613 1.817-3.3395 1.6718-5.2359-1.8597.1954-3.5776 1.0842-4.8114 2.4894-.6032.6865-1.0652 1.4852-1.3595 2.3503-.2944.8652-.4154 1.7799-.356 2.6918.9302.0096 1.8504-.192 2.6914-.5897.841-.3976 1.5808-.9809 2.1637-1.7059z"/><path d="m63.4532 40.7095h-7.1001l-1.705 5.0347h-3.0074l6.7251-18.627h3.1245l6.7251 18.627h-3.0586zm-6.3647-2.3233h5.628l-2.7744-8.1709h-.0777z"/><path d="m82.7394 38.9545c0 4.2202-2.2588 6.9316-5.6675 6.9316-.8634.0452-1.7222-.1537-2.4779-.574-.7557-.4202-1.3778-1.0447-1.795-1.802h-.0645v6.7266h-2.7876v-18.0733h2.6983v2.2588h.0513c.4364-.7537 1.069-1.375 1.8304-1.7977.7615-.4228 1.6233-.6312 2.4938-.6032 3.4467 0 5.7187 2.7246 5.7187 6.9332zm-2.8652 0c0-2.7495-1.4209-4.5572-3.5889-4.5572-2.1299 0-3.5625 1.8457-3.5625 4.5572 0 2.7363 1.4326 4.5688 3.5625 4.5688 2.168 0 3.5889-1.7944 3.5889-4.5688z"/><path d="m97.6867 38.9545c0 4.2202-2.2588 6.9316-5.6675 6.9316-.8635.0452-1.7222-.1537-2.4779-.574-.7557-.4202-1.3778-1.0447-1.795-1.802h-.0645v6.7266h-2.7876v-18.0733h2.6982v2.2588h.0513c.4364-.7537 1.069-1.375 1.8304-1.7977.7615-.4228 1.6233-.6312 2.4938-.6032 3.4468 0 5.7188 2.7246 5.7188 6.9332zm-2.8653 0c0-2.7495-1.4209-4.5572-3.5888-4.5572-2.1299 0-3.5625 1.8457-3.5625 4.5572 0 2.7363 1.4326 4.5688 3.5625 4.5688 2.168 0 3.5889-1.7944 3.5889-4.5688z"/><path d="m107.566 40.5542c.206 1.8472 2.001 3.06 4.453 3.06 2.349 0 4.04-1.2129 4.04-2.8784 0-1.4458-1.02-2.3115-3.434-2.9048l-2.414-.5815c-3.42-.8262-5.008-2.4258-5.008-5.0215 0-3.2139 2.801-5.4214 6.778-5.4214 3.936 0 6.634 2.2075 6.725 5.4214h-2.814c-.169-1.8589-1.705-2.981-3.951-2.981s-3.782 1.1353-3.782 2.7876c0 1.3169.981 2.0918 3.382 2.685l2.052.5039c3.822.9038 5.41 2.439 5.41 5.1636 0 3.4849-2.776 5.6675-7.191 5.6675-4.131 0-6.92-2.1314-7.1-5.5005z"/><path d="m125.019 28.9509v3.2138h2.583v2.2076h-2.583v7.4868c0 1.1631.517 1.7051 1.652 1.7051.307-.0054.613-.0269.917-.0645v2.1943c-.51.0954-1.029.1386-1.548.1289-2.749 0-3.822-1.0327-3.822-3.6665v-7.7841h-1.974v-2.2076h1.974v-3.2138z"/><path d="m129.097 38.9558c0-4.273 2.517-6.958 6.441-6.958 3.938 0 6.443 2.685 6.443 6.958 0 4.2846-2.492 6.958-6.443 6.958-3.949 0-6.441-2.6734-6.441-6.958zm10.043 0c0-2.9312-1.343-4.6612-3.602-4.6612s-3.6 1.7432-3.6 4.6612c0 2.9428 1.341 4.6596 3.6 4.6596s3.602-1.7168 3.602-4.6596z"/><path d="m144.279 32.1634h2.659v2.3115h.064c.18-.7219.603-1.3599 1.198-1.8068.595-.4468 1.325-.6752 2.069-.6468.321-.0011.641.0337.955.104v2.6074c-.406-.1239-.829-.1808-1.253-.1684-.405-.0165-.808.0549-1.183.2093-.375.1543-.712.3879-.988.6847-.276.2969-.484.6499-.611 1.0349-.126.385-.168.7929-.122 1.1956v8.0551h-2.788z"/><path d="m164.076 41.7565c-.375 2.4654-2.776 4.1572-5.847 4.1572-3.951 0-6.403-2.6469-6.403-6.8935 0-4.2598 2.465-7.0225 6.285-7.0225 3.758 0 6.121 2.5811 6.121 6.6988v.955h-9.592v.1685c-.044.4998.018 1.0033.183 1.4771.166.4737.43.9069.775 1.2707.346.3638.765.65 1.229.8394.465.1895.965.2779 1.466.2595.659.0617 1.32-.0909 1.885-.435.565-.3442 1.004-.8616 1.251-1.4752zm-9.423-4.0532h6.79c.025-.4494-.044-.8991-.201-1.3209s-.399-.8066-.712-1.1303c-.313-.3236-.689-.5791-1.105-.7505-.416-.1713-.864-.2547-1.314-.2451-.453-.0027-.903.0845-1.324.2567-.42.1721-.801.4257-1.123.7461-.322.3205-.576.7014-.75 1.1209-.173.4195-.262.8692-.261 1.3231z"/><path d="m56.7393 13.0967c.5844-.042 1.1708.0463 1.717.2585.5462.2121 1.0384.5429 1.4413.9683s.7063.935.8884 1.4919.2384 1.1473.1647 1.7285c0 2.8594-1.5454 4.503-4.2114 4.503h-3.233v-8.9502zm-1.8428 7.6845h1.6875c.4176.025.8355-.0435 1.2233-.2004.3878-.157.7358-.3984 1.0185-.7067.2827-.3084.4932-.6759.616-1.0758.1227-.4.1548-.8222.0938-1.2361.0566-.4123.0213-.8319-.1034-1.2289s-.3356-.7615-.6177-1.0674-.6284-.5456-1.014-.702c-.3856-.1563-.8011-.2255-1.2165-.2024h-1.6875z"/><path d="m62.521 18.6679c-.0424-.4439.0084-.8917.1491-1.3148.1408-.4231.3684-.8122.6683-1.1421.2999-.33.6655-.5937 1.0733-.7741s.8487-.2736 1.2947-.2736c.4459 0 .8868.0932 1.2946.2736s.7734.4441 1.0733.7741c.2999.3299.5275.719.6683 1.1421.1407.4231.1915.8709.1491 1.3148.0432.4443-.007.8928-.1473 1.3166-.1404.4238-.3679.8135-.6679 1.1441s-.6658.5948-1.074.7756-.8497.2743-1.2961.2743c-.4465 0-.888-.0935-1.2962-.2743s-.774-.445-1.074-.7756-.5275-.7203-.6679-1.1441c-.1403-.4238-.1905-.8723-.1473-1.3166zm4.9995 0c0-1.4641-.6577-2.3203-1.812-2.3203-1.1586 0-1.8105.8562-1.8105 2.3203 0 1.4758.6519 2.3254 1.8105 2.3254 1.1544 0 1.8121-.8554 1.8121-2.3254z"/><path d="m77.3599 22.0469h-1.3829l-1.3959-4.9746h-.1055l-1.3901 4.9746h-1.3697l-1.8618-6.7544h1.3521l1.2099 5.154h.0996l1.3887-5.154h1.2788l1.3887 5.154h.1055l1.204-5.154h1.333z"/><path d="m80.7803 15.2923h1.2831v1.0729h.0997c.1689-.3853.4539-.7084.8153-.9241.3613-.2157.7809-.3133 1.2003-.2792.3286-.0247.6586.0248.9655.145.3069.1201.5829.3078.8074.549.2245.2413.3919.53.4897.8447s.1235.6474.0753.9735v4.3725h-1.333v-4.0378c0-1.0854-.4717-1.6252-1.4576-1.6252-.2231-.0104-.4458.0275-.6529.1113-.2071.0837-.3936.2113-.5468.3738-.1532.1626-.2694.3564-.3407.5681s-.096.4363-.0724.6584v3.9514h-1.333z"/><path d="m88.6407 12.6557h1.333v9.3912h-1.333z"/><path d="m91.8266 18.6656c-.0425-.4439.0083-.8918.1491-1.3149s.3685-.8122.6684-1.1421c.3-.33.6656-.5937 1.0734-.7741s.8488-.2736 1.2947-.2736c.446 0 .887.0932 1.2948.2736s.7734.4441 1.0733.7741c.2999.3299.5276.719.6684 1.1421s.1916.871.1492 1.3149c.0432.4443-.007.8928-.1475 1.3166-.1404.4238-.3679.8135-.6679 1.1441-.3001.3306-.6659.5948-1.0741.7756s-.8497.2742-1.2962.2742c-.4464 0-.8879-.0934-1.2961-.2742s-.7741-.445-1.0741-.7756-.5276-.7203-.668-1.1441-.1907-.8723-.1474-1.3166zm4.9994 0c0-1.4641-.6577-2.3203-1.812-2.3203-1.1586 0-1.8104.8562-1.8104 2.3203 0 1.4758.6518 2.3254 1.8104 2.3254 1.1543 0 1.8121-.8554 1.8121-2.3254z"/><path d="m99.6013 20.1379c0-1.2158.9057-1.9168 2.5127-2.0164l1.829-.1054v-.583c0-.7134-.472-1.1163-1.383-1.1163-.744 0-1.259.2732-1.407.7508h-1.2909c.1362-1.1602 1.2279-1.9043 2.7599-1.9043 1.693 0 2.648.843 2.648 2.2698v4.6149h-1.283v-.9492h-.105c-.214.3405-.515.6181-.872.8044-.356.1863-.755.2747-1.157.2561-.284.0295-.57-.0007-.841-.0888-.272-.088-.521-.2319-.733-.4224-.213-.1904-.3824-.4232-.4991-.6833-.1166-.2602-.1775-.5418-.1786-.8269zm4.3417-.5772v-.5647l-1.649.1055c-.93.0623-1.352.3787-1.352.9741 0 .6079.527.9617 1.252.9617.213.0215.427 0 .631-.0631s.393-.1667.557-.3044c.163-.1378.297-.307.393-.4975.097-.1905.154-.3985.168-.6116z"/><path d="m107.022 18.6668c0-2.1343 1.097-3.4864 2.804-3.4864.422-.0194.841.0817 1.208.2915.367.2099.666.5198.863.8935h.1v-3.7097h1.333v9.3912h-1.278v-1.0672h-.105c-.212.3713-.522.6773-.896.885s-.798.3092-1.225.2935c-1.718 0-2.804-1.352-2.804-3.4914zm1.377 0c0 1.4326.675 2.2946 1.805 2.2946 1.123 0 1.818-.8745 1.818-2.2888 0-1.4077-.702-2.2947-1.818-2.2947-1.122 0-1.805.868-1.805 2.2889z"/><path d="m118.845 18.6679c-.042-.4439.008-.8917.149-1.3148s.368-.8122.668-1.1421c.3-.33.666-.5937 1.074-.7741.407-.1804.848-.2736 1.294-.2736s.887.0932 1.295.2736.773.4441 1.073.7741c.3.3299.528.719.669 1.1421.14.4231.191.8709.149 1.3148.043.4443-.007.8928-.148 1.3166-.14.4238-.368.8135-.668 1.1441s-.665.5948-1.074.7756c-.408.1808-.849.2743-1.296.2743-.446 0-.888-.0935-1.296-.2743s-.774-.445-1.074-.7756-.527-.7203-.668-1.1441c-.14-.4238-.19-.8723-.147-1.3166zm5 0c0-1.4641-.658-2.3203-1.812-2.3203-1.159 0-1.811.8562-1.811 2.3203 0 1.4758.652 2.3254 1.811 2.3254 1.154 0 1.812-.8554 1.812-2.3254z"/><path d="m127.004 15.2923h1.283v1.0729h.1c.169-.3853.454-.7084.815-.9241.362-.2157.781-.3133 1.201-.2792.328-.0247.658.0248.965.145.307.1201.583.3078.807.549.225.2413.392.53.49.8447s.124.6474.075.9735v4.3725h-1.333v-4.0378c0-1.0854-.471-1.6252-1.457-1.6252-.223-.0104-.446.0275-.653.1113-.207.0837-.394.2113-.547.3738-.153.1626-.269.3564-.34.5681-.072.2117-.096.4363-.073.6584v3.9514h-1.333z"/><path d="m140.273 13.6108v1.7124h1.463v1.1228h-1.463v3.4732c0 .7075.291 1.0173.955 1.0173.17-.0005.339-.0108.508-.0307v1.1103c-.239.0428-.482.0656-.725.0681-1.482 0-2.073-.5215-2.073-1.8237v-3.8145h-1.072v-1.1228h1.072v-1.7124z"/><path d="m143.557 12.6557h1.321v3.7222h.106c.177-.389.47-.7138.838-.9304.369-.2165.795-.3141 1.221-.2795.327-.0178.654.0368.957.1598.304.1231.576.3116.798.5521.223.2405.389.5271.488.8393.098.3122.127.6423.083.9668v4.3609h-1.334v-4.032c0-1.0789-.503-1.6253-1.444-1.6253-.229-.0188-.46.0127-.676.0923-.215.0796-.411.2053-.573.3684s-.286.3597-.364.5759c-.079.2162-.108.4468-.088.6758v3.9448h-1.333z"/><path d="m157.142 20.222c-.181.6173-.574 1.1513-1.109 1.5085s-1.178.515-1.818.4456c-.445.0117-.887-.0735-1.296-.2498s-.774-.4394-1.071-.7711-.518-.7241-.648-1.1498-.166-.8746-.105-1.3156c-.059-.4423-.023-.8922.107-1.3193.13-.427.35-.8211.645-1.1557s.659-.6019 1.067-.7837c.407-.1818.849-.2739 1.295-.2701 1.88 0 3.013 1.284 3.013 3.405v.4651h-4.769v.0747c-.021.2479.01.4974.091.7325.082.2351.211.4507.38.6329.17.1821.375.3269.604.425.228.0981.475.1474.724.1446.319.0383.642-.0191.928-.1649.286-.1459.522-.3735.679-.6539zm-4.689-2.1768h3.411c.017-.2266-.014-.4543-.09-.6684s-.197-.4098-.353-.5746c-.157-.1648-.346-.295-.556-.3823-.21-.0872-.436-.1296-.663-.1244-.231-.0029-.459.0404-.673.1273s-.408.2157-.571.3788c-.163.163-.291.3571-.378.5707s-.13.4424-.127.6729z"/></g></svg>