<svg fill="none" height="60" viewBox="0 0 202 60" width="202" xmlns="http://www.w3.org/2000/svg" xmlns:xlink="http://www.w3.org/1999/xlink"><linearGradient id="a" gradientUnits="userSpaceOnUse" x1="32.6864" x2="7.63789" y1="13.1484" y2="38.1969"><stop offset="0" stop-color="#00a0ff"/><stop offset=".00657445" stop-color="#00a1ff"/><stop offset=".2601" stop-color="#00beff"/><stop offset=".5122" stop-color="#00d2ff"/><stop offset=".7604" stop-color="#00dfff"/><stop offset="1" stop-color="#00e3ff"/></linearGradient><linearGradient id="b" gradientUnits="userSpaceOnUse" x1="50.6484" x2="14.5335" y1="30.0018" y2="30.0018"><stop offset="0" stop-color="#ffe000"/><stop offset=".4087" stop-color="#ffbd00"/><stop offset=".7754" stop-color="#ffa500"/><stop offset="1" stop-color="#ff9c00"/></linearGradient><linearGradient id="c" gradientUnits="userSpaceOnUse" x1="37.2045" x2="3.2369" y1="33.4265" y2="67.3941"><stop offset="0" stop-color="#ff3a44"/><stop offset="1" stop-color="#c31162"/></linearGradient><linearGradient id="d" gradientUnits="userSpaceOnUse" x1="11.0406" x2="26.2085" y1=".412051" y2="15.58"><stop offset="0" stop-color="#32a071"/><stop offset=".0685" stop-color="#2da771"/><stop offset=".4762" stop-color="#15cf74"/><stop offset=".8009" stop-color="#06e775"/><stop offset="1" stop-color="#00f076"/></linearGradient><linearGradient id="e" gradientUnits="userSpaceOnUse" x1="50.6487" x2="14.5324" y1="30.0023" y2="30.0023"><stop offset="0" stop-color="#ccb300"/><stop offset=".4087" stop-color="#cc9700"/><stop offset=".7754" stop-color="#cc8400"/><stop offset="1" stop-color="#cc7d00"/></linearGradient><linearGradient id="f" gradientUnits="userSpaceOnUse" x1="37.2045" x2="3.23686" y1="33.4265" y2="67.3942"><stop offset="0" stop-color="#cc2e36"/><stop offset="1" stop-color="#9c0e4e"/></linearGradient><linearGradient id="g" gradientUnits="userSpaceOnUse" x1="32.6865" x2="7.63793" y1="13.1488" y2="38.1974"><stop offset="0" stop-color="#008de0"/><stop offset=".00657445" stop-color="#008de0"/><stop offset=".2601" stop-color="#00a7e0"/><stop offset=".5122" stop-color="#00b8e0"/><stop offset=".7604" stop-color="#00c4e0"/><stop offset="1" stop-color="#00c7e0"/></linearGradient><linearGradient id="h" gradientUnits="userSpaceOnUse" x1="37.2044" x2="3.23791" y1="33.4275" y2="67.395"><stop offset="0" stop-color="#e0333c"/><stop offset="1" stop-color="#ab0f56"/></linearGradient><linearGradient id="i" gradientUnits="userSpaceOnUse" x1="50.6483" x2="14.5334" y1="30.0016" y2="30.0016"><stop offset="0" stop-color="#e0c500"/><stop offset=".4087" stop-color="#e0a600"/><stop offset=".7754" stop-color="#e09100"/><stop offset="1" stop-color="#e08900"/></linearGradient><linearGradient id="j" gradientUnits="userSpaceOnUse" x1="50.6484" x2="14.5335" y1="30.002" y2="30.002"><stop offset="0" stop-color="#ffe840"/><stop offset=".4087" stop-color="#ffce40"/><stop offset=".7754" stop-color="#ffbc40"/><stop offset="1" stop-color="#ffb540"/></linearGradient><linearGradient id="k" gradientUnits="userSpaceOnUse" x1="32.6863" x2="7.63778" y1="13.1488" y2="38.1972"><stop offset="0" stop-color="#40b8ff"/><stop offset=".00657445" stop-color="#40b9ff"/><stop offset=".2601" stop-color="#40ceff"/><stop offset=".5122" stop-color="#40ddff"/><stop offset=".7604" stop-color="#40e7ff"/><stop offset="1" stop-color="#40eaff"/></linearGradient><linearGradient id="l" gradientUnits="userSpaceOnUse" x1="11.0407" x2="26.2086" y1=".412114" y2="15.58"><stop offset="0" stop-color="#65b895"/><stop offset=".0685" stop-color="#62bd95"/><stop offset=".4762" stop-color="#50db97"/><stop offset=".8009" stop-color="#44ed98"/><stop offset="1" stop-color="#40f498"/></linearGradient><clipPath id="m"><path d="m0 0h201.94v60h-201.94z"/></clipPath><g clip-path="url(#m)"><path d="m194.179 59.8506h-186.56705c-4.10448 0-7.462689-3.3582-7.462689-7.4627v-44.7761c0-4.10448 3.358209-7.462691 7.462689-7.462691h186.56705c4.105 0 7.463 3.358211 7.463 7.462691v44.7761c0 4.1045-3.358 7.4627-7.463 7.4627z" fill="#072440"/><g fill="#fff"><path d="m70.9231 15.4376c0 1.2505-.3703 2.2463-1.112 2.9891-.8424.8833-1.9403 1.3253-3.29 1.3253-1.2925 0-2.3915-.4478-3.2952-1.3445-.9054-.8961-1.3572-2.0073-1.3572-3.3331 0-1.3265.4518-2.4371 1.3572-3.3338.9037-.8961 2.0027-1.3445 3.2952-1.3445.6414 0 1.2554.1254 1.8384.3756.583.2507 1.0506.5835 1.4004 1.0004l-.7871.7876c-.5929-.7083-1.4092-1.0622-2.4517-1.0622-.9427 0-1.7577.3312-2.4457.994-.688.6636-1.0319 1.524-1.0319 2.5829 0 1.0588.3439 1.9192 1.0319 2.5828.688.6628 1.503.994 2.4457.994 1 0 1.8337-.333 2.5012-.9998.4333-.4345.6839-1.0384.7509-1.8139h-3.2521v-1.0757h4.3396c.0419.2339.0624.4584.0624.6758z"/><path d="m70.923 15.4377h-.1493c-.0012 1.2219-.358 2.1711-1.0682 2.8836l-.0016.0012-.0006.0012c-.8157.8528-1.8641 1.2773-3.1823 1.2791-1.258-.0018-2.311-.4309-3.1903-1.3008-.8773-.8716-1.3112-1.9356-1.3128-3.2276.0016-1.2925.4355-2.3559 1.3128-3.227.8793-.8704 1.9323-1.3001 3.1903-1.3019.6221 0 1.2145.1213 1.7794.3633.5656.2437 1.0123.5631 1.3451.9597l.1143-.0963-.1055-.1055-.7872.7882.1056.1049.1149-.0955c-.6204-.7435-1.4913-1.1182-2.5666-1.116-.9776-.0012-1.8376.3481-2.5489 1.0361-.7182.6903-1.0791 1.5991-1.0779 2.69-.0012 1.0909.3597 1.9997 1.0779 2.69.7113.6881 1.5713 1.0373 2.5489 1.0361 1.0332.0018 1.9136-.3486 2.6067-1.0435.463-.4642.7254-1.1072.7942-1.9066l.0139-.1621h-3.2655v-.7772h4.1903v-.1492l-.147.0263c.0409.2262.0601.4413.0601.6495h.1493.1492c0-.2269-.021-.46-.0648-.7025l-.022-.1226h-4.6136v1.225.1492h3.4013v-.1492l-.1486-.0129c-.0659.7511-.305 1.3166-.7078 1.7212-.6413.639-1.4284.9543-2.3957.9561-.9077-.0012-1.6779-.3137-2.3419-.9521-.6576-.6361-.9848-1.4482-.9864-2.4755.0016-1.0273.3288-1.8394.9864-2.4755.664-.6384 1.4342-.9509 2.3419-.9521 1.0093.0024 1.7714.3358 2.3375 1.0093l.1049.1247.902-.9031.0967-.0967-.0881-.1045c-.3667-.4371-.8552-.7842-1.4558-1.0418-.6016-.2583-1.2366-.3877-1.8972-.3877-1.3268-.0012-2.4719.4652-3.4007 1.3882-.9323.9212-1.4021 2.0791-1.4009 3.4392-.0012 1.3596.4686 2.5181 1.4015 3.4399.9282.9224 2.0733 1.3882 3.4001 1.387 1.3818.0012 2.5281-.4578 3.3979-1.3714l-.1079-.1031.1056.1055c.7731-.7725 1.1567-1.8161 1.1556-3.0946z"/><path d="m77.8026 11.6969h-4.0782v2.8394h3.6777v1.0761h-3.6777v2.8394h4.0782v1.1001h-5.2279v-8.9552h5.2279z"/><path d="m77.8025 11.6971v-.1493h-4.2275v3.1379h3.6778v.7772l-3.6778.0004v3.1379h4.0783v.8017h-4.9295v-8.6567h4.9295v.9509h.1492v-.1493.1493h.1493v-1.1002-.1492h-5.5265v9.2537h5.5265v-1.2494-.1493h-4.0783v-2.5409h3.6778v-1.2253-.1493h-3.6778v-2.5409h4.0783v-.1492z"/><path d="m82.655 19.5519h-1.1514v-7.855h-2.5012v-1.1002h6.1538v1.1002h-2.5012z"/><path d="m82.6551 19.5521v-.1492h-1.0022v-7.8551h-2.5012v-.8016h5.8554v.8016h-2.5012v8.0043h.1492v-.1492.1492h.1493v-7.7058h2.5012v-1.2494-.1492h-6.4524v1.2494.1492h2.5012v7.8551h1.3007.1493v-.1493z"/><path d="m89.6089 19.5519v-8.9552h1.1503v8.9552z"/><path d="m89.6088 19.5521h.1492v-8.8059h.8518v8.6567h-1.001v.1492h.1492-.1492v.1493h1.1503.1492v-9.2537h-1.2995-.1493v9.2537h.1493z"/><path d="m95.8635 19.5519h-1.1515v-7.855h-2.501v-1.1002h6.1537v1.1002h-2.5012z"/><path d="m95.8634 19.5521v-.1492h-1.0022v-7.8551h-2.5011v-.8016h5.8552v.8016h-2.5012v8.0043h.1493v-.1492.1492h.1493v-7.7058h2.5012v-1.2494-.1492h-6.4523v1.2494.1492h2.5011v7.8551h1.3007.1493v-.1493z"/><path d="m104.297 17.645c.663.671 1.474 1.0062 2.433 1.0062.96 0 1.771-.3352 2.433-1.0062.663-.6711.996-1.5289.996-2.5706 0-1.0418-.333-1.8996-.996-2.5706-.662-.6711-1.473-1.0063-2.433-1.0063-.959 0-1.77.3352-2.433 1.0063-.661.671-.994 1.5288-.994 2.5706 0 1.0417.333 1.8995.994 2.5706zm5.717.7497c-.88.9053-1.975 1.3573-3.284 1.3573s-2.403-.452-3.282-1.3573c-.881-.9044-1.319-2.0114-1.319-3.3203 0-1.309.438-2.4162 1.319-3.3203.879-.9056 1.973-1.358 3.282-1.358 1.302 0 2.394.4548 3.278 1.3638.883.9089 1.325 2.0137 1.325 3.3145 0 1.3089-.44 2.4159-1.319 3.3203z"/><path d="m104.297 17.645-.106.1049c.688.698 1.545 1.0524 2.539 1.0506.994.0018 1.853-.3526 2.539-1.0506.692-.6985 1.04-1.6022 1.039-2.6755.001-1.0733-.347-1.977-1.039-2.6755-.686-.6979-1.545-1.0524-2.539-1.0506-.994-.0018-1.851.3527-2.539 1.0506-.69.6985-1.039 1.6022-1.037 2.6755-.002 1.0733.347 1.977 1.037 2.6755l.106-.1049.107-.1049c-.634-.6443-.95-1.4548-.951-2.4657.001-1.0109.317-1.8213.951-2.4656.638-.6442 1.402-.9602 2.326-.962.924.0018 1.689.3178 2.327.962.634.6443.951 1.4547.952 2.4656-.001 1.0109-.318 1.8214-.952 2.4657-.638.6442-1.403.9601-2.327.9619-.924-.0018-1.688-.3177-2.326-.9619zm5.717.7497-.107-.1037c-.856.8769-1.902 1.31-3.177 1.3118-1.275-.0018-2.321-.4349-3.175-1.3118l-.004-.0046.004.0046c-.854-.8799-1.276-1.9409-1.277-3.2166.001-1.2756.423-2.3367 1.277-3.2165.854-.8769 1.9-1.3106 3.175-1.3124 1.267.0018 2.311.4373 3.171 1.3188.857.8839 1.281 1.9433 1.283 3.2101-.002 1.2757-.424 2.3367-1.277 3.2166l.107.1037.107.1038c.905-.9293 1.363-2.082 1.362-3.4241.001-1.3345-.459-2.4848-1.368-3.4182-.909-.937-2.048-1.4109-3.385-1.4092-1.343-.0017-2.486.47-3.389 1.4034v-.0006c-.907.9298-1.363 2.0825-1.362 3.4246-.001 1.3421.455 2.4948 1.362 3.4247l.004.0041-.004-.0047c.903.9334 2.046 1.404 3.389 1.4028 1.343.0012 2.486-.4694 3.391-1.4028z"/><path d="m112.948 19.5519v-8.9552h1.401l4.352 6.9666h.05l-.05-1.7258v-5.2408h1.152v8.9552h-1.202l-4.553-7.3041h-.049l.049 1.7264v5.5777z"/><path d="m112.948 19.5521h.15v-8.8059h1.168l4.352 6.9665h.133.153l-.054-1.8773v-5.0892h.853v8.6567h-.969l-4.553-7.3042h-.133-.153l.054 1.8781v5.4261h-1.001v.1492h.15-.15v.1493h1.15.149v-5.7294l-.049-1.7281-.15.0041v.1492h.05v-.1492l-.127.0794 4.598 7.374h1.283.15v-9.2537h-1.301-.149v5.3917l.049 1.7281.15-.004v-.1493h-.05v.1493l.127-.0793-4.397-7.0365h-1.483-.149v9.2537h.149z"/><path d="m159.755 44.9252h2.785v-18.6586h-2.785zm25.085-11.9374-3.192 8.0894h-.096l-3.313-8.0894h-3l4.969 11.3065-2.833 6.2891h2.906l7.656-17.5956zm-15.794 9.8181c-.913 0-2.185-.456-2.185-1.5846 0-1.4402 1.585-1.9923 2.952-1.9923 1.226 0 1.8.2641 2.545.6245-.216 1.7281-1.704 2.9524-3.312 2.9524zm.336-10.2263c-2.016 0-4.104.8885-4.969 2.8569l2.472 1.0319c.528-1.0319 1.512-1.3683 2.545-1.3683 1.44 0 2.904.8646 2.928 2.4009v.1918c-.504-.2881-1.583-.72-2.904-.72-2.664 0-5.378 1.4638-5.378 4.2006 0 2.4965 2.185 4.105 4.633 4.105 1.873 0 2.904-.8401 3.554-1.8241h.095v1.44h2.688v-7.1538c0-3.3121-2.471-5.1609-5.664-5.1609zm-17.212 2.6796h-3.961v-6.3957h3.961c2.082 0 3.264 1.7239 3.264 3.1978 0 1.4459-1.182 3.1979-3.264 3.1979zm-.071-8.9926h-6.674v18.6586h2.784v-7.0692h3.89c3.086 0 6.12-2.2347 6.12-5.7947 0-3.5599-3.034-5.7947-6.12-5.7947zm-36.39 16.5427c-1.924 0-3.535-1.6109-3.535-3.8234 0-2.2358 1.611-3.8712 3.535-3.8712 1.9 0 3.39 1.6354 3.39 3.8712 0 2.2125-1.49 3.8234-3.39 3.8234zm3.198-8.7767h-.096c-.625-.7452-1.828-1.4185-3.343-1.4185-3.174 0-6.083 2.7891-6.083 6.3718 0 3.5588 2.909 6.324 6.083 6.324 1.515 0 2.718-.6734 3.343-1.4424h.096v.9136c0 2.429-1.298 3.7273-3.39 3.7273-1.708 0-2.766-1.2267-3.199-2.2604l-2.428 1.0098c.697 1.6832 2.549 3.7512 5.627 3.7512 3.27 0 6.035-1.924 6.035-6.6127v-11.3974h-2.645zm4.568 10.8926h2.79v-18.6592h-2.79zm6.902-6.1556c-.073-2.4528 1.899-3.7028 3.318-3.7028 1.107 0 2.044.5527 2.356 1.3469zm8.656-2.1158c-.528-1.4191-2.14-4.0397-5.435-4.0397-3.27 0-5.987 2.5728-5.987 6.3479 0 3.5588 2.693 6.3479 6.3 6.3479 2.91 0 4.594-1.7794 5.291-2.8131l-2.165-1.443c-.721 1.0582-1.707 1.7555-3.126 1.7555s-2.428-.6494-3.078-1.9234l8.488-3.5109zm-67.6243-2.0919v2.693h6.444c-.1924 1.5147-.6973 2.6207-1.4668 3.3903-.9375.938-2.4044 1.9717-4.9772 1.9717-3.9676 0-7.0693-3.1979-7.0693-7.1653 0-3.9675 3.1017-7.1659 7.0693-7.1659 2.1401 0 3.7027.8418 4.857 1.9239l1.8996-1.8994c-1.6109-1.5392-3.7512-2.7174-6.7566-2.7174-5.4345 0-10.003 4.4244-10.003 9.8588 0 5.4343 4.5685 9.8583 10.003 9.8583 2.9337 0 5.1457-.9613 6.8767-2.7652 1.7794-1.7794 2.3327-4.28 2.3327-6.2995 0-.6257-.0479-1.2023-.1446-1.6833zm16.5357 8.2474c-1.9241 0-3.5833-1.587-3.5833-3.8473 0-2.2843 1.6592-3.8473 3.5833-3.8473 1.9232 0 3.5825 1.563 3.5825 3.8473 0 2.2603-1.6593 3.8473-3.5825 3.8473zm0-10.1952c-3.5111 0-6.3726 2.669-6.3726 6.3479 0 3.6549 2.8615 6.3479 6.3726 6.3479 3.5103 0 6.3718-2.693 6.3718-6.3479 0-3.6789-2.8615-6.3479-6.3718-6.3479zm13.9006 10.1952c-1.9236 0-3.583-1.587-3.583-3.8473 0-2.2843 1.6594-3.8473 3.583-3.8473 1.923 0 3.582 1.563 3.582 3.8473 0 2.2603-1.659 3.8473-3.582 3.8473zm0-10.1952c-3.5112 0-6.3721 2.669-6.3721 6.3479 0 3.6549 2.8609 6.3479 6.3721 6.3479 3.51 0 6.372-2.693 6.372-6.3479 0-3.6789-2.862-6.3479-6.372-6.3479z"/></g><path d="m15.8357 48.4914-.1109-.1061c-.4344-.4596-.6908-1.1731-.6908-2.0972v.2175-33.009c0-.0029 0-.0052 0-.0076v.0082.2181c0-1.0006.299-1.7543.7999-2.2063l18.4922 18.4918zm-.8017-35.0042c0-.0822.0023-.1621.0064-.2407-.0041.078-.0064.1585-.0064.2407zm.0064-.2443c0-.001 0-.0022.0005-.0034-.0005.0012-.0005.0024-.0005.0034zm.0005-.0104c0-.0006 0-.0012 0-.0018z" fill="url(#a)"/><path d="m40.4891 36.3856.1406-.0799 7.3029-4.1494c.6962-.3958 1.1603-.8757 1.3917-1.3834-.2309.5077-.695.9882-1.3917 1.384l-7.3029 4.1494zm.0018-.2187-6.1649-6.166 6.1643-6.1649 7.4423 4.2281c.945.537 1.4756 1.2291 1.5643 1.9362v.0029c-.0887.7055-.6193 1.3982-1.5643 1.935z" fill="url(#b)"/><path d="m17.1538 49.1955c-.5166 0-.9673-.1679-1.3188-.4851l.0006-.0006c.3515.3172.8028.4857 1.3194.4857.0447 0 .0903-.0012.1364-.0034-.0467.0022-.0929.0034-.1376.0034zm.0006-.2187c-.5166.0006-.9673-.1679-1.3188-.485v-.0005l18.4904-18.4906 6.1649 6.166-21.6644 12.3094c-.5994.3398-1.1674.5007-1.6721.5007zm-1.3241-.2704c-.0326-.0297-.0647-.0612-.0962-.0939z" fill="url(#c)"/><path d="m34.3259 30.001-18.4923-18.4918c.3515-.3166.8017-.4845 1.3176-.4845.5061 0 1.0745.1615 1.6751.502l21.6639 12.3094zm6.3037-6.3042-21.8033-12.388c-.6006-.3406-1.169-.5021-1.6751-.5021-.0024 0-.004 0-.0064 0h.0088c.5049 0 1.0727.1609 1.6727.5015z" fill="url(#d)"/><path d="m17.2913 49.192c.4693-.0268.9888-.1883 1.5351-.4979l21.6627-12.3088-21.6627 12.3088c-.5458.3102-1.0658.4711-1.5351.4979zm-1.4564-.4816-.0046-.0041c.0016.0012.0034.0029.0046.0041zm-.1009-.0979-.0094-.0093v-.0006c.0036.0034.0064.0069.0094.0099z" fill="#000"/><path d="m40.489 36.3856.1406-.0799z" fill="url(#e)"/><path d="m17.1549 49.1955c-.5166 0-.9679-.1685-1.3194-.4857l-.0006.0006c-.0012-.0012-.003-.0028-.0046-.004l-.0963-.0939c-.003-.003-.0058-.0064-.0094-.0098l.1109-.1109c.3515.3171.8022.4856 1.3188.485.5048 0 1.0727-.1609 1.6721-.5007l21.6645-12.3094.1388.1388-.1406.0798-21.6627 12.3089c-.5463.3095-1.0658.471-1.5351.4979-.0461.0022-.0916.0034-.1364.0034z" fill="url(#f)"/><path d="m15.7248 48.6036c-.4344-.4595-.6908-1.1731-.6908-2.0971v-.0006c0 .9246.2564 1.6376.6908 2.0971z" fill="#000"/><path d="m15.7248 48.6031c-.4344-.4595-.6908-1.1725-.6908-2.0971v-.2175c0 .924.2564 1.6376.6908 2.0972l.1109.1061z" fill="url(#g)"/><path d="m15.7246 48.6031.1109-.1113v.0004z" fill="url(#h)"/><path d="m49.3243 30.7731c.1147-.2519.1725-.5107.1725-.7697 0-.0004 0-.001 0-.001 0 .2594-.0578.5182-.1725.7707z" fill="#000"/><path d="m40.6296 36.3055-.1388-.1388 7.4417-4.2287c.9451-.5369 1.4757-1.2296 1.5643-1.9351 0 .259-.0577.5178-.1725.7697-.2315.5078-.6955.9876-1.3918 1.3835z" fill="url(#i)"/><path d="m49.4968 30.001v-.0006c-.0006-.7807-.5224-1.5613-1.5643-2.1537l-7.3029-4.1494h-.0006l.0006-.0005 7.3029 4.1493c1.0431.5924 1.5655 1.3742 1.5643 2.1549z" fill="#404040"/><path d="m49.4969 30.0005c-.0887-.7072-.6193-1.3992-1.5644-1.9363l-7.4422-4.228.1388-.1388h.0006l7.3028 4.1494c1.042.5924 1.5638 1.373 1.5644 2.1537z" fill="url(#j)"/><path d="m15.034 13.4892c0-.0006 0-.0012 0-.0018zm.0064-.2426c0-.0012 0-.0024 0-.0036zm.0005-.007c0-.0024 0-.0046 0-.007zm0-.0088c.0864-1.5333.9201-2.419 2.0995-2.4242-.5113.003-.9567.1709-1.3053.4851v-.0006l-.0042.0042c-.0367.0331-.0717.0682-.1061.1043-.3918.4145-.639 1.0354-.6839 1.8312z" fill="#404040"/><path d="m15.034 13.7157v-.2181c0-.0029 0-.0053 0-.0082 0-.0006 0-.0012 0-.0018 0-.0822.0023-.1626.0064-.2407 0-.0012 0-.0024 0-.0036 0-.001 0-.0022.0005-.0034 0-.0024 0-.0046 0-.007 0-.0006 0-.0012 0-.0018.0449-.7958.2921-1.4167.6839-1.8312l.1091.1095c-.5009.452-.7999 1.2057-.7999 2.2063zm.7969-2.4202.0042-.0041c-.0012.0018-.003.003-.0042.0041z" fill="url(#k)"/><path d="m40.4903 23.8361-21.6639-12.3094c-.6006-.3404-1.169-.5019-1.6751-.5019-.5159 0-.9661.1679-1.3176.4845l-.1091-.1096c.0345-.0361.0694-.0712.1061-.1043.0012-.0012.003-.0024.0042-.0036.3487-.3142.794-.4821 1.3054-.4851h.0046.0064c.5061 0 1.0745.1615 1.6751.5021l21.8033 12.3881-.0006.0004z" fill="url(#l)"/></g></svg>