<svg height="1280pt" preserveAspectRatio="xMidYMid meet" viewBox="0 0 591 1280" width="591pt" xmlns="http://www.w3.org/2000/svg"><g transform="matrix(.1 0 0 -.1 0 1280)"><path d="m0 6400v-6400h2955 2955v6400 6400h-2955-2955zm730 6095c0-30 5-55 10-55 6 0 10-7 10-15s-4-15-10-15c-5 0-10-7-10-15s-7-15-15-15-15 7-15 15c0 11-11 15-40 15-51 0-51 13-5 85 23 37 41 55 55 55 18 0 20-7 20-55zm211 45c21-12 26-56 7-62-9-3-8-9 5-22 9-10 17-24 17-31 0-43-82-61-114-26-22 25-2 40 23 17 21-19 33-20 48-5 16 16 5 39-17 39-30 0-33 19-6 30 14 5 26 16 26 24 0 21-27 27-44 11-19-19-36-19-36 0 0 29 54 44 91 25zm153-6c19-19 20-36 4-52-9-9-9-15 0-24 7-7 12-21 12-33s-5-26-12-33c-17-17-74-15-92 4-20 20-20 34-1 34 8 0 15-4 15-9 0-13 27-21 45-15 23 9 18 42-7 46-29 4-34 26-7 30 12 2 24 9 27 15 6 20-27 27-54 13-31-17-38-10-18 18 18 26 65 29 88 6zm3934-4c17-11 32-24 32-28 0-19-14-20-43-5-40 20-100 20-132-1-25-16-45-14-45 5 0 20 66 49 110 49 27 0 58-8 78-20zm437-65v-60l-129-3c-86-2-133 1-142 9-17 14-18 91-2 107 9 9 50 12 143 10l130-3zm-4655 40c0-8-7-15-15-15s-15 7-15 15 7 15 15 15 15-7 15-15zm4196-29c28-21 7-40-29-27-18 7-36 7-54 0s-30-6-37 1c-17 17 21 40 64 40 20 0 45-6 56-14zm-4198-53c-5-25-28-28-28-4 0 12 6 21 16 21 9 0 14-7 12-17zm4172-7c0-7-7-19-15-26-12-10-18-10-30 0-25 21-18 40 15 40 19 0 30-5 30-14zm-2120-402c0-20 4-25 16-20 8 3 24 1 35-4 25-14 29-110 4-110-11 0-15 12-15 46 0 38-3 45-17 42-13-2-19-15-21-46-2-28-8-42-18-42-11 0-14 17-14 80 0 64 3 80 15 80 9 0 15-10 15-26zm254 0c-2-23 0-25 21-20 31 8 55-17 55-58 0-42-16-56-62-56h-38v80c0 61 3 80 14 80 8 0 12-9 10-26zm-537 1c8-23-2-28-26-13-30 18-55 0-59-44-3-40 17-63 48-53 23 7 27 35 5 35-8 0-15 5-15 10 0 6 14 10 30 10 28 0 30-2 30-39v-38l-50-2c-40 0-52 3-65 21-19 29-19 77 1 106 19 27 91 32 101 7zm210-2c4-10 11-21 17-25 8-6 6-11-3-17-18-12-21-62-4-68 22-9 14-25-9-21-19 2-24 10-26 43-2 22-8 42-13 45-10 7 11 60 24 60 4 0 11-8 14-17zm254-32c4-3 9-27 11-52l5-46-47-2c-34 0-50 4-54 14-9 25 4 43 35 50 35 8 39 29 4 23-31-6-42 7-18 21 17 10 51 6 64-8zm259-1c33-33 26-50-21-50-28 0-39-4-36-12 2-7 18-12 36-11 42 2 36-21-6-25-33-3-63 25-63 60 0 22 34 58 55 58 8 0 24-9 35-20zm124 4c22-21 22-104 1-104-11 0-15 12-15 45 0 38-3 45-20 45s-20-7-20-45c0-33-4-45-15-45s-15 13-15 54c0 52 1 55 28 59 15 2 30 5 34 6 4 0 14-6 22-15zm-774-40c0-38 3-45 18-42 12 2 18 15 20 46 2 28 8 42 18 42s14-14 14-55v-55h-44c-49 0-56 8-56 71 0 28 4 39 15 39s15-12 15-46zm2198-75c-3-8-7-3-11 10-4 17-3 21 5 13 5-5 8-16 6-23zm230 0c-3-8-7-3-11 10-4 17-3 21 5 13 5-5 8-16 6-23zm-2456-126c26-23 23-57-8-73-46-25-89 21-61 64 20 30 43 33 69 9zm156-8c6-14 15-25 20-25s14 11 20 25c19 41 32 29 32-30 0-30-4-55-10-55-5 0-10 17-10 38l-1 37-16-29-16-30-16 30-16 29-3-37c-5-55-22-46-22 10 0 67 17 83 38 37zm379-13 22-37 1 38c0 20 5 37 10 37 6 0 10-27 10-60 0-68-12-72-47-12l-22 37-1-37c0-21-4-38-10-38-5 0-10 25-10 55 0 66 15 72 47 17zm194 21c6-52 3-100-7-96-13 5-24 69-16 91 5 13 21 17 23 5zm-417-25c3-7 7-27 9-43 5-29 4-31-29-30-19 1-37 4-40 8-12 12 6 37 27 37 12 0 19 5 16 13-2 6-11 11-21 9-9-2-16 2-16 8 0 14 50 13 54-2zm56-28c0-22-4-40-10-40-5 0-10 18-10 40s5 40 10 40c6 0 10-18 10-40zm92 28c11-18 10-68-2-68-5 0-10 14-10 30 0 23-4 30-20 30s-20-7-20-30c0-16-4-30-10-30-10 0-15 62-6 71 11 11 60 8 68-3zm206 0c20-20 14-38-13-38-14 0-25-5-25-11s9-9 20-6 20 1 20-4c0-16-29-22-45-9-15 13-21 61-8 73 10 11 38 8 51-5zm-1207-898c14-37 20-37 41 0 10 18 25 30 38 30 19 0 20-6 20-84 0-63-3-85-14-89-20-8-33 13-30 46 4 35-4 35-17 0l-10-28-19 25-20 25v-25c0-27-12-52-25-52-17 0-25 30-25 98 0 39 3 74 7 77 17 17 45 5 54-23zm330 18c11-17-1-38-22-38-16 0-19-8-19-59 0-50-3-59-20-64-23-6-28 8-32 83-3 40-5 45-28 45-22 0-25-5-28-38-2-24 2-43 12-53 23-22 11-34-34-34s-58 14-36 39c20 22 20 70 1 95-8 10-12 22-10 26 8 12 208 11 216-2zm276-5c3-7-3-20-12-29-11-12-14-25-9-48 14-67 27-62 54 19 12 36 26 68 31 71 14 8 61-5 55-15-3-4 5-38 18-74 18-53 21-69 11-77-13-11-45 11-45 31 0 18-39 9-45-11-6-19-7-19-119-21-27 0-31 8-17 34 7 13 11 39 9 58-3 31-6 34-33 33-60-3-66-4-60-14 4-6 14-10 23-9 32 3 40-1 38-18-2-11-14-20-32-23-23-4-30-11-32-33-2-19-9-27-23-27-17 0-19 8-19 78 0 43 3 81 6 84 12 12 197 3 201-9zm268-8c0-13-7-20-20-20-18 0-20-7-21-60s-3-60-22-63-21 2-24 60c-3 55-5 63-23 63s-21 5-16 35c0 7 25 10 64 8 54-3 62-5 62-23zm115-9 5-29 14 26c13 25 46 41 63 31 10-6-22-64-36-64-5 0-2-8 7-18 10-10 17-23 17-28 0-6 5-15 12-22 9-9 17 4 35 55 13 37 27 71 32 76 23 23 44-1 72-77 16-44 29-81 29-82s-11-4-24-6c-18-4-27 1-35 19-13 28-37 30-46 3-5-16-15-20-54-20-41 0-50 4-61 25-17 33-26 32-33-4-4-21-11-29-24-27-15 2-18 15-21 76-2 40 0 80 3 87 9 24 39 10 45-21zm288-12c4-61 11-84 27-84 18 0 27 31 23 83-3 39-1 42 21 42 24 0 24-2 22-70-1-44-8-75-16-84-20-21-86-17-102 5-13 19-18 135-6 148 15 15 28-2 31-40zm227 36c4-6 3-19-1-28s-8-28-8-42c-1-20-7-26-28-28-23-3-28-8-28-31 0-20-6-30-19-34-11-3-22-2-25 1-8 8-7 157 1 165 10 11 101 8 108-3zm130-15c0-15-8-21-32-23-18-2-33-8-33-13s12-8 28-7c21 2 27-1 27-17 0-14-8-21-27-23-40-5-34-22 7-22 28 0 35-4 35-19 0-16-9-20-56-23-31-1-58-1-60 1-7 7-4 157 3 165 4 4 30 6 58 4 42-3 50-6 50-23zm87-12 23-38 3 38c3 32 6 38 24 35 20-3 21-9 21-80-1-42-4-81-7-87-11-17-42 0-62 32l-19 32-3-32c-3-27-7-33-28-33-23 0-24 2-24 78 0 43 3 82 7 85 16 17 43 4 65-30zm-2497-1697c-21-32-22-119-1-151 14-21 14-25 2-25-15 0-46 67-46 100s31 100 46 100c12 0 12-4-1-24zm632-2c32-49 12-174-27-174-6 0-4 13 5 30 8 16 15 47 15 70s-7 54-15 70c-19 37-2 40 22 4zm-990-6c7-8 16-30 19-49 9-51-24-89-77-89h-39v81 82l41-6c23-3 48-12 56-19zm143 7c0-10-11-15-35-15-28 0-35-4-35-20s7-20 30-20c17 0 30-4 30-10 0-5-13-10-30-10-28 0-30-3-30-35 0-24-5-35-15-35-12 0-15 15-15 73 0 41 3 77 7 80 3 4 26 7 50 7 32 0 43-4 43-15zm95 5c3-6-1-13-9-16-22-8-23-102-1-110 8-4 12-10 9-15-7-12-64-11-64 1 0 6 5 10 10 10 6 0 10 25 10 55s-4 55-10 55c-5 0-10 7-10 15 0 17 55 21 65 5zm177-50c5-68 19-91 46-74 12 8 18 28 20 73 2 43 7 61 15 58 16-5 13-123-4-143-18-21-76-18-89 5-12 24-14 141-1 141 5 0 11-27 13-60zm229 45c0-5-9-11-21-13-18-3-20-11-20-68 0-50-3-64-15-64s-15 14-15 65c0 58-2 65-20 65-11 0-20 7-20 15 0 13 11 15 55 13 30-2 55-7 56-13zm103-15c9 17 21 30 27 30 14 0 11-11-11-48l-21-34 21-32c23-38 24-46 10-46-6 0-19 14-29 31l-19 31-18-31c-10-17-24-31-31-31-18 0-16 11 7 40 25 32 25 45 0 80-27 38-10 48 20 11l26-30zm166 8c46-49 14-138-49-138-38 0-61 32-61 82 0 69 66 103 110 56zm-1328-85c96-87 38-243-89-243-24 0-43 5-43 10 0 6-8 10-18 10-24 0-65 39-58 55 3 8-2 19-10 25-27 23-14 30 41 24 48-6 55-5 55 11s-7 17-55 11c-46-5-55-4-55 9 0 9 6 18 14 21s13 11 10 18c-7 18 30 56 55 56 11 0 21 4 21 9 0 27 99 14 132-16zm5116-150c-28-28-45-40-52-33s1 21 22 43l32 33-31 31c-19 18-28 36-24 43 5 8 21-2 51-31l44-43zm-1446 100c26-23 25-104-1-127s-62-17-79 14c-14 27-8 95 10 117 15 18 48 16 70-4zm194-8c14-22 15-32 6-64-12-39-47-79-59-68-3 4 3 17 15 30 28 30 28 35-2 30-27-6-58 29-49 56 18 48 63 56 89 16zm128 9c25-24 20-78-10-113-31-38-54-42-25-5 26 33 27 44 1 37-11-3-27 0-35 7-18 15-20 61-3 78s54 15 72-4zm134 4c22-22 15-92-13-122-13-14-30-26-36-26-8 0-4 9 8 23 33 36 35 45 9 40s-56 19-56 47c0 40 60 66 88 38zm136-3c11-12 13-22 6-40-6-15-6-27 0-30 14-9 12-49-2-63-17-17-64-15-82 4-20 19-20 24-1 51 10 14 12 24 5 28-14 8-13 38 2 53 17 17 54 15 72-3zm142-10c-11-44-58-141-63-129-2 7 7 39 21 73l25 61h-26c-14 0-32-8-39-17-12-16-13-15-14 10 0 26 2 27 51 27 50 0 51-1 45-25zm114-30c0-46 3-55 18-55 16-1 16-1 0-14-10-7-18-19-18-25 0-7-5-9-10-6-6 4-8 11-5 16 4 5-12 9-34 9-23 0-41 5-41 11 0 19 65 118 78 119 8 0 12-18 12-55zm150 43c0-20-54-148-62-148-13 0-9 17 17 76 14 31 25 58 25 60s-13 4-30 4c-20 0-30-5-30-15 0-8-4-15-10-15-5 0-10 11-10 25 0 23 3 25 50 25 33 0 50-4 50-12zm93-10c-27-31-40-53-24-44 22 14 60-3 67-30 12-49-55-86-87-48-30 36 6 144 48 144 14 0 13-4-4-22zm-1023-123c0-8-4-15-10-15-5 0-10 7-10 15s5 15 10 15c6 0 10-7 10-15zm-3060-35c0-5-4-10-10-10-5 0-10 5-10 10 0 6 5 10 10 10 6 0 10-4 10-10zm171-90-6-45-5 55c-3 30-3 64-1 75 8 35 18-35 12-85zm224 90c3-5 1-10-4-10-6 0-11 5-11 10 0 6 2 10 4 10 3 0 8-4 11-10zm-675-20c42-42 13-110-46-110h-34v65 65h30c17 0 39-9 50-20zm235 10c-3-5-20-10-36-10-41 0-36-32 6-41l30-6-30-4c-25-3-30-8-30-31 1-16-3-28-7-28s-8 29-8 65v65h41c24 0 38-4 34-10zm165-5c14-17 7-19-20-5-40 21-71-60-34-91 13-10 19-10 36 0 11 7 23 10 26 6 8-8-18-25-40-25-33 0-48 12-54 46-12 63 50 112 86 69zm-292-27c7-7 12-20 12-30 0-13-8-18-31-18-20 0-29-4-26-12 2-7 16-12 31-11 14 1 24-2 21-8-9-13-49-11-63 3-18 18-15 65 6 77 23 14 36 13 50-1zm388 4c15-9 25-80 13-88-5-3-9 11-9 31 0 22-6 38-15 41-8 4-15 10-15 15 0 11 11 11 26 1zm112-4c5-7 11-29 14-49 4-35 3-36-34-37-20-1-40 3-43 9-9 14 14 39 36 39 11 0 19 7 19 16 0 12-7 15-25 12-26-5-35 6-12 15 21 9 34 7 45-5zm172-7c13-25 13-81 0-81-5 0-10 16-10 35 0 22-6 38-15 41-19 8-19 24 0 24 8 0 19-9 25-19zm-500-36c0-25-4-45-10-45-5 0-10 20-10 45s5 45 10 45c6 0 10-20 10-45zm387-22c-2-16-4-5-4 22 0 28 2 40 4 28 2-13 2-35 0-50zm57 25c-9-59-14-60-14-5 0 26 5 47 10 47 6 0 8-16 4-42zm-350-683c-20-31-20-109 0-140 15-23 15-25 1-25-23 0-48 67-42 113 6 43 33 91 47 82 6-4 3-16-6-30zm669-6c12-23 17-48 14-76-5-46-32-97-47-88-6 4-3 17 7 31 20 32 20 107-1 139-19 29-20 38-3 33 6-2 20-20 30-39zm-1445 15c47-19 88-58 114-108 31-60 23-160-17-218-44-63-122-101-196-95-63 5-102 23-143 63-46 47-60 83-61 155 0 56 4 73 30 115 56 91 175 129 273 88zm1082-31 1-48 18 23c11 12 24 22 30 22 15 0 14-9-4-27-14-13-13-18 6-49 17-28 18-34 5-34-8 0-20 9-26 20s-15 20-20 20c-6 0-10-9-10-20s-7-20-15-20c-12 0-15 16-15 80s3 80 15 80c11 0 15-12 15-47zm-664 23c14-11 19-26 19-59 0-59-17-77-71-77h-44v75 75h38c21 0 47-6 58-14zm144 4c0-5-16-10-35-10-28 0-35-4-35-20s7-20 30-20c20 0 30-5 30-15s-10-15-30-15c-27 0-30-3-30-30 0-20-5-30-15-30-12 0-15 15-15 75v75h50c28 0 50-4 50-10zm88-4c-13-9-18-27-18-61s5-52 18-61c15-12 13-13-20-14-21 0-38 5-38 10 0 6 5 10 10 10 6 0 10 25 10 55s-4 55-10 55c-5 0-10 5-10 10 0 6 17 10 38 10 33-1 35-2 20-14zm272 4c0-5-11-10-25-10-24 0-25-2-25-65 0-83-18-85-22-2-3 56-5 62-25 65-47 7-21 22 37 22 33 0 60-4 60-10zm99-58c25-59-24-110-74-78-48 31-27 106 29 106 27 0 36-5 45-28zm235 12c13-34 7-44-29-44-26 0-35-4-35-16s7-15 30-12c39 6 49-8 16-23-52-24-95 36-66 92 13 24 75 27 84 3zm130 0c3-9 6-33 6-55 0-28-4-39-15-39s-15 12-15 45c0 38-3 45-20 45s-20-7-20-45c0-33-4-45-15-45-12 0-15 13-15 55v55h44c31 0 46-5 50-16zm2286-94c22-22 27-88 10-121-12-22-62-26-78-6-30 36-20 131 16 140 29 8 32 7 52-13zm318 4c18-12 22-25 22-68 0-58-12-76-50-76s-50 18-50 76c0 43 4 56 22 68 12 9 25 16 28 16s16-7 28-16zm144-8c16-24 19-75 6-103-16-35-65-44-85-17-21 28-16 101 8 125 21 21 56 19 71-5zm128 4c22-22 27-88 10-121-12-22-62-26-78-6-30 36-20 131 16 140 29 8 32 7 52-13zm128 4c18-12 22-25 22-68 0-58-12-76-50-76s-50 18-50 76c0 43 4 56 22 68 12 9 25 16 28 16s16-7 28-16zm130 0c17-12 22-25 22-60 0-60-14-84-48-84-40 0-52 17-52 76 0 43 4 56 22 68 12 9 25 16 28 16s16-7 28-16zm144-8c16-24 19-75 6-103-16-35-65-44-85-17-21 28-16 101 8 125 21 21 56 19 71-5zm142-25c6-20 6-47 0-69-8-33-13-37-45-40-30-3-37 1-47 23-14 31-15 65-3 99 18 47 80 38 95-13zm313 17c18-18 33-37 33-43 0-20-77-88-85-75-4 7 4 23 19 39 32 33 32 36 1 67-14 14-23 30-20 35 9 14 17 11 52-23zm-1277-43c0-58 2-65 20-65 11 0 20-4 20-10 0-5-22-10-50-10-27 0-50 5-50 10 0 6 9 10 20 10 18 0 20 7 20 57 0 44-3 54-12 45-7-7-19-12-27-12-11 0-10 4 4 20 10 11 26 20 37 20 16 0 18-8 18-65zm-100-75c0-5-4-10-10-10-5 0-10 5-10 10 0 6 5 10 10 10 6 0 10-4 10-10zm-3362-41c33-11 47-42 36-84-7-29-31-45-68-45-25 0-26 2-26 63 0 82 3 85 58 66zm257 2c6-3-6-8-25-11-47-7-56-40-11-40 38 0 41-18 4-22-21-2-28-9-28-25 0-12-4-25-8-29s-7 22-7 58c0 35 2 67 5 70 8 8 58 7 70-1zm45-1c0-5-4-10-10-10-5 0-10 5-10 10 0 6 5 10 10 10 6 0 10-4 10-10zm116-5c18-15 18-15-9-9-34 8-57-10-57-45 0-42 14-55 51-47 31 6 33 5 17-10-23-23-66-11-78 22-15 38-12 62 10 84 24 24 40 25 66 5zm55-12c4-26-5-124-10-113-1 3-3 35-4 73-2 66 7 92 14 40zm229 23c0-3-4-8-10-11-5-3-10-1-10 4 0 6 5 11 10 11 6 0 10-2 10-4zm-566-52c11-28 7-34-24-34-42 0-40-28 3-32l32-4-28-8c-18-5-32-4-42 4-18 15-20 61-3 78s55 15 62-4zm166-28c0-25-4-48-10-51-6-4-10 13-10 44 0 28 5 51 10 51 6 0 10-20 10-44zm230 8c4-16 3-39-1-50-6-14-8-10-8 18-1 20-9 44-18 53-16 16-15 17 2 14 12-3 22-16 25-35zm104 24c3-7 6-29 9-48 5-34 4-35-29-35-45 0-66 21-40 41 11 8 26 14 34 14 7 0 12 6 9 13-2 6-14 11-26 10-13-2-20 1-16 7 9 14 55 12 59-2zm53-65c-2-16-4-3-4 27s2 43 4 28c2-16 2-40 0-55zm57 30c-9-65-14-67-14-5 0 30 4 52 11 52s8-16 3-47zm56 28c13-25 13-68 0-76-6-4-10 10-10 34 0 28-5 43-17 50-17 10-17 10-1 11 10 0 22-9 28-19zm-1154-716c66-39 98-93 102-175 5-79-15-128-74-179-47-42-73-51-141-51-198 0-295 224-160 367 23 24 60 50 82 59 56 20 135 12 191-21zm389 10c0-5-17-11-38-13-50-4-49-35 1-40 41-4 42-22 2-22-18 0-33-6-37-15-8-21 0-27 38-29 56-3 47-26-10-26h-51v81 80l48-3c26-2 47-7 47-13zm135 0c0-9-9-15-25-15-24 0-25-2-25-65 0-37-4-65-10-65s-10 28-10 64c0 59-2 65-22 68-12 2-23 9-26 16-3 9 13 12 57 12 48 0 61-3 61-15zm50-20c0-33 2-35 35-35s35 2 35 36c0 24 4 34 13 32 8-3 12-28 12-78s-4-75-12-77c-9-3-13 7-13 31 0 34-2 36-35 36s-35-2-35-36c0-24-4-34-12-32-13 5-24 118-14 144 10 27 26 14 26-21zm4523-217c-35-35-63-49-63-30 0 5 11 19 25 32 31 29 31 37-1 71-15 16-23 32-19 39 5 8 22-2 51-31l44-43zm-1449 96c21-20 21-93 0-122-17-25-42-28-69-8-23 16-27 105-6 130 17 20 55 21 75 0zm190-6c22-30 20-91-2-118-25-30-68-21-83 18-12 31-6 87 12 108 17 21 56 17 73-8zm136 3c16-31 12-102-7-123-38-42-83-10-83 58 0 61 14 84 50 84 19 0 33-7 40-19zm139-15c21-45 4-108-33-121-24-8-31-6-48 15-16 20-19 35-15 73 2 27 11 53 18 58 26 17 63 5 78-25zm125 12c32-46 10-138-33-138-37 0-55 25-55 78 0 28 6 57 13 66 19 23 57 20 75-6zm131-36c0-35 4-52 13-52s7-8-5-27c-14-22-19-24-21-10-3 12-13 17-37 17-19 0-36 4-39 9s9 34 27 65c41 71 62 71 62-2zm105-8c0-57 3-67 20-71 37-10 20-23-30-23-27 0-50 5-50 10 0 6 9 10 19 10 15 0 20 9 22 43 2 24 2 52 1 61-4 17-5 17-23 0-23-21-25-8-2 18 32 35 43 23 43-48zm158 38c2-13-2-30-8-38-8-9-9-14-2-14 6 0 14-9 17-21 13-41-52-78-83-47-17 17-15 33 2 18 20-16 60-9 64 12 2 10-8 22-24 31-27 14-27 15-6 21 13 5 22 16 22 28 0 17-5 20-30 16-16-3-30-2-30 2 0 14 16 21 45 18 23-2 31-9 33-26zm152 22c0-16-63-154-71-154-12 0-13-2 16 68 14 34 25 64 25 67s-13 5-30 5c-22 0-30-5-30-17 0-13-3-14-11-6-24 24-2 43 51 43 27 0 50-3 50-6zm-1070-139c0-8-4-15-10-15-5 0-10 7-10 15s5 15 10 15c6 0 10-7 10-15zm-3220-51c0-20 4-25 16-20 9 4 23 1 30-5 16-13 19-89 4-89-5 0-10 18-10 40 0 33-3 40-20 40s-20-7-20-40c0-22-4-40-10-40s-10 30-10 70 4 70 10 70 10-12 10-26zm-125 5c-4-5-19-9-33-7-21 2-27-1-27-17 0-14 9-22 30-26 29-6 29-7 4-8-18-1-28-8-32-21-6-24 6-34 32-25 11 3 22 1 26-5s-9-10-34-10h-41v65 65h41c26 0 38-4 34-11zm63-16c12-12 13-18 4-21-16-5-16-69 1-76 6-3 3-5-8-3-16 2-21 12-26 47-6 42-3 70 8 70 2 0 12-8 21-17zm222-22c14-28 13-41-6-41-11 0-14 6-9 21 6 17 3 20-16 17-30-4-37-54-8-63 10-4 24-3 30 1 8 4 9 3 5-4-20-33-82 4-70 42 15 48 54 63 74 27zm90 9c3-1-5-5-17-10-18-7-23-18-24-47l-2-38-6 35c-11 59 1 74 49 60zm-765-719c49-22 99-77 115-126 7-21 10-63 8-95-13-176-228-262-359-143-69 62-91 132-70 221 32 130 181 200 306 143zm415-6c10-12 10-21 2-40-7-15-8-25-2-25 11 0 13-30 4-54-4-12-20-16-55-16h-49v75 75h44c27 0 48-6 56-15zm140 5c0-5-11-10-25-10-24 0-25-2-25-65 0-37-4-65-10-65s-10 28-10 65c0 63-1 65-25 65-14 0-25 5-25 10 0 6 27 10 60 10s60-4 60-10zm114 4c9-3 16-12 16-20 0-17-5-17-30-2-31 20-55-1-55-47 0-47 24-67 56-47 25 16 37 8 19-13-17-20-74-19-91 2-8 9-14 35-14 58s6 49 14 58c14 17 56 22 85 11zm2996-144c22-22 27-88 10-121-12-22-62-26-78-6-17 21-23 72-12 103 19 48 47 57 80 24zm190 0c23-23 26-75 8-115-8-18-19-25-39-25-42 0-63 37-55 95 10 63 48 83 86 45zm132 3c20-18 25-91 8-124-12-22-59-26-78-7-7 7-12 34-12 62 0 74 39 108 82 69zm125 9c20-12 34-64 27-96-9-43-22-56-55-56-22 0-32 6-39 26-29 76 15 159 67 126zm143-12c22-22 26-72 10-115-8-22-15-26-42-23-41 4-63 43-54 94 12 61 50 80 86 44zm132 3c13-11 18-30 18-68 0-58-12-75-52-75-34 0-48 24-48 81 0 67 41 99 82 62zm119 7c30-16 24-59-13-97l-32-33h37c20 0 37-4 37-10 0-5-22-10-50-10s-50 5-50 10c0 6 16 24 35 41 22 20 35 40 35 55 0 29-24 41-45 24-9-7-19-10-23-6-7 8 25 36 41 36 4 0 17-5 28-10zm144-3c37-28 2-147-43-147-11 0-7 9 13 30l29 30h-30c-52 0-72 44-37 82 19 21 42 23 68 5zm142 0c3-4-10-7-30-7-33 0-37-3-37-26 0-20 4-25 16-20 38 14 75-35 54-74-12-22-73-29-85-9-11 16 1 22 23 10 16-9 24-7 36 5 9 8 16 19 16 23 0 18-29 32-54 25-24-6-26-3-26 24 0 17 7 37 15 46 15 14 58 16 72 3zm320-19c18-18 33-37 33-43 0-20-77-88-85-75-4 7 4 23 19 39 32 34 32 42 1 71-14 13-25 27-25 32 0 17 25 7 57-24zm-1377-118c0-5-4-10-10-10-5 0-10 5-10 10 0 6 5 10 10 10 6 0 10-4 10-10zm-3344-44c15-12 17-18 8-33-8-12-8-23-1-34 14-23 2-47-28-55-46-12-55 0-55 71 0 65 0 65 28 65 16 0 37-6 48-14zm64 10c0-3-4-8-10-11-5-3-10-1-10 4 0 6 5 11 10 11 6 0 10-2 10-4zm64-38c8-5 7-8-1-8s-13-14-13-34c0-19 6-37 13-39 7-3 5-6-5-6-14-1-18 7-18 33 0 19-4 38-10 41-6 4-5 13 3 26s13 15 16 7c2-7 9-16 15-20zm-64-43c0-25-4-45-10-45-5 0-10 20-10 45s5 45 10 45c6 0 10-20 10-45zm165 36c3-6-7-9-22-8-25 2-28-1-28-28 0-26 4-30 28-30 30 1 36-9 11-19-38-14-75 35-54 74 11 21 54 28 65 11zm103-3c19-19 15-66-8-78-32-17-60 4-60 44 0 18 3 36 7 39 11 11 48 8 61-5zm49-55c-2-16-4-5-4 22 0 28 2 40 4 28 2-13 2-35 0-50zm58 25c-7-58-15-60-15-5 0 26 5 47 10 47 6 0 8-17 5-42zm59 20c9-35 7-68-4-68-5 0-10 16-10 35 0 22-6 38-17 44-16 9-16 10 3 11 14 0 24-8 28-22zm-883-705c74-38 111-93 117-173 6-78-16-137-67-183-49-45-99-60-172-55-79 6-134 43-171 117-46 90-33 175 35 248 73 76 165 93 258 46zm331-45c3-58 5-63 27-66 31-5 41 12 41 76 0 28 5 52 10 52 17 0 12-126-6-144s-47-20-75-6c-16 9-19 22-19 80 0 87 18 93 22 8zm207 53c7-5 10-14 6-20-5-9-10-9-21 0-7 6-21 9-29 5-26-9-17-34 16-41 42-9 59-47 34-75-21-24-67-26-85-5-17 21-7 29 18 16 11-6 28-8 37-5 26 10 13 36-25 48s-52 45-30 72c14 16 57 19 79 5zm150-17c45-57 8-134-64-134h-35v80 80h39c31 0 44-6 60-26zm149 14c-3-7-10-14-16-14-7-1-16-2-22-3-6 0-10-30-10-66 0-37-4-65-10-65s-10 28-10 65c0 61-2 65-25 71-45 11-26 24 36 24 44 0 60-3 57-12zm4302-202c0-15-62-76-77-76-20 0-16 14 12 40 31 29 31 37-1 71-15 16-23 32-19 39 8 12 85-55 85-74zm-1486 68c27-10 20-62-14-96-16-16-30-31-30-34 0-2 16-4 36-4 19 0 33-4 30-9-8-12-84-12-92 1-3 5 10 26 30 47 43 44 48 81 12 81-13 0-26-6-29-12-2-7-8-10-12-6s-2 14 5 23c13 16 37 19 64 9zm194-6c21-21 13-59-18-88-16-15-30-31-30-34s16-6 36-6c51 0 34-16-20-19-56-2-58 8-11 60 41 46 46 79 12 79-13 0-28-5-35-12-9-9-12-9-12 3 0 9 3 19 7 22 11 11 58 8 71-5zm141-10c11-30 5-46-32-85l-31-33h38c22 0 35-4 31-10-8-14-82-13-91 1-3 6 10 27 30 48 43 44 48 81 12 81-13 0-26-6-29-12-2-7-8-10-12-6-14 13 17 38 47 38 21 0 31-6 37-22zm137-7c15-29 3-75-28-108-28-30-48-30-21 0 34 37 34 44 2 44-47 0-66 45-33 78 23 22 66 15 80-14zm128 13c9-8 16-25 16-36 0-30-30-87-51-99-25-13-24 3 1 26 24 22 26 40 4 31-26-10-54 12-54 42 0 16 5 33 12 40 17 17 54 15 72-4zm136 1c10-12 10-21 2-40-7-15-8-26-2-30 20-13 10-55-15-67-35-16-75 3-75 36 0 14 4 27 10 31s5 15-2 30c-14 32 4 55 42 55 15 0 33-7 40-15zm114 9c18-7 22-49 5-60-8-4-8-9 0-17 20-20 13-57-14-69-28-13-81 4-70 22 4 6 13 5 24-2 24-15 51-4 51 21 0 12-10 23-27 29l-28 10 28 11c15 6 27 18 27 27 0 13-7 16-35 11-19-3-35-2-35 3 0 17 45 25 74 14zm156-8c0-23-62-152-67-139-2 6 7 37 21 70l24 58-26 3c-15 2-28-1-30-7-6-19-22-12-22 9 0 17 7 20 50 20 36 0 50-4 50-14zm125-26c0-19 4-41 9-48 14-23-2-61-29-68-37-9-79 21-70 49 4 12 7 37 6 56-1 40 12 52 54 49 27-3 30-6 30-38zm-1055-105c0-8-4-15-10-15-5 0-10 7-10 15s5 15 10 15c6 0 10-7 10-15zm-3130-95c0-40-4-70-10-70s-10 30-10 70 4 70 10 70 10-30 10-70zm-227 50c-20-8-23-17-23-65 0-31-4-54-9-51-4 3-7 28-5 56 2 45-1 52-19 60-17 7-10 9 28 9 40 0 45-2 28-9zm567-50c0-51 12-64 43-48 13 6 17 21 17 58 0 31 4 50 11 50 12 0 7-99-6-120-9-14-58-13-73 2s-17 122-2 113c6-3 10-28 10-55zm190 50c0-5-13-7-30-3-25 4-30 2-30-14 0-12 11-23 30-30 35-13 47-37 29-59-15-18-70-15-77 4-3 11 0 12 16 3 11-6 28-8 37-5 23 9 14 37-14 44-29 7-46 31-38 54 7 18 77 24 77 6zm124-12c35-49 7-108-50-108h-34v65 65h34c25 0 39-7 50-22zm-712-26c-15-5-16-54 0-70 9-9 8-12-5-12-10 0-19 11-22 28-4 15-8 36-10 46-2 11 1 26 6 33 9 10 14 9 27-4 12-12 13-18 4-21zm-68-4c13-21 6-28-30-32-16-2-31-4-33-5-2 0 2-8 9-16 8-10 21-13 38-8 17 4 23 2 18-6-9-15-49-14-64 1-16 16-15 61 0 76 17 17 48 11 62-10zm180 6c10-25 7-84-4-84-5 0-10 18-10 40 0 30-4 40-16 40-8 0-12 5-9 10 9 15 32 12 39-6zm110-7c8-13 8-20-4-27-8-5-18-6-23-3-4 2-15 2-24-1-23-9 4-38 28-31 11 4 19 2 19-4 0-15-43-14-58 1-16 16-15 61 0 76 17 17 48 11 62-11zm86 12c0-5-7-9-15-9-14 0-21-30-16-67 1-7-3-13-9-13-5 0-10 22-10 49 0 45 2 49 25 49 14 0 25-4 25-9zm944-3585c9-19 16-36 16-37s-25 0-55 1l-55 4v55 54l39-21c22-13 45-37 55-56zm2872 51c9-26 24-35 49-29 29 7 52-31 30-52-20-20-19-51 1-62 14-8 14-10 0-24-8-9-12-19-8-23 4-3-5-4-21 0-28 7-62-10-51-26 3-5 0-9-6-9s-8-5-4-11c4-7-2-9-17-7-14 2-29 14-37 32-12 24-18 27-43 22-37-7-59 25-34 50 20 20 19 51-1 62-13 7-14 13-4 31 9 18 17 21 41 16 26-6 31-3 40 24 8 24 16 30 35 29 14-2 27-11 30-23zm-3016 5c-10-6-11-10-2-10s12-25 12-90-3-90-12-90-10-3-2-8c6-4 11-15 11-25 0-24-33-13-71 23-41 40-47 107-15 155 13 19 30 33 37 30s11-1 7 4c-6 10 10 19 35 20 13 1 13 0 0-9zm1573-11c53-29 76-90 53-142-26-62-72-84-137-67-22 6-39 13-37 15 2 3 21 0 42-6 71-20 126 24 126 98 0 21-7 48-15 59-33 48-122 56-160 15-9-11-20-35-25-54-6-30-5-35 9-30s14 4-1-12c-14-15-20-16-33-5-12 10-13 15-4 21 7 4 14 17 16 29 10 70 101 113 166 79zm-40-119c11-13 10-13-5-1-10 7-17 25-17 40l2 26 4-25c3-14 10-32 16-40zm-1383-21c0-23-60-89-82-89-9 0-14 16-16 55l-2 55h50c44 0 50-2 50-21zm-227-256c-7-2-19-2-25 0-7 3-2 5 12 5s19-2 13-5zm84-15c-3-8-6-5-6 6-1 11 2 17 5 13 3-3 4-12 1-19zm46 15c-7-2-19-2-25 0-7 3-2 5 12 5s19-2 13-5zm2484 1c-3-3-12-4-19-1-8 3-5 6 6 6 11 1 17-2 13-5zm425-66c2-20 0-34-4-32-4 3-7 26-7 52 1 49 5 42 11-20zm-1784 6c-3-14-5-12-10 9-3 19-2 25 4 19s8-18 6-28zm1642 32c0-3-4-8-10-11-5-3-10-1-10 4 0 6 5 11 10 11 6 0 10-2 10-4zm-2923-38c-3-7-5-2-5 12s2 19 5 13c2-7 2-19 0-25zm110 10c-3-8-6-5-6 6-1 11 2 17 5 13 3-3 4-12 1-19zm130 7c0-8-4-15-9-15-10 0-11 14-1 23 9 10 10 9 10-8zm1090-7c-3-8-6-5-6 6-1 11 2 17 5 13 3-3 4-12 1-19zm801-19c-3-20-5-19-9 9-3 20-2 29 4 23 5-5 7-19 5-32zm599-6c-3-10-5-2-5 17s2 27 5 18c2-10 2-26 0-35zm-750 15c-3-8-6-5-6 6-1 11 2 17 5 13 3-3 4-12 1-19zm987 7c3-8 1-15-4-15-6 0-10 7-10 15s2 15 4 15 6-7 10-15zm-52-20c3-13 1-22-3-19-9 5-13 44-5 44 2 0 6-11 8-25zm-2787-17c6-4 2-8-7-8-10 0-18 7-18 17 0 9 3 12 8 7 4-5 12-12 17-16zm1569 6c3-8 2-12-4-9s-10 10-10 16c0 14 7 11 14-7zm926-7c22-4 21-5-4-4-17 1-31 9-33 17-3 10-2 11 4 4 4-7 19-14 33-17zm957 1c-3-8-6-5-6 6-1 11 2 17 5 13 3-3 4-12 1-19zm-412-6c-3-3-11 0-18 7-9 10-8 11 6 5 10-3 15-9 12-12zm-3128 2c-3-3-12-4-19-1-8 3-5 6 6 6 11 1 17-2 13-5z"/><path d="m671 12475-20-35h24c22 0 25 4 25 35 0 19-2 35-4 35s-13-16-25-35z"/><path d="m3118 11958c-3-7-2-23 0-36 7-35 36-24 40 16 3 26 0 32-17 32-10 0-21-5-23-12z"/><path d="m2987 11923c-13-12-7-23 13-23 11 0 20 7 20 15 0 15-21 21-33 8z"/><path d="m3245 11960c-4-6 5-10 20-10s24 4 20 10c-3 6-12 10-20 10s-17-4-20-10z"/><path d="m2890 11670c0-5 7-10 15-10s15 5 15 10c0 6-7 10-15 10s-15-4-15-10z"/><path d="m3256 11713c-11-11-6-23 9-23 8 0 15 4 15 9 0 13-16 22-24 14z"/><path d="m3520 10790c0-5 6-10 14-10s18 5 21 10c3 6-3 10-14 10-12 0-21-4-21-10z"/><path d="m870 9050c0-56 14-69 49-50 15 7 21 21 21 43 0 39-15 57-47 57-21 0-23-4-23-50z"/><path d="m1785 9090c-13-20-8-71 9-88 27-27 51-4 51 49 0 40-2 44-27 47-14 2-29-2-33-8z"/><path d="m428 9007c-3-13-1-32 3-43 5-13 8-7 8 24 1 46-4 55-11 19z"/><path d="m477 9003c-10-9-9-171 1-177 15-9 50 23 62 58 12 36 2 76-27 108-17 19-26 22-36 11z"/><path d="m363 8983c9-9 19-14 23-11 10 10-6 28-24 28-15 0-15-1 1-17z"/><path d="m428 8863c-2-10-1-29 3-43 6-20 7-17 8 18 1 44-4 54-11 25z"/><path d="m359 8844c-12-14-11-16 5-13 11 2 21 10 24 17 5 17-13 15-29-4z"/><path d="m4140 8944c-20-53 24-125 51-82 10 15 12 69 3 92-10 25-43 19-54-10z"/><path d="m4328 8953c-7-28 2-43 27-43s38 21 29 45c-8 21-51 19-56-2z"/><path d="m4464 8956c-10-26 4-48 28-44 17 2 23 10 23 28s-6 26-23 28c-13 2-25-3-28-12z"/><path d="m4594 8956c-10-26 4-48 28-44 17 2 23 10 23 28s-6 26-23 28c-13 2-25-3-28-12z"/><path d="m4730 8950c0-25 25-36 45-20s7 40-21 40c-17 0-24-6-24-20z"/><path d="m4736 8895c-22-22-9-47 23-43s40 33 12 47c-15 8-23 7-35-4z"/><path d="m5003 8920-21-40h23c25 0 35 22 26 57-5 21-8 19-28-17z"/><path d="m5257 8898c-8-25 5-48 28-48 25 0 38 21 29 45-7 18-51 20-57 3z"/><path d="m869 8775c-4-65-2-80 13-83 33-6 58 41 42 82-8 21-54 21-55 1z"/><path d="m990 8745c0-8 9-15 20-15s20 7 20 15-9 15-20 15-20-7-20-15z"/><path d="m1490 8705c0-8 9-15 20-15s20 7 20 15-9 15-20 15-20-7-20-15z"/><path d="m406 7974c-9-8-19-13-24-10-4 2-14 1-21-4-11-6-9-10 8-19 11-7 21-18 21-26 0-22-28-18-35 5-9 28-25 25-25-5 0-14-4-25-10-25-5 0-10-7-10-15 0-11 10-13 49-8 33 4 51 2 56-7 12-20-16-31-62-25-40 6-58-5-33-20 6-3 10-16 10-27 0-23 26-47 51-48 9 0 22-6 28-14 14-17 78-7 116 18 54 35 68 124 30 183-36 54-117 80-149 47zm34-50c0-27-4-43-10-39-11 7-13 45-4 69 10 26 14 18 14-30zm79 2c30-32 37-85 17-124-14-27-43-52-60-52-3 0-6 45-6 100 0 109 7 120 49 76zm-80-153c-1-47-1-48-11-16-6 18-8 39-5 47 11 29 17 17 16-31zm-49 13c0-13-29-31-37-23-2 2-1 12 3 21 8 20 34 21 34 2z"/><path d="m870 7985c0-51 2-55 23-55 31 0 47 18 47 55s-16 55-47 55c-21 0-23-4-23-55z"/><path d="m1480 7965c0-32 3-36 23-33 17 2 22 10 22 33s-5 31-22 33c-20 3-23-1-23-33z"/><path d="m1720 7985c0-11 7-15 23-13 12 2 22 8 22 13 0 6-10 11-22 13-16 2-23-2-23-13z"/><path d="m4145 7895c-3-8-7-22-10-30-7-25 6-73 22-80 9-3 22 0 29 6 17 14 18 91 2 107-17 17-38 15-43-3z"/><path d="m4472 7898c-17-17-15-93 3-108 12-10 18-10 30 0 27 23 15 120-15 120-3 0-11-5-18-12z"/><path d="m4602 7898c-7-7-12-31-12-54 0-70 53-88 65-22 12 61-21 108-53 76z"/><path d="m4729 7883c-13-36-3-89 19-98 23-9 42 21 42 65 0 60-42 83-61 33z"/><path d="m4872 7898c-17-17-15-93 3-108 12-10 18-10 30 0 27 23 15 120-15 120-3 0-11-5-18-12z"/><path d="m4996 7894c-22-57 6-131 39-104 18 15 20 91 3 108s-35 15-42-4z"/><path d="m5132 7898c-17-17-15-93 3-108 33-27 66 40 43 87-15 31-29 38-46 21z"/><path d="m5259 7883c-13-34-4-89 16-97 21-8 45 21 45 55 0 65-41 93-61 42z"/><path d="m868 7723c-2-5-3-26-3-48 1-43 22-58 50-35 18 15 20 61 3 78-13 13-45 16-50 5z"/><path d="m997 7693c-14-13-6-23 18-23 18 0 23 4 19 15-6 16-26 20-37 8z"/><path d="m1494 7649c-7-12 15-31 28-23 4 3 8 12 8 20 0 17-26 19-36 3z"/><path d="m473 6779c4-15 2-19-9-15-8 3-14-1-14-10 0-13 7-11 40 7 26 15 36 25 28 30-7 4-18 0-25-9-12-16-13-16-7 1 4 10 1 17-6 17-8 0-10-8-7-21z"/><path d="m4141 6817c-13-34 1-91 23-95 10-2 22 2 27 10 10 15 12 69 3 92-9 24-43 19-53-7z"/><path d="m4330 6821c-14-28-13-64 4-87 31-40 68 19 52 82-8 29-41 32-56 5z"/><path d="m4464 6827c-3-8-4-34-2-58 2-37 7-45 25-47 26-4 37 24 31 79-2 26-8 35-26 37-12 2-24-3-28-11z"/><path d="m4596 6824c-9-23-7-77 3-92 27-43 72 27 52 81-12 30-45 37-55 11z"/><path d="m4729 6819c-14-26-3-88 17-96 34-13 57 50 38 101-9 23-41 20-55-5z"/><path d="m4879 6795-26-40 24-3c32-5 35-1 31 44l-3 39z"/><path d="m870 5890c0-16 7-20 30-20s30 4 30 20-7 20-30 20-30-4-30-20z"/><path d="m877 5844c-4-4-7-16-7-26 0-13 8-18 31-18 26 0 30 3 27 23-3 22-36 36-51 21z"/><path d="m4143 5763c-12-31-7-83 9-99 14-14 17-14 32 1 19 19 22 85 4 103-17 17-38 15-45-5z"/><path d="m4329 5753c-13-34-4-89 16-97 23-8 45 22 45 63 0 61-42 84-61 34z"/><path d="m4472 5768c-15-15-16-90 0-106 7-7 17-8 30-1 31 17 21 119-12 119-3 0-11-5-18-12z"/><path d="m4602 5768c-32-32 0-135 33-108 20 16 27 62 16 93-11 29-30 34-49 15z"/><path d="m4730 5754c-14-37-12-59 8-84 17-21 19-21 35-5 10 9 17 32 17 54 0 60-42 84-60 35z"/><path d="m4872 5768c-20-20-15-96 6-107 27-14 42 5 42 54 0 37-13 65-30 65-3 0-11-5-18-12z"/><path d="m5130 5766c-18-22-5-46 25-46 23 0 26 4 23 27-3 32-29 41-48 19z"/><path d="m867 5587c-7-20 1-27 30-27 18 0 24 5 21 18-4 21-43 28-51 9z"/><path d="m862 5523c2-11 14-19 31-21 22-3 27 1 27 17 0 17-6 21-31 21-24 0-30-4-27-17z"/><path d="m1204 5546c-7-31 1-46 27-46 17 0 20 6 17 32-4 42-34 51-44 14z"/><path d="m428 4663c6-2 18-2 25 0 6 3 1 5-13 5s-19-2-12-5z"/><path d="m1156 4842c-3-3-6-27-6-54v-49l33 3c31 3 32 5 32 47 0 40-3 45-27 52-15 4-29 4-32 1z"/><path d="m4593 4694c-3-8 1-23 10-31 21-21 47-9 47 22 0 20-5 25-25 25-14 0-28-7-32-16z"/><path d="m4741 4711c-19-12-9-55 13-59 19-4 36 13 36 35 0 17-33 33-49 24z"/><path d="m4869 4704c-15-18 0-38 27-32 25 5 28 25 6 37-15 8-23 7-33-5z"/><path d="m4864 4636c-10-26 4-48 28-44 17 2 23 10 23 28s-6 26-23 28c-13 2-25-3-28-12z"/><path d="m5273 4713c-7-3-13-13-13-24 0-14 7-19 25-19s25 5 25 19c0 20-17 31-37 24z"/><path d="m5261 4636c-17-20-2-46 25-46 29 0 41 24 24 45-16 19-34 19-49 1z"/><path d="m1728 4490c-3-48-2-50 23-50 41 0 56 70 20 90-33 17-39 12-43-40z"/><path d="m960 4495c-11-13-9-15 15-15 16 0 25 5 23 12-7 19-24 20-38 3z"/><path d="m1257 4504c-13-13-7-24 14-24 11 0 19 5 17 12-5 14-22 21-31 12z"/><path d="m5156 963c-6-14-5-15 5-6 7 7 10 15 7 18s-9-2-12-12z"/><path d="m5195 930c-4-6-11-8-16-4-5 3-16 0-24-6s-18-10-22-7c-9 6-14-39-8-70 3-12 17-25 33-31 24-8 31-6 50 15 26 29 28 56 6 77-8 9-12 20-9 26 3 5 4 10 1 10s-8-5-11-10z"/><path d="m2125 880c3-5 8-10 11-10 2 0 4 5 4 10 0 6-5 10-11 10-5 0-7-4-4-10z"/></g></svg>