<svg height="1280pt" preserveAspectRatio="xMidYMid meet" viewBox="0 0 591 1280" width="591pt" xmlns="http://www.w3.org/2000/svg"><g transform="matrix(.1 0 0 -.1 0 1280)"><path d="m0 6400v-6400h2955 2955v6400 6400h-2955-2955zm730 6095c0-30 5-55 10-55 6 0 10-7 10-15s-4-15-10-15c-5 0-10-7-10-15s-7-15-15-15-15 7-15 15c0 11-11 15-40 15-51 0-51 13-5 85 23 37 41 55 55 55 18 0 20-7 20-55zm211 45c21-12 26-56 7-62-9-3-8-9 5-22 9-10 17-24 17-31 0-43-82-61-114-26-24 26-1 39 25 15 15-14 24-16 37-7 23 14 21 37-3 41-34 7-40 21-12 31 35 13 36 41 2 41-14 0-25-4-25-10 0-5-7-10-15-10-21 0-19 27 3 39 22 13 48 14 73 1zm153-6c19-19 20-36 4-52-9-9-9-15 0-24 7-7 12-21 12-33s-5-26-12-33c-17-17-74-15-92 4-20 20-20 34-1 34 8 0 15-4 15-9 0-13 27-21 45-15 23 9 18 42-7 46-30 4-34 26-6 30 32 4 37 38 6 38-13 0-29-5-35-11s-17-9-24-7c-20 7 27 48 55 48 14 0 32-7 40-16zm3934-4c17-11 32-24 32-28 0-19-14-20-43-5-40 20-100 20-132-1-25-16-45-14-45 5 0 20 66 49 110 49 27 0 58-8 78-20zm437-65v-60l-129-3c-86-2-133 1-142 9-17 14-18 91-2 107 9 9 50 12 143 10l130-3zm-4655 40c0-8-7-15-15-15s-15 7-15 15 7 15 15 15 15-7 15-15zm4196-29c28-21 7-40-29-27-18 7-36 7-54 0s-30-6-37 1c-17 17 21 40 64 40 20 0 45-6 56-14zm-4198-53c-5-25-28-28-28-4 0 12 6 21 16 21 9 0 14-7 12-17zm4172-7c0-7-7-19-15-26-12-10-18-10-30 0-25 21-18 40 15 40 19 0 30-5 30-14zm-2030-423v-46l23 21c30 28 58 30 32 2-16-18-16-20 5-55 21-34 21-35 1-35-11 0-22 9-26 20-3 11-11 20-17 20-5 0-12-9-15-20-12-44-35-3-28 50 2 14 4 40 4 58 1 51 21 37 21-15zm210 32c0-8-7-15-15-15s-15 7-15 15 7 15 15 15 15-7 15-15zm-810-4c0-5-10-11-22-13-21-3-23-9-26-65-2-47-7-63-17-63-12 0-15 15-15 65 0 58-2 65-20 65-11 0-20 5-20 10 0 6 27 10 60 10s60-4 60-9zm730-6c0-9 7-18 15-21 8-4 15-10 15-15s-7-9-15-9c-10 0-15-11-15-35s5-35 15-35c8 0 15-5 15-11s-10-9-22-7c-18 2-24 11-26 38-2 19-8 40-13 46s-4 21 4 37c13 30 27 35 27 12zm-568-27c9-7 18-34 21-59l4-46-47-2c-39 0-49 3-53 19-5 21 6 34 41 44 30 10 28 29-3 24-31-6-42 7-18 21s36 13 55-1zm129 2c25-14 29-110 4-110-11 0-15 12-15 45 0 38-3 45-20 45s-20-7-20-45c0-33-4-45-15-45s-15 13-15 54c0 52 1 55 28 59 15 2 28 5 30 6 2 0 12-4 23-9zm113 4c25-9 19-24-9-24-14 0-25-4-25-10 0-5 8-10 19-10 26 0 44-25 36-50-5-17-13-21-43-18-19 2-37 9-40 15-2 9 5 11 27 7 40-8 41 11 1 25-34 11-41 44-12 60 20 12 25 13 46 5zm119-6c9-7 18-28 20-46 2-17 7-35 10-39 16-15 4-21-45-19-49 1-53 3-53 25 0 19 8 27 35 36 28 10 32 14 18 20-10 4-25 5-33 2-21-9-28 10-8 22 24 14 36 13 56-1zm395-4c42-29 22-104-28-104-40 0-61 31-49 73 14 48 39 58 77 31zm131 1c15-16 18-98 4-102-9-3-13 8-13 36s-5 44-15 48c-22 8-25 2-27-45-1-28-6-42-15-42s-13 16-13 58v57h35c19 0 39-5 44-10zm119-1c12-8 22-24 22-35 0-15-7-19-36-19-41 0-44-24-3-27 42-2 44-3 29-13-21-13-64-12-78 2-21 21-15 75 10 92 12 9 25 16 28 16s16-7 28-16zm136 0c22-21 22-104 1-104-11 0-15 12-15 45 0 38-3 45-20 45s-20-7-20-45c0-33-4-45-15-45s-15 13-15 54c0 52 1 55 28 59 15 2 30 5 34 6 4 0 14-6 22-15zm-1234-3c0-5-9-13-20-16-16-5-20-15-20-46 0-28-4-39-15-39-12 0-15 13-15 55v55h35c19 0 35-4 35-9zm740-46c0-42-3-55-15-55s-15 13-15 55 3 55 15 55 15-13 15-55zm-538-192c23-20 23-52 1-69-24-18-43-17-65 3-23 21-23 38 2 63 24 24 38 25 62 3zm156-8c6-14 15-25 20-25s14 11 20 25c19 41 32 29 32-30 0-30-4-55-10-55-5 0-10 17-10 38l-1 37-16-29-16-30-16 30-16 29-3-37c-5-55-22-46-22 10 0 67 17 83 38 37zm379-13 22-37 1 38c0 20 5 37 10 37 6 0 10-27 10-60 0-69-15-73-46-12l-19 37-3-37c-5-58-22-45-22 17 0 66 15 72 47 17zm194 21c6-52 3-100-7-96-13 5-24 69-16 91 5 13 21 17 23 5zm-417-25c3-7 7-27 9-43 5-29 4-31-29-30-19 1-37 4-40 8-12 12 6 37 27 37 12 0 19 5 16 13-2 6-11 11-21 9-9-2-16 2-16 8 0 14 50 13 54-2zm56-28c0-22-4-40-10-40-5 0-10 18-10 40s5 40 10 40c6 0 10-18 10-40zm92 28c11-18 10-68-2-68-5 0-10 14-10 30 0 23-4 30-20 30s-20-7-20-30c0-16-4-30-10-30-10 0-15 62-6 71 11 11 60 8 68-3zm206 0c20-20 14-38-13-38-14 0-25-5-25-11s9-9 20-6 20 1 20-4c0-16-29-22-45-9-15 13-21 61-8 73 10 11 38 8 51-5zm-2030-430c-6-18-28-21-28-4 0 9 7 16 16 16s14-5 12-12zm362-67v-78l-31-7c-51-10-71 8-67 62 3 45 4 47 36 50 23 2 32 8 32 21 0 10 3 21 7 24 17 18 23 1 23-72zm-776 36c8-21 6-31-6-44-15-14-15-19-2-44 21-42-2-47-27-5-26 45-49 47-49 6 0-16-4-30-10-30s-10 32-10 76v75l47-3c42-3 49-6 57-31zm106-17c31-31 25-48-17-52-43-3-43-24 0-22 17 1 27-3 27-12 0-22-68-23-82-1-16 25-8 76 14 91 29 20 34 20 58-4zm248-29c3-18-2-21-32-21-26 0-36-4-36-16s7-15 30-12c39 6 49-8 17-23-46-21-86 22-73 77 13 50 87 46 94-5zm-120 22c2-9-5-11-27-7-30 6-31 6-31-31 0-36 1-37 30-31 35 7 44-18 10-29-30-10-70 20-70 51 0 44 18 66 52 62 17-2 33-9 36-15zm182-38c0-42-3-55-15-55s-15 13-15 55 3 55 15 55 15-13 15-55zm56 20c9-49 19-51 33-5 6 22 16 40 21 40 13 0 13-9-6-63-21-61-46-63-63-6-7 23-15 47-18 55s1 14 10 14c10 0 18-13 23-35zm174 16c17-33 11-41-31-41-28 0-39-4-36-12 2-7 18-12 36-12 35 2 44-21 11-31-56-18-97 55-58 103 16 19 66 15 78-7zm-1163-98c-2-16-4-5-4 22 0 28 2 40 4 28 2-13 2-35 0-50zm3393 28c16-31 12-102-7-123-20-22-41-23-65-1-21 19-26 111-6 131 19 19 66 15 78-7zm190 0c5-11 10-30 10-43 0-32-36-88-57-88-14 0-13 3 5 23 24 26 29 42 10 34-7-2-23-1-35 4-26 9-32 56-11 77 19 19 66 15 78-7zm128 7c23-23 14-85-16-119-19-22-31-28-36-21-4 7-3 12 2 12s17 11 25 23c15 23 14 24-15 24-32 0-48 16-48 49 0 27 19 44 50 44 14 0 31-5 38-12zm129 4c25-16 26-65 1-101-13-19-30-37-38-39-13-4-13-2 1 14 29 35 34 48 15 41-21-8-51 6-60 28-3 8-1 26 4 40 7 18 17 25 37 25 16 0 34-4 40-8zm144-8c10-13 10-19 0-36-9-15-10-23-2-31 21-21 13-57-16-68-41-15-73 3-73 41 0 17 5 30 12 30 9 0 9 3 0 12-28 28-6 68 39 68 15 0 32-7 40-16zm139 4c0-22-52-138-62-138-11 0-4 25 23 84l18 41-27 3c-14 2-28-1-30-7-6-19-22-12-22 9 0 17 7 20 50 20 33 0 50-4 50-12zm120-43c0-37 4-55 13-55 8 0 8-3 1-8-6-4-14-16-18-27-7-16-9-17-14-5-7 21-23 30-55 30-16 0-27 3-25 8 24 56 64 112 80 112 15 0 18-8 18-55zm129 3c-12-29-25-63-30-75-5-13-13-23-19-23-14 0-13 2 15 66 14 31 25 58 25 60s-13 4-30 4c-16 0-30-4-30-10 0-5-4-10-10-10-5 0-10 9-10 20 0 18 7 20 55 20h55zm104 30c-33-38-35-46-8-40 31 6 55-13 55-44 0-22-33-54-57-54-22 0-43 31-43 63 0 39 34 97 57 97 14 0 14-3-4-22zm299 5c23-21 25-95 2-117-9-10-33-16-60-16h-44v75 75h42c24 0 49-7 60-17zm148 7c0-5-16-10-35-10-28 0-35-4-35-20s7-20 30-20c20 0 30-5 30-15s-10-15-29-15c-26 0-30-4-33-32-6-62-23-33-26 45l-3 77h51c27 0 50-4 50-10zm90 0c0-5-4-10-10-10-5 0-10-25-10-55 0-33 4-55 11-55 24 0 1-23-25-25-29-1-43 9-26 20 13 8 13 115 0 115-5 0-10 5-10 10 0 6 16 10 35 10s35-4 35-10zm250-25 34-35-39-40c-21-21-42-37-47-33-6 3 5 20 23 39l33 34-27 28c-15 15-27 31-27 35 0 15 18 5 50-28zm-5215-85c-52-53-68-52-58 4l6 29 11-27 11-27 34 35c19 20 37 36 40 36s-17-22-44-50zm-84-3 11-22-21 22c-22 23-28 39-11 28 5-3 15-16 21-28zm3491-22c0-5-5-11-11-13s-11 4-11 13 5 15 11 13 11-8 11-13zm-2968-133c5-13 3-22-3-22s-11 7-11 15c0 9-9 15-25 15-14 0-28-7-31-15-4-8-10-15-14-15-10 0 18 88 34 109 8 10 14 5 27-25 9-22 19-49 23-62zm295 89c12-7 17-22 16-58 0-45-2-48-29-51-16-2-34 2-40 8-8 9-3 10 22 5 28-6 32-4 32 14 0 12-6 21-15 21-8 0-15 5-15 10 0 6 7 10 15 10s15 7 15 16c0 12-7 15-25 12-26-5-35 6-12 15 18 8 17 8 36-2zm91-51c0-38 4-50 18-53 9-3-1-5-23-5s-32 2-22 5c13 3 17 15 17 51s-3 43-12 34c-20-20-32-13-13 8 25 28 35 16 35-40zm206 49c3-5-6-9-20-9-32 0-35-27-3-32 17-2 22-10 22-33 0-24-5-31-24-33-13-2-28 2-35 8-8 9-4 10 15 5 16-4 30-2 34 5 10 17-15 41-36 35-16-5-19-1-19 23 0 16 2 31 5 34 9 9 55 6 61-3zm149 2c3-5-7-11-22-13-36-4-41-26-6-30 24-3 28-8 28-33 0-27-4-30-32-33-19-2-33 1-33 8 0 6 10 8 26 4 23-6 25-4 22 17-2 18-9 23-26 22-18-2-22 2-22 25 0 16 3 32 7 35 10 10 51 8 58-2zm93-3c25-25 2-108-30-108-6 0-4 8 5 18 22 24 21 29-5 28-17-1-24 5-26 22-6 41 30 66 56 40zm-656-44c-3-15-13-29-23-31-28-8-23-23 6-23 31 0 35-35 5-45-29-9-63 4-56 22 3 8 6 32 6 53 0 33 4 40 28 48 35 12 40 8 34-24zm468 16c0-5-5-10-11-10-5 0-7 5-4 10 3 6 8 10 11 10 2 0 4-4 4-10zm338-43c-2-27-8-33-30-35-21-2-28-9-28-24 0-12-3-19-6-15-5 5-8 60-5 104 1 16 32 22 54 11 13-7 17-18 15-41zm135 44c4-1 6-20 6-43l-2-43-6 35c-9 50-41 55-41 6 0-20-4-36-10-36-5 0-10 16-10 35 0 24-5 35-15 35s-15-11-15-35c0-19-4-35-10-35-5 0-10 18-10 39 0 30 4 40 18 43s68 3 95-1zm-1063-66c9 0 17 13 21 35 8 42 11 38 13-12 2-37 1-38-31-38s-33 1-32 43l2 42 6-35c4-22 12-35 21-35zm403-20c-7-21-13-19-13 6 0 11 4 18 10 14 5-3 7-12 3-20zm187 15c0-5-4-10-10-10-5 0-10 5-10 10 0 6 5 10 10 10 6 0 10-4 10-10zm-646-486c9-3 16-12 16-20 0-16-16-19-24-5-9 13-46 1-46-15 0-7 12-17 28-20 36-9 52-22 52-45 0-42-72-67-100-34-18 22-7 28 24 14 19-9 30-9 38-1 15 15 2 42-21 42s-51 25-51 45c0 33 45 54 84 39zm336-18c0-8 6-17 13-20 10-5 10-7 0-12-15-7-18-84-3-84 6 0 10-4 10-10 0-21-40-10-44 13-11 54-13 93-4 110 11 21 28 23 28 3zm-206-32c9-8 16-24 16-35 0-16-7-19-40-19-32 0-38-3-33-16 4-12 14-14 35-10s28 2 26-7c-6-17-56-21-74-6-20 17-18 85 4 98 25 15 48 13 66-5zm129 7c11-2 8-111-3-111-5 0-10 20-10 44 0 25-5 48-10 51-20 12-40-17-40-56 0-22-4-39-10-39s-10 26-10 59v58l38-2c20-1 40-3 45-4zm2641-77c18-18 22-95 6-125-7-12-21-19-40-19-36 0-50 23-50 84 0 48 18 76 50 76 10 0 26-7 34-16zm194 4c31-31-5-148-45-148-14 0-14 3 4 23 33 36 33 42 0 42-25 0-33 5-41 27s-6 32 9 48c20 22 55 26 73 8zm126-4c25-24 20-86-9-118-13-14-30-26-36-26-8 0-4 9 8 23 33 37 35 45 8 39-14-2-32 1-40 8-32 27-7 90 35 90 10 0 26-7 34-16zm142-9c26-40-11-135-54-135-12 0-9 7 11 28 27 28 36 49 16 37-19-12-56 4-62 27-15 57 57 92 89 43zm126 8c27-24 23-75-8-112-32-38-54-41-24-3l22 27-24 3c-34 6-48 21-48 53 0 45 47 64 82 32zm125 9c20-12 34-64 27-96-9-43-22-56-55-56-35 0-49 23-49 81 0 61 38 96 77 71zm157 0c6-10-54-152-65-152-13 0-12 3 16 66 14 31 25 60 25 65s-13 9-30 9c-20 0-30-5-30-15 0-8-4-15-10-15-11 0-14 33-3 43 9 10 91 9 97-1zm126-2c0-5-16-10-35-10-30 0-35-3-35-24 0-19 4-22 24-19 18 4 29-2 41-21 16-24 16-28 1-51-16-25-39-31-70-19-30 11-16 23 20 17 34-6 36-5 32 23-3 26-7 29-35 28-32-2-33 0-33 35 0 21 3 41 7 44 10 11 83 8 83-3zm130 1c0-6-15-11-32-13-26-2-34-8-36-26-3-20 0-22 21-17 43 11 70-32 47-76-13-23-62-26-80-4-10 12-6 13 23 8 39-6 52 6 42 38-6 18-12 20-42 14-34-6-35-5-29 17 3 13 6 33 6 46 0 19 5 22 40 22 22 0 40-4 40-9zm267-17c7-10 13-37 13-60 0-52-25-74-82-74h-38v73c0 41 3 77 8 81 12 13 86-2 99-20zm141 9c2-9-8-13-32-13-29 0-36-4-36-20s7-20 30-20c17 0 30-4 30-10 0-5-13-10-30-10-28 0-30-3-30-35 0-24-5-35-15-35-12 0-15 16-15 81v80l47-3c26-2 48-9 51-15zm92 2c0-8-4-15-10-15-5 0-10-25-10-55s5-55 10-55c6 0 10-4 10-10 0-5-16-10-35-10s-35 5-35 10c0 6 5 10 10 10 13 0 13 107 0 115-18 11 0 25 31 25 19 0 29-5 29-15zm267-42c7-6 13-16 13-20 0-16-68-75-79-69-6 4 3 19 21 37l31 29-31 33c-18 19-29 36-25 40 6 6 18-2 70-50zm-2007-33c0-5-13-10-30-10-16 0-30 5-30 10 0 6 14 10 30 10 17 0 30-4 30-10zm182-55c0-5-5-11-11-13s-11 4-11 13 5 15 11 13 11-8 11-13zm-2981-103c10-29 14-52 9-52-4 0-10 7-14 15-8 22-41 18-59-7-12-18-11-8 5 40 11 35 25 61 31 59s18-27 28-55zm319 43c10-12 10-19 2-27s-7-16 1-29c17-27-12-54-48-45-33 8-24 25 10 18 32-6 36 27 3 36l-22 5 23 9c28 10 22 34-8 31-13-2-20 1-16 7 9 15 41 12 55-5zm80-35c0-38 4-50 15-50 8 0 15-4 15-10 0-5-16-10-35-10s-35 5-35 10c0 6 7 10 15 10 11 0 15 11 15 41 0 37-2 40-22 33-20-6-21-5-9 10 26 31 41 19 41-34zm188 43c-20-3-28-10-28-24 0-11 4-18 9-15 19 12 41-7 41-34 0-30-21-44-51-35-29 9-23 24 9 22 18-1 27 3 27 13 0 9-10 15-25 15-21 0-26 6-28 33-3 31-2 32 35 31 30-2 32-3 11-6zm147-2c-36-7-49-42-15-39 29 4 49-26 34-49-12-20-55-24-61-7-2 7 6 10 22 7 21-5 25-2 25 17 0 18-4 21-25 18-23-5-25-2-25 28 0 33 1 34 38 33 36-1 36-2 7-8zm123-20c6-36-6-69-29-81-20-11-20-11-4 14 17 25 17 26-3 26-27 0-44 29-30 53 14 27 62 19 66-12zm-667-23c-6-27-12-33-31-33-20 0-25 5-25 25 0 22 15 32 56 39 4 1 3-14 0-31zm-120-48c15 0 19 7 19 37 0 22 4 33 9 28 5-6 6-26 3-45-6-30-11-36-32-35-23 0-25 4-26 45-1 39-1 40 3 8 3-29 9-38 24-38zm589 60c0-5-4-10-10-10-5 0-10 5-10 10 0 6 5 10 10 10 6 0 10-4 10-10zm336-17c9-33-7-58-35-57-14 0-21-6-22-20-1-12-4-5-8 14-3 19-5 47-2 63 3 22 8 27 32 27 23 0 30-6 35-27zm141-23c1-42 0-40-13 18-8 37-34 27-34-13 0-19-4-35-10-35-5 0-10 16-10 35 0 24-5 35-15 35-11 0-15-11-15-41 0-24-4-38-10-34-5 3-10 24-10 46v39l58-2 57-3zm-942-45c0-15-8-21-29-23-35-4-47 6-40 34 5 18 11 20 37 15 23-5 32-12 32-26zm285 16c0-5-6-14-14-20-12-10-13-8-9 8 5 21 23 30 23 12zm180-1c0-5-4-10-10-10-5 0-10 5-10 10 0 6 5 10 10 10 6 0 10-4 10-10zm-202-482c-6-18-28-21-28-4 0 9 7 16 16 16s14-5 12-12zm362-67v-79l-32-5c-52-7-68 7-68 59 0 37 4 46 23 53 12 5 28 6 35 4 8-3 12 4 12 21 0 16 6 26 15 26 12 0 15-15 15-79zm-782 57c17-17 15-53-3-68-13-11-13-15 1-41 13-26 13-29 0-29-9 0-22 14-31 30-9 17-22 30-30 30-10 0-15-10-15-30 0-16-4-30-10-30s-10 32-10 75v75h43c24 0 48-5 55-12zm112-38c33-33 26-50-21-50-28 0-39-4-36-12 2-7 18-12 36-12 36 2 41-10 10-26-54-30-98 68-47 104 29 20 34 20 58-4zm111 10c29-16 23-30-11-23-29 5-30 4-30-32s1-37 30-31c22 4 30 2 30-9 0-22-38-28-65-11-33 22-35 78-3 100 27 19 24 19 49 6zm117-6c12-8 22-24 22-35 0-15-7-19-35-19-25 0-35-4-35-16 0-11 8-15 28-14 15 1 32 1 37 1 14-2-26-31-42-31-22 0-53 38-53 65 0 23 31 65 48 65 4 0 18-7 30-16zm302-4c33-33 26-50-21-50-28 0-39-4-36-12 2-7 18-12 36-12 35 2 41-10 13-25-63-34-107 72-45 108 25 15 30 14 53-9zm-220-45c0-42-3-55-15-55s-15 13-15 55 3 55 15 55 15-13 15-55zm50 41c0-8 5-27 11-43l11-28 13 38c15 43 22 53 31 44 3-3-2-28-11-56-21-65-46-69-64-10-7 23-15 47-18 55s1 14 11 14c9 0 16-6 16-14zm-983-88c-2-13-4-5-4 17-1 22 1 32 4 23 2-10 2-28 0-40zm5263-73c-19-19-41-35-49-35-10 0-3 12 19 35l34 35-32 33c-18 18-29 37-25 41 4 3 25-11 47-33l40-41zm-1872 93c7-7 12-36 12-65 0-45-4-55-25-69-23-15-27-15-50 0-21 14-25 24-25 69 0 59 12 77 50 77 14 0 31-5 38-12zm192-7c5-11 10-30 10-43 0-32-36-88-57-88-14 0-13 3 5 23 24 26 29 42 10 34-7-2-23-1-35 4-26 9-32 56-11 77 19 19 66 15 78-7zm128 7c23-23 14-85-16-119-19-22-31-28-36-21-4 7-3 12 2 12s18 12 27 26c17 26 17 27-3 22-28-8-62 18-62 46 0 29 18 46 50 46 14 0 31-5 38-12zm143-15c5-15 8-38 4-50-6-26-64-94-65-76 0 6 4 15 10 18 5 3 15 16 21 27 10 18 9 20-6 15-39-15-76 34-55 73 8 14 21 20 46 20 28 0 36-5 45-27zm129 8c5-11 10-30 10-43 0-32-36-88-57-88-14 0-13 3 5 23 24 26 29 42 10 34-7-2-23-1-35 4-26 9-32 56-11 77 19 19 66 15 78-7zm138-13c23-48-4-128-44-128-28 0-54 38-54 81 0 59 15 81 53 77 23-2 35-10 45-30zm132 22c0-18-54-140-62-140-12 0-11 4 16 70l25 60h-30c-16 0-29-4-29-10 0-5-4-10-10-10-5 0-10 9-10 20 0 17 7 20 50 20 28 0 50-4 50-10zm125 0c-3-5-19-10-36-10-22 0-29-5-29-20 0-16 7-20 30-20 36 0 54-28 41-63-6-14-19-28-30-32-22-7-61 10-61 26 0 6 8 6 21-1 11-7 27-9 35-6 17 7 19 56 2 57-18 2-21 1-40-6-16-6-18-1-18 39v46h46c27 0 43-4 39-10zm135 0c0-5-16-10-35-10-30 0-35-3-35-24 0-19 4-22 25-18 54 10 76-54 30-84-21-14-31-15-50-6-14 7-25 16-25 22 0 13 6 13 29-2 15-9 23-9 35 1 9 8 16 19 16 27 0 20-31 34-52 23-22-12-28 0-21 44 5 35 8 37 44 37 22 0 39-4 39-10zm262-7c23-21 25-95 2-117-9-10-33-16-60-16h-44v75 75h42c24 0 49-7 60-17zm148 7c0-5-16-10-35-10-28 0-35-4-35-20s7-20 30-20c20 0 30-5 30-15s-10-15-30-15c-27 0-30-3-30-30 0-20-5-30-15-30-12 0-15 15-15 75v75h50c28 0 50-4 50-10zm90 0c0-5-4-10-10-10-5 0-10-25-10-55s5-55 10-55c6 0 10-4 10-10 0-5-16-10-35-10s-35 5-35 10c0 6 5 10 10 10 6 0 10 25 10 55s-4 55-10 55c-5 0-10 5-10 10 0 6 16 10 35 10s35-4 35-10zm-5090-70c0-5-2-10-4-10-3 0-8 5-11 10-3 6-1 10 4 10 6 0 11-4 11-10zm55-58c-6-6-45 33-45 44 0 4 11-3 25-16s23-26 20-28zm60 8c-38-39-71-41-47-2 5 7 15 10 24 7 8-3 21 1 28 10 7 8 15 15 18 15s-7-13-23-30zm3417-15c0-5-5-11-11-13s-11 4-11 13 5 15 11 13 11-8 11-13zm-2983-90c24-64 24-65 11-65-5 0-10 7-10 15 0 9-9 15-25 15-14 0-28-7-31-15-4-8-10-15-14-15-5 0 0 27 12 60 11 33 24 60 28 60 5 0 18-25 29-55zm321 40c10-12 10-19 2-27s-8-15 0-28c17-27 3-50-31-50-16 0-33 4-36 10-4 6 6 7 25 4 26-6 30-4 30 15 0 12-6 21-15 21-8 0-15 5-15 10 0 6 7 10 15 10s15 7 15 16c0 12-7 15-25 12-26-5-35 6-12 15 22 9 34 7 47-8zm80-39c0-44 4-55 18-59 9-3-3-5-28-4-25 0-35 2-22 4 19 4 22 11 22 51 0 36-3 43-12 34-20-20-32-13-13 8 28 31 35 24 35-34zm205 44c4-6-5-10-19-10-32 0-35-27-3-32 17-2 22-10 22-33 0-24-5-31-24-33-13-2-28 2-35 8-8 9-4 10 15 5 30-7 42 4 33 30-5 12-14 15-30 11-21-6-24-3-24 22 0 16 3 32 7 35 10 11 51 8 58-3zm145 1c0-5-10-11-22-13-32-5-33-26-1-30 24-3 28-8 28-33 0-24-5-31-24-33-13-2-28 2-35 8-8 9-4 10 17 4 26-6 28-4 25 17-2 18-9 23-26 22-18-2-22 2-22 25 0 16 3 32 7 35 10 10 53 8 53-2zm97-3c9-15 12-65 6-90-5-19-57-26-68-9-3 6 7 9 22 8 19-1 28 3 31 16 2 10-3 17-12 17s-16 5-16 10c0 6 7 10 15 10s15 7 15 16c0 12-7 15-25 12-24-5-32 2-18 15 11 11 41 8 50-5zm-653-35c-9-38-13-43-30-43-8 0-14-4-14-10 0-5 11-10 25-10 31 0 35-35 5-45-23-7-63 12-54 26 3 6 6 28 6 49-1 33 3 40 26 49 41 14 43 13 36-16zm-124-58c10 0 17 14 21 40 7 47 9 45 13-13 2-42 2-43-28-40-29 3-31 5-32 48l-2 45 7-40c4-26 11-40 21-40zm590 65c0-5-5-10-11-10-5 0-7 5-4 10 3 6 8 10 11 10 2 0 4-4 4-10zm330-5c6-7 10-26 8-42-2-22-9-28-28-30-14-1-18 0-7 3 26 8 24 64-3 64-18 0-20-7-21-57l-2-58-7 44c-10 62-3 86 25 89 12 1 28-5 35-13zm143 6c4-1 6-20 6-43l-2-43-6 35c-9 50-41 55-41 6 0-20-4-36-10-36-5 0-10 16-10 35 0 24-5 35-15 35s-15-11-15-35c0-19-4-35-10-35-5 0-10 18-10 39 0 30 4 40 18 43s68 3 95-1zm-660-86c-7-21-13-19-13 6 0 11 4 18 10 14 5-3 7-12 3-20zm187 15c0-5-4-10-10-10-5 0-10 5-10 10 0 6 5 10 10 10 6 0 10-4 10-10zm-646-486c9-3 16-13 16-20 0-12-4-12-21-4-11 7-27 9-35 6-24-9-16-35 14-42 36-9 52-22 52-45 0-42-72-67-100-34-18 22-7 28 24 14 19-9 30-9 38-1 15 15 2 42-21 42s-51 25-51 45c0 33 45 54 84 39zm336-18c0-8 6-17 13-20 10-5 10-7 0-12-15-7-18-84-3-84 6 0 10-5 10-11s-10-9-22-7c-20 3-23 10-26 51-2 26-8 47-13 47-11 0 22 49 34 50 4 0 7-6 7-14zm-206-32c9-8 16-24 16-35 0-16-7-19-41-19-36 0-40-2-28-16 8-10 21-13 37-9 17 4 23 2 20-7-6-17-56-22-74-7-17 14-19 80-2 97s54 15 72-4zm134-46c2-36-1-58-8-58-5 0-10 20-10 44 0 25-5 48-10 51-20 12-40-17-40-56 0-22-4-39-10-39s-10 26-10 59v59l43-2 42-1zm2636-24c18-18 22-95 6-125-7-12-21-19-40-19-36 0-50 23-50 84 0 48 18 76 50 76 10 0 26-7 34-16zm187 6c24-13 26-68 4-110-9-17-17-30-19-30-3 0-13-3-23-7-16-5-16-4 3 18 34 39 34 44 1 44-25 0-33 5-41 27s-6 32 9 48c20 22 37 25 66 10zm137-2c27-27 7-113-32-140-24-16-28-7-8 15 28 30 28 37-1 37s-47 18-47 46c0 44 58 72 88 42zm140-21c10-21 11-35 3-59-14-39-39-68-59-68-11 0-8 8 11 28 27 28 36 49 16 37-19-12-56 4-62 27-17 62 64 92 91 35zm126 17c26-26 20-79-13-116-16-18-32-30-36-26-4 3 3 16 14 27 27 27 27 41 1 34-11-3-27 0-35 7-18 15-20 61-3 78s54 15 72-4zm134-40c2-27 9-52 15-57 9-7 9-10 0-14-7-2-13-11-13-19s-4-14-10-14c-5 0-10 7-10 15 0 11-11 15-40 15-44 0-45 1-28 33 31 59 60 98 71 94 7-2 13-26 15-53zm136 34c35-49 9-138-38-138-34 0-51 27-51 80 0 26 6 54 14 63 19 24 57 21 75-5zm120 6c19-18 19-20 6-44-7-13-7-21 0-25 14-9 13-48-2-63-16-16-63-15-77 2-9 11-4 13 26 12 32-1 38 2 38 19 0 13-8 21-22 23-25 4-32 22-9 22 20 0 36 24 27 39-6 9-18 11-35 7-26-6-37 8-13 17 24 10 46 7 61-9zm136-38c0-34 5-57 13-60 10-5 10-7 0-12-7-3-13-12-13-20s-4-14-10-14c-5 0-10 7-10 15 0 10-11 15-35 15-19 0-35 5-35 11 0 20 64 119 77 119 9 0 13-17 13-54zm268 38c18-12 22-25 22-64 0-58-23-80-82-80h-38v73c0 41 3 77 7 80 12 13 68 7 91-9zm150 4c-3-7-19-14-36-16-24-2-32-8-32-23 0-14 7-19 30-19 17 0 30-4 30-10 0-5-13-10-30-10-28 0-30-3-30-35 0-24-5-35-15-35-12 0-15 16-15 80v80h51c36 0 49-4 47-12zm92 3c0-6-4-13-10-16-5-3-10-31-10-61s5-54 10-54c6 0 10-4 10-10 0-5-16-10-35-10s-35 5-35 10c0 6 5 10 10 10 6 0 10 27 10 60s-4 60-10 60c-5 0-10 5-10 10 0 6 16 10 35 10s35-4 35-9zm246-26c19-20 34-38 34-41 0-14-72-74-82-68-7 4 1 17 21 34 17 15 31 31 31 34 0 4-11 17-25 30-23 21-33 46-19 46 3 0 21-16 40-35zm-1986-55c0-5-13-10-30-10-16 0-30 5-30 10 0 6 14 10 30 10 17 0 30-4 30-10zm182-55c0-5-5-11-11-13s-11 4-11 13 5 15 11 13 11-8 11-13zm-2980-105c19-55 18-77-2-41-14 28-48 27-59-1-4-12-10-17-13-12-9 14 32 116 45 111 6-2 19-27 29-57zm322 43c4-9 2-21-3-26-6-6-6-16 2-27 8-14 8-22-3-35-14-17-51-17-57 1-2 7 6 10 22 7 19-4 25-1 25 12 0 9-10 19-22 23l-22 5 23 9c28 10 22 34-8 31-11-2-21 2-21 7 0 17 57 11 64-7zm76-33c0-38 4-50 15-50 8 0 15-4 15-10 0-5-16-10-35-10s-35 5-35 10c0 6 7 10 15 10 11 0 15 11 15 41 0 37-2 40-22 33-20-6-21-5-9 10 26 31 41 19 41-34zm188 43c-20-3-28-10-28-24 0-11 4-18 9-15 17 11 41-6 41-29 0-29-24-48-50-40-29 9-25 21 8 20 37 0 37 29-1 33-23 3-27 7-25 33s5 29 38 28c30-2 31-3 8-6zm147-2c-18-4-31-14-33-25-3-14 0-17 12-13 40 15 65-35 31-63-16-14-47-10-52 6-2 7 6 10 22 7 20-4 25-1 25 16 0 16-6 21-25 21-21 0-25 5-25 30 0 28 2 30 38 29s36-2 7-8zm119-8c4-9 2-21-3-26-6-6-6-16 2-27 8-14 8-22-3-35-14-17-51-17-57 1-2 7 6 10 22 7 19-4 25-1 25 12 0 9-10 19-22 23l-22 5 23 9c28 10 22 34-8 31-13-2-20 1-16 7 10 16 52 11 59-7zm-662-33c-4-31-36-50-54-32-24 24 1 52 53 61 3 1 4-12 1-29zm-121-50c15 0 19 7 19 38 1 25 3 32 9 22 4-8 8-28 7-45-1-26-5-30-31-30-29 0-30 2-31 45-1 39-1 40 3 8 3-29 9-38 24-38zm589 60c0-5-4-10-10-10-5 0-10 5-10 10 0 6 5 10 10 10 6 0 10-4 10-10zm336-17c9-33-7-58-35-57-14 0-21-5-21-18 0-11-3-17-7-15-5 3-6 30-5 61 4 54 5 56 33 56 23 0 30-5 35-27zm141-23c1-42 0-40-13 18-8 40-34 26-34-19 0-24-4-38-10-34-5 3-10 22-10 41 0 24-5 34-15 34s-15-11-15-35c0-19-4-35-10-35-5 0-10 18-10 40v40l58-2 57-3zm-942-45c0-15-8-21-29-23-35-4-47 6-40 34 5 18 11 20 37 15 23-5 32-12 32-26zm279 10c-4-8-8-15-10-15s-4 7-4 15 4 15 10 15c5 0 7-7 4-15zm186 5c0-5-4-10-10-10-5 0-10 5-10 10 0 6 5 10 10 10 6 0 10-4 10-10zm-202-481c-2-6-8-10-13-10s-11 4-13 10 4 11 13 11 15-5 13-11zm362-70v-80l-47 3-48 3-3 47c-2 38 1 49 17 57 11 6 27 8 35 5 12-5 16 0 16 20 0 16 6 26 15 26 12 0 15-16 15-81zm-782 59c17-17 15-53-3-68-13-11-13-15 1-41 13-26 13-29 0-29-9 0-22 14-31 30-9 17-22 30-30 30-10 0-15-10-15-30 0-16-4-30-10-30s-10 32-10 75v75h43c24 0 48-5 55-12zm112-38c33-33 26-50-21-50-28 0-39-4-36-12 2-7 18-12 36-11 39 1 37-21-3-25-37-5-56 14-56 54 0 23 7 38 22 48 29 20 34 20 58-4zm121 10c5 0 9-7 9-15 0-11-8-13-30-8-29 5-30 4-30-32 0-37 1-37 31-31 22 4 29 2 27-7-3-6-17-14-33-15-34-4-55 18-55 59 0 30 35 63 58 54 8-3 18-5 23-5zm113-6c9-8 16-24 16-35 0-15-7-19-35-19-26 0-35-4-35-16s7-15 30-12c38 6 50-9 18-21-61-23-105 52-58 99 24 24 43 25 64 4zm296-4c33-33 26-50-21-50-28 0-39-4-36-12 2-7 18-12 36-11 36 1 38-15 3-28-23-9-60 15-63 41-4 41 3 61 24 70 32 13 35 12 57-10zm-220-45c0-42-3-55-15-55s-15 13-15 55 3 55 15 55 15-13 15-55zm56 20c9-48 20-52 28-10 7 33 22 53 33 42 3-3-3-28-12-56-21-65-46-69-64-10-7 23-15 47-18 55s1 14 10 14c10 0 18-13 23-35zm-989-112c-2-21-4-4-4 37s2 58 4 38c2-21 2-55 0-75zm3381 71c18-12 22-25 22-69 0-47-3-57-25-71-23-15-27-15-50 0-22 14-25 24-25 71 0 44 4 57 22 69 12 9 25 16 28 16s16-7 28-16zm200-12c6-9 12-27 12-40 0-32-37-92-58-92-12 0-11 4 6 23 24 26 29 42 10 34-7-2-23-1-35 4-31 11-32 62-2 83 23 16 47 12 67-12zm140-39c3-44-27-93-56-93-10 0-13 3-7 8 6 4 19 18 30 31l20 24-22-5c-57-15-85 63-33 89 37 18 64-3 68-54zm133 29c6-15 8-36 5-47-7-27-44-75-57-75-6 0-1 12 11 28l22 27-31 3c-53 6-67 73-18 91 32 12 57 1 68-27zm127 10c6-9 12-27 12-41 0-34-35-91-57-91-14 0-13 3 5 23 28 30 28 35-4 35-46 0-61 59-23 86 23 16 47 12 67-12zm270-55c3-48 0-57-20-71-29-20-34-20-58 4-36 36-24 128 20 143 33 11 55-18 58-76zm1008-36c-22-22-43-38-48-34-6 3 5 20 23 39l33 34-32 33c-18 18-29 37-25 41 4 3 25-11 47-33l40-41zm-1146 54c0-37 4-55 13-56 10 0 10-2 0-6-7-2-13-11-13-19s-4-14-10-14c-5 0-10 7-10 15 0 11-11 15-41 15-22 0-39 3-37 8 22 50 66 112 81 112 14 0 17-9 17-55zm261 39c10-13 10-19 0-36-9-15-10-23-2-31 33-33-15-85-63-68-14 6-26 15-26 21 0 13 6 13 29-2 15-9 23-9 35 1 23 20 19 40-9 47-29 7-34 24-6 24 24 0 34 25 15 40-11 10-17 10-29 0-17-14-31-8-20 9 10 17 61 13 76-5zm129-34c0-35 5-52 14-56 12-5 11-9-5-25-23-23-29-24-29-4 0 10-11 15-35 15-19 0-35 3-35 6 0 4 14 31 31 60 40 70 59 71 59 4zm272 33c23-21 25-95 2-117-9-10-33-16-60-16h-44v75 75h42c24 0 49-7 60-17zm148 7c0-5-16-10-35-10-28 0-35-4-35-20s7-20 30-20c20 0 30-5 30-15s-10-15-30-15c-27 0-30-3-30-30 0-20-5-30-15-30-12 0-15 15-15 75v75h50c28 0 50-4 50-10zm90 0c0-5-4-10-10-10-5 0-10-25-10-55s5-55 10-55c6 0 10-4 10-10 0-5-16-10-35-10s-35 5-35 10c0 6 5 10 10 10 6 0 10 25 10 55s-4 55-10 55c-5 0-10 5-10 10 0 6 16 10 35 10s35-4 35-10zm-5090-71c0-6-4-7-10-4-5 3-10 11-10 16 0 6 5 7 10 4 6-3 10-11 10-16zm100-59c0-5-4-12-10-15-5-3-10-1-10 5s-4 9-9 5c-5-3-13 0-17 6-4 8-3 9 4 5s12-3 12 3 7 8 15 5c8-4 15-10 15-14zm3440 0c0-5-7-10-15-10s-15 5-15 10c0 6 7 10 15 10s15-4 15-10zm-2991-96c24-64 24-64 11-64-5 0-10 7-10 15 0 9-9 15-25 15-14 0-28-7-31-15-4-8-10-15-14-15-5 0 0 27 12 60 11 33 23 60 28 60 4 0 17-25 29-56zm321 41c10-12 10-19 2-27s-8-15-1-24c19-23 1-54-31-54-16 0-32 5-35 11-4 6 4 9 21 7 20-2 29 2 32 15 2 10-3 17-12 17s-16 5-16 10c0 6 7 10 15 10s15 7 15 16c0 12-7 15-25 12-24-5-32 2-18 15 11 12 40 7 53-8zm80-39c0-44 4-55 18-59 9-3-3-5-28-5-36-1-41 1-22 8 18 8 22 17 22 52 0 33-3 39-12 30-20-20-32-13-13 8 28 31 35 24 35-34zm205 44c4-6-5-10-19-10-32 0-35-27-3-32 17-2 22-10 22-33 0-24-5-31-24-33-13-2-28 2-35 8-8 9-4 10 15 5 30-7 42 4 33 30-5 12-14 15-30 11-21-6-24-3-24 22 0 16 3 32 7 35 10 11 51 8 58-3zm143-2c13-13 16-66 6-92-9-23-51-20-65 5-28 53 21 125 59 87zm100 0c25-25 2-108-30-108-6 0-4 8 5 18 18 20 23 37 8 28-19-12-41 7-41 34 0 37 33 53 58 28zm-656-39c-3-20-12-33-23-36-28-8-23-23 6-23 18 0 25-5 25-20 0-20-5-22-35-22-42 0-45 2-39 29 4 14 7 40 8 57 1 28 12 37 57 45 3 1 3-13 1-30zm-122-54c10 0 17 14 21 40 7 44 10 40 12-18 2-36 1-38-28-35-28 3-30 6-31 48l-2 45 7-40c4-26 11-40 21-40zm590 65c0-5-4-10-10-10-5 0-10 5-10 10 0 6 5 10 10 10 6 0 10-4 10-10zm333-11c5-9 7-28 3-42-5-20-13-27-31-27-16 0-25-6-25-16 0-8-3-13-7-11-5 3-6 30-5 60 3 51 5 54 29 53 14-1 30-8 36-17zm144-29c1-41 1-42-5-10-5 22-14 36-24 38-15 3-18-4-18-32 0-20-4-36-10-36-5 0-10 16-10 35 0 24-5 35-15 35s-15-11-15-35c0-19-4-35-10-35-5 0-10 18-10 39 0 44 6 47 75 46h40zm-664-45c-7-21-13-19-13 6 0 11 4 18 10 14 5-3 7-12 3-20zm187 15c0-5-4-10-10-10-5 0-10 5-10 10 0 6 5 10 10 10 6 0 10-4 10-10zm-632-503c3-16 1-17-18-7-12 6-28 9-36 6-24-9-16-33 13-41 36-9 53-23 53-46 0-42-57-63-96-35-24 18-10 34 16 18 11-6 26-9 35-6 26 10 13 37-22 46-41 11-57 53-27 75 26 19 78 13 82-10zm322-1c0-8 6-17 13-20 10-5 10-7 0-12-7-3-13-23-13-44 0-22 5-40 13-43 6-2 8-8 4-13-17-17-42 13-45 55-2 22-8 41-13 41-11 0 22 49 34 50 4 0 7-6 7-14zm-200-35c20-39 13-51-32-51-40 0-41-1-25-17 14-15 21-16 37-5 17 10 20 10 20-3 0-20-43-29-69-15-14 7-21 20-21 41 0 46 16 69 50 69 19 0 33-7 40-19zm128-43c2-36-1-58-8-58-5 0-10 20-10 44 0 48-8 60-34 50-11-4-16-19-16-50 0-24-4-44-10-44s-10 26-10 59v59l43-2 42-1zm2636-24c10-10 16-33 16-64 0-55-18-80-55-80-30 0-45 26-45 80 0 23 5 50 10 61 13 23 53 25 74 3zm194 4c27-27 7-113-32-140-23-16-28-7-9 15 33 36 35 45 9 40s-56 19-56 47c0 40 60 66 88 38zm130 0c27-27 7-113-32-140-23-16-28-7-9 15 36 39 38 49 9 41-32-8-56 10-56 42 0 44 58 72 88 42zm138-13c11-16 14-34 9-52-9-38-43-83-63-83-12 0-9 7 11 28 27 28 36 49 16 37-19-12-56 4-62 27-15 57 57 92 89 43zm129 8c24-24 14-89-19-121-14-14-28-23-32-20-3 4 4 16 15 27 27 27 27 41 1 34-27-7-50 14-50 46 0 49 50 69 85 34zm145 5c0-20-54-148-62-148-13 0-9 17 17 76 14 31 25 58 25 60s-13 4-30 4c-20 0-30-5-30-15 0-8-4-15-10-15-5 0-10 11-10 25 0 23 3 25 50 25 33 0 50-4 50-12zm124-10c8-13 8-23-1-38-8-12-9-21-3-25 14-9 12-49-2-63-17-17-63-15-78 3-10 13-7 14 26 12s39 1 39 18c0 13-8 21-22 23-13 2-23 7-23 10 0 4 10 12 23 17 35 16 28 40-10 39-33-2-44 10-20 20 23 9 60 1 71-16zm106-48c0-63 2-70 20-70 11 0 20-4 20-10 0-5-22-10-50-10-27 0-50 5-50 10 0 6 9 10 20 10 18 0 20 7 20 62 0 61 0 61-20 43-11-10-23-15-27-11-9 8 36 45 55 46 8 0 12-21 12-70zm154 48c8-13 8-23-1-38-8-12-9-21-3-25 14-9 12-49-2-63-17-17-63-15-78 3-10 13-7 14 26 12 34-2 39 1 42 21 3 16-2 22-17 22-30 0-34 17-5 24 39 10 28 41-14 40-32-2-43 10-19 20 23 9 60 1 71-16zm266 2c14-14 20-33 20-64 0-54-24-76-82-76h-38v80 80h40c27 0 47-7 60-20zm148 8c-3-7-19-14-36-16-24-2-32-8-32-23 0-14 7-19 30-19 17 0 30-4 30-10 0-5-13-10-30-10-28 0-30-3-30-35 0-24-5-35-15-35-12 0-15 16-15 80v80h51c36 0 49-4 47-12zm92 3c0-6-4-13-10-16-5-3-10-28-10-55s5-52 10-55c21-13 9-25-25-25-19 0-35 5-35 10 0 6 5 10 10 10 6 0 10 27 10 60s-4 60-10 60c-5 0-10 5-10 10 0 6 16 10 35 10s35-4 35-9zm250-26 34-35-35-37c-18-21-35-40-37-42-1-3-7 0-13 6-8 8-5 15 8 24 43 33 47 46 19 74-26 26-33 45-18 45 4 0 23-16 42-35zm-1990-55c0-5-13-10-30-10-16 0-30 5-30 10 0 6 14 10 30 10 17 0 30-4 30-10zm182-55c0-5-5-11-11-13s-11 4-11 13 5 15 11 13 11-8 11-13zm-2981-100c18-48 17-76-2-42-12 21-48 22-55 2-4-8-10-15-15-15-7 0 0 27 26 98 9 24 27 7 46-43zm323 38c4-9 2-21-3-26-6-6-6-16 2-27 22-37-35-68-63-35-11 13-8 14 19 9 25-5 31-3 31 11 0 9-10 19-22 23l-22 5 22 8c12 5 22 16 22 25 0 12-6 15-26 10-17-5-23-3-19 4 10 16 52 12 59-7zm76-33c0-38 4-50 15-50 8 0 15-4 15-10 0-5-16-10-35-10s-35 5-35 10c0 6 7 10 15 10 11 0 15 11 15 41 0 37-2 40-22 33-20-6-21-5-9 10 26 31 41 19 41-34zm188 43c-34-5-37-30-5-35 17-2 23-11 25-34 3-34-16-49-49-39-29 9-23 24 9 22 18-1 27 3 27 13 0 9-11 16-27 18-24 3-28 8-28 33 0 27 2 29 38 28 30-2 32-3 10-6zm166-9c11-29 6-81-9-94-8-6-23-9-34-5-25 8-38 64-22 94 14 25 56 28 65 5zm104-24c2-25-3-42-19-58-11-13-24-21-27-18s3 15 13 26c18 19 17 20-3 20-27 0-44 28-30 53 6 12 18 17 36 15 23-3 27-8 30-38zm-666-10c-4-31-36-50-54-32-24 24 1 52 53 61 3 1 4-12 1-29zm-119-48c14-3 17 4 17 34 0 45 13 37 16-10 3-29-1-35-22-40-36-9-44 0-43 47l2 42 6-35c4-22 12-36 24-38zm587 58c0-5-4-10-10-10-5 0-10 5-10 10 0 6 5 10 10 10 6 0 10-4 10-10zm338-23c4-34-15-60-40-54-13 4-18-1-20-16-1-12-4 3-7 33-4 30-5 59-3 63s18 7 35 5c27-2 33-8 35-31zm139-17c1-42 0-40-13 18-8 37-34 27-34-13 0-19-4-35-10-35-5 0-10 16-10 35 0 24-5 35-15 35s-15-11-15-35c0-19-4-35-10-35-5 0-10 18-10 40v41l58-3 57-3zm-942-45c0-15-8-21-29-23-35-4-47 6-40 34 5 18 11 20 37 15 23-5 32-12 32-26zm278 10c-7-21-13-19-13 6 0 11 4 18 10 14 5-3 7-12 3-20zm183-2c-10-10-19 5-10 18 6 11 8 11 12 0 2-7 1-15-2-18zm-198-474c-2-6-8-10-13-10s-11 4-13 10 4 11 13 11 15-5 13-11zm362-69v-80h-44c-48 0-56 9-56 65 0 37 26 60 54 49 12-5 16 0 16 20 0 16 6 26 15 26 12 0 15-16 15-80zm-776 47c8-13 7-24-5-46-14-24-14-31-2-54 12-24 12-27-3-27-8 0-21 14-27 30-7 18-19 30-29 30-13 0-18-8-18-30 0-16-4-30-10-30s-10 32-10 76v75l46-3c32-2 51-9 58-21zm104-23c12-8 22-24 22-35 0-16-7-19-41-19-28 0-39-4-36-12 2-7 18-12 36-11 20 0 31-3 28-10-5-17-55-21-73-6-19 15-18 74 2 93 19 20 34 20 62 0zm116 10c9-3 16-12 16-20 0-16-16-19-25-4-13 20-35-3-35-37s1-35 31-29c22 4 29 2 27-7-7-20-60-21-75-1-20 28-16 71 9 88 25 18 30 19 52 10zm117-4c11-6 19-21 19-35 0-22-4-25-35-25-26 0-35-4-35-16 0-13 7-15 36-11 25 4 34 2 31-6-6-20-69-21-84-1-19 26-16 61 7 84s33 24 61 10zm184-60c-21-64-47-68-64-9-7 23-15 47-18 55s1 14 10 14c10 0 18-13 23-35 8-42 19-45 29-8 4 16 12 34 18 42 19 23 20-5 2-59zm113 54c12-8 22-24 22-35 0-16-7-19-41-19-28 0-39-4-36-12 2-7 18-12 36-11 41 1 36-21-6-25-18-2-35 3-43 13-20 24-17 75 5 91 24 18 36 18 63-2zm-218-49c0-42-3-55-15-55s-15 13-15 55 3 55 15 55 15-13 15-55zm2448-21c30-21 32-104 2-134-24-24-29-24-58-4-18 12-22 25-22 69s4 57 22 69c12 9 25 16 28 16s16-7 28-16zm192-4c11-11 20-32 20-46 0-34-37-94-58-94-12 0-11 4 6 23 29 31 28 35-10 39-22 2-34 9-36 21-6 30 7 65 26 70 30 8 32 7 52-13zm128 4c16-11 22-25 22-53 0-41-31-91-56-91-11 0-10 5 6 22 26 28 25 38-3 38-48 0-65 56-25 84 12 9 25 16 28 16s16-7 28-16zm154-20c6-12 8-33 4-47-7-31-44-77-61-77-9 0-4 10 13 28l27 27-32 3c-37 4-58 31-48 63 14 42 79 44 97 3zm116 20c15-10 22-25 22-46 0-37-36-98-58-98-12 0-11 4 6 23 29 31 28 37-7 37-29 0-41 14-41 50 0 16 34 50 50 50 3 0 16-7 28-16zm267-40c1-22 4-45 8-51 15-24-12-53-48-53-18 0-37 5-40 11-11 17 2 21 25 7 18-11 23-11 35 6 16 21 4 46-21 46-21 0-17 17 6 23s27 35 5 43c-8 4-22 1-29-5-10-8-16-9-21-1-9 14 35 29 60 20 15-6 20-17 20-46zm273 16c2-12-2-27-10-31-11-8-11-10 0-18 8-4 12-21 10-37-3-25-8-29-39-32-23-2-40 2-49 12-14 18-7 20 20 6 26-14 52-2 48 24-2 13-12 22-25 24-30 4-30 20-1 24 13 2 24 10 26 19 4 20-27 34-42 19-13-13-26-13-26 0 0 16 42 28 65 20 11-4 22-17 23-30zm752-75c-19-19-41-35-49-35-10 0-3 12 19 35l34 35-32 33c-18 18-29 37-25 41 4 3 25-11 47-33l40-41zm-1140 95c0-20-52-140-61-140-14 0-11 13 15 73 14 30 22 58 19 61-13 13-53 6-53-9 0-8-4-15-10-15-5 0-10 9-10 20 0 17 7 20 50 20 28 0 50-4 50-10zm230-55c0-50 3-65 14-65 8 0 18-4 21-10 4-6-13-10-44-10-28 0-51 5-51 10 0 6 9 10 20 10 18 0 20 7 20 55 0 52-1 55-19 45-30-16-36-12-16 10 10 11 26 20 37 20 16 0 18-8 18-65zm424 49c21-21 21-92-1-116-11-12-30-18-60-18h-43v75 75h44c27 0 51-6 60-16zm146 6c0-5-16-10-35-10-28 0-35-4-35-20s7-20 31-20c38 0 35-24-4-28-22-3-27-8-27-33 0-19-5-29-15-29-12 0-15 15-15 75v75h50c28 0 50-4 50-10zm90 0c0-5-4-10-10-10-5 0-10-25-10-55s5-55 10-55c6 0 10-4 10-10 0-5-16-10-35-10s-35 5-35 10c0 6 5 10 10 10 6 0 10 25 10 55s-4 55-10 55c-5 0-10 5-10 10 0 6 16 10 35 10s35-4 35-10zm-5074-82 29-31-32 23c-18 13-33 27-33 32 0 13 5 10 36-24zm154 19c0-2-10-12-22-23l-23-19 19 23c18 21 26 27 26 19zm-82-39c-2-7 5-12 15-11 17 1 17-1-2-18-20-18-23-19-43-4-19 12-19 15-5 15 9 0 17 7 17 15s5 15 10 15c6 0 9-6 8-12zm3452-28c0-5-7-10-15-10s-15 5-15 10c0 6 7 10 15 10s15-4 15-10zm-2995-81c25-70 26-79 16-79-6 0-11 7-11 15 0 10-10 15-30 15s-30-5-30-15c0-8-4-15-9-15s0 27 11 60c11 34 25 59 31 57s16-19 22-38zm329 19c8-13 5-24-12-47-27-37-27-39 1-44 13-3 8-5-15-6-44-1-49 13-13 41 14 11 25 29 25 40 0 16-5 19-25 16-26-5-35 6-12 15 20 9 39 3 51-15zm96 12c0-5-11-10-25-10-35 0-33-28 3-32 23-3 27-8 27-33 0-27-4-30-32-33-19-2-33 1-33 7s10 10 23 8c16-1 22 3 22 18s-6 19-22 18c-20-2-23 2-23 32 0 32 2 35 30 35 17 0 30-4 30-10zm155-14c-16-23-15-25 7-28 18-2 23-9 23-33 0-27-3-30-30-30s-30 3-33 37c-2 27 3 43 17 57 28 28 35 26 16-3zm173 12c13-13 16-66 6-92-9-22-51-20-64 3-30 57 17 130 58 89zm102 2c0-5-9-10-19-10-31 0-34-28-3-32 23-2 27-8 27-33 0-24-5-31-24-33-13-2-28 2-35 9-8 9-7 10 8 5 23-8 47 10 39 30-4 11-13 14-29 10-21-6-24-3-24 22 0 16 3 32 7 35 10 11 53 8 53-3zm-658-41c-3-20-12-33-23-36-28-8-23-23 6-23 19 0 25-5 25-21 0-17-5-20-37-17-34 3-38 6-34 28 2 14 4 38 5 55 1 27 13 36 57 44 3 1 3-13 1-30zm-122-54c10 0 17 14 21 40 6 40 8 38 13-22 4-31 2-33-30-33h-34l1 48 2 47 6-40c4-26 11-40 21-40zm590 65c0-5-4-10-10-10-5 0-10 5-10 10 0 6 5 10 10 10 6 0 10-4 10-10zm330-5c6-7 10-26 8-42-2-22-9-29-30-31-17-2-28-9-28-18 0-8-3-13-7-11-5 3-7 29-5 59 3 48 6 54 27 56 12 1 28-5 35-13zm147-35c1-41 1-42-5-10-5 22-14 36-24 38-15 3-18-4-18-32 0-20-4-36-10-36-5 0-10 16-10 35 0 24-5 35-15 35s-15-11-15-35c0-19-4-35-10-35-10 0-14 72-5 82 3 2 29 4 57 4l53-1zm-664-45c-8-22-22-18-16 5 3 11 9 17 14 15 4-3 6-12 2-20zm187 15c0-5-4-10-10-10-5 0-10 5-10 10 0 6 5 10 10 10 6 0 10-4 10-10zm-632-503c3-16 1-17-18-7-12 6-28 9-36 6-24-9-16-33 13-41 54-13 68-42 36-77-19-22-52-23-79-4-25 19-11 32 19 19 13-6 30-8 37-3 20 13 5 37-29 43-39 8-54 52-25 74 26 19 78 13 82-10zm322-1c0-8 6-17 13-20 10-5 10-7 0-12-7-3-13-23-13-44 0-22 5-40 13-43 6-2 8-8 4-13-17-17-42 13-45 55-2 22-7 41-13 41-5 0-2 11 7 25 18 28 34 33 34 11zm-200-37c18-32 5-49-37-49-35 0-36-1-20-17 14-15 21-16 37-5 17 10 20 10 20-3 0-20-43-29-69-15-16 8-21 20-21 48 0 21 5 43 12 50 20 20 66 15 78-9zm128-41c2-36-1-58-8-58-5 0-10 20-10 45 0 33-5 47-16 52-21 8-34-14-34-59 0-21-4-38-10-38s-10 26-10 59v59l43-2 42-1zm3762-23c18-21 5-60-33-95l-32-30h38c20 0 37-4 37-10 0-12-87-13-94-1-3 4 12 27 34 49s40 48 40 57c0 21-28 31-51 17-27-17-31-15-19 8 13 24 62 27 80 5zm258-1c17-12 22-25 22-60 0-58-26-86-78-82l-37 3-3 64c-2 35-1 70 2 77 7 19 66 18 94-2zm150 4c-3-7-19-14-36-16-24-2-32-8-32-23 0-14 7-19 30-19 17 0 30-4 30-10 0-5-13-10-29-10-26 0-30-4-33-32-2-17-9-33-15-36-10-3-13 17-13 77v81h51c36 0 49-4 47-12zm92 2c0-5-4-10-10-10-5 0-10-24-10-54s5-58 10-61c21-13 9-25-25-25-19 0-35 5-35 10 0 6 5 10 10 10 6 0 10 27 10 60s-4 60-10 60c-5 0-10 5-10 10 0 6 16 10 35 10s35-4 35-10zm247-22c18-18 33-35 33-39 0-14-74-78-83-72-5 3 6 20 24 39l33 34-27 28c-48 50-31 59 20 10zm-867-58c0-5-13-10-30-10-16 0-30 5-30 10 0 6 14 10 30 10 17 0 30-4 30-10zm-3919-155c18-48 17-76-2-42-6 9-19 17-29 17s-23-8-29-17c-19-35-19-7 1 45 11 29 24 52 30 50s19-26 29-53zm327 28c2-13-7-31-25-47l-28-26h28c15 0 27-4 27-9 0-9-59-5-68 4-3 3 7 18 21 33 29 30 36 62 14 62-7 0-18-5-25-12s-12-8-12-2c0 33 63 31 68-3zm73 18c-30-8-40-31-14-31 41 0 59-51 24-70-11-5-27-7-35-4-25 10-18 22 9 16 20-3 25 0 25 17 0 16-6 21-25 21-21 0-25 5-25 30 0 27 3 30 33 29 29-1 29-2 8-8zm175-10c-17-19-17-20 6-23 33-4 39-63 8-73-28-9-50 11-50 44 0 29 25 71 42 71 6 0 3-9-6-19zm182-32c3-51-14-75-47-64-25 8-38 64-21 95 8 15 19 20 38 18 24-3 27-7 30-49zm80 44c-38-6-43-29-7-37 22-4 29-11 29-30 0-30-23-50-50-41-27 8-26 25 1 18 12-4 25 0 29 8 12 19 3 29-26 29-20 0-24 5-24 30 0 28 2 30 38 29 28-2 31-3 10-6zm-646-43c-3-19-12-32-26-36-20-7-20-8 4-14 16-4 25-13 25-25 0-16-7-20-35-20-29 0-35 3-32 20 2 11 3 35 3 53 0 25 5 35 22 42 37 15 44 12 39-20zm-119-48c14-3 17 4 17 32 0 20 3 36 8 36 4 0 7-18 7-40 0-32-4-40-23-45-34-8-42 1-41 48l2 42 6-35c4-22 12-36 24-38zm587 58c0-5-4-10-10-10-5 0-10 5-10 10 0 6 5 10 10 10 6 0 10-4 10-10zm338-25c4-31-20-58-43-49-8 4-15-4-18-18-2-13-5 5-6 40l-1 63 33-3c27-3 32-7 35-33zm139-10c2-42-1-39-11 8-9 41-36 35-36-8 0-19-4-35-10-35-5 0-10 16-10 35 0 24-5 35-15 35s-15-11-15-35c0-19-4-35-10-35-5 0-10 18-10 40v41l58-3 57-3zm-667-46c-14-26-18-24-12 6 2 14 8 22 13 19s5-14-1-25zm190 11c0-5-2-10-4-10-3 0-8 5-11 10-3 6-1 10 4 10 6 0 11-4 11-10zm-200-480c0-5-7-10-15-10s-15 5-15 10c0 6 7 10 15 10s15-4 15-10zm360-70v-80h-44c-48 0-56 9-56 65 0 37 26 60 54 49 12-5 16 0 16 20 0 16 6 26 15 26 12 0 15-16 15-80zm-776 47c8-13 7-24-5-46-14-24-14-31-2-54 12-24 12-27-2-27-9 0-21 14-26 30-7 19-18 30-30 30-14 0-19-7-19-30 0-16-4-30-10-30s-10 32-10 76v75l46-3c32-2 51-9 58-21zm108-24c10-9 18-24 18-35 0-14-8-18-41-18-28 0-39-4-36-12 2-7 18-12 36-11 39 1 37-21-3-25-37-5-56 14-56 54 0 56 44 82 82 47zm112 11c9-3 16-12 16-20 0-16-16-19-25-4-13 20-35-3-35-37 0-35 0-35 37-28 33 6 35 5 24-9-19-23-68-20-81 3-30 57 10 116 64 95zm117-4c11-6 19-21 19-35 0-22-4-25-35-25-26 0-35-4-35-16 0-13 7-15 36-9 28 5 35 3 32-7-7-21-70-23-85-2-19 26-16 61 7 84s33 24 61 10zm79-56c0-41-4-54-15-54s-15 13-15 53c0 30 3 57 6 60 15 15 24-8 24-59zm56 21c8-43 20-45 29-6 7 33 35 64 35 39 0-8-7-35-16-61-22-65-45-63-67 5-16 50-15 74 3 63 5-3 12-21 16-40zm164 25c33-33 26-50-21-50-28 0-39-4-36-12 2-7 18-12 36-11 41 1 36-21-6-25-18-2-35 3-43 13-20 24-17 75 5 91 26 19 42 17 65-6zm3362-74c15-22 8-46-23-81l-31-35h30c17 0 34-4 37-10 4-6-15-10-49-10-31 0-56 4-56 8 0 5 14 21 31 38 43 40 53 62 38 80s-24 18-43-1c-8-9-17-11-21-6-3 5 5 17 17 25 23 16 57 12 70-8zm748-91c-19-19-41-35-49-35-10 0-3 12 19 35l34 35-32 33c-18 18-29 37-25 41 4 3 25-11 47-33l40-41zm-486 89c21-21 21-92-1-116-11-12-30-18-60-18h-43v75 75h44c27 0 51-6 60-16zm146 6c0-5-16-10-35-10-28 0-35-4-35-20s7-20 31-20c20 0 29-4 26-12-2-7-16-12-31-11-23 2-26-2-26-33 0-24-5-34-15-34-12 0-15 15-15 75v75h50c28 0 50-4 50-10zm90 0c0-5-4-10-10-10-5 0-10-25-10-55s5-55 10-55c6 0 10-4 10-10 0-5-16-10-35-10s-35 5-35 10c0 6 5 10 10 10 6 0 10 25 10 55s-4 55-10 55c-5 0-10 5-10 10 0 6 16 10 35 10s35-4 35-10zm-5013-62c-3-8-6-5-6 6-1 11 2 17 5 13 3-3 4-12 1-19zm-7-50c0 11 4 24 10 27 5 3 7 0 4-8-7-20 16-33 28-16 8 12 9 12 6 0-2-8-13-20-24-28-18-12-24-9-55 25l-34 37 33-29c30-28 32-29 32-8zm475-99c25-70 26-79 16-79-6 0-11 7-11 15 0 10-10 15-30 15s-30-5-30-15c0-8-5-15-11-15-7 0-8 7-4 18 4 9 14 36 22 60 18 50 31 50 48 1zm323 29c18-18 15-33-15-69l-27-32 27 5c15 3 27 1 27-3 0-5-16-9-35-9-41 0-45 14-10 42 14 11 25 29 25 40 0 17-4 19-25 14-14-4-25-3-25 2 0 24 38 30 58 10zm102-22c0-19 2-40 5-48 7-18-15-48-22-30-2 6-16 12-29 12-30 0-30 11-2 61 27 49 48 51 48 5zm180-5c0-22 4-41 9-43 5-1 3-12-5-22-8-11-14-14-14-8 0 7-13 12-30 12-16 0-30 3-30 7 0 14 51 93 60 93 6 0 10-18 10-39zm146 9c1-14 5-33 9-43s2-24-5-32c-14-17-56-20-65-4-4 6 4 9 21 7 36-4 46 26 12 36l-23 7 23 9c12 5 22 14 22 19 0 15-27 20-39 8-7-7-11-7-11-1 0 36 55 29 56-6zm102 18c17-17 15-59-4-86-21-31-38-28-18 4 14 21 15 25 3 24-31-5-39 1-39 28 0 16 3 32 7 35 10 11 38 8 51-5zm-656-39c-3-19-12-34-26-39-20-7-20-8 7-15 18-5 27-14 27-27 0-16-6-19-37-16-34 3-38 6-34 28 2 14 4 38 5 55 1 27 13 36 57 44 3 1 4-13 1-30zm-122-54c10 0 17 14 21 40 6 42 10 37 12-17 1-30-2-33-29-33-28 0-29 2-30 45l-2 45 7-40c4-26 11-40 21-40zm590 65c0-5-4-10-10-10-5 0-10 5-10 10 0 6 5 10 10 10 6 0 10-4 10-10zm333-11c16-26 0-69-26-69-20 1-20 2-4 11 25 14 23 59-3 59-17 0-20-7-20-51 0-27-3-48-7-46-5 3-6 30-5 60 3 51 5 54 29 53 14-1 30-8 36-17zm144-29c1-41 1-42-5-10-5 22-14 36-24 38-15 3-18-4-18-32 0-20-4-36-10-36-5 0-10 16-10 35 0 24-5 35-15 35s-15-11-15-35c0-19-4-35-10-35-5 0-10 20-10 45v45l58-2 57-3zm-664-45c-7-21-13-19-13 6 0 11 4 18 10 14 5-3 7-12 3-20zm187 15c0-5-4-10-10-10-5 0-10 5-10 10 0 6 5 10 10 10 6 0 10-4 10-10zm874-2886c9-19 16-36 16-37s-25 0-55 1l-55 4 1 54 2 54 37-21c21-12 45-36 54-55zm2872 51c9-27 24-35 51-29 30 8 51-30 28-52-20-20-19-51 1-62 14-8 14-10 0-24-8-9-12-19-8-23 4-3-5-4-21 0-28 7-62-10-51-26 3-5 0-9-6-9s-8-5-4-11c4-7-2-9-17-7-14 2-29 14-37 32-12 24-18 27-43 22-37-7-59 25-34 50 20 20 19 51-1 62-13 7-14 13-4 31 9 18 17 21 39 16 24-5 30-2 41 24 9 23 18 30 36 29 14-2 27-11 30-23zm-4378 9c12-4 22-13 22-21 0-12-11-14-59-10-32 2-65 1-72-3-8-5-12-34-12-87l1-78 61-3c45-2 60-6 54-15-4-8-2-8 9 1 10 8 19 9 22 4 10-16-22-22-124-22-80 0-99 3-104 16-10 26-7 184 4 205 9 16 22 19 93 19 45 0 92-3 105-6zm1362-4c-10-6-11-10-2-10s12-25 12-90-3-90-12-90-10-3-2-8c6-4 11-15 11-25 0-24-33-13-71 23-41 40-47 107-15 155 13 19 30 33 37 30s11-1 7 4c-6 10 10 19 35 20 13 1 13 0 0-9zm1480-14c0-2-7-7-16-10-8-3-12-2-9 4 6 10 25 14 25 6zm131-33c13-16 12-17-3-4-17 13-22 21-14 21 2 0 10-8 17-17zm-2936-65 1-48h-58-58v44c0 50 5 54 70 52l45-1zm1475-38c0-24-47-76-75-84-18-5-21-1-23 45l-2 51 44-3c24-2 42-1 39 4-2 4 1 7 6 7 6 0 11-9 11-20zm1477-2c-3-8-6-5-6 6-1 11 2 17 5 13 3-3 4-12 1-19zm-17-34c-8-8-23-20-34-25-13-7-9-1 9 15 34 29 43 33 25 10zm-3370-218c0-2-9-6-20-9s-18-1-14 4c5 9 34 13 34 5zm227-73c-2-16-4-3-4 27s2 43 4 28c2-16 2-40 0-55zm1456 70c-7-2-19-2-25 0-7 3-2 5 12 5s19-2 13-5zm84-15c-3-8-6-5-6 6-1 11 2 17 5 13 3-3 4-12 1-19zm46 15c-7-2-19-2-25 0-7 3-2 5 12 5s19-2 13-5zm2484 1c-3-3-12-4-19-1-8 3-5 6 6 6 11 1 17-2 13-5zm425-66c2-20 0-34-4-32-4 3-7 26-7 52 1 49 5 42 11-20zm-4305 20c-3-8-6-5-6 6-1 11 2 17 5 13 3-3 4-12 1-19zm4163 18c0-3-4-8-10-11-5-3-10-1-10 4 0 6 5 11 10 11 6 0 10-2 10-4zm-4623-38c-3-7-5-2-5 12s2 19 5 13c2-7 2-19 0-25zm170-20c-2-13-4-5-4 17-1 22 1 32 4 23 2-10 2-28 0-40zm480 5c-3-10-5-2-5 17s2 27 5 18c2-10 2-26 0-35zm1050 15c-3-7-5-2-5 12s2 19 5 13c2-7 2-19 0-25zm110 10c-3-8-6-5-6 6-1 11 2 17 5 13 3-3 4-12 1-19zm126 7c-3-9-8-14-10-11-3 3-2 9 2 15 9 16 15 13 8-4zm2494-32c-3-10-5-2-5 17s2 27 5 18c2-10 2-26 0-35zm230 15c-3-8-6-5-6 6-1 11 2 17 5 13 3-3 4-12 1-19zm-4140-10c-3-8-6-5-6 6-1 11 2 17 5 13 3-3 4-12 1-19zm4095-3c3-13 1-22-3-19-9 5-13 44-5 44 2 0 6-11 8-25zm-2787-17c6-4 2-8-7-8-10 0-18 7-18 17 0 9 3 12 8 7 4-5 12-12 17-16zm2495-1c22-4 21-5-4-4-17 1-31 9-33 17-3 10-2 11 4 4 4-7 19-14 33-17zm545-5c-3-3-11 0-18 7-9 10-8 11 6 5 10-3 15-9 12-12zm-3128 2c-3-3-12-4-19-1-8 3-5 6 6 6 11 1 17-2 13-5z"/><path d="m671 12475-20-35h24c22 0 25 4 25 35 0 19-2 35-4 35s-13-16-25-35z"/><path d="m2467 11923c-13-12-7-23 13-23 11 0 20 7 20 15 0 15-21 21-33 8z"/><path d="m2830 11915c0-10 7-15 18-13 21 4 19 22-2 26-10 2-16-3-16-13z"/><path d="m3215 11951c-8-26 4-51 26-51 15 0 19 7 19 35s-4 35-19 35c-11 0-22-8-26-19z"/><path d="m3470 11960c0-5 9-10 20-10s20 5 20 10c0 6-9 10-20 10s-20-4-20-10z"/><path d="m2890 11670c0-5 7-10 15-10s15 5 15 10c0 6-7 10-15 10s-15-4-15-10z"/><path d="m3256 11713c-11-11-6-23 9-23 8 0 15 4 15 9 0 13-16 22-24 14z"/><path d="m1544 11216c-10-26 1-51 24-54 19-3 22 1 22 32 0 30-4 36-20 36-11 0-23-6-26-14z"/><path d="m760 11245c0-23 4-26 28-23 19 2 27 9 27 23s-8 21-27 23c-24 3-28 0-28-23z"/><path d="m895 11220c-3-5-5-10-3-11 36-8 48-7 48 6 0 17-35 21-45 5z"/><path d="m1130 11216c0-9 7-15 18-13 26 4 30 22 5 25-16 2-23-2-23-12z"/><path d="m1427 11223c-13-12-7-19 18-19 14 0 25 6 25 13 0 13-32 18-43 6z"/><path d="m3662 11158c-13-13-16-76-6-102 3-9 14-16 24-16 22 0 30 19 30 70 0 43-27 69-48 48z"/><path d="m3840 11135c0-31 26-43 47-22s9 47-22 47c-20 0-25-5-25-25z"/><path d="m3973 11144c-8-21 19-46 40-38 9 3 17 17 17 30 0 19-5 24-25 24-14 0-28-7-32-16z"/><path d="m4116 11154c-12-12-13-20-6-35 14-24 36-24 50 0 14 26 13 29-9 41-15 7-23 6-35-6z"/><path d="m4240 11140c0-17 5-21 28-18 16 2 27 9 27 18s-11 16-27 18c-23 3-28-1-28-18z"/><path d="m4244 11085c-4-8-3-22 0-31 8-21 50-14 54 10 6 31-43 50-54 21z"/><path d="m4523 11123c-28-50-28-53-3-53s33 17 28 60l-3 33z"/><path d="m4781 11101c-19-12-9-55 13-59 19-4 36 13 36 35 0 17-33 33-49 24z"/><path d="m5030 11105c0-52 1-55 25-55 30 0 49 32 40 68-7 30-21 42-47 42-15 0-18-9-18-55z"/><path d="m765 10957c-8-19-2-31 13-26 5 2 6 13 2 24-7 19-8 19-15 2z"/><path d="m1607 10974c-16-16-6-35 16-32 12 2 22 10 22 18 0 16-26 25-38 14z"/><path d="m943 10938c2-7 10-13 17-13s15 6 18 13c2 7-5 12-18 12s-20-5-17-12z"/><path d="m940 10871c0-11 21-19 38-14 21 8 13 23-13 23-14 0-25-4-25-9z"/><path d="m1740 10920c0-23 4-30 20-30s20 7 20 30-4 30-20 30-20-7-20-30z"/><path d="m887 10335c-5-11 0-15 19-15 16 0 24 5 22 13-7 18-35 20-41 2z"/><path d="m3654 10266c-3-7-4-33-2-57 3-39 6-44 28-44 21 0 26 5 28 34 5 51-5 81-29 81-11 0-22-6-25-14z"/><path d="m3845 10261c-9-28 1-41 31-41 22 0 25 4 22 28-4 34-43 44-53 13z"/><path d="m3975 10261c-9-28 1-41 31-41 22 0 25 4 22 28-4 34-43 44-53 13z"/><path d="m4112 10263c-13-26-4-43 23-43 25 0 38 21 29 45-8 21-41 19-52-2z"/><path d="m4244 10266c-10-26 4-48 28-44 17 2 23 10 23 28s-6 26-23 28c-13 2-25-3-28-12z"/><path d="m4376 10265c-9-24-7-78 3-93 5-8 17-12 27-10 16 3 19 12 19 58 0 48-3 55-21 58-13 2-24-4-28-13z"/><path d="m5030 10215c0-61 14-71 50-35 34 34 18 90-25 90-24 0-25-3-25-55z"/><path d="m760 10060c0-11 6-20 14-20 9 0 12 7 9 20-3 11-9 20-14 20s-9-9-9-20z"/><path d="m1604 10085c-7-18 3-35 21-35s26 15 19 34c-8 20-33 21-40 1z"/><path d="m947 10064c-13-13-7-24 14-24 11 0 19 5 17 12-5 14-22 21-31 12z"/><path d="m1740 10041c0-25 4-31 21-31 16 0 20 5 17 27-2 17-10 29-20 31-14 3-18-3-18-27z"/><path d="m940 9980c0-5 9-10 19-10 11 0 23 5 26 10 4 6-5 10-19 10s-26-4-26-10z"/><path d="m1544 9446c-10-26 1-51 24-54 19-3 22 1 22 32 0 30-4 36-20 36-11 0-23-6-26-14z"/><path d="m760 9475c0-23 4-26 28-23 19 2 27 9 27 23s-8 21-27 23c-24 3-28 0-28-23z"/><path d="m895 9450c-4-6 5-10 19-10s26 5 26 10c0 6-9 10-19 10-11 0-23-4-26-10z"/><path d="m1130 9450c0-5 12-10 26-10s23 4 19 10c-3 6-15 10-26 10-10 0-19-4-19-10z"/><path d="m1425 9450c-3-5 1-10 9-10 9 0 19 0 23-1 4 0 9 4 11 10 5 14-35 14-43 1z"/><path d="m3662 9388c-19-19-15-105 4-112 26-10 44 13 44 58 0 37-13 66-30 66-3 0-11-5-18-12z"/><path d="m3853 9393c-18-7-16-52 2-59s45 12 45 32c0 16-30 33-47 27z"/><path d="m3982 9388c-25-25 0-64 32-52 21 8 21 50 0 58-20 8-18 8-32-6z"/><path d="m4116 9384c-18-18-6-54 19-54s37 36 19 54c-8 9-17 16-19 16s-11-7-19-16z"/><path d="m4253 9393c-18-7-16-52 2-59s45 12 45 32c0 16-30 33-47 27z"/><path d="m4387 9389c-22-13-24-91-2-109 28-23 45-4 45 48 0 55-15 76-43 61z"/><path d="m5030 9335c0-52 1-55 25-55 25 0 45 29 45 65 0 20-28 45-51 45-16 0-19-7-19-55z"/><path d="m765 9187c-8-19-2-31 13-26 5 2 6 13 2 24-7 19-8 19-15 2z"/><path d="m942 9168c5-15 28-18 29-3 0 6-7 12-17 13-10 3-15-1-12-10z"/><path d="m940 9100c0-5 11-10 25-10s25 5 25 10c0 6-11 10-25 10s-25-4-25-10z"/><path d="m887 8565c-5-11 0-15 19-15 16 0 24 5 22 13-7 18-35 20-41 2z"/><path d="m3654 8497c-3-8-4-34-2-58 3-39 6-44 28-44 24 0 25 3 25 55 0 49-2 55-23 58-12 2-24-3-28-11z"/><path d="m3844 8496c-10-26 4-48 28-44 17 2 23 10 23 28s-6 26-23 28c-13 2-25-3-28-12z"/><path d="m3974 8496c-10-26 4-46 31-46 23 0 26 4 23 28-3 31-44 45-54 18z"/><path d="m4107 8498c-8-25 5-48 28-48 25 0 38 21 29 45-7 18-51 20-57 3z"/><path d="m4244 8496c-10-26 4-48 28-44 17 2 23 10 23 28s-6 26-23 28c-13 2-25-3-28-12z"/><path d="m4391 8464c-26-44-26-44 4-44 23 0 25 4 25 40 0 22-2 40-4 40s-13-16-25-36z"/><path d="m4510 8491c-21-41-4-101 29-101 19 0 31 26 31 71s-40 66-60 30z"/><path d="m4783 8460-21-40h24c21 0 24 4 24 40 0 22-1 40-2 40-2 0-13-18-25-40z"/><path d="m5030 8452c0-57 2-61 35-55 50 10 40 103-10 103-23 0-25-4-25-48z"/><path d="m757 8290c-4-15 0-20 13-20s17 5 13 20c-3 11-9 20-13 20s-10-9-13-20z"/><path d="m947 8294c-13-13-7-24 14-24 11 0 19 5 17 12-5 14-22 21-31 12z"/><path d="m1740 8271c0-25 4-31 21-31 16 0 20 5 17 27-2 17-10 29-20 31-14 3-18-3-18-27z"/><path d="m940 8210c0-5 9-10 19-10 11 0 23 5 26 10 4 6-5 10-19 10s-26-4-26-10z"/><path d="m1544 7676c-10-26 1-51 24-54 19-3 22 1 22 32 0 30-4 36-20 36-11 0-23-6-26-14z"/><path d="m760 7704c0-22 4-25 28-22 19 2 28 9 30 26 3 19-1 22-27 22-27 0-31-4-31-26z"/><path d="m895 7680c-4-6 5-10 19-10s26 5 26 10c0 6-9 10-19 10-11 0-23-4-26-10z"/><path d="m1130 7680c0-5 12-10 26-10s23 4 19 10c-3 6-15 10-26 10-10 0-19-4-19-10z"/><path d="m1430 7684c-10-12-8-14 14-14 28 0 35 14 12 23-8 3-20-1-26-9z"/><path d="m3662 7618c-17-17-15-93 3-108 12-10 18-10 30 0 27 23 15 120-15 120-3 0-11-5-18-12z"/><path d="m3853 7623c-19-7-16-50 4-57 24-10 51 20 37 41-12 19-23 24-41 16z"/><path d="m3982 7618c-25-25 0-64 32-52 21 8 21 50 0 58-20 8-18 8-32-6z"/><path d="m4116 7614c-18-18-6-54 19-54 22 0 39 38 24 56s-24 18-43-2z"/><path d="m4253 7623c-19-7-16-50 4-57 24-10 51 20 37 41-12 19-23 24-41 16z"/><path d="m4512 7618c-17-17-15-93 3-108 12-10 18-10 30 0 27 23 15 120-15 120-3 0-11-5-18-12z"/><path d="m4393 7583c-28-50-28-53-3-53s33 17 28 60l-3 33z"/><path d="m4787 7581c-22-38-22-51 3-51 17 0 20 7 20 40 0 22-1 40-3 40-1 0-10-13-20-29z"/><path d="m5030 7565c0-52 1-55 25-55 18 0 28 7 36 26 16 44-4 84-43 84-15 0-18-9-18-55z"/><path d="m765 7417c-8-19-2-31 13-26 5 2 6 13 2 24-7 19-8 19-15 2z"/><path d="m1502 7398c3-47 21-60 38-28 16 31 5 70-21 70-18 0-20-5-17-42z"/><path d="m1602 7423c4-22 43-25 43-3 0 8-11 16-23 18-19 3-23 0-20-15z"/><path d="m943 7398c2-7 10-13 17-13s15 6 18 13c2 7-5 12-18 12s-20-5-17-12z"/><path d="m940 7330c0-5 11-10 25-10s25 5 25 10c0 6-11 10-25 10s-25-4-25-10z"/><path d="m1740 7386c0-32 20-44 36-22 16 23 7 46-17 46-13 0-19-7-19-24z"/><path d="m887 6795c-5-11 0-15 19-15 16 0 24 5 22 13-7 18-35 20-41 2z"/><path d="m3654 6726c-3-7-4-33-2-57 3-39 6-44 28-44 21 0 26 5 28 34 5 51-5 81-29 81-11 0-22-6-25-14z"/><path d="m3844 6726c-10-26 4-48 28-44 17 2 23 10 23 28s-6 26-23 28c-13 2-25-3-28-12z"/><path d="m3974 6726c-10-26 4-48 28-44 17 2 23 10 23 28s-6 26-23 28c-13 2-25-3-28-12z"/><path d="m4106 6724c-8-20 11-44 34-44 20 0 32 23 24 45-8 20-50 19-58-1z"/><path d="m4244 6726c-10-26 4-48 28-44 17 2 23 10 23 28s-6 26-23 28c-13 2-25-3-28-12z"/><path d="m5030 6680c0-47 2-50 25-50 34 0 53 39 37 75-8 17-20 25-37 25-23 0-25-3-25-50z"/><path d="m760 6520c0-11 7-20 15-20 17 0 18 2 9 24-9 23-24 20-24-4z"/><path d="m1504 6546c-10-26 1-71 18-74 20-4 31 27 22 62-7 28-31 35-40 12z"/><path d="m1604 6545c-7-18 3-35 21-35s26 15 19 34c-8 20-33 21-40 1z"/><path d="m947 6524c-13-13-7-24 14-24 11 0 19 5 17 12-5 14-22 21-31 12z"/><path d="m1740 6501c0-25 4-31 21-31 16 0 20 5 17 27-2 17-10 29-20 31-14 3-18-3-18-27z"/><path d="m953 6453c-7-3-13-9-13-14 0-12 37-12 44 0 7 11-14 20-31 14z"/><path d="m1544 5906c-10-26 1-51 24-54 19-3 22 1 22 32 0 30-4 36-20 36-11 0-23-6-26-14z"/><path d="m762 5938c2-17 10-23 28-23s26 6 28 23c3 19-1 22-28 22s-31-3-28-22z"/><path d="m900 5914c-10-12-8-14 14-14 28 0 35 14 12 23-8 3-20-1-26-9z"/><path d="m1140 5920c-19-12-7-22 21-18 19 2 20 5 8 15-9 7-20 9-29 3z"/><path d="m1430 5914c-10-12-8-14 14-14 28 0 35 14 12 23-8 3-20-1-26-9z"/><path d="m3662 5848c-17-17-15-93 3-108 12-10 18-10 30 0 27 23 15 120-15 120-3 0-11-5-18-12z"/><path d="m3853 5853c-18-6-16-50 1-56 8-3 22 1 33 8 28 21-1 62-34 48z"/><path d="m3982 5848c-25-25 0-64 32-52 21 8 21 50 0 58-20 8-18 8-32-6z"/><path d="m4111 5841c-13-24 8-55 31-46 22 9 31 35 17 51-16 19-36 17-48-5z"/><path d="m4253 5853c-18-6-16-50 1-56 8-3 22 1 33 8 28 21-1 62-34 48z"/><path d="m5030 5796c0-53 1-56 25-56 54 0 56 102 2 108-26 3-27 2-27-52z"/><path d="m765 5647c-8-19-2-31 13-26 5 2 6 13 2 24-7 19-8 19-15 2z"/><path d="m1354 5615c-4-9-2-21 4-27 15-15 44-1 40 19-4 23-36 29-44 8z"/><path d="m1504 5656c-9-25 0-71 15-71 21 0 35 29 27 58-7 29-33 36-42 13z"/><path d="m950 5640c-12-7-12-12-2-22 9-9 15-9 24 0 16 16-2 34-22 22z"/><path d="m940 5560c0-5 11-10 25-10s25 5 25 10c0 6-11 10-25 10s-25-4-25-10z"/><path d="m1740 5609c0-24 4-30 18-27 10 2 18 14 20 31 3 22-1 27-17 27-17 0-21-6-21-31z"/><path d="m886 5025c-4-11 1-15 19-15 16 0 25 6 25 15 0 8-9 15-19 15s-21-7-25-15z"/><path d="m5030 4910c0-47 2-50 25-50 34 0 53 39 37 75-8 17-20 25-37 25-23 0-25-3-25-50z"/><path d="m760 4750c0-11 7-20 15-20 17 0 18 2 9 24-9 23-24 20-24-4z"/><path d="m1355 4730c-4-7-3-16 3-22 14-14 45-2 40 15-6 16-34 21-43 7z"/><path d="m1504 4776c-10-26 1-71 18-74 20-4 32 29 24 64-7 26-33 33-42 10z"/><path d="m945 4750c-3-6 1-13 10-16 19-8 30 0 20 15-8 14-22 14-30 1z"/><path d="m940 4675c0-11 7-15 23-13 12 2 22 8 22 13 0 6-10 11-22 13-16 2-23-2-23-13z"/><path d="m1740 4730c0-23 4-30 20-30s20 7 20 30-4 30-20 30-20-7-20-30z"/><path d="m1544 4136c-10-26 1-51 24-54 19-3 22 1 22 32 0 30-4 36-20 36-11 0-23-6-26-14z"/><path d="m762 4168c2-17 10-23 28-23s26 6 28 23c3 19-1 22-28 22s-31-3-28-22z"/><path d="m900 4145c-11-13-9-15 15-15 16 0 25 5 23 12-7 19-24 20-38 3z"/><path d="m1140 4150c-19-12-7-22 21-18 19 2 20 5 8 15-9 7-20 9-29 3z"/><path d="m1430 4145c-11-13-9-15 15-15 16 0 25 5 23 12-7 19-24 20-38 3z"/><path d="m5030 4025c0-46 3-55 18-55 39 0 59 40 43 84-8 19-18 26-36 26-24 0-25-3-25-55z"/><path d="m760 3870c0-11 6-20 14-20 9 0 12 7 9 20-3 11-9 20-14 20s-9-9-9-20z"/><path d="m1182 3870c-16-26-15-30 3-30 9 0 15 9 15 25 0 30-2 31-18 5z"/><path d="m1367 3870c-16-22-16-25-1-28 21-5 26 2 22 30l-3 23z"/><path d="m1611 3901c-17-11-7-41 13-41 22 0 30 20 15 36-9 8-19 10-28 5z"/><path d="m944 3869c-10-17 13-36 27-22 12 12 4 33-11 33-5 0-12-5-16-11z"/><path d="m940 3790c0-5 11-10 25-10s25 5 25 10c0 6-11 10-25 10s-25-4-25-10z"/><path d="m5142 910c-36-34-27-81 18-98 20-8 29-5 48 15 34 36 28 69-15 92-28 14-25 15-51-9z"/><path d="m2125 880c3-5 8-10 11-10 2 0 4 5 4 10 0 6-5 10-11 10-5 0-7-4-4-10z"/><path d="m788 901c11-7 11-9-2-14-21-8-20-34 1-45 11-7 21-5 31 4 12 13 12 18-2 39-9 14-22 25-29 25-9 0-8-3 1-9z"/></g></svg>