<svg height="1280pt" preserveAspectRatio="xMidYMid meet" viewBox="0 0 591 1280" width="591pt" xmlns="http://www.w3.org/2000/svg"><g transform="matrix(.1 0 0 -.1 0 1280)"><path d="m0 6400v-6400h2955 2955v6400 6400h-2955-2955zm730 6095c0-30 5-55 10-55 6 0 10-7 10-15s-4-15-10-15c-5 0-10-7-10-15s-7-15-15-15-15 7-15 15c0 11-11 15-40 15-51 0-51 13-5 85 23 37 41 55 55 55 18 0 20-7 20-55zm211 45c21-12 26-56 7-62-9-3-8-9 5-22 9-10 17-24 17-31 0-43-82-61-114-26-24 26-1 39 25 15 15-14 24-16 37-7 23 14 21 37-3 41-34 7-40 21-12 31 35 13 36 41 2 41-14 0-25-4-25-10 0-5-7-10-15-10-21 0-19 27 3 39 22 13 48 14 73 1zm153-6c19-19 20-36 4-52-9-9-9-15 0-24 7-7 12-21 12-33s-5-26-12-33c-17-17-74-15-92 4-20 20-20 34-1 34 8 0 15-4 15-9 0-13 27-21 45-15 23 9 18 42-7 46-29 4-34 26-7 30 12 2 24 9 27 15 6 20-27 27-54 13-32-18-41-7-15 19 25 25 63 27 85 5zm3934-4c17-11 32-24 32-28 0-19-14-20-43-5-40 20-100 20-132-1-25-16-45-14-45 5 0 20 66 49 110 49 27 0 58-8 78-20zm437-65v-60l-129-3c-86-2-133 1-142 9-17 14-18 91-2 107 9 9 50 12 143 10l130-3zm-4655 40c0-8-7-15-15-15s-15 7-15 15 7 15 15 15 15-7 15-15zm4196-29c28-21 7-40-29-27-18 7-36 7-54 0s-30-6-37 1c-17 17 21 40 64 40 20 0 45-6 56-14zm-4198-53c-5-25-28-28-28-4 0 12 6 21 16 21 9 0 14-7 12-17zm4172-7c0-7-7-19-15-26-12-10-18-10-30 0-25 21-18 40 15 40 19 0 30-5 30-14zm-2660-391c0-8-7-15-15-15s-15 7-15 15 7 15 15 15 15-7 15-15zm500-49c0-36 5-68 10-71 17-10 11-25-10-25-18 0-20 7-20 80 0 47 4 80 10 80s10-28 10-64zm70-4c0-41 5-73 13-81 10-10 7-12-13-9-24 3-25 6-28 81-2 64 0 77 13 77 12 0 15-13 15-68zm-630 49c0-6-15-11-32-13-22-2-34-9-36-20-3-15 4-18 33-18 46 0 43-24-4-28-47-5-39-36 12-40 57-5 44-22-18-22h-55v75 75h50c28 0 50-4 50-9zm360-6c0-9 7-18 15-21 8-4 15-10 15-15s-7-9-15-9c-10 0-15-11-15-35s5-35 15-35c8 0 15-4 15-10 0-5-11-10-25-10-22 0-25 4-25 38 0 21-5 43-10 48-7 7-6 19 2 37 14 30 28 35 28 12zm660-15c0-5-4-10-9-10-4 0-6-12-3-26 5-29-10-44-46-44-13 0-20-4-17-10 3-5 19-10 34-10 26 0 51-15 51-31 0-17-33-39-59-39-36 0-67 23-55 41 4 8 8 36 9 64 0 48 1 50 35 62 44 15 60 16 60 3zm-842-12c16-16 16-111 0-106-7 3-13 21-14 42-3 44-7 51-29 43-10-4-15-20-15-47s-4-40-13-40c-10 0-14 16-16 54-2 59-6 54 65 65 5 0 15-4 22-11zm106 6c25-9 19-24-9-24-34 0-31-13 5-27 32-12 39-33 16-52-18-15-68-11-74 6-2 9 5 11 27 7 40-8 41 11 1 25-34 11-41 44-12 60 20 12 25 13 46 5zm204-10c12-8 22-24 22-35 0-15-7-19-35-19-26 0-35-4-35-16 0-13 7-15 31-10 22 4 29 2 26-7-2-6-18-12-37-12-42 0-61 27-49 72 8 27 17 35 49 42 3 0 16-6 28-15zm225-82c14-3 17 4 17 42 0 34 4 46 15 46 12 0 15-13 15-55v-55h-40c-34 0-42 4-50 26-14 35-12 82 3 87 8 2 14-11 17-42 4-33 10-47 23-49zm165 86c18-18 16-108-3-108-11 0-15 12-15 46 0 38-3 45-17 42-13-2-19-15-21-46-2-28-8-42-18-42s-14 14-14 54c0 54 0 55 33 59 17 2 34 5 38 5 3 1 10-3 17-10zm240-4c12-8 22-24 22-35 0-15-7-19-35-19-26 0-35-4-35-16 0-13 7-15 31-10 22 4 29 2 27-7-6-17-56-21-74-6-19 16-18 68 3 91 20 22 32 23 61 2zm131 7c18-12 21-102 4-108-8-3-13 11-15 39-2 31-8 44-20 46-15 3-18-4-18-42 0-34-4-46-15-46s-15 13-15 54c0 52 1 55 28 59 15 2 29 5 32 5 3 1 11-2 19-7zm-1189-56c0-42-3-55-15-55s-15 13-15 55 3 55 15 55 15-13 15-55zm3255 15c-3-5-12-10-18-10-7 0-6 4 3 10 19 12 23 12 15 0zm95-104c0-2-7-7-16-10-8-3-12-2-9 4 6 10 25 14 25 6zm55-84-28-27 24 31c13 17 26 30 28 27 3-2-8-16-24-31zm-140-30c-5-5-45 22-45 31 0 4 11 0 24-10s23-19 21-21zm-3070 8c22-24 13-66-15-75-54-17-93 42-50 77 28 23 43 23 65-2zm153-5c6-14 15-25 20-25s14 11 20 25 16 25 22 25c13 0 13-107 0-115-6-4-10 11-10 37l-1 43-16-29-16-30-16 30-16 29-3-37c-5-58-22-45-22 17 0 61 18 75 38 30zm377-12 20-38 3 38c5 57 22 44 22-18 0-66-15-72-47-17l-22 37-1-37c0-21-4-38-10-38-5 0-10 25-10 55 0 66 17 73 45 18zm196 15c4-44 1-88-7-88-5 0-10 12-12 27s-7 32-12 37-3 14 3 22c15 17 27 18 28 2zm-410-50c5-34 4-37-25-42-16-4-34-2-39 3-15 15 0 41 24 41 12 0 19 5 16 13-2 6-11 11-21 9-9-2-16 2-16 8s12 10 27 8c23-2 29-9 34-40zm49 3c0-22-4-43-10-46-6-4-10 12-10 39 0 25 5 46 10 46 6 0 10-18 10-39zm94 8c5-15 5-35 0-45-6-15-9-12-12 19-2 29-7 37-23 37-14 0-19-7-19-30 0-16-4-30-10-30-11 0-14 63-3 74 16 16 58 1 67-25zm204 19c20-20 14-38-13-38-31 0-33-17-2-23 19-3 20-4 4-11-10-5-23-3-32 4-15 13-21 61-8 73 10 11 38 8 51-5zm-2618-1273c0-8-4-15-10-15-5 0-10 7-10 15s5 15 10 15c6 0 10-7 10-15zm5085-25 39-40-41-41c-25-25-46-39-53-34-8 5-2 18 21 41l33 34-32 33c-28 29-33 47-12 47 3 0 24-18 45-40zm-5359 5c11-44 29-48 47-10 9 19 23 35 32 35 12 0 15-15 15-75 0-85-17-103-22-22l-3 52-18-32c-22-41-32-41-49-3-19 45-29 36-25-20 4-38 2-50-9-50s-14 18-14 75c0 68 2 75 20 75 13 0 22-9 26-25zm499-28 30-52 3 53c5 80 22 62 22-23 0-93-15-98-59-22l-31 52v-52c0-40-4-53-15-53-12 0-15 15-15 75 0 65 2 75 18 75 10 0 29-21 47-53zm267 13c8-1 7-5-4-14-10-7-18-26-18-41s8-34 18-41c15-12 14-13-10-14-26 0-28 3-28 44 0 25-5 46-12 48-7 3-5 13 7 32 18 27 19 28 27 7 4-12 13-21 20-21zm-571 0c14-8 19-21 19-48 0-21 5-43 11-49 9-9-2-11-42-10-48 2-54 5-57 25-3 22 8 31 44 36 10 2 20 9 22 16 3 9-4 11-27 8-33-5-45 17-13 25 9 3 18 5 20 6 2 0 12-4 23-9zm190 0c15-8 19-22 19-60 0-61-18-67-22-7-2 34-7 42-23 42s-21-8-23-42c-5-63-22-52-22 13 0 45 3 55 15 51 8-4 17-2 20 3 8 13 12 12 36 0zm289-10c33-33 26-50-21-50-28 0-39-4-36-12 2-7 18-12 36-11 36 1 38-15 3-28-53-20-88 66-42 103 28 23 35 23 60-2zm-400-45c0-30-4-55-10-55-5 0-10 25-10 55s5 55 10 55c6 0 10-25 10-55zm-92-1467c-6-18-28-21-28-4 0 9 7 16 16 16s14-5 12-12zm252-67v-78l-37-7c-31-5-41-2-55 15-35 41-16 99 32 99 25 0 30 4 30 25 0 16 6 25 15 25 12 0 15-15 15-79zm268 54c-5-22-2-25 23-25 35 0 51-27 47-78-4-53-22-46-26 11-3 38-7 47-22 47s-19-9-22-47c-5-79-23-55-26 35-2 71-1 82 14 82 12 0 15-6 12-25zm642-44c0-40 5-73 11-77 8-4 7-9-2-15-27-16-39 12-39 87 0 59 3 74 15 74s15-14 15-69zm60 0c0-44 4-71 12-73 6-2 8-9 4-16-3-6-13-9-21-5-12 4-15 24-15 84 0 46 4 79 10 79s10-30 10-69zm3955 29 39-40-39-40c-21-22-43-40-47-40-16 0-7 25 19 52l27 28-32 33c-28 29-33 47-12 47 3 0 24-18 45-40zm-5379-31c12-57 18-53 32 16 13 63 38 58 53-10 13-61 22-57 34 13 4 26 12 42 21 42 17 0 17 2-5-85-22-89-40-92-62-10l-16 60-12-45c-20-75-22-80-31-80-13 0-21 16-36 78-17 72-17 85-2 80 7-3 18-29 24-59zm1174 31c24-24 25-30 5-30-21 0-21-66 1-74s8-25-16-19c-16 4-20 14-20 48 0 25-5 46-12 49-10 5-10 7 0 12 6 3 12 12 12 20 0 19 6 18 30-6zm1041-1c20-20 20-23 5-31-21-12-21-64 0-72 22-8 8-25-16-19-16 4-20 14-20 48 0 25-5 46-12 49-10 5-10 7 0 12 6 3 12 12 12 20 0 19 6 18 31-7zm-401 1c0-5-5-10-10-10-7 0-7-6 0-20 8-16 6-24-10-40-11-11-25-18-30-15s-11 1-15-5c-3-6 4-10 17-10 14 0 33-6 44-14 32-24 7-51-47-51h-44v60c0 74 9 95 40 95 14 0 25 5 25 10 0 6 7 10 15 10s15-4 15-10zm-1612-65c-2-30-7-55-13-55-5 0-11 25-13 55-2 45 0 55 13 55s15-10 13-55zm122 29c14-35 15-34-30-34-30 0-40-4-40-16 0-13 7-15 35-11 40 7 47-8 11-24-51-24-94 36-62 86 23 35 73 35 86-1zm248 14c7-7 12-20 12-30 0-14-8-18-34-18-41 0-54-15-27-30 13-7 22-7 26 0 9 15 25 12 25-4 0-14-21-26-45-26s-45 30-45 64c0 39 15 56 50 56 14 0 31-5 38-12zm102 2c0-4-9-10-19-13-15-4-20-15-23-48-4-61-22-51-26 15l-3 54h36c19 0 35-4 35-8zm238-15c16-36 17-35-28-35-30 0-40-4-40-16 0-13 7-15 35-11 39 6 46-6 14-24-48-25-95 33-70 87 16 35 73 34 89-1zm92 17c0-4-9-13-20-20-15-9-20-23-20-52 0-22-4-40-10-40s-10 27-10 60v60h30c17 0 30-3 30-8zm100-6c0-9-8-12-25-8-35 6-31-14 5-27 57-19 24-80-35-65-14 3-25 13-25 21 0 10 6 13 18 8 28-11 34-11 38 0 2 6-9 16-26 22-28 11-40 39-23 56 13 13 73 7 73-7zm200-12c14-35 15-34-30-34-41 0-50-9-27-28 8-7 18-7 27-2 19 12 30 12 30 0 0-15-39-32-61-25-31 10-44 48-29 85 10 25 18 30 46 30s36-5 44-26zm182-16c2-36 7-44 26-46 20-3 22 1 22 42 0 25 5 46 10 46 6 0 10-26 10-57v-58h-33c-48 0-57 11-57 66 0 60 18 66 22 7zm196-23c3-68-14-68-20 0-2 32-7 40-23 40-17 0-20-8-23-47-4-69-22-59-22 13v60l43-3 42-3zm232 51c0-9-8-12-25-8-35 6-31-14 5-27 36-12 40-45 9-62-25-13-75 4-64 21 4 7 13 7 25 0 13-7 21-7 25 1 8 12 9 11-27 27-26 11-37 40-21 55 13 13 73 7 73-7zm102-1c-2-5-14-9-27-7-35 5-31-11 5-25 33-12 40-42 15-63-19-16-65-5-65 16 0 12 4 13 20 4 20-11 40-6 40 8 0 4-13 13-30 19-29 11-40 39-23 57 11 10 68 3 65-9zm122-7c17-85 17-91-4-85-11 3-23 1-26-4-8-14-31-11-48 7-22 21-4 54 29 54 16 0 25 6 25 16 0 13-7 15-30 11-16-4-30-3-30 2 0 15 13 21 46 21 27 0 35-5 38-22zm206 14c0-4-14-24-31-45l-30-37h31c20 0 30-4 28-12-4-11-20-13-73-9-22 1-18 19 12 55l26 31-26 3c-44 5-30 22 18 22 25 0 45-3 45-8zm-1350-748c0-17-22-14-28 4-2 7 3 12 12 12s16-7 16-16zm40 1c0-8-4-15-10-15-5 0-10 7-10 15s5 15 10 15c6 0 10-7 10-15zm270-65v-80h-38c-46 0-62 14-62 55 0 39 30 70 59 60 18-5 21-2 21 19 0 14 5 26 10 26 6 0 10-33 10-80zm4075 40 39-40-39-40c-21-22-43-40-47-40-16 0-7 25 19 52l27 28-32 33c-28 29-33 47-12 47 3 0 24-18 45-40zm-5307 18c7-7 12-21 12-33 0-29-19-45-52-45-24 0-28-4-28-30 0-20-5-30-15-30-12 0-15 15-15 75v75h43c24 0 48-5 55-12zm792-13c0-7 6-16 13-19 10-5 10-7 0-12-15-7-18-74-3-74 6 0 10-5 10-11s-10-9-22-7c-19 2-24 10-26 43-2 22-8 43-14 46-6 4-4 16 7 33 17 26 35 27 35 1zm-678-29c4-6 8-23 8-38 0-14 3-33 6-42 5-12 0-16-17-15-13 1-28 1-34-1-22-6-43 1-49 15-9 24 4 44 32 47 14 2 28 9 30 17 4 11-2 13-27 8-34-7-42 6-13 22 19 11 53 4 64-13zm99 13c26-13 16-28-16-21-35 6-31-11 6-25 24-9 30-17 27-35-2-19-9-23-40-23-21 0-38 5-38 10 1 6 14 9 30 7 39-4 39 13 0 27-22 7-30 16-30 35 0 33 26 44 61 25zm107 5c32-9 27-24-8-24-39 0-38-12 1-27 24-9 30-17 27-35-2-19-9-23-40-23-21 0-38 5-38 10 1 6 14 9 30 7 39-4 38 10 0 25-32 12-40 39-18 61 14 14 15 14 46 6zm302-14c23-23 26-72 6-89-43-36-111 21-85 71 23 43 48 49 79 18zm93 8c24 4 22-14-3-21-16-4-20-14-20-46 0-23-4-41-10-41s-10 27-10 61c0 46 3 58 13 52 6-4 20-6 30-5zm238 2c14-8 19-21 19-48 0-21 5-43 12-50 8-8-2-11-43-9-50 2-54 4-54 27 0 20 6 26 29 30 42 7 49 34 7 28-31-5-45 15-18 25 19 8 27 8 48-3zm130 0c15-8 19-22 19-60 0-61-18-67-22-7-2 34-7 42-23 42s-21-8-23-42c-5-62-22-53-22 11 0 49 2 55 23 59 12 2 23 5 25 6 2 0 12-4 23-9zm257-6c12-8 22-24 22-35 0-16-7-19-40-19-32 0-38-3-33-16 4-12 14-14 35-10s28 2 26-7c-6-17-56-21-74-6-22 18-18 75 8 93 12 9 25 16 28 16s16-7 28-16zm216 0c22-21 22-104 1-104-11 0-15 12-15 45 0 38-3 45-20 45s-20-7-20-45c0-33-4-45-15-45s-15 13-15 54c0 52 1 55 28 59 15 2 30 5 34 6 4 0 14-6 22-15zm-1167-24c8-44 21-46 29-5 9 48 33 43 49-10l12-40 8 38c7 34 21 55 30 45 2-2-2-26-9-53-15-60-43-74-52-26-9 44-21 47-28 6-9-45-41-49-49-6-3 16-9 40-13 55-4 17-2 26 5 26 6 0 14-14 18-30zm1063 20c0-5-6-10-14-10-17 0-26-22-26-61 0-16-4-29-10-29-5 0-10 25-10 55 0 54 0 55 30 55 17 0 30-4 30-10zm-1500-925c0-8-7-15-15-15s-15 7-15 15 7 15 15 15 15-7 15-15zm40 0c0-8-4-15-9-15-13 0-22 16-14 24 11 11 23 6 23-9zm25-87c-3-85-10-98-54-98-20 0-42 5-49 12-17 17-16 138 1 138 8 0 11-13 9-44-4-51 11-86 37-86 24 0 31 19 31 79 0 26 3 51 6 54 15 14 22-6 19-55zm55 32c0-27 2-29 19-18 41 25 78-42 51-93-8-14-21-19-55-19h-45v80c0 64 3 80 15 80 10 0 15-10 15-30zm5235-10 39-40-39-40c-21-22-43-40-47-40-16 0-7 25 19 52l27 28-27 28c-26 27-35 52-19 52 4 0 26-18 47-40zm-5053-12c8-7 18-23 21-35 5-21 2-23-35-23-27 0-38-4-35-12 2-7 18-12 36-11 43 2 35-21-9-25-57-6-82 56-40 98 23 23 40 25 62 8zm118-8c0-4-9-10-20-13-16-4-20-14-20-46 0-30-4-41-15-41s-15 13-15 53c0 30 2 56 5 59 7 7 65-3 65-12zm-203-1192c-3-7-5-2-5 12s2 19 5 13c2-7 2-19 0-25zm2070-110c-3-7-5-2-5 12s2 19 5 13c2-7 2-19 0-25zm-243-4814c9-19 16-36 16-37s-25 0-55 1l-55 4v55 54l39-21c22-13 45-37 55-56zm-1506 60c12-4 22-13 22-21 0-12-11-14-59-10-82 6-86 2-83-82 3-51 0-71-9-71-7 0-9-3-5-7s41-10 84-13c114-8 95-25-32-28-81-2-112 1-118 10-11 19-10 186 2 209 9 16 22 19 93 19 45 0 92-3 105-6zm1362-4c-10-6-11-10-2-10s12-25 12-90-3-90-12-90-10-3-2-8c6-4 11-15 11-25 0-24-33-13-71 23-41 40-47 107-15 155 13 19 30 33 37 30s11-1 7 4c-6 10 10 19 35 20 13 1 13 0 0-9zm1573-11c53-29 76-90 53-142-26-62-72-84-137-67-22 6-39 13-37 15 2 3 21 0 42-6 71-20 126 24 126 98 0 21-7 48-15 59-35 51-127 55-165 7-22-28-27-73-8-73 8 0 6-6-4-17-14-14-20-14-33-3-12 10-13 15-4 21 7 4 14 17 16 29 10 70 101 113 166 79zm-2895-101 3-48h-60-61v44c0 50 5 54 70 52l45-1zm2855-18c11-13 10-13-5-1-10 7-17 25-17 40l2 26 4-25c3-14 10-32 16-40zm-1383-20c0-24-47-76-75-84-18-5-21-1-23 45l-2 51 44-3c24-2 42-1 39 4-2 4 1 7 6 7 6 0 11-9 11-20zm-1910-254c0-2-9-6-20-9s-18-1-14 4c5 9 34 13 34 5zm227-73c-2-16-4-3-4 27s2 43 4 28c2-16 2-40 0-55zm1463 73c0-2-9-6-20-9s-20-1-20 4 9 9 20 9 20-2 20-4zm77-18c-3-8-6-5-6 6-1 11 2 17 5 13 3-3 4-12 1-19zm46 15c-7-2-19-2-25 0-7 3-2 5 12 5s19-2 13-5zm-1856-60c-3-10-5-4-5 12 0 17 2 24 5 18 2-7 2-21 0-30zm460 15c-3-8-6-5-6 6-1 11 2 17 5 13 3-3 4-12 1-19zm2521-14c-3-14-5-12-10 9-3 19-2 25 4 19s8-18 6-28zm-2811-26c-2-13-4-5-4 17-1 22 1 32 4 23 2-10 2-28 0-40zm480 5c-3-10-5-2-5 17s2 27 5 18c2-10 2-26 0-35zm1050 15c-3-7-5-2-5 12s2 19 5 13c2-7 2-19 0-25zm110 10c-3-8-6-5-6 6-1 11 2 17 5 13 3-3 4-12 1-19zm130 7c0-8-4-15-9-15-10 0-11 14-1 23 9 10 10 9 10-8zm1090-7c-3-8-6-5-6 6-1 11 2 17 5 13 3-3 4-12 1-19zm-2510-20c-3-7-5-2-5 12s2 19 5 13c2-7 2-19 0-25zm3160 10c-3-8-6-5-6 6-1 11 2 17 5 13 3-3 4-12 1-19zm150-15c-3-10-5-4-5 12 0 17 2 24 5 18 2-7 2-21 0-30zm-2002-15c6-4 2-8-7-8-10 0-18 7-18 17 0 9 3 12 8 7 4-5 12-12 17-16zm1569 6c3-8 2-12-4-9s-10 10-10 16c0 14 7 11 14-7zm-1657-10c-3-3-12-4-19-1-8 3-5 6 6 6 11 1 17-2 13-5z"/><path d="m671 12475-20-35h24c22 0 25 4 25 35 0 19-2 35-4 35s-13-16-25-35z"/><path d="m3213 11964c-7-19 2-28 22-21 19 8 19 23 0 31-9 3-18-1-22-10z"/><path d="m3200 11865c0-12 7-15 25-13 14 2 26 8 26 13 0 6-12 11-26 13-18 2-25-1-25-13z"/><path d="m2700 11960c0-5 9-10 20-10s20 5 20 10c0 6-9 10-20 10s-20-4-20-10z"/><path d="m3330 11960c0-5 9-10 20-10s20 5 20 10c0 6-9 10-20 10s-20-4-20-10z"/><path d="m2780 11670c0-5 7-10 15-10s15 5 15 10c0 6-7 10-15 10s-15-4-15-10z"/><path d="m3146 11713c-11-11-6-23 9-23 8 0 15 4 15 9 0 13-16 22-24 14z"/><path d="m440 10335c0-8 9-15 20-15s20 7 20 15-9 15-20 15-20-7-20-15z"/><path d="m910 10384c-10-12-8-14 14-14 28 0 35 14 12 23-8 3-20-1-26-9z"/><path d="m644 8816c-10-26 1-51 24-54 19-3 22 1 22 32 0 30-4 36-20 36-11 0-23-6-26-14z"/><path d="m2012 8813c2-10 10-18 18-18s16 8 18 18c2 12-3 17-18 17s-20-5-18-17z"/><path d="m2000 8720c0-5 14-10 30-10 17 0 30 5 30 10 0 6-13 10-30 10-16 0-30-4-30-10z"/><path d="m527 8824c-14-14-6-24 19-24 16 0 24 5 22 13-5 14-31 21-41 11z"/><path d="m777 8824c-10-11 3-24 24-24 10 0 19 7 19 15 0 15-31 21-43 9z"/><path d="m1110 8817c0-9 10-14 25-14 31 0 28 21-3 25-14 2-22-2-22-11z"/><path d="m1507 8824c-14-14-6-24 19-24 16 0 24 5 22 13-5 14-31 21-41 11z"/><path d="m2350 8780c-11-7-12-12-3-21 13-13 33-4 33 17 0 16-9 18-30 4z"/><path d="m1500 8005c0-32 3-36 23-33 17 2 22 10 22 33s-5 31-22 33c-20 3-23-1-23-33z"/><path d="m270 8055c0-20 5-25 25-25s25 5 25 25-5 25-25 25-25-5-25-25z"/><path d="m397 7993c-13-12-7-23 13-23 11 0 20 7 20 15 0 15-21 21-33 8z"/><path d="m904 8026c-10-26 1-51 24-54 19-3 22 1 22 32 0 30-4 36-20 36-11 0-23-6-26-14z"/><path d="m1250 7984c0-9 7-14 17-12 25 5 28 28 4 28-12 0-21-6-21-16z"/><path d="m1630 8030c0-5 9-10 20-10s20 5 20 10c0 6-9 10-20 10s-20-4-20-10z"/><path d="m421 7030c-7-4-11-20-9-36 2-21 8-29 23-29s21 8 23 31c3 33-14 49-37 34z"/><path d="m550 7030c-19-12-7-22 21-18 19 2 20 5 8 15-9 7-20 9-29 3z"/><path d="m2125 880c3-5 8-10 11-10 2 0 4 5 4 10 0 6-5 10-11 10-5 0-7-4-4-10z"/><path d="m788 901c11-7 11-9-2-14-21-8-20-34 1-45 11-7 21-5 31 4 12 13 12 18-2 39-9 14-22 25-29 25-9 0-8-3 1-9z"/></g></svg>