<svg fill="none" height="61" viewBox="0 0 186 61" width="186" xmlns="http://www.w3.org/2000/svg" xmlns:xlink="http://www.w3.org/1999/xlink"><clipPath id="a"><path d="m12.751 11.8528h33.041v35h-33.041z"/></clipPath><mask id="b" fill="#fff"><path clip-rule="evenodd" d="m97.5529 15.8643c.0011.9797.3079 1.7652.9215 2.3896.6193.6243 1.3589.9306 2.2556.9323.895-.0017 1.636-.308 2.254-.9323.615-.6244.922-1.4099.923-2.3896-.001-.9797-.308-1.7651-.923-2.3896-.618-.6243-1.359-.9305-2.254-.9323-.8967.0018-1.6363.308-2.2556.9323-.6136.6245-.9204 1.4099-.9215 2.3896zm7.7821 0c.001 1.3007-.442 2.4178-1.319 3.3184-.878.9047-1.985 1.3608-3.286 1.3596-1.3023.0012-2.4098-.4549-3.2856-1.3596l.0039.0047-.0039-.0041c-.8786-.9012-1.3205-2.0183-1.3194-3.319-.0011-1.3007.4408-2.4178 1.3194-3.319v.0006c.8758-.9046 1.9833-1.3617 3.2856-1.3601 1.295-.0016 2.399.4576 3.28 1.3657.881.9047 1.326 2.0195 1.325 3.3128zm-40.5831.8843c-.0818.6502-.3074 1.1475-.6692 1.511-.6215.6192-1.3843.9249-2.3217.9266-.8798-.0012-1.6262-.3041-2.2697-.9227-.6374-.6165-.9544-1.4036-.956-2.3992.0016-.9956.3186-1.7827.956-2.3992.6435-.6186 1.3899-.9215 2.2697-.9227.9781.0023 1.7167.3255 2.2653.9781l.1017.121.8741-.8753.0938-.0937-.0854-.1013c-.3554-.4237-.8288-.76-1.4109-1.0097-.5831-.2503-1.1984-.3758-1.8386-.3758-1.286-.0011-2.3957.4509-3.2959 1.3454-.9035.8928-1.3588 2.015-1.3577 3.3332-.0011 1.3176.4542 2.4404 1.3583 3.3338.8996.8939 2.0093 1.3453 3.2953 1.3442 1.3391.0011 2.45-.4437 3.2931-1.3291.7477-.7484 1.1187-1.759 1.1177-2.9968 0-.2199-.0204-.4458-.0628-.6809l-.0214-.1187h-4.4713v1.1871.1447zm8.0886-5.2237v1.0662.1447h-3.9525v2.4625h3.5644v.1447 1.1875h-3.5644v2.4626h3.9525v.1446 1.2109h-5.356v-8.9683h5.356zm4.7016 1.2109v7.4681.1447h-.1447-1.2606v-7.6128h-2.4241v-.1447-1.2108h6.2534v.1446 1.2109zm7.7088 7.6128h-1.1148-.1447v-8.9683h.1447 1.2594v8.9683zm5.092-7.6128v7.4681.1447h-.1446-1.2607v-7.6128h-2.4239v-.1447-1.2108h6.2533v.1446 1.2109zm21.8781 5.0922-4.028-6.4477h-1.438-.144v8.9683h.144 1.115.144v-5.5527l-.035-1.2213 4.223 6.774h1.245.144v-8.9683h-1.26-.145v5.2255z" fill="#fff" fill-rule="evenodd"/></mask><mask id="c" fill="#fff"><path d="m147.247 45.6533h2.559v-17.1462h-2.559zm23.052-10.9697-2.934 7.4337h-.088l-3.044-7.4337h-2.757l4.566 10.39-2.604 5.7793h2.671l7.036-16.1693zm-14.514 9.0222c-.839 0-2.008-.419-2.008-1.4562 0-1.3234 1.457-1.8307 2.713-1.8307 1.126 0 1.654.2426 2.339.5738-.199 1.588-1.567 2.7131-3.044 2.7131zm.309-9.3974c-1.853 0-3.772.8165-4.566 2.6253l2.271.9483c.486-.9483 1.389-1.2574 2.339-1.2574 1.323 0 2.669.7945 2.691 2.2063v.1762c-.464-.2647-1.456-.6616-2.669-.6616-2.449 0-4.942 1.3452-4.942 3.8601 0 2.2942 2.008 3.7724 4.257 3.7724 1.721 0 2.669-.7721 3.266-1.6764h.088v1.3233h2.47v-6.5739c0-3.0436-2.272-4.7426-5.205-4.7426zm-15.817 2.4624h-3.64v-5.8773h3.64c1.913 0 2.999 1.5842 2.999 2.9386 0 1.3288-1.086 2.9387-2.999 2.9387zm-.066-8.2637h-6.132v17.1462h2.558v-6.4961h3.574c2.836 0 5.625-2.0537 5.625-5.3251 0-3.2713-2.789-5.325-5.625-5.325zm-33.44 15.2019c-1.768 0-3.248-1.4803-3.248-3.5135 0-2.0546 1.48-3.5575 3.248-3.5575 1.746 0 3.115 1.5029 3.115 3.5575 0 2.0332-1.369 3.5135-3.115 3.5135zm2.939-8.0653h-.089c-.574-.6849-1.679-1.3036-3.071-1.3036-2.917 0-5.59 2.5631-5.59 5.8554 0 3.2703 2.673 5.8114 5.59 5.8114 1.392 0 2.497-.6188 3.071-1.3255h.089v.8396c0 2.232-1.193 3.4252-3.116 3.4252-1.569 0-2.541-1.1273-2.939-2.0773l-2.231.928c.64 1.5467 2.342 3.4472 5.17 3.4472 3.005 0 5.546-1.7681 5.546-6.0767v-10.4737h-2.43zm4.198 10.0096h2.563v-17.1467h-2.563zm6.342-5.6566c-.067-2.254 1.745-3.4027 3.049-3.4027 1.017 0 1.878.5079 2.165 1.2377zm7.954-1.9443c-.485-1.3041-1.966-3.7123-4.994-3.7123-3.005 0-5.501 2.3643-5.501 5.8334 0 3.2704 2.474 5.8334 5.789 5.8334 2.674 0 4.221-1.6352 4.861-2.5851l-1.988-1.326c-.663.9724-1.569 1.6132-2.873 1.6132s-2.232-.5968-2.829-1.7675l7.8-3.2264zm-62.1427-1.9224v2.4747h5.9218c-.1768 1.392-.6408 2.4083-1.348 3.1155-.8615.8621-2.2095 1.812-4.5738 1.812-3.646 0-6.4962-2.9387-6.4962-6.5846s2.8502-6.585 6.4962-6.585c1.9667 0 3.4026.7736 4.4634 1.7679l1.7456-1.7454c-1.4804-1.4145-3.4472-2.4972-6.209-2.4972-4.9939 0-9.1922 4.0658-9.1922 9.0597s4.1983 9.0593 9.1922 9.0593c2.696 0 4.7287-.8834 6.3194-2.5411 1.6352-1.6352 2.1436-3.9331 2.1436-5.7889 0-.575-.044-1.1048-.1329-1.5469zm15.1955 7.579c-1.7681 0-3.2929-1.4584-3.2929-3.5355 0-2.0992 1.5248-3.5355 3.2929-3.5355 1.7673 0 3.2921 1.4363 3.2921 3.5355 0 2.0771-1.5248 3.5355-3.2921 3.5355zm0-9.3689c-3.2265 0-5.8561 2.4527-5.8561 5.8334 0 3.3587 2.6296 5.8334 5.8561 5.8334 3.2257 0 5.8553-2.4747 5.8553-5.8334 0-3.3807-2.6296-5.8334-5.8553-5.8334zm12.7736 9.3689c-1.7674 0-3.2923-1.4584-3.2923-3.5355 0-2.0992 1.5249-3.5355 3.2923-3.5355 1.7675 0 3.2923 1.4363 3.2923 3.5355 0 2.0771-1.5248 3.5355-3.2923 3.5355zm0-9.3689c-3.2263 0-5.8553 2.4527-5.8553 5.8334 0 3.3587 2.629 5.8334 5.8553 5.8334 3.2259 0 5.8555-2.4747 5.8555-5.8334 0-3.3807-2.6296-5.8334-5.8555-5.8334z" fill="#fff"/></mask><path d="m7.83105 60.0632h169.95995c4.088 0 7.434-3.3452 7.434-7.4334v-44.99997c0-4.08818-3.346-7.433343-7.434-7.433343h-169.95995c-4.08818 0-7.433329 3.345163-7.433329 7.433343v44.99997c0 4.0882 3.345149 7.4334 7.433329 7.4334z" fill="#f5516c" stroke="#fff" stroke-width=".133333"/><g fill="#fff"><path clip-rule="evenodd" d="m97.5529 15.8643c.0011.9797.3079 1.7652.9215 2.3896.6193.6243 1.3589.9306 2.2556.9323.895-.0017 1.636-.308 2.254-.9323.615-.6244.922-1.4099.923-2.3896-.001-.9797-.308-1.7651-.923-2.3896-.618-.6243-1.359-.9305-2.254-.9323-.8967.0018-1.6363.308-2.2556.9323-.6136.6245-.9204 1.4099-.9215 2.3896zm7.7821 0c.001 1.3007-.442 2.4178-1.319 3.3184-.878.9047-1.985 1.3608-3.286 1.3596-1.3023.0012-2.4098-.4549-3.2856-1.3596l.0039.0047-.0039-.0041c-.8786-.9012-1.3205-2.0183-1.3194-3.319-.0011-1.3007.4408-2.4178 1.3194-3.319v.0006c.8758-.9046 1.9833-1.3617 3.2856-1.3601 1.295-.0016 2.399.4576 3.28 1.3657.881.9047 1.326 2.0195 1.325 3.3128zm-40.5831.8843c-.0818.6502-.3074 1.1475-.6692 1.511-.6215.6192-1.3843.9249-2.3217.9266-.8798-.0012-1.6262-.3041-2.2697-.9227-.6374-.6165-.9544-1.4036-.956-2.3992.0016-.9956.3186-1.7827.956-2.3992.6435-.6186 1.3899-.9215 2.2697-.9227.9781.0023 1.7167.3255 2.2653.9781l.1017.121.8741-.8753.0938-.0937-.0854-.1013c-.3554-.4237-.8288-.76-1.4109-1.0097-.5831-.2503-1.1984-.3758-1.8386-.3758-1.286-.0011-2.3957.4509-3.2959 1.3454-.9035.8928-1.3588 2.015-1.3577 3.3332-.0011 1.3176.4542 2.4404 1.3583 3.3338.8996.8939 2.0093 1.3453 3.2953 1.3442 1.3391.0011 2.45-.4437 3.2931-1.3291.7477-.7484 1.1187-1.759 1.1177-2.9968 0-.2199-.0204-.4458-.0628-.6809l-.0214-.1187h-4.4713v1.1871.1447zm8.0886-5.2237v1.0662.1447h-3.9525v2.4625h3.5644v.1447 1.1875h-3.5644v2.4626h3.9525v.1446 1.2109h-5.356v-8.9683h5.356zm4.7016 1.2109v7.4681.1447h-.1447-1.2606v-7.6128h-2.4241v-.1447-1.2108h6.2534v.1446 1.2109zm7.7088 7.6128h-1.1148-.1447v-8.9683h.1447 1.2594v8.9683zm5.092-7.6128v7.4681.1447h-.1446-1.2607v-7.6128h-2.4239v-.1447-1.2108h6.2533v.1446 1.2109zm21.8781 5.0922-4.028-6.4477h-1.438-.144v8.9683h.144 1.115.144v-5.5527l-.035-1.2213 4.223 6.774h1.245.144v-8.9683h-1.26-.145v5.2255z" fill-rule="evenodd"/><path d="m98.4744 18.2539-.0946.0939-.0005-.0004zm-.9215-2.3896-.1334.0002v-.0003zm3.1771 3.3219v.1333h-.001zm2.254-.9323.095.0936v.0002zm.923-2.3896.133-.0001v.0003zm-.923-2.3896.095-.0938v.0003zm-2.254-.9323-.001-.1333h.001zm-2.2556.9323-.0951-.0935.0005-.0004zm5.5416 5.708-.096-.0928v-.0002zm1.319-3.3184-.133.0001v-.0002zm-4.605 4.678-.001-.1333h.001zm-3.2856-1.3596-.1019.086.1977-.1787zm.0039.0047.1019-.086-.1979.1785zm-.0039-.0041.0954-.0931.0006.0006zm-1.3194-3.319.1334-.0001v.0002zm1.3194-3.319-.0955-.0931.2288-.2346v.3277zm0 .0006.0958.0927-.2292.2367v-.3294zm3.2856-1.3601v.1333h-.001zm3.28 1.3657-.095.0931-.001-.0002zm-39.9273 5.7081.0945.094-.0004.0004zm.6692-1.511v-.1334h.1512l-.0189.15zm-2.9909 2.4376.0002.1333h-.0004zm-2.2697-.9227-.0925.0961-.0002-.0003zm-.956-2.3992-.1334.0002v-.0004zm.956-2.3992-.0927-.0958.0002-.0003zm2.2697-.9227-.0002-.1333h.0005zm2.2653.9781-.102.0859v-.0001zm.1017.121.0944.0942-.1028.1029-.0936-.1113zm.8741-.8753-.0943-.0942v-.0001zm.0938-.0937.1019-.086.0789.0937-.0866.0865zm-.0854-.1013-.1019.0859-.0002-.0002zm-1.4109-1.0097-.0526.1226zm-1.8386-.3758v.1334h-.0002zm-3.2959 1.3454.094.0946-.0003.0003zm-1.3577 3.3332.1334-.0001v.0002zm1.3583 3.3338.0937-.0949.0003.0003zm3.2953 1.3442-.0002-.1333h.0003zm3.2931-1.3291-.0966-.0919.0022-.0023zm1.1177-2.9968-.1334.0001v-.0001zm-.0628-.6809-.1312.0237zm-.0214-.1187v-.1334h.1114l.0198.1097zm-4.4713 0h-.1333v-.1334h.1333zm0 1.3318v.1333h-.1333v-.1333zm11.2242-4.0128h.1333v.1333h-.1333zm-3.9525 0h-.1333v-.1333h.1333zm0 2.4625v.1333h-.1333v-.1333zm3.5644 0v-.1333h.1333v.1333zm0 1.3322h.1333v.1334h-.1333zm-3.5644 0h-.1333v-.1333h.1333zm0 2.4626v.1333h-.1333v-.1333zm3.9525 0v-.1334h.1333v.1334zm0 1.3555h.1333v.1333h-.1333zm-5.356 0v.1333h-.1333v-.1333zm0-8.9683h-.1333v-.1334h.1333zm5.356 0v-.1334h.1333v.1334zm4.7016 1.3555h-.1334v-.1333h.1334zm0 7.6128h.1333v.1333h-.1333zm-1.4053 0v.1333h-.1334v-.1333zm0-7.6128v-.1333h.1333v.1333zm-2.4241 0v.1333h-.1333v-.1333zm0-1.3555h-.1333v-.1334h.1333zm6.2534 0v-.1334h.1333v.1334zm0 1.3555h.1333v.1333h-.1333zm4.0253 7.6128v.1333h-.1333v-.1333zm0-8.9683h-.1333v-.1334h.1333zm1.4041 0v-.1334h.1334v.1334zm0 8.9683h.1334v.1333h-.1334zm4.9474-7.6128h-.1333v-.1333h.1333zm0 7.6128h.1333v.1333h-.1333zm-1.4053 0v.1333h-.1333v-.1333zm0-7.6128v-.1333h.1334v.1333zm-2.4239 0v.1333h-.1333v-.1333zm0-1.3555h-.1333v-.1334h.1333zm6.2533 0v-.1334h.1333v.1334zm0 1.3555h.1333v.1333h-.1333zm19.454 5.0922.133-.0038.014.4914-.26-.4169zm-4.028-6.4477v-.1333h.074l.039.0626zm-1.582 0h-.134v-.1333h.134zm0 8.9683v.1333h-.134v-.1333zm1.403 0h.134v.1333h-.134zm0-5.5527.134-.0038v.0038zm-.035-1.2213-.133.0038-.014-.4922.26.4179zm4.223 6.774v.1333h-.074l-.039-.0628zm1.389 0h.134v.1333h-.134zm0-8.9683v-.1333h.134v.1333zm-1.405 0h-.133v-.1333h.133zm0 5.2255-.133.0038v-.0038zm-13.8067 1.7416c-.6406-.652-.9586-1.4722-.9598-2.4829l.2667-.0003c.0011.9487.2968 1.6994.8833 2.2963zm2.3497.9721c-.9308-.0018-1.7045-.3217-2.3492-.9717l.1893-.1878c.5938.5987 1.2992.8912 2.1609.8929zm2.35-.9718c-.643.6502-1.419.97-2.349.9718l-.001-.2666c.861-.0017 1.568-.2943 2.16-.8927zm.961-2.4832c-.001 1.0107-.319 1.831-.961 2.483l-.19-.1871c.588-.5969.883-1.3476.884-2.2962zm-.961-2.4833c.642.652.96 1.4722.961 2.483l-.267.0003c-.001-.9487-.296-1.6994-.884-2.2963zm-2.349-.9721c.93.0018 1.706.3217 2.349.9718l-.19.1876c-.592-.5985-1.299-.8911-2.16-.8927zm-2.3502.9717c.6447-.65 1.4184-.9699 2.3492-.9717l.001.2667c-.8617.0016-1.5671.2941-2.1609.8928zm-.9603 2.4834c.0012-1.0108.3192-1.831.9598-2.483l.1902.1869c-.5865.597-.8822 1.3477-.8833 2.2964zm6.5005 3.2255c.852-.8747 1.283-1.9579 1.282-3.2253l.267-.0002c.001 1.3341-.456 2.485-1.358 3.4115zm-3.19 1.3193c1.266.0011 2.339-.4415 3.19-1.3191l.192.1857c-.904.9316-2.047 1.4012-3.383 1.4zm-3.1898-1.319c.8496.8775 1.9219 1.3201 3.1888 1.319l.001.2666c-1.3367.0012-2.4793-.4684-3.3814-1.4001zm-.1938.1833-.0039-.0046.2038-.1719.0039.0046zm.194-.1825.0039.004-.192.1851-.0039-.0041zm-1.282-3.2264c-.0012 1.2675.4282 2.3507 1.2814 3.2258l-.1909.1862c-.904-.9272-1.3584-2.0782-1.3572-3.4122zm1.2814-3.226c-.8532.8752-1.2826 1.9584-1.2814 3.2258l-.2667.0002c-.0012-1.3339.4532-2.485 1.3572-3.4122zm-.2288-.0925v-.0006h.2667v.0006zm3.418-1.2268c-1.2669-.0016-2.3392.442-3.1888 1.3195l-.1916-.1854c.9021-.9318 2.0446-1.4024 3.3814-1.4008zm3.185 1.3253c-.855-.8815-1.924-1.3269-3.184-1.3253l-.001-.2667c1.331-.0016 2.47.4715 3.377 1.4063zm1.288 3.2198c.001-1.2595-.432-2.3406-1.287-3.2196l.191-.1861c.905.9303 1.364 2.0788 1.363 3.4059zm-41.2138 2.3013c.3366-.3381.5524-.8057.6315-1.4336l.2645.0333c-.0847.6727-.3199 1.1997-.707 1.5884zm-2.2275.8874c.9048-.0017 1.633-.2951 2.2279-.8878l.1882.1889c-.6481.6458-1.4454.9637-2.4156.9655zm-2.177-.8856c.6191.5952 1.3325.8844 2.1774.8856l-.0003.2666c-.9146-.0012-1.694-.3177-2.362-.9599zm-.9151-2.3032c.0015.9639.3069 1.7149.9154 2.3035l-.1854.1917c-.6662-.6444-.995-1.4674-.9967-2.4948zm.9154-2.3031c-.6085.5886-.9139 1.3397-.9154 2.3035l-.2667-.0004c.0017-1.0274.3305-1.8504.9967-2.4948zm2.1771-.8852c-.8449.0011-1.5583.2903-2.1774.8855l-.1849-.1923c.668-.6422 1.4474-.9587 2.362-.9599zm2.1632.9305c-.52-.6185-1.2191-.9283-2.1637-.9305l.0007-.2667c1.0116.0024 1.7897.3388 2.3671 1.0256zm.1017.121-.1017-.1209.2041-.1717.1017.121zm1.0705-.8669-.8741.8753-.1887-.1885.8741-.8752zm.0936-.0937-.0937.0938-.1886-.1886.0938-.0937zm-.0776-.2814.0853.1012-.2039.1719-.0853-.1013zm-1.4603-1.0463c.5979.2565 1.0895.6043 1.4605 1.0465l-.2043.1714c-.3399-.4052-.7952-.73-1.3614-.9728zm-1.8912-.3866c.658 0 1.2913.129 1.8912.3866l-.1052.2451c-.5663-.2432-1.1637-.365-1.786-.365zm-3.3899 1.3842c.9256-.9199 2.0694-1.3854 3.39-1.3842l-.0003.2667c-1.2513-.0011-2.327.4374-3.2017 1.3066zm-1.397 3.4278c-.0012-1.3521.4672-2.5091 1.3973-3.4281l.1874.1897c-.8769.8665-1.3192 1.954-1.318 3.2382zm1.3979 3.4285c-.9307-.9196-1.3991-2.0771-1.3979-3.4287l.2667.0002c-.0012 1.2837.4411 2.3717 1.3186 3.2388zm3.3891 1.3827c-1.3205.0012-2.4643-.4637-3.3894-1.383l.188-.1891c.874.8686 1.9498 1.3066 3.2011 1.3055zm3.3895-1.3704c-.871.9148-2.0183 1.3716-3.3898 1.3704l.0003-.2666c1.3069.0011 2.3814-.4317 3.1964-1.2877zm1.1545-3.0889c.001 1.2658-.3792 2.3129-1.1567 3.0912l-.1887-.1885c.718-.7187 1.0797-1.6928 1.0787-2.9025zm-.0649-.7044c.0437.2424.0649.4763.0649.7045h-.2667c0-.2116-.0196-.4296-.0606-.6572zm-.0214-.1188.0214.1188-.2624.0473-.0214-.1188zm-4.6025-.1097h4.4713v.2667h-4.4713zm-.1333 1.3205v-1.1871h.2666v1.1871zm0 .1447v-.1447h.2666v.1447zm3.2689.1333h-3.1356v-.2667h3.1356zm7.9552-4.2908v-1.0662h.2667v1.0662zm0 .1447v-.1447h.2667v.1447zm-3.8191-.1333h3.9525v.2666h-3.9525zm-.1333 2.5958v-2.4625h.2667v2.4625zm3.6977.1333h-3.5644v-.2666h3.5644zm-.1334.0114v-.1447h.2667v.1447zm0 1.1875v-1.1875h.2667v1.1875zm-3.431-.1333h3.5644v.2667h-3.5644zm-.1333 2.5959v-2.4626h.2667v2.4626zm4.0858.1333h-3.9525v-.2667h3.9525zm-.1334.0113v-.1446h.2667v.1446zm0 1.2109v-1.2109h.2667v1.2109zm-5.2226-.1334h5.356v.2667h-5.356zm.1333-8.8349v8.9683h-.2666v-8.9683zm5.2227.1333h-5.356v-.2667h5.356zm-.1334.0113v-.1446h.2667v.1446zm4.7016 8.679v-7.4681h.2667v7.4681zm0 .1447v-.1447h.2667v.1447zm-.0113-.1334h.1447v.2667h-.1447zm-1.2606 0h1.2606v.2667h-1.2606zm.1333-7.4794v7.6128h-.2667v-7.6128zm-2.5574-.1333h2.4241v.2666h-2.4241zm.1334-.0114v.1447h-.2667v-.1447zm0-1.2108v1.2108h-.2667v-1.2108zm6.12.1333h-6.2534v-.2667h6.2534zm-.1333.0113v-.1446h.2666v.1446zm0 1.2109v-1.2109h.2666v1.2109zm-2.2907-.1333h2.424v.2666h-2.424zm6.594 7.6127h1.1148v.2667h-1.1148zm-.1447 0h.1447v.2667h-.1447zm.1334-8.8349v8.9683h-.2667v-8.9683zm.0113.1333h-.1447v-.2667h.1447zm1.2594 0h-1.2594v-.2667h1.2594zm-.1333 8.835v-8.9683h.2667v8.9683zm-.0113-.1334h.1446v.2667h-.1446zm4.9587-.0113v-7.4681h.2666v7.4681zm0 .1447v-.1447h.2666v.1447zm-.0113-.1334h.1446v.2667h-.1446zm-1.2607 0h1.2607v.2667h-1.2607zm.1334-7.4794v7.6128h-.2667v-7.6128zm-2.5573-.1333h2.4239v.2666h-2.4239zm.1334-.0114v.1447h-.2667v-.1447zm0-1.2108v1.2108h-.2667v-1.2108zm6.1199.1333h-6.2533v-.2667h6.2533zm-.1334.0113v-.1446h.2667v.1446zm0 1.2109v-1.2109h.2667v1.2109zm-2.2907-.1333h2.4241v.2666h-2.4241zm21.7651 5.2962-4.028-6.4478.226-.1413 4.028 6.4478zm-3.915-6.3851h-1.438v-.2666h1.438zm-1.438 0h-.144v-.2666h.144zm-.011-.1333v8.9683h-.267v-8.9683zm-.133 8.835h.144v.2666h-.144zm.144 0h1.115v.2666h-1.115zm1.115 0h.144v.2666h-.144zm.011.1333v-5.5527h.267v5.5527zm0-5.5489-.035-1.2213.267-.0076.035 1.2213zm.211-1.2956 4.224 6.7739-.227.1411-4.223-6.774zm4.11 6.7112h1.245v.2666h-1.245zm1.245 0h.144v.2666h-.144zm.011.1333v-8.9683h.267v8.9683zm.133-8.835h-1.26v-.2666h1.26zm-1.26 0h-.145v-.2666h.145zm-.012-.1333v5.2255h-.266v-5.2255zm0 5.2216.035 1.2223-.266.0077-.035-1.2223z" mask="url(#b)"/><path d="m147.247 45.6533h2.559v-17.1462h-2.559zm23.052-10.9697-2.934 7.4337h-.088l-3.044-7.4337h-2.757l4.566 10.39-2.604 5.7793h2.671l7.036-16.1693zm-14.514 9.0222c-.839 0-2.008-.419-2.008-1.4562 0-1.3234 1.457-1.8307 2.713-1.8307 1.126 0 1.654.2426 2.339.5738-.199 1.588-1.567 2.7131-3.044 2.7131zm.309-9.3974c-1.853 0-3.772.8165-4.566 2.6253l2.271.9483c.486-.9483 1.389-1.2574 2.339-1.2574 1.323 0 2.669.7945 2.691 2.2063v.1762c-.464-.2647-1.456-.6616-2.669-.6616-2.449 0-4.942 1.3452-4.942 3.8601 0 2.2942 2.008 3.7724 4.257 3.7724 1.721 0 2.669-.7721 3.266-1.6764h.088v1.3233h2.47v-6.5739c0-3.0436-2.272-4.7426-5.205-4.7426zm-15.817 2.4624h-3.64v-5.8773h3.64c1.913 0 2.999 1.5842 2.999 2.9386 0 1.3288-1.086 2.9387-2.999 2.9387zm-.066-8.2637h-6.132v17.1462h2.558v-6.4961h3.574c2.836 0 5.625-2.0537 5.625-5.3251 0-3.2713-2.789-5.325-5.625-5.325zm-33.44 15.2019c-1.768 0-3.248-1.4803-3.248-3.5135 0-2.0546 1.48-3.5575 3.248-3.5575 1.746 0 3.115 1.5029 3.115 3.5575 0 2.0332-1.369 3.5135-3.115 3.5135zm2.939-8.0653h-.089c-.574-.6849-1.679-1.3036-3.071-1.3036-2.917 0-5.59 2.5631-5.59 5.8554 0 3.2703 2.673 5.8114 5.59 5.8114 1.392 0 2.497-.6188 3.071-1.3255h.089v.8396c0 2.232-1.193 3.4252-3.116 3.4252-1.569 0-2.541-1.1273-2.939-2.0773l-2.231.928c.64 1.5467 2.342 3.4472 5.17 3.4472 3.005 0 5.546-1.7681 5.546-6.0767v-10.4737h-2.43zm4.198 10.0096h2.563v-17.1467h-2.563zm6.342-5.6566c-.067-2.254 1.745-3.4027 3.049-3.4027 1.017 0 1.878.5079 2.165 1.2377zm7.954-1.9443c-.485-1.3041-1.966-3.7123-4.994-3.7123-3.005 0-5.501 2.3643-5.501 5.8334 0 3.2704 2.474 5.8334 5.789 5.8334 2.674 0 4.221-1.6352 4.861-2.5851l-1.988-1.326c-.663.9724-1.569 1.6132-2.873 1.6132s-2.232-.5968-2.829-1.7675l7.8-3.2264zm-62.1427-1.9224v2.4747h5.9218c-.1768 1.392-.6408 2.4083-1.348 3.1155-.8615.8621-2.2095 1.812-4.5738 1.812-3.646 0-6.4962-2.9387-6.4962-6.5846s2.8502-6.585 6.4962-6.585c1.9667 0 3.4026.7736 4.4634 1.7679l1.7456-1.7454c-1.4804-1.4145-3.4472-2.4972-6.209-2.4972-4.9939 0-9.1922 4.0658-9.1922 9.0597s4.1983 9.0593 9.1922 9.0593c2.696 0 4.7287-.8834 6.3194-2.5411 1.6352-1.6352 2.1436-3.9331 2.1436-5.7889 0-.575-.044-1.1048-.1329-1.5469zm15.1955 7.579c-1.7681 0-3.2929-1.4584-3.2929-3.5355 0-2.0992 1.5248-3.5355 3.2929-3.5355 1.7673 0 3.2921 1.4363 3.2921 3.5355 0 2.0771-1.5248 3.5355-3.2921 3.5355zm0-9.3689c-3.2265 0-5.8561 2.4527-5.8561 5.8334 0 3.3587 2.6296 5.8334 5.8561 5.8334 3.2257 0 5.8553-2.4747 5.8553-5.8334 0-3.3807-2.6296-5.8334-5.8553-5.8334zm12.7736 9.3689c-1.7674 0-3.2923-1.4584-3.2923-3.5355 0-2.0992 1.5249-3.5355 3.2923-3.5355 1.7675 0 3.2923 1.4363 3.2923 3.5355 0 2.0771-1.5248 3.5355-3.2923 3.5355zm0-9.3689c-3.2263 0-5.8553 2.4527-5.8553 5.8334 0 3.3587 2.629 5.8334 5.8553 5.8334 3.2259 0 5.8555-2.4747 5.8555-5.8334 0-3.3807-2.6296-5.8334-5.8555-5.8334z" mask="url(#c)" stroke="#fff" stroke-width=".266667"/></g><g clip-path="url(#a)"><path clip-rule="evenodd" d="m15.1144 47.6298c.1468-.0553.3008-.1251.4596-.2118l21.0944-11.5471-4.9986-4.9938zm22.4902-12.2691-5.2177-5.2104 5.2129-5.2754 7.1766 3.9156c1.7689.9651.864 2.1708 0 2.6425zm-.9386-10.9936-21.0896-11.5062c-.2262-.1228-.4813-.1974-.7364-.2311l16.8249 16.8009zm-23.063-11.5303 17.3448 17.3183-17.263 17.4699c-.503-.3201-.7749-1.0132-.7773-1.9085-.0097-1.7159-.1468-28.9617-.1565-31.0049-.0048-.9819.3514-1.5788.852-1.8748z" fill="#fff" fill-rule="evenodd"/></g></svg>