<svg fill="none" height="306" viewBox="0 0 500 306" width="500" xmlns="http://www.w3.org/2000/svg"><path d="m328.838 159.027c3.421 0 6.194-2.774 6.194-6.195s-2.773-6.195-6.194-6.195c-3.422 0-6.195 2.774-6.195 6.195s2.773 6.195 6.195 6.195z" fill="#f5516c"/><path d="m270.407 55.5647c2.184 0 3.954-1.7703 3.954-3.954s-1.77-3.954-3.954-3.954-3.954 1.7703-3.954 3.954 1.77 3.954 3.954 3.954z" fill="#f5516c"/><path d="m328.838 258.007c2.183 0 3.953-1.77 3.953-3.954 0-2.183-1.77-3.954-3.953-3.954-2.184 0-3.954 1.771-3.954 3.954 0 2.184 1.77 3.954 3.954 3.954z" fill="#f5516c"/><path d="m358.053 108.416c3.421 0 6.194-2.774 6.194-6.195 0-3.4209-2.773-6.1943-6.194-6.1943s-6.195 2.7734-6.195 6.1943c0 3.421 2.774 6.195 6.195 6.195z" fill="#f5516c"/><g stroke="#f5516c" stroke-miterlimit="10"><path d="m241.982 152.832h86.856l29.215-50.611 58.431-.044 29.215 50.611h54.301" stroke-width="8"/><path d="m416.484 102.221 27.589-50.6103h51.27" stroke-width="1.9437"/><path d="m241.191 1 29.216 50.6107-29.216 50.6103 29.216-50.6103h58.431l29.215-50.6107-29.215 50.6107 29.215 50.6103" stroke-width="2"/><path d="m182.717 203.443-29.216 50.61 29.216 50.611-29.216-50.611h-58.4303-.1318l-29.2153 50.611 29.2593-50.611-29.2154-50.61h-65.7675" stroke-width="2"/><path d="m95.0707 51.6107h58.4303l29.216 50.6103-29.216 50.611 29.216 50.611h58.474l29.216 50.61h58.431-58.431l-29.216 50.611" stroke-width="2"/><path d="m445.699 254.053-29.215-50.61h-58.431l-29.215 50.61 29.215 50.611-29.215-50.611 29.215-50.61-29.215-50.611" stroke-width="2"/></g><path d="m247.386 207.528h-134.962c-5.711 0-10.324-4.656-10.324-10.324v-88.744c0-5.711 4.657-10.3244 10.324-10.3244h134.918c5.711 0 10.324 4.6574 10.324 10.3244v88.7c.044 5.756-4.613 10.368-10.28 10.368z" fill="#f5516c"/><path d="m112.424 102.177c-3.47 0-6.282 2.812-6.282 6.283v88.7c0 3.471 2.812 6.283 6.282 6.283h134.918c3.471 0 6.282-2.812 6.282-6.283v-88.7c0-3.471-2.811-6.283-6.282-6.283z" fill="#063e62"/><g fill="#f5516c"><path d="m144.671 115.753c-9.402 0-17.09 7.688-17.09 17.09 0 9.401 7.688 17.09 17.09 17.09s17.09-7.689 17.09-17.09c.044-9.402-7.688-17.09-17.09-17.09zm0 5.535 6.985 11.643-6.985 4.173-7.029-4.173zm.088 23.153-7.029-9.885 7.029 4.174 6.985-4.174z"/><path d="m133.029 163.376c-9.402 0-17.09 7.688-17.09 17.09 0 9.401 7.688 17.09 17.09 17.09 9.401 0 17.09-7.689 17.09-17.09 0-9.402-7.689-17.09-17.09-17.09zm.044 27.722v-9.051c-.528.528-.967.967-1.494 1.494-.044.879-.176 3.295-.176 3.295l1.406 4.262c-.879 0-1.713-.132-2.504-.352l-.703-2.065-1.933.967c-.747-.44-1.45-.967-2.065-1.538l3.559-1.801.131-2.109-2.152.132-1.802 3.559c-.615-.616-1.142-1.318-1.581-2.065l.966-1.977-2.108-.703c-.22-.835-.352-1.67-.352-2.592l4.306 1.406 3.47-.132 1.45-1.45-1.45-1.45-3.47-.132-4.306 1.406c0-.878.132-1.757.352-2.548l2.152-.747-1.01-1.977c.439-.747.966-1.449 1.581-2.065l1.846 3.603 2.152.132-.131-2.109-3.603-1.845c.615-.615 1.318-1.142 2.065-1.582l1.977 1.011.747-2.109c.791-.22 1.669-.352 2.504-.352l-1.406 4.306s.132 2.416.176 3.295l1.494 1.494v-9.226c5.974 0 10.763 4.832 10.763 10.807-.088 5.975-4.92 10.808-10.851 10.808z"/><path d="m135.445 172.25v16.124c2.592-.571 6.195-3.603 6.063-8.304-.132-4.393-3.471-7.249-6.063-7.82z"/><path d="m181.399 163.64-.967 3.953c1.143.264 4.569 1.406 5.096-.834.572-2.329-3.031-2.856-4.129-3.119z"/><path d="m179.905 169.615-1.098 4.349c1.362.351 5.491 1.669 6.063-.791.659-2.592-3.647-3.251-4.965-3.558z"/><path d="m181.223 152.261c-9.402 0-17.09 7.688-17.09 17.09s7.688 17.09 17.09 17.09 17.09-7.688 17.09-17.09c.044-9.402-7.688-17.09-17.09-17.09zm8.216 14.542c-.308 1.757-1.275 2.592-2.549 2.899 1.758.923 2.68 2.329 1.846 4.789-1.055 3.031-3.603 3.295-6.986 2.68l-.834 3.295-1.977-.483.746-3.251c-.527-.132-1.01-.264-1.581-.396l-.835 3.251-1.977-.483.835-3.295-1.406-.351-2.548-.659 1.01-2.285s1.45.395 1.45.352c.571.131.791-.22.923-.484l2.196-8.874c.044-.44-.131-.923-.922-1.142.044 0-1.45-.352-1.45-.352l.527-2.109 2.724.703c.439.088.835.22 1.274.308l.791-3.251 1.977.483-.791 3.207c.527.132 1.098.22 1.582.395l.79-3.163 1.977.484-.79 3.251c2.504.834 4.349 2.108 3.998 4.481z"/><path d="m205.65 152.832c0 11.027 8.918 19.946 19.945 19.946h36.684v-39.935h-36.684c-11.027.044-19.945 8.962-19.945 19.989z"/></g><path d="m233.943 153.93c2.911 0 5.271-2.36 5.271-5.272 0-2.911-2.36-5.272-5.271-5.272-2.912 0-5.272 2.361-5.272 5.272 0 2.912 2.36 5.272 5.272 5.272z" fill="#063e62"/><path d="m235.304 163.683h-2.679c-.791 0-1.406-.702-1.275-1.449l1.275-10.544h2.723l1.274 10.544c.088.79-.527 1.449-1.318 1.449z" fill="#063e62"/><path d="m153.501 258.007c2.184 0 3.954-1.77 3.954-3.954 0-2.183-1.77-3.954-3.954-3.954-2.183 0-3.953 1.771-3.953 3.954 0 2.184 1.77 3.954 3.953 3.954z" fill="#f5516c"/><path d="m153.501 55.5647c2.184 0 3.954-1.7703 3.954-3.954s-1.77-3.954-3.954-3.954c-2.183 0-3.953 1.7703-3.953 3.954s1.77 3.954 3.953 3.954z" fill="#f5516c"/></svg>