<svg height="720pt" preserveAspectRatio="xMidYMid meet" viewBox="0 0 1280 720" width="1280pt" xmlns="http://www.w3.org/2000/svg"><g transform="matrix(.1 0 0 -.1 0 720)"><path d="m0 3600v-3600h2163c1669 0 2166 3 2175 12s12 9 12 0 946-12 4225-12h4225v3600 3600h-1859-1860l-4-32-4-33-1 33-2 32h-4535-4535zm9082 3388c2-64 0-114-4-111-5 2-8 59-7 126 1 151 7 142 11-15zm15-290c-3-8-6-5-6 6-1 11 2 17 5 13 3-3 4-12 1-19zm2226 7c-3-9-8-14-10-11-3 2-21-7-40-20-20-13-45-24-57-23-14 0-9 5 17 14 21 8 50 23 64 35 31 24 34 25 26 5zm-163-25c20-6 21-8 5-8-11 0-31 4-45 8-20 6-21 8-5 8 11 0 31-4 45-8zm-180-10c-12-8-12-12-2-18 9-6 7-13-10-28-17-14-19-15-9-2 7 9 10 22 6 28-8 13 2 30 18 30 7 0 6-4-3-10zm65 3c-11-3-26-10-32-15-9-7-13-7-13 0 0 13 18 21 45 20h20zm277-15c-7-7-12-8-12-2 0 14 12 26 19 19 2-3-1-11-7-17zm-10089-22c200-72 222-327 36-420-47-23-64-26-161-26h-108v45 45h83c130 0 192 45 192 138s-56 132-189 132h-86v43c0 24 3 47 7 50 12 12 187 6 226-7zm10107 4c0-5-5-10-11-10-5 0-7 5-4 10 3 6 8 10 11 10 2 0 4-4 4-10zm-449-31c-5-13-10-19-10-12-1 15 10 45 15 40 3-2 0-15-5-28zm1159 11c-14-10-27-17-29-14-6 5 31 33 44 33 6 1-1-8-15-19zm347-2c-3-8-6-5-6 6-1 11 2 17 5 13 3-3 4-12 1-19zm-180 6c-3-3-12-4-19-1-8 3-5 6 6 6 11 1 17-2 13-5zm-900-26c-3-8-6-5-6 6-1 11 2 17 5 13 3-3 4-12 1-19zm940 16c-3-3-12-4-19-1-8 3-5 6 6 6 11 1 17-2 13-5zm100-16c-3-8-6-5-6 6-1 11 2 17 5 13 3-3 4-12 1-19zm-1439-37c-12-22-24-38-26-37-5 5 22 60 33 68 17 13 16 9-7-31zm-1861 7c-3-8-6-5-6 6-1 11 2 17 5 13 3-3 4-12 1-19zm2250-10c-3-8-6-5-6 6-1 11 2 17 5 13 3-3 4-12 1-19zm-327-30c-19-5-42-19-52-30-10-12-21-19-23-16-12 11 57 58 83 57 25-1 24-2-8-11zm-8082-31c2-12-3-17-17-17-12 0-21 6-21 13 0 31 32 34 38 4zm767 2c0-8-10-15-22-17-25-4-33 22-10 31 18 8 32 2 32-14zm-855-79c0-88-1-90-24-90s-23 2-24 90c-1 89-1 90 23 90 25 0 25-1 25-90zm550 1v-89h-49c-55-1-72 12-73 55-2 62 27 93 66 71 13-7 16-4 16 22 0 23 4 30 20 30 19 0 20-7 20-89zm1730 59c0-27 2-30 19-20 42 22 71-16 71-91 0-35-3-39-25-39-23 0-25 4-25 44 0 46-16 69-31 45-5-8-9-31-9-51 0-33-3-38-23-38-21 0-22 3-23 90-1 88-1 90 22 90 20 0 24-5 24-30zm6141 21c-18-11 1-23 26-15 16 5 16 4 2-5-13-8-24-7-44 3-26 14-20 24 15 25 12 1 12-1 1-8zm129-1c0-5-4-10-10-10-5 0-10 5-10 10 0 6 5 10 10 10 6 0 10-4 10-10zm-9700-20c14-14 20-33 20-64 0-57-32-86-96-86h-44v85 85h50c37 0 55-5 70-20zm1928 3c-2-11-14-19-31-21-35-4-37-32-2-32 18 0 25-5 25-20s-7-20-25-20c-21 0-25-5-25-30s-4-30-25-30c-25 0-25 1-25 85v85h56c47 0 55-3 52-17zm1112-3c0-15-7-20-25-20-14 0-25-4-25-10 0-5 11-10 25-10 18 0 25-5 25-20s-7-20-25-20c-16 0-25-6-25-15s9-15 25-15c18 0 25-5 25-20 0-17-7-20-50-20h-50v85 85h50c43 0 50-3 50-20zm-2290-5c0-8 7-15 15-15s15-7 15-15-7-15-15-15c-10 0-15-10-15-30s5-30 15-30c8 0 15-9 15-20 0-15-7-20-29-20-16 0-33 6-39 13-17 21-20 100-4 125s42 30 42 7zm9697 9c-3-3-12-4-19-1-8 3-5 6 6 6 11 1 17-2 13-5zm-920-10c-3-3-12-4-19-1-8 3-5 6 6 6 11 1 17-2 13-5zm1203-15c0-6-4-7-10-4-5 3-10 11-10 16 0 6 5 7 10 4 6-3 10-11 10-16zm-10562-12c6-5 12-22 12-38 0-27-3-29-36-29-23 0-33-4-28-11 4-6 19-9 36-5 24 5 29 3 26-12-3-19-45-27-84-18-35 9-49 80-22 113 18 22 67 22 96 0zm162 4c-1-16-18-31-32-26-19 8-40-18-32-39 4-10 18-16 35-16 31 0 32-1 23-24-7-19-63-22-86-3-39 30-25 106 22 117 27 7 70 1 70-9zm148-9c6-9 12-26 12-39 0-20-5-23-41-23-27 0-38-4-33-11 3-6 19-9 35-5 24 5 29 2 29-14 0-17-7-20-44-20-35 0-48 5-60 22-17 24-21 65-8 85 20 32 86 35 110 5zm162 8c15-15 20-33 20-70 0-47-2-50-25-50s-25 4-25 43c0 24-3 47-7 50-14 14-33-17-33-54 0-34-3-39-23-39-21 0-23 4-24 66l-1 66 27-5c15-3 33-2 41 4 21 13 28 11 50-11zm273-9c-3-11-13-21-24-24-15-4-19-14-19-46 0-37-2-41-25-41-24 0-25 2-25 66v67l28-6c15-3 34-2 42 3 19 12 29 4 23-19zm141 8c5-4 10-32 10-61l1-53-57-2c-54-3-58-2-64 22-8 31 10 55 42 55 33 0 30 18-3 22s-34 20-1 29c25 7 58 2 72-12zm474-1c6-6 12-23 12-39 0-27-3-29-36-29-23 0-33-4-28-11 3-6 19-9 35-5 31 6 32 5 23-18-4-11-18-16-43-16-44 0-57 8-70 43-26 68 49 121 107 75zm650-62c3-54 2-56-23-56-23 0-25 3-25 51 0 66-24 62-28-4-3-42-6-47-28-47-23 0-24 3-24 65v64l35-1c19-1 38 2 42 5 3 4 16 1 27-7 16-10 22-26 24-70zm155 64c5-4 9-32 10-61l2-54h-60c-55 0-60 2-63 23-5 30 14 52 44 52 13 0 24 5 24 11 0 7-10 9-25 7-19-4-25-1-25 13 0 26 67 33 93 9zm167 0c15-15 20-33 20-70 0-47-2-50-25-50s-25 4-25 44c0 46-16 69-31 45-5-8-9-31-9-51 0-33-3-38-24-38-23 0-24 3-23 66 1 65 1 66 27 61 14-3 32-2 40 4 21 13 28 11 50-11zm168 5c1-1 0-9-4-18-4-12-13-15-29-11-18 4-25 1-30-15-8-27 1-41 29-41s36-8 29-26-63-18-87-1c-21 15-25 79-6 102 17 20 78 27 98 10zm140-7c6-6 12-23 12-39 0-27-3-29-36-29-23 0-33-4-28-11 3-6 19-9 35-5 31 6 32 5 23-18-4-11-18-16-43-16-44 0-57 8-69 40-25 70 48 124 106 78zm535-9c-4-14-11-17-28-13-18 4-25 1-30-15-9-29 1-41 35-41 23 0 27-3 23-20-6-24-58-28-87-7-20 15-24 63-7 94 19 36 103 38 94 2zm320 12c4-4 8-32 10-62l2-54h-60c-55 0-60 2-63 23-5 30 14 52 44 52 13 0 24 5 24 11 0 7-10 9-25 7-19-4-25-1-25 13 0 26 67 33 93 10zm167-1c15-15 20-33 20-70 0-47-2-50-25-50s-25 4-25 44c0 46-16 69-31 45-5-8-9-31-9-51 0-33-3-38-22-38-21 0-23 4-24 66v66l26-5c14-3 32-2 40 4 21 13 28 11 50-11zm190 3c2-2-1-7-7-11s-13-18-14-31c-3-17-14-28-39-37l-35-12 37-1c53-1 68-32 34-66-26-26-64-32-97-15-19 11-27 50-10 50 5 0 7 27 4 60-4 56-3 61 19 69 21 9 96 4 108-6zm138-11c6-9 12-26 12-39 0-20-5-23-41-23-27 0-38-4-33-11 3-6 19-9 35-5 24 5 29 2 29-14 0-17-7-20-44-20-35 0-48 5-60 22-17 24-21 65-8 85 20 32 86 35 110 5zm-2918-47c0-61-1-65-22-65-22 0-23 4-23 65s1 65 23 65c21 0 22-4 22-65zm140 49c0-9-9-28-21-42l-21-27 24-5c12-3 24-14 26-23 3-15-5-17-57-17-34 0-61 3-61 8 0 4 11 24 25 44 30 45 31 48 5 48-11 0-20 7-20 15 0 11 12 15 50 15 39 0 50-3 50-16zm630-49c0-63-1-65-25-65s-25 2-25 65 1 65 25 65 25-2 25-65zm1123 53c4-10 7-10 18 0 7 6 24 12 37 12h24l-21-33c-19-32-19-33-1-57 11-14 20-28 20-32 0-16-49-7-60 10-10 16-10 16-20 0-6-10-22-18-36-18h-26l20 34c20 33 20 33 0 65l-20 31h30c17 0 32-6 35-12zm6067 8c0-3-13-14-28-24-26-19-28-19-28-2 0 10 4 16 8 14 4-3 16 0 25 5 21 12 23 13 23 7zm1340 0c0-2-11-6-25-8-13-3-22-1-19 3 5 9 44 13 44 5zm99-3c23-6 23-7 5-14-28-11-53-10-29 2 17 8 16 9-7 6-15-2-25 0-22 4 6 11 20 11 53 2zm-952-55c-3-8-6-5-6 6-1 11 2 17 5 13 3-3 4-12 1-19zm-10489-13c-3-3-9 2-12 12-6 14-5 15 5 6 7-7 10-15 7-18zm9922-6c-7-11-14-18-17-15s0 12 7 21c18 21 23 19 10-6zm1061-12c-10-9-11-8-5 6 3 10 9 15 12 12s0-11-7-18zm-508-32c-7-21-13-19-13 6 0 11 4 18 10 14 5-3 7-12 3-20zm-23-24c0-10-9-21-20-24-19-5-19-4-2 19 21 29 22 29 22 5zm480-11c-6-12-14-20-17-17-2 3 1 14 8 26 7 11 15 18 17 16s-2-13-8-25zm583 15c-3-9-8-14-10-11-3 3-2 9 2 15 9 16 15 13 8-4zm-1640-15c-3-12-8-19-11-16-5 6 5 36 12 36 2 0 2-9-1-20zm140-7c-7-2-21-2-30 0-10 3-4 5 12 5 17 0 24-2 18-5zm457-13c0-5-5-10-11-10-5 0-7 5-4 10 3 6 8 10 11 10 2 0 4-4 4-10zm1030 6c0-3-4-8-10-11-5-3-10-1-10 4 0 6 5 11 10 11 6 0 10-2 10-4zm-3353-28c-3-8-6-5-6 6-1 11 2 17 5 13 3-3 4-12 1-19zm1768 12c-27-12-43-12-25 0 8 5 22 9 30 9 10 0 8-3-5-9zm105 0c0-5-4-10-10-10-5 0-10 5-10 10 0 6 5 10 10 10 6 0 10-4 10-10zm1510 0c0-5-5-10-11-10-5 0-7 5-4 10 3 6 8 10 11 10 2 0 4-4 4-10zm-1193-16c-3-3-12-4-19-1-8 3-5 6 6 6 11 1 17-2 13-5zm1123-14c-24-15-37-11-16 5 11 8 22 12 25 9s-1-9-9-14zm-332 3c-10-2-26-2-35 0-10 3-2 5 17 5s27-2 18-5zm-244-18c-4-8-8-15-10-15s-4 7-4 15 4 15 10 15c5 0 7-7 4-15zm66 1c0-2-7-7-16-10-8-3-12-2-9 4 6 10 25 14 25 6zm-2783-78c-3-8-6-5-6 6-1 11 2 17 5 13 3-3 4-12 1-19zm1678 0c112 4 115 3 115-18 0-12 5-31 11-42 8-15 8-19 0-14-7 5-11-8-11-41 1-46 1-47 17-28l16 20-9-20c-4-11-7-54-7-95 3-146 12-376 19-432l6-57-53-15c-29-9-58-16-65-16s-49-12-94-26c-44-15-83-24-86-21-3 2-1 85 4 183 5 99 7 196 5 216-3 21-2 46 2 55 15 35 26 310 14 343-3 8-4 13-2 10 1-3 55-3 118-2zm1060-13c89 0 90 0 91-25 1-14 5-79 8-145 4-66 8-140 10-165s7-114 10-198c3-85 9-158 12-164 13-20-23-28-128-28-67 0-108-4-108-10 0-7 56-10 158-10 86 1 162 1 169 1 8-1 13-24 15-63l3-63 48 1c27 0 47-4 47-10s0-203 0-438c0-340 2-428 12-428 9 0 9-3 2-8-5-4-10-18-10-32v-25h-879c-858 0-880 0-877 19 2 10-2 23-10 27-7 5-8 9-3 9 7 0 9 146 8 422-1 233 1 428 5 435 4 6 21 13 38 16 29 4 129 34 199 59 17 5 37 11 45 12 33 5 110 31 110 38 0 4 8 7 18 6 9 0 26 2 37 5 48 12 141 40 150 45 6 4 15 7 20 7 24 1 81 18 93 28 20 16 24 3 29-85 2-49 9-85 16-90 7-4 14-3 15 2 2 6 8 8 13 4 5-3 9 0 9 5 0 6-6 11-12 11-10 0-10 2 0 9 8 4 13 12 13 17-2 13 228 22 233 9 3-5 5-2 5 8 1 17 3 17 16 3 9-8 21-14 28-12 7 1 9 1 5-1-5-3-8-18-8-34 0-24 4-29 26-29 17 0 23 4 18 13-5 8-2 7 9-2 24-19 28-12 32 51 2 29 4 55 4 58 1 3 20 4 44 2l43-4 11 49c6 26 11 94 10 150-1 55 1 99 6 96 7-4 11 114 12 315 0 72-3 96-15 104s-12 9 3 4c9-3 17-1 17 4s-8 11-17 13c-13 4-12 5 5 6 12 0 26 9 29 18 5 13 8 14 12 2 5-11 27-14 96-14zm-2784-29c-14-36-22-33-9 5 6 16 12 28 14 26 3-2 0-16-5-31zm2916-33c-3-10-5-4-5 12 0 17 2 24 5 18 2-7 2-21 0-30zm-1036 4c-10-9-11-8-5 6 3 10 9 15 12 12s0-11-7-18zm756-19c-3-8-6-5-6 6-1 11 2 17 5 13 3-3 4-12 1-19zm2-78c0-10-3-8-9 5-12 27-12 43 0 25 5-8 9-22 9-30zm279 5c-3-3-9 2-12 12-6 14-5 15 5 6 7-7 10-15 7-18zm-2948-59c0-26-6-18-14 19-5 22-4 26 4 15 5-8 10-24 10-34zm2657 2c-3-8-6-5-6 6-1 11 2 17 5 13 3-3 4-12 1-19zm20 0c-3-8-6-5-6 6-1 11 2 17 5 13 3-3 4-12 1-19zm254-11c-10-9-11-8-5 6 3 10 9 15 12 12s0-11-7-18zm-2974-94c-3-10-5-4-5 12 0 17 2 24 5 18 2-7 2-21 0-30zm1960-5c-3-8-6-5-6 6-1 11 2 17 5 13 3-3 4-12 1-19zm1040 0c-3-8-6-5-6 6-1 11 2 17 5 13 3-3 4-12 1-19zm-10603-9c56-15 126-49 155-75 20-18 24-31 23-77-1-82-28-137-84-164-25-13-57-23-72-23-52 0-120-23-143-49-17-20-22-38-23-82 0-30 4-59 9-65 5-5 11-17 13-27 1-10 6-17 9-15 4 2 15-4 25-13 23-21 194-33 194-14 0 6 5 16 12 23 14 14 38 80 38 105 0 38 69 158 107 189 63 50 166 95 248 109 108 17 194 1 309-57 99-50 136-53 172-12 40 44 78 51 282 54 139 2 204-1 230-10 31-11 46-11 87 0 28 8 120 16 205 19 85 2 169 7 185 9 49 7 187-30 205-56 11-14 101-58 120-58 23 0 62 16 110 46 77 46 160 68 260 68 107-1 141-9 256-67 87-43 116-45 154-7 11 11 20 17 20 13 0-5 4-2 8 5 5 7 18 14 30 17 12 2 27 7 33 10 14 10 356 10 397 1 17-4 32-13 32-19 0-8 4-7 9 2 7 11 10 10 15-5 10-31 54-46 88-32 15 7 28 16 28 20 0 5 7 8 16 8s28 9 43 20c31 21 128 40 212 40 79 0 151-15 222-47 89-40 124-37 183 16 27 24 61 54 76 67 14 13 31 24 38 24 6 0 9 4 5 9-8 13 100 34 127 25 13-5 27-7 32-6 4 2 27-12 50-31 22-19 62-46 89-61 26-15 47-32 47-38 0-5 5-6 10-3 6 3 13 0 16-8 2-7 10-14 17-15s27-5 45-8c19-4 43-2 55 3 12 6 43 20 69 32 73 34 192 48 285 32 77-13 98-20 218-82 54-28 63-30 90-19 17 6 36 12 43 13 6 0 12 4 12 8 0 5 30 23 68 41 62 29 75 32 172 32 114 1 176-17 248-71l33-25-7-102c-5-83-3-111 11-151 35-102 42-147 30-205-11-55-40-118-60-132-5-3-30-21-55-40-25-18-61-39-80-46-46-18-290-29-290-13 0 6-4 11-10 11-15 0-118 49-124 59-9 13-88-9-106-30-3-3-32-16-65-29-49-20-77-24-165-24-107-1-238 23-263 48-16 16-45 27-84 33-24 3-53-6-110-33-66-32-89-38-151-40-105-3-176 18-269 82-45 31-84 27-119-12-13-14-24-22-24-18s-8 0-17-8c-29-25-106-36-285-43-114-5-179-3-205 5-60 17-143 63-148 82-3 9-12 19-20 22-13 4-31 39-65 121-5 11-12 46-15 78-5 48-10 57-26 57-11 0-22-7-25-15-4-8-12-15-20-15-7 0-17-12-20-27-7-30-29-112-40-153-4-14-18-39-31-56-12-17-23-36-23-42 0-7-3-11-7-10-5 1-19-4-33-12-38-22-189-18-206 4-7 10-15 17-18 17-20-3-27 0-22 8 3 4-12 16-34 26-43 19-40 20-151-42-61-35-142-53-236-53-105 0-165 16-269 71-41 21-84 39-96 39-11 0-47-18-79-40s-63-40-68-40-14-6-20-14c-7-8-24-17-39-20-88-21-140-42-164-67-16-15-28-31-28-34 0-4-9-19-19-34-11-15-23-39-26-52-11-43-59-64-145-62-41 1-82 3-90 5-23 5-54 31-59 48-3 8-14 44-26 80s-30 110-39 165-22 114-28 130c-5 17-15 49-21 73-8 34-15 42-33 42s-27-12-48-65c-14-36-26-72-26-80s-4-15-10-15c-5 0-10-7-10-16 0-8-4-12-10-9-5 3-10-3-10-15s-4-18-10-15c-5 3-10-1-10-10 0-11-5-15-15-11-8 3-18-1-22-8-5-7-33-17-63-22-75-13-162 9-208 52-40 37-61 35-158-15-34-17-81-38-105-46-59-21-201-22-272-1-52 15-125 51-137 67-7 9-72 43-95 49-13 4-28-3-46-21-108-111-343-137-508-57-78 38-158 114-190 180-12 26-22 50-21 53s-6 17-14 30c-34 52-28 365 7 365 6 0 8 3 4 6-11 11 58 124 106 173 51 52 127 95 206 116 58 17 181 18 235 4zm7576-104c0-5-5-3-10 5s-10 20-10 25c0 6 5 3 10-5s10-19 10-25zm-12-16c9-12 9-16-1-16-7 0-14 9-14 20-1 11-1 18 0 16 2-2 8-11 15-20zm-35-94c-3-9-8-14-10-11-3 3-2 9 2 15 9 16 15 13 8-4zm-13-31c0-3-7-12-15-20-16-17-18-14-9 10 6 15 24 23 24 10zm27-16c-3-8-6-5-6 6-1 11 2 17 5 13 3-3 4-12 1-19zm3060-50c-3-8-6-5-6 6-1 11 2 17 5 13 3-3 4-12 1-19zm-3117-8c0-5-2-10-4-10-3 0-8 5-11 10-3 6-1 10 4 10 6 0 11-4 11-10zm-10-31c0-6-4-7-10-4-5 3-10 11-10 16 0 6 5 7 10 4 6-3 10-11 10-16zm-38-61c-7-7-12-8-12-2 0 14 12 26 19 19 2-3-1-11-7-17zm31-3c-3-9-8-14-10-11-3 3-2 9 2 15 9 16 15 13 8-4zm2698-42c-12-20-14-14-5 12 4 9 9 14 11 11 3-2 0-13-6-23zm-2775-49c-4-9-9-15-11-12-3 3-3 13 1 22s9 15 11 12c3-3 3-13-1-22zm-18-49c-6-14-13-23-16-21-7 7 9 46 18 46 5 0 4-11-2-25zm3476-17c7-5 4-8-6-8s-18-4-18-10c0-5-5-10-12-10-9 0-9 3 0 12 7 7 12 21 13 33 0 14 2 16 6 5 3-8 11-18 17-22zm-7-90c-3-8-6-5-6 6-1 11 2 17 5 13 3-3 4-12 1-19zm-3546-35c-11-21-20-35-21-31 0 12 33 78 38 74 2-2-6-21-17-43zm-31-63c0-5-5-10-11-10-5 0-7 5-4 10 3 6 8 10 11 10 2 0 4-4 4-10zm-20-51c0-6-4-7-10-4-5 3-10 11-10 16 0 6 5 7 10 4 6-3 10-11 10-16zm-44-75c-4-9-9-15-11-12-3 3-3 13 1 22s9 15 11 12c3-3 3-13-1-22zm-35-51c-12-20-14-14-5 12 4 9 9 14 11 11 3-2 0-13-6-23zm-83-138c-6-14-13-23-15-21-5 5 15 46 22 46 3 0-1-11-7-25zm-34-81c3-8 2-12-4-9s-10 10-10 16c0 14 7 11 14-7zm-6142-17c-6-7-13-44-15-82l-3-70-2 76c-1 42 1 79 5 82 12 13 26 7 15-6zm6098-31c0-8-8-22-17-33-10-10-15-14-11-8 4 7 5 15 1 18-3 4-1 7 5 7 7 0 12 7 12 15s2 15 5 15 5-6 5-14zm-6883-18c-3-8-6-5-6 6-1 11 2 17 5 13 3-3 4-12 1-19zm136 2c-3-11-7-20-9-20s-4 9-4 20 4 20 9 20 7-9 4-20zm-480 3c-7-2-13-11-13-19s-4-14-9-14-7 9-4 20 13 20 22 19c10 0 11-2 4-6zm-226-55c-3-8-6-5-6 6-1 11 2 17 5 13 3-3 4-12 1-19zm556 2c3-11 1-20-4-20s-9 9-9 20 2 20 4 20 6-9 9-20zm-186-47c-3-10-5-4-5 12 0 17 2 24 5 18 2-7 2-21 0-30zm317 22c-4-8-8-15-10-15s-4 7-4 15 4 15 10 15c5 0 7-7 4-15zm-727-27c-3-8-6-5-6 6-1 11 2 17 5 13 3-3 4-12 1-19zm1380-30c-3-8-6-5-6 6-1 11 2 17 5 13 3-3 4-12 1-19zm150 0c-3-8-6-5-6 6-1 11 2 17 5 13 3-3 4-12 1-19zm-520 6c-3-3-12-4-19-1-8 3-5 6 6 6 11 1 17-2 13-5zm1413-4c0-5-4-10-10-10-5 0-10 5-10 10 0 6 5 10 10 10 6 0 10-4 10-10zm-1273-6c-3-3-12-4-19-1-8 3-5 6 6 6 11 1 17-2 13-5zm692 2c-2-2-22-6-44-9-27-4-35-3-25 3 14 9 79 15 69 6zm190-12c11-11-7-10-34 3l-30 14 30-6c16-4 32-9 34-11zm248 10c-3-3-12-4-19-1-8 3-5 6 6 6 11 1 17-2 13-5zm433 2c0-3-4-8-10-11-5-3-10-1-10 4 0 6 5 11 10 11 6 0 10-2 10-4zm205-6c-27-12-43-12-25 0 8 5 22 9 30 9 10 0 8-3-5-9zm152 4c-3-3-12-4-19-1-8 3-5 6 6 6 11 1 17-2 13-5zm160 0c-3-3-12-4-19-1-8 3-5 6 6 6 11 1 17-2 13-5zm126-1c-7-2-21-2-30 0-10 3-4 5 12 5 17 0 24-2 18-5zm354 1c-3-3-12-4-19-1-8 3-5 6 6 6 11 1 17-2 13-5zm3673-24c-12-16-24-30-26-30-7 0 5 20 24 43 24 27 25 20 2-13zm-7313-17c-3-10-5-4-5 12 0 17 2 24 5 18 2-7 2-21 0-30zm2137 9c-18-15-41-43-53-62-11-19-21-30-21-25 0 17 37 66 67 91 39 32 45 29 7-4zm293 2 28-26-30 20c-16 10-37 22-45 25-12 4-12 6 2 6 9 1 30-11 45-25zm616 6c9-11 13-20 7-20-5 0-14 9-20 20s-9 20-8 20c2 0 11-9 21-20zm292 0c17-18 17-20 2-14-9 3-17 10-17 15s-5 9-11 9-9-7-6-14c4-10 1-13-9-9-17 6-18 20-1 26 20 9 23 8 42-13zm244 7c-2-1-15-11-29-22l-25-20 19 23c11 12 24 22 29 22 6 0 8-1 6-3zm-2739-11c0-2-7-7-16-10-8-3-12-2-9 4 6 10 25 14 25 6zm326-48c14-22 24-41 22-43s-17 19-35 46c-17 27-27 47-22 43 5-3 21-24 35-46zm1634 42c0-5-5-10-11-10-5 0-7 5-4 10 3 6 8 10 11 10 2 0 4-4 4-10zm-1853-6c-3-3-12-4-19-1-8 3-5 6 6 6 11 1 17-2 13-5zm701-8c-7-8-15-12-17-11-5 6 10 25 20 25 5 0 4-6-3-14zm72 4c18-12 2-12-25 0-13 6-15 9-5 9 8 0 22-4 30-9zm1044 2c3-5-1-9-9-9s-12 4-9 9c3 4 7 8 9 8s6-4 9-8zm350-4c-3-4-11-5-19-1-21 7-19 12 4 10 11 0 18-5 15-9zm693 6c-3-3-12-4-19-1-8 3-5 6 6 6 11 1 17-2 13-5zm83-24c12-16 19-30 16-30-2 0-14 14-26 30-12 17-19 30-16 30 2 0 14-13 26-30zm-3763-12c-3-7-5-2-5 12s2 19 5 13c2-7 2-19 0-25zm236 17c-3-9-8-14-10-11-3 3-2 9 2 15 9 16 15 13 8-4zm2012 5c3-5 2-10-4-10-5 0-13 5-16 10-3 6-2 10 4 10 5 0 13-4 16-10zm460 0c-3-5-14-10-23-10-15 0-15 2-2 10 20 13 33 13 25 0zm-2567-41c-3-20-5-19-9 9-3 20-2 29 4 23 5-5 7-19 5-32zm332 37c0-3-4-8-10-11-5-3-10-1-10 4 0 6 5 11 10 11 6 0 10-2 10-4zm707-153c-2-32-3-8-3 52 0 61 1 87 3 58s2-78 0-110zm518 147c4-6 21-17 38-25l32-15-29 6c-17 3-35 11-40 19-6 7-18 15-26 18-12 4-12 6 2 6 9 1 20-4 23-9zm-1937-65c0-16-2-15-8 5-11 34-11 60 0 35 5-11 8-29 8-40zm723 32c-10-9-11-8-5 6 3 10 9 15 12 12s0-11-7-18zm1326 1c-3-8-6-5-6 6-1 11 2 17 5 13 3-3 4-12 1-19zm403-12c0-4-9-1-19 6-11 7-17 16-15 20 5 8 34-15 34-26zm823 27c-7-2-19-2-25 0-7 3-2 5 12 5s19-2 13-5zm-2243-23c-6-11-16-20-22-20s-3 9 7 20 20 20 22 20-1-9-7-20zm897 14c-3-3-12-4-19-1-8 3-5 6 6 6 11 1 17-2 13-5zm667-10c3-8 2-12-4-9s-10 10-10 16c0 14 7 11 14-7zm366 6c-8-5-22-10-30-10-13 0-13 1 0 10 8 5 22 10 30 10 13 0 13-1 0-10zm800-12c-11-12-21-31-21-42-1-18-2-18-6-3-5 20 21 67 38 67 5 0 1-10-11-22zm4077 8c13 0 18-5 13-10s-25-2-47 8c-21 9-27 14-13 10 14-3 35-7 47-8zm-4808-30c-3-3-11 5-18 17-13 21-12 21 5 5 10-10 16-20 13-22zm-2158 1c-10-9-11-8-5 6 3 10 9 15 12 12s0-11-7-18zm1164 13c3-6-1-7-9-4-18 7-21 14-7 14 6 0 13-4 16-10zm1303-11c8-12 9-18 3-15-5 4-12-6-14-21-3-23-4-22-6 9 0 20-7 39-13 41-9 4-8 6 2 6 8 1 21-8 28-20zm275-20c-8-28-12-23-11 12 1 17 4 25 8 18 4-6 5-20 3-30zm307-7c0-21-26 8-27 31-2 19-2 19 12 1 8-11 15-25 15-32zm-3243 16c-3-8-6-5-6 6-1 11 2 17 5 13 3-3 4-12 1-19zm492-42c-9-8-10-7-5 7 3 10 7 26 7 35 1 9 4 6 6-7 3-13-1-28-8-35zm-149 40c0-3-4-8-10-11-5-3-10-1-10 4 0 6 5 11 10 11 6 0 10-2 10-4zm287-28c-3-7-5-2-5 12s2 19 5 13c2-7 2-19 0-25zm490 0c-3-7-5-2-5 12s2 19 5 13c2-7 2-19 0-25zm56 17c-3-9-8-14-10-11-3 3-2 9 2 15 9 16 15 13 8-4zm1624-47c-2-13-4-3-4 22s2 35 4 23c2-13 2-33 0-45zm-3090 30c-3-8-6-5-6 6-1 11 2 17 5 13 3-3 4-12 1-19zm-238-33c0-5-4-3-9 5s-9 22-9 30c0 16 17-16 18-35zm148 13c-3-7-5-2-5 12s2 19 5 13c2-7 2-19 0-25zm30 10c-3-8-6-5-6 6-1 11 2 17 5 13 3-3 4-12 1-19zm3030 0c-3-8-6-5-6 6-1 11 2 17 5 13 3-3 4-12 1-19zm-2212 2c3-6-1-7-9-4-18 7-21 14-7 14 6 0 13-4 16-10zm2675 6c0-2-11-6-25-8-14-3-25-1-25 3 0 5 11 9 25 9s25-2 25-4zm-2963-38c-3-7-5-2-5 12s2 19 5 13c2-7 2-19 0-25zm980 10c-3-8-6-5-6 6-1 11 2 17 5 13 3-3 4-12 1-19zm320 0c-3-8-6-5-6 6-1 11 2 17 5 13 3-3 4-12 1-19zm890-10c-3-7-5-2-5 12s2 19 5 13c2-7 2-19 0-25zm540 10c-3-8-6-5-6 6-1 11 2 17 5 13 3-3 4-12 1-19zm160 0c-3-8-6-5-6 6-1 11 2 17 5 13 3-3 4-12 1-19zm-3350-10c-3-8-6-5-6 6-1 11 2 17 5 13 3-3 4-12 1-19zm110 0c-3-8-6-5-6 6-1 11 2 17 5 13 3-3 4-12 1-19zm58-18c-9-41-17-33-9 9 4 17 9 30 11 27 3-2 2-19-2-36zm442 34c-3-3-12-4-19-1-8 3-5 6 6 6 11 1 17-2 13-5zm2160-16c-3-8-6-5-6 6-1 11 2 17 5 13 3-3 4-12 1-19zm20 0c-3-8-6-5-6 6-1 11 2 17 5 13 3-3 4-12 1-19zm-1352-17c-6-5-25 10-25 20 0 5 6 4 14-3s12-15 11-17zm-1143-8c-3-16-7-22-10-15-4 13 4 42 11 42 2 0 2-12-1-27zm995-5c-3-8-6-5-6 6-1 11 2 17 5 13 3-3 4-12 1-19zm480-15c-3-10-5-4-5 12 0 17 2 24 5 18 2-7 2-21 0-30zm300 15c-3-8-6-5-6 6-1 11 2 17 5 13 3-3 4-12 1-19zm1120 0c-3-8-6-5-6 6-1 11 2 17 5 13 3-3 4-12 1-19zm-3290-25c-3-10-5-4-5 12 0 17 2 24 5 18 2-7 2-21 0-30zm-150 5c-3-8-6-5-6 6-1 11 2 17 5 13 3-3 4-12 1-19zm720 0c-3-8-6-5-6 6-1 11 2 17 5 13 3-3 4-12 1-19zm-350-20c-3-7-5-2-5 12s2 19 5 13c2-7 2-19 0-25zm788 22c-4-6-55-9-128-8l-122 2 125 6c69 3 126 7 128 8s0-2-3-8zm2725-2c0-10-239-9-262 0-10 4 45 7 122 7s140-3 140-7zm3969-43v-20l-9 20c-5 11-9 27-9 35-1 13 0 13 9 0 5-8 9-24 9-35zm-5656-40c12-8 17-15 11-15-23 0-60 61-46 75 4 4 8-5 10-19s13-33 25-41zm1392 55c3-5 1-10-4-10-6 0-11 5-11 10 0 6 2 10 4 10 3 0 8-4 11-10zm-2313-117c2-33 0-59-4-56-5 2-7 41-7 86 2 86 6 74 11-30zm761 81c-7-19-10-18-16 5-3 13-1 18 9 14 7-2 10-11 7-19zm419-13c-9-22-19-38-20-36-7 6 19 75 28 75 5 0 1-18-8-39zm3288 32c0-5-4-15-10-23-6-9-5-17 3-22s4-8-10-8c-27 0-29 12-7 31 14 12 14 14-3 20-16 7-15 8 5 8 12 1 22-2 22-6zm50 0c0-5-4-15-10-23-6-9-5-17 3-22s4-8-10-8c-27 0-29 12-7 31 14 12 14 14-3 20-16 7-15 8 5 8 12 1 22-2 22-6zm60-3c-13-8-12-10 3-10 19 0 23-25 6-36-6-3-16-1-22 5-9 9-8 11 6 6 10-4 17-2 17 4s-7 11-15 11-15 7-15 15 8 15 18 15c14 0 15-2 2-10zm62 3c-10-4-10-8 2-17 10-7 13-16 7-25-13-21-41-5-41 24 0 20 5 25 23 24 12 0 16-3 9-6zm87-17c-9-19-14-22-24-13-7 7-11 16-8 21 3 4 9 2 14-5 7-11 9-10 9 4 0 9 4 17 10 17s5-9-1-24zm1401-6c0-16-4-30-10-30-5 0-10 14-10 30 0 17 5 30 10 30 6 0 10-13 10-30zm220 5c0-22-4-25-40-25-32 0-40 4-40 18 0 26 9 32 47 32 29 0 33-3 33-25zm-6055-15c8-16 15-32 15-37 0-10-25 27-33 50-10 27 1 20 18-13zm748 10c-3-10-12-25-21-32-13-11-14-11-9 2 4 8 10 23 13 33 9 24 23 22 17-3zm1144-2c-3-8-6-5-6 6-1 11 2 17 5 13 3-3 4-12 1-19zm3913-1c0-16-6-23-20-23-25 0-27 33-2 39 9 3 18 5 20 6 1 0 2-9 2-22zm63 3c3-11 1-20-4-20s-9 9-9 20 2 20 4 20 6-9 9-20zm34-12c-3-7-5-2-5 12s2 19 5 13c2-7 2-19 0-25zm33 12c0-11-4-20-10-20-5 0-10 9-10 20s5 20 10 20c6 0 10-9 10-20zm-6773-12c-3-8-6-5-6 6-1 11 2 17 5 13 3-3 4-12 1-19zm183-8c7 0 11-3 7-6-10-10-45 6-52 23-5 15-4 15 13 0 10-9 25-17 32-17zm841 3c15-6 35-10 45-9 11 2 13 1 7-1-7-3-13-9-13-14s-10-4-22 2c-13 7-29 15-37 19-8 3-17 13-19 21s0 10 5 4c4-6 20-16 34-22zm-1377 2c-4-8-8-15-10-15s-4 7-4 15 4 15 10 15c5 0 7-7 4-15zm746 0c-7-9-15-13-19-10-3 3 1 10 9 15 21 14 24 12 10-5zm6196-12c-10-10-19 5-10 18 6 11 8 11 12 0 2-7 1-15-2-18zm-5399-30c-3-10-5-2-5 17s2 27 5 18c2-10 2-26 0-35zm1888 27c3-5-1-10-10-10s-13 5-10 10c3 6 8 10 10 10s7-4 10-10zm53-15c-3-3-9 2-12 12-6 14-5 15 5 6 7-7 10-15 7-18zm-3942-22c-11-11-17 4-9 23 7 18 8 18 11 1 2-10 1-21-2-24zm1081 31c-3-3-12-4-19-1-8 3-5 6 6 6 11 1 17-2 13-5zm2693 2c0-2-11-6-25-8-13-3-22-1-19 3 5 9 44 13 44 5zm40 0c0-2-7-7-16-10-8-3-12-2-9 4 6 10 25 14 25 6zm-2683-12c-3-3-12-4-19-1-8 3-5 6 6 6 11 1 17-2 13-5zm1123-4c0-5-5-10-11-10-5 0-7 5-4 10 3 6 8 10 11 10 2 0 4-4 4-10zm-1390-4c0-2-7-7-16-10-8-3-12-2-9 4 6 10 25 14 25 6zm1376-74c-6-5-79 42-95 61-7 9 12 0 43-20 30-20 54-39 52-41zm1349 68c-3-5 9-19 27-30s26-20 17-20c-19 0-62 44-52 53 10 10 15 8 8-3zm-1863-40c6 0 8-3 5-6-8-8-57 23-57 36 0 6 9 1 20-10s25-20 32-20zm2213 31c3-5 1-12-5-16-5-3-10 1-10 9 0 18 6 21 15 7zm-3035-21c-13-8-13-10-1-10 8 0 12-2 9-5s-13-3-22 1c-15 6-15 7 1 19 10 8 20 11 23 9 2-3-2-9-10-14zm1575 0c-10-11-25-20-33-20-9 0-6 7 9 20 31 25 47 26 24 0zm-1909-35c-3-8-13-15-21-15-9 0-13 5-10 10 4 6 11 8 16 5 5-4 9 4 10 17 0 13 3 17 6 10s2-19-1-27zm618 10c-25-19-40-19-24 0 7 8 20 15 28 15 13 0 12-3-4-15zm776-5c0-5-8-10-17-10-15 0-16 2-3 10 19 12 20 12 20 0zm1715 0c3-5 2-10-4-10-5 0-13 5-16 10-3 6-2 10 4 10 5 0 13-4 16-10zm-3639-18c-10-2-22 0-28 6s0 7 19 4c21-5 23-7 9-10zm364 4c-7-7-13-7-20 0-6 6-3 10 10 10s16-4 10-10zm2326-4c-27-2-52 0-57 5-4 4 18 6 49 3l57-5zm84 8c0-5-5-10-11-10-5 0-7 5-4 10 3 6 8 10 11 10 2 0 4-4 4-10zm269-6c2-2-21-4-52-4s-58 4-61 8c-5 8 105 4 113-4zm41 12c0-3-4-8-10-11-5-3-10-1-10 4 0 6 5 11 10 11 6 0 10-2 10-4zm290-6c0-5-17-9-37-9l-38 2 35 7c19 4 36 8 38 9 1 0 2-3 2-9zm-3232-7c-10-2-26-2-35 0-10 3-2 5 17 5s27-2 18-5zm1305 0c-7-2-19-2-25 0-7 3-2 5 12 5s19-2 13-5zm904 1c-3-3-12-4-19-1-8 3-5 6 6 6 11 1 17-2 13-5zm4251-62c3-17-2-22-17-22-16 0-21 6-21 26 0 33 33 30 38-4zm59-9c-3-10-5-4-5 12 0 17 2 24 5 18 2-7 2-21 0-30zm-19 5c2-8-4-15-13-15-8 0-15 4-15 9 0 4 6 8 13 8 8 0 7 4-3 11-13 9-13 10 0 6 8-2 16-10 18-19zm75 4c4 8 6 7 6-4 1-13-7-18-24-18-14 0-25 5-25 10 0 6 5 10 11 10 5 0 7 6 4 13-4 6 0 4 8-6 11-14 16-15 20-5zm29-14c-9-9-12-7-12 12s3 21 12 12 9-15 0-24zm34 12c0-11-4-20-8-20s-8 9-8 20 4 20 8 20 8-9 8-20zm72 8c-10-6-10-8 0-8 6 0 12-5 12-11 0-5-10-3-22 5-29 21-39 20-31-1 5-14 3-15-7-6-18 17-5 30 30 30 20 0 26-3 18-9zm-258-94c0-8-4-12-10-9-5 3-10 10-10 16 0 5 5 9 10 9 6 0 10-7 10-16zm210-6c0-6-6-5-15 2-8 7-15 14-15 16s7 1 15-2c8-4 15-11 15-16zm4405-144c22-4 46-6 53-5 6 1 12-2 12-7 0-4 15-15 33-24 43-20 147-116 147-135 0-8 5-11 12-7s8 3 4-4-2-20 3-29c6-10 11-13 12-8 4 36 28-125 28-192 1-73-2-88-31-144-18-35-55-86-83-114-27-27-48-54-47-58 1-5-2-6-7-2-6 3-27-4-48-15s-53-23-71-26c-19-4-29-9-24-13 6-3-726-5-1625-3-1018 1-1632-1-1628-7 3-5 1-12-5-16-5-3-10 0-10 8s-7 17-15 21c-13 5-15 58-15 394 0 214 2 391 4 393 7 7 3259 0 3301-7zm-5405-10c0-11-42-44-57-44-20 0-16 16 10 33 23 16 47 22 47 11zm56-19c-3-9 2-20 13-27 26-16 16-36-15-30-20 4-24 9-20 26 3 11 6 27 6 34 0 6 5 12 11 12s9-7 5-15zm-96-65c0-11 5-20 10-20 6 0 10-4 10-8 0-13-73-8-77 6-3 6 2 12 11 12s16 7 16 15 7 15 15 15 15-9 15-20zm26-75c4-8 15-15 25-15s19-7 19-15-9-15-20-15-23 7-26 15c-4 8-12 15-20 15-15 0-19 12-7 23 11 11 23 8 29-8zm-3906-185c0-38 1-40 21-30 28 15 75-4 83-33 11-40 6-92-10-115-17-25-71-31-92-10-9 9-12 9-12 0 0-7-9-12-20-12-19 0-20 7-20 120v120h25c23 0 25-4 25-40zm830-80c0-109-2-120-18-120-10 0-23 5-29 11-8 8-13 8-17 0-11-17-61-13-78 7-36 41-26 131 17 150 17 8 33 8 50 2 24-9 25-8 25 30 0 36 3 40 25 40h25zm88 98c3-13-3-18-22-18-20 0-26 5-26 21 0 15 5 20 22 17 13-2 24-11 26-20zm-2891-75 27-88 26 85c23 77 28 85 52 88l27 3-38-113c-36-108-39-113-67-116-29-3-30-1-63 100-19 57-36 109-38 116-3 7 4 12 21 12 23 0 28-7 53-87zm257 25c25-11 52-71 40-90-3-4-27-8-55-8-27 0-49-4-49-10 0-17 38-30 70-23 28 5 32 3 28-13-2-15-13-20-50-22-60-4-85 10-97 53-23 85 39 148 113 113zm108-2c12-11 17-11 33 0 28 21 45 17 45-11 0-17-5-25-18-25-30 0-42-22-42-77 0-50-1-53-25-53-25 0-25 1-25 90s6 103 32 76zm161-51 20-58 19 61c14 48 23 62 38 62 10 0 21-4 24-8 7-11-69-211-86-229-7-7-28-15-46-19-28-6-32-4-32 15 0 11 6 21 13 21 8 0 21 8 31 19 16 17 15 23-17 102-19 46-33 87-31 90s13 5 26 4c17-1 26-13 41-60zm340 34c9-12 17-34 17-50 0-28-1-29-55-29-30 0-55-4-55-10 0-17 38-30 70-23 28 5 32 3 28-13-2-15-13-20-51-22-39-3-51 1-72 22-28 28-34 89-12 117 34 43 97 47 130 8zm184 4c8-9 13-46 13-85 0-61-2-68-20-68-11 0-20 5-20 12 0 9-3 9-12 0-7-7-29-12-50-12-32 0-40 4-48 25-17 44 2 73 55 81 53 7 56 29 4 28-48 0-69 30-26 39 38 8 91-2 104-20zm170 13c3-3 3-12 0-20-5-11-15-14-37-10-39 8-40-10 0-31 43-22 55-50 35-81-14-22-22-25-68-22-42 2-53 7-55 22-4 17 0 18 36 12 54-8 62 9 17 35-59 35-68 80-21 100 20 8 83 5 93-5zm91-55 19-56 19 60c16 49 23 60 42 61 12 1 22-4 22-10 0-32-74-204-96-223-30-27-59-30-68-7-4 9-5 18-4 18 2 1 15 7 31 14 34 15 34 24-3 117-16 42-30 79-30 84 0 4 11 6 25 4 19-4 28-17 43-62zm344 39c27-27 30-36 25-73-7-52-36-77-87-77-45 0-80 35-80 81 0 89 82 129 142 69zm104 18c3-4 17-3 31 3 61 23 93-17 93-117 0-51-1-54-25-54s-25 3-25 59c0 61-14 86-43 75-18-7-27-35-27-91 0-39-2-43-25-43-25 0-25 1-25 83 0 46 3 86 6 89 7 7 31 4 40-4zm487-8c34-27 44-78 23-118-17-34-33-42-81-42-81 0-106 133-31 166 43 18 59 17 89-6zm204-7c8-9 13-46 13-85 0-61-2-68-20-68-11 0-20 5-20 12 0 9-3 9-12 0-14-14-67-16-87-3-8 5-14 24-14 41 0 36 13 47 66 56 47 8 43 29-6 28-22-1-38 4-41 13-13 34 97 40 121 6zm89 12c5-13 8-13 27 0 31 22 47 18 47-10 0-17-5-25-18-25-30 0-42-22-42-77 0-50-1-53-25-53-25 0-25 1-25 83 0 46 3 87 7 90 11 11 23 8 29-8zm352-78 3-87h-26c-25 0-25 0-25 88 0 86 1 89 23 87 21-2 22-6 25-88zm78 83c7-7 20-7 40 0 67 24 94-11 94-121 0-46-2-49-25-49-24 0-25 3-25 59 0 61-14 86-43 75-18-7-27-35-27-91 0-39-2-43-25-43-25 0-25 1-25 83 0 94 8 115 36 87zm332-5c4-3 0-10-7-15-8-4-15-21-17-36-4-33-28-54-60-54-13 0-26-4-29-10-4-6 6-10 24-10 53 0 81-16 81-48 0-37-25-60-75-67-70-10-117 34-81 74 9 10 14 25 11 34-4 8-2 18 4 22 8 4 6 13-4 28-21 30-19 44 10 73 23 22 31 25 81 20 31-2 59-7 62-11zm4136-261c3-8 2-12-4-9s-10 10-10 16c0 14 7 11 14-7zm4079-37c3-7-3-13-14-13-13 0-15 3-7 13 6 7 12 13 13 13 2 0 5-6 8-13zm-73-91c0-2-7-7-16-10-8-3-12-2-9 4 6 10 25 14 25 6zm-73-22c-3-3-12-4-19-1-8 3-5 6 6 6 11 1 17-2 13-5zm-11017-131c0-37 3-44 12-35 17 17 73 15 88-3 7-8 15-47 18-85 4-60 2-70-12-70-13 0-16 11-16 63 0 68-10 87-47 87-30 0-43-28-43-94 0-43-3-56-15-56s-15 20-15 120 3 120 15 120c11 0 15-12 15-47zm472 0c-3-39-2-46 9-35 14 13 67 16 85 4 37-24 44-96 13-136-22-28-75-36-97-14-9 9-12 9-12 0 0-7-4-12-10-12s-10 47-10 120c0 90 3 120 13 120 8 0 11-14 9-47zm-545 20c3-9-10-12-41-11-54 1-72-12-85-57-20-74 23-131 92-122 27 4 37 2 37-9 0-23-101-19-128 6-57 54-44 173 23 201 28 12 98 6 102-8zm443-23c0-15 7-20 25-20 14 0 25-4 25-10 0-5-11-10-25-10-25 0-26-1-23-62 3-57 5-63 26-66 32-5 27-22-6-22-42 0-52 17-52 87 0 52-3 63-17 63s-13 3 5 20c12 12 22 25 22 30 0 6 5 10 10 10 6 0 10-9 10-20zm490 0c0-15 7-20 25-20 14 0 25-4 25-10 0-5-11-10-25-10-25 0-26-1-23-62 3-57 5-63 26-66 32-5 27-22-6-22-42 0-52 17-52 87 0 52-3 63-17 63s-13 3 5 20c12 12 22 25 22 30 0 6 5 10 10 10 6 0 10-9 10-20zm-590-30c18-11 29-160 12-160-6 0-14 5-18 11-4 8-9 8-17 0-15-15-70-14-85 1-35 35 5 88 66 88 29 0 33 3 30 23-3 19-8 22-45 20-40-2-52 5-36 20 10 10 76 8 93-3zm499-16c46-59 11-144-58-144-51 0-76 28-76 85s25 85 76 85c29 0 42-6 58-26zm6905-9c-6-14 175-15 1645-13 909 2 1642 1 1630-2-17-4-11-8 25-17 104-28 191-106 247-220 30-61 31-68 27-172-1-60-6-107-10-105-4 3-8-13-10-33-2-24-8-37-15-36-7 2-15-8-19-22-8-31-106-123-156-145-21-9-35-20-30-25 4-4 0-6-8-3s-26 1-39-4c-14-5-731-9-1670-8h-1646l2 213c4 367 13 607 23 607 5 0 7-7 4-15zm-8014-50c0-11-11-15-40-15s-40 4-40 15 11 15 40 15 40-4 40-15zm11500-66c0-4-7-6-15-3-8 4-15 10-15 15 0 4 7 6 15 3 8-4 15-10 15-15zm-10605-228c-6-5-19-11-30-13-29-5-34-48-6-48 12 0 21-4 21-10 0-5-9-10-20-10-18 0-20-7-20-75 0-60-3-75-15-75s-15 15-15 75-3 75-15 75c-8 0-15 5-15 10 0 6 7 10 15 10s15 7 15 16c0 35 20 54 57 54 23 0 33-4 28-9zm1060 0c-6-5-19-11-30-13-29-5-34-48-6-48 12 0 21-4 21-10 0-5-9-10-20-10-18 0-20-7-20-75 0-60-3-75-15-75s-15 15-15 75-3 75-15 75c-8 0-15 5-15 10 0 6 7 10 15 10s15 7 15 16c0 35 20 54 57 54 23 0 33-4 28-9zm-1687-19c3-10-4-13-24-11-79 6-109-21-107-95 3-57 41-91 95-82 30 5 38 3 38-9 0-24-100-21-128 5-48 45-46 145 4 188 21 18 36 22 72 20 27-2 47-8 50-16zm482 3c0-8-7-15-15-15s-15 7-15 15 7 15 15 15 15-7 15-15zm182 0c0-5-5-11-11-13s-11 4-11 13 5 15 11 13 11-8 11-13zm1138 0c0-8-4-15-10-15-5 0-10 7-10 15s5 15 10 15c6 0 10-7 10-15zm1530 0c0-8-7-15-15-15s-15 7-15 15 7 15 15 15 15-7 15-15zm-2960-25c0-15 7-20 25-20 14 0 25-4 25-10 0-5-11-10-25-10-23 0-25-3-25-49 0-62 7-81 31-81 10 0 19-4 19-10 0-5-13-10-30-10-38 0-50 23-50 94 0 60-8 69-53 53-33-11-47-41-47-103 0-24-4-44-10-44s-10 35-10 85 4 85 10 85 10-7 10-17c0-15 1-15 18 0 10 10 33 17 51 17 24 0 34 5 38 20 3 11 9 20 14 20s9-9 9-20zm700 0c0-15 7-20 26-20 14 0 23-4 19-10-3-5-15-10-26-10-18 0-20-6-17-62 3-57 5-63 26-66 32-5 27-22-6-22-42 0-52 17-52 87 0 52-3 63-17 63s-13 3 5 20c12 12 22 25 22 30 0 6 5 10 10 10 6 0 10-9 10-20zm2150 0c0-15 7-20 25-20 14 0 25-4 25-10 0-5-11-10-25-10-23 0-25-3-25-49 0-62 7-81 31-81 10 0 19-4 19-10 0-5-14-10-30-10-37 0-50 27-50 100 0 29-5 50-12 54-9 3-8 8 5 16 9 6 17 18 17 25 0 8 5 15 10 15 6 0 10-9 10-20zm2080 11c0-5-7-12-16-15-14-5-15-4-4 9 14 17 20 19 20 6zm-5154-39c15-10 34-47 34-66 0-13-12-16-60-16-33 0-60-3-60-8 0-4 7-18 16-31 14-20 23-22 55-18 29 4 39 2 39-9 0-22-82-18-111 5-31 25-34 98-5 130 19 21 70 28 92 13zm334-77c0-69-3-85-15-85s-15 16-15 85 3 85 15 85 15-16 15-85zm180 0c0-50-4-85-10-85s-10 35-10 85 4 85 10 85 10-35 10-85zm160 72c0-9-9-12-29-9-40 6-66-33-57-83 7-36 38-54 71-41 9 3 15 0 15-9 0-11-11-15-38-15-52 0-77 28-77 85s25 85 77 85c25 0 38-5 38-13zm160-13c13-32 13-144 1-144-6 0-13 5-17 11-4 8-9 8-17 0-15-15-70-14-85 1-35 35 5 88 66 88 29 0 33 3 30 23-3 19-8 22-45 20-40-2-52 5-36 20 3 4 26 7 50 7 37 0 45-4 53-26zm284 4c9-12 16-33 16-45 0-21-4-23-55-23-59 0-70-13-38-45 12-13 26-15 56-11 29 5 38 3 35-6-3-7-24-14-50-16-37-2-50 1-67 19-28 31-29 101-1 129s84 27 104-2zm265-4c46-59 11-144-58-144-51 0-76 28-76 85s25 85 76 85c29 0 42-6 58-26zm272 13c-1-4-1-41-1-82 0-43-4-75-10-75s-10 35-10 86c0 57 4 84 11 82 6-2 10-7 10-11zm79 2c0-8 4-8 14 0 25 21 79 9 93-19 19-37 17-140-2-140-12 0-15 14-15 63 0 68-10 87-47 87-30 0-43-28-43-94 0-43-3-56-15-56s-15 16-15 85 3 85 15 85c8 0 15-5 15-11zm280 1c0-5-15-10-33-10-44 0-57-15-57-66 0-50 18-69 60-60 22 4 30 2 30-9s-11-15-40-15c-55 0-80 26-80 85s25 85 80 85c22 0 40-4 40-10zm159-16c46-59 11-144-58-144-52 0-76 28-75 86s25 84 75 84c29 0 42-6 58-26zm91 14c0-9 3-9 12 0 15 15 58 16 58 2 0-5-9-10-19-10-36 0-51-27-51-91 0-46-3-59-15-59s-15 16-15 85 3 85 15 85c8 0 15-5 15-12zm126 1c4-8 9-8 17 0 6 6 26 11 43 11 42 0 64-30 64-85s-22-85-64-85c-17 0-37 5-44 12-9 9-12 0-12-40s-4-52-15-52c-13 0-15 21-15 125 0 115 7 145 26 114zm293-15c46-59 11-144-58-144-51 0-76 28-76 85s25 85 76 85c29 0 42-6 58-26zm91 14c0-9 3-9 12 0 15 15 58 16 58 2 0-5-8-10-17-10-35 0-53-30-53-92 0-45-3-58-15-58s-15 16-15 85 3 85 15 85c8 0 15-5 15-12zm208 0c15-15 17-158 2-158-5 0-10 5-10 12 0 9-3 9-12 0-7-7-29-12-50-12-31 0-40 5-47 23-16 43 12 77 64 77 40 0 47 7 34 32-9 16-18 19-45 15-32-5-43 1-27 16 11 12 78 8 91-5zm202-73c0-69-3-85-15-85s-15 16-15 85 3 85 15 85 15-16 15-85zm179 59c46-59 11-144-58-144-68 0-101 74-62 138 18 27 26 32 60 32 31 0 44-6 60-26zm81 14c0-9 3-9 12 0 7 7 29 12 50 12 48 0 58-18 58-104 0-51-3-66-15-66-11 0-15 17-17 73-3 69-4 72-28 75-41 4-52-11-57-82-8-94-23-82-23 19 0 50 4 85 10 85s10-5 10-12zm1670 6c0-8-32-33-42-34-4 0 0 9 9 20 17 20 33 26 33 14zm390-18c0-2 3-13 7-23 6-16 5-16-10-4s-17 11-17-7c0-16 4-20 18-15 15 6 15 5 3-10-28-34-78-7-67 36 5 22 12 27 36 27 17 0 30-2 30-4zm125-36c0-18-6-26-22-28-20-3-23 1-23 28s3 31 23 28c16-2 22-10 22-28zm41 23c-14-4-16-7-6-13 11-7 10-12-3-25-16-15-17-14-17 14 0 26 4 31 23 30s19-2 3-6zm44-23c0-16-4-30-10-30-5 0-10 14-10 30 0 17 5 30 10 30 6 0 10-13 10-30zm297 8c-3-8-6-5-6 6-1 11 2 17 5 13 3-3 4-12 1-19zm-60-20c-3-7-5-2-5 12s2 19 5 13c2-7 2-19 0-25zm170 0c-3-7-5-2-5 12s2 19 5 13c2-7 2-19 0-25zm59 0c-9-12-16-19-16-15 0 11 24 47 28 42 2-2-3-14-12-27zm51 0c-3-7-5-2-5 12s2 19 5 13c2-7 2-19 0-25zm160 0c-3-7-5-2-5 12s2 19 5 13c2-7 2-19 0-25zm20 0c-3-7-5-2-5 12s2 19 5 13c2-7 2-19 0-25zm-1367-3c0-8-4-15-10-15-5 0-7 7-4 15 4 8 8 15 10 15s4-7 4-15zm-5460-11c0-11-9-14-37-12-52 4-56 28-4 28 30 0 41-4 41-16zm5430-7c0-2-10-12-22-23l-23-19 19 23c18 21 26 27 26 19zm-196-161c-10-8-21-12-23-10-3 2 4 11 15 18 10 8 21 12 23 10 3-2-4-11-15-18zm21-16c-3-5-11-10-16-10-6 0-7 5-4 10 3 6 11 10 16 10 6 0 7-4 4-10zm-70-20c-10-11-23-20-29-20s0 9 14 20c32 25 38 25 15 0zm80 0c-3-5-12-10-18-10-7 0-6 4 3 10 19 12 23 12 15 0zm-115-34c0-3-4-8-10-11-5-3-10-1-10 4 0 6 5 11 10 11 6 0 10-2 10-4zm-104-81c-35-30-67-60-69-67-4-9-5-8-6 2 0 14 115 118 132 119 5 1-21-24-57-54zm-4271 26c-6-5-19-11-30-13-29-5-34-48-6-48 12 0 21-4 21-10 0-5-9-10-20-10-18 0-20-7-20-75 0-60-3-75-15-75s-15 15-15 75-3 75-15 75c-8 0-15 5-15 10 0 6 7 10 15 10s15 7 15 16c0 35 20 54 57 54 23 0 33-4 28-9zm-630-94c16-48 32-87 35-87s18 41 35 90c17 51 35 90 42 90 18 0 18-2-24-122-26-73-43-108-53-108s-27 35-53 108c-41 118-43 125-24 120 6-2 25-43 42-91zm485 78c0-8-7-15-15-15s-15 7-15 15 7 15 15 15 15-7 15-15zm180 0c0-8-4-15-9-15-13 0-22 16-14 24 11 11 23 6 23-9zm512 0c0-5-5-11-11-13s-11 4-11 13 5 15 11 13 11-8 11-13zm-102-25c0-15 7-20 25-20 14 0 25-4 25-10 0-5-11-10-25-10-25 0-26-1-23-62 3-57 5-63 26-66 32-5 27-22-6-22-42 0-52 17-52 87 0 52-3 63-17 63s-13 3 5 20c12 12 22 25 22 30 0 6 5 10 10 10 6 0 10-9 10-20zm3860-4c0-11-19-15-25-6-3 5 1 10 9 10 9 0 16-2 16-4zm-4674-24c15-10 34-47 34-66 0-13-12-16-60-16-33 0-60-3-60-8 0-4 7-18 16-31 14-20 23-22 55-18 29 4 39 2 39-9 0-22-82-18-111 4-29 24-32 101-4 132 18 20 69 27 91 12zm94-9c1-17 1-17 14 0 7 9 26 17 42 17 30 0 23-16-11-22-27-5-45-44-45-100 0-27-4-48-10-48s-10 35-10 85 4 85 10 85 10-8 10-17zm130-68c0-69-3-85-15-85s-15 16-15 85 3 85 15 85 15-16 15-85zm180 0c0-50-4-85-10-85s-10 35-10 85 4 85 10 85 10-35 10-85zm160 72c0-9-10-12-27-10-39 5-54-8-60-53-6-48 21-79 62-72 17 4 25 1 25-8 0-23-73-18-95 6-25 28-26 101-1 129 22 24 96 30 96 8zm150 3c18-11 29-160 12-160-6 0-14 5-18 11-4 8-9 8-17 0-15-15-70-14-85 1-35 35 5 88 66 88 29 0 33 3 30 23-3 19-8 22-45 20-40-2-52 5-36 20 10 10 76 8 93-3zm200-75c0-50-4-85-10-85s-10 35-10 85 4 85 10 85 10-35 10-85zm179 59c46-59 11-144-58-144-51 0-76 28-76 85s25 85 76 85c29 0 42-6 58-26zm91 15c0-8 4-8 14 0 25 21 79 9 93-19 19-37 17-140-2-140-12 0-15 14-15 63 0 68-10 87-47 87-30 0-43-28-43-94 0-43-3-56-15-56s-15 16-15 85 3 85 15 85c8 0 15-5 15-11zm9687-5c-3-3-12-4-19-1-8 3-5 6 6 6 11 1 17-2 13-5zm-6257-34c0-5-4-10-10-10-5 0-10 5-10 10 0 6 5 10 10 10 6 0 10-4 10-10zm-80-3c0-2-12-14-27-28l-28-24 24 28c23 25 31 32 31 24zm-4940-32c0-11-11-15-40-15s-40 4-40 15 11 15 40 15 40-4 40-15zm4870-38c0-2-10-12-22-23l-23-19 19 23c18 21 26 27 26 19zm6405-67c3-6-1-7-9-4-18 7-21 14-7 14 6 0 13-4 16-10zm42-29c39-11 83-31 98-43 17-13 26-16 21-8-4 8-1 7 8-4 9-10 20-15 27-10 9 5 10 2 6-9-5-14 13-41 24-34 2 1 3 0 2-2s9-18 22-35 33-60 45-96c20-58 22-78 16-175-4-60-11-111-16-113s-7-9-4-16c3-8-2-16-11-20-10-3-15-13-12-21 4-9 1-12-9-8s-12 0-8-11c3-9 1-16-5-16s-25-15-42-34c-38-44-99-80-169-100-50-14-216-16-1690-14l-1635 3-3 385c-1 212-1 389 2 395 2 7 552 10 1634 9 1627-1 1630-1 1699-23zm-6607-64c0-2-15-16-32-33l-33-29 29 33c28 30 36 37 36 29zm1200-154c34-23 40-33 40-69 0-47-34-84-76-84-49 0-71 14-84 55-14 42 2 83 40 102 34 17 51 16 80-4zm217-30c-3-10-5-4-5 12 0 17 2 24 5 18 2-7 2-21 0-30zm-1583 12c-4-8-11-15-16-15-6 0-5 6 2 15 7 8 14 15 16 15s1-7-2-15zm1531 5c-3-5-2-10 4-10 5 0 12 6 14 13 3 7 6 5 6-5 1-11-6-18-16-19-15 0-15-2 2-9 19-8 19-9-2-9-18-1-23 5-23 24 0 14 5 25 11 25 5 0 7-4 4-10zm99-33c7-6 6-7-4-4-8 2-16 14-17 28-1 19-1 20 4 4 3-11 10-24 17-28zm-134 23c-13-9-13-11 0-20 9-6 10-10 3-10-15 0-26 17-18 30 3 6 12 10 18 10 7 0 6-4-3-10zm-1532-40c-7-10-14-17-17-15-4 4 18 35 25 35 2 0-1-9-8-20zm3281 6c9-10 7-17-6-27-15-12-16-12-11 2 4 9 1 22-5 28-8 8-8 11 0 11 6 0 16-6 22-14zm-522-18c-3-8-6-5-6 6-1 11 2 17 5 13 3-3 4-12 1-19zm20-10c-3-7-5-2-5 12s2 19 5 13c2-7 2-19 0-25zm40 0c-3-7-5-2-5 12s2 19 5 13c2-7 2-19 0-25zm70 10c-3-8-6-5-6 6-1 11 2 17 5 13 3-3 4-12 1-19zm90 0c-3-8-6-5-6 6-1 11 2 17 5 13 3-3 4-12 1-19zm161-2c-7-8-15-12-17-11-5 6 10 25 20 25 5 0 4-6-3-14zm-3188-29c0-2-9-14-20-27s-20-19-20-15c0 5 7 17 17 27 15 17 23 22 23 15zm-65-83c-15-14-29-23-32-21-4 5 45 47 55 47 3 0-7-11-23-26zm-45-55c-7-11-14-18-17-15s0 12 7 21c18 21 23 19 10-6zm-40-39c-6-11-13-20-16-20-2 0 0 9 6 20s13 20 16 20c2 0 0-9-6-20zm-30-43c0-2-10-12-21-23-22-19-22-19-8 4 12 19 29 30 29 19zm-4236-32c-10-8-23-14-29-14-5 0-1 6 9 14 11 8 24 15 30 15 5 0 1-7-10-15zm2246 5c13-8 13-10-2-10-9 0-20 5-23 10-8 13 5 13 25 0zm9281-23c-10-9-11-8-5 6 3 10 9 15 12 12s0-11-7-18zm-9221-13c0-2-9 0-20 6s-20 13-20 16c0 2 9 0 20-6s20-13 20-16zm3579-10c44-56 11-134-57-136s-109 61-78 120c18 35 28 40 78 41 28 1 41-5 57-25zm159-28c12-3 11-4-3-3-12 1-20 10-21 22-1 14 0 15 3 3 2-9 12-19 21-22zm42 40c0-2-7-7-16-10-8-3-12-2-9 4 6 10 25 14 25 6zm65-21c0-11-8-21-17-23-14-3-18 3-18 23s4 26 18 23c9-2 17-12 17-23zm32-12c-3-10-5-4-5 12 0 17 2 24 5 18 2-7 2-21 0-30zm-187 17c-13-9-13-11 0-20 13-8 12-10-2-10-11 0-18 8-18 20s7 20 18 20c14 0 15-2 2-10zm-3670-10c0-5-2-10-4-10-3 0-8 5-11 10-3 6-1 10 4 10 6 0 11-4 11-10zm1824-5c-4-8-11-15-16-15-6 0-5 6 2 15 7 8 14 15 16 15s1-7-2-15zm1956 0c0-8-8-15-17-14-13 0-14 2-4 6 11 5 11 7 0 14s-10 9 4 9c9 0 17-7 17-15zm-6200-10c-6-8-9-19-5-25 3-5 1-10-4-10-15 0-14 23 1 38 17 17 23 15 8-3zm7839-42c-6-7-16-13-22-13-7 0-7 4 1 12s8 17 0 32c-11 21-11 21 11 2 16-15 18-22 10-33zm-412 15c-3-8-6-5-6 6-1 11 2 17 5 13 3-3 4-12 1-19zm20-10c-3-7-5-2-5 12s2 19 5 13c2-7 2-19 0-25zm40 0c-3-7-5-2-5 12s2 19 5 13c2-7 2-19 0-25zm-3284 7c-3-9-8-14-10-11-3 3-2 9 2 15 9 16 15 13 8-4zm3129-4c7 11 9 11 6 1-5-17-23-17-24 0-1 9 1 8 4-1 3-12 5-12 14 0zm45-3c-3-8-6-5-6 6-1 11 2 17 5 13 3-3 4-12 1-19zm158-9c-4-5-12-9-18-8-9 0-8 2 1 6 6 2 9 10 6 15-4 7-2 8 5 4 6-4 9-12 6-17zm75 11c13-8 13-10-2-10-9 0-20 5-23 10-8 13 5 13 25 0zm-7346-20c6 0 21-7 33-15 18-12 20-20 14-38-5-14-5-30 0-40 7-11 6-24-1-37-9-16-8-20 6-20 26 0 14-6-26-14-26-4-31-3-20 5 12 8 9 9-12 5-50-11-58-1-58 80 0 67 2 74 20 74 11 0 20 6 21 13 0 10 2 10 6 0 2-7 10-13 17-13zm646 5c11-13 10-14-4-9-9 3-16 10-16 15 0 13 6 11 20-6zm290 0c11 3 20 2 20-3 0-16 33-24 42-10 6 9 7 5 3-9-4-13-2-23 4-23s7-8 4-17c-5-11 0-10 16 6 15 15 30 21 43 18 16-5 19-2 15 14-7 25 18 37 44 20 15-9 19-8 19 1 0 10 2 10 9 0 7-11 10-11 22 0 15 14 61 20 53 6-7-10-1-10 29 1 22 9 24 7 20-11-4-12-8-15-13-9-9 15-37 4-37-14 0-8 4-15 9-15 4 0 8 5 8 12 0 6 9 3 20-7 16-15 23-16 33-6 9 10 8 11-8 6-15-5-16-4-6 3 18 13 68-4 68-23 0-8-5-11-10-8-6 4-8-5-4-23 3-16 4-23 1-16-3 6-10 12-16 12s-3-9 7-20 21-17 24-13c11 15 45 38 38 26-11-17 10-26 30-13 14 9 15 10 2 7-13-4-15 1-13 26 5 38 5 38 55 47 42 8 86-3 101-25 5-6 8-3 8 8 0 19 44 25 55 7 5-8 11-7 21 1 8 6 14 8 14 4s8-1 17 6c10 8 14 9 10 2-4-6-4-14 1-17 4-2 9 4 9 15 3 30 23 51 38 39 6-5 14-7 17-4s5-2 4-12c-1-12 9-18 39-21 21-2 45-9 52-14 13-11 37-3 28 10-4 8 19 6 71-4 20-4 30-35 12-35-5 0-4-9 2-19 10-21 4-51-14-63-16-11-74-10-81 2-3 5-13 6-21 3-12-4-13-8-3-13 7-5-4-8-24-7-21 0-37 6-38 11 0 6-4 2-9-9-6-13-9-15-9-5-1 9-11 16-26 16-28 2-34-12-7-19 13-4 13-5-4-6-12 0-28 7-35 16-10 11-10 14-1 9s12 4 12 33c0 23-4 41-9 41-13 0-21-27-14-47 5-12 3-14-7-8-9 5-11 4-6-4 11-17-19-24-44-11-13 7-26 8-33 2-19-15-54-20-68-11-12 7-12 9 0 9 9 0 11 8 6 27-9 36-23 53-44 52-11 0-10-3 5-9 28-11 29-57 2-71-10-6-33-9-51-7-33 3-73-24-62-42 4-6 1-10-4-10-17 0-13 28 7 39 13 8 9 10-18 6s-30-3-15 4c17 8 14 10-17 10-20 1-39-4-41-11-3-7-6-2-6 11-1 24-1 24-16 5-8-10-15-15-15-10 0 4-12 0-27-10-24-15-26-15-14-1 7 9 10 17 6 17s-1 10 7 23c17 25 13 47-7 47-8 0-12-11-11-30 3-41-6-52-36-45-19 5-24 12-22 31 1 13-2 24-8 24s-8-7-4-15c7-19-20-46-40-38-8 3-24-3-34-12-11-10-23-15-27-12-3 4-1 7 5 7 7 0 3 9-8 20s-20 30-21 43c0 15-2 17-6 7-3-8-14-25-24-38s-15-30-12-39c5-12 3-14-7-8-18 11-60 13-60 3 0-4-5-8-11-8-5 0-7 5-3 12 5 8 2 9-10 5-9-4-15-3-12 1 3 5-4 16-16 26-19 17-22 17-37 1-15-15-15-16 4-9 11 4 17 3 12-2-9-9-98-14-92-4 2 3-1 12-6 20-8 13-11 12-20-2-12-22-62-24-83-3-8 8-17 15-20 15s-3-7 0-15c4-10 0-15-15-15-12 0-21-4-21-10 0-5-5-10-11-10-5 0-7 5-4 10 3 6-3 10-14 10s-27 10-35 22c-9 12-19 19-22 15-4-4-2-13 5-20 9-12 1-14-46-12-32 1-64-2-70-7-7-6-21-7-30-3-10 5-27 7-37 6-13-2-17 2-13 13 4 9 2 16-2 16-5 0-12-7-15-16-5-13-18-14-77-10-39 3-79 1-89-4-15-8-22-6-33 10-7 11-16 18-18 16-2-3-4 19-4 47v52l53-1c31 0 52 4 52 10s5 3 11-7c5-9 7-22 4-27-3-6-2-10 2-10 5 0 14 9 21 20 10 16 21 19 57 16 41-3 45-1 40 15-7 22 16 35 43 23 9-4 23-6 31-5 7 1 10-2 6-8-3-6-13-11-21-11-17 0-19-16-2-26 6-4 8-3 4 4-3 6 3 14 15 17 13 4 24 2 29-4 5-9 14-9 34-1 35 13 37 13 34-2-2-7 2-12 9-11 7 2 10-4 7-12-4-8-1-15 5-15s11 4 11 10c0 18 42 32 76 25 19-3 33-9 33-13-3-21 3-24 15-6 9 12 11 21 4 25-5 4 7 6 29 5 21-1 44-5 50-9 7-4 28-5 47-2 41 8 87-11 65-27-12-8-11-9 1-5 8 2 14 12 12 22s1 14 7 10c14-8 14 0 0 28-9 20-9 20 4 5 13-16 16-16 33-2 10 9 13 12 5 8-10-5-12-3-7 5 6 9 11 9 21 1 8-7 23-9 35-5zm720 0c0-8-7-15-15-15-13 0-14 3-3 15 16 18 18 18 18 0zm-240 1c0-3-4-8-10-11-5-3-10-1-10 4 0 6 5 11 10 11 6 0 10-2 10-4zm127-11c0-8-4-12-9-9s-6 10-3 15c9 13 12 11 12-6zm426 8c-7-2-19-2-25 0-7 3-2 5 12 5s19-2 13-5zm-1882-21c-7-2-18 1-23 6-8 8-4 9 13 5 13-4 18-8 10-11zm694 8c3-6-1-7-9-4-18 7-21 14-7 14 6 0 13-4 16-10zm830-8c-3-3-11 0-18 7-9 10-8 11 6 5 10-3 15-9 12-12zm2289-4c-10-13-23-27-29-33-18-16-55-85-55-101 0-8-4-14-10-14-5 0-10 3-10 6 0 13 57 102 84 132 35 36 49 44 20 10zm-3639 2c3-6-1-7-9-4-18 7-21 14-7 14 6 0 13-4 16-10zm1188 3c-7-2-19-2-25 0-7 3-2 5 12 5s19-2 13-5zm524 1c-3-3-12-4-19-1-8 3-5 6 6 6 11 1 17-2 13-5zm-1440-10c-3-3-12-4-19-1-8 3-5 6 6 6 11 1 17-2 13-5zm1680-26c-3-7-5-2-5 12s2 19 5 13c2-7 2-19 0-25zm-202-44c1-13 0-24-2-24-8 0-23 42-17 51 9 15 19 1 19-27zm182-6c-3-8-6-5-6 6-1 11 2 17 5 13 3-3 4-12 1-19zm-4-53c-3-8-10-15-15-15-7 0-6 5 1 13 6 8 7 18 3 22-4 5-2 5 5 1s10-13 6-21zm-549-24c-2-3-12 3-22 13-16 17-16 18 5 5 12-7 20-15 17-18zm-319 10c3-5 1-12-5-16-5-3-10 1-10 9 0 18 6 21 15 7zm-1068-7c-3-3-12-4-19-1-8 3-5 6 6 6 11 1 17-2 13-5zm230 0c-3-3-12-4-19-1-8 3-5 6 6 6 11 1 17-2 13-5zm190 0c-3-3-12-4-19-1-8 3-5 6 6 6 11 1 17-2 13-5zm796-1c-7-2-21-2-30 0-10 3-4 5 12 5 17 0 24-2 18-5zm120 0c-7-2-19-2-25 0-7 3-2 5 12 5s19-2 13-5zm324 1c-3-3-12-4-19-1-8 3-5 6 6 6 11 1 17-2 13-5zm-2167-14c0-5-2-10-4-10-3 0-8 5-11 10-3 6-1 10 4 10 6 0 11-4 11-10zm217 4c-3-3-12-4-19-1-8 3-5 6 6 6 11 1 17-2 13-5zm450 0c-3-3-12-4-19-1-8 3-5 6 6 6 11 1 17-2 13-5zm376-1c-7-2-19-2-25 0-7 3-2 5 12 5s19-2 13-5zm567 3c0-3-4-8-10-11-5-3-10-1-10 4 0 6 5 11 10 11 6 0 10-2 10-4zm800-11c-7-9-15-13-17-11-7 7 7 26 19 26 6 0 6-6-2-15zm-1693-1c-3-3-12-4-19-1-8 3-5 6 6 6 11 1 17-2 13-5zm116-1c-7-2-21-2-30 0-10 3-4 5 12 5 17 0 24-2 18-5zm92-11c-3-3-11 0-18 7-9 10-8 11 6 5 10-3 15-9 12-12zm285 8c0-5-2-10-4-10-3 0-8 5-11 10-3 6-1 10 4 10 6 0 11-4 11-10zm237 4c-3-3-12-4-19-1-8 3-5 6 6 6 11 1 17-2 13-5zm306-1c-7-2-21-2-30 0-10 3-4 5 12 5 17 0 24-2 18-5zm-1096-9c-3-3-12-4-19-1-8 3-5 6 6 6 11 1 17-2 13-5zm3343-35c-12-16-25-28-28-25-5 6 36 56 45 56 3 0-5-14-17-31zm-3857 4c-7-2-19-2-25 0-7 3-2 5 12 5s19-2 13-5zm2237 3c0-2-7-7-16-10-8-3-12-2-9 4 6 10 25 14 25 6zm-2280-26c18-12 2-12-25 0-13 6-15 9-5 9 8 0 22-4 30-9zm2230 0c-8-5-22-9-30-9-10 0-8 3 5 9 27 12 43 12 25 0zm-567-17c-287-2-759-2-1050 0-290 1-55 2 522 2 578 0 815-1 528-2zm2197-7c0-2-8-10-17-17-16-13-17-12-4 4s21 21 21 13zm2180-21c0-18-5-25-20-25-20 0-28 28-13 43 15 16 33 6 33-18zm32 0c-2-14-6-25-7-25s-5 11-7 25c-3 16-1 25 7 25s10-9 7-25zm41 18c-7-2-13-11-13-18s6-16 13-18c9-4 9-6 0-6-6-1-15 4-18 9-9 15 2 40 17 39 10 0 10-2 1-6zm92-18c0-12-7-20-18-21-12-1-13-1-2 3 8 2 15 11 15 19 0 17-16 19-23 2-3-8-6-5-6 5-1 12 5 17 17 15 9-2 17-12 17-23zm31 16c-4-5-2-11 3-13 5-1 3-9-5-16-12-11-14-9-14 13 0 14 5 25 11 25 5 0 8-4 5-9zm39-16c0-14-3-25-7-25-5 0-8 11-8 25s3 25 8 25c4 0 7-11 7-25zm-289 3c4-7 3-8-4-4s-12 3-12-3c0-5 6-12 13-14 7-3 5-6-5-6-18-1-24 19-11 32 9 9 11 9 19-5zm-2168-40c-7-13-11-26-10-30 1-5-2-8-8-8-14 0-13 7 6 35 20 31 29 33 12 3zm3911-25c-6-7-16-13-22-13-7 0-7 4 1 12s8 17 0 32c-11 21-11 21 11 2 16-15 18-22 10-33zm-503 2c-3-8-11-15-18-14-10 0-10 2 0 6 6 2 12 14 13 26 0 12 3 16 6 9s2-19-1-27zm153 8c0-25-1-25-8-8-5 11-7 23-4 28 8 14 13 7 12-20zm48-5c-3-8-6-5-6 6-1 11 2 17 5 13 3-3 4-12 1-19zm-140-14c-3-3-12-4-19-1-8 3-5 6 6 6 11 1 17-2 13-5zm50 0c-3-3-12-4-19-1-8 3-5 6 6 6 11 1 17-2 13-5zm-3517-24c0-5-5-10-11-10-5 0-7 5-4 10 3 6 8 10 11 10 2 0 4-4 4-10zm-54-34c0-14-5-21-9-17s-5 15-1 24c9 24 12 21 10-7zm-82-172c3-8 2-12-4-9-5 3-17-11-26-31-10-21-20-32-22-26-2 8 37 81 44 82 1 0 5-7 8-16zm2388-61c-10-4-9-8 4-17 17-13 12-36-8-36-7 0-6 5 1 14 10 12 8 16-10 21-17 6-19 9-8 16 8 5 19 8 24 8 6 0 4-3-3-6zm65-9c3-8 1-20-5-26-8-8-9-5-5 11 3 11 1 21-5 21s-13-12-15-27c-4-26-4-26-6 5-1 23 3 32 14 32 9 0 18-7 22-16zm36-4c-3-11-7-20-8-20s-5 9-8 20c-3 12 0 20 8 20s11-8 8-20zm119 13c-6-2-10-9-7-13 3-5 1-11-5-15-5-3-10 3-10 14 0 14 6 21 18 20 10 0 12-3 4-6zm33-22c-2-35-15-36-15-2 0 18 4 30 8 27 5-3 8-14 7-25zm-296-18c9-7 11-13 6-13-16 0-35 22-34 40 0 13 1 13 6 0 4-8 13-20 22-27zm-62 5c-3-8-6-5-6 6-1 11 2 17 5 13 3-3 4-12 1-19zm284-1c-10-9-11-8-5 6 3 10 9 15 12 12s0-11-7-18zm-461-27c0-52 32-45 43 10 3 14 4 8 4-15-2-34-6-41-26-43-13-2-28 2-32 10-12 19-11 81 1 73 6-3 10-19 10-35zm438 15c-3-3-9 2-12 12-6 14-5 15 5 6 7-7 10-15 7-18zm999-24c3-20 1-21-12-7-18 17-20 39-3 34 6-2 13-14 15-27zm50 22c-4-3 1-11 10-18 13-9 13-14 3-20-9-5-11-4-6 3 4 7 3 12-3 12-5 0-12-6-15-12-2-7-3-2-1 12 4 32 4 30 12 30 3 0 3-3 0-7zm100-30c-3-10-5-4-5 12 0 17 2 24 5 18 2-7 2-21 0-30zm138 27c3-6-1-7-9-4-18 7-21 14-7 14 6 0 13-4 16-10zm42 4c-3-3-12-4-19-1-8 3-5 6 6 6 11 1 17-2 13-5zm35-1c-10-4-9-9 5-20 10-8 12-11 4-7-7 3-17 1-21-6-5-7-7-2-7 14 0 18 5 26 16 25 11 0 12-2 3-6zm137-6c8-10 7-17-1-25-16-16-33-15-19 1 8 10 7 17-1 25s-8 12-1 12c6 0 15-6 22-13zm-4125-10c-3-8-12-14-21-14-13 0-13 2 3 14 22 16 25 16 18 0zm3863-9c2-17 0-19-7-8-5 8-6 18-4 22 8 12 10 10 11-14zm-3897-27c0-5-9-19-20-32l-20-24 17 32c19 34 23 39 23 24zm7-63c-3-7-5-2-5 12s2 19 5 13c2-7 2-19 0-25zm-86-71c-10-9-11-8-5 6 3 10 9 15 12 12s0-11-7-18z"/><path d="m3285 6410c-8-24 1-40 21-40 19 0 19 46 0 53-9 4-17-2-21-13z"/><path d="m1590 6415c0-39 3-46 18-43 13 2 17 13 17 43s-4 41-17 43c-15 3-18-4-18-43z"/><path d="m1770 6420c0-5 7-10 15-10s15 5 15 10c0 6-7 10-15 10s-15-4-15-10z"/><path d="m2070 6420c0-5 7-10 15-10s15 5 15 10c0 6-7 10-15 10s-15-4-15-10z"/><path d="m2657 6383c-10-9-9-23 2-23 5 0 11 7 15 15 5 15-5 20-17 8z"/><path d="m3130 6420c0-5 7-10 15-10s15 5 15 10c0 6-7 10-15 10s-15-4-15-10z"/><path d="m3937 6383c-10-9-9-23 2-23 5 0 11 7 15 15 5 15-5 20-17 8z"/><path d="m4410 6420c0-5 7-10 15-10s15 5 15 10c0 6-7 10-15 10s-15-4-15-10z"/><path d="m5265 6379c-4-6-5-13-2-16 7-7 27 6 27 18s-17 12-25-2z"/><path d="m5595 6430c-4-6-3-16 3-22s12-6 17 2c4 6 3 16-3 22s-12 6-17-2z"/><path d="m5585 6310c3-5 12-10 20-10s17 5 20 10c4 6-5 10-20 10s-24-4-20-10z"/><path d="m5750 6420c0-5 7-10 15-10s15 5 15 10c0 6-7 10-15 10s-15-4-15-10z"/><path d="m11610 5405c0-6 9-11 20-12s20 4 20 10c0 7-9 13-20 13s-20-5-20-11z"/><path d="m11200 5225v-35h85 85v35 35h-85-85z"/><path d="m11560 5110v-50h90 90v50 50h-90-90z"/><path d="m11780 5110v-50h90 90v50 50h-90-90z"/><path d="m10450 5030v-90h115 115v90 90h-115-115z"/><path d="m10740 5030v-90h115 115v90 90h-115-115z"/><path d="m11200 5090v-30h85 85v30 30h-85-85z"/><path d="m11560 4920v-90h90 90v90 90h-90-90z"/><path d="m11780 4920v-90h90 90v90 90h-90-90z"/><path d="m11200 4955v-35h85 85v35 35h-85-85z"/><path d="m10450 4780v-90h115 115v90 90h-115-115z"/><path d="m10738 4860c-1-5-2-46 0-90l4-80h114 114v90 90h-114c-66 0-116-4-118-10z"/><path d="m11200 4825v-35h85 85v35 35h-85-85z"/><path d="m11200 4695v-35h85 85v35 35h-85-85z"/><path d="m10450 4520v-90h115 115v90 90h-115-115z"/><path d="m10738 4536c-5-114-13-106 118-106h114v90 90h-114-114z"/><path d="m11200 4565v-35h85 85v35 35h-85-85z"/><path d="m11200 4430v-30h85 85v30 30h-85-85z"/><path d="m6825 4120c3-5 8-10 11-10 2 0 4 5 4 10 0 6-5 10-11 10-5 0-7-4-4-10z"/><path d="m10940 3521c0-25-3-28-27-23-32 6-53-18-53-61 0-52 15-66 70-65l50 1v89c0 81-2 88-20 88-15 0-20-7-20-29zm3-73c8-30-3-49-27-46-13 2-22 12-24 26-7 47 40 65 51 20z"/><path d="m11287 3543c-4-3-7-14-7-24 0-9-6-19-12-22-10-3-10-7 0-20 8-9 12-34 11-59-3-34 0-43 14-46s17 5 17 48c0 36 4 52 15 56 20 8 19 24-1 24-9 0-14 6-11 13 2 6 10 12 17 12s15 6 18 13c4 13-49 18-61 5z"/><path d="m11383 3538c-22-34-31-58-22-58 5 0 9-25 9-55 0-42 3-55 15-55 11 0 15 12 15 49 0 42 3 50 23 55 21 6 21 7 3 20-18 14-14 42 5 31 5-4 9 1 9 9 0 19-45 22-57 4z"/><path d="m8900 3455v-85h50c38 0 50 4 50 15 0 10-10 15-30 15-23 0-30 4-30 20 0 15 9 22 30 27 17 3 30 9 30 14s-13 9-30 9c-23 0-30 4-30 20s7 20 30 20c20 0 30 5 30 15 0 11-12 15-50 15h-50z"/><path d="m9500 3455c0-69 3-85 15-85 10 0 15 11 15 35 0 32 2 35 30 35 20 0 30 5 30 15s-10 15-30 15c-23 0-30 4-30 20s7 20 30 20c20 0 30 5 30 15 0 11-12 15-45 15h-45z"/><path d="m9630 3455c0-78 2-85 20-85s20 7 20 85-2 85-20 85-20-7-20-85z"/><path d="m9720 3468c-34-101-34-98-11-98 14 0 21 6 21 20 0 16 7 20 34 20 26 0 36-5 41-20 3-11 15-20 25-20 18 0 18 3-5 68-34 100-35 102-59 102-18 0-26-12-46-72zm64 0c5-24 3-28-15-28-17 0-20 4-15 23 3 12 6 29 6 37 0 21 16 0 24-32z"/><path d="m9860 3525c0-9 9-15 25-15 24 0 25-2 25-70 0-56 3-70 15-70s15 14 15 70c0 68 1 70 25 70 16 0 25 6 25 15 0 12-14 15-65 15s-65-3-65-15z"/><path d="m10091 3514c-65-83 31-187 113-123 20 16 26 29 26 58 0 56-31 91-80 91-30 0-43-6-59-26zm97-56c3-44 1-48-23-54-33-8-55 11-55 46 0 49 10 61 44 58 29-3 31-5 34-50z"/><path d="m11101 3521c-29-29-29-103-1-131 22-22 69-26 100-10 11 6 24 27 29 47 9 30 7 44-7 73-15 31-22 35-59 38-32 2-47-2-62-17zm87-23c17-17 15-73-2-88-42-34-92 22-68 75 13 27 49 34 70 13z"/><path d="m9045 3490c-7-11-3-12 34-14 32-1 40-26 9-26-36 0-60-22-56-51 3-27 40-38 63-19 9 7 15 8 20 0 3-5 10-10 16-10 13 0 11 104-3 118-15 15-74 16-83 2zm65-69c0-5-7-14-15-21-18-15-42 1-31 19 8 13 46 15 46 2z"/><path d="m9182 3488c-20-20-14-38 23-59 41-24 37-43-7-34-23 6-29 4-26-6 7-20 72-23 87-5 17 21 6 51-24 64-33 15-33 36 0 28 18-5 25-2 25 9 0 19-60 21-78 3z"/><path d="m9280 3495c0-3 11-33 25-67 26-63 22-88-12-88-8 0-13-6-10-12 4-13 46-13 59 0 4 4 20 44 37 90 28 75 29 82 12 82-13 0-22-13-32-47l-13-48-15 48c-10 33-20 47-33 47-10 0-18-2-18-5z"/><path d="m10269 3496c-1-1-3-29-4-63-3-57-1-63 16-63 16 0 19 7 19 43 0 46 14 69 36 60 9-3 14-22 14-54 0-38 4-49 15-49 13 0 15 11 13 63l-3 62-52 1c-29 0-54 0-54 0z"/><path d="m10570 3486c0-10 9-14 26-13 15 1 29-4 31-10 3-8-5-13-20-13-27 0-57-23-57-44 0-24 24-34 74-34l48 1-4 55c-3 31-11 58-19 63-23 15-79 11-79-5zm60-70c0-17-27-29-35-16-4 6-3 15 0 20 9 15 35 12 35-4z"/><path d="m10700 3449c0-56 7-79 26-79 8 0 14 16 16 48 3 40 6 47 26 50s22 0 22-47c0-39 4-51 15-51 12 0 15 13 15 59 0 67-3 70-77 69l-43-1z"/><path d="m11450 3451c0-58 7-81 26-81 8 0 14 16 16 48 3 40 6 47 26 50 12 2 22 10 22 18 0 17-31 19-48 2-9-9-12-9-12 0 0 7-7 12-15 12-11 0-15-12-15-49z"/><path d="m11577 3494c-13-13 5-24 27-18 16 4 25 0 29-10 5-12 0-16-16-16-35 0-59-22-55-51 3-27 40-38 63-19 9 7 15 8 20 0 3-5 10-10 16-10 13 0 11 104-3 118-13 13-70 17-81 6zm63-74c0-15-38-32-45-20-3 5-3 15 0 20 8 13 45 13 45 0z"/><path d="m11710 3433c0-49 3-63 15-63 11 0 15 11 15 36 0 45 16 75 35 68 10-4 15-21 15-55 0-35 4-49 14-49 15 0 26 30 26 73 0 20 5 27 20 27 17 0 20-7 20-50s3-50 20-50 20 7 20 46c0 77-6 82-110 81l-90-1z"/><path d="m11945 3490c-1-3-2-43-1-90 1-72 4-85 19-88 13-3 17 4 17 31 0 31 2 34 25 29 14-2 32 1 40 8 19 15 20 93 2 108-13 11-96 13-102 2zm83-59c-4-38-42-36-46 3-2 16 2 32 9 37 20 12 40-11 37-40z"/><path d="m10410 3435c0-10 10-15 30-15s30 5 30 15-10 15-30 15-30-5-30-15z"/><path d="m9153 3175c0-44 2-61 4-37 2 23 2 59 0 80-2 20-4 1-4-43z"/><path d="m9203 3175c0-44 2-61 4-37 2 23 2 59 0 80-2 20-4 1-4-43z"/><path d="m8902 3173-2-73 33 1c29 2 30 2 5 6-26 4-27 7-31 71l-3 67z"/><path d="m8945 3231c17-4 35-17 45-34 14-25 13-30-3-60l-17-32 21 25c38 45 7 111-50 109-25-1-24-2 4-8z"/><path d="m9506 3218c-9-12-16-34-16-48 0-44 26-70 68-69l37 2-40 6c-31 5-42 12-49 32-12 36 0 78 27 89 16 6 18 9 5 9-9 1-24-9-32-21z"/><path d="m9987 3213c-8-15-17-37-21-48-5-19-3-21 29-17 30 4 36 1 45-22 5-14 12-26 15-26 5 0-33 101-42 110-2 3-2-7 2-23 6-23 4-27-14-27-25 0-27 17-5 48 9 13 14 26 11 29-3 2-12-8-20-24z"/><path d="m9828 3219c-2-6-1-34 2-62 3-36 9-52 20-53 9 0 10 1 3 3-15 5-18 89-4 95 5 2 3 8-4 15-9 8-15 9-17 2z"/><path d="m9283 3199c24-14 21-37-5-42-20-4-19-4 5-6 22-1 27 3 27 23 0 13-7 27-16 30-24 9-31 7-11-5z"/><path d="m10398 3200c18-8 22-18 24-57l1-48 4 43c4 46-9 72-36 71-11 0-9-3 7-9z"/><path d="m10470 3195c-7-8-10-25-6-39 5-19 10-23 28-18l23 7-23 3c-17 3-22 9-20 25 4 31 36 34 47 5 10-23 10-23 10 5 1 22-3 27-23 27-13 0-29-7-36-15z"/><path d="m10618 3194c32-22 27-34-13-34-34 0-35 1-25 23 11 21 10 21-4 3-27-33-20-43 26-37 23 3 43 11 45 17 5 14-23 44-40 44-6 0-1-7 11-16z"/><path d="m9040 3179c-6-11-10-25-8-30s8 4 15 21c13 34 9 40-7 9z"/><path d="m9107 3179c4-13 8-18 11-10 2 7-1 18-6 23-8 8-9 4-5-13z"/><path d="m9352 3146c1-47 2-48 5-11 3 22 9 45 14 51 5 7 3 11-6 11-12 0-15-12-13-51z"/><path d="m9620 3179c-6-11-10-25-8-30s8 4 15 21c13 34 9 40-7 9z"/><path d="m9687 3179c4-13 8-18 11-10 2 7-1 18-6 23-8 8-9 4-5-13z"/><path d="m9731 3184c-1-20 26-41 37-29 3 3 0 5-7 5-6 0-16 10-21 23-9 22-9 22-9 1z"/><path d="m10129 3174c-5-15-8-29-5-31 2-2 8 10 14 26 13 38 5 41-9 5z"/><path d="m10237 3180c4-17 0-20-25-20-17 0-33 6-35 13-3 6-6-2-6-18-1-38 15-55 49-54 23 1 23 2-5 8-17 3-31 14-33 24-3 14 4 17 32 17 29 0 36 4 36 19 0 11-4 22-9 25-5 4-7-3-4-14z"/><path d="m10280 3188c0-4 4-8 9-8 6 0 12 4 15 8 3 5-1 9-9 9s-15-4-15-9z"/><path d="m10071 3188c-2-18 32-87 40-82 5 3 9 10 9 16s-3 8-7 4-15 10-25 31c-9 21-17 35-17 31z"/><path d="m10283 3135c0-22 2-30 4-17 2 12 2 30 0 40-3 9-5-1-4-23z"/><path d="m9428 3153c6-2 18-2 25 0 6 3 1 5-13 5s-19-2-12-5z"/><path d="m9898 3153c6-2 18-2 25 0 6 3 1 5-13 5s-19-2-12-5z"/><path d="m10360 3145c-17-21-5-45 22-44h23l-23 10c-29 11-24 31 9 40 22 6 22 7 3 8-12 1-27-6-34-14z"/><path d="m9688 3132c-7-24-36-29-58-9-12 10-12 9-1-5 7-10 21-18 31-18 21 0 43 25 38 42-3 7-7 2-10-10z"/><path d="m9783 3134c2-13-7-20-28-25l-30-7 31-1c33-1 54 23 35 42-6 6-9 2-8-9z"/><path d="m9107 3125c-8-18-38-20-57-2-12 10-12 9-1-5 7-10 21-18 31-18 18 0 47 27 38 36-3 3-8-2-11-11z"/><path d="m9301 3124c0-11 3-14 6-6 3 7 2 16-1 19-3 4-6-2-5-13z"/><path d="m9946 3113c-6-14-5-15 5-6 7 7 10 15 7 18s-9-2-12-12z"/><path d="m10570 3122c0-13 43-26 62-19 7 3 2 6-12 6-15 1-31 6-38 13-9 9-12 9-12 0z"/><path d="m9248 3108c6-6 18-8 28-6 14 3 12 5-9 10-19 3-25 2-19-4z"/><path d="m10470 3109c0-5 5-7 10-4 6 3 10 8 10 11 0 2-4 4-10 4-5 0-10-5-10-11z"/><path d="m10519 3101c8-5 11-16 8-26-4-9-3-14 3-10 17 11 11 45-7 45-15 0-15-2-4-9z"/><path d="m10450 3084c0-18 27-36 47-31 14 4 14 5-4 6-12 0-27 9-32 19-6 9-11 12-11 6z"/><path d="m2781 3266c-7-8-11-30-9-48 2-28 7-33 28-33s26 5 28 33c3 31-11 62-28 62-4 0-13-6-19-14z"/><path d="m3504 3272c-36-23-20-96 19-90 17 2 23 11 25 36 5 45-17 72-44 54z"/><path d="m997 3274c-15-15-6-24 24-24 20 0 29 4 27 13-5 14-40 21-51 11z"/><path d="m1577 3274c-15-15-6-24 24-24 20 0 29 4 27 13-5 14-40 21-51 11z"/><path d="m1760 3205c-10-12-10-19-1-28 14-14 44 2 49 27 4 21-31 22-48 1z"/><path d="m2371 3266c-7-8-11-30-9-48 2-28 7-34 30-36 22-3 29 2 34 23 13 52-27 95-55 61z"/><path d="m2971 3266c-7-8-11-30-9-48 2-28 7-34 30-36 22-3 29 2 34 23 13 52-27 95-55 61z"/><path d="m3161 3206c-17-20 13-43 34-26 8 7 15 19 15 26 0 18-34 18-49 0z"/><path d="m3990 3275c-16-19-5-47 17-43s29 43 9 51c-8 3-20-1-26-8z"/><path d="m3971 3127c-6-8-8-17-4-20 11-11 71-8 79 4 15 25-54 40-75 16z"/><path d="m1640 2705c-16-19-15-82 1-101 15-19 44-18 63 2 18 18 21 66 6 95-13 23-53 25-70 4z"/><path d="m1342 2641c-22-13-10-46 18-49 24-4 50 19 50 45 0 15-47 18-68 4z"/><path d="m1827 2702c-34-38-9-112 38-112 27 0 45 26 45 65 0 60-47 86-83 47z"/><path d="m9037 2514c-9-10 2-24 19-24 8 0 14 7 14 15 0 15-21 21-33 9z"/><path d="m9420 2505c0-8 7-15 15-15s15 7 15 15-7 15-15 15-15-7-15-15z"/><path d="m9570 2490c0-27-2-29-29-24-50 10-79-56-46-103 12-17 24-21 60-20l45 2v88c0 71-3 87-15 87-10 0-15-10-15-30zm-5-85c0-23-5-31-22-33-20-3-23 1-23 33s3 36 23 33c17-2 22-10 22-33z"/><path d="m9640 2505c0-8 7-15 15-15s15 7 15 15-7 15-15 15-15-7-15-15z"/><path d="m10247 2514c-9-10 2-24 19-24 8 0 14 7 14 15 0 15-21 21-33 9z"/><path d="m10477 2514c-9-10 2-24 19-24 8 0 14 7 14 15 0 15-21 21-33 9z"/><path d="m8900 2425v-85h55c42 0 55 3 55 15 0 10-11 15-35 15h-35v70c0 63-2 70-20 70s-20-7-20-85z"/><path d="m10020 2426c0-69 3-86 15-86 10 0 15 16 17 63l3 62 19-62c14-46 24-63 37-63 12 0 23 17 37 63l20 62 1-62c1-49 4-63 16-63s15 16 15 85c0 82-1 85-23 85-20 0-27-9-42-60-10-33-22-57-26-53s-14 31-22 58c-12 42-18 50-40 53l-27 3z"/><path d="m9716 2473c-14-18-16-28-8-31 7-2 12-19 12-37s3-40 6-49c8-21 64-22 64-1 0 8-9 15-21 15-17 0-20 5-17 38 2 28 7 37 21 36 9-1 17 4 17 12s-9 14-20 14-20 7-20 15c0 22-13 18-34-12z"/><path d="m9037 2463c-3-5-4-33-3-63 1-44 5-55 19-58 15-3 17 5 17 62 0 51-3 66-14 66-8 0-17-3-19-7z"/><path d="m9110 2450c-27-51-1-116 43-108 23 4 26 2 29-26 2-20 9-31 18-31 12 0 16 18 18 91l3 91-51 1c-39 1-52-3-60-18zm73-24c11-27-4-57-27-54-36 5-34 68 3 68 10 0 21-6 24-14z"/><path d="m9260 2417c0-57 12-77 45-77 12 0 26 5 33 12 9 9 12 9 12 0 0-7 7-12 15-12 12 0 15 14 15 65 0 58-2 65-20 65-17 0-20-7-20-50 0-42-3-50-19-50-22 0-31 19-31 66 0 24-5 34-15 34-11 0-15-13-15-53z"/><path d="m9415 2458c-2-7-3-35-2-63 2-38 6-50 20-53 15-3 17 5 17 62 0 53-3 66-15 66-9 0-18-6-20-12z"/><path d="m9640 2405c0-51 3-65 15-65s15 14 15 65-3 65-15 65-15-14-15-65z"/><path d="m9822 2418c32-82 34-98 9-105-23-6-29-33-7-33 27 0 54 36 80 105 30 82 31 85 11 85-9 0-20-12-26-27-5-16-12-35-15-43-4-10-11 0-21 28-10 29-20 42-34 42-18 0-18-2 3-52z"/><path d="m10242 2405c2-55 5-65 20-65s18 9 18 65c0 58-2 65-20 65s-20-6-18-65z"/><path d="m10320 2403c0-49 3-63 15-63 10 0 15 10 15 34 0 19 3 41 6 50 8 22 44 20 45-1 1-10 2-31 3-48 1-20 7-31 19-33 14-3 17 5 17 51 0 31-5 59-12 65s-34 10-60 10l-48-1z"/><path d="m10477 2463c-2-5-4-34-5-65 0-51 2-58 19-58s19 7 19 65c0 50-3 65-14 65-8 0-17-3-19-7z"/><path d="m10550 2403c0-47 4-63 14-63 9 0 15 16 19 46 2 25 9 50 15 56 13 13 43-18 35-37-8-23 6-65 22-65 11 0 15 12 15 46 0 70-11 83-70 82l-50-1z"/><path d="m10711 2456c-7-8-10-34-7-65 3-30 1-51-5-51s-9-10-7-22c4-30 49-44 85-26 52 25 35 77-26 79-23 0-22 2 9 13 26 10 36 19 38 39 2 15 8 27 13 27s9 5 9 10c0 16-96 12-109-4zm57-29c2-12-3-17-17-17-15 0-21 6-21 21 0 25 33 22 38-4zm12-102c0-10-10-15-30-15-29 0-38 9-23 23 13 13 53 7 53-8z"/><path d="m9439 2213c-13-16-12-17 3-5 16 13 17 8 21-55l3-68 2 73c2 73-5 86-29 55z"/><path d="m9553 2223c9-2 25-2 35 0 9 3 1 5-18 5s-27-2-17-5z"/><path d="m9587 2167c-15-34-27-66-27-72 0-5 14 21 31 58 17 38 29 70 27 72-2 3-16-24-31-58z"/><path d="m9655 2219c-11-16-1-19 13-3 7 8 8 14 3 14s-13-5-16-11z"/><path d="m9690 2226c0-2 7-7 16-10 8-3 12-2 9 4-6 10-25 14-25 6z"/><path d="m9763 2215c-3-9-3-18-1-21 3-3 8 4 11 16 6 23-1 27-10 5z"/><path d="m9795 2190c0-21 3-36 8-33 4 2 7 17 7 33s-3 31-7 33c-5 3-8-12-8-33z"/><path d="m10010 2221c0-5-3-18-6-28-6-16-5-16 9 2 19 23 21 35 7 35-5 0-10-4-10-9z"/><path d="m10102 2158c0-40 3-58 5-40 3 23 9 32 23 32 27 0 50 11 50 23 0 7-4 7-12-1-7-7-23-12-36-12-22 0-24 4-20 35 2 19 0 35-4 35s-7-33-6-72z"/><path d="m10145 2223c11-3 24-10 28-17 6-7 7-6 4 4-2 8-14 16-28 17-19 1-20 1-4-4z"/><path d="m10228 2223c7-3 16-2 19 1 4 3-2 6-13 5-11 0-14-3-6-6z"/><path d="m10273 2219c9-5 17-18 18-27 0-11 2-12 6-4 6 15-14 42-31 42-6 0-3-5 7-11z"/><path d="m8968 2153c-3-44-5-48-30-51-17-2-28 2-31 13-4 12-5 11-3-2 1-14 11-18 39-19l37-1v53c0 67-8 71-12 7z"/><path d="m9060 2190c8-5 20-10 25-10 6 0 3 5-5 10s-19 10-25 10c-5 0-3-5 5-10z"/><path d="m9180 2157c0-45 13-67 40-66 9 0 5 4-9 10-20 8-23 15-19 54 2 25 0 45-4 45-5 0-8-19-8-43z"/><path d="m9308 2184c38-27 24-89-19-82-19 2-25 11-30 38-6 35-6 35-8 5-1-36 14-55 46-55 24 0 43 26 43 58 0 19-29 52-46 52-4 0 2-7 14-16z"/><path d="m9722 2168c-3-50-11-68-32-68-23 0-32 13-41 60-7 34-7 34-8 5-2-61 55-100 79-55 6 12 9 38 7 58l-4 37z"/><path d="m9825 2170c-9-16-13-30-11-30 3 0 12 14 21 30 9 17 13 30 11 30-3 0-12-13-21-30z"/><path d="m10035 2177c6-23 4-27-14-27-12 0-21 5-21 12 0 6-2 9-5 7-8-9-35-79-30-79 3 0 10 11 15 25 7 19 17 25 40 25s33-6 40-25c5-14 12-25 15-25 5 0-33 101-42 110-2 3-2-7 2-23z"/><path d="m9011 2116c1-52 3-63 9-41 4 17 5 42 2 57-2 16 0 34 7 41 8 10 7 14-4 14-12 0-15-15-14-71z"/><path d="m9760 2171c0-6 4-13 10-16s7 1 4 9c-7 18-14 21-14 7z"/><path d="m9851 2166c-19-23-10-71 13-71 11 0 20 6 22 13 1 7 0 8-3 2-2-5-11-10-19-10-17 0-19 51-2 68 7 7 9 12 6 12s-11-6-17-14z"/><path d="m9089 2140c-3-26-10-36-29-41-22-6-22-7-4-8 29-1 46 22 42 56-4 27-4 26-9-7z"/><path d="m10220 2159c0-5 8-9 18-9 9 0 30-14 45-32l28-33-21 36c-13 23-30 39-45 42-14 2-25 0-25-4z"/><path d="m1156 2264c-26-25-19-34 29-34 46 0 58 13 33 38-17 17-44 15-62-4z"/><path d="m1972 2201c-20-12-10-46 14-49s54 21 54 44c0 16-46 19-68 5z"/><path d="m2262 2268c-24-24-13-38 28-38 26 0 40 5 40 13 0 18-21 37-40 37-9 0-21-5-28-12z"/><path d="m2515 2263c-20-19-15-90 7-104 40-26 78 2 78 56 0 59-47 86-85 48z"/><path d="m3310 2270c-10-6-15-25-15-55 0-47 13-65 47-65 40 0 63 64 38 111-11 20-45 25-70 9z"/><path d="m3630 2261c-24-46-5-111 33-111 13 0 28 5 35 12 16 16 16 90 0 106-18 18-56 14-68-7z"/><path d="m3815 2263c-20-19-15-90 7-104 53-34 101 39 68 102-13 24-53 25-75 2z"/><path d="m4121 2196c-16-19-3-46 23-46 27 0 46 18 46 42 0 22-51 25-69 4z"/><path d="m4497 2262c-35-38-13-112 33-112 42 0 65 63 40 111-13 24-52 25-73 1z"/><path d="m6826 2251c-4-7-5-15-2-18 9-9 19 4 14 18-4 11-6 11-12 0z"/><path d="m1146 1824c-26-25-19-34 29-34 49 0 50 1 35 31-13 23-43 25-64 3z"/><path d="m1852 1761c-20-12-10-46 14-49s54 21 54 44c0 16-46 19-68 5z"/><path d="m2216 1824c-20-20-20-63 0-92 30-44 84-17 84 43 0 37-21 65-50 65-10 0-26-7-34-16z"/><path d="m9280 1410c0-71 3-90 14-90 8 0 16 10 18 22 4 31 26 34 39 4 7-14 20-26 31-26 22 0 23 13 3 30-27 22-28 50-4 76 22 24 22 24 1 24-11 0-29-11-40-25s-23-25-26-25-6 23-6 50c0 38-4 50-15 50-12 0-15-17-15-90z"/><path d="m9430 1485c0-8 7-15 15-15s15 7 15 15-7 15-15 15-15-7-15-15z"/><path d="m8914 1483c-29-21-24-46 17-84 34-31 39-40 25-45-9-3-28-3-42 0-21 6-25 4-22-11 4-22 57-30 88-13 32 17 23 60-17 85-41 26-42 43 0 47 17 2 32 8 32 13 0 12-66 18-81 8z"/><path d="m9039 1458c-14-26-12-93 3-121 6-12 18-17 35-15 32 4 44 28 14 28-18 0-21 6-21 40 0 29 4 40 15 40 8 0 15 5 15 10 0 6-7 10-15 10s-15 7-15 15c0 22-18 18-31-7z"/><path d="m9145 1440c-7-11-3-12 34-14 32-1 40-26 9-26-36 0-60-22-56-51 3-22 8-24 56-24l52-1v51c0 28-5 56-12 63-15 15-74 16-83 2zm65-69c0-5-7-14-15-21-18-15-42 1-31 19 8 13 46 15 46 2z"/><path d="m9430 1385c0-51 3-65 15-65s15 14 15 65-3 65-15 65-15-14-15-65z"/><path d="m9500 1383c0-49 3-63 15-63 10 0 15 10 15 34 0 47 9 66 31 66 19 0 21-5 23-65 1-20 7-31 19-33 14-3 17 4 17 51 0 31-5 59-12 65s-34 10-60 10l-48-1z"/><path d="m9658 1425c-8-18-8-28 0-38 11-13 6-53-10-73-26-34 40-66 89-42 51 24 35 78-24 78-13 0-23 5-23 10 0 6 11 10 25 10 25 0 51 32 40 50-3 6-1 10 4 10 6 0 11 5 11 10 0 6-23 10-50 10-44 0-52-3-62-25zm62-15c0-11-6-20-13-20-19 0-27 10-20 26 8 21 33 17 33-6zm18-107c2-9-8-13-32-13-34 0-44 8-29 24 11 11 56 2 61-11z"/><path d="m9461 1178c-13-21-13-22 2-10 14 12 16 7 20-50l3-63 2 73c2 76-4 87-27 50z"/><path d="m9542 1163c1-37 1-37 5-6 4 27 9 32 36 36 31 4 31 4-5 5-38 2-38 2-36-35z"/><path d="m9675 1190c3-5 8-10 11-10 2 0 4 5 4 10 0 6-5 10-11 10-5 0-7-4-4-10z"/><path d="m9891 1174c-6-15-10-29-7-31 2-2 7 6 11 18l7 22 15-24 14-24-7 25c-10 39-19 43-33 14z"/><path d="m10030 1191c19-5 25-14 25-33-1-15 3-24 7-22 12 8 10 38-4 52-7 7-21 12-32 11-18-1-17-2 4-8z"/><path d="m10090 1197c0-4 8-22 17-40s20-48 24-67l7-35 1 33c0 18 6 43 12 55 9 21 9 21-5 4-14-18-16-17-35 20-11 21-20 34-21 30z"/><path d="m9642 1160c0-14 2-19 5-12 2 6 2 18 0 25-3 6-5 1-5-13z"/><path d="m9180 1127c0-45 13-67 40-66 9 0 6 4-7 9-19 8-23 17-23 49 0 22 5 42 13 44 7 3 5 6-5 6-15 1-18-7-18-42z"/><path d="m9683 1144c-6-13-7-24-3-24 9 0 25 39 18 45-2 2-8-7-15-21z"/><path d="m8904 1110c1-45 1-45 39-46l37-1-2 51-1 51-6-45c-5-40-9-45-33-48-25-3-27 0-31 40l-4 43z"/><path d="m9011 1086c1-52 3-63 9-41 4 17 5 42 2 57-2 16 0 34 7 41 8 10 7 14-4 14-12 0-15-15-14-71z"/><path d="m9320 1144c8-13 10-32 6-48-5-22-11-27-34-24-22 2-28 9-33 38-6 35-6 35-8 5-1-36 14-55 44-55 12 0 26 5 33 12 17 17 15 63-5 79-15 13-15 12-3-7z"/><path d="m9757 1140c6-8 13-26 16-40l4-25 2 26c0 15-7 33-16 40-16 12-17 12-6-1z"/><path d="m9089 1110c-3-26-10-36-29-41-22-6-22-7-4-8 29-1 46 22 42 56-4 27-4 26-9-7z"/><path d="m9600 1124c19-31 6-54-32-55-31-2-32-2-5-6 50-8 77 38 40 68-15 13-15 12-3-7z"/><path d="m9700 1120c-6-11-8-20-6-20 3 0 10 9 16 20s8 20 6 20c-3 0-10-9-16-20z"/><path d="m9990 1125c0-8 9-10 25-7 14 2 25 6 25 7s-11 5-25 7c-16 3-25 1-25-7z"/><path d="m9859 1097c-6-15-9-30-7-33 3-3 8 7 12 21 5 21 12 25 41 25 20 0 35-5 35-12 0-6 3-9 6-5 13 13-13 32-43 32-26 0-35-5-44-28z"/><path d="m9415 1110c-3-5-1-10 4-10 6 0 11 5 11 10 0 6-2 10-4 10-3 0-8-4-11-10z"/><path d="m9733 1080c2-8 12-16 23-17 13-2 15-1 4 4-8 3-19 11-23 17-6 7-7 6-4-4z"/><path d="m6650 1006c0-9 30-14 35-6 4 6-3 10-14 10-12 0-21-2-21-4z"/><path d="m6671 944c0-11 3-14 6-6 3 7 2 16-1 19-3 4-6-2-5-13z"/><path d="m6980 1015c0-8 5-15 10-15 6 0 10 7 10 15s-4 15-10 15c-5 0-10-7-10-15z"/><path d="m2165 910c3-5 8-10 11-10 2 0 4 5 4 10 0 6-5 10-11 10-5 0-7-4-4-10z"/><path d="m2768 903c6-3 12-21 12-41 0-33 3-37 26-38 25-2 25-2 5 13-25 17-27 48-5 61 12 7 8 9-18 9-18 1-27-1-20-4z"/><path d="m1140 876c0-8 4-17 8-20 4-2 8 4 8 15 0 10-4 19-8 19s-8-6-8-14z"/><path d="m1313 876c-9-11-9-18 1-31 11-16 13-14 13 14 0 17-1 31-1 31-1-1-6-7-13-14z"/><path d="m1736 875c-11-8-15-15-9-15 5 0 14-10 20-22 6-15 12-18 17-10 4 7 3 12-2 12s-7 11-4 25c5 29 4 29-22 10z"/><path d="m1379 832c-2-32 0-52 6-52 7 0 9 16 7 38-6 65-8 68-13 14z"/><path d="m2880 870c-11-7-12-12-4-17 7-5 14-17 17-28s4-3 3 17c0 21-1 38-1 38s-7-5-15-10z"/><path d="m1206 833c6-32 14-44 14-20 0 10 5 17 11 17 8 0 8 5-1 15-19 23-29 18-24-12z"/><path d="m1441 823c0-31 2-34 9-18 12 28 12 55 0 55-5 0-10-17-9-37z"/><path d="m1637 841c-3-12-1-21 3-21 15 0 23 21 12 32-6 6-11 2-15-11z"/><path d="m1847 840c3-11 7-20 9-20s4 9 4 20-4 20-9 20-7-9-4-20z"/><path d="m2090 845c0-8 4-15 8-15 5 0 9 7 9 15s-4 15-9 15c-4 0-8-7-8-15z"/><path d="m2621 824c0-11 3-14 6-6 3 7 2 16-1 19-3 4-6-2-5-13z"/></g></svg>