<svg fill="none" height="528" viewBox="0 0 1257 528" width="1257" xmlns="http://www.w3.org/2000/svg"><path d="m0 0h1256.42v527.048h-1256.42z" fill="#f5f5f5"/><g fill="#0a355c"><path d="m761.503 234.932v2.156h-10.961v-1.853l5.324-5.806c.584-.659 1.044-1.228 1.381-1.707s.573-.91.708-1.292c.142-.389.213-.767.213-1.134 0-.517-.097-.97-.292-1.359-.187-.397-.464-.707-.831-.932-.367-.232-.812-.348-1.337-.348-.606 0-1.115.131-1.527.393s-.722.625-.932 1.089c-.21.457-.314.981-.314 1.573h-2.707c0-.951.217-1.82.651-2.606.435-.794 1.064-1.422 1.887-1.887.824-.471 1.816-.707 2.976-.707 1.093 0 2.022.183 2.785.55.764.367 1.344.887 1.741 1.561.404.674.607 1.471.607 2.392 0 .509-.083 1.015-.248 1.516-.164.502-.4 1.004-.707 1.505-.3.494-.655.992-1.067 1.494-.412.494-.865.996-1.359 1.505l-3.537 3.897zm4.953-7.401v9.557h-2.706v-12.151h2.549zm-.483 3.032-.876-.011c.008-.861.127-1.651.36-2.37.239-.718.569-1.336.988-1.853.427-.516.936-.913 1.527-1.19.592-.285 1.25-.427 1.977-.427.584 0 1.112.082 1.583.247.479.157.887.416 1.224.775.345.359.607.827.786 1.404.18.569.27 1.269.27 2.1v7.85h-2.718v-7.861c0-.584-.086-1.045-.258-1.382-.165-.344-.408-.587-.73-.73-.314-.149-.708-.224-1.179-.224-.464 0-.88.097-1.247.292-.367.194-.677.46-.932.797-.247.337-.438.726-.573 1.168-.134.442-.202.913-.202 1.415zm18.014 4.009v-14.734h2.718v17.25h-2.46zm-7.906-3.425v-.236c0-.921.108-1.759.325-2.515.217-.764.532-1.419.944-1.966.411-.554.913-.977 1.504-1.269.592-.299 1.258-.449 2-.449.733 0 1.377.142 1.931.427.554.284 1.026.692 1.415 1.224.39.524.7 1.153.932 1.887.232.726.397 1.534.494 2.425v.753c-.097.868-.262 1.662-.494 2.381-.232.718-.542 1.34-.932 1.864-.389.524-.865.928-1.426 1.213-.554.284-1.202.427-1.943.427-.734 0-1.396-.154-1.988-.461-.584-.307-1.082-.737-1.493-1.291-.412-.554-.727-1.206-.944-1.954-.217-.757-.325-1.576-.325-2.46zm2.706-.236v.236c0 .554.049 1.071.146 1.55.105.479.266.902.483 1.269.217.359.498.644.842.853.352.203.771.304 1.258.304.614 0 1.119-.135 1.516-.405.397-.269.708-.632.932-1.089.232-.464.39-.981.472-1.55v-2.032c-.045-.442-.138-.854-.281-1.236-.134-.382-.318-.715-.55-.999-.232-.292-.52-.517-.865-.674-.337-.165-.737-.247-1.201-.247-.495 0-.914.105-1.258.314-.345.21-.629.498-.854.865-.217.367-.378.794-.483 1.28-.104.487-.157 1.007-.157 1.561zm23.292 2.886c0-.269-.067-.512-.202-.729-.135-.225-.393-.427-.775-.607-.374-.18-.928-.344-1.662-.494-.644-.142-1.235-.311-1.774-.505-.532-.203-.989-.446-1.371-.73-.381-.285-.677-.622-.887-1.011-.209-.389-.314-.839-.314-1.348 0-.494.108-.962.325-1.404.218-.441.528-.831.933-1.168.404-.337.894-.602 1.471-.797.584-.195 1.235-.292 1.954-.292 1.018 0 1.89.172 2.617.517.733.337 1.295.797 1.684 1.381.389.576.584 1.228.584 1.954h-2.706c0-.322-.083-.621-.248-.898-.157-.285-.396-.513-.718-.685-.322-.18-.726-.27-1.213-.27-.464 0-.85.075-1.157.225-.299.142-.524.329-.674.561-.142.232-.213.487-.213.764 0 .202.037.385.112.55.083.157.217.303.405.438.187.127.441.247.763.36.33.112.741.22 1.236.325.928.195 1.725.446 2.392.753.673.299 1.19.688 1.549 1.168.36.471.539 1.07.539 1.796 0 .54-.116 1.034-.348 1.483-.224.442-.554.827-.988 1.157-.434.322-.955.572-1.561.752-.599.18-1.273.27-2.021.27-1.101 0-2.033-.195-2.797-.584-.764-.397-1.344-.903-1.741-1.516-.389-.622-.584-1.266-.584-1.932h2.617c.03.502.169.902.416 1.202.254.292.569.505.943.64.382.127.775.191 1.179.191.487 0 .895-.064 1.224-.191.33-.135.581-.315.753-.539.172-.232.258-.495.258-.787zm10.59-8.86v1.976h-6.85v-1.976zm-4.874-2.976h2.707v11.769c0 .374.052.663.157.865.112.195.266.326.461.393.194.067.423.101.685.101.187 0 .367-.011.539-.034.172-.022.31-.045.415-.067l.012 2.066c-.225.068-.487.128-.787.18-.292.052-.629.079-1.01.079-.622 0-1.172-.109-1.651-.326-.479-.225-.854-.588-1.123-1.089-.27-.502-.405-1.168-.405-1.999zm12.32 15.352c-.898 0-1.711-.146-2.437-.438-.719-.3-1.332-.715-1.842-1.247-.501-.532-.887-1.157-1.156-1.875-.27-.719-.405-1.494-.405-2.325v-.449c0-.951.139-1.812.416-2.583.277-.772.663-1.43 1.157-1.977.494-.554 1.078-.977 1.752-1.269.673-.292 1.403-.438 2.19-.438.868 0 1.628.146 2.279.438.652.292 1.191.704 1.618 1.235.434.524.756 1.15.965 1.876.217.726.326 1.527.326 2.403v1.157h-9.389v-1.943h6.716v-.213c-.015-.487-.112-.944-.292-1.37-.172-.427-.438-.772-.797-1.034-.36-.262-.839-.393-1.438-.393-.449 0-.849.098-1.201.292-.345.187-.633.461-.865.82s-.412.794-.539 1.303c-.12.501-.18 1.067-.18 1.696v.449c0 .531.071 1.026.214 1.482.149.449.366.843.651 1.179.284.337.629.603 1.033.798.404.187.865.281 1.381.281.652 0 1.232-.131 1.741-.393.509-.263.951-.633 1.325-1.112l1.427 1.381c-.262.382-.603.749-1.022 1.101-.42.344-.932.625-1.539.842-.599.217-1.295.326-2.089.326zm9.692-10.04v14.487h-2.706v-16.823h2.493zm7.918 3.627v.236c0 .883-.105 1.703-.315 2.459-.202.749-.505 1.404-.91 1.966-.396.554-.887.984-1.471 1.291s-1.258.461-2.021.461c-.756 0-1.419-.139-1.988-.416-.562-.284-1.037-.685-1.426-1.202-.39-.516-.704-1.123-.944-1.819-.232-.704-.396-1.475-.494-2.313v-.91c.098-.891.262-1.7.494-2.426.24-.726.554-1.351.944-1.875.389-.524.864-.929 1.426-1.213.562-.285 1.217-.427 1.965-.427.764 0 1.442.15 2.033.449.592.292 1.089.712 1.494 1.258.404.539.707 1.19.909 1.954.203.756.304 1.599.304 2.527zm-2.707.236v-.236c0-.561-.052-1.082-.157-1.561-.105-.487-.27-.913-.494-1.28-.225-.367-.513-.652-.865-.854-.344-.209-.76-.314-1.247-.314-.479 0-.891.082-1.235.247-.344.157-.633.378-.865.662-.232.285-.412.618-.539 1-.127.374-.217.782-.269 1.224v2.179c.09.539.243 1.033.46 1.482s.524.809.921 1.078c.404.262.921.393 1.55.393.486 0 .902-.104 1.246-.314.345-.21.626-.498.843-.865.224-.374.389-.805.494-1.291.105-.487.157-1.004.157-1.55zm13.634-6.199v12.151h-2.718v-12.151zm-2.898-3.19c0-.412.135-.752.405-1.022.277-.277.659-.415 1.145-.415.479 0 .857.138 1.134.415.277.27.416.61.416 1.022 0 .404-.139.741-.416 1.011-.277.269-.655.404-1.134.404-.486 0-.868-.135-1.145-.404-.27-.27-.405-.607-.405-1.011zm12.68 12.05c0-.269-.068-.512-.203-.729-.134-.225-.393-.427-.774-.607-.375-.18-.929-.344-1.663-.494-.643-.142-1.235-.311-1.774-.505-.532-.203-.988-.446-1.37-.73-.382-.285-.678-.622-.887-1.011-.21-.389-.315-.839-.315-1.348 0-.494.109-.962.326-1.404.217-.441.528-.831.932-1.168s.895-.602 1.471-.797c.584-.195 1.236-.292 1.954-.292 1.019 0 1.891.172 2.617.517.734.337 1.295.797 1.685 1.381.389.576.584 1.228.584 1.954h-2.707c0-.322-.082-.621-.247-.898-.157-.285-.397-.513-.719-.685-.322-.18-.726-.27-1.213-.27-.464 0-.849.075-1.156.225-.3.142-.524.329-.674.561-.142.232-.214.487-.214.764 0 .202.038.385.113.55.082.157.217.303.404.438.187.127.442.247.764.36.329.112.741.22 1.235.325.928.195 1.726.446 2.392.753.674.299 1.191.688 1.55 1.168.359.471.539 1.07.539 1.796 0 .54-.116 1.034-.348 1.483-.225.442-.554.827-.988 1.157-.435.322-.955.572-1.561.752-.599.18-1.273.27-2.022.27-1.101 0-2.033-.195-2.796-.584-.764-.397-1.344-.903-1.741-1.516-.389-.622-.584-1.266-.584-1.932h2.617c.03.502.168.902.415 1.202.255.292.569.505.944.64.381.127.774.191 1.179.191.486 0 .894-.064 1.224-.191.329-.135.58-.315.752-.539.172-.232.259-.495.259-.787zm17.598.854v-5.795c0-.434-.079-.809-.236-1.123s-.397-.558-.719-.73c-.314-.172-.711-.258-1.19-.258-.442 0-.824.075-1.146.224-.322.15-.573.352-.752.607-.18.254-.27.543-.27.865h-2.695c0-.48.116-.944.348-1.393s.569-.85 1.011-1.202.969-.629 1.583-.831 1.303-.303 2.067-.303c.913 0 1.722.154 2.425.46.712.307 1.27.772 1.674 1.393.412.614.618 1.385.618 2.314v5.401c0 .554.037 1.052.112 1.494.082.434.198.812.348 1.134v.18h-2.774c-.127-.292-.228-.663-.303-1.112-.068-.457-.101-.898-.101-1.325zm.393-4.953.022 1.674h-1.943c-.501 0-.943.048-1.325.146-.382.09-.7.224-.954.404-.255.18-.446.397-.573.651-.127.255-.191.543-.191.865s.075.618.225.887c.149.262.366.468.651.618.292.15.644.225 1.056.225.554 0 1.037-.113 1.448-.337.42-.232.749-.513.989-.843.239-.337.366-.655.381-.954l.876 1.201c-.089.307-.243.637-.46.989s-.502.689-.854 1.01c-.344.315-.759.573-1.246.775-.479.203-1.033.304-1.662.304-.794 0-1.501-.158-2.123-.472-.621-.322-1.108-.752-1.46-1.292-.352-.546-.528-1.164-.528-1.853 0-.643.12-1.212.36-1.707.247-.501.606-.921 1.078-1.257.479-.337 1.063-.592 1.752-.764.689-.18 1.475-.27 2.358-.27zm15.846 5.458c.442 0 .839-.086 1.19-.258.36-.18.648-.427.865-.741.225-.315.348-.678.371-1.089h2.549c-.015.786-.247 1.501-.696 2.145-.449.643-1.045 1.156-1.786 1.538-.741.374-1.561.562-2.459.562-.929 0-1.737-.158-2.426-.472-.689-.322-1.262-.764-1.718-1.325-.457-.562-.801-1.209-1.034-1.943-.224-.734-.336-1.52-.336-2.359v-.393c0-.838.112-1.624.336-2.358.233-.741.577-1.393 1.034-1.954.456-.562 1.029-1 1.718-1.314.689-.322 1.494-.483 2.414-.483.974 0 1.827.195 2.561.584.734.382 1.31.917 1.729 1.606.427.681.648 1.475.663 2.381h-2.549c-.023-.449-.135-.854-.337-1.213-.195-.367-.472-.659-.831-.876-.352-.217-.775-.326-1.269-.326-.547 0-1 .113-1.359.337-.359.217-.64.517-.842.899-.203.374-.349.797-.438 1.269-.083.464-.124.947-.124 1.448v.393c0 .502.041.989.124 1.46.082.472.224.895.426 1.269.21.367.495.663.854.888.359.217.816.325 1.37.325zm9.726-15.318v17.25h-2.696v-17.25zm-.472 10.725-.876-.011c.007-.839.123-1.614.348-2.325.232-.711.554-1.329.966-1.853.419-.531.921-.939 1.505-1.224.584-.292 1.231-.438 1.943-.438.599 0 1.138.082 1.617.247.486.165.906.431 1.258.797.352.36.617.832.797 1.416.187.576.281 1.28.281 2.111v7.805h-2.718v-7.828c0-.584-.086-1.048-.258-1.392-.165-.345-.408-.592-.73-.741-.322-.158-.715-.236-1.179-.236-.487 0-.918.097-1.292.292-.367.194-.674.46-.921.797s-.434.726-.561 1.168c-.12.442-.18.913-.18 1.415zm17.43 4.088v-5.795c0-.434-.079-.809-.236-1.123s-.397-.558-.719-.73c-.314-.172-.711-.258-1.19-.258-.442 0-.824.075-1.146.224-.322.15-.573.352-.752.607-.18.254-.27.543-.27.865h-2.695c0-.48.116-.944.348-1.393s.569-.85 1.011-1.202c.441-.352.969-.629 1.583-.831s1.303-.303 2.067-.303c.913 0 1.722.154 2.425.46.712.307 1.269.772 1.674 1.393.411.614.617 1.385.617 2.314v5.401c0 .554.038 1.052.113 1.494.082.434.198.812.348 1.134v.18h-2.774c-.127-.292-.228-.663-.303-1.112-.068-.457-.101-.898-.101-1.325zm.393-4.953.022 1.674h-1.943c-.501 0-.943.048-1.325.146-.382.09-.7.224-.955.404-.254.18-.445.397-.572.651-.128.255-.191.543-.191.865s.075.618.224.887c.15.262.367.468.652.618.292.15.644.225 1.055.225.554 0 1.037-.113 1.449-.337.419-.232.749-.513.988-.843.24-.337.367-.655.382-.954l.876 1.201c-.09.307-.243.637-.46.989s-.502.689-.854 1.01c-.344.315-.76.573-1.246.775-.479.203-1.033.304-1.662.304-.794 0-1.502-.158-2.123-.472-.621-.322-1.108-.752-1.46-1.292-.352-.546-.528-1.164-.528-1.853 0-.643.12-1.212.36-1.707.247-.501.606-.921 1.078-1.257.479-.337 1.063-.592 1.752-.764.689-.18 1.475-.27 2.358-.27zm10.725-4.761v1.976h-6.851v-1.976zm-4.874-2.976h2.706v11.769c0 .374.053.663.157.865.113.195.266.326.461.393s.423.101.685.101c.187 0 .367-.011.539-.034.172-.022.311-.045.416-.067l.011 2.066c-.225.068-.487.128-.786.18-.292.052-.629.079-1.011.079-.621 0-1.172-.109-1.651-.326-.479-.225-.853-.588-1.123-1.089-.27-.502-.404-1.168-.404-1.999zm6.974-2.123h2.706v14.656l-.258 2.594h-2.448zm10.635 11.062v.236c0 .898-.101 1.726-.303 2.482-.195.748-.494 1.4-.899 1.954-.396.554-.891.984-1.482 1.291-.584.3-1.262.45-2.033.45-.756 0-1.415-.143-1.976-.427-.562-.285-1.033-.689-1.415-1.213-.375-.524-.678-1.149-.91-1.876-.232-.726-.397-1.527-.494-2.403v-.752c.097-.884.262-1.685.494-2.404.232-.726.535-1.351.91-1.875.382-.532.849-.94 1.404-1.224.561-.285 1.216-.427 1.965-.427.778 0 1.464.15 2.055.449.599.3 1.097.726 1.494 1.281.396.546.692 1.197.887 1.954.202.756.303 1.591.303 2.504zm-2.706.236v-.236c0-.547-.045-1.059-.135-1.539-.09-.486-.24-.913-.449-1.28-.203-.367-.48-.655-.831-.865-.345-.217-.775-.325-1.292-.325-.479 0-.891.082-1.235.247-.345.165-.633.389-.865.674-.232.284-.416.614-.55.988-.128.374-.214.779-.259 1.213v2.033c.068.561.21 1.078.427 1.549.225.465.539.839.943 1.123.405.277.925.416 1.561.416.502 0 .925-.101 1.27-.303.344-.202.617-.483.819-.843.21-.366.36-.793.45-1.28.097-.487.146-1.011.146-1.572zm4.481.011v-.258c0-.876.127-1.689.381-2.437.255-.756.622-1.412 1.101-1.966.487-.561 1.078-.995 1.774-1.302.704-.315 1.498-.472 2.381-.472.891 0 1.685.157 2.381.472.704.307 1.299.741 1.786 1.302.486.554.857 1.21 1.112 1.966.254.748.381 1.561.381 2.437v.258c0 .876-.127 1.688-.381 2.437-.255.749-.626 1.404-1.112 1.965-.487.554-1.078.989-1.775 1.303-.696.307-1.486.461-2.369.461-.891 0-1.689-.154-2.392-.461-.697-.314-1.288-.749-1.775-1.303-.486-.561-.857-1.216-1.112-1.965-.254-.749-.381-1.561-.381-2.437zm2.706-.258v.258c0 .547.056 1.063.169 1.55.112.487.288.913.527 1.28.24.367.547.655.921.865.375.21.82.314 1.337.314.501 0 .936-.104 1.302-.314.375-.21.682-.498.921-.865.24-.367.416-.793.528-1.28.12-.487.18-1.003.18-1.55v-.258c0-.539-.06-1.048-.18-1.528-.112-.486-.292-.917-.539-1.291-.24-.374-.546-.666-.921-.876-.367-.217-.805-.326-1.314-.326s-.951.109-1.325.326c-.367.21-.67.502-.91.876-.239.374-.415.805-.527 1.291-.113.48-.169.989-.169 1.528zm16.43-5.952v1.976h-6.85v-1.976zm-4.874-2.976h2.707v11.769c0 .374.052.663.157.865.112.195.266.326.46.393.195.067.423.101.685.101.188 0 .367-.011.54-.034.172-.022.31-.045.415-.067l.011 2.066c-.224.068-.486.128-.786.18-.292.052-.629.079-1.011.079-.621 0-1.171-.109-1.65-.326-.48-.225-.854-.588-1.123-1.089-.27-.502-.405-1.168-.405-1.999zm15.992 12.432 2.808-9.456h1.73l-.472 2.83-2.83 9.321h-1.55zm-1.65-9.456 2.189 9.501.18 2.65h-1.729l-3.291-12.151zm8.815 9.388 2.123-9.388h2.639l-3.279 12.151h-1.73zm-2.335-9.388 2.773 9.343.349 2.808h-1.55l-2.864-9.333-.472-2.818zm11.612-5.099v17.25h-2.696v-17.25zm-.472 10.725-.876-.011c.008-.839.124-1.614.348-2.325.232-.711.554-1.329.966-1.853.419-.531.921-.939 1.505-1.224.584-.292 1.232-.438 1.943-.438.599 0 1.138.082 1.617.247.487.165.906.431 1.258.797.352.36.618.832.797 1.416.187.576.281 1.28.281 2.111v7.805h-2.718v-7.828c0-.584-.086-1.048-.258-1.392-.165-.345-.408-.592-.73-.741-.322-.158-.715-.236-1.179-.236-.487 0-.917.097-1.292.292-.367.194-.674.46-.921.797s-.434.726-.561 1.168c-.12.442-.18.913-.18 1.415zm15.933 6.75c-.9 0-1.71-.146-2.43-.438-.72-.3-1.34-.715-1.85-1.247-.5-.532-.88-1.157-1.15-1.875-.27-.719-.41-1.494-.41-2.325v-.449c0-.951.14-1.812.42-2.583.28-.772.66-1.43 1.16-1.977.49-.554 1.07-.977 1.75-1.269.67-.292 1.4-.438 2.19-.438.87 0 1.63.146 2.28.438s1.19.704 1.61 1.235c.44.524.76 1.15.97 1.876.22.726.33 1.527.33 2.403v1.157h-9.39v-1.943h6.71v-.213c-.01-.487-.11-.944-.29-1.37-.17-.427-.44-.772-.8-1.034s-.83-.393-1.43-.393c-.45 0-.85.098-1.21.292-.34.187-.63.461-.86.82s-.41.794-.54 1.303c-.12.501-.18 1.067-.18 1.696v.449c0 .531.07 1.026.21 1.482.15.449.37.843.66 1.179.28.337.62.603 1.03.798.4.187.86.281 1.38.281.65 0 1.23-.131 1.74-.393.51-.263.95-.633 1.33-1.112l1.42 1.381c-.26.382-.6.749-1.02 1.101-.42.344-.93.625-1.54.842-.6.217-1.29.326-2.09.326zm9.7-10.063v9.838h-2.71v-12.151h2.58zm3.71-2.392-.02 2.516c-.16-.03-.34-.053-.54-.068-.19-.015-.37-.022-.56-.022-.46 0-.87.067-1.22.202-.36.127-.65.314-.89.561-.23.24-.41.532-.54.876-.13.345-.2.73-.23 1.157l-.61.045c0-.764.07-1.471.22-2.122.15-.652.38-1.225.68-1.719s.68-.879 1.14-1.156 1-.416 1.61-.416c.16 0 .34.015.52.045.2.03.35.064.44.101zm6.83 12.455c-.9 0-1.71-.146-2.44-.438-.72-.3-1.33-.715-1.84-1.247-.5-.532-.89-1.157-1.16-1.875-.26-.719-.4-1.494-.4-2.325v-.449c0-.951.14-1.812.42-2.583.27-.772.66-1.43 1.15-1.977.5-.554 1.08-.977 1.75-1.269.68-.292 1.41-.438 2.19-.438.87 0 1.63.146 2.28.438.66.292 1.19.704 1.62 1.235.44.524.76 1.15.97 1.876s.32 1.527.32 2.403v1.157h-9.39v-1.943h6.72v-.213c-.01-.487-.11-.944-.29-1.37-.17-.427-.44-.772-.8-1.034s-.84-.393-1.44-.393c-.45 0-.85.098-1.2.292-.34.187-.63.461-.86.82s-.41.794-.54 1.303c-.12.501-.18 1.067-.18 1.696v.449c0 .531.07 1.026.21 1.482.15.449.37.843.65 1.179.29.337.63.603 1.04.798.4.187.86.281 1.38.281.65 0 1.23-.131 1.74-.393.51-.263.95-.633 1.32-1.112l1.43 1.381c-.26.382-.6.749-1.02 1.101-.42.344-.93.625-1.54.842-.6.217-1.3.326-2.09.326zm-268.879 37.447v-14.409l.314-2.414h2.415v16.823zm-7.895-10.624v-.236c0-.921.104-1.759.314-2.516.21-.763.52-1.418.932-1.965.412-.546.914-.966 1.505-1.258.592-.299 1.273-.449 2.044-.449.749 0 1.4.142 1.954.427.562.284 1.033.692 1.415 1.224.389.524.7 1.149.932 1.875.232.727.401 1.535.506 2.426v.753c-.098.868-.262 1.662-.495 2.38-.232.719-.542 1.341-.932 1.865-.389.524-.864.932-1.426 1.224-.561.284-1.22.427-1.976.427-.757 0-1.43-.154-2.022-.461-.591-.307-1.093-.737-1.505-1.291-.404-.562-.715-1.217-.932-1.966-.21-.756-.314-1.576-.314-2.459zm2.706-.236v.236c0 .554.049 1.074.146 1.561.105.479.27.906.494 1.28.225.367.509.655.854.865.344.21.76.314 1.246.314.637 0 1.157-.138 1.561-.415.412-.277.727-.648.944-1.112.224-.472.382-.992.471-1.561v-2.033c-.052-.441-.146-.853-.28-1.235-.135-.389-.322-.726-.562-1.011-.232-.292-.524-.516-.876-.674-.344-.164-.756-.247-1.235-.247-.487 0-.906.105-1.258.315-.352.209-.64.501-.865.876-.217.367-.378.793-.483 1.28-.104.487-.157 1.007-.157 1.561zm18.126 3.324v-9.287h2.718v12.151h-2.561zm.382-2.527.91-.022c0 .816-.09 1.568-.27 2.257-.18.682-.457 1.277-.831 1.786-.374.502-.854.895-1.437 1.179-.584.277-1.285.416-2.101.416-.591 0-1.134-.086-1.628-.259-.494-.172-.921-.438-1.28-.797-.352-.359-.625-.827-.82-1.404-.195-.576-.292-1.265-.292-2.066v-7.85h2.706v7.872c0 .442.053.813.158 1.112.104.292.247.528.426.708.18.179.39.307.629.381.24.075.494.113.764.113.771 0 1.378-.15 1.819-.45.45-.307.768-.718.955-1.235.195-.516.292-1.097.292-1.741zm10.467 5.616c-.899 0-1.711-.146-2.437-.438-.719-.3-1.333-.715-1.842-1.247-.502-.532-.887-1.157-1.157-1.875-.269-.719-.404-1.494-.404-2.325v-.449c0-.951.138-1.812.415-2.583.277-.772.663-1.43 1.157-1.977.494-.554 1.078-.977 1.752-1.269s1.404-.438 2.19-.438c.869 0 1.628.146 2.28.438.651.292 1.19.704 1.617 1.235.434.524.756 1.15.966 1.876.217.726.326 1.527.326 2.403v1.157h-9.389v-1.943h6.716v-.213c-.015-.487-.113-.944-.292-1.37-.173-.427-.438-.772-.798-1.034-.359-.262-.838-.393-1.437-.393-.449 0-.85.098-1.202.292-.344.187-.633.461-.865.82s-.411.794-.539 1.303c-.119.501-.179 1.067-.179 1.696v.449c0 .531.071 1.026.213 1.482.15.449.367.843.651 1.179.285.337.629.603 1.034.798.404.187.864.281 1.381.281.651 0 1.232-.131 1.741-.393.509-.263.951-.633 1.325-1.112l1.426 1.381c-.262.382-.603.749-1.022 1.101-.419.344-.932.625-1.538.842-.599.217-1.296.326-2.089.326zm13.791-3.516c0-.269-.068-.512-.202-.729-.135-.225-.393-.427-.775-.607-.375-.18-.929-.344-1.662-.494-.644-.142-1.236-.311-1.775-.505-.531-.203-.988-.446-1.37-.73-.382-.285-.678-.622-.887-1.011-.21-.389-.315-.839-.315-1.348 0-.494.109-.962.326-1.404.217-.441.528-.831.932-1.168s.895-.602 1.471-.797c.584-.195 1.236-.292 1.954-.292 1.019 0 1.891.172 2.617.517.734.337 1.295.797 1.685 1.381.389.576.584 1.228.584 1.954h-2.707c0-.322-.082-.621-.247-.898-.157-.285-.397-.513-.719-.685-.322-.18-.726-.27-1.213-.27-.464 0-.849.075-1.156.225-.3.142-.524.329-.674.561-.142.232-.213.487-.213.764 0 .202.037.385.112.55.082.157.217.303.404.438.187.127.442.247.764.36.329.112.741.22 1.235.325.929.195 1.726.446 2.392.753.674.299 1.191.688 1.55 1.168.359.471.539 1.07.539 1.796 0 .54-.116 1.034-.348 1.483-.225.442-.554.827-.988 1.157-.435.322-.955.572-1.561.752-.599.18-1.273.27-2.022.27-1.1 0-2.033-.195-2.796-.584-.764-.397-1.344-.903-1.741-1.516-.389-.622-.584-1.266-.584-1.932h2.617c.03.502.168.902.415 1.202.255.292.569.505.944.64.382.127.775.191 1.179.191.487 0 .895-.064 1.224-.191.329-.135.58-.315.752-.539.173-.232.259-.495.259-.787zm10.59-8.86v1.976h-6.851v-1.976zm-4.874-2.976h2.707v11.769c0 .374.052.663.157.865.112.195.266.326.46.393.195.067.423.101.685.101.187 0 .367-.011.539-.034.173-.022.311-.045.416-.067l.011 2.066c-.224.068-.487.128-.786.18-.292.052-.629.079-1.011.079-.621 0-1.171-.109-1.651-.326-.479-.225-.853-.588-1.123-1.089-.269-.502-.404-1.168-.404-1.999zm9.86 2.976v12.151h-2.717v-12.151zm-2.897-3.19c0-.412.135-.752.404-1.022.277-.277.659-.415 1.146-.415.479 0 .857.138 1.134.415.277.27.416.61.416 1.022 0 .404-.139.741-.416 1.011-.277.269-.655.404-1.134.404-.487 0-.869-.135-1.146-.404-.269-.27-.404-.607-.404-1.011zm5.346 9.4v-.258c0-.876.127-1.689.381-2.437.255-.756.622-1.412 1.101-1.966.487-.561 1.078-.995 1.774-1.302.704-.315 1.498-.472 2.381-.472.891 0 1.685.157 2.381.472.704.307 1.299.741 1.786 1.302.486.554.857 1.21 1.112 1.966.254.748.381 1.561.381 2.437v.258c0 .876-.127 1.688-.381 2.437-.255.749-.626 1.404-1.112 1.965-.487.554-1.078.989-1.775 1.303-.696.307-1.486.461-2.369.461-.891 0-1.689-.154-2.392-.461-.697-.314-1.288-.749-1.775-1.303-.486-.561-.857-1.216-1.112-1.965-.254-.749-.381-1.561-.381-2.437zm2.706-.258v.258c0 .547.056 1.063.169 1.55.112.487.288.913.527 1.28.24.367.547.655.921.865.375.21.82.314 1.337.314.501 0 .936-.104 1.303-.314.374-.21.681-.498.92-.865.24-.367.416-.793.528-1.28.12-.487.18-1.003.18-1.55v-.258c0-.539-.06-1.048-.18-1.528-.112-.486-.292-.917-.539-1.291-.239-.374-.546-.666-.921-.876-.367-.217-.805-.326-1.314-.326s-.951.109-1.325.326c-.367.21-.67.502-.91.876-.239.374-.415.805-.527 1.291-.113.48-.169.989-.169 1.528zm13.544-3.358v9.557h-2.706v-12.151h2.549zm-.483 3.032-.876-.011c.008-.861.128-1.651.36-2.37.239-.718.569-1.336.988-1.853.427-.516.936-.913 1.527-1.19.592-.285 1.251-.427 1.977-.427.584 0 1.112.082 1.583.247.479.157.888.416 1.224.775.345.359.607.827.787 1.404.179.569.269 1.269.269 2.1v7.85h-2.718v-7.861c0-.584-.086-1.045-.258-1.382-.165-.344-.408-.587-.73-.73-.314-.149-.707-.224-1.179-.224-.464 0-.88.097-1.247.292-.367.194-.677.46-.932.797-.247.337-.438.726-.573 1.168-.134.442-.202.913-.202 1.415zm17.419 3.234c0-.269-.068-.512-.202-.729-.135-.225-.394-.427-.775-.607-.375-.18-.929-.344-1.662-.494-.644-.142-1.236-.311-1.775-.505-.531-.203-.988-.446-1.37-.73-.382-.285-.678-.622-.887-1.011-.21-.389-.315-.839-.315-1.348 0-.494.109-.962.326-1.404.217-.441.528-.831.932-1.168s.895-.602 1.471-.797c.584-.195 1.236-.292 1.954-.292 1.019 0 1.891.172 2.617.517.734.337 1.295.797 1.685 1.381.389.576.584 1.228.584 1.954h-2.707c0-.322-.082-.621-.247-.898-.157-.285-.397-.513-.719-.685-.322-.18-.726-.27-1.213-.27-.464 0-.849.075-1.156.225-.3.142-.524.329-.674.561-.142.232-.214.487-.214.764 0 .202.038.385.113.55.082.157.217.303.404.438.187.127.442.247.764.36.329.112.741.22 1.235.325.928.195 1.726.446 2.392.753.674.299 1.191.688 1.55 1.168.359.471.539 1.07.539 1.796 0 .54-.116 1.034-.348 1.483-.225.442-.554.827-.988 1.157-.435.322-.955.572-1.561.752-.599.18-1.273.27-2.022.27-1.1 0-2.033-.195-2.796-.584-.764-.397-1.344-.903-1.741-1.516-.389-.622-.584-1.266-.584-1.932h2.617c.03.502.168.902.415 1.202.255.292.569.505.944.64.381.127.775.191 1.179.191.486 0 .895-.064 1.224-.191.329-.135.58-.315.752-.539.173-.232.259-.495.259-.787zm13.431-6.266v9.557h-2.706v-12.151h2.549zm-.483 3.032-.876-.011c.008-.861.128-1.651.36-2.37.239-.718.569-1.336.988-1.853.427-.516.936-.913 1.527-1.19.592-.285 1.251-.427 1.977-.427.584 0 1.112.082 1.583.247.48.157.888.416 1.225.775.344.359.606.827.786 1.404.179.569.269 1.269.269 2.1v7.85h-2.718v-7.861c0-.584-.086-1.045-.258-1.382-.165-.344-.408-.587-.73-.73-.314-.149-.707-.224-1.179-.224-.464 0-.88.097-1.247.292-.366.194-.677.46-.932.797-.247.337-.438.726-.572 1.168-.135.442-.203.913-.203 1.415zm15.959 6.75c-.899 0-1.711-.146-2.437-.438-.719-.3-1.333-.715-1.842-1.247-.502-.532-.887-1.157-1.157-1.875-.269-.719-.404-1.494-.404-2.325v-.449c0-.951.139-1.812.416-2.583.277-.772.662-1.43 1.156-1.977.494-.554 1.078-.977 1.752-1.269s1.404-.438 2.19-.438c.869 0 1.629.146 2.28.438s1.19.704 1.617 1.235c.434.524.756 1.15.966 1.876.217.726.326 1.527.326 2.403v1.157h-9.389v-1.943h6.716v-.213c-.015-.487-.112-.944-.292-1.37-.172-.427-.438-.772-.798-1.034-.359-.262-.838-.393-1.437-.393-.449 0-.85.098-1.202.292-.344.187-.632.461-.864.82-.233.359-.412.794-.539 1.303-.12.501-.18 1.067-.18 1.696v.449c0 .531.071 1.026.213 1.482.15.449.367.843.652 1.179.284.337.628.603 1.033.798.404.187.865.281 1.381.281.651 0 1.232-.131 1.741-.393.509-.263.951-.633 1.325-1.112l1.426 1.381c-.262.382-.602.749-1.022 1.101-.419.344-.932.625-1.538.842-.599.217-1.295.326-2.089.326zm12.331 0c-.898 0-1.711-.146-2.437-.438-.719-.3-1.333-.715-1.842-1.247-.501-.532-.887-1.157-1.157-1.875-.269-.719-.404-1.494-.404-2.325v-.449c0-.951.139-1.812.416-2.583.277-.772.662-1.43 1.156-1.977.495-.554 1.079-.977 1.752-1.269.674-.292 1.404-.438 2.19-.438.869 0 1.629.146 2.28.438s1.19.704 1.617 1.235c.434.524.756 1.15.966 1.876.217.726.326 1.527.326 2.403v1.157h-9.389v-1.943h6.716v-.213c-.015-.487-.112-.944-.292-1.37-.172-.427-.438-.772-.797-1.034-.36-.262-.839-.393-1.438-.393-.449 0-.85.098-1.202.292-.344.187-.632.461-.864.82s-.412.794-.539 1.303c-.12.501-.18 1.067-.18 1.696v.449c0 .531.071 1.026.213 1.482.15.449.367.843.652 1.179.284.337.629.603 1.033.798.404.187.865.281 1.381.281.652 0 1.232-.131 1.741-.393.509-.263.951-.633 1.325-1.112l1.426 1.381c-.262.382-.602.749-1.022 1.101-.419.344-.932.625-1.538.842-.599.217-1.295.326-2.089.326zm14.386-2.741v-14.734h2.718v17.25h-2.46zm-7.906-3.425v-.236c0-.921.108-1.759.326-2.515.217-.764.531-1.419.943-1.966.412-.554.913-.977 1.505-1.269.591-.299 1.258-.449 1.999-.449.734 0 1.377.142 1.932.427.554.284 1.025.692 1.415 1.224.389.524.7 1.153.932 1.887.232.726.397 1.534.494 2.425v.753c-.097.868-.262 1.662-.494 2.381-.232.718-.543 1.34-.932 1.864-.39.524-.865.928-1.427 1.213-.554.284-1.201.427-1.943.427-.733 0-1.396-.154-1.987-.461-.584-.307-1.082-.737-1.494-1.291s-.726-1.206-.943-1.954c-.218-.757-.326-1.576-.326-2.46zm2.706-.236v.236c0 .554.049 1.071.146 1.55.105.479.266.902.483 1.269.218.359.498.644.843.853.352.203.771.304 1.257.304.614 0 1.12-.135 1.517-.405.396-.269.707-.632.932-1.089.232-.464.389-.981.471-1.55v-2.032c-.045-.442-.138-.854-.28-1.236-.135-.382-.319-.715-.551-.999-.232-.292-.52-.517-.864-.674-.337-.165-.738-.247-1.202-.247-.494 0-.913.105-1.258.314-.344.21-.629.498-.853.865-.218.367-.378.794-.483 1.28-.105.487-.158 1.007-.158 1.561zm22.046-5.974v1.976h-6.851v-1.976zm-4.874-2.976h2.706v11.769c0 .374.053.663.158.865.112.195.265.326.46.393s.423.101.685.101c.187 0 .367-.011.539-.034.172-.022.311-.045.416-.067l.011 2.066c-.225.068-.487.128-.786.18-.292.052-.629.079-1.011.079-.621 0-1.172-.109-1.651-.326-.479-.225-.853-.588-1.123-1.089-.269-.502-.404-1.168-.404-1.999zm6.177 9.186v-.258c0-.876.127-1.689.381-2.437.255-.756.622-1.412 1.101-1.966.487-.561 1.078-.995 1.774-1.302.704-.315 1.498-.472 2.381-.472.891 0 1.685.157 2.381.472.704.307 1.299.741 1.786 1.302.486.554.857 1.21 1.112 1.966.254.748.381 1.561.381 2.437v.258c0 .876-.127 1.688-.381 2.437-.255.749-.626 1.404-1.112 1.965-.487.554-1.078.989-1.775 1.303-.696.307-1.486.461-2.369.461-.891 0-1.689-.154-2.392-.461-.697-.314-1.288-.749-1.775-1.303-.486-.561-.857-1.216-1.112-1.965-.254-.749-.381-1.561-.381-2.437zm2.706-.258v.258c0 .547.056 1.063.169 1.55.112.487.288.913.527 1.28.24.367.547.655.921.865.375.21.82.314 1.337.314.501 0 .936-.104 1.303-.314.374-.21.681-.498.92-.865.24-.367.416-.793.528-1.28.12-.487.18-1.003.18-1.55v-.258c0-.539-.06-1.048-.18-1.528-.112-.486-.292-.917-.539-1.291-.239-.374-.546-.666-.921-.876-.367-.217-.805-.326-1.314-.326s-.951.109-1.325.326c-.367.21-.67.502-.91.876-.239.374-.415.805-.527 1.291-.113.48-.169.989-.169 1.528zm16.599-11.051h2.706v14.656l-.258 2.594h-2.448zm10.635 11.062v.236c0 .898-.101 1.726-.303 2.482-.195.748-.494 1.4-.899 1.954-.396.554-.891.984-1.482 1.291-.584.3-1.262.45-2.033.45-.756 0-1.415-.143-1.976-.427-.562-.285-1.034-.689-1.415-1.213-.375-.524-.678-1.149-.91-1.876-.232-.726-.397-1.527-.494-2.403v-.752c.097-.884.262-1.685.494-2.404.232-.726.535-1.351.91-1.875.381-.532.849-.94 1.403-1.224.562-.285 1.217-.427 1.966-.427.778 0 1.463.15 2.055.449.599.3 1.097.726 1.494 1.281.396.546.692 1.197.887 1.954.202.756.303 1.591.303 2.504zm-2.706.236v-.236c0-.547-.045-1.059-.135-1.539-.09-.486-.24-.913-.449-1.28-.203-.367-.48-.655-.832-.865-.344-.217-.774-.325-1.291-.325-.479 0-.891.082-1.235.247-.345.165-.633.389-.865.674-.232.284-.416.614-.55.988-.128.374-.214.779-.259 1.213v2.033c.068.561.21 1.078.427 1.549.225.465.539.839.943 1.123.405.277.925.416 1.561.416.502 0 .925-.101 1.269-.303.345-.202.618-.483.82-.843.21-.366.36-.793.45-1.28.097-.487.146-1.011.146-1.572zm10.354 6.177c-.898 0-1.711-.146-2.437-.438-.719-.3-1.333-.715-1.842-1.247-.501-.532-.887-1.157-1.157-1.875-.269-.719-.404-1.494-.404-2.325v-.449c0-.951.139-1.812.416-2.583.277-.772.662-1.43 1.156-1.977.495-.554 1.079-.977 1.752-1.269.674-.292 1.404-.438 2.19-.438.869 0 1.629.146 2.28.438s1.191.704 1.617 1.235c.435.524.756 1.15.966 1.876.217.726.326 1.527.326 2.403v1.157h-9.389v-1.943h6.716v-.213c-.015-.487-.112-.944-.292-1.37-.172-.427-.438-.772-.797-1.034-.36-.262-.839-.393-1.438-.393-.449 0-.85.098-1.202.292-.344.187-.632.461-.864.82s-.412.794-.539 1.303c-.12.501-.18 1.067-.18 1.696v.449c0 .531.071 1.026.213 1.482.15.449.367.843.652 1.179.284.337.629.603 1.033.798.404.187.865.281 1.381.281.652 0 1.232-.131 1.741-.393.509-.263.951-.633 1.325-1.112l1.426 1.381c-.262.382-.602.749-1.022 1.101-.419.344-.932.625-1.538.842-.599.217-1.295.326-2.089.326zm-200.7 30.338v-5.795c0-.434-.078-.809-.236-1.123-.157-.314-.396-.558-.718-.73-.315-.172-.712-.258-1.191-.258-.441 0-.823.075-1.145.224-.322.15-.573.352-.753.607-.179.254-.269.543-.269.865h-2.696c0-.48.117-.944.349-1.393s.569-.85 1.01-1.202c.442-.352.97-.629 1.584-.831s1.303-.303 2.066-.303c.914 0 1.722.154 2.426.46.711.307 1.269.772 1.673 1.393.412.614.618 1.385.618 2.314v5.401c0 .554.038 1.052.112 1.494.083.434.199.812.349 1.134v.18h-2.774c-.128-.292-.229-.663-.304-1.112-.067-.457-.101-.898-.101-1.325zm.393-4.953.023 1.674h-1.943c-.502 0-.943.048-1.325.146-.382.09-.7.224-.955.404-.254.18-.445.397-.573.651-.127.255-.191.543-.191.865s.075.618.225.887c.15.262.367.468.651.618.292.15.644.225 1.056.225.554 0 1.037-.113 1.449-.337.419-.232.749-.513.988-.843.24-.337.367-.655.382-.954l.876 1.201c-.09.307-.243.637-.46.989-.218.352-.502.689-.854 1.01-.344.315-.76.573-1.247.775-.479.203-1.033.304-1.662.304-.793 0-1.501-.158-2.122-.472-.622-.322-1.108-.752-1.46-1.292-.352-.546-.528-1.164-.528-1.853 0-.643.12-1.212.359-1.707.247-.501.607-.921 1.078-1.257.48-.337 1.064-.592 1.752-.764.689-.18 1.475-.27 2.359-.27zm7.839-2.167v9.557h-2.706v-12.151h2.549zm-.483 3.032-.876-.011c.008-.861.128-1.651.36-2.37.239-.718.569-1.336.988-1.853.427-.516.936-.913 1.527-1.19.592-.285 1.251-.427 1.977-.427.584 0 1.112.082 1.583.247.48.157.888.416 1.225.775.344.359.606.827.786 1.404.179.569.269 1.269.269 2.1v7.85h-2.718v-7.861c0-.584-.086-1.045-.258-1.382-.165-.344-.408-.587-.73-.73-.314-.149-.707-.224-1.179-.224-.464 0-.88.097-1.247.292-.367.194-.677.46-.932.797-.247.337-.438.726-.573 1.168-.134.442-.202.913-.202 1.415zm17.419 3.234c0-.269-.068-.512-.202-.729-.135-.225-.393-.427-.775-.607-.375-.18-.929-.344-1.662-.494-.644-.142-1.236-.311-1.775-.505-.531-.203-.988-.446-1.37-.73-.382-.285-.677-.622-.887-1.011s-.315-.839-.315-1.348c0-.494.109-.962.326-1.404.217-.441.528-.831.932-1.168.405-.337.895-.602 1.471-.797.584-.195 1.236-.292 1.955-.292 1.018 0 1.89.172 2.616.517.734.337 1.295.797 1.685 1.381.389.576.584 1.228.584 1.954h-2.707c0-.322-.082-.621-.247-.898-.157-.285-.397-.513-.719-.685-.322-.18-.726-.27-1.212-.27-.465 0-.85.075-1.157.225-.3.142-.524.329-.674.561-.142.232-.213.487-.213.764 0 .202.037.385.112.55.082.157.217.303.404.438.187.127.442.247.764.36.329.112.741.22 1.235.325.929.195 1.726.446 2.392.753.674.299 1.191.688 1.55 1.168.359.471.539 1.07.539 1.796 0 .54-.116 1.034-.348 1.483-.225.442-.554.827-.988 1.157-.435.322-.955.572-1.561.752-.599.18-1.273.27-2.022.27-1.1 0-2.032-.195-2.796-.584-.764-.397-1.344-.903-1.741-1.516-.389-.622-.584-1.266-.584-1.932h2.617c.03.502.168.902.415 1.202.255.292.569.505.944.64.382.127.775.191 1.179.191.487 0 .895-.064 1.224-.191.329-.135.58-.315.752-.539.173-.232.259-.495.259-.787zm8.322.596 2.807-9.456h1.73l-.472 2.83-2.83 9.321h-1.55zm-1.651-9.456 2.19 9.501.179 2.65h-1.729l-3.291-12.151zm8.816 9.388 2.122-9.388h2.639l-3.279 12.151h-1.729zm-2.336-9.388 2.774 9.343.348 2.808h-1.55l-2.864-9.333-.472-2.818zm14.296 12.376c-.898 0-1.711-.146-2.437-.438-.719-.3-1.333-.715-1.842-1.247-.501-.532-.887-1.157-1.157-1.875-.269-.719-.404-1.494-.404-2.325v-.449c0-.951.139-1.812.416-2.583.277-.772.662-1.43 1.156-1.977.495-.554 1.079-.977 1.752-1.269.674-.292 1.404-.438 2.19-.438.869 0 1.629.146 2.28.438.652.292 1.191.704 1.617 1.235.435.524.757 1.15.966 1.876.217.726.326 1.527.326 2.403v1.157h-9.389v-1.943h6.716v-.213c-.015-.487-.112-.944-.292-1.37-.172-.427-.438-.772-.797-1.034-.36-.262-.839-.393-1.438-.393-.449 0-.85.098-1.202.292-.344.187-.632.461-.864.82s-.412.794-.539 1.303c-.12.501-.18 1.067-.18 1.696v.449c0 .531.071 1.026.213 1.482.15.449.367.843.652 1.179.284.337.629.603 1.033.798.404.187.865.281 1.381.281.652 0 1.232-.131 1.741-.393.509-.263.951-.633 1.325-1.112l1.426 1.381c-.262.382-.602.749-1.022 1.101-.419.344-.932.625-1.538.842-.599.217-1.295.326-2.089.326zm9.692-10.063v9.838h-2.707v-12.151h2.583zm3.717-2.392-.022 2.516c-.165-.03-.345-.053-.539-.068-.187-.015-.375-.022-.562-.022-.464 0-.872.067-1.224.202-.352.127-.648.314-.887.561-.232.24-.412.532-.539.876-.127.345-.202.73-.225 1.157l-.618.045c0-.764.075-1.471.225-2.122.15-.652.374-1.225.674-1.719.307-.494.689-.879 1.145-1.156.465-.277 1-.416 1.606-.416.165 0 .341.015.528.045.195.03.341.064.438.101zm6.828 12.455c-.898 0-1.71-.146-2.437-.438-.718-.3-1.332-.715-1.841-1.247-.502-.532-.888-1.157-1.157-1.875-.27-.719-.405-1.494-.405-2.325v-.449c0-.951.139-1.812.416-2.583.277-.772.663-1.43 1.157-1.977.494-.554 1.078-.977 1.752-1.269s1.404-.438 2.19-.438c.868 0 1.628.146 2.279.438.652.292 1.191.704 1.618 1.235.434.524.756 1.15.965 1.876.218.726.326 1.527.326 2.403v1.157h-9.389v-1.943h6.716v-.213c-.015-.487-.112-.944-.292-1.37-.172-.427-.438-.772-.797-1.034s-.839-.393-1.438-.393c-.449 0-.849.098-1.201.292-.345.187-.633.461-.865.82s-.412.794-.539 1.303c-.12.501-.18 1.067-.18 1.696v.449c0 .531.071 1.026.214 1.482.149.449.367.843.651 1.179.285.337.629.603 1.033.798.405.187.865.281 1.382.281.651 0 1.231-.131 1.74-.393.509-.263.951-.633 1.325-1.112l1.427 1.381c-.262.382-.603.749-1.022 1.101-.419.344-.932.625-1.539.842-.599.217-1.295.326-2.089.326zm14.387-2.741v-14.734h2.717v17.25h-2.459zm-7.907-3.425v-.236c0-.921.109-1.759.326-2.515.217-.764.532-1.419.943-1.966.412-.554.914-.977 1.505-1.269.592-.299 1.258-.449 1.999-.449.734 0 1.378.142 1.932.427.554.284 1.026.692 1.415 1.224.389.524.7 1.153.932 1.887.232.726.397 1.534.494 2.425v.753c-.097.868-.262 1.662-.494 2.381-.232.718-.543 1.34-.932 1.864s-.865.928-1.426 1.213c-.554.284-1.202.427-1.943.427-.734 0-1.397-.154-1.988-.461-.584-.307-1.082-.737-1.494-1.291-.411-.554-.726-1.206-.943-1.954-.217-.757-.326-1.576-.326-2.46zm2.707-.236v.236c0 .554.049 1.071.146 1.55.105.479.266.902.483 1.269.217.359.498.644.842.853.352.203.771.304 1.258.304.614 0 1.119-.135 1.516-.405.397-.269.708-.632.932-1.089.232-.464.389-.981.472-1.55v-2.032c-.045-.442-.139-.854-.281-1.236-.135-.382-.318-.715-.55-.999-.232-.292-.521-.517-.865-.674-.337-.165-.737-.247-1.202-.247-.494 0-.913.105-1.257.314-.345.21-.629.498-.854.865-.217.367-.378.794-.483 1.28-.105.487-.157 1.007-.157 1.561zm13.286 3.572-.012 1.931c0 .764-.191 1.55-.572 2.359-.382.808-.888 1.475-1.517 1.999l-1.448-.843c.209-.337.4-.677.572-1.022.173-.344.311-.711.416-1.1.105-.39.157-.82.157-1.292v-2.032zm13.689 2.83c-.898 0-1.71-.146-2.437-.438-.718-.3-1.332-.715-1.841-1.247-.502-.532-.888-1.157-1.157-1.875-.27-.719-.404-1.494-.404-2.325v-.449c0-.951.138-1.812.415-2.583.277-.772.663-1.43 1.157-1.977.494-.554 1.078-.977 1.752-1.269s1.404-.438 2.19-.438c.868 0 1.628.146 2.28.438.651.292 1.19.704 1.617 1.235.434.524.756 1.15.966 1.876.217.726.325 1.527.325 2.403v1.157h-9.388v-1.943h6.715v-.213c-.015-.487-.112-.944-.292-1.37-.172-.427-.438-.772-.797-1.034s-.839-.393-1.437-.393c-.45 0-.85.098-1.202.292-.345.187-.633.461-.865.82s-.412.794-.539 1.303c-.12.501-.18 1.067-.18 1.696v.449c0 .531.072 1.026.214 1.482.15.449.367.843.651 1.179.285.337.629.603 1.033.798.405.187.865.281 1.382.281.651 0 1.231-.131 1.74-.393.51-.263.951-.633 1.326-1.112l1.426 1.381c-.262.382-.603.749-1.022 1.101-.419.344-.932.625-1.539.842-.599.217-1.295.326-2.089.326zm7.087-1.573c0-.419.142-.771.427-1.055.284-.292.67-.438 1.156-.438.495 0 .88.146 1.157.438.285.284.427.636.427 1.055 0 .42-.142.772-.427 1.056-.277.285-.662.427-1.157.427-.486 0-.872-.142-1.156-.427-.285-.284-.427-.636-.427-1.056zm14.072-10.803h2.459v11.814c0 1.093-.232 2.022-.696 2.785-.464.764-1.112 1.344-1.943 1.741-.831.404-1.793.606-2.886.606-.464 0-.981-.067-1.55-.202-.562-.134-1.108-.352-1.64-.651-.524-.292-.962-.678-1.314-1.157l1.269-1.595c.435.517.914.895 1.438 1.135.524.239 1.074.359 1.651.359.621 0 1.149-.116 1.583-.348.442-.225.783-.558 1.022-1 .24-.441.36-.98.36-1.617v-9.119zm-8.255 6.21v-.236c0-.921.113-1.759.337-2.515.225-.764.547-1.419.966-1.966.419-.554.928-.977 1.527-1.269.599-.299 1.277-.449 2.033-.449.786 0 1.456.142 2.01.427.562.284 1.03.692 1.404 1.224.374.524.666 1.153.876 1.887.217.726.378 1.534.483 2.425v.753c-.097.868-.262 1.662-.494 2.381-.232.718-.539 1.34-.921 1.864s-.854.928-1.415 1.213c-.554.284-1.209.427-1.965.427-.742 0-1.412-.154-2.011-.461-.591-.307-1.1-.737-1.527-1.291-.419-.554-.741-1.206-.966-1.954-.224-.757-.337-1.576-.337-2.46zm2.707-.236v.236c0 .554.052 1.071.157 1.55.112.479.281.902.505 1.269.232.359.524.644.876.853.36.203.783.304 1.269.304.637 0 1.157-.135 1.561-.405.412-.269.727-.632.944-1.089.224-.464.382-.981.471-1.55v-2.032c-.044-.442-.138-.854-.28-1.236-.135-.382-.318-.715-.551-.999-.232-.292-.524-.517-.876-.674-.351-.165-.767-.247-1.246-.247-.487 0-.91.105-1.269.314-.36.21-.655.498-.887.865-.225.367-.393.794-.506 1.28-.112.487-.168 1.007-.168 1.561zm10.927 4.829c0-.419.142-.771.427-1.055.284-.292.67-.438 1.157-.438.494 0 .879.146 1.156.438.285.284.427.636.427 1.055 0 .42-.142.772-.427 1.056-.277.285-.662.427-1.156.427-.487 0-.873-.142-1.157-.427-.285-.284-.427-.636-.427-1.056zm14.734-8.49v9.838h-2.706v-12.151h2.583zm3.718-2.392-.023 2.516c-.164-.03-.344-.053-.539-.068-.187-.015-.374-.022-.561-.022-.465 0-.873.067-1.224.202-.352.127-.648.314-.888.561-.232.24-.411.532-.539.876-.127.345-.202.73-.224 1.157l-.618.045c0-.764.075-1.471.225-2.122.149-.652.374-1.225.673-1.719.307-.494.689-.879 1.146-1.156.464-.277.999-.416 1.606-.416.165 0 .341.015.528.045.194.03.34.064.438.101zm6.828 12.455c-.899 0-1.711-.146-2.437-.438-.719-.3-1.333-.715-1.842-1.247-.502-.532-.887-1.157-1.157-1.875-.269-.719-.404-1.494-.404-2.325v-.449c0-.951.139-1.812.416-2.583.277-.772.662-1.43 1.156-1.977.494-.554 1.078-.977 1.752-1.269s1.404-.438 2.19-.438c.869 0 1.629.146 2.28.438s1.19.704 1.617 1.235c.434.524.756 1.15.966 1.876.217.726.326 1.527.326 2.403v1.157h-9.389v-1.943h6.716v-.213c-.015-.487-.113-.944-.292-1.37-.172-.427-.438-.772-.798-1.034-.359-.262-.838-.393-1.437-.393-.449 0-.85.098-1.202.292-.344.187-.632.461-.864.82-.233.359-.412.794-.54 1.303-.119.501-.179 1.067-.179 1.696v.449c0 .531.071 1.026.213 1.482.15.449.367.843.652 1.179.284.337.628.603 1.033.798.404.187.864.281 1.381.281.651 0 1.232-.131 1.741-.393.509-.263.951-.633 1.325-1.112l1.426 1.381c-.262.382-.602.749-1.022 1.101-.419.344-.932.625-1.538.842-.599.217-1.296.326-2.089.326zm13.825-2.662v-5.795c0-.434-.079-.809-.236-1.123-.158-.314-.397-.558-.719-.73-.314-.172-.711-.258-1.19-.258-.442 0-.824.075-1.146.224-.322.15-.573.352-.752.607-.18.254-.27.543-.27.865h-2.695c0-.48.116-.944.348-1.393s.569-.85 1.011-1.202c.441-.352.969-.629 1.583-.831s1.303-.303 2.067-.303c.913 0 1.722.154 2.425.46.712.307 1.269.772 1.674 1.393.411.614.617 1.385.617 2.314v5.401c0 .554.038 1.052.113 1.494.082.434.198.812.348 1.134v.18h-2.774c-.127-.292-.229-.663-.303-1.112-.068-.457-.101-.898-.101-1.325zm.393-4.953.022 1.674h-1.943c-.501 0-.943.048-1.325.146-.382.09-.7.224-.955.404-.254.18-.445.397-.572.651-.128.255-.191.543-.191.865s.075.618.224.887c.15.262.367.468.652.618.292.15.644.225 1.055.225.554 0 1.037-.113 1.449-.337.419-.232.749-.513.988-.843.24-.337.367-.655.382-.954l.876 1.201c-.09.307-.243.637-.46.989s-.502.689-.854 1.01c-.344.315-.76.573-1.246.775-.48.203-1.034.304-1.662.304-.794 0-1.502-.158-2.123-.472-.621-.322-1.108-.752-1.46-1.292-.352-.546-.528-1.164-.528-1.853 0-.643.12-1.212.36-1.707.247-.501.606-.921 1.078-1.257.479-.337 1.063-.592 1.752-.764.688-.18 1.475-.27 2.358-.27zm12.937-4.761h2.46v11.814c0 1.093-.233 2.022-.697 2.785-.464.764-1.112 1.344-1.943 1.741-.831.404-1.793.606-2.886.606-.464 0-.981-.067-1.55-.202-.561-.134-1.108-.352-1.639-.651-.524-.292-.962-.678-1.314-1.157l1.269-1.595c.434.517.913.895 1.437 1.135.524.239 1.075.359 1.651.359.622 0 1.149-.116 1.584-.348.441-.225.782-.558 1.022-1 .239-.441.359-.98.359-1.617v-9.119zm-8.254 6.21v-.236c0-.921.112-1.759.337-2.515.224-.764.546-1.419.965-1.966.42-.554.929-.977 1.528-1.269.599-.299 1.276-.449 2.033-.449.786 0 1.456.142 2.01.427.561.284 1.029.692 1.404 1.224.374.524.666 1.153.876 1.887.217.726.378 1.534.482 2.425v.753c-.097.868-.262 1.662-.494 2.381-.232.718-.539 1.34-.921 1.864-.381.524-.853.928-1.415 1.213-.554.284-1.209.427-1.965.427-.741 0-1.411-.154-2.01-.461-.592-.307-1.101-.737-1.528-1.291-.419-.554-.741-1.206-.965-1.954-.225-.757-.337-1.576-.337-2.46zm2.706-.236v.236c0 .554.053 1.071.157 1.55.113.479.281.902.506 1.269.232.359.524.644.876.853.359.203.782.304 1.269.304.636 0 1.157-.135 1.561-.405.412-.269.726-.632.943-1.089.225-.464.382-.981.472-1.55v-2.032c-.045-.442-.139-.854-.281-1.236-.135-.382-.318-.715-.55-.999-.232-.292-.524-.517-.876-.674-.352-.165-.767-.247-1.247-.247-.486 0-.909.105-1.269.314-.359.21-.655.498-.887.865-.225.367-.393.794-.505 1.28-.113.487-.169 1.007-.169 1.561zm13.533-3.661v9.838h-2.707v-12.151h2.583zm3.717-2.392-.022 2.516c-.165-.03-.345-.053-.539-.068-.187-.015-.375-.022-.562-.022-.464 0-.872.067-1.224.202-.352.127-.648.314-.887.561-.232.24-.412.532-.539.876-.127.345-.202.73-.225 1.157l-.617.045c0-.764.074-1.471.224-2.122.15-.652.374-1.225.674-1.719.307-.494.689-.879 1.145-1.156.465-.277 1-.416 1.606-.416.165 0 .341.015.528.045.195.03.341.064.438.101zm8.884 9.714v-14.734h2.717v17.25h-2.459zm-7.907-3.425v-.236c0-.921.109-1.759.326-2.515.217-.764.532-1.419.943-1.966.412-.554.914-.977 1.505-1.269.592-.299 1.258-.449 1.999-.449.734 0 1.378.142 1.932.427.554.284 1.026.692 1.415 1.224.389.524.7 1.153.932 1.887.232.726.397 1.534.494 2.425v.753c-.097.868-.262 1.662-.494 2.381-.232.718-.543 1.34-.932 1.864s-.865.928-1.426 1.213c-.554.284-1.202.427-1.943.427-.734 0-1.397-.154-1.988-.461-.584-.307-1.082-.737-1.494-1.291-.411-.554-.726-1.206-.943-1.954-.217-.757-.326-1.576-.326-2.46zm2.707-.236v.236c0 .554.049 1.071.146 1.55.105.479.266.902.483 1.269.217.359.498.644.842.853.352.203.771.304 1.258.304.614 0 1.119-.135 1.516-.405.397-.269.707-.632.932-1.089.232-.464.389-.981.472-1.55v-2.032c-.045-.442-.139-.854-.281-1.236-.135-.382-.318-.715-.55-.999-.232-.292-.521-.517-.865-.674-.337-.165-.737-.247-1.202-.247-.494 0-.913.105-1.257.314-.345.21-.629.498-.854.865-.217.367-.378.794-.483 1.28-.105.487-.157 1.007-.157 1.561zm13.645-5.974v12.151h-2.718v-12.151zm-2.898-3.19c0-.412.135-.752.405-1.022.277-.277.659-.415 1.145-.415.479 0 .857.138 1.134.415.278.27.416.61.416 1.022 0 .404-.138.741-.416 1.011-.277.269-.655.404-1.134.404-.486 0-.868-.135-1.145-.404-.27-.27-.405-.607-.405-1.011zm8.547 5.784v9.557h-2.707v-12.151h2.55zm-.483 3.032-.876-.011c.007-.861.127-1.651.359-2.37.24-.718.569-1.336.989-1.853.426-.516.935-.913 1.527-1.19.591-.285 1.25-.427 1.976-.427.584 0 1.112.082 1.584.247.479.157.887.416 1.224.775.344.359.607.827.786 1.404.18.569.27 1.269.27 2.1v7.85h-2.718v-7.861c0-.584-.086-1.045-.258-1.382-.165-.344-.408-.587-.73-.73-.315-.149-.708-.224-1.179-.224-.465 0-.88.097-1.247.292-.367.194-.678.46-.932.797-.247.337-.438.726-.573 1.168s-.202.913-.202 1.415zm18.384-5.626h2.462v11.814c0 1.093-.23 2.022-.699 2.785-.464.764-1.111 1.344-1.943 1.741-.831.404-1.793.606-2.886.606-.464 0-.981-.067-1.55-.202-.561-.134-1.108-.352-1.639-.651-.524-.292-.962-.678-1.314-1.157l1.269-1.595c.434.517.913.895 1.437 1.135.524.239 1.075.359 1.651.359.622 0 1.15-.116 1.584-.348.441-.225.782-.558 1.022-1 .239-.441.359-.98.359-1.617v-9.119zm-8.254 6.21v-.236c0-.921.112-1.759.337-2.515.224-.764.546-1.419.966-1.966.419-.554.928-.977 1.527-1.269.599-.299 1.276-.449 2.033-.449.786 0 1.456.142 2.01.427.561.284 1.029.692 1.404 1.224.374.524.666 1.153.876 1.887.217.726.378 1.534.483 2.425v.753c-.098.868-.263 1.662-.495 2.381-.232.718-.539 1.34-.921 1.864-.381.524-.853.928-1.415 1.213-.554.284-1.209.427-1.965.427-.741 0-1.411-.154-2.01-.461-.592-.307-1.101-.737-1.527-1.291-.42-.554-.742-1.206-.966-1.954-.225-.757-.337-1.576-.337-2.46zm2.706-.236v.236c0 .554.053 1.071.158 1.55.112.479.28.902.505 1.269.232.359.524.644.876.853.359.203.782.304 1.269.304.636 0 1.157-.135 1.561-.405.412-.269.726-.632.943-1.089.225-.464.382-.981.472-1.55v-2.032c-.045-.442-.139-.854-.281-1.236-.135-.382-.318-.715-.55-.999-.232-.292-.524-.517-.876-.674-.352-.165-.767-.247-1.247-.247-.486 0-.909.105-1.269.314-.359.21-.655.498-.887.865-.224.367-.393.794-.505 1.28-.113.487-.169 1.007-.169 1.561zm22.11-5.974v1.976h-6.85v-1.976zm-4.87-2.976h2.71v11.769c0 .374.05.663.15.865.12.195.27.326.46.393.2.067.43.101.69.101.19 0 .37-.011.54-.034.17-.022.31-.045.41-.067l.01 2.066c-.22.068-.48.128-.78.18-.29.052-.63.079-1.01.079-.62 0-1.17-.109-1.65-.326-.48-.225-.86-.588-1.13-1.089-.27-.502-.4-1.168-.4-1.999zm9.63-2.123v17.25h-2.69v-17.25zm-.47 10.725-.87-.011c0-.839.12-1.614.35-2.325s.55-1.329.96-1.853c.42-.531.92-.939 1.51-1.224.58-.292 1.23-.438 1.94-.438.6 0 1.14.082 1.62.247s.9.431 1.25.797c.36.36.62.832.8 1.416.19.576.28 1.28.28 2.111v7.805h-2.72v-7.828c0-.584-.08-1.048-.25-1.392-.17-.345-.41-.592-.73-.741-.33-.158-.72-.236-1.18-.236-.49 0-.92.097-1.29.292-.37.194-.68.46-.93.797-.24.337-.43.726-.56 1.168-.12.442-.18.913-.18 1.415zm15.94 6.75c-.9 0-1.71-.146-2.44-.438-.72-.3-1.33-.715-1.84-1.247-.5-.532-.89-1.157-1.16-1.875-.27-.719-.4-1.494-.4-2.325v-.449c0-.951.14-1.812.41-2.583.28-.772.67-1.43 1.16-1.977.5-.554 1.08-.977 1.75-1.269.68-.292 1.41-.438 2.19-.438.87 0 1.63.146 2.28.438s1.19.704 1.62 1.235c.43.524.76 1.15.97 1.876s.32 1.527.32 2.403v1.157h-9.39v-1.943h6.72v-.213c-.02-.487-.11-.944-.29-1.37-.18-.427-.44-.772-.8-1.034s-.84-.393-1.44-.393c-.45 0-.85.098-1.2.292-.34.187-.63.461-.86.82-.24.359-.42.794-.54 1.303-.12.501-.18 1.067-.18 1.696v.449c0 .531.07 1.026.21 1.482.15.449.37.843.65 1.179.29.337.63.603 1.04.798.4.187.86.281 1.38.281.65 0 1.23-.131 1.74-.393.51-.263.95-.633 1.32-1.112l1.43 1.381c-.26.382-.6.749-1.02 1.101-.42.344-.94.625-1.54.842s-1.3.326-2.09.326zm-284.727 26.834v-.258c0-.876.127-1.689.382-2.437.254-.756.621-1.412 1.101-1.966.486-.561 1.078-.995 1.774-1.302.704-.315 1.497-.472 2.381-.472.891 0 1.684.157 2.381.472.703.307 1.299.741 1.785 1.302.487.554.858 1.21 1.112 1.966.255.748.382 1.561.382 2.437v.258c0 .876-.127 1.688-.382 2.437-.254.749-.625 1.404-1.112 1.965-.486.554-1.078.989-1.774 1.303-.696.307-1.486.461-2.37.461-.891 0-1.688-.154-2.392-.461-.696-.314-1.288-.749-1.774-1.303-.487-.561-.858-1.216-1.112-1.965-.255-.749-.382-1.561-.382-2.437zm2.707-.258v.258c0 .547.056 1.063.168 1.55s.288.913.528 1.28.546.655.921.865c.374.21.82.314 1.336.314.502 0 .936-.104 1.303-.314.374-.21.681-.498.921-.865.239-.367.415-.793.528-1.28.12-.487.179-1.003.179-1.55v-.258c0-.539-.059-1.048-.179-1.528-.113-.486-.292-.917-.539-1.291-.24-.374-.547-.666-.921-.876-.367-.217-.805-.326-1.314-.326s-.951.109-1.325.326c-.367.21-.67.502-.91.876s-.416.805-.528 1.291c-.112.48-.168.989-.168 1.528zm13.577-3.639v9.838h-2.706v-12.151h2.583zm3.718-2.392-.023 2.516c-.165-.03-.344-.053-.539-.068-.187-.015-.374-.022-.561-.022-.465 0-.873.067-1.225.202-.351.127-.647.314-.887.561-.232.24-.412.532-.539.876-.127.345-.202.73-.224 1.157l-.618.045c0-.764.075-1.471.224-2.122.15-.652.375-1.225.674-1.719.307-.494.689-.879 1.146-1.156.464-.277.999-.416 1.606-.416.164 0 .34.015.528.045.194.03.34.064.438.101zm4.593.079v12.151h-2.718v-12.151zm-2.898-3.19c0-.412.135-.752.405-1.022.277-.277.659-.415 1.145-.415.479 0 .857.138 1.134.415.277.27.416.61.416 1.022 0 .404-.139.741-.416 1.011-.277.269-.655.404-1.134.404-.486 0-.868-.135-1.145-.404-.27-.27-.405-.607-.405-1.011zm13.645 3.19h2.46v11.814c0 1.093-.232 2.022-.696 2.785-.465.764-1.112 1.344-1.943 1.741-.831.404-1.793.606-2.887.606-.464 0-.98-.067-1.549-.202-.562-.134-1.108-.352-1.64-.651-.524-.292-.962-.678-1.314-1.157l1.269-1.595c.434.517.914.895 1.438 1.135.524.239 1.074.359 1.65.359.622 0 1.15-.116 1.584-.348.442-.225.782-.558 1.022-1 .24-.441.359-.98.359-1.617v-9.119zm-8.254 6.21v-.236c0-.921.112-1.759.337-2.515.225-.764.546-1.419.966-1.966.419-.554.928-.977 1.527-1.269.599-.299 1.277-.449 2.033-.449.786 0 1.456.142 2.01.427.562.284 1.03.692 1.404 1.224.374.524.666 1.153.876 1.887.217.726.378 1.534.483 2.425v.753c-.098.868-.262 1.662-.494 2.381-.232.718-.539 1.34-.921 1.864s-.854.928-1.415 1.213c-.554.284-1.209.427-1.966.427-.741 0-1.411-.154-2.01-.461-.591-.307-1.101-.737-1.527-1.291-.42-.554-.741-1.206-.966-1.954-.225-.757-.337-1.576-.337-2.46zm2.707-.236v.236c0 .554.052 1.071.157 1.55.112.479.281.902.505 1.269.232.359.524.644.876.853.359.203.783.304 1.269.304.637 0 1.157-.135 1.561-.405.412-.269.726-.632.944-1.089.224-.464.381-.981.471-1.55v-2.032c-.045-.442-.138-.854-.281-1.236-.134-.382-.318-.715-.55-.999-.232-.292-.524-.517-.876-.674-.352-.165-.767-.247-1.246-.247-.487 0-.91.105-1.269.314-.36.21-.656.498-.888.865-.224.367-.393.794-.505 1.28-.112.487-.168 1.007-.168 1.561zm13.712-5.974v12.151h-2.718v-12.151zm-2.898-3.19c0-.412.135-.752.405-1.022.277-.277.659-.415 1.145-.415.479 0 .858.138 1.135.415.277.27.415.61.415 1.022 0 .404-.138.741-.415 1.011-.277.269-.656.404-1.135.404-.486 0-.868-.135-1.145-.404-.27-.27-.405-.607-.405-1.011zm8.547 5.784v9.557h-2.707v-12.151h2.55zm-.483 3.032-.876-.011c.007-.861.127-1.651.359-2.37.24-.718.569-1.336.989-1.853.426-.516.936-.913 1.527-1.19.591-.285 1.25-.427 1.977-.427.584 0 1.111.082 1.583.247.479.157.887.416 1.224.775.345.359.607.827.786 1.404.18.569.27 1.269.27 2.1v7.85h-2.718v-7.861c0-.584-.086-1.045-.258-1.382-.165-.344-.408-.587-.73-.73-.315-.149-.708-.224-1.179-.224-.465 0-.88.097-1.247.292-.367.194-.678.46-.932.797-.247.337-.438.726-.573 1.168s-.202.913-.202 1.415zm15.812.584v-.258c0-.876.128-1.689.382-2.437.255-.756.622-1.412 1.101-1.966.487-.561 1.078-.995 1.774-1.302.704-.315 1.498-.472 2.381-.472.891 0 1.685.157 2.381.472.704.307 1.299.741 1.786 1.302.486.554.857 1.21 1.111 1.966.255.748.382 1.561.382 2.437v.258c0 .876-.127 1.688-.382 2.437-.254.749-.625 1.404-1.111 1.965-.487.554-1.078.989-1.775 1.303-.696.307-1.486.461-2.369.461-.891 0-1.689-.154-2.392-.461-.697-.314-1.288-.749-1.775-1.303-.487-.561-.857-1.216-1.112-1.965-.254-.749-.382-1.561-.382-2.437zm2.707-.258v.258c0 .547.056 1.063.168 1.55.113.487.289.913.528 1.28.24.367.547.655.921.865.375.21.82.314 1.337.314.501 0 .935-.104 1.302-.314.375-.21.682-.498.921-.865.24-.367.416-.793.528-1.28.12-.487.18-1.003.18-1.55v-.258c0-.539-.06-1.048-.18-1.528-.112-.486-.292-.917-.539-1.291-.24-.374-.547-.666-.921-.876-.367-.217-.805-.326-1.314-.326s-.951.109-1.325.326c-.367.21-.67.502-.91.876-.239.374-.415.805-.528 1.291-.112.48-.168.989-.168 1.528zm14.521 6.199h-2.707v-13.319c0-.906.169-1.666.506-2.28.344-.622.835-1.089 1.471-1.404.636-.322 1.389-.483 2.257-.483.27 0 .536.019.798.056.262.03.516.079.763.146l-.067 2.089c-.15-.037-.314-.063-.494-.078-.172-.015-.36-.023-.562-.023-.411 0-.767.079-1.067.236-.292.15-.516.371-.673.663-.15.292-.225.651-.225 1.078zm2.504-12.151v1.976h-7.075v-1.976zm11.354 12.151h-2.706v-13.319c0-.906.168-1.666.505-2.28.345-.622.835-1.089 1.471-1.404.637-.322 1.389-.483 2.258-.483.269 0 .535.019.797.056.262.03.517.079.764.146l-.068 2.089c-.149-.037-.314-.063-.494-.078-.172-.015-.359-.023-.561-.023-.412 0-.768.079-1.067.236-.292.15-.517.371-.674.663-.15.292-.225.651-.225 1.078zm2.505-12.151v1.976h-7.075v-1.976zm9.276 9.287v-9.287h2.718v12.151h-2.561zm.382-2.527.91-.022c0 .816-.09 1.568-.27 2.257-.18.682-.457 1.277-.831 1.786-.374.502-.853.895-1.437 1.179-.584.277-1.284.416-2.101.416-.591 0-1.134-.086-1.628-.259-.494-.172-.921-.438-1.28-.797-.352-.359-.625-.827-.82-1.404-.195-.576-.292-1.265-.292-2.066v-7.85h2.707v7.872c0 .442.052.813.157 1.112.105.292.247.528.426.708.18.179.39.307.629.381.24.075.495.113.764.113.771 0 1.378-.15 1.819-.45.45-.307.768-.718.955-1.235.195-.516.292-1.097.292-1.741zm7.794-4.166v9.557h-2.707v-12.151h2.55zm-.483 3.032-.876-.011c.008-.861.127-1.651.359-2.37.24-.718.569-1.336.989-1.853.426-.516.936-.913 1.527-1.19.592-.285 1.25-.427 1.977-.427.584 0 1.111.082 1.583.247.479.157.887.416 1.224.775.345.359.607.827.786 1.404.18.569.27 1.269.27 2.1v7.85h-2.718v-7.861c0-.584-.086-1.045-.258-1.382-.165-.344-.408-.587-.73-.73-.315-.149-.708-.224-1.179-.224-.465 0-.88.097-1.247.292-.367.194-.678.46-.932.797-.247.337-.438.726-.573 1.168s-.202.913-.202 1.415zm18.014 4.009v-14.734h2.717v17.25h-2.459zm-7.907-3.425v-.236c0-.921.109-1.759.326-2.515.217-.764.532-1.419.943-1.966.412-.554.914-.977 1.505-1.269.592-.299 1.258-.449 1.999-.449.734 0 1.378.142 1.932.427.554.284 1.026.692 1.415 1.224.389.524.7 1.153.932 1.887.232.726.397 1.534.494 2.425v.753c-.097.868-.262 1.662-.494 2.381-.232.718-.543 1.34-.932 1.864s-.865.928-1.426 1.213c-.554.284-1.202.427-1.943.427-.734 0-1.396-.154-1.988-.461-.584-.307-1.082-.737-1.494-1.291-.411-.554-.726-1.206-.943-1.954-.217-.757-.326-1.576-.326-2.46zm2.707-.236v.236c0 .554.049 1.071.146 1.55.105.479.266.902.483 1.269.217.359.498.644.842.853.352.203.771.304 1.258.304.614 0 1.119-.135 1.516-.405.397-.269.708-.632.932-1.089.232-.464.39-.981.472-1.55v-2.032c-.045-.442-.139-.854-.281-1.236-.135-.382-.318-.715-.55-.999-.232-.292-.52-.517-.865-.674-.337-.165-.737-.247-1.202-.247-.494 0-.913.105-1.257.314-.345.21-.629.498-.854.865-.217.367-.378.794-.483 1.28-.105.487-.157 1.007-.157 1.561zm17.564 2.886c0-.269-.067-.512-.202-.729-.134-.225-.393-.427-.775-.607-.374-.18-.928-.344-1.662-.494-.644-.142-1.235-.311-1.774-.505-.532-.203-.988-.446-1.37-.73-.382-.285-.678-.622-.887-1.011-.21-.389-.315-.839-.315-1.348 0-.494.109-.962.326-1.404.217-.441.528-.831.932-1.168s.895-.602 1.471-.797c.584-.195 1.235-.292 1.954-.292 1.018 0 1.891.172 2.617.517.734.337 1.295.797 1.684 1.381.39.576.584 1.228.584 1.954h-2.706c0-.322-.082-.621-.247-.898-.157-.285-.397-.513-.719-.685-.322-.18-.726-.27-1.213-.27-.464 0-.85.075-1.157.225-.299.142-.524.329-.673.561-.143.232-.214.487-.214.764 0 .202.038.385.113.55.082.157.217.303.404.438.187.127.442.247.764.36.329.112.741.22 1.235.325.928.195 1.726.446 2.392.753.674.299 1.19.688 1.55 1.168.359.471.539 1.07.539 1.796 0 .54-.116 1.034-.348 1.483-.225.442-.554.827-.989 1.157-.434.322-.954.572-1.561.752-.599.18-1.272.27-2.021.27-1.101 0-2.033-.195-2.796-.584-.764-.397-1.344-.903-1.741-1.516-.39-.622-.584-1.266-.584-1.932h2.616c.03.502.169.902.416 1.202.255.292.569.505.943.64.382.127.775.191 1.18.191.486 0 .894-.064 1.224-.191.329-.135.58-.315.752-.539.172-.232.258-.495.258-.787zm10.231-2.65v-.258c0-.876.128-1.689.382-2.437.255-.756.622-1.412 1.101-1.966.486-.561 1.078-.995 1.774-1.302.704-.315 1.498-.472 2.381-.472.891 0 1.685.157 2.381.472.704.307 1.299.741 1.786 1.302.486.554.857 1.21 1.111 1.966.255.748.382 1.561.382 2.437v.258c0 .876-.127 1.688-.382 2.437-.254.749-.625 1.404-1.111 1.965-.487.554-1.079.989-1.775 1.303-.696.307-1.486.461-2.369.461-.891 0-1.689-.154-2.393-.461-.696-.314-1.287-.749-1.774-1.303-.487-.561-.857-1.216-1.112-1.965-.254-.749-.382-1.561-.382-2.437zm2.707-.258v.258c0 .547.056 1.063.168 1.55.113.487.289.913.528 1.28.24.367.547.655.921.865s.82.314 1.337.314c.501 0 .935-.104 1.302-.314.375-.21.682-.498.921-.865.24-.367.416-.793.528-1.28.12-.487.18-1.003.18-1.55v-.258c0-.539-.06-1.048-.18-1.528-.112-.486-.292-.917-.539-1.291-.24-.374-.547-.666-.921-.876-.367-.217-.805-.326-1.314-.326s-.951.109-1.325.326c-.367.21-.67.502-.91.876-.239.374-.415.805-.528 1.291-.112.48-.168.989-.168 1.528zm14.521 6.199h-2.707v-13.319c0-.906.169-1.666.506-2.28.344-.622.835-1.089 1.471-1.404.636-.322 1.389-.483 2.257-.483.27 0 .536.019.798.056.262.03.516.079.763.146l-.067 2.089c-.15-.037-.315-.063-.494-.078-.172-.015-.36-.023-.562-.023-.412 0-.767.079-1.067.236-.292.15-.516.371-.673.663-.15.292-.225.651-.225 1.078zm2.504-12.151v1.976h-7.075v-1.976zm13.264 0v1.976h-6.851v-1.976zm-4.875-2.976h2.707v11.769c0 .374.052.663.157.865.113.195.266.326.461.393.194.067.423.101.685.101.187 0 .367-.011.539-.034.172-.022.311-.045.415-.067l.012 2.066c-.225.068-.487.128-.787.18-.292.052-.628.079-1.01.079-.622 0-1.172-.109-1.651-.326-.479-.225-.854-.588-1.123-1.089-.27-.502-.405-1.168-.405-1.999zm9.636-2.123v17.25h-2.695v-17.25zm-.471 10.725-.876-.011c.007-.839.123-1.614.348-2.325.232-.711.554-1.329.966-1.853.419-.531.92-.939 1.504-1.224.584-.292 1.232-.438 1.943-.438.599 0 1.138.082 1.617.247.487.165.906.431 1.258.797.352.36.618.832.798 1.416.187.576.28 1.28.28 2.111v7.805h-2.717v-7.828c0-.584-.086-1.048-.259-1.392-.164-.345-.408-.592-.73-.741-.322-.158-.715-.236-1.179-.236-.486 0-.917.097-1.291.292-.367.194-.674.46-.921.797s-.434.726-.562 1.168c-.12.442-.179.913-.179 1.415zm15.936 6.75c-.899 0-1.711-.146-2.437-.438-.719-.3-1.333-.715-1.842-1.247-.502-.532-.887-1.157-1.157-1.875-.269-.719-.404-1.494-.404-2.325v-.449c0-.951.138-1.812.415-2.583.277-.772.663-1.43 1.157-1.977.494-.554 1.078-.977 1.752-1.269s1.404-.438 2.19-.438c.868 0 1.628.146 2.28.438.651.292 1.19.704 1.617 1.235.434.524.756 1.15.966 1.876.217.726.325 1.527.325 2.403v1.157h-9.388v-1.943h6.716v-.213c-.015-.487-.113-.944-.292-1.37-.173-.427-.438-.772-.798-1.034-.359-.262-.838-.393-1.437-.393-.45 0-.85.098-1.202.292-.344.187-.633.461-.865.82s-.412.794-.539 1.303c-.12.501-.179 1.067-.179 1.696v.449c0 .531.071 1.026.213 1.482.15.449.367.843.651 1.179.285.337.629.603 1.033.798.405.187.865.281 1.382.281.651 0 1.231-.131 1.741-.393.509-.263.95-.633 1.325-1.112l1.426 1.381c-.262.382-.603.749-1.022 1.101-.419.344-.932.625-1.539.842-.598.217-1.295.326-2.088.326zm-205.462 20.624v12.151h-2.718v-12.151zm-2.897-3.19c0-.412.134-.752.404-1.022.277-.277.659-.415 1.146-.415.479 0 .857.138 1.134.415.277.27.415.61.415 1.022 0 .404-.138.741-.415 1.011-.277.269-.655.404-1.134.404-.487 0-.869-.135-1.146-.404-.27-.27-.404-.607-.404-1.011zm8.546 5.784v9.557h-2.706v-12.151h2.549zm-.483 3.032-.876-.011c.008-.861.127-1.651.36-2.37.239-.718.569-1.336.988-1.853.427-.516.936-.913 1.527-1.19.592-.285 1.251-.427 1.977-.427.584 0 1.112.082 1.583.247.479.157.887.416 1.224.775.345.359.607.827.787 1.404.179.569.269 1.269.269 2.1v7.85h-2.718v-7.861c0-.584-.086-1.045-.258-1.382-.165-.344-.408-.587-.73-.73-.314-.149-.708-.224-1.179-.224-.464 0-.88.097-1.247.292-.367.194-.677.46-.932.797-.247.337-.438.726-.573 1.168-.134.442-.202.913-.202 1.415zm14.555 4.38 2.976-10.006h2.808l-4.223 12.151h-1.752zm-2.28-10.006 3.032 10.051.146 2.1h-1.752l-4.245-12.151zm14.937 12.376c-.899 0-1.711-.146-2.437-.438-.719-.3-1.333-.715-1.842-1.247-.502-.532-.887-1.157-1.157-1.875-.269-.719-.404-1.494-.404-2.325v-.449c0-.951.138-1.812.415-2.583.277-.772.663-1.43 1.157-1.977.494-.554 1.078-.977 1.752-1.269s1.404-.438 2.19-.438c.868 0 1.628.146 2.28.438.651.292 1.19.704 1.617 1.235.434.524.756 1.15.966 1.876.217.726.325 1.527.325 2.403v1.157h-9.388v-1.943h6.716v-.213c-.015-.487-.113-.944-.292-1.37-.173-.427-.438-.772-.798-1.034-.359-.262-.838-.393-1.437-.393-.45 0-.85.098-1.202.292-.344.187-.633.461-.865.82s-.411.794-.539 1.303c-.12.501-.179 1.067-.179 1.696v.449c0 .531.071 1.026.213 1.482.15.449.367.843.651 1.179.285.337.629.603 1.033.798.405.187.865.281 1.382.281.651 0 1.231-.131 1.741-.393.509-.263.95-.633 1.325-1.112l1.426 1.381c-.262.382-.603.749-1.022 1.101-.419.344-.932.625-1.539.842-.598.217-1.295.326-2.088.326zm13.791-3.516c0-.269-.068-.512-.203-.729-.134-.225-.393-.427-.774-.607-.375-.18-.929-.344-1.663-.494-.643-.142-1.235-.311-1.774-.505-.532-.203-.988-.446-1.37-.73-.382-.285-.678-.622-.887-1.011-.21-.389-.315-.839-.315-1.348 0-.494.109-.962.326-1.404.217-.441.528-.831.932-1.168s.895-.602 1.471-.797c.584-.195 1.236-.292 1.954-.292 1.019 0 1.891.172 2.617.517.734.337 1.295.797 1.685 1.381.389.576.584 1.228.584 1.954h-2.707c0-.322-.082-.621-.247-.898-.157-.285-.397-.513-.719-.685-.322-.18-.726-.27-1.213-.27-.464 0-.849.075-1.156.225-.3.142-.524.329-.674.561-.142.232-.214.487-.214.764 0 .202.038.385.113.55.082.157.217.303.404.438.187.127.442.247.764.36.329.112.741.22 1.235.325.928.195 1.726.446 2.392.753.674.299 1.191.688 1.55 1.168.359.471.539 1.07.539 1.796 0 .54-.116 1.034-.348 1.483-.225.442-.554.827-.988 1.157-.435.322-.955.572-1.561.752-.599.18-1.273.27-2.022.27-1.101 0-2.033-.195-2.796-.584-.764-.397-1.344-.903-1.741-1.516-.389-.622-.584-1.266-.584-1.932h2.617c.03.502.168.902.415 1.202.255.292.569.505.944.64.381.127.774.191 1.179.191.486 0 .894-.064 1.224-.191.329-.135.58-.315.752-.539.173-.232.259-.495.259-.787zm10.59-8.86v1.976h-6.851v-1.976zm-4.874-2.976h2.706v11.769c0 .374.053.663.158.865.112.195.265.326.46.393s.423.101.685.101c.187 0 .367-.011.539-.034.172-.022.311-.045.416-.067l.011 2.066c-.225.068-.487.128-.786.18-.292.052-.629.079-1.011.079-.621 0-1.172-.109-1.651-.326-.479-.225-.853-.588-1.123-1.089-.269-.502-.404-1.168-.404-1.999zm9.669 5.446v9.681h-2.706v-12.151h2.549zm-.438 3.156-.921-.011c0-.839.105-1.614.315-2.325s.517-1.329.921-1.853c.404-.531.906-.939 1.505-1.224.606-.292 1.306-.438 2.1-.438.554 0 1.059.082 1.516.247.464.157.865.408 1.202.753.344.344.606.786.786 1.325.187.539.28 1.19.28 1.954v8.097h-2.706v-7.861c0-.592-.09-1.056-.27-1.393-.172-.337-.423-.576-.752-.719-.322-.149-.708-.224-1.157-.224-.509 0-.943.097-1.303.292-.351.194-.64.46-.864.797-.225.337-.39.726-.494 1.168-.105.442-.158.913-.158 1.415zm7.536-.719-1.269.281c0-.734.101-1.426.303-2.078.21-.658.513-1.235.91-1.729.404-.502.902-.895 1.494-1.179.591-.285 1.269-.427 2.032-.427.622 0 1.176.086 1.662.258.494.165.914.427 1.258.786.345.36.607.828.786 1.404.18.569.27 1.258.27 2.067v7.861h-2.718v-7.873c0-.613-.09-1.089-.269-1.426-.173-.337-.42-.569-.742-.696-.322-.135-.707-.202-1.156-.202-.42 0-.79.078-1.112.236-.315.149-.58.363-.798.64-.217.269-.381.58-.494.932-.105.352-.157.734-.157 1.145zm15.588 7.469c-.899 0-1.711-.146-2.437-.438-.719-.3-1.333-.715-1.842-1.247-.502-.532-.887-1.157-1.157-1.875-.269-.719-.404-1.494-.404-2.325v-.449c0-.951.139-1.812.416-2.583.277-.772.662-1.43 1.156-1.977.494-.554 1.078-.977 1.752-1.269s1.404-.438 2.19-.438c.869 0 1.629.146 2.28.438s1.19.704 1.617 1.235c.434.524.756 1.15.966 1.876.217.726.326 1.527.326 2.403v1.157h-9.389v-1.943h6.716v-.213c-.015-.487-.112-.944-.292-1.37-.172-.427-.438-.772-.797-1.034-.36-.262-.839-.393-1.438-.393-.449 0-.85.098-1.202.292-.344.187-.632.461-.864.82-.233.359-.412.794-.539 1.303-.12.501-.18 1.067-.18 1.696v.449c0 .531.071 1.026.213 1.482.15.449.367.843.652 1.179.284.337.628.603 1.033.798.404.187.865.281 1.381.281.652 0 1.232-.131 1.741-.393.509-.263.951-.633 1.325-1.112l1.426 1.381c-.262.382-.602.749-1.022 1.101-.419.344-.932.625-1.538.842-.599.217-1.295.326-2.089.326zm9.658-9.782v9.557h-2.706v-12.151h2.549zm-.483 3.032-.876-.011c.008-.861.128-1.651.36-2.37.239-.718.569-1.336.988-1.853.427-.516.936-.913 1.527-1.19.592-.285 1.251-.427 1.977-.427.584 0 1.112.082 1.583.247.479.157.887.416 1.224.775.345.359.607.827.787 1.404.179.569.269 1.269.269 2.1v7.85h-2.718v-7.861c0-.584-.086-1.045-.258-1.382-.165-.344-.408-.587-.73-.73-.314-.149-.707-.224-1.179-.224-.464 0-.88.097-1.247.292-.367.194-.677.46-.932.797-.247.337-.438.726-.573 1.168-.134.442-.202.913-.202 1.415zm16.172-5.626v1.976h-6.851v-1.976zm-4.874-2.976h2.707v11.769c0 .374.052.663.157.865.112.195.266.326.46.393.195.067.423.101.685.101.188 0 .367-.011.539-.034.173-.022.311-.045.416-.067l.011 2.066c-.224.068-.486.128-.786.18-.292.052-.629.079-1.011.079-.621 0-1.171-.109-1.651-.326-.479-.225-.853-.588-1.123-1.089-.269-.502-.404-1.168-.404-1.999z"/><path d="m768.331 190.905h5.839c-.117 1.914-.644 3.613-1.582 5.098-.924 1.484-2.22 2.643-3.886 3.476-1.654.833-3.646 1.25-5.977 1.25-1.823 0-3.457-.312-4.902-.937-1.446-.638-2.683-1.55-3.711-2.735-1.016-1.185-1.791-2.617-2.324-4.297-.534-1.679-.801-3.561-.801-5.644v-1.973c0-2.083.273-3.965.82-5.644.56-1.693 1.354-3.132 2.383-4.317 1.042-1.185 2.285-2.096 3.73-2.734 1.446-.638 3.06-.957 4.844-.957 2.37 0 4.369.43 5.996 1.289 1.641.859 2.91 2.044 3.809 3.555.911 1.51 1.458 3.229 1.64 5.156h-5.859c-.065-1.146-.293-2.116-.683-2.91-.391-.808-.984-1.413-1.778-1.817-.781-.416-1.823-.625-3.125-.625-.976 0-1.829.183-2.558.547-.73.365-1.342.918-1.836 1.66-.495.743-.866 1.68-1.114 2.813-.234 1.12-.351 2.435-.351 3.945v2.012c0 1.471.11 2.767.332 3.887.221 1.106.56 2.044 1.015 2.812.469.755 1.068 1.328 1.797 1.719.743.377 1.634.566 2.676.566 1.224 0 2.233-.195 3.027-.586.795-.39 1.4-.97 1.817-1.738.43-.768.683-1.725.762-2.871zm14.824-20.566v30h-5.625v-30zm-.801 18.691h-1.543c.013-1.471.208-2.826.586-4.063.378-1.25.918-2.33 1.621-3.242.703-.924 1.543-1.64 2.52-2.148.989-.508 2.083-.762 3.281-.762 1.042 0 1.986.15 2.832.449.859.287 1.595.755 2.207 1.407.625.638 1.107 1.477 1.445 2.519.339 1.042.508 2.305.508 3.789v13.36h-5.664v-13.399c0-.937-.137-1.673-.41-2.207-.261-.547-.645-.931-1.153-1.152-.494-.235-1.106-.352-1.835-.352-.808 0-1.498.15-2.071.449-.56.3-1.009.716-1.347 1.25-.339.521-.586 1.133-.743 1.836-.156.703-.234 1.459-.234 2.266zm29.141 6.543v-9.414c0-.677-.111-1.257-.332-1.738-.222-.495-.567-.879-1.036-1.153-.455-.273-1.048-.41-1.777-.41-.625 0-1.165.111-1.621.332-.456.208-.807.514-1.055.918-.247.391-.371.853-.371 1.387h-5.625c0-.899.209-1.752.625-2.559.417-.807 1.022-1.517 1.817-2.129.794-.625 1.738-1.113 2.832-1.465 1.106-.351 2.343-.527 3.711-.527 1.64 0 3.099.274 4.375.82 1.276.547 2.278 1.368 3.007 2.461.743 1.094 1.114 2.461 1.114 4.102v9.043c0 1.159.071 2.109.215 2.851.143.73.351 1.368.625 1.914v.333h-5.684c-.273-.573-.482-1.29-.625-2.149-.13-.872-.195-1.745-.195-2.617zm.742-8.106.039 3.184h-3.145c-.742 0-1.386.085-1.933.254s-.996.41-1.348.723c-.351.299-.612.651-.781 1.054-.156.404-.235.847-.235 1.328 0 .482.111.918.333 1.309.221.378.54.677.957.898.416.209.904.313 1.464.313.847 0 1.582-.169 2.207-.508.625-.338 1.107-.755 1.446-1.25.351-.495.534-.963.547-1.406l1.484 2.383c-.208.534-.495 1.087-.859 1.66-.352.573-.801 1.113-1.348 1.621-.547.495-1.204.905-1.973 1.23-.768.313-1.679.469-2.734.469-1.341 0-2.559-.267-3.652-.801-1.081-.547-1.941-1.295-2.579-2.246-.625-.963-.937-2.057-.937-3.281 0-1.107.208-2.09.625-2.949.417-.86 1.029-1.582 1.836-2.168.82-.599 1.842-1.048 3.066-1.348 1.224-.312 2.644-.469 4.258-.469zm19.609-8.261v3.984h-12.304v-3.984zm-9.258-5.215h5.625v19.98c0 .612.079 1.081.235 1.407.169.325.416.553.742.683.325.117.736.176 1.23.176.352 0 .664-.013.938-.039.286-.039.527-.078.723-.117l.019 4.14c-.482.157-1.003.28-1.562.371-.56.092-1.179.137-1.856.137-1.237 0-2.318-.202-3.242-.605-.912-.417-1.615-1.081-2.109-1.993-.495-.911-.743-2.109-.743-3.593zm12.461-3.652h5.625v25.156l-.566 4.844h-5.059zm19.004 19.218v.41c0 1.576-.169 3.021-.508 4.336-.325 1.315-.833 2.455-1.523 3.418-.69.951-1.55 1.693-2.578 2.227-1.016.521-2.214.781-3.594.781-1.289 0-2.409-.26-3.359-.781-.938-.521-1.726-1.257-2.364-2.207-.638-.951-1.152-2.064-1.543-3.34-.39-1.276-.683-2.669-.878-4.18v-.898c.195-1.511.488-2.904.878-4.18.391-1.276.905-2.389 1.543-3.34.638-.95 1.426-1.686 2.364-2.207.937-.521 2.044-.781 3.32-.781 1.393 0 2.604.267 3.633.801 1.042.521 1.901 1.263 2.578 2.226.69.951 1.198 2.084 1.523 3.399.339 1.302.508 2.741.508 4.316zm-5.625.41v-.41c0-.859-.065-1.666-.195-2.422-.117-.768-.326-1.438-.625-2.011-.3-.586-.71-1.049-1.231-1.387-.507-.339-1.165-.508-1.972-.508-.768 0-1.419.13-1.953.391-.534.26-.977.625-1.328 1.094-.339.468-.593 1.028-.762 1.679-.169.638-.274 1.341-.313 2.11v2.558c.039 1.029.209 1.94.508 2.735.313.781.781 1.399 1.406 1.855.638.443 1.465.664 2.481.664.794 0 1.452-.156 1.973-.469.52-.312.924-.755 1.21-1.328.3-.573.508-1.243.625-2.012.118-.781.176-1.627.176-2.539zm8.223.02v-.41c0-1.55.221-2.975.664-4.278.443-1.315 1.087-2.454 1.934-3.418.846-.963 1.888-1.712 3.125-2.246 1.237-.546 2.656-.82 4.257-.82 1.602 0 3.028.274 4.278.82 1.25.534 2.298 1.283 3.144 2.246.86.964 1.511 2.103 1.953 3.418.443 1.303.664 2.728.664 4.278v.41c0 1.536-.221 2.962-.664 4.277-.442 1.302-1.093 2.442-1.953 3.418-.846.964-1.888 1.712-3.125 2.246s-2.656.801-4.258.801c-1.601 0-3.027-.267-4.277-.801-1.237-.534-2.285-1.282-3.144-2.246-.847-.976-1.491-2.116-1.934-3.418-.443-1.315-.664-2.741-.664-4.277zm5.625-.41v.41c0 .885.078 1.712.234 2.48.157.769.404 1.446.742 2.032.352.573.808 1.022 1.368 1.347.56.326 1.243.489 2.05.489.782 0 1.452-.163 2.012-.489.56-.325 1.009-.774 1.348-1.347.338-.586.586-1.263.742-2.032.169-.768.254-1.595.254-2.48v-.41c0-.86-.085-1.667-.254-2.422-.156-.768-.41-1.445-.762-2.031-.338-.599-.788-1.068-1.347-1.407-.56-.338-1.237-.507-2.032-.507-.794 0-1.471.169-2.031.507-.547.339-.996.808-1.348 1.407-.338.586-.585 1.263-.742 2.031-.156.755-.234 1.562-.234 2.422zm28.203-10.371v3.984h-12.305v-3.984zm-9.258-5.215h5.625v19.98c0 .612.078 1.081.235 1.407.169.325.416.553.742.683.325.117.735.176 1.23.176.352 0 .664-.013.938-.039.286-.039.527-.078.722-.117l.02 4.14c-.482.157-1.003.28-1.563.371-.559.092-1.178.137-1.855.137-1.237 0-2.318-.202-3.242-.605-.912-.417-1.615-1.081-2.11-1.993-.494-.911-.742-2.109-.742-3.593z"/><path d="m688.931 263.922v7.617h-29.766v-6.445l13.711-14.414c1.211-1.387 2.187-2.627 2.93-3.721.742-1.113 1.279-2.119 1.611-3.017.352-.899.527-1.709.527-2.432 0-1.23-.185-2.256-.556-3.076-.352-.84-.879-1.475-1.582-1.904-.684-.43-1.534-.645-2.549-.645-1.016 0-1.904.293-2.666.879s-1.358 1.387-1.787 2.402c-.41 1.016-.616 2.158-.616 3.428h-9.902c0-2.617.635-5.01 1.904-7.178 1.289-2.168 3.077-3.896 5.362-5.185 2.285-1.309 4.931-1.963 7.939-1.963 3.145 0 5.781.488 7.91 1.465 2.129.976 3.731 2.392 4.805 4.248 1.094 1.836 1.641 4.052 1.641 6.65 0 1.484-.235 2.91-.703 4.277-.469 1.368-1.143 2.725-2.022 4.073-.879 1.328-1.953 2.695-3.223 4.101-1.25 1.407-2.675 2.901-4.277 4.483l-5.508 6.357z"/><path d="m688.931 263.922h1v-1h-1zm0 7.617v1h1v-1zm-29.766 0h-1v1h1zm0-6.445-.725-.689-.275.289v.4zm13.711-14.414.725.689.014-.015.014-.016zm2.93-3.721.827.562.005-.007zm1.611-3.017-.931-.365-.004.009-.003.009zm-.029-5.508-.923.386.006.013.006.013zm-1.582-1.904-.533.846.011.007zm-7.002 2.636-.921-.389-.003.007-.004.008zm-.616 3.428v1h1v-1zm-9.902 0h-1v1h1zm1.904-7.178-.859-.511-.004.006zm5.362-5.185.491.871.006-.004zm20.654 3.75-.865.501.006.011zm-1.084 15 .834.552.004-.006zm-3.223 4.101-.742-.67-.005.006zm-4.277 4.483-.703-.712-.027.028-.026.029zm-5.508 6.357-.756-.655-1.433 1.655h2.189zm15.817 0v7.617h2v-7.617zm1 6.617h-29.766v2h29.766zm-28.766 1v-6.445h-2v6.445zm-.275-5.756 13.711-14.414-1.45-1.378-13.711 14.414zm13.739-14.445c1.228-1.407 2.232-2.68 3.004-3.817l-1.655-1.123c-.712 1.05-1.661 2.257-2.855 3.624zm3.009-3.824c.77-1.155 1.35-2.232 1.717-3.226l-1.876-.693c-.297.803-.791 1.738-1.505 2.81zm1.71-3.208c.383-.978.596-1.915.596-2.796h-2c0 .564-.138 1.248-.458 2.067zm.596-2.796c0-1.324-.198-2.5-.645-3.488l-1.822.824c.295.653.467 1.527.467 2.664zm-.634-3.462c-.424-1.013-1.082-1.821-1.983-2.372l-1.043 1.707c.505.308.902.77 1.181 1.437zm-1.972-2.365c-.88-.553-1.925-.798-3.081-.798v2c.875 0 1.529.185 2.016.491zm-3.081-.798c-1.223 0-2.329.358-3.276 1.086l1.22 1.586c.576-.444 1.247-.672 2.056-.672zm-3.276 1.086c-.917.706-1.611 1.655-2.098 2.806l1.842.779c.372-.881.87-1.533 1.476-1.999zm-2.105 2.821c-.465 1.152-.688 2.424-.688 3.802h2c0-1.161.188-2.174.543-3.053zm.312 2.802h-9.902v2h9.902zm-8.902 1c0-2.447.591-4.664 1.767-6.672l-1.726-1.011c-1.363 2.328-2.041 4.896-2.041 7.683zm1.764-6.667c1.196-2.011 2.854-3.618 4.993-4.825l-.983-1.742c-2.43 1.371-4.347 3.221-5.729 5.545zm4.999-4.829c2.113-1.21 4.584-1.83 7.442-1.83v-2c-3.157 0-5.979.688-8.436 2.095zm7.442-1.83c3.048 0 5.532.474 7.493 1.374l.834-1.818c-2.296-1.054-5.085-1.556-8.327-1.556zm7.493 1.374c1.959.898 3.396 2.18 4.357 3.84l1.73-1.002c-1.187-2.052-2.954-3.602-5.253-4.656zm4.363 3.851c.983 1.65 1.5 3.682 1.5 6.138h2c0-2.739-.578-5.141-1.782-7.162zm1.5 6.138c0 1.377-.217 2.693-.649 3.953l1.892.649c.505-1.475.757-3.01.757-4.602zm-.649 3.953c-.44 1.281-1.075 2.564-1.914 3.85l1.676 1.093c.919-1.409 1.631-2.841 2.13-4.294zm-1.91 3.845c-.847 1.279-1.889 2.607-3.131 3.983l1.485 1.34c1.297-1.436 2.403-2.843 3.314-4.219zm-3.136 3.989c-1.233 1.387-2.644 2.866-4.233 4.435l1.406 1.423c1.614-1.594 3.055-3.104 4.322-4.529zm-4.286 4.492-5.508 6.357 1.512 1.31 5.508-6.358zm-4.752 8.012h16.817v-2h-16.817z"/></g><circle cx="674.503" cy="250.539" r="44.6462" stroke="#0a355c" stroke-width="2"/><rect fill="#fff" height="365.158" rx="30" stroke="#b8c4d8" stroke-width="2" width="263.237" x="256.747" y="83.2546"/><path d="m342.686 223.988c0-2.21 1.791-4 4-4h112.475c21.042 0 38.099 17.057 38.099 38.099 0 21.041-17.057 38.098-38.099 38.098h-87.744c-15.868 0-28.731-12.863-28.731-28.73z" fill="#f5516c"/><g fill="#fff"><rect height="2.98498" rx="1.49249" transform="matrix(-1 0 0 1 405.97 239.239)" width="38.4557"/><rect height="2.98498" rx="1.49249" transform="matrix(-1 0 0 1 421.117 248.799)" width="53.6027"/><rect height="2.98498" rx="1.49249" transform="matrix(-1 0 0 1 409.903 258.359)" width="42.3881"/><rect height="2.98498" rx="1.49249" transform="matrix(-1 0 0 1 416.95 267.919)" width="49.8627"/></g><path d="m309.437 244.062c-.038 1.678-2.547 3.021-5.619 3.021-3.071 0-5.581-1.343-5.618-3.021-4.72.447-8.428 4.401-8.428 9.213 0 4.588 3.371 4.812 7.791 4.812h1.461 9.551 1.461c4.457 0 7.828-.224 7.828-4.812 0-4.812-3.708-8.766-8.427-9.213z" fill="#f5516c"/><path d="m303.818 245.293c4.27 0 7.716-6.378 7.716-10.631 0-4.289-3.446-7.721-7.716-7.721s-7.716 3.432-7.716 7.684 3.446 10.668 7.716 10.668zm-4.607-14.1c1.161 3.507 9.139 1.94 9.139 1.94 2.285-.186 2.135 2.984 2.135 3.021-.599 3.581-3.333 7.982-6.629 7.982-3.409 0-6.255-4.737-6.705-8.355.337-3.17 2.06-4.588 2.06-4.588z" fill="#f5516c"/><path d="m434.044 129.941c0-2.209-1.79-4-4-4h-118.777c-17.561 0-31.797 14.236-31.797 31.796 0 17.561 14.236 31.797 31.797 31.797h94.047c15.867 0 28.73-12.863 28.73-28.731z" fill="#0a355c"/><rect fill="#fff" height="2.98498" rx="1.49249" width="109.446" x="304.298" y="145.192"/><rect fill="#fff" height="2.98498" rx="1.49249" width="53.6027" x="360.142" y="154.752"/><rect fill="#0a355c" height="23.45" rx="5" width="34.5053" x="455.66" y="138.564"/><path d="m464.638 150.715c1.574 0 2.85-1.276 2.85-2.85s-1.276-2.849-2.85-2.849-2.85 1.275-2.85 2.849 1.276 2.85 2.85 2.85z" fill="#fff"/><path d="m481.187 150.715c1.574 0 2.85-1.276 2.85-2.85s-1.276-2.849-2.85-2.849c-1.573 0-2.849 1.275-2.849 2.849s1.276 2.85 2.849 2.85z" fill="#fff"/><path d="m472.913 155.562c-1.506 0-2.94-.633-3.832-1.699-.192-.229-.162-.572.067-.765.228-.193.572-.163.765.066.686.819 1.807 1.307 3 1.307s2.313-.488 3-1.307c.193-.229.536-.259.765-.066s.259.536.066.765c-.897 1.066-2.325 1.699-3.831 1.699z" fill="#fff"/><rect height="39.382" rx="6.5" stroke="#b8c4d8" width="216.79" x="279.97" y="367.159"/></svg>