<svg fill="none" height="528" viewBox="0 0 1257 528" width="1257" xmlns="http://www.w3.org/2000/svg"><path d="m.432617.526367h1256.42v527.048h-1256.42z" fill="#f5f5f5"/><g fill="#0a355c"><path d="m761.936 235.458v2.156h-10.961v-1.853l5.323-5.806c.584-.659 1.045-1.228 1.382-1.707s.572-.909.707-1.291c.142-.39.214-.768.214-1.135 0-.516-.098-.969-.292-1.358-.188-.397-.465-.708-.831-.933-.367-.232-.813-.348-1.337-.348-.606 0-1.115.131-1.527.393s-.723.625-.932 1.09c-.21.456-.315.98-.315 1.572h-2.706c0-.951.217-1.819.651-2.606.434-.793 1.063-1.422 1.887-1.886.823-.472 1.815-.708 2.976-.708 1.093 0 2.021.184 2.785.551.764.366 1.344.887 1.741 1.561.404.673.606 1.471.606 2.392 0 .509-.082 1.014-.247 1.516-.165.501-.4 1.003-.707 1.505-.3.494-.656.992-1.067 1.493-.412.494-.865.996-1.359 1.505l-3.538 3.897zm2.381.809c0-.42.142-.771.427-1.056.284-.292.67-.438 1.156-.438.495 0 .88.146 1.157.438.285.285.427.636.427 1.056 0 .419-.142.771-.427 1.055-.277.285-.662.427-1.157.427-.486 0-.872-.142-1.156-.427-.285-.284-.427-.636-.427-1.055zm20.889-2.864c0-.337-.053-.636-.158-.898-.097-.263-.273-.502-.527-.719-.255-.217-.614-.427-1.079-.629-.456-.21-1.04-.423-1.752-.64-.778-.24-1.497-.506-2.156-.798-.651-.299-1.22-.644-1.707-1.033-.487-.397-.865-.85-1.134-1.359-.27-.516-.404-1.112-.404-1.785 0-.667.138-1.273.415-1.82.285-.546.685-1.018 1.202-1.415.524-.404 1.142-.715 1.853-.932.711-.224 1.497-.337 2.358-.337 1.213 0 2.258.225 3.133.674.884.449 1.562 1.052 2.033 1.808.479.756.719 1.591.719 2.505h-2.796c0-.54-.116-1.015-.349-1.427-.224-.419-.569-.748-1.033-.988-.456-.24-1.037-.359-1.741-.359-.666 0-1.22.101-1.662.303-.441.202-.771.475-.988.82-.217.344-.326.733-.326 1.168 0 .307.072.587.214.842.142.247.359.479.651.696.292.21.659.408 1.101.595.441.188.962.367 1.561.539.906.27 1.696.569 2.369.899.674.322 1.236.689 1.685 1.101.449.411.786.879 1.011 1.403.224.517.337 1.105.337 1.763 0 .689-.139 1.311-.416 1.865-.277.546-.674 1.014-1.19 1.404-.509.381-1.123.677-1.842.887-.711.202-1.505.303-2.381.303-.786 0-1.561-.105-2.325-.314-.756-.21-1.445-.528-2.066-.955-.622-.434-1.116-.973-1.483-1.617-.366-.652-.55-1.412-.55-2.28h2.819c0 .532.09.985.27 1.359.187.374.445.681.774.921.33.232.712.404 1.146.516.442.113.913.169 1.415.169.659 0 1.209-.094 1.651-.281.449-.187.786-.449 1.011-.786.224-.337.337-.726.337-1.168zm10.017 2.28c.442 0 .839-.086 1.191-.259.359-.179.647-.426.864-.741.225-.314.348-.677.371-1.089h2.549c-.015.786-.247 1.501-.696 2.145s-1.044 1.157-1.786 1.538c-.741.375-1.561.562-2.459.562-.929 0-1.737-.157-2.426-.472-.689-.322-1.262-.763-1.718-1.325-.457-.561-.801-1.209-1.033-1.943-.225-.733-.337-1.52-.337-2.358v-.393c0-.839.112-1.625.337-2.359.232-.741.576-1.392 1.033-1.954.456-.561 1.029-.999 1.718-1.314.689-.322 1.494-.483 2.415-.483.973 0 1.826.195 2.56.584.734.382 1.31.918 1.73 1.606.426.682.647 1.475.662 2.381h-2.549c-.023-.449-.135-.853-.337-1.213-.195-.367-.472-.659-.831-.876-.352-.217-.775-.325-1.269-.325-.547 0-1 .112-1.359.337-.359.217-.64.516-.842.898-.202.374-.348.797-.438 1.269-.083.464-.124.947-.124 1.449v.393c0 .501.041.988.124 1.46.082.471.224.894.427 1.269.209.367.494.662.853.887.359.217.816.326 1.37.326zm9.726-15.319v17.25h-2.696v-17.25zm-.472 10.725-.876-.011c.008-.838.124-1.613.348-2.324.232-.712.554-1.329.966-1.853.419-.532.921-.94 1.505-1.225.584-.292 1.232-.438 1.943-.438.599 0 1.138.083 1.617.247.487.165.906.431 1.258.798.352.359.617.831.797 1.415.187.576.281 1.28.281 2.111v7.805h-2.718v-7.827c0-.584-.086-1.048-.258-1.393-.165-.344-.408-.591-.73-.741-.322-.157-.715-.236-1.179-.236-.487 0-.917.097-1.292.292-.367.195-.674.461-.921.797-.247.337-.434.727-.561 1.168-.12.442-.18.914-.18 1.415zm13.297-3.313v9.838h-2.707v-12.151h2.583zm3.717-2.392-.022 2.516c-.165-.03-.345-.052-.539-.067-.187-.015-.375-.023-.562-.023-.464 0-.872.068-1.224.202-.352.128-.648.315-.887.562-.232.239-.412.531-.539.876-.128.344-.202.73-.225 1.157l-.618.044c0-.763.075-1.471.225-2.122s.374-1.224.674-1.718c.307-.494.689-.88 1.145-1.157.465-.277 1-.416 1.606-.416.165 0 .341.015.528.045.195.03.341.064.438.101zm4.593.079v12.151h-2.717v-12.151zm-2.897-3.189c0-.412.135-.753.404-1.022.277-.277.659-.416 1.146-.416.479 0 .857.139 1.134.416.277.269.416.61.416 1.022 0 .404-.139.741-.416 1.01-.277.27-.655.405-1.134.405-.487 0-.869-.135-1.146-.405-.269-.269-.404-.606-.404-1.01zm11.433 3.189v1.977h-6.851v-1.977zm-4.874-2.976h2.706v11.769c0 .375.053.663.157.865.113.195.266.326.461.393.194.068.423.101.685.101.187 0 .367-.011.539-.033.172-.023.311-.045.415-.068l.012 2.067c-.225.067-.487.127-.786.179-.292.053-.629.079-1.011.079-.622 0-1.172-.109-1.651-.326-.479-.224-.854-.587-1.123-1.089-.27-.502-.404-1.168-.404-1.999zm12.533 2.976v1.977h-6.851v-1.977zm-4.874-2.976h2.706v11.769c0 .375.053.663.158.865.112.195.265.326.46.393.195.068.423.101.685.101.187 0 .367-.011.539-.033.172-.023.311-.045.416-.068l.011 2.067c-.225.067-.487.127-.786.179-.292.053-.629.079-1.011.079-.621 0-1.172-.109-1.651-.326-.479-.224-.853-.587-1.123-1.089-.269-.502-.404-1.168-.404-1.999zm15.588 2.976v12.151h-2.718v-12.151zm-2.898-3.189c0-.412.135-.753.405-1.022.277-.277.658-.416 1.145-.416.479 0 .857.139 1.134.416.277.269.416.61.416 1.022 0 .404-.139.741-.416 1.01-.277.27-.655.405-1.134.405-.487 0-.868-.135-1.145-.405-.27-.269-.405-.606-.405-1.01zm12.679 12.05c0-.27-.067-.513-.202-.73-.134-.225-.393-.427-.775-.607-.374-.179-.928-.344-1.662-.494-.644-.142-1.235-.31-1.774-.505-.532-.202-.988-.446-1.37-.73-.382-.285-.678-.621-.887-1.011-.21-.389-.315-.838-.315-1.347 0-.495.109-.963.326-1.404.217-.442.528-.831.932-1.168s.895-.603 1.471-.798c.584-.194 1.235-.292 1.954-.292 1.018 0 1.891.173 2.617.517.734.337 1.295.797 1.684 1.381.39.577.584 1.228.584 1.954h-2.706c0-.321-.082-.621-.247-.898-.157-.284-.397-.513-.719-.685-.322-.18-.726-.27-1.213-.27-.464 0-.85.075-1.157.225-.299.142-.524.329-.673.562-.143.232-.214.486-.214.763 0 .202.038.386.113.551.082.157.217.303.404.438.187.127.442.247.763.359.33.112.742.221 1.236.326.928.194 1.726.445 2.392.752.674.299 1.19.689 1.55 1.168.359.472.539 1.071.539 1.797 0 .539-.116 1.033-.348 1.482-.225.442-.554.828-.989 1.157-.434.322-.954.573-1.561.752-.599.18-1.272.27-2.021.27-1.101 0-2.033-.195-2.797-.584-.763-.397-1.343-.902-1.74-1.516-.39-.622-.584-1.265-.584-1.932h2.616c.03.502.169.902.416 1.202.255.292.569.505.943.64.382.127.775.191 1.18.191.486 0 .894-.064 1.224-.191.329-.135.58-.314.752-.539.172-.232.258-.494.258-.786zm10.591-8.861v1.977h-6.851v-1.977zm-4.874-2.976h2.706v11.769c0 .375.053.663.157.865.113.195.266.326.461.393.195.068.423.101.685.101.187 0 .367-.011.539-.033.172-.023.311-.045.416-.068l.011 2.067c-.225.067-.487.127-.786.179-.292.053-.629.079-1.011.079-.621 0-1.172-.109-1.651-.326-.479-.224-.853-.587-1.123-1.089s-.404-1.168-.404-1.999zm18.047 15.352c-.898 0-1.711-.146-2.437-.438-.719-.299-1.333-.715-1.842-1.247-.501-.531-.887-1.156-1.156-1.875-.27-.719-.405-1.494-.405-2.325v-.449c0-.951.139-1.812.416-2.583s.662-1.43 1.157-1.977c.494-.554 1.078-.977 1.751-1.269.674-.292 1.404-.438 2.19-.438.869 0 1.629.146 2.28.438.652.292 1.191.704 1.617 1.236.435.524.757 1.149.966 1.875.217.726.326 1.528.326 2.404v1.156h-9.389v-1.943h6.716v-.213c-.015-.487-.112-.943-.292-1.37-.172-.427-.438-.771-.797-1.033-.36-.262-.839-.393-1.438-.393-.449 0-.85.097-1.201.292-.345.187-.633.46-.865.819-.232.36-.412.794-.539 1.303-.12.502-.18 1.067-.18 1.696v.449c0 .532.071 1.026.213 1.483.15.449.367.842.652 1.179.284.337.629.603 1.033.797.404.187.865.281 1.381.281.652 0 1.232-.131 1.741-.393s.951-.633 1.325-1.112l1.427 1.381c-.263.382-.603.749-1.022 1.101-.42.344-.933.625-1.539.842-.599.217-1.295.326-2.089.326zm9.872-12.376v12.151h-2.718v-12.151zm-2.898-3.189c0-.412.135-.753.405-1.022.277-.277.658-.416 1.145-.416.479 0 .857.139 1.134.416.277.269.416.61.416 1.022 0 .404-.139.741-.416 1.01-.277.27-.655.405-1.134.405-.487 0-.868-.135-1.145-.405-.27-.269-.405-.606-.405-1.01zm8.547 5.783v9.557h-2.707v-12.151h2.549zm-.483 3.032-.876-.011c.007-.861.127-1.651.359-2.369.24-.719.569-1.337.988-1.853.427-.517.936-.914 1.528-1.191.591-.284 1.25-.427 1.976-.427.584 0 1.112.083 1.584.247.479.158.887.416 1.224.775.344.36.606.828.786 1.404.18.569.27 1.269.27 2.1v7.85h-2.718v-7.861c0-.584-.086-1.044-.259-1.381-.164-.345-.408-.588-.73-.73-.314-.15-.707-.225-1.179-.225-.464 0-.879.097-1.246.292s-.678.461-.932.797c-.247.337-.438.727-.573 1.168-.135.442-.202.914-.202 1.415zm26.257 1.202h2.807c-.09 1.071-.389 2.025-.898 2.864-.509.831-1.224 1.486-2.145 1.965s-2.041.719-3.358.719c-1.011 0-1.921-.18-2.729-.539-.809-.367-1.501-.884-2.078-1.55-.576-.674-1.018-1.486-1.325-2.437-.3-.951-.449-2.014-.449-3.189v-1.359c0-1.176.153-2.239.46-3.19.315-.951.764-1.763 1.348-2.437.584-.681 1.284-1.201 2.1-1.561.823-.359 1.748-.539 2.774-.539 1.303 0 2.403.24 3.302.719.898.479 1.594 1.142 2.088 1.988.502.846.809 1.815.921 2.908h-2.807c-.075-.703-.24-1.306-.494-1.808-.247-.501-.614-.883-1.101-1.145-.487-.27-1.123-.404-1.909-.404-.644 0-1.206.119-1.685.359-.479.239-.879.591-1.201 1.056-.322.464-.566 1.037-.73 1.718-.158.674-.236 1.445-.236 2.313v1.382c0 .823.071 1.572.213 2.246.15.666.375 1.239.674 1.718.307.479.696.85 1.168 1.112s1.037.393 1.696.393c.801 0 1.449-.127 1.943-.382.501-.254.879-.625 1.134-1.112.262-.494.434-1.097.517-1.808zm7.771-11.927v17.25h-2.695v-17.25zm-.472 10.725-.876-.011c.008-.838.124-1.613.348-2.324.233-.712.555-1.329.966-1.853.42-.532.921-.94 1.505-1.225.584-.292 1.232-.438 1.943-.438.599 0 1.138.083 1.617.247.487.165.906.431 1.258.798.352.359.618.831.797 1.415.188.576.281 1.28.281 2.111v7.805h-2.718v-7.827c0-.584-.086-1.048-.258-1.393-.165-.344-.408-.591-.73-.741-.322-.157-.715-.236-1.179-.236-.487 0-.917.097-1.292.292-.366.195-.673.461-.92.797-.248.337-.435.727-.562 1.168-.12.442-.18.914-.18 1.415zm17.43 4.088v-5.795c0-.434-.079-.808-.236-1.123-.157-.314-.397-.557-.719-.73-.314-.172-.711-.258-1.19-.258-.442 0-.824.075-1.146.225-.321.149-.572.352-.752.606-.18.255-.269.543-.269.865h-2.696c0-.479.116-.943.348-1.393.232-.449.569-.849 1.011-1.201s.97-.629 1.584-.831c.614-.203 1.302-.304 2.066-.304.913 0 1.722.154 2.426.461.711.307 1.269.771 1.673 1.392.412.614.618 1.386.618 2.314v5.402c0 .554.037 1.052.112 1.493.082.435.198.813.348 1.135v.179h-2.774c-.127-.292-.228-.662-.303-1.111-.067-.457-.101-.899-.101-1.326zm.393-4.952.023 1.673h-1.943c-.502 0-.944.049-1.326.146-.381.09-.7.225-.954.404-.255.18-.446.397-.573.652-.127.254-.191.543-.191.864 0 .322.075.618.225.888.15.262.367.468.651.617.292.15.644.225 1.056.225.554 0 1.037-.112 1.449-.337.419-.232.748-.513.988-.842.239-.337.367-.655.382-.955l.876 1.202c-.09.307-.244.636-.461.988s-.501.689-.853 1.011c-.345.314-.76.573-1.247.775-.479.202-1.033.303-1.662.303-.794 0-1.501-.157-2.123-.472-.621-.322-1.108-.752-1.46-1.291-.351-.547-.527-1.164-.527-1.853 0-.644.119-1.213.359-1.707.247-.502.606-.921 1.078-1.258.479-.337 1.063-.592 1.752-.764.689-.179 1.475-.269 2.359-.269zm10.725-4.762v1.977h-6.85v-1.977zm-4.874-2.976h2.707v11.769c0 .375.052.663.157.865.112.195.266.326.46.393.195.068.423.101.685.101.188 0 .367-.011.539-.033.173-.023.311-.045.416-.068l.011 2.067c-.224.067-.486.127-.786.179-.292.053-.629.079-1.011.079-.621 0-1.171-.109-1.651-.326-.479-.224-.853-.587-1.123-1.089-.269-.502-.404-1.168-.404-1.999zm6.974-2.123h2.707v14.656l-.258 2.594h-2.449zm10.636 11.062v.236c0 .899-.102 1.726-.304 2.482-.194.749-.494 1.4-.898 1.954-.397.554-.891.985-1.483 1.292-.584.299-1.261.449-2.032.449-.756 0-1.415-.142-1.977-.427-.561-.284-1.033-.689-1.415-1.213-.374-.524-.677-1.149-.91-1.875-.232-.726-.396-1.527-.494-2.403v-.753c.098-.883.262-1.684.494-2.403.233-.726.536-1.352.91-1.876.382-.531.85-.939 1.404-1.224.561-.284 1.217-.427 1.965-.427.779 0 1.464.15 2.055.45.599.299 1.097.726 1.494 1.28.397.546.693 1.198.887 1.954.202.756.304 1.591.304 2.504zm-2.707.236v-.236c0-.546-.045-1.059-.135-1.538-.09-.487-.239-.914-.449-1.28-.202-.367-.479-.656-.831-.865-.344-.217-.775-.326-1.292-.326-.479 0-.891.082-1.235.247s-.633.39-.865.674c-.232.285-.415.614-.55.988-.127.375-.213.779-.258 1.213v2.033c.067.561.209 1.078.427 1.55.224.464.539.838.943 1.123.404.277.925.415 1.561.415.502 0 .925-.101 1.269-.303s.618-.483.82-.842c.209-.367.359-.794.449-1.281.097-.486.146-1.01.146-1.572zm4.481.011v-.258c0-.876.127-1.688.382-2.437.254-.756.621-1.411 1.1-1.965.487-.562 1.078-.996 1.775-1.303.704-.314 1.497-.472 2.381-.472.891 0 1.684.158 2.38.472.704.307 1.299.741 1.786 1.303.487.554.857 1.209 1.112 1.965.255.749.382 1.561.382 2.437v.258c0 .876-.127 1.689-.382 2.437-.255.749-.625 1.404-1.112 1.966-.487.554-1.078.988-1.774 1.303-.697.307-1.486.46-2.37.46-.891 0-1.688-.153-2.392-.46-.696-.315-1.288-.749-1.774-1.303-.487-.562-.858-1.217-1.112-1.966-.255-.748-.382-1.561-.382-2.437zm2.706-.258v.258c0 .547.057 1.064.169 1.55.112.487.288.914.528 1.281.239.366.546.655.921.864.374.21.819.315 1.336.315.502 0 .936-.105 1.303-.315.374-.209.681-.498.921-.864.239-.367.415-.794.528-1.281.119-.486.179-1.003.179-1.55v-.258c0-.539-.06-1.048-.179-1.527-.113-.487-.292-.917-.54-1.292-.239-.374-.546-.666-.92-.876-.367-.217-.805-.325-1.314-.325s-.951.108-1.326.325c-.366.21-.67.502-.909.876-.24.375-.416.805-.528 1.292-.112.479-.169.988-.169 1.527zm16.431-5.952v1.977h-6.851v-1.977zm-4.874-2.976h2.706v11.769c0 .375.053.663.157.865.113.195.266.326.461.393.195.068.423.101.685.101.187 0 .367-.011.539-.033.172-.023.311-.045.416-.068l.011 2.067c-.225.067-.487.127-.786.179-.292.053-.629.079-1.011.079-.622 0-1.172-.109-1.651-.326-.479-.224-.854-.587-1.123-1.089-.27-.502-.404-1.168-.404-1.999zm9.497 12.522-.01 1.932c0 .763-.19 1.549-.57 2.358s-.89 1.475-1.516 1.999l-1.449-.842c.209-.337.4-.678.573-1.022.172-.345.31-.712.415-1.101s.157-.82.157-1.291v-2.033zm8.35-14.645h2.7v14.656l-.25 2.594h-2.45zm10.63 11.062v.236c0 .899-.1 1.726-.3 2.482-.19.749-.49 1.4-.9 1.954-.4.554-.89.985-1.48 1.292-.58.299-1.26.449-2.03.449-.76 0-1.42-.142-1.98-.427-.56-.284-1.03-.689-1.42-1.213-.37-.524-.67-1.149-.9-1.875-.24-.726-.4-1.527-.5-2.403v-.753c.1-.883.26-1.684.5-2.403.23-.726.53-1.352.9-1.876.39-.531.85-.939 1.41-1.224.56-.284 1.22-.427 1.96-.427.78 0 1.47.15 2.06.45.6.299 1.1.726 1.49 1.28.4.546.7 1.198.89 1.954.2.756.3 1.591.3 2.504zm-2.7.236v-.236c0-.546-.05-1.059-.14-1.538-.09-.487-.24-.914-.45-1.28-.2-.367-.48-.656-.83-.865-.34-.217-.77-.326-1.29-.326-.48 0-.89.082-1.24.247-.34.165-.63.39-.86.674-.23.285-.42.614-.55.988-.13.375-.21.779-.26 1.213v2.033c.07.561.21 1.078.43 1.55.22.464.54.838.94 1.123.41.277.93.415 1.56.415.5 0 .93-.101 1.27-.303.35-.202.62-.483.82-.842.21-.367.36-.794.45-1.281.1-.486.15-1.01.15-1.572zm10.35 6.177c-.9 0-1.71-.146-2.44-.438-.71-.299-1.33-.715-1.84-1.247-.5-.531-.88-1.156-1.15-1.875s-.41-1.494-.41-2.325v-.449c0-.951.14-1.812.42-2.583.27-.771.66-1.43 1.15-1.977.5-.554 1.08-.977 1.76-1.269.67-.292 1.4-.438 2.19-.438.86 0 1.62.146 2.28.438.65.292 1.19.704 1.61 1.236.44.524.76 1.149.97 1.875.22.726.32 1.528.32 2.404v1.156h-9.38v-1.943h6.71v-.213c-.01-.487-.11-.943-.29-1.37-.17-.427-.44-.771-.8-1.033s-.84-.393-1.44-.393c-.45 0-.85.097-1.2.292-.34.187-.63.46-.86.819-.23.36-.41.794-.54 1.303-.12.502-.18 1.067-.18 1.696v.449c0 .532.07 1.026.21 1.483.15.449.37.842.65 1.179.29.337.63.603 1.04.797.4.187.86.281 1.38.281.65 0 1.23-.131 1.74-.393s.95-.633 1.32-1.112l1.43 1.381c-.26.382-.6.749-1.02 1.101-.42.344-.93.625-1.54.842-.6.217-1.3.326-2.09.326zm9.87-12.376v12.151h-2.72v-12.151zm-2.89-3.189c0-.412.13-.753.4-1.022.28-.277.66-.416 1.14-.416s.86.139 1.14.416c.28.269.41.61.41 1.022 0 .404-.13.741-.41 1.01-.28.27-.66.405-1.14.405s-.86-.135-1.14-.405c-.27-.269-.4-.606-.4-1.01zm-277.016 45.825v-14.735h2.718v17.25h-2.459zm-7.906-3.426v-.235c0-.921.109-1.76.326-2.516.217-.764.531-1.419.943-1.965.412-.554.914-.977 1.505-1.269.592-.3 1.258-.45 1.999-.45.734 0 1.378.143 1.932.427.554.285 1.025.693 1.415 1.224.389.524.7 1.153.932 1.887.232.726.397 1.535.494 2.426v.752c-.097.869-.262 1.662-.494 2.381s-.543 1.34-.932 1.864c-.39.524-.865.929-1.426 1.213-.554.285-1.202.427-1.943.427-.734 0-1.397-.153-1.988-.46-.584-.307-1.082-.738-1.494-1.292s-.726-1.205-.943-1.954c-.217-.756-.326-1.576-.326-2.46zm2.707-.235v.235c0 .554.048 1.071.146 1.55.105.479.266.902.483 1.269.217.36.498.644.842.854.352.202.771.303 1.258.303.614 0 1.119-.135 1.516-.404.397-.27.707-.633.932-1.09.232-.464.389-.98.472-1.549v-2.033c-.045-.442-.139-.854-.281-1.235-.135-.382-.318-.715-.55-1-.232-.292-.521-.517-.865-.674-.337-.165-.738-.247-1.202-.247-.494 0-.913.105-1.258.315-.344.209-.629.497-.853.864-.217.367-.378.794-.483 1.281-.105.486-.157 1.007-.157 1.561zm16.104 6.401c-.898 0-1.711-.146-2.437-.438-.719-.299-1.332-.715-1.842-1.247-.501-.531-.887-1.156-1.156-1.875-.27-.719-.405-1.494-.405-2.325v-.449c0-.951.139-1.812.416-2.583s.663-1.43 1.157-1.977c.494-.554 1.078-.977 1.752-1.269.673-.292 1.403-.438 2.19-.438.868 0 1.628.146 2.279.438.652.292 1.191.704 1.618 1.236.434.524.756 1.149.965 1.875.217.726.326 1.528.326 2.404v1.156h-9.389v-1.943h6.716v-.213c-.015-.487-.112-.943-.292-1.37-.172-.427-.438-.771-.797-1.033-.36-.262-.839-.393-1.438-.393-.449 0-.849.097-1.201.292-.345.187-.633.46-.865.819-.232.36-.412.794-.539 1.303-.12.502-.18 1.067-.18 1.696v.449c0 .532.071 1.026.214 1.483.149.449.366.842.651 1.179.284.337.629.603 1.033.797.404.187.865.281 1.381.281.652 0 1.232-.131 1.741-.393s.951-.633 1.325-1.112l1.427 1.381c-.262.382-.603.749-1.022 1.101-.42.344-.932.625-1.539.842-.599.217-1.295.326-2.089.326zm9.681-9.905v9.68h-2.707v-12.151h2.55zm-.438 3.155-.921-.011c0-.838.105-1.613.314-2.324.21-.712.517-1.329.921-1.853.405-.532.906-.94 1.505-1.225.607-.292 1.307-.438 2.1-.438.554 0 1.06.083 1.516.247.465.158.865.409 1.202.753.345.344.607.786.786 1.325.187.539.281 1.191.281 1.954v8.097h-2.707v-7.861c0-.591-.089-1.056-.269-1.393-.172-.336-.423-.576-.753-.718-.321-.15-.707-.225-1.156-.225-.509 0-.944.097-1.303.292-.352.195-.64.461-.865.797-.224.337-.389.727-.494 1.168-.105.442-.157.914-.157 1.415zm7.536-.718-1.27.28c0-.733.102-1.426.304-2.077.209-.659.513-1.235.909-1.73.405-.501.903-.894 1.494-1.179.592-.284 1.269-.427 2.033-.427.621 0 1.175.087 1.662.259.494.164.913.426 1.258.786.344.359.606.827.786 1.404.179.569.269 1.257.269 2.066v7.861h-2.717v-7.872c0-.614-.09-1.09-.27-1.426-.172-.337-.419-.569-.741-.697-.322-.135-.708-.202-1.157-.202-.419 0-.79.079-1.112.236-.314.15-.58.363-.797.64-.217.27-.382.58-.494.932-.105.352-.157.734-.157 1.146zm19.046-9.108v16.351h-2.818v-16.351zm6.671 7.154v2.234h-7.389v-2.234zm.932-7.154v2.246h-8.321v-2.246zm4.403 6.513v9.838h-2.707v-12.151h2.583zm3.717-2.392-.022 2.516c-.165-.03-.345-.052-.539-.067-.188-.015-.375-.023-.562-.023-.464 0-.872.068-1.224.202-.352.128-.648.315-.887.562-.232.239-.412.531-.539.876-.128.344-.203.73-.225 1.157l-.618.044c0-.763.075-1.471.225-2.122s.374-1.224.674-1.718c.307-.494.689-.88 1.145-1.157.464-.277 1-.416 1.606-.416.165 0 .341.015.528.045.195.03.341.064.438.101zm8.142 9.793v-5.795c0-.434-.078-.808-.236-1.123-.157-.314-.396-.557-.718-.73-.315-.172-.712-.258-1.191-.258-.442 0-.823.075-1.145.225-.322.149-.573.352-.753.606-.179.255-.269.543-.269.865h-2.696c0-.479.116-.943.348-1.393.233-.449.57-.849 1.011-1.201.442-.352.97-.629 1.584-.831.614-.203 1.302-.304 2.066-.304.914 0 1.722.154 2.426.461.711.307 1.269.771 1.673 1.392.412.614.618 1.386.618 2.314v5.402c0 .554.037 1.052.112 1.493.083.435.199.813.348 1.135v.179h-2.774c-.127-.292-.228-.662-.303-1.111-.067-.457-.101-.899-.101-1.326zm.393-4.952.023 1.673h-1.943c-.502 0-.944.049-1.325.146-.382.09-.7.225-.955.404-.255.18-.445.397-.573.652-.127.254-.191.543-.191.864 0 .322.075.618.225.888.15.262.367.468.651.617.292.15.644.225 1.056.225.554 0 1.037-.112 1.449-.337.419-.232.748-.513.988-.842.24-.337.367-.655.382-.955l.876 1.202c-.09.307-.244.636-.461.988s-.501.689-.853 1.011c-.345.314-.76.573-1.247.775-.479.202-1.033.303-1.662.303-.793 0-1.501-.157-2.122-.472-.622-.322-1.108-.752-1.46-1.291-.352-.547-.528-1.164-.528-1.853 0-.644.12-1.213.359-1.707.247-.502.607-.921 1.078-1.258.479-.337 1.063-.592 1.752-.764.689-.179 1.475-.269 2.359-.269zm12.938-4.762h2.459v11.814c0 1.094-.232 2.022-.696 2.786-.464.763-1.112 1.344-1.943 1.74-.831.405-1.793.607-2.886.607-.464 0-.981-.068-1.55-.202-.562-.135-1.108-.352-1.64-.652-.524-.292-.962-.677-1.314-1.156l1.269-1.595c.435.516.914.895 1.438 1.134.524.24 1.074.359 1.651.359.621 0 1.149-.116 1.583-.348.442-.224.783-.557 1.022-.999.24-.442.36-.981.36-1.617v-9.12zm-8.255 6.21v-.235c0-.921.113-1.76.337-2.516.225-.764.547-1.419.966-1.965.419-.554.928-.977 1.527-1.269.599-.3 1.277-.45 2.033-.45.786 0 1.456.143 2.01.427.562.285 1.03.693 1.404 1.224.375.524.667 1.153.876 1.887.217.726.378 1.535.483 2.426v.752c-.097.869-.262 1.662-.494 2.381s-.539 1.34-.921 1.864-.853.929-1.415 1.213c-.554.285-1.209.427-1.965.427-.742 0-1.412-.153-2.011-.46-.591-.307-1.1-.738-1.527-1.292-.419-.554-.741-1.205-.966-1.954-.224-.756-.337-1.576-.337-2.46zm2.707-.235v.235c0 .554.052 1.071.157 1.55.112.479.281.902.505 1.269.233.36.525.644.876.854.36.202.783.303 1.269.303.637 0 1.157-.135 1.562-.404.411-.27.726-.633.943-1.09.224-.464.382-.98.472-1.549v-2.033c-.045-.442-.139-.854-.281-1.235-.135-.382-.318-.715-.55-1-.233-.292-.525-.517-.876-.674-.352-.165-.768-.247-1.247-.247-.487 0-.91.105-1.269.315-.359.209-.655.497-.887.864-.225.367-.393.794-.506 1.281-.112.486-.168 1.007-.168 1.561zm16.172 6.401c-.899 0-1.711-.146-2.437-.438-.719-.299-1.333-.715-1.842-1.247-.502-.531-.887-1.156-1.157-1.875-.269-.719-.404-1.494-.404-2.325v-.449c0-.951.138-1.812.415-2.583s.663-1.43 1.157-1.977c.494-.554 1.078-.977 1.752-1.269s1.404-.438 2.19-.438c.869 0 1.628.146 2.28.438.651.292 1.19.704 1.617 1.236.434.524.756 1.149.966 1.875.217.726.326 1.528.326 2.404v1.156h-9.389v-1.943h6.716v-.213c-.015-.487-.113-.943-.292-1.37-.173-.427-.438-.771-.798-1.033-.359-.262-.838-.393-1.437-.393-.449 0-.85.097-1.202.292-.344.187-.632.46-.865.819-.232.36-.411.794-.539 1.303-.119.502-.179 1.067-.179 1.696v.449c0 .532.071 1.026.213 1.483.15.449.367.842.651 1.179.285.337.629.603 1.034.797.404.187.864.281 1.381.281.651 0 1.232-.131 1.741-.393s.951-.633 1.325-1.112l1.426 1.381c-.262.382-.603.749-1.022 1.101-.419.344-.932.625-1.538.842-.599.217-1.296.326-2.089.326zm9.658-9.782v9.557h-2.707v-12.151h2.55zm-.483 3.032-.876-.011c.008-.861.127-1.651.359-2.369.24-.719.569-1.337.989-1.853.426-.517.936-.914 1.527-1.191.592-.284 1.25-.427 1.977-.427.584 0 1.111.083 1.583.247.479.158.887.416 1.224.775.345.36.607.828.786 1.404.18.569.27 1.269.27 2.1v7.85h-2.718v-7.861c0-.584-.086-1.044-.258-1.381-.165-.345-.408-.588-.73-.73-.315-.15-.708-.225-1.179-.225-.465 0-.88.097-1.247.292s-.677.461-.932.797c-.247.337-.438.727-.573 1.168-.135.442-.202.914-.202 1.415zm16.34-10.725h2.707v14.656l-.258 2.594h-2.449zm10.636 11.062v.236c0 .899-.101 1.726-.304 2.482-.194.749-.494 1.4-.898 1.954-.397.554-.891.985-1.482 1.292-.584.299-1.262.449-2.033.449-.756 0-1.415-.142-1.977-.427-.561-.284-1.033-.689-1.415-1.213-.374-.524-.677-1.149-.909-1.875-.233-.726-.397-1.527-.495-2.403v-.753c.098-.883.262-1.684.495-2.403.232-.726.535-1.352.909-1.876.382-.531.85-.939 1.404-1.224.562-.284 1.217-.427 1.965-.427.779 0 1.464.15 2.056.45.599.299 1.096.726 1.493 1.28.397.546.693 1.198.887 1.954.203.756.304 1.591.304 2.504zm-2.707.236v-.236c0-.546-.045-1.059-.135-1.538-.09-.487-.239-.914-.449-1.28-.202-.367-.479-.656-.831-.865-.344-.217-.775-.326-1.291-.326-.48 0-.891.082-1.236.247-.344.165-.632.39-.865.674-.232.285-.415.614-.55.988-.127.375-.213.779-.258 1.213v2.033c.067.561.209 1.078.427 1.55.224.464.539.838.943 1.123.404.277.925.415 1.561.415.502 0 .925-.101 1.269-.303s.618-.483.82-.842c.21-.367.359-.794.449-1.281.097-.486.146-1.01.146-1.572zm10.355 6.177c-.899 0-1.711-.146-2.437-.438-.719-.299-1.333-.715-1.842-1.247-.502-.531-.887-1.156-1.157-1.875-.269-.719-.404-1.494-.404-2.325v-.449c0-.951.138-1.812.415-2.583s.663-1.43 1.157-1.977c.494-.554 1.078-.977 1.752-1.269s1.404-.438 2.19-.438c.868 0 1.628.146 2.28.438.651.292 1.19.704 1.617 1.236.434.524.756 1.149.966 1.875.217.726.325 1.528.325 2.404v1.156h-9.388v-1.943h6.716v-.213c-.015-.487-.113-.943-.292-1.37-.173-.427-.438-.771-.798-1.033-.359-.262-.838-.393-1.437-.393-.45 0-.85.097-1.202.292-.344.187-.633.46-.865.819-.232.36-.412.794-.539 1.303-.12.502-.179 1.067-.179 1.696v.449c0 .532.071 1.026.213 1.483.15.449.367.842.651 1.179.285.337.629.603 1.033.797.405.187.865.281 1.382.281.651 0 1.231-.131 1.741-.393.509-.262.95-.633 1.325-1.112l1.426 1.381c-.262.382-.603.749-1.022 1.101-.419.344-.932.625-1.539.842-.599.217-1.295.326-2.088.326zm13.824-2.662v-5.795c0-.434-.078-.808-.236-1.123-.157-.314-.396-.557-.718-.73-.315-.172-.712-.258-1.191-.258-.441 0-.823.075-1.145.225-.322.149-.573.352-.753.606-.179.255-.269.543-.269.865h-2.696c0-.479.117-.943.349-1.393.232-.449.569-.849 1.01-1.201.442-.352.97-.629 1.584-.831.614-.203 1.303-.304 2.066-.304.914 0 1.722.154 2.426.461.711.307 1.269.771 1.673 1.392.412.614.618 1.386.618 2.314v5.402c0 .554.037 1.052.112 1.493.083.435.199.813.349 1.135v.179h-2.774c-.128-.292-.229-.662-.304-1.111-.067-.457-.101-.899-.101-1.326zm.393-4.952.023 1.673h-1.943c-.502 0-.943.049-1.325.146-.382.09-.7.225-.955.404-.254.18-.445.397-.573.652-.127.254-.191.543-.191.864 0 .322.075.618.225.888.15.262.367.468.651.617.292.15.644.225 1.056.225.554 0 1.037-.112 1.449-.337.419-.232.749-.513.988-.842.24-.337.367-.655.382-.955l.876 1.202c-.09.307-.243.636-.461.988-.217.352-.501.689-.853 1.011-.344.314-.76.573-1.247.775-.479.202-1.033.303-1.662.303-.793 0-1.501-.157-2.122-.472-.622-.322-1.108-.752-1.46-1.291-.352-.547-.528-1.164-.528-1.853 0-.644.12-1.213.359-1.707.247-.502.607-.921 1.078-1.258.48-.337 1.064-.592 1.752-.764.689-.179 1.475-.269 2.359-.269zm7.839-2.168v9.557h-2.706v-12.151h2.549zm-.483 3.032-.876-.011c.008-.861.128-1.651.36-2.369.239-.719.569-1.337.988-1.853.427-.517.936-.914 1.527-1.191.592-.284 1.251-.427 1.977-.427.584 0 1.112.083 1.583.247.48.158.888.416 1.225.775.344.36.606.828.786 1.404.179.569.269 1.269.269 2.1v7.85h-2.718v-7.861c0-.584-.086-1.044-.258-1.381-.165-.345-.408-.588-.73-.73-.314-.15-.707-.225-1.179-.225-.464 0-.88.097-1.247.292s-.677.461-.932.797c-.247.337-.438.727-.573 1.168-.134.442-.202.914-.202 1.415zm16.172-5.626v1.977h-6.85v-1.977zm-4.874-2.976h2.707v11.769c0 .375.052.663.157.865.112.195.266.326.46.393.195.068.423.101.685.101.188 0 .367-.011.539-.033.173-.023.311-.045.416-.068l.011 2.067c-.224.067-.486.127-.786.179-.292.053-.629.079-1.011.079-.621 0-1.171-.109-1.65-.326-.48-.224-.854-.587-1.124-1.089-.269-.502-.404-1.168-.404-1.999zm10.265 12.432 2.807-9.456h1.73l-.472 2.83-2.83 9.321h-1.55zm-1.651-9.456 2.19 9.501.18 2.65h-1.73l-3.29-12.151zm8.816 9.389 2.122-9.389h2.64l-3.28 12.151h-1.729zm-2.336-9.389 2.774 9.344.348 2.807h-1.55l-2.864-9.332-.471-2.819zm8.423 6.21v-.258c0-.876.127-1.688.382-2.437.254-.756.621-1.411 1.1-1.965.487-.562 1.078-.996 1.775-1.303.703-.314 1.497-.472 2.38-.472.891 0 1.685.158 2.381.472.704.307 1.299.741 1.786 1.303.487.554.857 1.209 1.112 1.965.254.749.382 1.561.382 2.437v.258c0 .876-.128 1.689-.382 2.437-.255.749-.625 1.404-1.112 1.966-.487.554-1.078.988-1.774 1.303-.697.307-1.487.46-2.37.46-.891 0-1.688-.153-2.392-.46-.696-.315-1.288-.749-1.775-1.303-.486-.562-.857-1.217-1.111-1.966-.255-.748-.382-1.561-.382-2.437zm2.706-.258v.258c0 .547.056 1.064.169 1.55.112.487.288.914.528 1.281.239.366.546.655.92.864.375.21.82.315 1.337.315.502 0 .936-.105 1.303-.315.374-.209.681-.498.921-.864.239-.367.415-.794.527-1.281.12-.486.18-1.003.18-1.55v-.258c0-.539-.06-1.048-.18-1.527-.112-.487-.292-.917-.539-1.292-.239-.374-.546-.666-.921-.876-.366-.217-.804-.325-1.314-.325-.509 0-.95.108-1.325.325-.367.21-.67.502-.909.876-.24.375-.416.805-.528 1.292-.113.479-.169.988-.169 1.527zm13.578-3.639v9.838h-2.707v-12.151h2.583zm3.717-2.392-.022 2.516c-.165-.03-.345-.052-.539-.067-.187-.015-.375-.023-.562-.023-.464 0-.872.068-1.224.202-.352.128-.648.315-.887.562-.232.239-.412.531-.539.876-.127.344-.202.73-.225 1.157l-.617.044c0-.763.074-1.471.224-2.122s.374-1.224.674-1.718c.307-.494.689-.88 1.145-1.157.465-.277 1-.416 1.606-.416.165 0 .341.015.528.045.195.03.341.064.438.101zm7.828.079v1.977h-6.851v-1.977zm-4.874-2.976h2.706v11.769c0 .375.053.663.158.865.112.195.265.326.46.393.195.068.423.101.685.101.187 0 .367-.011.539-.033.172-.023.311-.045.416-.068l.011 2.067c-.225.067-.487.127-.786.179-.292.053-.629.079-1.011.079-.621 0-1.172-.109-1.651-.326-.479-.224-.853-.587-1.123-1.089-.269-.502-.404-1.168-.404-1.999zm12.32 15.352c-.899 0-1.711-.146-2.437-.438-.719-.299-1.333-.715-1.842-1.247-.502-.531-.887-1.156-1.157-1.875-.269-.719-.404-1.494-.404-2.325v-.449c0-.951.138-1.812.415-2.583s.663-1.43 1.157-1.977c.494-.554 1.078-.977 1.752-1.269s1.404-.438 2.19-.438c.868 0 1.628.146 2.28.438.651.292 1.19.704 1.617 1.236.434.524.756 1.149.966 1.875.217.726.325 1.528.325 2.404v1.156h-9.388v-1.943h6.716v-.213c-.015-.487-.113-.943-.292-1.37-.173-.427-.438-.771-.798-1.033-.359-.262-.838-.393-1.437-.393-.449 0-.85.097-1.202.292-.344.187-.633.46-.865.819-.232.36-.411.794-.539 1.303-.12.502-.179 1.067-.179 1.696v.449c0 .532.071 1.026.213 1.483.15.449.367.842.651 1.179.285.337.629.603 1.034.797.404.187.864.281 1.381.281.651 0 1.231-.131 1.741-.393.509-.262.95-.633 1.325-1.112l1.426 1.381c-.262.382-.603.749-1.022 1.101-.419.344-.932.625-1.538.842-.599.217-1.296.326-2.089.326zm12.544-12.376v1.977h-6.85v-1.977zm-4.874-2.976h2.707v11.769c0 .375.052.663.157.865.112.195.266.326.46.393.195.068.423.101.69.101.18 0 .36-.011.53-.033.18-.023.32-.045.42-.068l.01 2.067c-.22.067-.49.127-.78.179-.3.053-.634.079-1.016.079-.621 0-1.171-.109-1.651-.326-.479-.224-.853-.587-1.123-1.089-.269-.502-.404-1.168-.404-1.999zm-241.792 45.432 2.808-9.456h1.729l-.471 2.83-2.831 9.321h-1.549zm-1.651-9.456 2.19 9.501.18 2.65h-1.73l-3.29-12.151zm8.816 9.389 2.123-9.389h2.639l-3.279 12.151h-1.73zm-2.336-9.389 2.774 9.344.348 2.807h-1.55l-2.863-9.332-.472-2.819zm14.297 12.376c-.899 0-1.711-.146-2.437-.438-.719-.299-1.333-.715-1.842-1.247-.502-.531-.887-1.156-1.157-1.875s-.404-1.494-.404-2.325v-.449c0-.951.138-1.812.415-2.583s.663-1.43 1.157-1.977c.494-.554 1.078-.977 1.752-1.269s1.404-.438 2.19-.438c.868 0 1.628.146 2.28.438.651.292 1.19.704 1.617 1.236.434.524.756 1.149.966 1.875.217.726.325 1.528.325 2.404v1.156h-9.388v-1.943h6.716v-.213c-.015-.487-.113-.943-.292-1.37-.173-.427-.438-.771-.798-1.033-.359-.262-.838-.393-1.437-.393-.45 0-.85.097-1.202.292-.344.187-.633.46-.865.819-.232.36-.412.794-.539 1.303-.12.502-.179 1.067-.179 1.696v.449c0 .532.071 1.026.213 1.483.15.449.367.842.651 1.179.285.337.629.603 1.033.797.405.187.865.281 1.382.281.651 0 1.231-.131 1.741-.393.509-.262.95-.633 1.325-1.112l1.426 1.381c-.262.382-.603.749-1.022 1.101-.419.344-.932.625-1.539.842-.599.217-1.295.326-2.088.326zm9.691-10.063v9.838h-2.706v-12.151h2.583zm3.718-2.392-.023 2.516c-.164-.03-.344-.052-.539-.067-.187-.015-.374-.023-.561-.023-.464 0-.873.068-1.224.202-.352.128-.648.315-.888.562-.232.239-.411.531-.539.876-.127.344-.202.73-.224 1.157l-.618.044c0-.763.075-1.471.225-2.122.149-.651.374-1.224.673-1.718.307-.494.689-.88 1.146-1.157.464-.277.999-.416 1.606-.416.165 0 .341.015.528.045.194.03.34.064.438.101zm8.883 9.715v-14.735h2.718v17.25h-2.46zm-7.906-3.426v-.235c0-.921.108-1.76.325-2.516.218-.764.532-1.419.944-1.965.412-.554.913-.977 1.505-1.269.591-.3 1.258-.45 1.999-.45.733 0 1.377.143 1.931.427.554.285 1.026.693 1.415 1.224.39.524.7 1.153.933 1.887.232.726.396 1.535.494 2.426v.752c-.098.869-.262 1.662-.494 2.381-.233.719-.543 1.34-.933 1.864-.389.524-.864.929-1.426 1.213-.554.285-1.201.427-1.943.427-.733 0-1.396-.153-1.988-.46-.583-.307-1.081-.738-1.493-1.292s-.726-1.205-.944-1.954c-.217-.756-.325-1.576-.325-2.46zm2.706-.235v.235c0 .554.049 1.071.146 1.55.105.479.266.902.483 1.269.217.36.498.644.843.854.351.202.771.303 1.257.303.614 0 1.12-.135 1.516-.404.397-.27.708-.633.933-1.09.232-.464.389-.98.471-1.549v-2.033c-.045-.442-.138-.854-.28-1.235-.135-.382-.319-.715-.551-1-.232-.292-.52-.517-.865-.674-.336-.165-.737-.247-1.201-.247-.494 0-.914.105-1.258.315-.344.209-.629.497-.854.864-.217.367-.378.794-.482 1.281-.105.486-.158 1.007-.158 1.561zm16.105 6.401c-.899 0-1.711-.146-2.437-.438-.719-.299-1.333-.715-1.842-1.247-.502-.531-.887-1.156-1.157-1.875-.269-.719-.404-1.494-.404-2.325v-.449c0-.951.139-1.812.416-2.583s.662-1.43 1.156-1.977c.494-.554 1.078-.977 1.752-1.269s1.404-.438 2.19-.438c.869 0 1.629.146 2.28.438s1.19.704 1.617 1.236c.434.524.756 1.149.966 1.875.217.726.326 1.528.326 2.404v1.156h-9.389v-1.943h6.716v-.213c-.015-.487-.113-.943-.292-1.37-.172-.427-.438-.771-.798-1.033-.359-.262-.838-.393-1.437-.393-.449 0-.85.097-1.202.292-.344.187-.632.46-.864.819-.233.36-.412.794-.54 1.303-.119.502-.179 1.067-.179 1.696v.449c0 .532.071 1.026.213 1.483.15.449.367.842.652 1.179.284.337.628.603 1.033.797.404.187.864.281 1.381.281.651 0 1.232-.131 1.741-.393s.951-.633 1.325-1.112l1.426 1.381c-.262.382-.602.749-1.022 1.101-.419.344-.932.625-1.538.842-.599.217-1.296.326-2.089.326zm9.658-9.782v9.557h-2.707v-12.151h2.55zm-.483 3.032-.876-.011c.008-.861.127-1.651.36-2.369.239-.719.569-1.337.988-1.853.427-.517.936-.914 1.527-1.191.592-.284 1.25-.427 1.977-.427.584 0 1.112.083 1.583.247.479.158.887.416 1.224.775.345.36.607.828.786 1.404.18.569.27 1.269.27 2.1v7.85h-2.718v-7.861c0-.584-.086-1.044-.258-1.381-.165-.345-.408-.588-.73-.73-.315-.15-.708-.225-1.179-.225-.464 0-.88.097-1.247.292s-.677.461-.932.797c-.247.337-.438.727-.573 1.168-.134.442-.202.914-.202 1.415zm10.714 5.178c0-.42.142-.771.427-1.056.284-.292.67-.438 1.156-.438.495 0 .88.146 1.157.438.285.285.427.636.427 1.056 0 .419-.142.771-.427 1.055-.277.285-.662.427-1.157.427-.486 0-.872-.142-1.156-.427-.285-.284-.427-.636-.427-1.055zm21.416-.809v2.156h-9.051v-2.156zm-.247-8.31-7.883 10.466h-1.752v-1.74l7.839-10.411h1.796zm-1.044-1.685v2.156h-8.457v-2.156zm3.571 10.804c0-.42.143-.771.427-1.056.285-.292.67-.438 1.157-.438.494 0 .88.146 1.157.438.284.285.426.636.426 1.056 0 .419-.142.771-.426 1.055-.277.285-.663.427-1.157.427-.487 0-.872-.142-1.157-.427-.284-.284-.427-.636-.427-1.055zm12.691-6.042h-4.167l-.022-2.055h3.638c.614 0 1.135-.09 1.561-.27.435-.187.764-.453.989-.797.224-.352.337-.775.337-1.269 0-.547-.105-.992-.315-1.337-.209-.344-.531-.595-.966-.752-.426-.157-.973-.236-1.639-.236h-2.729v14.105h-2.819v-16.351h5.548c.898 0 1.699.086 2.403.258.711.172 1.314.442 1.808.809.502.359.88.816 1.134 1.37.262.554.394 1.213.394 1.976 0 .674-.161 1.292-.483 1.853-.322.554-.798 1.007-1.427 1.359s-1.411.562-2.347.629zm-.124 7.389h-4.93l1.269-2.234h3.661c.637 0 1.168-.105 1.595-.315.427-.217.745-.513.954-.887.218-.382.326-.827.326-1.337 0-.531-.093-.992-.281-1.381-.187-.397-.482-.7-.887-.91-.404-.217-.932-.325-1.583-.325h-3.167l.022-2.055h4.122l.64.774c.898.03 1.636.229 2.212.596.584.367 1.019.842 1.303 1.426.285.584.427 1.213.427 1.887 0 1.04-.229 1.913-.685 2.616-.449.704-1.097 1.239-1.943 1.606-.846.36-1.864.539-3.055.539zm8.367-1.347c0-.42.142-.771.427-1.056.284-.292.67-.438 1.156-.438.495 0 .88.146 1.157.438.285.285.427.636.427 1.056 0 .419-.142.771-.427 1.055-.277.285-.662.427-1.157.427-.486 0-.872-.142-1.156-.427-.285-.284-.427-.636-.427-1.055zm15.318-1.348 2.808-9.456h1.729l-.471 2.83-2.83 9.321h-1.55zm-1.651-9.456 2.19 9.501.18 2.65h-1.73l-3.29-12.151zm8.816 9.389 2.123-9.389h2.639l-3.279 12.151h-1.73zm-2.336-9.389 2.774 9.344.348 2.807h-1.549l-2.864-9.332-.472-2.819zm8.423 6.21v-.258c0-.876.127-1.688.382-2.437.255-.756.621-1.411 1.101-1.965.486-.562 1.078-.996 1.774-1.303.704-.314 1.497-.472 2.381-.472.891 0 1.684.158 2.381.472.704.307 1.299.741 1.785 1.303.487.554.858 1.209 1.112 1.965.255.749.382 1.561.382 2.437v.258c0 .876-.127 1.689-.382 2.437-.254.749-.625 1.404-1.112 1.966-.486.554-1.078.988-1.774 1.303-.696.307-1.486.46-2.37.46-.891 0-1.688-.153-2.392-.46-.696-.315-1.288-.749-1.774-1.303-.487-.562-.857-1.217-1.112-1.966-.255-.748-.382-1.561-.382-2.437zm2.707-.258v.258c0 .547.056 1.064.168 1.55.112.487.288.914.528 1.281.24.366.547.655.921.864.374.21.82.315 1.336.315.502 0 .936-.105 1.303-.315.374-.209.681-.498.921-.864.24-.367.416-.794.528-1.281.12-.486.18-1.003.18-1.55v-.258c0-.539-.06-1.048-.18-1.527-.112-.487-.292-.917-.539-1.292-.24-.374-.547-.666-.921-.876-.367-.217-.805-.325-1.314-.325s-.951.108-1.325.325c-.367.21-.67.502-.91.876-.24.375-.416.805-.528 1.292-.112.479-.168.988-.168 1.527zm13.532-11.051v17.25h-2.695v-17.25zm-.471 10.725-.876-.011c.007-.838.123-1.613.348-2.324.232-.712.554-1.329.966-1.853.419-.532.921-.94 1.505-1.225.584-.292 1.231-.438 1.943-.438.598 0 1.138.083 1.617.247.486.165.906.431 1.258.798.351.359.617.831.797 1.415.187.576.281 1.28.281 2.111v7.805h-2.718v-7.827c0-.584-.086-1.048-.258-1.393-.165-.344-.408-.591-.73-.741-.322-.157-.715-.236-1.18-.236-.486 0-.917.097-1.291.292-.367.195-.674.461-.921.797-.247.337-.434.727-.562 1.168-.119.442-.179.914-.179 1.415zm15.936 6.75c-.899 0-1.711-.146-2.437-.438-.719-.299-1.333-.715-1.842-1.247-.502-.531-.887-1.156-1.157-1.875-.269-.719-.404-1.494-.404-2.325v-.449c0-.951.138-1.812.415-2.583.278-.771.663-1.43 1.157-1.977.494-.554 1.078-.977 1.752-1.269s1.404-.438 2.19-.438c.869 0 1.629.146 2.28.438s1.19.704 1.617 1.236c.434.524.756 1.149.966 1.875.217.726.326 1.528.326 2.404v1.156h-9.389v-1.943h6.716v-.213c-.015-.487-.113-.943-.292-1.37-.172-.427-.438-.771-.798-1.033-.359-.262-.838-.393-1.437-.393-.449 0-.85.097-1.202.292-.344.187-.632.46-.865.819-.232.36-.411.794-.539 1.303-.119.502-.179 1.067-.179 1.696v.449c0 .532.071 1.026.213 1.483.15.449.367.842.651 1.179.285.337.629.603 1.034.797.404.187.864.281 1.381.281.651 0 1.232-.131 1.741-.393s.951-.633 1.325-1.112l1.426 1.381c-.262.382-.602.749-1.022 1.101-.419.344-.932.625-1.538.842-.599.217-1.296.326-2.089.326zm9.692-10.063v9.838h-2.707v-12.151h2.583zm3.717-2.392-.022 2.516c-.165-.03-.345-.052-.54-.067-.187-.015-.374-.023-.561-.023-.464 0-.872.068-1.224.202-.352.128-.648.315-.887.562-.232.239-.412.531-.539.876-.128.344-.203.73-.225 1.157l-.618.044c0-.763.075-1.471.225-2.122s.374-1.224.674-1.718c.307-.494.689-.88 1.145-1.157.464-.277 1-.416 1.606-.416.165 0 .341.015.528.045.195.03.341.064.438.101zm14.835 9.715v-14.735h2.718v17.25h-2.459zm-7.906-3.426v-.235c0-.921.109-1.76.326-2.516.217-.764.531-1.419.943-1.965.412-.554.914-.977 1.505-1.269.592-.3 1.258-.45 1.999-.45.734 0 1.378.143 1.932.427.554.285 1.025.693 1.415 1.224.389.524.7 1.153.932 1.887.232.726.397 1.535.494 2.426v.752c-.097.869-.262 1.662-.494 2.381s-.543 1.34-.932 1.864c-.39.524-.865.929-1.426 1.213-.554.285-1.202.427-1.943.427-.734 0-1.397-.153-1.988-.46-.584-.307-1.082-.738-1.494-1.292s-.726-1.205-.943-1.954c-.217-.756-.326-1.576-.326-2.46zm2.707-.235v.235c0 .554.048 1.071.146 1.55.105.479.266.902.483 1.269.217.36.498.644.842.854.352.202.771.303 1.258.303.614 0 1.119-.135 1.516-.404.397-.27.707-.633.932-1.09.232-.464.389-.98.472-1.549v-2.033c-.045-.442-.139-.854-.281-1.235-.135-.382-.318-.715-.55-1-.232-.292-.521-.517-.865-.674-.337-.165-.738-.247-1.202-.247-.494 0-.913.105-1.258.315-.344.209-.629.497-.853.864-.217.367-.378.794-.483 1.281-.105.486-.157 1.007-.157 1.561zm13.645-5.975v12.151h-2.718v-12.151zm-2.898-3.189c0-.412.135-.753.405-1.022.277-.277.658-.416 1.145-.416.479 0 .857.139 1.134.416.277.269.416.61.416 1.022 0 .404-.139.741-.416 1.01-.277.27-.655.405-1.134.405-.487 0-.868-.135-1.145-.405-.27-.269-.405-.606-.405-1.01zm11.22 15.565c-.899 0-1.711-.146-2.437-.438-.719-.299-1.333-.715-1.842-1.247-.502-.531-.887-1.156-1.157-1.875s-.404-1.494-.404-2.325v-.449c0-.951.138-1.812.415-2.583s.663-1.43 1.157-1.977c.494-.554 1.078-.977 1.752-1.269s1.404-.438 2.19-.438c.868 0 1.628.146 2.28.438.651.292 1.19.704 1.617 1.236.434.524.756 1.149.966 1.875.217.726.325 1.528.325 2.404v1.156h-9.388v-1.943h6.715v-.213c-.015-.487-.112-.943-.292-1.37-.172-.427-.438-.771-.797-1.033s-.838-.393-1.437-.393c-.45 0-.85.097-1.202.292-.344.187-.633.46-.865.819-.232.36-.412.794-.539 1.303-.12.502-.18 1.067-.18 1.696v.449c0 .532.072 1.026.214 1.483.15.449.367.842.651 1.179.285.337.629.603 1.033.797.405.187.865.281 1.382.281.651 0 1.231-.131 1.74-.393.51-.262.951-.633 1.326-1.112l1.426 1.381c-.262.382-.603.749-1.022 1.101-.419.344-.932.625-1.539.842-.599.217-1.295.326-2.088.326zm25.528-8.58v6.244c-.23.307-.6.644-1.09 1.011-.49.359-1.135.67-1.944.932-.808.262-1.815.393-3.021.393-1.026 0-1.965-.172-2.819-.517-.853-.352-1.591-.864-2.212-1.538-.614-.674-1.089-1.494-1.426-2.46-.337-.973-.506-2.081-.506-3.324v-1.134c0-1.236.154-2.336.461-3.302.314-.973.763-1.797 1.347-2.471.584-.673 1.288-1.183 2.112-1.527.831-.352 1.77-.528 2.819-.528 1.34 0 2.448.225 3.324.674.885.442 1.565 1.056 2.045 1.842s.78 1.684.91 2.695h-2.764c-.09-.569-.266-1.078-.528-1.527-.255-.449-.622-.801-1.101-1.056-.471-.262-1.085-.393-1.842-.393-.651 0-1.224.124-1.718.371s-.906.61-1.235 1.089c-.322.479-.565 1.063-.73 1.752s-.247 1.475-.247 2.358v1.157c0 .899.093 1.696.281 2.392.194.697.471 1.284.831 1.763.366.48.812.843 1.336 1.09.524.239 1.116.359 1.774.359.644 0 1.172-.052 1.584-.157.412-.112.737-.243.977-.393.247-.157.438-.307.573-.449v-3.246h-3.403v-2.1zm8.21 8.58c-.9 0-1.71-.146-2.44-.438-.72-.299-1.33-.715-1.84-1.247-.5-.531-.89-1.156-1.16-1.875s-.4-1.494-.4-2.325v-.449c0-.951.14-1.812.41-2.583.28-.771.67-1.43 1.16-1.977.49-.554 1.08-.977 1.75-1.269.68-.292 1.41-.438 2.19-.438.87 0 1.63.146 2.28.438s1.19.704 1.62 1.236c.43.524.76 1.149.96 1.875.22.726.33 1.528.33 2.404v1.156h-9.39v-1.943h6.72v-.213c-.02-.487-.11-.943-.29-1.37s-.44-.771-.8-1.033-.84-.393-1.44-.393c-.45 0-.85.097-1.2.292-.35.187-.63.46-.87.819-.23.36-.41.794-.53 1.303-.12.502-.18 1.067-.18 1.696v.449c0 .532.07 1.026.21 1.483.15.449.37.842.65 1.179.29.337.63.603 1.03.797.41.187.87.281 1.39.281.65 0 1.23-.131 1.74-.393.5-.262.95-.633 1.32-1.112l1.43 1.381c-.26.382-.61.749-1.02 1.101-.42.344-.94.625-1.54.842s-1.3.326-2.09.326zm9.87-17.475v17.25h-2.72v-17.25zm10.38 14.735v-14.735h2.71v17.25h-2.46zm-7.91-3.426v-.235c0-.921.11-1.76.33-2.516.21-.764.53-1.419.94-1.965.41-.554.91-.977 1.5-1.269.6-.3 1.26-.45 2-.45s1.38.143 1.93.427c.56.285 1.03.693 1.42 1.224.39.524.7 1.153.93 1.887.23.726.4 1.535.5 2.426v.752c-.1.869-.27 1.662-.5 2.381s-.54 1.34-.93 1.864-.86.929-1.43 1.213c-.55.285-1.2.427-1.94.427-.73 0-1.4-.153-1.99-.46-.58-.307-1.08-.738-1.49-1.292s-.73-1.205-.94-1.954c-.22-.756-.33-1.576-.33-2.46zm2.71-.235v.235c0 .554.05 1.071.14 1.55.11.479.27.902.49 1.269.21.36.49.644.84.854.35.202.77.303 1.26.303.61 0 1.11-.135 1.51-.404.4-.27.71-.633.93-1.09.24-.464.39-.98.48-1.549v-2.033c-.05-.442-.14-.854-.29-1.235-.13-.382-.31-.715-.55-1-.23-.292-.52-.517-.86-.674-.34-.165-.74-.247-1.2-.247-.5 0-.92.105-1.26.315-.34.209-.63.497-.85.864s-.38.794-.49 1.281c-.1.486-.15 1.007-.15 1.561zm16.1 6.401c-.9 0-1.71-.146-2.44-.438-.71-.299-1.33-.715-1.84-1.247-.5-.531-.88-1.156-1.15-1.875s-.41-1.494-.41-2.325v-.449c0-.951.14-1.812.42-2.583.27-.771.66-1.43 1.15-1.977.5-.554 1.08-.977 1.76-1.269.67-.292 1.4-.438 2.19-.438.86 0 1.62.146 2.28.438.65.292 1.19.704 1.61 1.236.44.524.76 1.149.97 1.875.22.726.32 1.528.32 2.404v1.156h-9.38v-1.943h6.71v-.213c-.01-.487-.11-.943-.29-1.37-.17-.427-.44-.771-.8-1.033s-.84-.393-1.44-.393c-.44 0-.85.097-1.2.292-.34.187-.63.46-.86.819-.23.36-.41.794-.54 1.303-.12.502-.18 1.067-.18 1.696v.449c0 .532.07 1.026.21 1.483.15.449.37.842.65 1.179.29.337.63.603 1.04.797.4.187.86.281 1.38.281.65 0 1.23-.131 1.74-.393s.95-.633 1.32-1.112l1.43 1.381c-.26.382-.6.749-1.02 1.101-.42.344-.93.625-1.54.842-.6.217-1.3.326-2.09.326zm9.69-10.063v9.838h-2.7v-12.151h2.58zm3.72-2.392-.02 2.516c-.17-.03-.35-.052-.54-.067s-.38-.023-.56-.023c-.47 0-.87.068-1.23.202-.35.128-.64.315-.88.562-.24.239-.42.531-.54.876-.13.344-.21.73-.23 1.157l-.62.044c0-.763.08-1.471.23-2.122s.37-1.224.67-1.718c.31-.494.69-.88 1.15-1.157s1-.416 1.6-.416c.17 0 .35.015.53.045.2.03.34.064.44.101zm-296.316 42.715v-14.735h2.718v17.25h-2.459zm-7.906-3.426v-.235c0-.921.109-1.76.326-2.516.217-.764.531-1.419.943-1.965.412-.554.914-.977 1.505-1.269.592-.3 1.258-.45 1.999-.45.734 0 1.378.143 1.932.427.554.285 1.025.693 1.415 1.224.389.524.7 1.153.932 1.887.232.726.397 1.535.494 2.426v.752c-.097.869-.262 1.662-.494 2.381s-.543 1.34-.932 1.864c-.39.524-.865.929-1.426 1.213-.554.285-1.202.427-1.943.427-.734 0-1.397-.153-1.988-.46-.584-.307-1.082-.738-1.494-1.292s-.726-1.205-.943-1.954c-.217-.756-.326-1.576-.326-2.46zm2.707-.235v.235c0 .554.048 1.071.146 1.55.105.479.266.902.483 1.269.217.36.498.644.842.854.352.202.771.303 1.258.303.614 0 1.119-.135 1.516-.404.397-.27.707-.633.932-1.09.232-.464.389-.98.472-1.549v-2.033c-.045-.442-.139-.854-.281-1.235-.135-.382-.318-.715-.55-1-.232-.292-.521-.517-.865-.674-.337-.165-.738-.247-1.202-.247-.494 0-.913.105-1.258.315-.344.209-.629.497-.853.864-.217.367-.378.794-.483 1.281-.105.486-.157 1.007-.157 1.561zm16.104 6.401c-.898 0-1.711-.146-2.437-.438-.719-.299-1.332-.715-1.842-1.247-.501-.531-.887-1.156-1.156-1.875-.27-.719-.405-1.494-.405-2.325v-.449c0-.951.139-1.812.416-2.583s.663-1.43 1.157-1.977c.494-.554 1.078-.977 1.752-1.269.673-.292 1.403-.438 2.19-.438.868 0 1.628.146 2.279.438.652.292 1.191.704 1.618 1.236.434.524.756 1.149.965 1.875.217.726.326 1.528.326 2.404v1.156h-9.389v-1.943h6.716v-.213c-.015-.487-.112-.943-.292-1.37-.172-.427-.438-.771-.797-1.033-.36-.262-.839-.393-1.438-.393-.449 0-.849.097-1.201.292-.345.187-.633.46-.865.819-.232.36-.412.794-.539 1.303-.12.502-.18 1.067-.18 1.696v.449c0 .532.071 1.026.214 1.483.149.449.366.842.651 1.179.284.337.629.603 1.033.797.404.187.865.281 1.381.281.652 0 1.232-.131 1.741-.393s.951-.633 1.325-1.112l1.427 1.381c-.262.382-.603.749-1.022 1.101-.42.344-.932.625-1.539.842-.599.217-1.295.326-2.089.326zm13.791-3.515c0-.27-.067-.513-.202-.73-.135-.225-.393-.427-.775-.607-.374-.179-.928-.344-1.662-.494-.644-.142-1.235-.31-1.774-.505-.532-.202-.989-.446-1.37-.73-.382-.285-.678-.621-.888-1.011-.209-.389-.314-.838-.314-1.347 0-.495.108-.963.326-1.404.217-.442.527-.831.932-1.168.404-.337.894-.603 1.471-.798.584-.194 1.235-.292 1.954-.292 1.018 0 1.89.173 2.617.517.733.337 1.295.797 1.684 1.381.39.577.584 1.228.584 1.954h-2.706c0-.321-.083-.621-.247-.898-.158-.284-.397-.513-.719-.685-.322-.18-.726-.27-1.213-.27-.464 0-.85.075-1.157.225-.299.142-.524.329-.674.562-.142.232-.213.486-.213.763 0 .202.037.386.112.551.083.157.217.303.405.438.187.127.441.247.763.359.33.112.742.221 1.236.326.928.194 1.725.445 2.392.752.674.299 1.19.689 1.55 1.168.359.472.539 1.071.539 1.797 0 .539-.116 1.033-.349 1.482-.224.442-.554.828-.988 1.157-.434.322-.954.573-1.561.752-.599.18-1.273.27-2.021.27-1.101 0-2.033-.195-2.797-.584-.763-.397-1.344-.902-1.74-1.516-.39-.622-.584-1.265-.584-1.932h2.616c.03.502.169.902.416 1.202.254.292.569.505.943.64.382.127.775.191 1.179.191.487 0 .895-.064 1.224-.191.33-.135.581-.314.753-.539.172-.232.258-.494.258-.786zm14.027-13.061v16.351h-2.819v-16.351zm5.919 6.794v9.557h-2.707v-12.151h2.549zm-.483 3.032-.876-.011c.007-.861.127-1.651.359-2.369.24-.719.569-1.337.988-1.853.427-.517.936-.914 1.528-1.191.591-.284 1.25-.427 1.976-.427.584 0 1.112.083 1.584.247.479.158.887.416 1.224.775.344.36.606.828.786 1.404.18.569.27 1.269.27 2.1v7.85h-2.718v-7.861c0-.584-.086-1.044-.259-1.381-.164-.345-.408-.588-.73-.73-.314-.15-.707-.225-1.179-.225-.464 0-.879.097-1.246.292s-.678.461-.932.797c-.248.337-.438.727-.573 1.168-.135.442-.202.914-.202 1.415zm14.554 4.38 2.976-10.006h2.808l-4.223 12.151h-1.752zm-2.279-10.006 3.032 10.051.146 2.1h-1.752l-4.245-12.151zm14.936 12.376c-.898 0-1.711-.146-2.437-.438-.719-.299-1.333-.715-1.842-1.247-.501-.531-.887-1.156-1.156-1.875-.27-.719-.405-1.494-.405-2.325v-.449c0-.951.139-1.812.416-2.583s.662-1.43 1.156-1.977c.495-.554 1.079-.977 1.752-1.269.674-.292 1.404-.438 2.19-.438.869 0 1.629.146 2.28.438.652.292 1.191.704 1.617 1.236.435.524.757 1.149.966 1.875.217.726.326 1.528.326 2.404v1.156h-9.389v-1.943h6.716v-.213c-.015-.487-.112-.943-.292-1.37-.172-.427-.438-.771-.797-1.033-.36-.262-.839-.393-1.438-.393-.449 0-.85.097-1.202.292-.344.187-.632.46-.864.819-.232.36-.412.794-.539 1.303-.12.502-.18 1.067-.18 1.696v.449c0 .532.071 1.026.213 1.483.15.449.367.842.652 1.179.284.337.629.603 1.033.797.404.187.865.281 1.381.281.652 0 1.232-.131 1.741-.393s.951-.633 1.325-1.112l1.426 1.381c-.262.382-.602.749-1.021 1.101-.42.344-.933.625-1.539.842-.599.217-1.295.326-2.089.326zm13.791-3.515c0-.27-.067-.513-.202-.73-.135-.225-.393-.427-.775-.607-.374-.179-.928-.344-1.662-.494-.644-.142-1.235-.31-1.774-.505-.532-.202-.989-.446-1.371-.73-.381-.285-.677-.621-.887-1.011-.209-.389-.314-.838-.314-1.347 0-.495.108-.963.325-1.404.218-.442.528-.831.933-1.168.404-.337.894-.603 1.471-.798.584-.194 1.235-.292 1.954-.292 1.018 0 1.89.173 2.617.517.733.337 1.295.797 1.684 1.381.389.577.584 1.228.584 1.954h-2.706c0-.321-.083-.621-.248-.898-.157-.284-.396-.513-.718-.685-.322-.18-.727-.27-1.213-.27-.464 0-.85.075-1.157.225-.299.142-.524.329-.674.562-.142.232-.213.486-.213.763 0 .202.037.386.112.551.083.157.217.303.404.438.188.127.442.247.764.359.33.112.741.221 1.236.326.928.194 1.725.445 2.392.752.673.299 1.19.689 1.549 1.168.36.472.539 1.071.539 1.797 0 .539-.116 1.033-.348 1.482-.224.442-.554.828-.988 1.157-.434.322-.955.573-1.561.752-.599.18-1.273.27-2.021.27-1.101 0-2.033-.195-2.797-.584-.764-.397-1.344-.902-1.741-1.516-.389-.622-.584-1.265-.584-1.932h2.617c.03.502.169.902.416 1.202.254.292.569.505.943.64.382.127.775.191 1.179.191.487 0 .895-.064 1.224-.191.33-.135.581-.314.753-.539.172-.232.258-.494.258-.786zm10.59-8.861v1.977h-6.85v-1.977zm-4.874-2.976h2.707v11.769c0 .375.052.663.157.865.112.195.266.326.461.393.194.068.423.101.685.101.187 0 .367-.011.539-.033.172-.023.31-.045.415-.068l.011 2.067c-.224.067-.486.127-.786.179-.292.053-.629.079-1.01.079-.622 0-1.172-.109-1.651-.326-.479-.224-.854-.587-1.123-1.089-.27-.502-.405-1.168-.405-1.999zm9.67 5.447v9.68h-2.707v-12.151h2.55zm-.438 3.155-.921-.011c0-.838.105-1.613.314-2.324.21-.712.517-1.329.921-1.853.405-.532.906-.94 1.505-1.225.607-.292 1.307-.438 2.1-.438.554 0 1.06.083 1.516.247.465.158.865.409 1.202.753.344.344.606.786.786 1.325.187.539.281 1.191.281 1.954v8.097h-2.707v-7.861c0-.591-.089-1.056-.269-1.393-.172-.336-.423-.576-.753-.718-.322-.15-.707-.225-1.156-.225-.509 0-.944.097-1.303.292-.352.195-.64.461-.865.797-.224.337-.389.727-.494 1.168-.105.442-.157.914-.157 1.415zm7.535-.718-1.269.28c0-.733.102-1.426.304-2.077.209-.659.513-1.235.909-1.73.405-.501.903-.894 1.494-1.179.591-.284 1.269-.427 2.033-.427.621 0 1.175.087 1.662.259.494.164.913.426 1.258.786.344.359.606.827.786 1.404.179.569.269 1.257.269 2.066v7.861h-2.717v-7.872c0-.614-.09-1.09-.27-1.426-.172-.337-.419-.569-.741-.697-.322-.135-.708-.202-1.157-.202-.419 0-.79.079-1.112.236-.314.15-.58.363-.797.64-.217.27-.382.58-.494.932-.105.352-.158.734-.158 1.146zm15.588 7.468c-.898 0-1.71-.146-2.437-.438-.718-.299-1.332-.715-1.841-1.247-.502-.531-.888-1.156-1.157-1.875-.27-.719-.404-1.494-.404-2.325v-.449c0-.951.138-1.812.415-2.583s.663-1.43 1.157-1.977c.494-.554 1.078-.977 1.752-1.269s1.404-.438 2.19-.438c.868 0 1.628.146 2.279.438.652.292 1.191.704 1.618 1.236.434.524.756 1.149.965 1.875.218.726.326 1.528.326 2.404v1.156h-9.389v-1.943h6.716v-.213c-.015-.487-.112-.943-.292-1.37-.172-.427-.438-.771-.797-1.033s-.839-.393-1.438-.393c-.449 0-.849.097-1.201.292-.345.187-.633.46-.865.819-.232.36-.412.794-.539 1.303-.12.502-.18 1.067-.18 1.696v.449c0 .532.071 1.026.214 1.483.149.449.367.842.651 1.179.285.337.629.603 1.033.797.405.187.865.281 1.382.281.651 0 1.231-.131 1.74-.393s.951-.633 1.326-1.112l1.426 1.381c-.262.382-.603.749-1.022 1.101-.419.344-.932.625-1.539.842-.599.217-1.295.326-2.089.326zm9.659-9.782v9.557h-2.707v-12.151h2.549zm-.483 3.032-.876-.011c.007-.861.127-1.651.359-2.369.24-.719.569-1.337.988-1.853.427-.517.936-.914 1.528-1.191.591-.284 1.25-.427 1.976-.427.584 0 1.112.083 1.584.247.479.158.887.416 1.224.775.344.36.606.828.786 1.404.18.569.27 1.269.27 2.1v7.85h-2.718v-7.861c0-.584-.086-1.044-.259-1.381-.164-.345-.408-.588-.73-.73-.314-.15-.707-.225-1.179-.225-.464 0-.879.097-1.246.292s-.678.461-.932.797c-.248.337-.438.727-.573 1.168-.135.442-.202.914-.202 1.415zm16.172-5.626v1.977h-6.851v-1.977zm-4.874-2.976h2.706v11.769c0 .375.052.663.157.865.113.195.266.326.461.393.194.068.423.101.685.101.187 0 .367-.011.539-.033.172-.023.311-.045.415-.068l.012 2.067c-.225.067-.487.127-.787.179-.292.053-.628.079-1.01.079-.622 0-1.172-.109-1.651-.326-.479-.224-.854-.587-1.123-1.089-.27-.502-.404-1.168-.404-1.999zm13.779 11.837c0-.27-.067-.513-.202-.73-.135-.225-.393-.427-.775-.607-.374-.179-.928-.344-1.662-.494-.644-.142-1.235-.31-1.774-.505-.532-.202-.989-.446-1.37-.73-.382-.285-.678-.621-.888-1.011-.209-.389-.314-.838-.314-1.347 0-.495.109-.963.326-1.404.217-.442.527-.831.932-1.168.404-.337.894-.603 1.471-.798.584-.194 1.235-.292 1.954-.292 1.018 0 1.891.173 2.617.517.733.337 1.295.797 1.684 1.381.39.577.584 1.228.584 1.954h-2.706c0-.321-.083-.621-.247-.898-.158-.284-.397-.513-.719-.685-.322-.18-.726-.27-1.213-.27-.464 0-.85.075-1.157.225-.299.142-.524.329-.674.562-.142.232-.213.486-.213.763 0 .202.038.386.112.551.083.157.218.303.405.438.187.127.441.247.763.359.33.112.742.221 1.236.326.928.194 1.725.445 2.392.752.674.299 1.19.689 1.55 1.168.359.472.539 1.071.539 1.797 0 .539-.116 1.033-.348 1.482-.225.442-.554.828-.989 1.157-.434.322-.954.573-1.561.752-.599.18-1.273.27-2.021.27-1.101 0-2.033-.195-2.797-.584-.763-.397-1.344-.902-1.74-1.516-.39-.622-.584-1.265-.584-1.932h2.616c.03.502.169.902.416 1.202.254.292.569.505.943.64.382.127.775.191 1.179.191.487 0 .895-.064 1.225-.191.329-.135.58-.314.752-.539.172-.232.258-.494.258-.786zm17.565 0c0-.27-.068-.513-.202-.73-.135-.225-.393-.427-.775-.607-.375-.179-.929-.344-1.662-.494-.644-.142-1.236-.31-1.775-.505-.531-.202-.988-.446-1.37-.73-.382-.285-.678-.621-.887-1.011-.21-.389-.315-.838-.315-1.347 0-.495.109-.963.326-1.404.217-.442.528-.831.932-1.168.405-.337.895-.603 1.471-.798.584-.194 1.236-.292 1.955-.292 1.018 0 1.89.173 2.616.517.734.337 1.295.797 1.685 1.381.389.577.584 1.228.584 1.954h-2.707c0-.321-.082-.621-.247-.898-.157-.284-.397-.513-.719-.685-.322-.18-.726-.27-1.212-.27-.465 0-.85.075-1.157.225-.3.142-.524.329-.674.562-.142.232-.213.486-.213.763 0 .202.037.386.112.551.082.157.217.303.404.438.187.127.442.247.764.359.329.112.741.221 1.235.326.929.194 1.726.445 2.392.752.674.299 1.191.689 1.55 1.168.359.472.539 1.071.539 1.797 0 .539-.116 1.033-.348 1.482-.225.442-.554.828-.988 1.157-.435.322-.955.573-1.561.752-.599.18-1.273.27-2.022.27-1.1 0-2.033-.195-2.796-.584-.764-.397-1.344-.902-1.741-1.516-.389-.622-.584-1.265-.584-1.932h2.617c.03.502.168.902.415 1.202.255.292.569.505.944.64.382.127.775.191 1.179.191.487 0 .895-.064 1.224-.191.329-.135.58-.314.752-.539.173-.232.259-.494.259-.786zm10.59-8.861v1.977h-6.851v-1.977zm-4.874-2.976h2.707v11.769c0 .375.052.663.157.865.112.195.266.326.46.393.195.068.423.101.685.101.188 0 .367-.011.539-.033.173-.023.311-.045.416-.068l.011 2.067c-.224.067-.486.127-.786.179-.292.053-.629.079-1.011.079-.621 0-1.171-.109-1.651-.326-.479-.224-.853-.587-1.123-1.089-.269-.502-.404-1.168-.404-1.999zm13.814 12.69v-5.795c0-.434-.079-.808-.236-1.123-.158-.314-.397-.557-.719-.73-.315-.172-.711-.258-1.19-.258-.442 0-.824.075-1.146.225-.322.149-.573.352-.752.606-.18.255-.27.543-.27.865h-2.695c0-.479.116-.943.348-1.393.232-.449.569-.849 1.011-1.201.441-.352.969-.629 1.583-.831.614-.203 1.303-.304 2.067-.304.913 0 1.722.154 2.425.461.712.307 1.269.771 1.674 1.392.411.614.617 1.386.617 2.314v5.402c0 .554.038 1.052.113 1.493.082.435.198.813.348 1.135v.179h-2.774c-.127-.292-.229-.662-.303-1.111-.068-.457-.101-.899-.101-1.326zm.393-4.952.022 1.673h-1.943c-.501 0-.943.049-1.325.146-.382.09-.7.225-.955.404-.254.18-.445.397-.572.652-.128.254-.191.543-.191.864 0 .322.075.618.224.888.15.262.367.468.652.617.292.15.644.225 1.055.225.554 0 1.037-.112 1.449-.337.419-.232.749-.513.988-.842.24-.337.367-.655.382-.955l.876 1.202c-.09.307-.243.636-.46.988s-.502.689-.854 1.011c-.344.314-.76.573-1.246.775-.48.202-1.034.303-1.662.303-.794 0-1.502-.157-2.123-.472-.621-.322-1.108-.752-1.46-1.291-.352-.547-.528-1.164-.528-1.853 0-.644.12-1.213.36-1.707.247-.502.606-.921 1.078-1.258.479-.337 1.063-.592 1.752-.764.688-.179 1.475-.269 2.358-.269zm7.861-2.291v9.68h-2.707v-12.151h2.55zm-.438 3.155-.921-.011c0-.838.105-1.613.314-2.324.21-.712.517-1.329.921-1.853.405-.532.906-.94 1.505-1.225.607-.292 1.307-.438 2.1-.438.554 0 1.06.083 1.516.247.465.158.865.409 1.202.753.345.344.607.786.786 1.325.187.539.281 1.191.281 1.954v8.097h-2.706v-7.861c0-.591-.09-1.056-.27-1.393-.172-.336-.423-.576-.752-.718-.322-.15-.708-.225-1.157-.225-.509 0-.944.097-1.303.292-.352.195-.64.461-.865.797-.224.337-.389.727-.494 1.168-.105.442-.157.914-.157 1.415zm7.536-.718-1.269.28c0-.733.101-1.426.303-2.077.209-.659.513-1.235.909-1.73.405-.501.903-.894 1.494-1.179.592-.284 1.269-.427 2.033-.427.621 0 1.175.087 1.662.259.494.164.913.426 1.258.786.344.359.606.827.786 1.404.18.569.269 1.257.269 2.066v7.861h-2.717v-7.872c0-.614-.09-1.09-.27-1.426-.172-.337-.419-.569-.741-.697-.322-.135-.708-.202-1.157-.202-.419 0-.79.079-1.112.236-.314.15-.58.363-.797.64-.217.27-.382.58-.494.932-.105.352-.157.734-.157 1.146zm12.937-2.437v9.68h-2.706v-12.151h2.549zm-.438 3.155-.921-.011c0-.838.105-1.613.315-2.324.209-.712.516-1.329.921-1.853.404-.532.905-.94 1.504-1.225.607-.292 1.307-.438 2.101-.438.554 0 1.059.083 1.516.247.464.158.864.409 1.201.753.345.344.607.786.786 1.325.188.539.281 1.191.281 1.954v8.097h-2.706v-7.861c0-.591-.09-1.056-.27-1.393-.172-.336-.423-.576-.752-.718-.322-.15-.708-.225-1.157-.225-.509 0-.943.097-1.303.292-.352.195-.64.461-.865.797-.224.337-.389.727-.494 1.168-.104.442-.157.914-.157 1.415zm7.536-.718-1.269.28c0-.733.101-1.426.303-2.077.21-.659.513-1.235.91-1.73.404-.501.902-.894 1.493-1.179.592-.284 1.269-.427 2.033-.427.621 0 1.175.087 1.662.259.494.164.913.426 1.258.786.344.359.606.827.786 1.404.18.569.27 1.257.27 2.066v7.861h-2.718v-7.872c0-.614-.09-1.09-.27-1.426-.172-.337-.419-.569-.741-.697-.322-.135-.707-.202-1.157-.202-.419 0-.79.079-1.112.236-.314.15-.58.363-.797.64-.217.27-.382.58-.494.932-.105.352-.157.734-.157 1.146zm15.589 7.468c-.9 0-1.71-.146-2.44-.438-.72-.299-1.33-.715-1.84-1.247-.502-.531-.887-1.156-1.157-1.875-.269-.719-.404-1.494-.404-2.325v-.449c0-.951.138-1.812.415-2.583s.663-1.43 1.157-1.977c.499-.554 1.079-.977 1.749-1.269.68-.292 1.41-.438 2.19-.438.87 0 1.63.146 2.28.438s1.19.704 1.62 1.236c.43.524.76 1.149.97 1.875s.32 1.528.32 2.404v1.156h-9.387v-1.943h6.717v-.213c-.02-.487-.11-.943-.29-1.37s-.44-.771-.8-1.033-.84-.393-1.44-.393c-.45 0-.85.097-1.2.292-.34.187-.63.46-.86.819-.24.36-.42.794-.54 1.303-.12.502-.18 1.067-.18 1.696v.449c0 .532.07 1.026.21 1.483.15.449.37.842.65 1.179.29.337.63.603 1.03.797.41.187.87.281 1.39.281.65 0 1.23-.131 1.74-.393s.95-.633 1.32-1.112l1.43 1.381c-.26.382-.6.749-1.02 1.101-.42.344-.94.625-1.54.842s-1.3.326-2.09.326zm9.66-9.782v9.557h-2.71v-12.151h2.55zm-.49 3.032-.87-.011c.01-.861.13-1.651.36-2.369.24-.719.57-1.337.99-1.853.42-.517.93-.914 1.52-1.191.59-.284 1.25-.427 1.98-.427.58 0 1.11.083 1.58.247.48.158.89.416 1.23.775.34.36.6.828.78 1.404.18.569.27 1.269.27 2.1v7.85h-2.71v-7.861c0-.584-.09-1.044-.26-1.381-.17-.345-.41-.588-.73-.73-.32-.15-.71-.225-1.18-.225s-.88.097-1.25.292-.68.461-.93.797c-.25.337-.44.727-.57 1.168-.14.442-.21.914-.21 1.415z"/><path d="m768.763 191.431h5.84c-.117 1.914-.645 3.614-1.582 5.098-.924 1.484-2.22 2.643-3.887 3.476-1.653.834-3.646 1.25-5.976 1.25-1.823 0-3.457-.312-4.903-.937-1.445-.638-2.682-1.549-3.711-2.734-1.015-1.185-1.79-2.618-2.324-4.297-.534-1.68-.801-3.561-.801-5.645v-1.972c0-2.084.274-3.965.821-5.645.56-1.693 1.354-3.131 2.383-4.316 1.041-1.185 2.285-2.097 3.73-2.735s3.06-.957 4.844-.957c2.37 0 4.368.43 5.996 1.289 1.64.86 2.91 2.045 3.808 3.555.912 1.51 1.459 3.229 1.641 5.156h-5.859c-.065-1.146-.293-2.116-.684-2.91-.391-.807-.983-1.413-1.777-1.816-.781-.417-1.823-.625-3.125-.625-.977 0-1.83.182-2.559.547-.729.364-1.341.917-1.836 1.66-.495.742-.866 1.679-1.113 2.812-.234 1.12-.352 2.435-.352 3.945v2.012c0 1.472.111 2.767.332 3.887.222 1.107.56 2.044 1.016 2.812.469.756 1.068 1.329 1.797 1.719.742.378 1.634.567 2.676.567 1.224 0 2.233-.196 3.027-.586.794-.391 1.4-.97 1.816-1.739.43-.768.684-1.725.762-2.871zm14.824-20.566v30h-5.625v-30zm-.8 18.691h-1.543c.013-1.471.208-2.825.586-4.062.377-1.25.918-2.331 1.621-3.242.703-.925 1.543-1.641 2.519-2.149.99-.508 2.084-.762 3.281-.762 1.042 0 1.986.15 2.832.45.86.286 1.596.755 2.208 1.406.625.638 1.106 1.478 1.445 2.519.338 1.042.508 2.305.508 3.789v13.36h-5.664v-13.399c0-.937-.137-1.673-.411-2.207-.26-.546-.644-.931-1.152-1.152-.495-.234-1.107-.352-1.836-.352-.807 0-1.497.15-2.07.45-.56.299-1.009.716-1.348 1.25-.338.521-.586 1.133-.742 1.836s-.234 1.458-.234 2.265zm29.14 6.543v-9.414c0-.677-.11-1.256-.332-1.738-.221-.495-.566-.879-1.035-1.152-.456-.274-1.048-.411-1.777-.411-.625 0-1.166.111-1.621.332-.456.209-.808.515-1.055.918-.247.391-.371.853-.371 1.387h-5.625c0-.898.208-1.751.625-2.558.417-.808 1.022-1.517 1.816-2.129.795-.625 1.739-1.114 2.832-1.465 1.107-.352 2.344-.528 3.711-.528 1.641 0 3.099.274 4.375.821s2.279 1.367 3.008 2.461c.742 1.093 1.113 2.461 1.113 4.101v9.043c0 1.159.072 2.11.215 2.852.143.729.352 1.367.625 1.914v.332h-5.683c-.274-.573-.482-1.289-.625-2.149-.131-.872-.196-1.744-.196-2.617zm.742-8.105.039 3.183h-3.144c-.742 0-1.387.085-1.934.254-.547.17-.996.41-1.347.723-.352.299-.612.651-.782 1.055-.156.403-.234.846-.234 1.328s.111.918.332 1.308c.221.378.54.677.957.899.417.208.905.312 1.465.312.846 0 1.582-.169 2.207-.508.625-.338 1.107-.755 1.445-1.25.352-.494.534-.963.547-1.406l1.485 2.383c-.209.534-.495 1.087-.86 1.66-.351.573-.801 1.113-1.347 1.621-.547.495-1.205.905-1.973 1.231-.768.312-1.68.468-2.734.468-1.342 0-2.559-.266-3.653-.8-1.081-.547-1.94-1.296-2.578-2.246-.625-.964-.937-2.058-.937-3.282 0-1.106.208-2.089.625-2.949.416-.859 1.028-1.582 1.835-2.168.821-.599 1.843-1.048 3.067-1.347 1.224-.313 2.643-.469 4.258-.469zm19.61-8.262v3.984h-12.305v-3.984zm-9.258-5.215h5.625v19.981c0 .612.078 1.08.234 1.406.17.325.417.553.743.684.325.117.735.175 1.23.175.352 0 .664-.013.938-.039.286-.039.527-.078.722-.117l.02 4.141c-.482.156-1.003.28-1.563.371s-1.178.136-1.855.136c-1.237 0-2.318-.201-3.242-.605-.912-.417-1.615-1.081-2.11-1.992-.495-.912-.742-2.11-.742-3.594zm12.461-3.652h5.625v25.156l-.566 4.844h-5.059zm19.004 19.219v.41c0 1.575-.169 3.021-.508 4.336-.325 1.315-.833 2.454-1.523 3.418-.691.95-1.55 1.692-2.579 2.226-1.015.521-2.213.781-3.593.781-1.289 0-2.409-.26-3.36-.781-.937-.521-1.725-1.256-2.363-2.207-.638-.95-1.152-2.064-1.543-3.34s-.684-2.669-.879-4.179v-.899c.195-1.51.488-2.903.879-4.179s.905-2.39 1.543-3.34c.638-.951 1.426-1.686 2.363-2.207.938-.521 2.045-.782 3.321-.782 1.393 0 2.604.267 3.632.801 1.042.521 1.902 1.263 2.579 2.227.69.95 1.198 2.083 1.523 3.398.339 1.302.508 2.741.508 4.317zm-5.625.41v-.41c0-.86-.065-1.667-.195-2.422-.118-.768-.326-1.439-.625-2.012-.3-.586-.71-1.048-1.231-1.387-.508-.338-1.165-.508-1.973-.508-.768 0-1.419.131-1.953.391-.534.261-.976.625-1.328 1.094-.338.469-.592 1.029-.762 1.68-.169.638-.273 1.341-.312 2.109v2.559c.039 1.028.208 1.94.508 2.734.312.781.781 1.4 1.406 1.855.638.443 1.465.664 2.48.664.795 0 1.452-.156 1.973-.468.521-.313.925-.756 1.211-1.328.3-.573.508-1.244.625-2.012.117-.781.176-1.628.176-2.539zm8.222.019v-.41c0-1.549.222-2.975.665-4.277.442-1.315 1.087-2.455 1.933-3.418.847-.964 1.888-1.712 3.125-2.246 1.237-.547 2.656-.821 4.258-.821s3.027.274 4.277.821c1.25.534 2.298 1.282 3.145 2.246.859.963 1.51 2.103 1.953 3.418.443 1.302.664 2.728.664 4.277v.41c0 1.537-.221 2.963-.664 4.278-.443 1.302-1.094 2.441-1.953 3.418-.847.963-1.888 1.712-3.125 2.246s-2.656.8-4.258.8-3.027-.266-4.277-.8c-1.237-.534-2.285-1.283-3.145-2.246-.846-.977-1.491-2.116-1.933-3.418-.443-1.315-.665-2.741-.665-4.278zm5.625-.41v.41c0 .886.079 1.713.235 2.481s.404 1.445.742 2.031c.352.573.807 1.022 1.367 1.348.56.325 1.244.488 2.051.488.781 0 1.452-.163 2.012-.488.56-.326 1.009-.775 1.347-1.348.339-.586.586-1.263.743-2.031.169-.768.253-1.595.253-2.481v-.41c0-.859-.084-1.667-.253-2.422-.157-.768-.411-1.445-.762-2.031-.339-.599-.788-1.068-1.348-1.406-.56-.339-1.237-.508-2.031-.508s-1.471.169-2.031.508c-.547.338-.996.807-1.348 1.406-.338.586-.586 1.263-.742 2.031-.156.755-.235 1.563-.235 2.422zm28.204-10.371v3.984h-12.305v-3.984zm-9.258-5.215h5.625v19.981c0 .612.078 1.08.234 1.406.169.325.417.553.742.684.326.117.736.175 1.231.175.351 0 .664-.013.937-.039.287-.039.528-.078.723-.117l.02 4.141c-.482.156-1.003.28-1.563.371s-1.178.136-1.855.136c-1.237 0-2.318-.201-3.243-.605-.911-.417-1.614-1.081-2.109-1.992-.495-.912-.742-2.11-.742-3.594z"/><path d="m689.363 264.448v7.618h-29.765v-6.446l13.711-14.414c1.211-1.386 2.187-2.627 2.929-3.72.742-1.114 1.28-2.12 1.612-3.018.351-.898.527-1.709.527-2.432 0-1.23-.186-2.255-.557-3.076-.351-.84-.879-1.474-1.582-1.904-.683-.43-1.533-.645-2.549-.645-1.015 0-1.904.293-2.666.879-.761.586-1.357 1.387-1.787 2.403-.41 1.015-.615 2.158-.615 3.427h-9.902c0-2.617.635-5.009 1.904-7.177 1.289-2.168 3.076-3.897 5.361-5.186 2.286-1.309 4.932-1.963 7.94-1.963 3.144 0 5.781.488 7.91 1.465s3.73 2.393 4.805 4.248c1.093 1.836 1.64 4.053 1.64 6.65 0 1.485-.234 2.911-.703 4.278s-1.142 2.724-2.021 4.072c-.879 1.328-1.953 2.695-3.223 4.102-1.25 1.406-2.676 2.9-4.277 4.482l-5.508 6.357z"/><path d="m689.363 264.448h1v-1h-1zm0 7.618v1h1v-1zm-29.765 0h-1v1h1zm0-6.446-.725-.689-.275.29v.399zm13.711-14.414.724.69.015-.016.014-.016zm2.929-3.72.828.561.004-.007zm1.612-3.018-.932-.364-.003.008-.003.009zm-.03-5.508-.922.386.005.013.006.013zm-1.582-1.904-.532.847.011.006zm-7.002 2.637-.921-.39-.003.008-.003.007zm-.615 3.427v1h1v-1zm-9.902 0h-1v1h1zm1.904-7.177-.86-.511-.003.005zm5.361-5.186.492.871.005-.003zm20.655 3.75-.866.501.007.011zm-1.084 15 .834.552.003-.006zm-3.223 4.102-.742-.67-.005.005zm-4.277 4.482-.703-.711-.028.027-.025.029zm-5.508 6.357-.756-.654-1.434 1.654h2.19zm15.816 0v7.618h2v-7.618zm1 6.618h-29.765v2h29.765zm-28.765 1v-6.446h-2v6.446zm-.276-5.756 13.711-14.414-1.449-1.379-13.711 14.414zm13.74-14.446c1.228-1.406 2.232-2.679 3.004-3.817l-1.655-1.123c-.713 1.05-1.662 2.257-2.856 3.625zm3.008-3.824c.77-1.154 1.35-2.231 1.718-3.225l-1.876-.694c-.297.803-.791 1.738-1.506 2.81zm1.711-3.208c.383-.977.596-1.914.596-2.796h-2c0 .564-.138 1.249-.459 2.068zm.596-2.796c0-1.323-.199-2.5-.646-3.488l-1.822.824c.295.653.468 1.527.468 2.664zm-.634-3.462c-.424-1.012-1.082-1.821-1.983-2.371l-1.043 1.706c.505.309.902.77 1.181 1.437zm-1.973-2.365c-.879-.553-1.925-.798-3.081-.798v2c.876 0 1.529.185 2.017.492zm-3.081-.798c-1.222 0-2.328.358-3.275 1.087l1.219 1.585c.577-.444 1.248-.672 2.056-.672zm-3.275 1.087c-.918.705-1.612 1.654-2.099 2.805l1.842.779c.373-.88.87-1.533 1.476-1.999zm-2.105 2.82c-.465 1.152-.688 2.425-.688 3.802h2c0-1.161.187-2.174.543-3.053zm.312 2.802h-9.902v2h9.902zm-8.902 1c0-2.447.591-4.664 1.767-6.672l-1.726-1.011c-1.363 2.328-2.041 4.896-2.041 7.683zm1.764-6.666c1.196-2.012 2.853-3.619 4.993-4.826l-.983-1.742c-2.431 1.371-4.348 3.221-5.729 5.546zm4.998-4.829c2.114-1.21 4.584-1.831 7.443-1.831v-2c-3.157 0-5.98.688-8.437 2.095zm7.443-1.831c3.047 0 5.532.474 7.493 1.374l.834-1.818c-2.296-1.053-5.085-1.556-8.327-1.556zm7.493 1.374c1.959.899 3.395 2.18 4.356 3.84l1.731-1.002c-1.187-2.051-2.954-3.601-5.253-4.656zm4.363 3.851c.983 1.651 1.499 3.682 1.499 6.138h2c0-2.739-.577-5.141-1.781-7.162zm1.499 6.138c0 1.378-.217 2.694-.649 3.953l1.892.649c.506-1.474.757-3.01.757-4.602zm-.649 3.953c-.439 1.281-1.074 2.565-1.913 3.851l1.675 1.092c.919-1.409 1.632-2.84 2.13-4.294zm-1.909 3.845c-.847 1.28-1.889 2.608-3.131 3.984l1.484 1.34c1.297-1.437 2.404-2.843 3.315-4.22zm-3.136 3.989c-1.234 1.388-2.644 2.866-4.233 4.436l1.405 1.422c1.615-1.594 3.056-3.104 4.322-4.529zm-4.286 4.492-5.508 6.358 1.512 1.309 5.507-6.357zm-4.752 8.012h16.816v-2h-16.816z"/></g><circle cx="674.935" cy="251.066" r="44.6462" stroke="#0a355c" stroke-width="2"/><rect fill="#fff" height="365.158" rx="30" stroke="#b8c4d8" stroke-width="2" width="263.237" x="257.18" y="83.781"/><path d="m343.119 224.514c0-2.209 1.791-4 4-4h112.475c21.042 0 38.099 17.057 38.099 38.099 0 21.041-17.057 38.099-38.099 38.099h-87.745c-15.867 0-28.73-12.863-28.73-28.731z" fill="#f5516c"/><g fill="#fff"><rect height="2.98498" rx="1.49249" transform="matrix(-1 0 0 1 406.403 239.765)" width="38.4557"/><rect height="2.98498" rx="1.49249" transform="matrix(-1 0 0 1 421.55 249.326)" width="53.6027"/><rect height="2.98498" rx="1.49249" transform="matrix(-1 0 0 1 410.335 258.885)" width="42.3881"/><rect height="2.98498" rx="1.49249" transform="matrix(-1 0 0 1 417.383 268.446)" width="49.8627"/></g><path d="m309.869 244.588c-.037 1.679-2.547 3.022-5.618 3.022-3.072 0-5.581-1.343-5.619-3.022-4.719.448-8.427 4.402-8.427 9.213 0 4.588 3.371 4.812 7.791 4.812h1.46 9.552 1.46c4.458 0 7.829-.224 7.829-4.812 0-4.811-3.708-8.765-8.428-9.213z" fill="#f5516c"/><path d="m304.251 245.819c4.27 0 7.716-6.378 7.716-10.63 0-4.29-3.446-7.721-7.716-7.721s-7.716 3.431-7.716 7.683c0 4.253 3.446 10.668 7.716 10.668zm-4.607-14.099c1.161 3.506 9.139 1.939 9.139 1.939 2.285-.186 2.135 2.984 2.135 3.022-.599 3.58-3.334 7.982-6.63 7.982-3.408 0-6.255-4.737-6.704-8.355.337-3.171 2.06-4.588 2.06-4.588z" fill="#f5516c"/><path d="m434.477 130.467c0-2.209-1.791-4-4-4h-118.778c-17.561 0-31.796 14.236-31.796 31.797s14.235 31.796 31.796 31.796h94.047c15.868 0 28.731-12.863 28.731-28.73z" fill="#0a355c"/><rect fill="#fff" height="2.98498" rx="1.49249" width="109.446" x="304.731" y="145.718"/><rect fill="#fff" height="2.98498" rx="1.49249" width="53.6027" x="360.574" y="155.279"/><rect fill="#0a355c" height="23.45" rx="5" width="34.5053" x="456.093" y="139.09"/><path d="m465.07 151.241c1.574 0 2.85-1.276 2.85-2.85 0-1.573-1.276-2.849-2.85-2.849-1.573 0-2.849 1.276-2.849 2.849 0 1.574 1.276 2.85 2.849 2.85z" fill="#fff"/><path d="m481.62 151.241c1.574 0 2.849-1.276 2.849-2.85 0-1.573-1.275-2.849-2.849-2.849s-2.85 1.276-2.85 2.849c0 1.574 1.276 2.85 2.85 2.85z" fill="#fff"/><path d="m473.345 156.088c-1.506 0-2.94-.632-3.831-1.699-.193-.229-.163-.572.066-.765s.572-.162.765.067c.687.819 1.807 1.307 3 1.307s2.314-.488 3-1.307c.193-.229.537-.26.766-.067s.259.536.066.765c-.898 1.067-2.326 1.699-3.832 1.699z" fill="#fff"/><rect height="39.382" rx="6.5" stroke="#b8c4d8" width="216.79" x="280.403" y="367.686"/></svg>