<svg height="720pt" preserveAspectRatio="xMidYMid meet" viewBox="0 0 1280 720" width="1280pt" xmlns="http://www.w3.org/2000/svg"><g transform="matrix(.1 0 0 -.1 0 720)"><path d="m0 3600v-3600h6400 6400v3600 3600h-6400-6400zm4617 2388c-3-8-6-5-6 6-1 11 2 17 5 13 3-3 4-12 1-19zm364-35c13-16 12-17-3-4-10 7-18 15-18 17 0 8 8 3 21-13zm516-5c-3-8-6-5-6 6-1 11 2 17 5 13 3-3 4-12 1-19zm448 4c-3-3-11 0-18 7-9 10-8 11 6 5 10-3 15-9 12-12zm1480 8c3-6-1-7-9-4-18 7-21 14-7 14 6 0 13-4 16-10zm699 2c2-4-5-9-17-9-17-2-19 0-7 7 18 12 18 12 24 2zm-469-11c3-5 0-13-6-17-7-4-9-3-5 4 3 5 0 13-6 15-9 4-10 6-1 6 6 1 14-3 18-8zm-1301-9c3-5-1-9-9-9s-12 4-9 9c3 4 7 8 9 8s6-4 9-8zm366-37c14-19 14-19-2-6-10 7-18 18-18 24s1 8 3 6c1-2 9-13 17-24zm-933-1c-8-8-48-13-43-6 2 4 14 8 26 9s20 0 17-3zm1897-6c-3-4-11-5-19-1-21 7-19 12 4 10 11 0 18-5 15-9zm-2393-71c-10-9-11-8-5 6 3 10 9 15 12 12s0-11-7-18zm519 14c0-5-7-12-16-15-14-5-15-4-4 9 14 17 20 19 20 6zm-675-11c3-6-1-7-9-4-18 7-21 14-7 14 6 0 13-4 16-10zm1145 0c0-5-5-10-11-10-5 0-7 5-4 10 3 6 8 10 11 10 2 0 4-4 4-10zm1430 6c0-2-7-7-16-10-8-3-12-2-9 4 6 10 25 14 25 6zm-2642-1344c13-10 25-33 28-54 9-53-27-88-91-88h-45v80 80h43c24 0 51-8 65-18zm189 9c5-3 13-15 17-26 6-18 8-17 30 10 16 19 28 26 40 22 15-6 14-10-8-44l-25-37 24-32c31-41 31-44 0-44-17 0-29 8-37 25l-11 24-19-24c-11-14-29-25-40-25-19 0-20 1-4 25 9 14 14 31 10 37-4 7-3 8 4 4 15-9 16 18 1 42-8 13-21 16-50 14-45-5-54-29-12-34 39-4 42-28 4-28-28 0-31-3-31-30 0-23-4-30-20-30-18 0-20 7-20 80v80l69-1c38-1 73-4 78-8zm1644-7c17-20 22-114 7-131-6-7-32-13-59-13h-49v80 80h44c28 0 48-6 57-16zm116 4c5-7 21-42 34-78l24-65 3 78c2 51 7 77 15 77 6 0 28-19 49-42l37-43 1 43c0 36 3 43 18 40 14-3 18-17 22-74l5-71 22 34c12 18 17 33 11 33s-8 3-5 6c3 4 0 16-8 28-33 46-2 66 34 20l20-25 17 25c9 14 25 26 35 26 24 0 24-5-1-40-22-31-20-70 5-90 10-9 15-4 20 19 12 55 44 111 64 111 14 0 25-18 45-72 14-40 26-76 26-80 0-15-38-8-44 7-3 8-17 15-31 15s-28-7-31-15c-4-10-20-15-43-15-31 0-40 5-50 27-12 27-13 27-27 8-8-10-14-22-14-27 0-11-81-10-98 1-8 4-12 10-10 12 1 3-7 17-19 33l-23 29v-42-41h-44c-30 0-46 5-50 15-3 8-17 15-31 15s-28-7-31-15c-4-8-15-15-26-15-16 0-18 4-12 23 5 12 8 32 9 44 0 11 3 19 6 17s13 14 22 36c15 40 36 51 54 28zm1783-12c0-19-4-23-20-19-18 5-20 0-20-57 0-58-1-61-22-58-23 3-24 6-27 91-1 20-6 27-21 27-13 0-20 7-20 20 0 18 7 20 65 20 62 0 65-1 65-24zm102 12c16-13 32-81 17-72-16 10-19-17-5-38 15-21 16-21 21-2 13 38 39 99 48 112 20 26 42 6 69-63l28-70-3 68c-2 59 0 68 17 73 13 4 24 0 33-12 8-11 19-18 24-16 6 1 8-1 5-6s1-18 9-28c13-18 14-16 15 19 0 24 5 40 15 44 23 8 25 3 26-65 2-59 10-75 25-51 4 8 9 8 17 0 6-6 17-11 24-11 22 0 14 18-14 32-40 19-45 73-9 89 33 15 78 4 74-19-3-12-12-16-31-14-15 1-27-2-27-8s5-8 10-5c6 3 10 1 10-4 0-6 7-11 15-11 17 0 34-29 29-50-5-19 32 57 45 93 11 29 32 35 49 15 5-7 20-41 32-75 13-35 25-63 27-63s3 33 2 73c-2 65-1 72 17 72 13 0 20-9 24-30l5-30 25 33c22 30 48 41 63 25 4-4-4-19-19-34-30-31-27-50 12-92l26-28-41 2c-22 2-38 6-35 10 2 4-5 18-16 30-14 16-20 19-19 9 4-45 0-50-45-50-30 0-46 5-50 15-3 8-16 15-30 15-13 0-26-7-30-15-6-18-46-20-46-3 0 9-3 9-12 0-15-15-70-16-85-1-9 9-16 8-27-4-15-14-18-14-41 9-14 14-25 29-25 33 0 5-7 14-15 21-13 11-15 7-15-29v-41h-40c-27 0-43 5-46 15-4 8-17 15-30 15-14 0-27-7-30-15-4-9-19-15-42-15-27 0-42 7-59 28l-22 27-1-27c0-21-5-28-20-28-18 0-20 7-20 80v80h38c21 0 45-6 54-12zm-7613-41c-2-1-13-9-24-17-19-14-19-14-6 3 7 9 18 17 24 17s8-1 6-3zm471-7c8-5 11-10 5-10-5 0-17 5-25 10s-10 10-5 10c6 0 17-5 25-10zm-400-46c0-8-4-14-8-14s-8 9-8 19c0 11 4 17 8 15 4-3 8-12 8-20zm406-40c1-9 0-13-4-10-3 4-7 14-8 22-1 9 0 13 4 10 3-4 7-14 8-22zm-886-19c-7-8-17-15-22-15-11 0 14 29 26 30 5 0 3-7-4-15zm475-5c-3-5-12-10-18-10-7 0-6 4 3 10 19 12 23 12 15 0zm4715-360c0-11-4-20-9-20s-7 9-4 20 7 20 9 20 4-9 4-20zm-477-257c-232-2-614-2-850 0-235 1-45 2 422 2 468 0 660-1 428-2zm471-2c3-4-6-6-19-3-14 2-25 6-25 8 0 8 39 4 44-5zm216 0c0-5-9-7-20-4s-20 7-20 9 9 4 20 4 20-4 20-9zm30-1c0-5-2-10-4-10-3 0-8 5-11 10-3 6-1 10 4 10 6 0 11-4 11-10zm1690 0c0-7-279-10-841-10-539 0-838 3-834 10 8 13 1675 14 1675 0zm70 2c0-5-7-9-15-9s-15 4-15 9c0 4 7 8 15 8s15-4 15-8zm1940-2c-20-13-1783-12-1775 1 4 5 358 9 898 9 591 0 887-4 877-10zm-3943-2587c-1-472-2-88-2 852 0 941 1 1327 2 858 2-468 2-1238 0-1710zm170 30c-1-466-2-87-2 842 0 930 1 1311 2 848 2-463 2-1223 0-1690zm-5407 2403c0-2-8-10-17-17-16-13-17-12-4 4s21 21 21 13zm1487-88c-3-7-5-2-5 12s2 19 5 13c2-7 2-19 0-25zm-896-15c13-16 12-17-3-4-10 7-18 15-18 17 0 8 8 3 21-13zm3739-77c0-2-8-10-17-17-16-13-17-12-4 4s21 21 21 13zm4080-11c0-7-30-13-34-7-3 4 4 9 15 9 10 1 19 0 19-2zm-4250-19c0-3-4-8-10-11-5-3-10-1-10 4 0 6 5 11 10 11 6 0 10-2 10-4zm156-18c3-4-2-5-13-4-10 2-25-2-33-8-13-9-13-9-2 6 12 16 35 18 48 6zm5684-28c6-11 8-20 6-20-3 0-10 9-16 20s-8 20-6 20c3 0 10-9 16-20zm877-2c-3-8-6-5-6 6-1 11 2 17 5 13 3-3 4-12 1-19zm-4507-3c11-13 10-14-4-9-9 3-16 10-16 15 0 13 6 11 20-6zm5107-7c-3-8-6-5-6 6-1 11 2 17 5 13 3-3 4-12 1-19zm-7256-5c13-16 12-17-3-4-10 7-18 15-18 17 0 8 8 3 21-13zm-3714-25c-3-8-6-5-6 6-1 11 2 17 5 13 3-3 4-12 1-19zm9510-25c-3-10-5-4-5 12 0 17 2 24 5 18 2-7 2-21 0-30zm-10087 2c14-19 14-19-2-6-10 7-18 18-18 24s1 8 3 6c1-2 9-13 17-24zm255 15c3-6-1-7-9-4-18 7-21 14-7 14 6 0 13-4 16-10zm4065 6c0-2-8-10-17-17-16-13-17-12-4 4s21 21 21 13zm7087-28c-3-7-5-2-5 12s2 19 5 13c2-7 2-19 0-25zm-546-1c-10-9-11-8-5 6 3 10 9 15 12 12s0-11-7-18zm-10284-9c-3-8-6-5-6 6-1 11 2 17 5 13 3-3 4-12 1-19zm7918 12c3-6-1-7-9-4-18 7-21 14-7 14 6 0 13-4 16-10zm2366-127c13-16 12-17-3-4-10 7-18 15-18 17 0 8 8 3 21-13zm-533-48c-3-3-9 2-12 12-6 14-5 15 5 6 7-7 10-15 7-18zm-9431-347c-3-7-5-2-5 12s2 19 5 13c2-7 2-19 0-25zm540 0c-3-8-6-5-6 6-1 11 2 17 5 13 3-3 4-12 1-19zm-540-50c-3-8-6-5-6 6-1 11 2 17 5 13 3-3 4-12 1-19zm7418-39c-4-5-12-9-18-8-9 0-8 2 1 6 6 2 9 10 6 15-4 7-2 8 5 4 6-4 9-12 6-17zm-1854-26c13-16 12-17-3-4-17 13-22 21-14 21 2 0 10-8 17-17zm2044-501c-3-3-11 0-18 7-9 10-8 11 6 5 10-3 15-9 12-12zm-2055 4c0-2-8-10-17-17-16-13-17-12-4 4s21 21 21 13zm-6399-69c-10-9-11-8-5 6 3 10 9 15 12 12s0-11-7-18zm1486-34c-3-10-5-2-5 17s2 27 5 18c2-10 2-26 0-35zm-160 0c-3-10-5-4-5 12 0 17 2 24 5 18 2-7 2-21 0-30zm-1280-5c-3-8-6-5-6 6-1 11 2 17 5 13 3-3 4-12 1-19zm6273-21c0-2-10-12-22-23l-23-19 19 23c18 21 26 27 26 19zm1931-44c13-16 12-17-3-4-10 7-18 15-18 17 0 8 8 3 21-13zm-1821-9c0-8-19-13-24-6-3 5 1 9 9 9s15-2 15-3zm1840-478c0-2-8-10-17-17-16-13-17-12-4 4s21 21 21 13zm-8123-148c-3-7-5-2-5 12s2 19 5 13c2-7 2-19 0-25zm917 6c3-8 2-12-4-9s-10 10-10 16c0 14 7 11 14-7zm5247-21c13-16 12-17-3-4-17 13-22 21-14 21 2 0 10-8 17-17zm-5894-35c-3-8-6-5-6 6-1 11 2 17 5 13 3-3 4-12 1-19zm8043 9c0-2-10-12-22-23l-23-19 19 23c18 21 26 27 26 19zm-4198-34c-6-3-9-10-5-16 4-7-1-6-10 2-21 17-21 17 6 18 12 0 16-1 9-4zm4012-541c3-5-1-9-9-9s-12 4-9 9c3 4 7 8 9 8s6-4 9-8zm-7341-9c-7-2-19-2-25 0-7 3-2 5 12 5s19-2 13-5zm-566-25c-3-8-6-5-6 6-1 11 2 17 5 13 3-3 4-12 1-19zm60-55c-3-10-5-2-5 17s2 27 5 18c2-10 2-26 0-35zm940-10c-3-10-5-4-5 12 0 17 2 24 5 18 2-7 2-21 0-30zm-1423 1c3-8 2-12-4-9s-10 10-10 16c0 14 7 11 14-7zm7496-294c0-5-5-10-11-10-5 0-7 5-4 10 3 6 8 10 11 10 2 0 4-4 4-10zm-180-20c0-13-6-20-17-19-11 0-13 3-5 6 6 2 12 11 12 19s2 14 5 14 5-9 5-20zm-2005-10c-3-5-16-10-28-9-20 1-20 2 3 9 14 4 26 8 28 9s0-3-3-9zm298 3c-13-2-33-2-45 0-13 2-3 4 22 4s35-2 23-4zm1240 0c-222-2-584-2-805 0-222 1-41 2 402 2s624-1 403-2zm1542-3c-462-3-849-2-860 2-11 3 367 6 840 5l860-2zm915-6c0-2-7-4-15-4s-15 4-15 10c0 5 7 7 15 4 8-4 15-8 15-10zm-4497-1c-233-2-613-2-845 0-233 1-43 2 422 2s655-1 423-2z"/><path d="m5000 4424c0-38 3-45 16-40 9 3 19 6 24 6 13 0 20 42 9 62-5 10-19 18-29 18-17 0-20-7-20-46z"/><path d="m6840 4455c0-8 7-15 15-15s15 7 15 15-7 15-15 15-15-7-15-15z"/><path d="m6840 4394c0-9 7-14 17-12 25 5 28 28 4 28-12 0-21-6-21-16z"/><path d="m6986 4435c-3-9 0-15 9-15s12 6 9 15c-4 8-7 15-9 15s-5-7-9-15z"/><path d="m7430 4435c0-8 4-15 10-15 5 0 7 7 4 15-4 8-8 15-10 15s-4-7-4-15z"/><path d="m8850 4455c0-8 7-15 15-15s15 7 15 15-7 15-15 15-15-7-15-15z"/><path d="m8996 4435c-3-8-1-15 4-15 6 0 10 7 10 15s-2 15-4 15-6-7-10-15z"/><path d="m9410 4435c0-8 4-15 10-15 5 0 7 7 4 15-4 8-8 15-10 15s-4-7-4-15z"/></g></svg>