<svg fill="none" height="254" viewBox="0 0 577 254" width="577" xmlns="http://www.w3.org/2000/svg" xmlns:xlink="http://www.w3.org/1999/xlink"><linearGradient id="a" gradientUnits="userSpaceOnUse" x1="164.524" x2="353.796" y1="127.377" y2="127.377"><stop offset=".0340695" stop-color="#072440"/><stop offset=".2695" stop-color="#063e62"/><stop offset=".4706" stop-color="#383f60"/><stop offset=".7169" stop-color="#6f405e"/><stop offset=".9008" stop-color="#92415d"/><stop offset="1" stop-color="#9f415c"/></linearGradient><clipPath id="b"><path d="m0 0h576.6v253.4h-576.6z"/></clipPath><g clip-path="url(#b)"><g fill="#063e62"><path d="m19.4 189.9.1 2.9c0 1.4-.3 2.4-.8 3.2h9.7v2.1h-13.7v-2.1h1c.4-.1.6-.4.9-1 .2-.6.3-1.3.4-2.1v-.1l-.1-2.9h-2.2v-2.1h2.1l-.1-3.4c0-1.7.5-3.1 1.6-4.2 1.1-1 2.5-1.6 4.3-1.6 1.7 0 3 .5 4 1.4s1.5 2.2 1.5 3.7h-2.5c0-.9-.3-1.7-.8-2.2-.6-.5-1.3-.8-2.3-.8-.9 0-1.7.3-2.2 1s-.9 1.6-.9 2.7l.1 3.4h4.2v2.1z"/><path d="m56.6 194.5h-4.4v3.6h-2.5v-3.6h-2.7v-2.1h2.7v-1.8h-2.7v-2.1h2.7v-9.6h7.1c2.1 0 3.7.5 4.9 1.6 1.2 1 1.8 2.5 1.8 4.2 0 1.9-.6 3.3-1.7 4.3-1.2 1-2.8 1.5-4.9 1.5h-4.6v1.8h4.4v2.2zm-4.4-6h4.6c1.4 0 2.4-.3 3.1-1s1.1-1.6 1.1-2.8c0-1.1-.4-2-1.1-2.7s-1.7-1-3-1h-4.6v7.5z"/><path d="m94.7 188v1.3c0 1.8-.3 3.5-1 4.8-.6 1.4-1.5 2.4-2.7 3.2-1.2.7-2.5 1.1-4.1 1.1-.7 0-1.5-.1-2.5-.2v-7.9l-3.2 1.5v-2.3l3.2-1.5v-2l-3.2 1.5v-2.5l3.2-1.5v-4.5h2.5v3.4l3.3-1.5v2.3l-3.3 1.5v2l3.3-1.5v2.3l-3.3 1.5v7.2c1.7 0 2.9-.6 3.8-1.8s1.3-3 1.3-5.3v-1.1z"/><path d="m40.2 160.1h-5.1c0 1.7.4 3 1.2 3.9s1.9 1.4 3.4 1.4c1 0 2-.1 2.9-.4l.3 2.1c-1.1.3-2.1.4-3.2.4-2.2 0-3.9-.6-5.1-1.9-1.3-1.3-1.9-3.1-2-5.5h-2.3v-1.6h2.3v-1.8h-2.3v-1.6h2.3c.1-2.3.8-4.1 2-5.3 1.3-1.3 2.9-1.9 5.1-1.9.9 0 2 .1 3.2.4l-.3 2.1c-1-.3-1.9-.5-2.9-.5-1.4 0-2.6.4-3.3 1.3-.8.9-1.2 2.2-1.2 3.8h5v1.6h-5.1v1.8h5.1z"/><path d="m74.8 161.2c-.2 2-1 3.6-2.2 4.7-1.3 1.1-2.9 1.7-5 1.7-2.3 0-4.1-.8-5.5-2.4s-2.1-3.8-2.1-6.5v-1.8c0-1.8.3-3.4 1-4.7.6-1.4 1.5-2.4 2.7-3.1s2.5-1.1 4.1-1.1c2 0 3.7.6 4.9 1.7s1.9 2.7 2.1 4.7h-2.5c-.2-1.5-.7-2.6-1.4-3.3s-1.8-1-3.1-1c-1.6 0-2.9.6-3.8 1.8s-1.4 2.9-1.4 5.1v1.9c0 2.1.4 3.7 1.3 5s2.1 1.8 3.7 1.8c1.4 0 2.5-.3 3.2-1 .8-.6 1.3-1.7 1.5-3.3h2.5z"/><path d="m93 167.3h-2.5v-8.9h-9.7v8.9h-2.5v-19.2h2.5v8.3h9.7v-8.3h2.5z"/><path d="m108.1 158.8h-8.1v8.5h-2.5v-19.2h11.9v2.1h-9.4v6.6h8.1z"/><path d="m9.8 162.3c0-.8-.3-1.5-.9-2-.6-.6-1.5-1.1-2.9-1.5-1.9-.6-3.2-1.3-4.1-2.2s-1.3-2.1-1.3-3.5.4-2.6 1.3-3.5 2-1.5 3.5-1.6v-3h2v2.9c1.5.2 2.6.8 3.4 1.9.8 1 1.2 2.5 1.2 4.3h-2.3c0-1.2-.3-2.2-.9-3-.6-.7-1.4-1.1-2.4-1.1s-1.8.3-2.4.8-.8 1.3-.8 2.3c0 .9.3 1.6.9 2.1s1.5 1 2.9 1.5c1.3.4 2.4.9 3.1 1.4.8.5 1.3 1.1 1.7 1.8s.5 1.5.5 2.4c0 1.5-.4 2.7-1.3 3.6s-2.1 1.4-3.8 1.6v2.5h-2v-2.5c-1.6-.2-2.9-.7-3.8-1.7s-1.4-2.4-1.4-4.1h2.4c0 1.2.3 2.2 1 2.8.6.7 1.6 1 2.7 1 1.2 0 2.1-.3 2.7-.8.7-.7 1-1.4 1-2.4z"/></g><path d="m189.7 152.5c-13.9 0-25.1-11.3-25.1-25.1s11.3-25.1 25.1-25.1h139c13.9 0 25.1 11.3 25.1 25.1s-11.3 25.1-25.1 25.1z" fill="url(#a)"/><path d="m328.7 103.7c13 0 23.6 10.6 23.6 23.6s-10.6 23.6-23.6 23.6h-139c-13 0-23.6-10.6-23.6-23.6s10.6-23.6 23.6-23.6zm0-3h-139c-14.7 0-26.6 12-26.6 26.6 0 14.7 12 26.6 26.6 26.6h139c14.7 0 26.6-12 26.6-26.6s-12-26.6-26.6-26.6z" fill="#f5516c"/><path d="m189.7 145.4c-9.9 0-18-8.1-18-18s8.1-18 18-18 18 8.1 18 18-8.1 18-18 18z" fill="#f5516c"/><path d="m228.7 136.5h-4v-19.2h4z" fill="#f5516c"/><path d="m250.4 136.5h-4l-7.7-12.6v12.6h-4v-19.2h4l7.7 12.7v-12.7h3.9v19.2z" fill="#f5516c"/><path d="m263.4 131.7 4.4-14.4h4.4l-6.7 19.2h-4.1l-6.7-19.2h4.4z" fill="#f5516c"/><path d="m287.9 128.2h-7.6v5.1h8.9v3.2h-12.9v-19.2h12.8v3.2h-8.9v4.6h7.6v3.1z" fill="#f5516c"/><path d="m303.9 131.5c0-.7-.3-1.3-.8-1.7s-1.5-.8-2.8-1.3c-1.4-.4-2.5-.9-3.3-1.3-2.2-1.2-3.3-2.8-3.3-4.8 0-1 .3-2 .9-2.8s1.4-1.4 2.5-1.9 2.3-.7 3.7-.7 2.6.2 3.7.7 1.9 1.2 2.5 2.1.9 1.9.9 3.1h-4c0-.9-.3-1.6-.8-2-.6-.5-1.3-.7-2.3-.7s-1.7.2-2.3.6c-.5.4-.8.9-.8 1.6 0 .6.3 1.1.9 1.6s1.6.8 2.8 1.2c2.2.7 3.9 1.5 4.9 2.5s1.5 2.2 1.5 3.7c0 1.7-.6 3-1.9 3.9s-2.9 1.4-5.1 1.4c-1.5 0-2.8-.3-4-.8s-2.1-1.3-2.8-2.2-1-2-1-3.3h4c0 2.1 1.3 3.2 3.8 3.2.9 0 1.7-.2 2.2-.6.6-.3.9-.9.9-1.5z" fill="#f5516c"/><path d="m327.4 120.5h-5.9v16h-4v-16h-5.8v-3.2h15.6v3.2z" fill="#f5516c"/><path d="m527.7 150.2c12.813 0 23.2-10.387 23.2-23.2s-10.387-23.2-23.2-23.2-23.2 10.387-23.2 23.2 10.387 23.2 23.2 23.2z" fill="#072440"/><path d="m527.7 105.3c12 0 21.7 9.7 21.7 21.7s-9.7 21.7-21.7 21.7-21.7-9.7-21.7-21.7 9.7-21.7 21.7-21.7zm0-3c-13.6 0-24.7 11.1-24.7 24.7s11.1 24.7 24.7 24.7 24.7-11.1 24.7-24.7-11.1-24.7-24.7-24.7z" fill="#f5516c"/><path d="m423.2 127h80.4" stroke="#f5516c" stroke-miterlimit="10" stroke-width="3"/><path d="m420.4 127h-65.1" stroke="#f5516c" stroke-miterlimit="10" stroke-width="2.6933"/><path d="m544.1 208.9c-10.4-4.8-14.9-17.3-10.1-27.7s17.3-14.9 27.7-10.1 14.9 17.3 10.1 27.7-17.3 14.9-27.7 10.1z" stroke="#ccc" stroke-miterlimit="10" stroke-width="1.7596"/><path d="m423.2 127 111.4 54.4" stroke="#ccc" stroke-miterlimit="10" stroke-width="1.7596"/><path d="m540.2 31.5c-11.3 6.5-15.2 21-8.7 32.3s21 15.2 32.3 8.7 15.2-21 8.7-32.3-21.1-15.2-32.3-8.7z" stroke="#ccc" stroke-miterlimit="10" stroke-width="2"/><path d="m422.3 126.9 109.8-63.4" stroke="#ccc" stroke-miterlimit="10" stroke-width="2"/><path d="m480.5 236 8.9-5.3-8.9 12.5-9-12.5z" fill="#f5516c"/><path d="m480.4 213.7-9 14.8 9 5.3 8.9-5.3z" fill="#f5516c"/><g fill="#063e62"><path d="m43.8 83h-7.2v35.2h7.2z"/><path d="m57 83h-7.2v35.2h7.2z"/><path d="m30.5 83h-7.2v35.2h7.2z"/><path d="m83.5 83h-7.2v35.2h7.2z"/><path d="m70.2 83h-7.2v35.2h7.2z"/><path d="m86.9 77.1h-67.1v3.6h67.1z"/><path d="m53.4 50.1-39.5 24.6h78.9zm0 4.2 27 16.8h-54z"/><path d="m53.4 67.1c2.3748 0 4.3-1.9252 4.3-4.3s-1.9252-4.3-4.3-4.3-4.3 1.9252-4.3 4.3 1.9252 4.3 4.3 4.3z"/><path d="m53.4 120.6h-33.6v3.6h33.6 33.5v-3.6z"/><path d="m91.4 126.5h-76v3.6h76z"/><path d="m98 129.4h-.5c-.8 0-1.5-.7-1.5-1.5s.7-1.5 1.5-1.5h.5c.8 0 1.5.7 1.5 1.5s-.7 1.5-1.5 1.5z"/><path d="m151 129.4h-.9c-.8 0-1.5-.7-1.5-1.5s.7-1.5 1.5-1.5h.9c.8 0 1.5.7 1.5 1.5s-.7 1.5-1.5 1.5zm-6.6 0h-.9c-.8 0-1.5-.7-1.5-1.5s.7-1.5 1.5-1.5h.9c.8 0 1.5.7 1.5 1.5s-.7 1.5-1.5 1.5zm-6.7 0h-.9c-.8 0-1.5-.7-1.5-1.5s.7-1.5 1.5-1.5h.9c.8 0 1.5.7 1.5 1.5s-.6 1.5-1.5 1.5zm-6.6 0h-.9c-.8 0-1.5-.7-1.5-1.5s.7-1.5 1.5-1.5h.9c.8 0 1.5.7 1.5 1.5s-.7 1.5-1.5 1.5zm-6.6 0h-.9c-.8 0-1.5-.7-1.5-1.5s.7-1.5 1.5-1.5h.9c.8 0 1.5.7 1.5 1.5s-.7 1.5-1.5 1.5zm-6.6 0h-.9c-.8 0-1.5-.7-1.5-1.5s.7-1.5 1.5-1.5h.9c.8 0 1.5.7 1.5 1.5s-.7 1.5-1.5 1.5zm-6.7 0h-.9c-.8 0-1.5-.7-1.5-1.5s.7-1.5 1.5-1.5h.9c.8 0 1.5.7 1.5 1.5s-.6 1.5-1.5 1.5zm-6.6 0h-.9c-.8 0-1.5-.7-1.5-1.5s.7-1.5 1.5-1.5h.9c.8 0 1.5.7 1.5 1.5s-.7 1.5-1.5 1.5z"/><path d="m157.2 129.4h-.5c-.8 0-1.5-.7-1.5-1.5s.7-1.5 1.5-1.5h.5c.8 0 1.5.7 1.5 1.5s-.7 1.5-1.5 1.5z"/></g><path d="m480.5 9.69998v12.60002c-.7-.7-1.3-1.3-2.1-2.1-.1-1.2-.3-4.6-.3-4.6l2-6.00002c-1.2 0-2.4.2-3.5.50002l-1 2.9-2.8-1.4c-1 .6-2 1.3-2.9 2.2l5 2.5.2 3-3-.2-2.5-5c-.8.9-1.6 1.8-2.2 2.9l1.4 2.8-3 1c-.3 1.1-.5 2.3-.5 3.6l6-1.9 4.8.2 2 2-2 2-4.8.2-6-1.9c0 1.2.2 2.4.5 3.6l2.9 1-1.4 2.7c.6 1 1.3 2 2.2 2.8l2.5-5 3-.2-.2 3-5 2.5c.9.8 1.8 1.6 2.9 2.2l2.7-1.3 1 2.9c1.1.3 2.3.5 3.5.5l-1.9-5.9s.2-3.4.3-4.6c.7-.7 1.3-1.3 2.1-2.1v12.6c8.3 0 15-6.7 15-15 .1-8.3-6.6-15.00002-14.9-15.00002zm3.4 26.20002c0-7.5 0-14.9 0-22.4 3.6.8 8.2 4.8 8.4 10.8.2 6.6-4.8 10.8-8.4 11.6z" fill="#f5516c"/><path d="m533.1 117.4 1.1-4.4-2.7-.7-1.1 4.4c-.7-.2-1.4-.3-2.2-.5l1.1-4.4-2.7-.7-1.1 4.5c-.6-.1-1.2-.3-1.7-.4l-3.7-.9-.7 2.9 2 .5c1.1.3 1.3 1 1.3 1.6l-3 12.2c-.2.3-.5.8-1.3.6l-2-.5-1.4 3.1 3.5.9 1.9.5-1.1 4.5 2.7.7 1.1-4.5c.7.2 1.4.4 2.2.6l-1 4.4 2.7.7 1.1-4.5c4.6.9 8.1.5 9.6-3.7 1.2-3.4-.1-5.3-2.5-6.6 1.8-.4 3.1-1.6 3.5-4 .4-3.4-2.1-5.2-5.6-6.3zm-.7 14.9c-.8 3.4-6.5 1.5-8.4 1.1l1.5-6c1.8.5 7.7 1.4 6.9 4.9zm.8-8.8c-.8 3.1-5.5 1.5-7 1.1l1.4-5.4c1.5.4 6.4 1.1 5.6 4.3z" fill="#f5516c"/><path d="m480.4 47.9c-4 0-8-1.1-11.5-3.1-11.1-6.4-14.9-20.6-8.5-31.7 4.1-7.1 11.9-11.6 20.2-11.6 4 0 8 1.1 11.5 3.1 5.3 3.1 9.2 8.1 10.8 14.1s.8 12.3-2.3 17.6c-4.1 7.2-11.8 11.6-20.2 11.6z" fill="#072440"/><path d="m480.6 3c3.8 0 7.5 1 10.8 2.9 10.4 6 13.9 19.3 8 29.7-3.9 6.7-11.1 10.8-18.9 10.8-3.8 0-7.5-1-10.8-2.9-10.4-6-13.9-19.3-8-29.7 3.9-6.6 11.1-10.8 18.9-10.8zm0-3c-8.6 0-16.9 4.4-21.5 12.3-6.8 11.8-2.7 27 9 33.8 3.9 2.2 8.1 3.3 12.3 3.3 8.6 0 16.9-4.4 21.5-12.3 6.8-11.8 2.7-27-9-33.8-3.9-2.2-8.1-3.3-12.3-3.3z" fill="#f5516c"/><path d="m421.6 126.7 46.9-81.2" stroke="#f5516c" stroke-miterlimit="10" stroke-width="3"/><path d="m480.6 251.9c-8.3 0-16.1-4.4-20.2-11.6-3.1-5.3-3.9-11.6-2.3-17.6s5.4-11 10.8-14.1c3.5-2 7.5-3.1 11.5-3.1 8.3 0 16.1 4.4 20.2 11.6 6.4 11.1 2.6 25.3-8.5 31.7-3.5 2-7.5 3.1-11.5 3.1z" fill="#072440"/><path d="m480.4 207c7.8 0 15 4.2 18.9 10.8 6 10.4 2.4 23.7-8 29.7-3.3 1.9-7 2.9-10.8 2.9-7.8 0-15-4.2-18.9-10.8-2.9-5-3.6-10.9-2.1-16.5s5.1-10.3 10.1-13.2c3.3-1.9 7.1-2.9 10.8-2.9zm0-3c-4.2 0-8.4 1.1-12.3 3.3-11.8 6.8-15.8 22-9 33.8 4.6 7.9 12.9 12.3 21.5 12.3 4.2 0 8.4-1.1 12.3-3.3 11.8-6.8 15.8-22 9-33.8-4.6-7.9-12.9-12.3-21.5-12.3z" fill="#f5516c"/><path d="m421.6 126.6 46.9 81.2" stroke="#f5516c" stroke-miterlimit="10" stroke-width="3"/><path d="m422.3 135c4.418 0 8-3.582 8-8s-3.582-8-8-8-8 3.582-8 8 3.582 8 8 8z" fill="#f5516c"/></g></svg>