<svg viewBox="0 0 652.53331 348.14743" xmlns="http://www.w3.org/2000/svg" xmlns:xlink="http://www.w3.org/1999/xlink"><clipPath id="a"><path d="m92.76206 45.18254h471.36967v262.41544h-471.36967z" transform="matrix(-1 0 0 -1 656.89379 352.78053)"/></clipPath><g clip-path="url(#a)"><g fill="none" stroke="#063e62" stroke-miterlimit="10" stroke-width=".87445"><path d="m517.746 76.39h-29.897l-28.867 50"/><path d="m228.042 226.39-28.868 50 28.868 50-28.868-50h-57.735-.145"/><path d="m141.294 76.39h.145 57.735l28.868 50-28.868 50 28.868 50h57.735l28.867 50h57.735-57.735l-28.867 50"/><path d="m228.0415 26.39026-28.86751 50.00001"/><path d="m487.849 276.39-28.867-50h-57.735l-28.868 50 28.868 50-28.868-50 28.868-50-28.868-50 28.868-50-28.868-50 28.868-50-28.868 50h-57.735l-28.867 50 28.867-50-28.867-50"/></g><path d="m291.89434 230.4342h-133.29589a10.23023 10.23023 0 0 1 -10.21828-10.21828v-87.65142a10.23024 10.23024 0 0 1 10.21828-10.21829h133.29589a10.22979 10.22979 0 0 1 10.21744 10.21829v87.65142a10.22978 10.22978 0 0 1 -10.21744 10.21828z" fill="#f5516c"/><path d="m158.59845 126.361h133.295a6.20353 6.20353 0 0 1 6.20353 6.20353v87.65227a6.20269 6.20269 0 0 1 -6.20269 6.20269h-133.29584a6.20353 6.20353 0 0 1 -6.20353-6.20353v-87.65146a6.20353 6.20353 0 0 1 6.20353-6.2035z" fill="#fff"/><g fill="#f5516c"><path d="m190.44878 139.76283h-.00006a16.95087 16.95087 0 0 0 -16.90119 16.90117 16.95087 16.95087 0 0 0 16.90119 16.90113h.00006a16.95088 16.95088 0 0 0 16.90122-16.90113 16.95088 16.95088 0 0 0 -16.90122-16.90117zm-.02136 5.44668 6.912 11.5024-6.912 4.11576-6.96479-4.11576zm.09551 22.90889-6.96478-9.76128 6.96478 4.1155 6.912-4.1155z"/><path d="m178.9371 186.7857a16.95091 16.95091 0 0 0 -16.90121 16.90121 16.95091 16.95091 0 0 0 16.90121 16.90121 16.9509 16.9509 0 0 0 16.90121-16.90112 16.95089 16.95089 0 0 0 -16.90121-16.9013zm.02532 27.42182v-8.93132l-1.46072 1.46369c-.04962.86736-.18279 3.2547-.18279 3.2547l1.38018 4.21027a10.67542 10.67542 0 0 1 -2.49516-.35042l-.69678-2.02989-1.90758.95551a10.71434 10.71434 0 0 1 -2.04623-1.537l3.525-1.7938.12247-2.1025-2.10937.11786-1.78777 3.53066a10.71543 10.71543 0 0 1 -1.55652-2.02734l.97228-1.932-2.08916-.71266a10.67235 10.67235 0 0 1 -.36608-2.54326l4.25888 1.36852 3.426-.14886 1.437-1.437-1.437-1.437-3.426-.14882-4.25964 1.36875a10.68008 10.68008 0 0 1 .34918-2.53749l2.10682-.71866-.98838-1.964a10.71436 10.71436 0 0 1 1.55288-2.03436l1.80751 3.56967 2.10937.11786-.12247-2.1025-3.56488-1.81408a10.71338 10.71338 0 0 1 2.03185-1.54386l1.96181.98265.7192-2.09516a10.67967 10.67967 0 0 1 2.49222-.34462l-1.39966 4.26976s.13317 2.38732.18279 3.25468l1.46072 1.46369v-8.99059a10.67449 10.67449 0 0 1 0 21.34892z"/><path d="m181.32684 195.56615v15.93385a8.28945 8.28945 0 0 0 0-15.93383z"/><path d="m226.711 187.07146-.97473 3.91688c1.10716.27928 4.50324 1.39759 5.05514-.81566v-.00668c.57199-2.31893-2.97991-2.82855-4.08041-3.09454z"/><path d="m225.24441 192.94893-1.07159 4.29966c1.3264.3305 5.41239 1.65129 6.00883-.78225.63204-2.52146-3.60975-3.17576-4.93724-3.51741z"/><path d="m226.56434 175.80442a16.9509 16.9509 0 0 0 -16.9012 16.90119v.00008a16.95091 16.95091 0 0 0 16.9012 16.90119 16.95089 16.95089 0 0 0 16.90121-16.90119v-.00008a16.95089 16.95089 0 0 0 -16.90121-16.90119zm8.08607 14.39719h-.02a3.1285 3.1285 0 0 1 -2.49145 2.86307c1.75482.91577 2.64833 2.31119 1.80264 4.74031-1.05489 3.01331-3.55965 3.26254-6.88564 2.63161l-.80563 3.25033-1.95844-.49294.75225-3.19248c-.50964-.12235-1.01928-.25483-1.55229-.40615l-.80562 3.21693-1.95953-.48069.80563-3.25251-1.3787-.35942-2.53818-.632.97923-2.23557s1.44322.38061 1.42541.35277a.73.73 0 0 0 .90913-.464l2.191-8.7851a1.04465 1.04465 0 0 0 -.91688-1.13612c.0356-.01776-1.41435-.34717-1.41435-.34717l.522-2.09306 2.68833.67319c.41285.0979.82341.19589 1.24627.29492l.8-3.21033 1.95959.48629-.77785 3.15908c.53416.12127 1.066.237 1.57676.37058l.77559-3.13015 1.954.4929-.80115 3.19478c2.46799.85789 4.27063 2.13191 3.91788 4.49093z"/><path d="m250.66764 176.39013a19.72616 19.72616 0 0 0 19.72617 19.72617h36.24358v-39.4523h-36.24358a19.72616 19.72616 0 0 0 -19.72617 19.72613z"/></g><circle cx="278.65251" cy="172.26376" fill="#072440" r="5.20832"/><path d="m279.98544 187.11747h-2.66585a1.2859 1.2859 0 0 1 -1.27664-1.44006l1.25891-10.42572h2.70131l1.25891 10.42572a1.28591 1.28591 0 0 1 -1.27664 1.44006z" fill="#072440"/><path d="m517.746 176.361h-29.897l-28.867-50-57.735.029-28.868 50h-85.803" fill="none" stroke="#f5516c" stroke-miterlimit="10" stroke-width="3.47222"/><circle cx="372.37906" cy="176.39027" fill="#f5516c" r="6.10583"/><circle cx="401.24657" cy="126.39042" fill="#f5516c" r="6.10583"/><circle cx="458.98159" cy="126.39042" fill="#f5516c" r="6.10583"/><circle cx="372.37906" cy="276.39011" fill="#063e62" r="3.90624"/><circle cx="314.64404" cy="76.39041" fill="#063e62" r="3.90624"/><circle cx="199.17399" cy="276.39011" fill="#063e62" r="3.90624"/><circle cx="199.17399" cy="76.39011" fill="#063e62" r="3.90624"/></g></svg>