<svg fill="none" height="470" viewBox="0 0 601 470" width="601" xmlns="http://www.w3.org/2000/svg" xmlns:xlink="http://www.w3.org/1999/xlink"><linearGradient id="a" gradientUnits="userSpaceOnUse" x1="290.848" x2="173.671" y1="255.541" y2="255.541"><stop offset="0" stop-color="#f5515c"/><stop offset="1" stop-color="#0a355c"/></linearGradient><linearGradient id="b" gradientUnits="userSpaceOnUse" x1="282.607" x2="181.564" y1="240.172" y2="240.172"><stop offset="0" stop-color="#fff"/><stop offset=".453125" stop-color="#fff" stop-opacity=".462428"/><stop offset="1" stop-color="#fff" stop-opacity="0"/></linearGradient><path d="m54.6588 212h-7.5426v39.878h7.5426z" fill="#0a355c"/><path d="m68.481 212h-7.5425v39.878h7.5425z" fill="#0a355c"/><path d="m40.7213 212h-7.5426v39.878h7.5426z" fill="#0a355c"/><path d="m96.2359 212h-7.5425v39.878h7.5425z" fill="#0a355c"/><path d="m82.3121 212h-7.5426v39.878h7.5426z" fill="#0a355c"/><path clip-rule="evenodd" d="m23.3158 204.288 41.376-18.676 41.2712 18.676h.006v5.15h-82.6536v-5.149-.001z" fill="#0a355c" fill-rule="evenodd"/><path d="m104.496 254.69h-79.6161v6.592h79.6161z" fill="#0a355c"/><path d="m352.619 198.7-48.986 22.842" stroke="#f5516c" stroke-miterlimit="10" stroke-width="3"/><path d="m352.619 269.174-48.986-22.842" stroke="#f5516c" stroke-miterlimit="10" stroke-width="3"/><path d="m303.281 130.622-20.683 77.191" stroke="#f5516c" stroke-miterlimit="10" stroke-width="3"/><path d="m108.386 233.676c1.424 0 2.58-1.155 2.58-2.58s-1.156-2.58-2.58-2.58c-1.425 0-2.58 1.155-2.58 2.58s1.155 2.58 2.58 2.58z" fill="#063e62"/><path d="m120.124 233.676c1.425 0 2.58-1.155 2.58-2.58s-1.155-2.58-2.58-2.58-2.58 1.155-2.58 2.58 1.155 2.58 2.58 2.58z" fill="#063e62"/><path d="m131.864 233.676c1.425 0 2.58-1.155 2.58-2.58s-1.155-2.58-2.58-2.58-2.58 1.155-2.58 2.58 1.155 2.58 2.58 2.58z" fill="#063e62"/><path d="m143.601 233.676c1.425 0 2.58-1.155 2.58-2.58s-1.155-2.58-2.58-2.58c-1.424 0-2.58 1.155-2.58 2.58s1.156 2.58 2.58 2.58z" fill="#063e62"/><rect height="45.2289" rx="21.75" stroke="#f5516c" stroke-width="2.5" width="147.969" x="355.813" y="83.4297"/><path d="m392.558 111.375v-17.1956h3.836v20.3166h-3.452zm-9.047-3.863v-.277c0-1.094.123-2.086.37-2.976.247-.9.609-1.672 1.085-2.315.476-.644 1.062-1.142 1.759-1.495s1.49-.529 2.381-.529c.838 0 1.569.176 2.196.529.634.353 1.172.855 1.613 1.508.45.644.812 1.406 1.085 2.288.273.873.472 1.83.595 2.871v.608c-.123.997-.322 1.922-.595 2.778-.273.855-.635 1.605-1.085 2.248-.441.635-.979 1.129-1.613 1.482-.635.353-1.376.529-2.223.529-.89 0-1.684-.181-2.38-.542-.688-.362-1.27-.869-1.746-1.521-.468-.653-.825-1.42-1.072-2.302s-.37-1.843-.37-2.884zm3.809-.277v.277c0 .591.044 1.142.132 1.654.097.511.252.965.463 1.362.221.388.503.692.847.913.353.212.78.317 1.283.317.653 0 1.19-.145 1.614-.436.423-.3.745-.71.965-1.23.23-.521.362-1.12.397-1.799v-1.733c-.026-.555-.106-1.054-.238-1.495-.123-.449-.309-.833-.556-1.15-.238-.318-.537-.565-.899-.741-.353-.176-.772-.265-1.257-.265-.493 0-.917.115-1.269.344-.353.221-.64.525-.86.913-.212.388-.37.846-.476 1.376-.097.52-.146 1.084-.146 1.693z" fill="#0a355c"/><path d="m409.635 109.457c0-.344-.053-.653-.159-.926-.097-.282-.282-.538-.556-.767-.273-.238-.657-.472-1.15-.701-.494-.23-1.134-.468-1.918-.715-.873-.282-1.702-.599-2.487-.952-.776-.353-1.464-.763-2.064-1.23-.59-.476-1.058-1.027-1.402-1.653-.335-.627-.502-1.354-.502-2.183 0-.8024.176-1.5299.529-2.1825.352-.6613.846-1.2257 1.481-1.693.635-.4762 1.385-.8422 2.249-1.0979.873-.2557 1.83-.3836 2.87-.3836 1.42 0 2.659.2557 3.717.7672 1.058.5114 1.878 1.2125 2.46 2.1031.591.8906.886 1.9091.886 3.0557h-3.941c0-.565-.119-1.0584-.357-1.4816-.23-.4321-.582-.7716-1.059-1.0185-.467-.247-1.058-.3704-1.772-.3704-.688 0-1.261.1058-1.72.3174-.458.2029-.802.4806-1.031.8334-.23.3439-.344.7319-.344 1.1637 0 .327.079.622.238.886.167.265.414.512.741.741.326.229.727.446 1.203.648.477.203 1.028.402 1.654.596 1.049.317 1.971.674 2.764 1.071.803.397 1.473.842 2.011 1.336s.943 1.054 1.217 1.68c.273.626.41 1.336.41 2.129 0 .838-.163 1.588-.49 2.249-.326.661-.798 1.221-1.415 1.68-.617.458-1.354.807-2.209 1.045s-1.812.357-2.87.357c-.953 0-1.892-.123-2.818-.37-.926-.256-1.768-.64-2.526-1.151-.75-.512-1.349-1.164-1.799-1.958-.45-.793-.675-1.733-.675-2.817h3.982c0 .599.092 1.106.278 1.521.185.414.445.749.78 1.005.344.256.75.441 1.217.556.476.114.996.172 1.561.172.688 0 1.252-.097 1.693-.291.45-.194.78-.463.992-.807.22-.344.331-.732.331-1.164z" fill="#0a355c"/><path d="m423.073 100.185v2.698h-8.333v-2.698zm-6.269-3.5321h3.809v13.5311c0 .415.053.732.159.953.115.22.282.374.503.463.22.079.498.119.833.119.238 0 .45-.009.635-.027.194-.026.357-.053.489-.079l.013 2.804c-.326.106-.679.19-1.058.251-.379.062-.798.093-1.256.093-.838 0-1.57-.137-2.196-.41-.617-.282-1.094-.732-1.429-1.349-.335-.618-.502-1.429-.502-2.434z" fill="#0a355c"/><path d="m424.29 107.486v-.278c0-1.049.15-2.015.45-2.897.3-.89.736-1.662 1.31-2.314.573-.653 1.278-1.16 2.116-1.521.838-.371 1.799-.556 2.883-.556 1.085 0 2.051.185 2.897.556.847.361 1.557.868 2.13 1.521.582.652 1.023 1.424 1.323 2.314.299.882.449 1.848.449 2.897v.278c0 1.041-.15 2.006-.449 2.897-.3.882-.741 1.653-1.323 2.315-.573.652-1.279 1.159-2.117 1.521-.837.361-1.798.542-2.883.542s-2.05-.181-2.897-.542c-.838-.362-1.547-.869-2.129-1.521-.574-.662-1.01-1.433-1.31-2.315-.3-.891-.45-1.856-.45-2.897zm3.81-.278v.278c0 .6.053 1.16.159 1.68.105.52.273.979.502 1.375.238.388.547.693.926.913.379.221.842.331 1.389.331.529 0 .983-.11 1.362-.331.379-.22.684-.525.913-.913.229-.396.397-.855.503-1.375.114-.52.172-1.08.172-1.68v-.278c0-.582-.058-1.129-.172-1.64-.106-.52-.278-.979-.516-1.376-.23-.405-.534-.723-.913-.952s-.838-.344-1.376-.344c-.537 0-.996.115-1.375.344-.371.229-.675.547-.913.952-.229.397-.397.856-.502 1.376-.106.511-.159 1.058-.159 1.64z" fill="#0a355c"/><path d="m446.102 111.785c.467 0 .882-.088 1.243-.265.362-.185.644-.441.847-.767.212-.335.322-.727.331-1.177h3.584c-.009 1.005-.278 1.9-.807 2.685-.529.776-1.239 1.389-2.129 1.839-.891.441-1.887.661-2.99.661-1.111 0-2.081-.185-2.91-.556-.82-.37-1.503-.881-2.05-1.534-.547-.661-.957-1.428-1.23-2.301-.273-.882-.41-1.826-.41-2.831v-.384c0-1.014.137-1.957.41-2.83.273-.882.683-1.649 1.23-2.302.547-.661 1.23-1.177 2.05-1.547.821-.371 1.782-.556 2.884-.556 1.173 0 2.2.225 3.082.675.891.449 1.587 1.093 2.09 1.931.511.829.771 1.812.78 2.949h-3.584c-.009-.476-.111-.908-.305-1.296-.185-.388-.458-.696-.82-.926-.352-.238-.789-.357-1.309-.357-.556 0-1.01.119-1.363.357-.352.23-.626.547-.82.953-.194.396-.33.851-.41 1.362-.07.503-.106 1.032-.106 1.587v.384c0 .555.036 1.089.106 1.6.071.512.203.966.397 1.363.203.397.481.71.833.939.353.229.812.344 1.376.344z" fill="#0a355c"/><path d="m458.126 94.1661v20.3299h-3.81v-20.3299zm9.021 6.0189-6.217 7.089-3.333 3.373-1.389-2.751 2.645-3.36 3.717-4.351zm-3.955 14.311-4.233-6.613 2.632-2.302 5.992 8.915z" fill="#0a355c"/><path d="m476.525 110.541c0-.273-.08-.52-.238-.74-.159-.221-.455-.424-.887-.609-.423-.194-1.036-.37-1.838-.529-.723-.159-1.398-.357-2.024-.595-.617-.247-1.155-.542-1.614-.886-.449-.344-.802-.75-1.058-1.217-.256-.476-.383-1.019-.383-1.627 0-.6.127-1.164.383-1.693.265-.529.639-.997 1.124-1.402.494-.415 1.094-.737 1.799-.966.715-.238 1.517-.357 2.408-.357 1.243 0 2.31.198 3.201.595.899.397 1.587.944 2.063 1.64.485.688.728 1.473.728 2.355h-3.81c0-.371-.079-.701-.238-.992-.15-.3-.388-.534-.714-.701-.318-.177-.732-.265-1.244-.265-.423 0-.789.075-1.097.225-.309.141-.547.335-.715.582-.158.238-.238.503-.238.794 0 .22.044.419.133.595.097.167.251.322.462.463.212.141.485.273.821.397.343.114.767.22 1.269.317 1.032.212 1.954.49 2.765.833.811.336 1.455.794 1.931 1.376.476.573.714 1.327.714 2.262 0 .635-.141 1.217-.423 1.746s-.688.992-1.217 1.389c-.529.388-1.164.692-1.905.913-.731.211-1.556.317-2.473.317-1.332 0-2.46-.238-3.386-.714-.917-.476-1.614-1.081-2.09-1.812-.467-.741-.701-1.5-.701-2.276h3.611c.017.521.15.94.397 1.257.255.318.577.547.965.688.397.141.825.212 1.283.212.494 0 .904-.067 1.23-.199.327-.141.574-.326.741-.555.177-.239.265-.512.265-.821z" fill="#0a355c"/><rect height="45.2289" rx="21.75" stroke="#f5516c" stroke-width="2.5" width="142.426" x="389.41" y="252.07"/><path d="m426.686 278.098c0-.344-.053-.653-.159-.926-.097-.283-.282-.538-.556-.768-.273-.238-.657-.471-1.15-.701-.494-.229-1.134-.467-1.918-.714-.873-.282-1.702-.599-2.487-.952-.776-.353-1.464-.763-2.064-1.23-.59-.476-1.058-1.028-1.402-1.654-.335-.626-.502-1.353-.502-2.182 0-.803.176-1.53.529-2.183.353-.661.846-1.225 1.481-1.693.635-.476 1.385-.842 2.249-1.098.873-.255 1.83-.383 2.87-.383 1.42 0 2.659.255 3.717.767 1.058.511 1.878 1.212 2.46 2.103.591.891.887 1.909.887 3.056h-3.942c0-.565-.119-1.059-.357-1.482-.23-.432-.582-.771-1.058-1.018-.468-.247-1.059-.371-1.773-.371-.688 0-1.261.106-1.719.318-.459.203-.803.48-1.032.833-.229.344-.344.732-.344 1.164 0 .326.079.622.238.886.168.265.414.512.741.741.326.229.727.445 1.203.648.477.203 1.028.401 1.654.595 1.049.318 1.971.675 2.764 1.072.803.397 1.473.842 2.011 1.336.538.493.943 1.053 1.217 1.68.273.626.41 1.335.41 2.129 0 .838-.163 1.587-.49 2.249-.326.661-.798 1.221-1.415 1.68-.617.458-1.353.806-2.209 1.045-.855.238-1.812.357-2.87.357-.953 0-1.892-.124-2.818-.371-.925-.255-1.768-.639-2.526-1.15-.75-.512-1.349-1.164-1.799-1.958s-.674-1.733-.674-2.817h3.981c0 .599.093 1.106.278 1.521.185.414.445.749.78 1.005.344.256.75.441 1.217.555.476.115.996.172 1.561.172.688 0 1.252-.097 1.693-.291.45-.194.78-.463.992-.806.22-.344.331-.732.331-1.164z" fill="#0a355c"/><path d="m440.125 268.825v2.699h-8.334v-2.699zm-6.27-3.531h3.809v13.531c0 .415.053.732.159.952.115.221.282.375.503.463.22.08.498.119.833.119.238 0 .45-.008.635-.026.194-.026.357-.053.489-.079l.013 2.804c-.326.106-.679.189-1.058.251s-.798.093-1.256.093c-.838 0-1.57-.137-2.196-.41-.617-.283-1.093-.732-1.429-1.35-.335-.617-.502-1.428-.502-2.433z" fill="#0a355c"/><path d="m450.019 279.91v-6.376c0-.458-.075-.851-.225-1.177-.15-.335-.384-.595-.701-.78-.309-.186-.71-.278-1.204-.278-.423 0-.789.075-1.098.225-.309.141-.547.348-.714.621-.168.265-.252.578-.252.939h-3.809c0-.608.141-1.186.423-1.732.282-.547.693-1.028 1.23-1.442.538-.423 1.178-.754 1.918-.992.75-.238 1.588-.357 2.514-.357 1.111 0 2.098.185 2.962.555.865.371 1.544.926 2.037 1.667.503.741.754 1.667.754 2.778v6.124c0 .785.049 1.428.146 1.931.097.494.238.926.423 1.296v.225h-3.849c-.185-.388-.326-.873-.423-1.455-.088-.591-.132-1.181-.132-1.772zm.502-5.49.027 2.156h-2.13c-.503 0-.939.058-1.309.172-.371.115-.675.278-.913.49-.238.203-.415.441-.529.714-.106.273-.159.573-.159.9 0 .326.075.621.225.886.15.255.366.458.648.608.282.141.613.212.992.212.573 0 1.071-.115 1.495-.344.423-.229.749-.512.979-.847.238-.335.361-.652.37-.952l1.005 1.614c-.141.361-.335.736-.582 1.124-.238.388-.542.754-.912 1.098-.371.335-.816.613-1.336.833-.521.212-1.138.318-1.852.318-.909 0-1.733-.181-2.474-.543-.732-.37-1.314-.877-1.746-1.521-.423-.652-.635-1.393-.635-2.222 0-.749.141-1.415.424-1.997.282-.582.696-1.072 1.243-1.468.556-.406 1.248-.71 2.077-.913.829-.212 1.79-.318 2.883-.318z" fill="#0a355c"/><path d="m460.6 262.807v20.33h-3.809v-20.33zm9.021 6.018-6.217 7.09-3.333 3.373-1.389-2.751 2.646-3.36 3.717-4.352zm-3.955 14.312-4.232-6.613 2.632-2.302 5.992 8.915z" fill="#0a355c"/><path d="m475.283 268.825v14.312h-3.823v-14.312zm-4.061-3.73c0-.555.194-1.014.582-1.375.388-.362.908-.543 1.561-.543.643 0 1.159.181 1.547.543.397.361.595.82.595 1.375 0 .556-.198 1.014-.595 1.376-.388.361-.904.542-1.547.542-.653 0-1.173-.181-1.561-.542-.388-.362-.582-.82-.582-1.376z" fill="#0a355c"/><path d="m482.161 271.881v11.256h-3.81v-14.312h3.572zm-.556 3.598h-1.032c0-1.059.137-2.011.41-2.858.274-.855.657-1.582 1.151-2.182.494-.608 1.08-1.071 1.759-1.389.688-.326 1.455-.489 2.302-.489.67 0 1.283.097 1.839.291.555.194 1.031.502 1.428.926.406.423.714.983.926 1.68.22.696.331 1.547.331 2.552v9.127h-3.836v-9.14c0-.635-.088-1.129-.265-1.481-.176-.353-.436-.6-.78-.741-.335-.15-.75-.225-1.243-.225-.512 0-.957.102-1.336.304-.371.203-.679.485-.926.847-.238.353-.419.767-.543 1.243-.123.476-.185.988-.185 1.535z" fill="#0a355c"/><path d="m502.676 268.825h3.452v13.836c0 1.305-.291 2.412-.873 3.32-.573.917-1.375 1.609-2.407 2.077-1.032.476-2.231.714-3.598.714-.599 0-1.234-.079-1.904-.238-.662-.159-1.297-.406-1.905-.741-.6-.335-1.102-.758-1.508-1.27l1.68-2.248c.441.511.952.908 1.534 1.19.582.291 1.226.437 1.931.437.688 0 1.27-.128 1.746-.384.477-.247.842-.613 1.098-1.098.256-.476.384-1.054.384-1.733v-10.555zm-9.629 7.328v-.278c0-1.093.132-2.085.397-2.976.273-.899.656-1.671 1.15-2.314.503-.644 1.111-1.142 1.826-1.495.714-.353 1.521-.529 2.42-.529.953 0 1.751.176 2.394.529.644.353 1.173.855 1.588 1.508.414.643.736 1.406.965 2.288.238.873.424 1.83.556 2.87v.609c-.132.996-.331 1.922-.595 2.778-.265.855-.613 1.604-1.045 2.248-.432.635-.97 1.129-1.614 1.482-.635.352-1.393.529-2.275.529s-1.68-.181-2.394-.543c-.706-.361-1.31-.868-1.812-1.521-.503-.652-.891-1.419-1.164-2.301-.265-.882-.397-1.843-.397-2.884zm3.809-.278v.278c0 .591.057 1.142.172 1.654.115.511.291.965.529 1.362.247.388.551.692.913.913.37.211.807.317 1.309.317.697 0 1.266-.145 1.707-.436.441-.3.771-.71.992-1.231.22-.52.348-1.119.383-1.798v-1.733c-.017-.556-.092-1.054-.225-1.495-.132-.45-.317-.833-.555-1.151-.238-.317-.547-.564-.926-.74-.379-.177-.829-.265-1.349-.265-.503 0-.939.115-1.31.344-.361.22-.665.525-.912.913-.238.388-.419.846-.543 1.375-.123.521-.185 1.085-.185 1.693z" fill="#0a355c"/><rect height="45.2289" rx="21.75" stroke="#f5516c" stroke-width="2.5" width="242.227" x="322.432" y="334.701"/><g fill="#0a355c"><path d="m362.059 362.672v3.095h-9.695v-3.095zm-8.412-16.164v19.259h-3.968v-19.259z"/><path d="m368.117 351.455v14.312h-3.822v-14.312zm-4.06-3.73c0-.555.194-1.014.582-1.375.388-.362.908-.543 1.561-.543.643 0 1.159.181 1.547.543.397.361.595.82.595 1.375 0 .556-.198 1.014-.595 1.376-.388.361-.904.542-1.547.542-.653 0-1.173-.181-1.561-.542-.388-.362-.582-.82-.582-1.376z"/><path d="m379.718 371.27v-16.891l.489-2.924h3.347v19.815zm-9.048-12.513v-.278c0-1.093.119-2.085.357-2.976.247-.9.609-1.667 1.085-2.302.476-.643 1.058-1.137 1.746-1.481.697-.353 1.499-.529 2.407-.529.873 0 1.627.176 2.262.529s1.169.851 1.601 1.495c.441.643.793 1.402 1.058 2.275s.467 1.829.608 2.87v.608c-.132.997-.335 1.923-.608 2.778-.265.856-.617 1.605-1.058 2.249-.432.644-.97 1.146-1.614 1.508-.635.352-1.393.529-2.275.529-.891 0-1.684-.181-2.381-.543-.688-.37-1.27-.881-1.746-1.534-.476-.652-.838-1.42-1.085-2.301-.238-.891-.357-1.857-.357-2.897zm3.81-.278v.278c0 .591.048 1.146.145 1.666.097.512.252.966.463 1.363.221.397.503.71.847.939.344.22.767.331 1.27.331.696 0 1.256-.15 1.679-.45.433-.309.75-.728.953-1.257.211-.529.335-1.133.37-1.812v-1.733c-.026-.555-.101-1.053-.225-1.494-.114-.45-.291-.834-.529-1.151-.229-.317-.529-.56-.899-.728-.362-.176-.803-.264-1.323-.264-.494 0-.917.11-1.27.331-.352.22-.639.529-.86.926-.211.388-.37.842-.476 1.362-.097.52-.145 1.085-.145 1.693z"/><path d="m395.022 362.341v-10.886h3.809v14.312h-3.584zm.423-2.936 1.124-.027c0 .953-.11 1.839-.33 2.659-.221.811-.552 1.517-.992 2.117-.441.59-.997 1.053-1.667 1.388-.67.327-1.459.49-2.368.49-.696 0-1.34-.097-1.931-.291-.582-.203-1.085-.516-1.508-.939-.414-.432-.741-.984-.979-1.654-.229-.679-.344-1.494-.344-2.447v-9.246h3.81v9.273c0 .423.048.78.145 1.071.106.291.252.529.437.714.185.186.401.318.648.397.256.08.538.119.847.119.784 0 1.402-.159 1.851-.476.459-.317.781-.75.966-1.296.194-.556.291-1.173.291-1.852z"/><path d="m405.762 351.455v14.312h-3.822v-14.312zm-4.061-3.73c0-.555.194-1.014.582-1.375.388-.362.909-.543 1.561-.543.644 0 1.16.181 1.548.543.397.361.595.82.595 1.375 0 .556-.198 1.014-.595 1.376-.388.361-.904.542-1.548.542-.652 0-1.173-.181-1.561-.542-.388-.362-.582-.82-.582-1.376z"/><path d="m417.363 362.646v-17.196h3.835v20.317h-3.452zm-9.048-3.863v-.278c0-1.093.124-2.085.37-2.976.247-.899.609-1.671 1.085-2.314.476-.644 1.063-1.142 1.759-1.495.697-.353 1.491-.529 2.381-.529.838 0 1.57.176 2.196.529.635.353 1.173.855 1.614 1.508.449.644.811 1.406 1.084 2.288.274.873.472 1.83.596 2.87v.609c-.124.996-.322 1.922-.596 2.778-.273.855-.635 1.605-1.084 2.248-.441.635-.979 1.129-1.614 1.482-.635.352-1.376.529-2.222.529-.891 0-1.685-.181-2.381-.543-.688-.361-1.27-.868-1.746-1.521-.468-.652-.825-1.419-1.072-2.301-.246-.882-.37-1.843-.37-2.884zm3.81-.278v.278c0 .591.044 1.142.132 1.654.097.511.251.965.463 1.362.22.388.502.692.846.913.353.211.781.317 1.283.317.653 0 1.191-.145 1.614-.436.423-.3.745-.71.966-1.23.229-.521.361-1.12.396-1.799v-1.733c-.026-.556-.105-1.054-.238-1.495-.123-.45-.308-.833-.555-1.151-.238-.317-.538-.564-.9-.74-.352-.177-.771-.265-1.256-.265-.494 0-.917.115-1.27.344-.353.221-.639.525-.86.913-.211.388-.37.846-.476 1.375-.097.521-.145 1.085-.145 1.693z"/><path d="m428.196 351.455v14.312h-3.823v-14.312zm-4.061-3.73c0-.555.194-1.014.582-1.375.388-.362.908-.543 1.561-.543.643 0 1.159.181 1.547.543.397.361.595.82.595 1.375 0 .556-.198 1.014-.595 1.376-.388.361-.904.542-1.547.542-.653 0-1.173-.181-1.561-.542-.388-.362-.582-.82-.582-1.376z"/><path d="m438.354 351.455v2.699h-8.333v-2.699zm-6.27-3.531h3.81v13.531c0 .415.053.732.159.953.114.22.282.374.502.462.221.08.498.12.834.12.238 0 .449-.009.634-.027.194-.026.358-.053.49-.079l.013 2.804c-.326.106-.679.189-1.058.251s-.798.093-1.257.093c-.837 0-1.569-.137-2.195-.41-.618-.282-1.094-.732-1.429-1.349-.335-.618-.503-1.429-.503-2.434z"/><path d="m444.769 364.154 3.797-12.699h4.087l-5.754 16.468c-.124.362-.291.75-.503 1.164-.203.415-.48.807-.833 1.178-.344.379-.78.687-1.31.925-.52.239-1.159.358-1.917.358-.362 0-.657-.022-.887-.067-.229-.044-.502-.105-.82-.185v-2.791h.304c.106.009.208.014.305.014.502 0 .912-.058 1.23-.172.317-.115.573-.291.767-.53.194-.229.348-.529.463-.899zm-1.587-12.699 3.108 10.371.543 4.034-2.593.278-5.145-14.683z"/><path d="m462.97 346.508h3.36l4.947 14.14 4.947-14.14h3.359l-6.957 19.259h-2.698zm-1.812 0h3.346l.609 13.783v5.476h-3.955zm16.891 0h3.36v19.259h-3.968v-5.476z"/><path d="m488.671 351.455v14.312h-3.823v-14.312zm-4.061-3.73c0-.555.194-1.014.582-1.375.388-.362.908-.543 1.561-.543.643 0 1.159.181 1.547.543.397.361.595.82.595 1.375 0 .556-.198 1.014-.595 1.376-.388.361-.904.542-1.547.542-.653 0-1.173-.181-1.561-.542-.388-.362-.582-.82-.582-1.376z"/><path d="m495.549 354.511v11.256h-3.81v-14.312h3.572zm-.556 3.598h-1.032c0-1.059.137-2.011.411-2.857.273-.856.656-1.583 1.15-2.183.494-.608 1.081-1.071 1.76-1.389.687-.326 1.454-.489 2.301-.489.67 0 1.283.097 1.839.291.555.194 1.031.502 1.428.926.406.423.714.983.926 1.68.221.696.331 1.547.331 2.552v9.127h-3.836v-9.14c0-.635-.088-1.129-.265-1.481-.176-.353-.436-.6-.78-.741-.335-.15-.75-.225-1.243-.225-.512 0-.957.102-1.336.304-.371.203-.679.485-.926.847-.238.353-.419.767-.543 1.243-.123.476-.185.988-.185 1.535z"/><path d="m511.025 351.455v14.312h-3.823v-14.312zm-4.061-3.73c0-.555.194-1.014.582-1.375.388-.362.908-.543 1.561-.543.643 0 1.159.181 1.547.543.397.361.595.82.595 1.375 0 .556-.198 1.014-.595 1.376-.388.361-.904.542-1.547.542-.653 0-1.173-.181-1.561-.542-.388-.362-.582-.82-.582-1.376z"/><path d="m517.903 354.511v11.256h-3.81v-14.312h3.572zm-.556 3.598h-1.031c0-1.059.136-2.011.41-2.857.273-.856.656-1.583 1.15-2.183.494-.608 1.081-1.071 1.76-1.389.687-.326 1.455-.489 2.301-.489.67 0 1.283.097 1.839.291.555.194 1.031.502 1.428.926.406.423.714.983.926 1.68.221.696.331 1.547.331 2.552v9.127h-3.836v-9.14c0-.635-.088-1.129-.265-1.481-.176-.353-.436-.6-.78-.741-.335-.15-.75-.225-1.243-.225-.512 0-.957.102-1.336.304-.371.203-.679.485-.926.847-.238.353-.419.767-.543 1.243-.123.476-.185.988-.185 1.535z"/><path d="m538.418 351.455h3.453v13.836c0 1.305-.291 2.412-.873 3.32-.574.917-1.376 1.609-2.408 2.077-1.032.476-2.231.714-3.598.714-.599 0-1.234-.079-1.904-.238-.662-.159-1.297-.406-1.905-.741-.6-.335-1.102-.758-1.508-1.27l1.68-2.248c.441.511.952.908 1.534 1.19.582.291 1.226.437 1.931.437.688 0 1.27-.128 1.746-.384.477-.247.843-.613 1.098-1.098.256-.476.384-1.053.384-1.732v-10.556zm-9.629 7.328v-.278c0-1.093.132-2.085.397-2.976.273-.899.657-1.671 1.15-2.314.503-.644 1.111-1.142 1.826-1.495.714-.353 1.521-.529 2.42-.529.953 0 1.751.176 2.394.529.644.353 1.173.855 1.588 1.508.414.644.736 1.406.965 2.288.238.873.424 1.83.556 2.87v.609c-.132.996-.331 1.922-.595 2.778-.265.855-.613 1.605-1.045 2.248-.432.635-.97 1.129-1.614 1.482-.635.352-1.393.529-2.275.529s-1.68-.181-2.394-.543c-.706-.361-1.31-.868-1.812-1.521-.503-.652-.891-1.419-1.164-2.301-.265-.882-.397-1.843-.397-2.884zm3.809-.278v.278c0 .591.058 1.142.172 1.654.115.511.291.965.529 1.362.247.388.551.692.913.913.37.211.807.317 1.309.317.697 0 1.266-.145 1.707-.436.441-.3.771-.71.992-1.23.22-.521.348-1.12.383-1.799v-1.733c-.017-.556-.092-1.054-.224-1.495-.133-.45-.318-.833-.556-1.151-.238-.317-.547-.564-.926-.74-.379-.177-.829-.265-1.349-.265-.503 0-.939.115-1.31.344-.361.221-.665.525-.912.913-.238.388-.419.846-.543 1.375-.123.521-.185 1.085-.185 1.693z"/></g><path d="m301.056 331.881-20.683-77.191" stroke="#f5516c" stroke-miterlimit="10" stroke-width="3"/><path d="m322.696 94.4495c-6.759 11.7845-2.777 26.8685 9.016 33.6335 11.62 6.763 26.874 2.776 33.638-9.017 6.759-11.785 2.776-26.8705-9.019-33.6352-11.785-6.7592-26.871-2.7761-33.635 9.0187z" fill="#f5516c" stroke="#f5f5f5" stroke-miterlimit="10" stroke-width="1.5"/><path d="m347.894 101.051h-.42l-.073.413-3.374 19.07-3.374-19.07-.073-.413h-.419c-1.834 0-3.145.079-4.022.411-.458.173-.826.425-1.089.791-.13.182-.226.382-.295.595-.22-.112-.49-.259-.781-.44-.601-.373-1.266-.875-1.78-1.487 2.195-.915 4.356-1.4277 6.014-1.7136.899-.1551 1.648-.2429 2.17-.2917.237-.0222.428-.0364.564-.0452l2.697 3.3315.388.48.389-.48 2.697-3.3315c.136.0088.326.023.563.0452.523.0488 1.271.1366 2.171.2917 1.658.2859 3.819.7986 6.014 1.7136-.514.612-1.179 1.114-1.78 1.487-.291.181-.561.328-.781.44-.069-.213-.165-.413-.295-.595-.263-.366-.632-.618-1.089-.791-.877-.332-2.188-.411-4.022-.411z" fill="#fff" stroke="#f5f5f5"/><path d="m330.712 98.8177c4.967-1.8577 9.455-2.4814 13.314-2.4814 4.014 0 8.493.6214 13.289 2.4666-.09.1899-.218.4445-.396.7697-4.619-1.9114-8.919-2.5553-12.893-2.5553-3.957 0-8.43.48-12.926 2.5491-.179-.3011-.304-.5554-.388-.7487z" fill="#fff" stroke="#f5f5f5"/><path d="m297.258 85.5023c-11.792 6.7551-15.774 21.8157-9.015 33.5827 6.765 11.777 21.85 15.753 33.634 9.005 11.795-6.754 15.779-21.817 9.019-33.585-6.759-11.7677-21.842-15.9278-33.638-9.0027z" fill="#f5516c" stroke="#f5f5f5" stroke-miterlimit="10" stroke-width="1.5"/><path d="m321.283 104.613h-11.413v4.532h6.546c-.336 1.51-1.175 2.685-2.518 3.692-1.174.671-2.517 1.175-4.196 1.175-3.188 0-5.874-2.182-6.881-5.035-.336-.671-.336-1.511-.336-2.35s.168-1.678.336-2.35c.839-3.021 3.693-5.0347 6.881-5.0347 1.847 0 3.357.6713 4.7 1.8467l3.524-3.5251c-2.014-2.014-4.867-3.1889-8.056-3.1889-4.699 0-8.895 2.6854-10.909 6.714-.839 1.678-1.343 3.524-1.343 5.538s.504 3.86 1.343 5.539c2.014 4.028 6.042 6.713 10.909 6.713 3.189 0 6.042-1.175 8.056-3.021 2.35-2.182 3.693-5.203 3.693-8.895-.168-.839-.168-1.679-.336-2.35z" fill="#fff"/><path d="m355.162 262.377c-6.759 11.784-2.777 26.868 9.016 33.634 11.62 6.762 26.874 2.775 33.637-9.018 6.76-11.785 2.777-26.87-9.018-33.635-11.786-6.759-26.871-2.776-33.635 9.019z" fill="#f5516c" stroke="#f5f5f5" stroke-miterlimit="10" stroke-width="1.5"/><g fill="#fff"><rect height="2.35207" rx="1.17603" width="19.6251" x="370.726" y="286.88"/><rect height="2.35207" rx="1.17603" width="19.6251" x="370.726" y="283.407"/><rect height="2.35207" rx="1.17603" width="19.6251" x="370.726" y="279.934"/><rect height="2.35207" rx="1.17603" width="19.6251" x="370.726" y="276.461"/><rect height="2.35207" rx="1.17603" width="19.6251" x="370.726" y="272.988"/><rect height="2.35207" rx="1.17603" width="19.6251" x="370.726" y="269.516"/><rect height="2.35207" rx="1.17603" width="19.6251" x="370.726" y="266.043"/><rect height="2.35207" rx="1.17603" width="19.6251" x="370.726" y="262.57"/><rect height="2.35207" rx="1.17603" width="19.6251" x="370.726" y="259.097"/></g><path d="m381.63 283.508c-3.46 6.003-11.201 8.042-17.211 4.579-6.005-3.459-8.045-11.195-4.581-17.203 3.46-6.002 11.2-8.041 17.21-4.579 5.956 3.46 8.044 11.198 4.582 17.203z" fill="#f5516c" stroke="#f5f5f5"/><path d="m370.807 268.496v7.332c-.407-.407-.757-.756-1.222-1.222-.059-.698-.175-2.676-.175-2.676l1.164-3.492c-.698 0-1.397.116-2.037.291l-.583 1.688-1.63-.815c-.582.349-1.164.756-1.688 1.28l2.911 1.455.116 1.746-1.746-.117-1.456-2.909c-.465.523-.931 1.047-1.28 1.687l.815 1.63-1.747.582c-.175.64-.291 1.338-.291 2.095l3.493-1.106 2.795.116 1.164 1.164-1.164 1.164-2.795.116-3.493-1.105c0 .698.116 1.396.291 2.095l1.688.582-.815 1.571c.35.582.757 1.164 1.281 1.629l1.456-2.91 1.746-.116-.116 1.746-2.911 1.455c.524.465 1.048.931 1.688 1.28l1.572-.757.582 1.688c.641.175 1.339.291 2.038.291l-1.106-3.433s.116-1.979.174-2.677c.408-.408.757-.757 1.223-1.222v7.332c4.832 0 8.733-3.899 8.733-8.729.058-4.83-3.843-8.729-8.675-8.729zm1.98 15.247c0-4.365 0-8.671 0-13.035 2.095.465 4.773 2.793 4.89 6.284.116 3.841-2.795 6.285-4.89 6.751z" fill="#fff"/><rect height="45.2289" rx="21.75" stroke="#f5516c" stroke-width="2.5" width="139.647" x="424.746" y="166.642"/><path d="m461.493 194.587v-17.195h3.836v20.317h-3.453zm-9.048-3.862v-.278c0-1.093.124-2.085.371-2.976.247-.899.608-1.671 1.084-2.315.476-.643 1.063-1.142 1.76-1.494.696-.353 1.49-.529 2.38-.529.838 0 1.57.176 2.196.529.635.352 1.173.855 1.614 1.508.45.643.811 1.406 1.085 2.288.273.873.471 1.83.595 2.87v.609c-.124.996-.322 1.922-.595 2.777-.274.856-.635 1.605-1.085 2.249-.441.635-.979 1.129-1.614 1.482-.635.352-1.375.529-2.222.529-.891 0-1.684-.181-2.381-.543-.688-.361-1.27-.868-1.746-1.521-.467-.652-.824-1.42-1.071-2.301-.247-.882-.371-1.843-.371-2.884zm3.81-.278v.278c0 .591.044 1.142.132 1.653.097.512.251.966.463 1.363.22.388.503.692.847.913.352.211.78.317 1.283.317.652 0 1.19-.145 1.613-.436.424-.3.745-.71.966-1.231.229-.52.361-1.12.397-1.799v-1.732c-.027-.556-.106-1.054-.238-1.495-.124-.45-.309-.833-.556-1.151-.238-.317-.538-.564-.899-.74-.353-.177-.772-.265-1.257-.265-.494 0-.917.115-1.27.344-.353.22-.639.525-.86.913-.211.388-.37.846-.476 1.375-.097.52-.145 1.085-.145 1.693z" fill="#0a355c"/><path d="m477.154 178.45v19.259h-3.955v-19.259zm5.926 0v3.109h-15.714v-3.109z" fill="#0a355c"/><path d="m482.193 190.699v-.278c0-1.05.15-2.015.45-2.897.3-.891.736-1.662 1.31-2.315.573-.652 1.278-1.159 2.116-1.521.838-.37 1.799-.555 2.884-.555 1.084 0 2.05.185 2.896.555.847.362 1.557.869 2.13 1.521.582.653 1.023 1.424 1.323 2.315.299.882.449 1.847.449 2.897v.278c0 1.04-.15 2.006-.449 2.896-.3.882-.741 1.654-1.323 2.315-.573.653-1.279 1.16-2.117 1.521-.837.362-1.798.543-2.883.543s-2.05-.181-2.897-.543c-.838-.361-1.547-.868-2.129-1.521-.574-.661-1.01-1.433-1.31-2.315-.3-.89-.45-1.856-.45-2.896zm3.81-.278v.278c0 .599.053 1.159.159 1.679.105.521.273.979.502 1.376.238.388.547.692.926.913.379.22.842.33 1.389.33.529 0 .983-.11 1.362-.33.38-.221.684-.525.913-.913.229-.397.397-.855.503-1.376.114-.52.172-1.08.172-1.679v-.278c0-.582-.058-1.129-.172-1.64-.106-.521-.278-.979-.516-1.376-.229-.406-.534-.723-.913-.952-.379-.23-.838-.344-1.375-.344-.538 0-.997.114-1.376.344-.37.229-.675.546-.913.952-.229.397-.397.855-.502 1.376-.106.511-.159 1.058-.159 1.64z" fill="#0a355c"/><path d="m501.902 177.379v20.33h-3.809v-20.33zm9.021 6.018-6.217 7.09-3.333 3.373-1.389-2.751 2.645-3.36 3.717-4.352zm-3.955 14.312-4.233-6.614 2.633-2.301 5.991 8.915z" fill="#0a355c"/><path d="m518.886 197.974c-1.111 0-2.108-.177-2.99-.529-.881-.362-1.631-.86-2.248-1.495-.609-.635-1.076-1.371-1.402-2.209-.327-.847-.49-1.746-.49-2.698v-.53c0-1.084.155-2.076.463-2.976.309-.899.75-1.68 1.323-2.341.582-.661 1.287-1.168 2.116-1.521.829-.362 1.764-.542 2.804-.542 1.015 0 1.914.167 2.699.502s1.442.812 1.971 1.429c.538.617.943 1.358 1.217 2.222.273.855.41 1.808.41 2.857v1.587h-11.376v-2.539h7.632v-.291c0-.529-.097-1.001-.291-1.416-.185-.423-.467-.758-.846-1.005s-.864-.37-1.455-.37c-.503 0-.935.11-1.296.33-.362.221-.657.53-.887.926-.22.397-.388.865-.502 1.402-.106.53-.159 1.112-.159 1.746v.53c0 .573.079 1.102.238 1.587.168.485.401.904.701 1.256.309.353.679.626 1.111.82.441.194.939.291 1.495.291.688 0 1.327-.132 1.918-.396.599-.274 1.115-.684 1.547-1.23l1.852 2.01c-.3.432-.71.847-1.23 1.243-.511.397-1.129.724-1.852.979-.723.247-1.547.371-2.473.371z" fill="#0a355c"/><path d="m530.658 186.453v11.256h-3.809v-14.312h3.571zm-.556 3.597h-1.031c0-1.058.136-2.01.41-2.857.273-.855.657-1.582 1.151-2.182.493-.609 1.08-1.072 1.759-1.389.688-.326 1.455-.489 2.301-.489.67 0 1.283.097 1.839.291.555.194 1.032.502 1.428.926.406.423.715.983.926 1.679.221.697.331 1.548.331 2.553v9.127h-3.836v-9.14c0-.635-.088-1.129-.264-1.481-.177-.353-.437-.6-.781-.741-.335-.15-.749-.225-1.243-.225-.512 0-.957.101-1.336.304-.371.203-.679.485-.926.847-.238.352-.419.767-.542 1.243-.124.476-.186.988-.186 1.534z" fill="#0a355c"/><path d="m388.208 189.546c0 13.555 11.06 24.615 24.614 24.615 13.557 0 24.615-11.159 24.615-24.615 0-13.554-11.06-24.614-24.615-24.614-13.554 0-24.614 11.06-24.614 24.614z" fill="#f5516c" stroke="#f5f5f5" stroke-width="1.5"/><path d="m418.04 180.175 1.063-4.251-2.608-.677-1.063 4.251c-.677-.193-1.353-.289-2.126-.483l1.063-4.251-2.609-.676-1.062 4.348c-.58-.097-1.16-.29-1.643-.387l-3.575-.869-.676 2.802 1.932.483c1.063.289 1.256.966 1.256 1.546l-2.898 11.787c-.193.29-.483.773-1.256.58l-1.933-.484-1.352 2.996 3.381.869 1.836.483-1.063 4.348 2.609.676 1.063-4.347c.676.193 1.352.386 2.125.579l-.966 4.251 2.609.677 1.063-4.348c4.444.869 7.826.483 9.275-3.575 1.159-3.285-.097-5.121-2.416-6.377 1.74-.386 2.996-1.546 3.382-3.864.387-3.285-2.029-5.024-5.411-6.087zm-.676 14.396c-.773 3.285-6.28 1.449-8.116 1.063l1.45-5.797c1.739.483 7.439 1.352 6.666 4.734zm.773-8.503c-.773 2.996-5.314 1.45-6.763 1.063l1.353-5.217c1.449.386 6.183 1.063 5.41 4.154z" fill="#fff"/><path d="m389.502 168.231-.003-.001c-11.755-6.771-26.901-2.792-33.68 8.967-6.774 11.75-2.793 26.89 8.971 33.666 11.755 6.771 26.901 2.791 33.68-8.967 6.777-11.754 2.692-26.89-8.968-33.665z" fill="#f5516c" stroke="#f5f5f5" stroke-width="1.5"/><path d="m377.143 175.061v12.168c-.677-.676-1.256-1.255-2.029-2.028-.097-1.159-.29-4.442-.29-4.442l1.932-5.795c-1.159 0-2.319.193-3.381.483l-.967 2.801-2.705-1.352c-.966.579-1.932 1.255-2.802 2.124l4.831 2.415.193 2.897-2.898-.193-2.415-4.829c-.773.869-1.546 1.738-2.126 2.801l1.353 2.704-2.899.965c-.29 1.063-.483 2.222-.483 3.477l5.797-1.835 4.637.193 1.933 1.932-1.933 1.931-4.637.193-5.797-1.835c0 1.159.193 2.318.483 3.477l2.802.966-1.353 2.607c.58.966 1.256 1.932 2.126 2.704l2.415-4.828 2.899-.194-.194 2.898-4.83 2.414c.869.773 1.739 1.545 2.802 2.125l2.608-1.256.966 2.801c1.063.289 2.222.483 3.382.483l-1.836-5.698s.193-3.284.29-4.443c.676-.676 1.256-1.255 2.029-2.028v12.169c8.019 0 14.492-6.471 14.492-14.486.097-8.016-6.376-14.486-14.395-14.486zm3.284 25.302c0-7.243 0-14.389 0-21.632 3.479.772 7.923 4.635 8.116 10.429.193 6.374-4.637 10.43-8.116 11.203z" fill="#fff"/><circle cx="307.56" cy="357.315" fill="#fff" r="24.6145" stroke="#f5f5f5" stroke-width="1.5"/><path d="m305.235 333.512c-12.116 1.164-21.54 11.396-21.54 23.772 0 12.438 9.424 22.609 21.54 23.773z" fill="#f5516c"/><path d="m309.149 354.956h22.213c-1.163-11.58-10.525-20.77-22.213-21.505z" fill="#f5516c"/><path d="m309.149 358.878v22.302c11.933-.797 21.478-10.355 22.274-22.302z" fill="#f5516c"/><rect fill="url(#a)" height="47.7289" rx="23.8645" width="154.702" x="154.446" y="207.812"/><path d="m178.961 248.262c-9.122 0-16.585-7.464-16.585-16.586s7.463-16.585 16.585-16.585 16.586 7.463 16.586 16.585-7.464 16.586-16.586 16.586z" fill="#fff"/><path d="m181.108 222.466h-6.725v3.744h5.647c2.982 0 5.456 2.474 5.456 5.456s-2.474 5.457-5.456 5.457h-5.647v3.743h6.535c5.139 0 9.263-4.124 9.263-9.263 0-5.076-4.06-9.137-9.073-9.137z" fill="#0a355c"/><path d="m176.467 226.909c-.127 0-.254 0-.445 0 1.46 1.015 2.475 2.728 2.475 4.695s-.952 3.68-2.475 4.695h.445c2.601 0 4.695-2.094 4.695-4.695 0-2.602-2.094-4.695-4.695-4.695z" fill="#0a355c"/><path d="m177.869 231.603c0 2.792-2.285 5.076-5.076 5.076-2.792 0-5.076-2.284-5.076-5.076s2.284-5.076 5.076-5.076c2.855 0 5.076 2.284 5.076 5.076z" fill="#0a355c"/><path clip-rule="evenodd" d="m273.891 235.381c0-.645-.276-1.198-.737-1.567-.46-.368-1.382-.737-2.58-1.197-1.29-.369-2.303-.83-3.04-1.198-2.027-1.106-3.041-2.58-3.041-4.423 0-.921.276-1.843.829-2.58s1.29-1.29 2.304-1.751c1.013-.46 2.119-.645 3.409-.645s2.396.185 3.409.645c1.014.461 1.751 1.106 2.304 1.935.553.83.829 1.751.829 2.857h-3.686c0-.83-.276-1.475-.737-1.843-.553-.461-1.198-.645-2.119-.645s-1.566.184-2.119.553c-.461.368-.737.829-.737 1.474 0 .553.276 1.014.829 1.474.502.418 1.307.685 2.278 1.006h.002c.098.033.198.066.3.1 2.027.645 3.593 1.382 4.515 2.303.921.922 1.382 2.028 1.382 3.41 0 1.566-.553 2.764-1.751 3.593s-2.672 1.29-4.699 1.29c-1.382 0-2.58-.276-3.686-.737-1.105-.461-1.935-1.198-2.58-2.027s-.921-1.843-.921-3.041h3.686c0 1.935 1.197 2.949 3.501 2.949.829 0 1.566-.185 2.027-.553.553-.277.829-.829.829-1.382zm-69.102 4.607h3.686v-17.691h-3.686zm18.153 0h3.594v-17.691h-3.594v11.702l-7.095-11.702h-3.685v17.691h3.685v-11.61zm14.463-4.423 4.055-13.268h4.054l-6.174 17.691h-3.777l-6.174-17.691h4.054zm14.562-3.225h6.911v-2.856h-7.003v-4.239h8.201v-2.948h-11.794v17.691h11.886v-2.949h-8.201zm37.405-7.095h5.344v-2.948h-14.374v2.948h5.344v14.743h3.686z" fill="url(#b)" fill-rule="evenodd"/><path d="m32.8463 278.985h-4.284c0 1.428.336 2.52 1.008 3.276s1.596 1.176 2.856 1.176c.84 0 1.68-.084 2.436-.336l.252 1.764c-.924.252-1.764.336-2.688.336-1.848 0-3.276-.504-4.284-1.596-1.092-1.092-1.596-2.604-1.68-4.62h-1.932v-1.344h1.932v-1.512h-1.932v-1.344h1.932c.084-1.932.672-3.444 1.68-4.452 1.092-1.092 2.436-1.596 4.284-1.596.756 0 1.68.084 2.688.336l-.252 1.764c-.84-.252-1.596-.42-2.436-.42-1.176 0-2.184.336-2.772 1.092-.672.756-1.008 1.848-1.008 3.192h4.2v1.344h-4.284v1.512h4.284z" fill="#063e62"/><path d="m76.9125 279.909c-.168 1.68-.84 3.024-1.848 3.948-1.092.924-2.436 1.428-4.2 1.428-1.932 0-3.444-.672-4.62-2.016s-1.764-3.192-1.764-5.46v-1.512c0-1.512.252-2.856.84-3.948.504-1.176 1.26-2.016 2.268-2.604s2.1-.924 3.444-.924c1.68 0 3.108.504 4.116 1.428s1.596 2.268 1.764 3.948h-2.1c-.168-1.26-.588-2.184-1.176-2.772s-1.512-.84-2.604-.84c-1.344 0-2.436.504-3.192 1.512s-1.176 2.436-1.176 4.284v1.596c0 1.764.336 3.108 1.092 4.2s1.764 1.512 3.108 1.512c1.176 0 2.1-.252 2.688-.84.672-.504 1.092-1.428 1.26-2.772h2.1z" fill="#063e62"/><path d="m91.1996 285.033h-2.1v-7.476h-8.148v7.476h-2.1v-16.128h2.1v6.972h8.148v-6.972h2.1z" fill="#063e62"/><path d="m102.884 277.893h-6.8035v7.14h-2.1v-16.128h9.9955v1.764h-7.8955v5.544h6.8035z" fill="#063e62"/><path d="m53.3101 280.833c0-.672-.252-1.26-.756-1.68-.504-.504-1.26-.924-2.436-1.26-1.596-.504-2.688-1.092-3.444-1.848s-1.092-1.764-1.092-2.94.336-2.184 1.092-2.94 1.68-1.26 2.94-1.344v-2.436h1.68v2.436c1.26.168 2.184.672 2.856 1.596.672.84 1.008 2.1 1.008 3.612h-1.932c0-1.008-.252-1.848-.756-2.52-.504-.588-1.176-.924-2.016-.924s-1.512.252-2.016.672-.672 1.092-.672 1.932c0 .756.252 1.344.756 1.764s1.26.84 2.436 1.26c1.092.336 2.016.756 2.604 1.176.672.42 1.092.924 1.428 1.512s.42 1.26.42 2.016c0 1.26-.336 2.268-1.092 3.024s-1.764 1.176-3.192 1.344v2.1h-1.68v-2.184c-1.344-.168-2.436-.588-3.192-1.428s-1.176-2.016-1.176-3.444h2.016c0 1.008.252 1.848.84 2.352.504.588 1.344.84 2.268.84 1.008 0 1.764-.252 2.268-.672.588-.588.84-1.176.84-2.016z" fill="#063e62"/></svg>