<svg fill="none" height="471" viewBox="0 0 601 471" width="601" xmlns="http://www.w3.org/2000/svg"><path d="m277.201 278.688c-1.157 0-2.094.938-2.094 2.094s.937 2.093 2.094 2.093c1.156 0 2.093-.937 2.093-2.093s-.937-2.094-2.093-2.094z" fill="#f5516c"/><path d="m266.733 278.688c-1.156 0-2.094.938-2.094 2.094s.938 2.093 2.094 2.093 2.093-.937 2.093-2.093-.937-2.094-2.093-2.094z" fill="#f5516c"/><path d="m298.133 278.688c-1.156 0-2.093.938-2.093 2.094s.937 2.093 2.093 2.093 2.094-.937 2.094-2.093-.938-2.094-2.094-2.094z" fill="#f5516c"/><path d="m287.665 278.688c-1.156 0-2.093.938-2.093 2.094s.937 2.093 2.093 2.093c1.157 0 2.094-.937 2.094-2.093s-.937-2.094-2.094-2.094z" fill="#f5516c"/><path d="m319.321 278.688c-1.157 0-2.094.938-2.094 2.094s.937 2.093 2.094 2.093c1.156 0 2.093-.937 2.093-2.093s-.937-2.094-2.093-2.094z" fill="#f5516c"/><path d="m308.853 278.688c-1.156 0-2.094.938-2.094 2.094s.938 2.093 2.094 2.093 2.093-.937 2.093-2.093-.937-2.094-2.093-2.094z" fill="#f5516c"/><path d="m340.252 278.688c-1.156 0-2.093.938-2.093 2.094s.937 2.093 2.093 2.093 2.094-.937 2.094-2.093-.938-2.094-2.094-2.094z" fill="#f5516c"/><path d="m361.183 278.688c-1.156 0-2.094.938-2.094 2.094s.938 2.093 2.094 2.093 2.093-.937 2.093-2.093-.937-2.094-2.093-2.094z" fill="#f5516c"/><path d="m329.785 278.688c-1.156 0-2.093.938-2.093 2.094s.937 2.093 2.093 2.093c1.157 0 2.094-.937 2.094-2.093s-.937-2.094-2.094-2.094z" fill="#f5516c"/><path d="m350.716 278.688c-1.156 0-2.093.938-2.093 2.094s.937 2.093 2.093 2.093 2.094-.937 2.094-2.093-.938-2.094-2.094-2.094z" fill="#f5516c"/><path d="m256.266 278.688c-1.156 0-2.094.938-2.094 2.094s.938 2.093 2.094 2.093 2.093-.937 2.093-2.093-.937-2.094-2.093-2.094z" fill="#f5516c"/><path d="m245.798 278.688c-1.156 0-2.093.938-2.093 2.094s.937 2.093 2.093 2.093 2.094-.937 2.094-2.093-.938-2.094-2.094-2.094z" fill="#f5516c"/><path d="m235.329 278.688c-1.156 0-2.093.938-2.093 2.094s.937 2.093 2.093 2.093c1.157 0 2.094-.937 2.094-2.093s-.937-2.094-2.094-2.094z" fill="#f5516c"/><path d="m224.862 278.688c-1.157 0-2.094.938-2.094 2.094s.937 2.093 2.094 2.093c1.156 0 2.093-.937 2.093-2.093s-.937-2.094-2.093-2.094z" fill="#f5516c"/><path d="m214.398 278.688c-1.156 0-2.094.938-2.094 2.094s.938 2.093 2.094 2.093 2.093-.937 2.093-2.093-.937-2.094-2.093-2.094z" fill="#f5516c"/><path d="m203.93 278.688c-1.156 0-2.093.938-2.093 2.094s.937 2.093 2.093 2.093 2.093-.937 2.093-2.093-.937-2.094-2.093-2.094z" fill="#f5516c"/><path d="m199.056 271.9-8.882 8.882 8.882 8.881" stroke="#f5516c" stroke-width="3"/><path d="m144.053 170.38-8.882-8.881-8.882 8.881" stroke="#f5516c" stroke-width="3"/><g fill="#f5516c"><path d="m137.266 184.746c0-1.156-.937-2.094-2.093-2.094-1.157 0-2.094.938-2.094 2.094s.937 2.093 2.094 2.093c1.156 0 2.093-.937 2.093-2.093z"/><path d="m137.266 174.691c0-1.156-.937-2.094-2.093-2.094-1.157 0-2.094.938-2.094 2.094s.937 2.093 2.094 2.093c1.156 0 2.093-.937 2.093-2.093z"/><path d="m137.266 195.214c0-1.156-.937-2.094-2.093-2.094-1.157 0-2.094.938-2.094 2.094s.937 2.093 2.094 2.093c1.156 0 2.093-.937 2.093-2.093z"/><path d="m219.419 193.121c-1.156 0-2.093.937-2.093 2.093s.937 2.093 2.093 2.093 2.094-.937 2.094-2.093-.938-2.093-2.094-2.093z"/><path d="m208.951 193.121c-1.156 0-2.093.937-2.093 2.093s.937 2.093 2.093 2.093c1.157 0 2.094-.937 2.094-2.093s-.937-2.093-2.094-2.093z"/><path d="m240.35 193.121c-1.156 0-2.094.937-2.094 2.093s.938 2.093 2.094 2.093 2.093-.937 2.093-2.093-.937-2.093-2.093-2.093z"/><path d="m229.884 193.121c-1.156 0-2.093.937-2.093 2.093s.937 2.093 2.093 2.093 2.094-.937 2.094-2.093-.938-2.093-2.094-2.093z"/><path d="m261.537 193.121c-1.156 0-2.093.937-2.093 2.093s.937 2.093 2.093 2.093c1.157 0 2.094-.937 2.094-2.093s-.937-2.093-2.094-2.093z"/><path d="m251.071 193.121c-1.157 0-2.094.937-2.094 2.093s.937 2.093 2.094 2.093c1.156 0 2.093-.937 2.093-2.093s-.937-2.093-2.093-2.093z"/><path d="m282.47 193.121c-1.156 0-2.093.937-2.093 2.093s.937 2.093 2.093 2.093 2.093-.937 2.093-2.093-.937-2.093-2.093-2.093z"/><path d="m303.401 193.121c-1.156 0-2.094.937-2.094 2.093s.938 2.093 2.094 2.093 2.093-.937 2.093-2.093-.937-2.093-2.093-2.093z"/><path d="m272.003 193.121c-1.156 0-2.093.937-2.093 2.093s.937 2.093 2.093 2.093 2.094-.937 2.094-2.093-.938-2.093-2.094-2.093z"/><path d="m292.934 193.121c-1.156 0-2.094.937-2.094 2.093s.938 2.093 2.094 2.093 2.093-.937 2.093-2.093-.937-2.093-2.093-2.093z"/><path d="m198.484 193.121c-1.156 0-2.094.937-2.094 2.093s.938 2.093 2.094 2.093 2.093-.937 2.093-2.093-.937-2.093-2.093-2.093z"/><path d="m188.016 193.121c-1.156 0-2.094.937-2.094 2.093s.938 2.093 2.094 2.093 2.093-.937 2.093-2.093-.937-2.093-2.093-2.093z"/><path d="m177.547 193.121c-1.156 0-2.093.937-2.093 2.093s.937 2.093 2.093 2.093 2.094-.937 2.094-2.093-.938-2.093-2.094-2.093z"/><path d="m167.078 193.121c-1.156 0-2.093.937-2.093 2.093s.937 2.093 2.093 2.093c1.157 0 2.094-.937 2.094-2.093s-.937-2.093-2.094-2.093z"/><path d="m156.615 193.121c-1.157 0-2.094.937-2.094 2.093s.937 2.093 2.094 2.093c1.156 0 2.093-.937 2.093-2.093s-.937-2.093-2.093-2.093z"/><path d="m146.148 193.121c-1.156 0-2.094.937-2.094 2.093s.938 2.093 2.094 2.093 2.093-.937 2.093-2.093-.937-2.093-2.093-2.093z"/><path d="m387.031 193.121c-1.157 0-2.094.937-2.094 2.093s.937 2.093 2.094 2.093c1.156 0 2.093-.937 2.093-2.093s-.937-2.093-2.093-2.093z"/><path d="m376.562 193.121c-1.156 0-2.094.937-2.094 2.093s.938 2.093 2.094 2.093 2.093-.937 2.093-2.093-.937-2.093-2.093-2.093z"/><path d="m407.962 193.121c-1.156 0-2.093.937-2.093 2.093s.937 2.093 2.093 2.093 2.094-.937 2.094-2.093-.938-2.093-2.094-2.093z"/><path d="m397.495 193.121c-1.156 0-2.093.937-2.093 2.093s.937 2.093 2.093 2.093c1.157 0 2.094-.937 2.094-2.093s-.937-2.093-2.094-2.093z"/><path d="m418.682 203.347c-1.156 0-2.093.937-2.093 2.093 0 1.157.937 2.094 2.093 2.094s2.093-.937 2.093-2.094c0-1.156-.937-2.093-2.093-2.093z"/><path d="m418.682 213.573c-1.156 0-2.093.938-2.093 2.094s.937 2.093 2.093 2.093 2.093-.937 2.093-2.093-.937-2.094-2.093-2.094z"/><path d="m418.683 193.121c-1.156 0-2.094.937-2.094 2.093s.938 2.093 2.094 2.093 2.093-.937 2.093-2.093-.937-2.093-2.093-2.093z"/><path d="m366.096 193.121c-1.156 0-2.093.937-2.093 2.093s.937 2.093 2.093 2.093 2.093-.937 2.093-2.093-.937-2.093-2.093-2.093z"/><path d="m355.627 193.121c-1.156 0-2.093.937-2.093 2.093s.937 2.093 2.093 2.093 2.094-.937 2.094-2.093-.938-2.093-2.094-2.093z"/><path d="m345.159 193.121c-1.156 0-2.093.937-2.093 2.093s.937 2.093 2.093 2.093c1.157 0 2.094-.937 2.094-2.093s-.937-2.093-2.094-2.093z"/><path d="m334.69 193.121c-1.156 0-2.094.937-2.094 2.093s.938 2.093 2.094 2.093 2.093-.937 2.093-2.093-.937-2.093-2.093-2.093z"/><path d="m324.226 193.121c-1.156 0-2.094.937-2.094 2.093s.938 2.093 2.094 2.093 2.093-.937 2.093-2.093-.937-2.093-2.093-2.093z"/><path d="m313.759 193.121c-1.156 0-2.093.937-2.093 2.093s.937 2.093 2.093 2.093 2.094-.937 2.094-2.093-.938-2.093-2.094-2.093z"/><path d="m316.969 367.966c-1.156 0-2.093.938-2.093 2.094s.937 2.093 2.093 2.093 2.093-.937 2.093-2.093-.937-2.094-2.093-2.094z"/><path d="m306.501 367.966c-1.156 0-2.093.938-2.093 2.094s.937 2.093 2.093 2.093 2.094-.937 2.094-2.093-.938-2.094-2.094-2.094z"/><path d="m337.902 367.966c-1.156 0-2.094.938-2.094 2.094s.938 2.093 2.094 2.093 2.093-.937 2.093-2.093-.937-2.094-2.093-2.094z"/><path d="m327.434 367.966c-1.156 0-2.094.938-2.094 2.094s.938 2.093 2.094 2.093 2.093-.937 2.093-2.093-.937-2.094-2.093-2.094z"/><path d="m359.089 367.966c-1.156 0-2.093.938-2.093 2.094s.937 2.093 2.093 2.093 2.094-.937 2.094-2.093-.938-2.094-2.094-2.094z"/><path d="m348.621 367.966c-1.156 0-2.093.938-2.093 2.094s.937 2.093 2.093 2.093c1.157 0 2.094-.937 2.094-2.093s-.937-2.094-2.094-2.094z"/><path d="m296.034 367.966c-1.156 0-2.093.938-2.093 2.094s.937 2.093 2.093 2.093c1.157 0 2.094-.937 2.094-2.093s-.937-2.094-2.094-2.094z"/><path d="m285.567 367.966c-1.156 0-2.094.938-2.094 2.094s.938 2.093 2.094 2.093 2.093-.937 2.093-2.093-.937-2.094-2.093-2.094z"/><path d="m275.099 367.966c-1.156 0-2.093.938-2.093 2.094s.937 2.093 2.093 2.093 2.093-.937 2.093-2.093-.937-2.094-2.093-2.094z"/><path d="m264.63 367.966c-1.156 0-2.093.938-2.093 2.094s.937 2.093 2.093 2.093 2.094-.937 2.094-2.093-.938-2.094-2.094-2.094z"/><path d="m254.166 367.966c-1.156 0-2.093.938-2.093 2.094s.937 2.093 2.093 2.093c1.157 0 2.094-.937 2.094-2.093s-.937-2.094-2.094-2.094z"/><path d="m243.699 367.966c-1.157 0-2.094.938-2.094 2.094s.937 2.093 2.094 2.093c1.156 0 2.093-.937 2.093-2.093s-.937-2.094-2.093-2.094z"/></g><path d="m238.824 361.178-8.882 8.882 8.882 8.881" stroke="#f5516c" stroke-width="3"/><path d="m210.838 389.773c1.156 0 2.093-.937 2.093-2.093s-.937-2.093-2.093-2.093c-1.157 0-2.094.937-2.094 2.093s.937 2.093 2.094 2.093z" fill="#0a355c"/><path d="m221.306 389.773c1.157 0 2.094-.937 2.094-2.093s-.937-2.093-2.094-2.093c-1.156 0-2.093.937-2.093 2.093s.937 2.093 2.093 2.093z" fill="#0a355c"/><path d="m189.906 389.773c1.156 0 2.093-.937 2.093-2.093s-.937-2.093-2.093-2.093-2.094.937-2.094 2.093.938 2.093 2.094 2.093z" fill="#0a355c"/><path d="m200.374 389.773c1.156 0 2.093-.937 2.093-2.093s-.937-2.093-2.093-2.093-2.094.937-2.094 2.093.938 2.093 2.094 2.093z" fill="#0a355c"/><path d="m168.718 389.773c1.157 0 2.094-.937 2.094-2.093s-.937-2.093-2.094-2.093c-1.156 0-2.093.937-2.093 2.093s.937 2.093 2.093 2.093z" fill="#0a355c"/><path d="m179.186 389.773c1.156 0 2.094-.937 2.094-2.093s-.938-2.093-2.094-2.093-2.093.937-2.093 2.093.937 2.093 2.093 2.093z" fill="#0a355c"/><path d="m231.773 389.773c1.156 0 2.094-.937 2.094-2.093s-.938-2.093-2.094-2.093-2.093.937-2.093 2.093.937 2.093 2.093 2.093z" fill="#0a355c"/><path d="m242.241 389.773c1.156 0 2.093-.937 2.093-2.093s-.937-2.093-2.093-2.093-2.094.937-2.094 2.093.938 2.093 2.094 2.093z" fill="#0a355c"/><path d="m252.709 389.773c1.156 0 2.093-.937 2.093-2.093s-.937-2.093-2.093-2.093c-1.157 0-2.094.937-2.094 2.093s.937 2.093 2.094 2.093z" fill="#0a355c"/><path d="m263.177 389.773c1.157 0 2.094-.937 2.094-2.093s-.937-2.093-2.094-2.093c-1.156 0-2.093.937-2.093 2.093s.937 2.093 2.093 2.093z" fill="#0a355c"/><path d="m273.641 389.773c1.156 0 2.094-.937 2.094-2.093s-.938-2.093-2.094-2.093-2.093.937-2.093 2.093.937 2.093 2.093 2.093z" fill="#0a355c"/><path d="m284.109 389.773c1.156 0 2.094-.937 2.094-2.093s-.938-2.093-2.094-2.093-2.093.937-2.093 2.093.937 2.093 2.093 2.093z" fill="#0a355c"/><path d="m288.984 396.562 8.881-8.882-8.881-8.882" stroke="#0a355c" stroke-width="3"/><path d="m260.716 97.3992-68.337.0003" stroke="#0a355c" stroke-width="3"/><path d="m262.371 106.281 8.882-8.8816-8.882-8.8818" stroke="#0a355c" stroke-width="3"/><path d="m476.188 203.403-.357-61.251" stroke="#9aa5b8" stroke-width="3"/><path d="m467.306 205.062 8.882 8.882 8.881-8.882" stroke="#9aa5b8" stroke-width="3"/><path d="m405.791 106.281 8.882-8.8816-8.882-8.8818" stroke="#9aa5b8" stroke-width="3"/><rect height="70.4396" rx="13.5" stroke="#0a355c" stroke-width="3" width="107.299" x="288.11" y="62.1797"/><rect height="70.4396" rx="13.5" stroke="#9aa5b8" stroke-width="3" width="107.299" x="422.537" y="62.1797"/><rect height="181.459" rx="23" stroke="#f5516c" stroke-width="4" width="156.481" x="372.855" y="227.221"/><rect fill="#f5516c" height="7.30933" rx="2" width="60.9874" x="434.263" y="369.678"/><rect fill="#f5516c" height="7.30933" rx="2" width="60.9874" x="434.263" y="358.886"/><rect fill="#f5516c" height="7.30933" rx="2" width="60.9874" x="434.263" y="348.093"/><rect fill="#f5516c" height="7.30933" rx="2" width="60.9874" x="434.263" y="337.3"/><rect fill="#f5516c" height="7.30933" rx="2" width="60.9874" x="434.263" y="326.508"/><rect fill="#f5516c" height="7.30933" rx="2" width="60.9874" x="434.263" y="315.715"/><rect fill="#f5516c" height="7.30933" rx="2" width="60.9874" x="434.263" y="304.923"/><rect fill="#f5516c" height="7.30933" rx="2" width="60.9874" x="434.263" y="294.13"/><rect fill="#f5516c" height="7.30933" rx="2" width="60.9874" x="434.263" y="283.338"/><path d="m468.191 359.226c-10.769 18.679-34.856 25.024-53.56 14.25-18.688-10.765-25.035-34.84-14.257-53.535 10.769-18.678 34.854-25.023 53.558-14.251 18.534 10.769 25.032 34.849 14.259 53.536z" fill="#f5516c" stroke="#f5f5f5" stroke-width="3"/><path d="m434.536 312.548v22.786c-1.267-1.266-2.352-2.351-3.799-3.798-.181-2.17-.543-8.318-.543-8.318l3.618-10.851c-2.171 0-4.342.362-6.332.904l-1.809 5.245-5.066-2.532c-1.809 1.085-3.618 2.351-5.247 3.978l9.046 4.521.362 5.426-5.427-.362-4.523-9.042c-1.448 1.628-2.895 3.255-3.981 5.244l2.533 5.064-5.427 1.808c-.543 1.989-.905 4.16-.905 6.51l10.855-3.436 8.684.362 3.619 3.617-3.619 3.617-8.684.361-10.855-3.436c0 2.171.362 4.341.905 6.511l5.246 1.808-2.532 4.883c1.085 1.808 2.351 3.616 3.98 5.063l4.523-9.042 5.427-.361-.362 5.425-9.046 4.521c1.629 1.446 3.257 2.893 5.247 3.978l4.885-2.351 1.809 5.245c1.99.542 4.161.904 6.332.904l-3.437-10.67s.362-6.148.543-8.318c1.266-1.266 2.352-2.351 3.799-3.798v22.786c15.016 0 27.138-12.116 27.138-27.126.181-15.01-11.941-27.126-26.957-27.126zm6.151 47.38c0-13.563 0-26.945 0-40.508 6.513 1.447 14.835 8.68 15.197 19.531.362 11.935-8.684 19.53-15.197 20.977z" fill="#f5f5f5"/><path d="m397.991 256.215h2.461l3.624 10.358 3.624-10.358h2.461l-5.097 14.108h-1.977zm-1.328 0h2.452l.445 10.096v4.012h-2.897zm12.374 0h2.461v14.108h-2.907v-4.012z" fill="#0a355c"/><path d="m419.332 267.959v-4.671c0-.336-.055-.623-.165-.862-.109-.246-.281-.436-.513-.572-.226-.135-.52-.203-.882-.203-.31 0-.578.055-.804.164-.226.104-.401.256-.523.456-.123.194-.184.423-.184.688h-2.791c0-.446.103-.869.31-1.27.207-.4.507-.752.901-1.056.394-.31.863-.552 1.405-.726.549-.175 1.163-.262 1.841-.262.814 0 1.538.136 2.171.407s1.13.678 1.492 1.221c.368.542.552 1.221.552 2.035v4.486c0 .575.036 1.046.107 1.415.071.361.174.678.31.949v.165h-2.82c-.135-.284-.239-.64-.31-1.066-.064-.433-.097-.866-.097-1.298zm.368-4.022.02 1.58h-1.56c-.368 0-.688.042-.96.126-.271.084-.494.203-.668.358-.175.149-.304.323-.388.524-.077.2-.116.419-.116.658s.055.456.165.65c.11.187.268.336.475.445.206.104.449.155.726.155.42 0 .785-.084 1.095-.251.31-.168.549-.375.717-.621.175-.245.265-.478.272-.697l.736 1.182c-.103.265-.246.539-.426.823-.175.285-.398.553-.669.805-.271.245-.597.449-.979.61-.381.155-.833.233-1.356.233-.666 0-1.27-.133-1.812-.398-.536-.271-.963-.642-1.279-1.114-.31-.478-.465-1.021-.465-1.628 0-.549.103-1.037.31-1.463s.51-.785.911-1.075c.407-.298.914-.52 1.521-.669.607-.155 1.311-.233 2.112-.233z" fill="#0a355c"/><path d="m429.763 267.426c0-.201-.058-.381-.174-.543-.116-.161-.333-.31-.649-.446-.31-.142-.759-.271-1.347-.387-.53-.116-1.024-.262-1.483-.436-.452-.181-.846-.398-1.182-.649-.329-.252-.588-.55-.775-.892-.187-.349-.281-.746-.281-1.192 0-.439.094-.852.281-1.24.194-.388.468-.73.824-1.027.361-.304.801-.539 1.317-.707.524-.175 1.111-.262 1.764-.262.911 0 1.692.145 2.345.436.659.291 1.163.691 1.511 1.201.356.504.533 1.079.533 1.725h-2.79c0-.271-.058-.513-.175-.726-.11-.22-.284-.391-.523-.514-.232-.129-.536-.194-.911-.194-.31 0-.578.055-.804.165-.226.103-.401.245-.523.426-.117.175-.175.368-.175.582 0 .161.033.306.097.436.071.122.184.235.339.339.155.103.356.2.601.29.252.084.562.162.93.233.756.155 1.431.359 2.025.61.595.246 1.066.582 1.415 1.008.349.42.523.972.523 1.657 0 .465-.103.892-.31 1.279-.206.388-.504.727-.891 1.018-.388.284-.853.507-1.395.668-.537.155-1.141.233-1.812.233-.976 0-1.803-.175-2.481-.524-.672-.348-1.182-.791-1.531-1.327-.342-.543-.513-1.098-.513-1.667h2.645c.013.382.11.688.291.921.187.232.423.4.707.504.291.103.604.155.94.155.362 0 .662-.049.901-.146.239-.103.42-.239.543-.407.129-.174.193-.374.193-.6z" fill="#0a355c"/><path d="m439.225 259.839v1.976h-6.104v-1.976zm-4.592-2.587h2.79v9.912c0 .304.039.536.116.698.084.161.207.274.369.339.161.058.365.087.61.087.175 0 .33-.006.465-.019.142-.02.262-.039.359-.058l.009 2.054c-.239.077-.497.139-.775.184s-.584.068-.92.068c-.614 0-1.15-.1-1.609-.301-.452-.206-.801-.536-1.046-.988-.246-.452-.368-1.046-.368-1.783z" fill="#0a355c"/><path d="m445.442 270.517c-.814 0-1.544-.129-2.19-.388-.646-.265-1.195-.63-1.648-1.095-.445-.465-.788-1.004-1.027-1.618-.239-.62-.358-1.279-.358-1.977v-.387c0-.795.113-1.522.339-2.18.226-.659.549-1.231.969-1.715.426-.485.943-.856 1.55-1.115.607-.265 1.292-.397 2.054-.397.743 0 1.402.123 1.977.368.575.246 1.056.594 1.444 1.047.394.452.691.994.891 1.627.201.627.301 1.325.301 2.093v1.163h-8.333v-1.86h5.591v-.213c0-.388-.071-.734-.214-1.037-.135-.31-.342-.556-.62-.737-.278-.18-.633-.271-1.066-.271-.368 0-.684.081-.949.242-.265.162-.481.388-.649.679-.162.29-.285.633-.369 1.027-.077.387-.116.814-.116 1.279v.387c0 .42.058.808.175 1.163.122.355.293.662.513.921.226.258.497.458.814.6.323.142.688.214 1.095.214.504 0 .972-.097 1.405-.291.439-.2.817-.501 1.134-.901l1.356 1.473c-.219.316-.52.62-.901.91-.375.291-.827.53-1.356.717-.53.181-1.134.272-1.812.272z" fill="#0a355c"/><path d="m453.925 262.125v8.198h-2.791v-10.484h2.626zm3.159-2.354-.049 2.587c-.135-.019-.3-.035-.494-.048-.187-.02-.358-.029-.513-.029-.394 0-.737.051-1.027.155-.285.096-.524.242-.717.436-.188.193-.33.429-.427.707-.09.278-.142.594-.155.95l-.562-.175c0-.678.068-1.302.204-1.87.135-.575.332-1.076.591-1.502.265-.426.588-.756.969-.988.381-.233.817-.349 1.308-.349.155 0 .313.013.475.039.161.019.293.048.397.087z" fill="#0a355c"/><path d="m474.603 256.215v14.108h-2.907l-5.668-9.457v9.457h-2.907v-14.108h2.907l5.678 9.467v-9.467z" fill="#0a355c"/><path d="m476.314 265.187v-.203c0-.769.109-1.476.329-2.122.22-.653.539-1.218.959-1.696s.937-.849 1.551-1.114c.613-.271 1.317-.407 2.112-.407.794 0 1.502.136 2.122.407.62.265 1.14.636 1.56 1.114.426.478.749 1.043.969 1.696.22.646.329 1.353.329 2.122v.203c0 .763-.109 1.47-.329 2.122-.22.646-.543 1.212-.969 1.696-.42.478-.937.85-1.55 1.114-.614.265-1.318.398-2.113.398-.794 0-1.502-.133-2.122-.398-.613-.264-1.133-.636-1.56-1.114-.42-.484-.739-1.05-.959-1.696-.22-.652-.329-1.359-.329-2.122zm2.79-.203v.203c0 .44.039.85.116 1.231.078.381.201.717.369 1.008.174.284.4.507.678.668.278.162.617.243 1.017.243.388 0 .721-.081.998-.243.278-.161.501-.384.669-.668.168-.291.291-.627.368-1.008.084-.381.126-.791.126-1.231v-.203c0-.426-.042-.827-.126-1.202-.077-.381-.203-.717-.378-1.007-.168-.297-.391-.53-.668-.698-.278-.168-.614-.252-1.008-.252s-.73.084-1.008.252c-.271.168-.494.401-.668.698-.168.29-.291.626-.369 1.007-.077.375-.116.776-.116 1.202z" fill="#0a355c"/><path d="m493.954 268.036v-12.596h2.81v14.883h-2.529zm-6.628-2.829v-.204c0-.801.09-1.527.271-2.18.181-.659.446-1.224.795-1.696.349-.471.778-.836 1.289-1.094.51-.259 1.091-.388 1.744-.388.613 0 1.15.129 1.608.388.465.258.859.626 1.182 1.104.33.472.595 1.03.795 1.676.2.64.345 1.341.436 2.103v.446c-.091.73-.236 1.408-.436 2.035-.2.626-.465 1.175-.795 1.647-.323.465-.717.827-1.182 1.085-.465.259-1.008.388-1.628.388-.652 0-1.233-.133-1.744-.398-.504-.264-.93-.636-1.279-1.114-.342-.478-.604-1.04-.785-1.686s-.271-1.35-.271-2.112zm2.791-.204v.204c0 .433.032.836.097 1.211.071.375.184.707.339.998.161.284.368.507.62.669.258.155.571.232.94.232.478 0 .872-.106 1.182-.32.31-.219.546-.52.707-.901.168-.381.265-.82.291-1.318v-1.269c-.02-.407-.078-.772-.175-1.095-.09-.329-.226-.61-.407-.843-.174-.232-.394-.413-.658-.542-.259-.13-.566-.194-.921-.194-.362 0-.672.084-.93.252-.259.161-.468.384-.63.668-.155.285-.271.62-.349 1.008-.071.381-.106.795-.106 1.24z" fill="#0a355c"/><path d="m503.571 270.517c-.814 0-1.544-.129-2.19-.388-.646-.265-1.195-.63-1.647-1.095-.446-.465-.788-1.004-1.027-1.618-.239-.62-.359-1.279-.359-1.977v-.387c0-.795.113-1.522.339-2.18.226-.659.549-1.231.969-1.715.427-.485.943-.856 1.551-1.115.607-.265 1.292-.397 2.054-.397.743 0 1.402.123 1.977.368.574.246 1.056.594 1.443 1.047.394.452.691.994.892 1.627.2.627.3 1.325.3 2.093v1.163h-8.333v-1.86h5.591v-.213c0-.388-.071-.734-.213-1.037-.136-.31-.343-.556-.62-.737-.278-.18-.633-.271-1.066-.271-.368 0-.685.081-.95.242-.265.162-.481.388-.649.679-.162.29-.284.633-.368 1.027-.078.387-.117.814-.117 1.279v.387c0 .42.059.808.175 1.163.123.355.294.662.513.921.227.258.498.458.814.6.323.142.688.214 1.095.214.504 0 .972-.097 1.405-.291.44-.2.817-.501 1.134-.901l1.357 1.473c-.22.316-.52.62-.902.91-.374.291-.826.53-1.356.717-.53.181-1.134.272-1.812.272z" fill="#0a355c"/><path d="m127.861 267.886h-5.581v27.282h5.581z" fill="#f5516c"/><path d="m138.086 267.886h-5.58v27.282h5.58z" fill="#f5516c"/><path d="m117.553 267.886h-5.58v27.282h5.58z" fill="#f5516c"/><path d="m158.621 267.886h-5.58v27.282h5.58z" fill="#f5516c"/><path d="m148.323 267.886h-5.58v27.282h5.58z" fill="#f5516c"/><path clip-rule="evenodd" d="m104.671 262.61 30.612-12.777 30.534 12.777h.005v3.523h-61.151z" fill="#f5516c" fill-rule="evenodd"/><path d="m164.736 297.091h-58.903v4.509h58.903z" fill="#f5516c"/><g fill="#0a355c"><path d="m74.2783 237.593h-3.1513l-.0168-1.735h2.6457c.4662 0 .8482-.059 1.1459-.177.2977-.124.5196-.301.6656-.531.1517-.236.2275-.523.2275-.86 0-.382-.073-.69-.2191-.926-.1404-.236-.3623-.408-.6656-.514-.2977-.107-.6825-.16-1.1543-.16h-1.7526v10.287h-2.5277v-12.268h4.2803c.7134 0 1.3509.068 1.9126.203.5674.135 1.0476.34 1.4408.615s.6938.623.9016 1.045c.2078.415.3118.91.3118 1.483 0 .505-.1152.971-.3455 1.398-.2247.427-.5814.775-1.0701 1.045-.4831.27-1.115.418-1.8958.447zm-.1096 5.384h-3.7326l.9858-1.971h2.7468c.4438 0 .8061-.07 1.087-.211.2808-.146.4887-.343.6235-.59s.2022-.53.2022-.851c0-.359-.0618-.671-.1854-.935-.1179-.264-.3089-.466-.5729-.607-.264-.146-.6123-.219-1.0448-.219h-2.4351l.0169-1.735h3.0333l.5813.682c.7471-.011 1.3482.121 1.8032.396.4606.27.7948.621 1.0026 1.053.2135.433.3202.896.3202 1.391 0 .786-.1713 1.449-.514 1.988-.3426.534-.8454.935-1.5082 1.205-.6572.27-1.4605.404-2.4098.404z"/><path d="m85.4846 232.807-3.3366 10.17h-2.6879l4.5584-12.268h1.7104zm2.772 10.17-3.345-10.17-.2696-2.098h1.7273l4.5836 12.268zm-.1516-4.566v1.98h-6.4794v-1.98z"/><path d="m102.075 230.709v12.268h-2.5278l-4.9291-8.223v8.223h-2.5277v-12.268h2.5277l4.9375 8.232v-8.232z"/><path d="m106.802 230.709v12.268h-2.528v-12.268zm7.347 0-4.862 6.059-2.805 3.016-.455-2.393 1.895-2.595 3.126-4.087zm-2.873 12.268-3.615-5.67 1.871-1.567 4.735 7.237z"/><path d="m124.53 232.807-3.337 10.17h-2.688l4.559-12.268h1.71zm2.772 10.17-3.345-10.17-.27-2.098h1.727l4.584 12.268zm-.152-4.566v1.98h-6.479v-1.98z"/><path d="m138.095 238.908h2.519c-.05.825-.278 1.559-.682 2.199-.399.64-.958 1.14-1.677 1.5-.713.359-1.573.539-2.578.539-.786 0-1.491-.135-2.115-.405-.623-.275-1.157-.668-1.601-1.179-.438-.511-.772-1.129-1.003-1.854-.23-.724-.345-1.536-.345-2.435v-.851c0-.899.118-1.71.354-2.435.241-.73.584-1.351 1.028-1.862.449-.511.986-.904 1.609-1.18.624-.275 1.32-.412 2.09-.412 1.022 0 1.884.185 2.586.556.708.37 1.256.882 1.644 1.533.393.652.629 1.393.707 2.225h-2.527c-.029-.495-.127-.913-.295-1.256-.169-.348-.424-.609-.767-.784-.337-.179-.786-.269-1.348-.269-.422 0-.789.079-1.104.236s-.579.396-.792.716-.374.725-.48 1.213c-.101.483-.152 1.051-.152 1.702v.868c0 .635.048 1.194.143 1.677.096.477.242.882.438 1.213.203.326.461.573.776.742.32.163.705.244 1.154.244.528 0 .963-.084 1.306-.253.343-.168.604-.418.784-.75.185-.331.294-.744.328-1.238z"/><path d="m149.386 238.908h2.519c-.051.825-.278 1.559-.683 2.199-.398.64-.957 1.14-1.676 1.5-.714.359-1.573.539-2.579.539-.786 0-1.491-.135-2.114-.405-.624-.275-1.158-.668-1.601-1.179-.438-.511-.773-1.129-1.003-1.854-.23-.724-.345-1.536-.345-2.435v-.851c0-.899.118-1.71.353-2.435.242-.73.585-1.351 1.028-1.862.45-.511.986-.904 1.61-1.18.623-.275 1.32-.412 2.089-.412 1.023 0 1.885.185 2.587.556.708.37 1.255.882 1.643 1.533.393.652.629 1.393.708 2.225h-2.528c-.028-.495-.126-.913-.295-1.256-.168-.348-.424-.609-.767-.784-.337-.179-.786-.269-1.348-.269-.421 0-.789.079-1.103.236-.315.157-.579.396-.792.716-.214.32-.374.725-.481 1.213-.101.483-.151 1.051-.151 1.702v.868c0 .635.047 1.194.143 1.677.095.477.241.882.438 1.213.202.326.461.573.775.742.32.163.705.244 1.154.244.528 0 .964-.084 1.306-.253.343-.168.604-.418.784-.75.185-.331.295-.744.329-1.238z"/><path d="m163.642 236.557v.581c0 .933-.126 1.77-.379 2.511-.253.742-.61 1.374-1.07 1.896-.461.517-1.011.913-1.652 1.188-.634.275-1.339.413-2.114.413-.77 0-1.475-.138-2.115-.413-.635-.275-1.186-.671-1.652-1.188-.466-.522-.828-1.154-1.087-1.896-.252-.741-.379-1.578-.379-2.511v-.581c0-.938.127-1.775.379-2.511.253-.741.61-1.373 1.07-1.896.467-.522 1.017-.921 1.652-1.196.64-.275 1.345-.413 2.115-.413.775 0 1.48.138 2.115.413.64.275 1.19.674 1.651 1.196.466.523.826 1.155 1.079 1.896.258.736.387 1.573.387 2.511zm-2.553.581v-.598c0-.651-.059-1.224-.177-1.719-.118-.494-.292-.91-.522-1.247-.231-.337-.511-.59-.843-.758-.331-.174-.71-.261-1.137-.261s-.806.087-1.138.261c-.326.168-.604.421-.834.758-.225.337-.396.753-.514 1.247-.118.495-.177 1.068-.177 1.719v.598c0 .646.059 1.219.177 1.719.118.495.292.913.522 1.256.231.337.512.592.843.766.331.175.711.262 1.138.262.426 0 .806-.087 1.137-.262.331-.174.609-.429.834-.766.225-.343.396-.761.514-1.256.118-.5.177-1.073.177-1.719z"/><path d="m172.236 230.709h2.52v8.106c0 .944-.203 1.739-.607 2.385-.399.646-.952 1.131-1.66 1.457-.702.326-1.511.489-2.426.489-.916 0-1.731-.163-2.444-.489-.708-.326-1.264-.811-1.668-1.457-.399-.646-.598-1.441-.598-2.385v-8.106h2.527v8.106c0 .551.087 1 .261 1.348.175.348.425.604.75.767.332.163.722.244 1.172.244.46 0 .851-.081 1.171-.244.326-.163.573-.419.741-.767.174-.348.261-.797.261-1.348z"/><path d="m186.821 230.709v12.268h-2.527l-4.929-8.223v8.223h-2.528v-12.268h2.528l4.937 8.232v-8.232z"/><path d="m194.253 230.709v12.268h-2.519v-12.268zm3.775 0v1.981h-10.01v-1.981z"/><path d="m311.197 92.2226h-3.071l.019-2.2673h3.052c.763 0 1.405-.1712 1.929-.5136.523-.3488.917-.8559 1.182-1.5213.271-.6653.407-1.4696.407-2.4127v-.688c0-.7235-.078-1.3597-.233-1.9088-.148-.5491-.371-1.011-.668-1.3856-.297-.3747-.662-.6557-1.095-.843-.433-.1938-.93-.2907-1.492-.2907h-3.159v-2.2771h3.159c.943 0 1.805.1615 2.587.4845.788.3165 1.469.7719 2.044 1.3662s1.018 1.3049 1.328 2.1317c.316.8204.474 1.7345.474 2.7422v.6686c0 1.0013-.158 1.9153-.474 2.7422-.31.8268-.753 1.5374-1.328 2.1317-.568.5878-1.25 1.0432-2.044 1.3662-.788.3166-1.661.4748-2.617.4748zm-1.424-14.1081v14.1081h-2.907v-14.1081z"/><path d="m324.424 92.4164c-.814 0-1.544-.1292-2.19-.3876-.646-.2648-1.195-.6298-1.647-1.0949-.446-.4651-.788-1.0045-1.027-1.6182-.239-.6201-.359-1.279-.359-1.9767v-.3875c0-.7946.113-1.5213.339-2.1802s.549-1.2306.969-1.7151c.427-.4845.943-.8559 1.551-1.1143.607-.2648 1.291-.3973 2.054-.3973.743 0 1.402.1228 1.976.3682.575.2455 1.057.5943 1.444 1.0465.394.4522.691.9948.892 1.6279.2.6266.3 1.3242.3 2.093v1.1627h-8.333v-1.8604h5.591v-.2132c0-.3876-.071-.7332-.213-1.0368-.136-.31-.343-.5555-.62-.7364-.278-.1809-.634-.2713-1.066-.2713-.369 0-.685.0808-.95.2422-.265.1615-.481.3876-.649.6783-.162.2907-.284.6331-.368 1.0271-.078.3876-.117.814-.117 1.2791v.3875c0 .4199.059.8075.175 1.1628.123.3553.294.6621.513.9205.226.2584.498.4587.814.6008.323.1421.688.2132 1.095.2132.504 0 .972-.0969 1.405-.2907.439-.2003.817-.5007 1.134-.9012l1.356 1.4729c-.219.3165-.52.6201-.901.9108-.374.2907-.827.5297-1.356.717-.53.1809-1.134.2713-1.812.2713z"/><path d="m333.106 83.7539v12.4996h-2.791v-14.5151h2.587zm6.637 3.1104v.2034c0 .7623-.09 1.4696-.271 2.1221-.175.6524-.433 1.2209-.775 1.7053-.343.4781-.769.8527-1.279 1.124-.504.2649-1.086.3973-1.745.3973-.639 0-1.195-.1292-1.666-.3876-.472-.2584-.869-.6201-1.192-1.0852-.316-.4716-.572-1.0174-.765-1.6376-.194-.6201-.343-1.2854-.446-1.996v-.533c.103-.7622.252-1.4599.446-2.0929.193-.6395.449-1.1918.765-1.6569.323-.4716.717-.8366 1.182-1.095.472-.2584 1.024-.3876 1.657-.3876.665 0 1.25.126 1.754.3779.51.252.937.6137 1.279 1.0853.349.4715.61 1.0335.785 1.686.181.6524.271 1.3759.271 2.1705zm-2.8.2034v-.2034c0-.4458-.039-.856-.116-1.2306-.071-.3812-.188-.7138-.349-.9981-.155-.2842-.362-.5038-.62-.6589-.252-.1615-.559-.2422-.921-.2422-.381 0-.707.0614-.979.1841-.264.1227-.481.3004-.649.5329-.168.2326-.294.5104-.378.8333-.084.323-.135.688-.155 1.095v1.3468c.033.4781.123.9076.272 1.2888.148.3746.377.6718.688.8914.31.2196.717.3295 1.22.3295.369 0 .679-.0808.931-.2423.252-.1679.455-.3973.61-.688.162-.2906.275-.6266.339-1.0077.071-.3811.107-.7913.107-1.2306z"/><path d="m341.032 87.0871v-.2035c0-.7687.11-1.476.329-2.122.22-.6524.54-1.2177.96-1.6957.419-.478.936-.8494 1.55-1.1143.614-.2713 1.318-.407 2.112-.407.795 0 1.502.1357 2.122.407.62.2649 1.14.6363 1.56 1.1143.427.478.75 1.0433.969 1.6957.22.646.33 1.3533.33 2.122v.2035c0 .7623-.11 1.4696-.33 2.122-.219.646-.542 1.2113-.969 1.6957-.42.4781-.936.8495-1.55 1.1143-.614.2649-1.318.3973-2.112.3973-.795 0-1.502-.1324-2.122-.3973-.614-.2648-1.134-.6362-1.56-1.1143-.42-.4844-.74-1.0497-.96-1.6957-.219-.6524-.329-1.3597-.329-2.122zm2.79-.2035v.2035c0 .4393.039.8495.117 1.2306.077.3811.2.717.368 1.0077.174.2843.4.5071.678.6686s.617.2423 1.018.2423c.387 0 .72-.0808.998-.2423.277-.1615.5-.3843.668-.6686.168-.2907.291-.6266.368-1.0077.084-.3811.126-.7913.126-1.2306v-.2035c0-.4263-.042-.8268-.126-1.2015-.077-.3811-.203-.717-.377-1.0077-.168-.2972-.391-.5297-.669-.6977-.278-.1679-.614-.2519-1.008-.2519s-.73.084-1.007.2519c-.272.168-.495.4005-.669.6977-.168.2907-.291.6266-.368 1.0077-.078.3747-.117.7752-.117 1.2015z"/><path d="m358.347 89.3254c0-.2002-.058-.3811-.174-.5426s-.333-.3101-.649-.4457c-.31-.1421-.759-.2713-1.347-.3876-.53-.1163-1.024-.2616-1.483-.436-.452-.1809-.846-.3973-1.182-.6492-.329-.252-.588-.5491-.775-.8915-.187-.3488-.281-.7461-.281-1.1918 0-.4393.094-.8527.281-1.2403.194-.3876.468-.7299.824-1.0271.361-.3036.801-.5394 1.317-.7073.524-.1745 1.111-.2617 1.764-.2617.911 0 1.692.1454 2.345.4361.659.2907 1.163.6912 1.511 1.2015.356.5039.533 1.0788.533 1.7247h-2.79c0-.2713-.058-.5135-.175-.7267-.11-.2196-.284-.3908-.523-.5135-.233-.1292-.536-.1938-.911-.1938-.31 0-.578.0549-.804.1647-.226.1034-.401.2455-.523.4263-.117.1745-.175.3683-.175.5814 0 .1615.033.3069.097.4361.071.1227.184.2357.339.3391s.356.2002.601.2907c.252.084.562.1615.93.2325.756.1551 1.431.3586 2.025.6105.595.2455 1.066.5814 1.415 1.0077.349.4199.523.9722.523 1.6569 0 .4651-.103.8915-.31 1.2791-.206.3876-.504.7267-.891 1.0174-.388.2842-.853.5071-1.395.6686-.537.155-1.141.2325-1.812.2325-.976 0-1.803-.1744-2.481-.5232-.672-.3488-1.182-.7913-1.531-1.3275-.342-.5426-.513-1.0982-.513-1.6666h2.645c.013.3811.11.6879.29.9205.188.2325.424.4005.708.5039.291.1033.604.155.94.155.361 0 .662-.0485.901-.1454.239-.1033.42-.239.542-.4069.13-.1744.194-.3747.194-.6008z"/><path d="m365.818 81.7384v10.4842h-2.8v-10.4842zm-2.975-2.7324c0-.407.142-.7429.427-1.0078.284-.2648.665-.3972 1.143-.3972.472 0 .849.1324 1.134.3972.29.2649.436.6008.436 1.0078 0 .4069-.146.7428-.436 1.0077-.285.2648-.662.3972-1.134.3972-.478 0-.859-.1324-1.143-.3972-.285-.2649-.427-.6008-.427-1.0077z"/><path d="m373.26 81.7384v1.9767h-6.105v-1.9767zm-4.593-2.5871h2.79v9.9125c0 .3036.039.5362.117.6977.084.1615.206.2745.368.3391.161.0581.365.0872.61.0872.175 0 .33-.0065.465-.0194.143-.0194.262-.0387.359-.0581l.01 2.0542c-.239.0775-.498.1389-.776.1841-.277.0452-.584.0678-.92.0678-.614 0-1.15-.1001-1.609-.3004-.452-.2067-.801-.5361-1.046-.9883-.246-.4522-.368-1.0465-.368-1.7829z"/><path d="m310.849 113.154v-4.67c0-.336-.055-.624-.165-.863-.11-.245-.281-.436-.514-.572-.226-.135-.52-.203-.881-.203-.31 0-.579.055-.805.165-.226.103-.4.255-.523.455-.123.194-.184.423-.184.688h-2.791c0-.446.104-.869.31-1.269.207-.401.508-.753.902-1.056.394-.31.862-.553 1.405-.727.549-.175 1.162-.262 1.841-.262.814 0 1.537.136 2.17.407.633.272 1.131.678 1.492 1.221.369.543.553 1.221.553 2.035v4.486c0 .575.035 1.047.106 1.415.071.362.175.678.31.949v.165h-2.819c-.136-.284-.239-.639-.31-1.066-.065-.432-.097-.865-.097-1.298zm.368-4.021.019 1.579h-1.56c-.368 0-.688.042-.959.126s-.494.204-.669.359c-.174.148-.303.323-.387.523-.078.2-.117.42-.117.659s.055.455.165.649c.11.187.268.336.475.446.207.103.449.155.727.155.42 0 .785-.084 1.095-.252s.549-.375.717-.62c.174-.246.265-.478.271-.698l.736 1.182c-.103.265-.245.54-.426.824-.174.284-.397.552-.669.804-.271.245-.597.449-.978.61-.381.155-.834.233-1.357.233-.665 0-1.269-.132-1.812-.397-.536-.272-.962-.643-1.279-1.115-.31-.478-.465-1.02-.465-1.627 0-.55.103-1.037.31-1.464.207-.426.511-.784.911-1.075.407-.297.914-.52 1.521-.669.608-.155 1.312-.232 2.113-.232z"/><path d="m322.001 113.231v-12.596h2.81v14.883h-2.529zm-6.627-2.829v-.203c0-.801.09-1.528.271-2.181.181-.658.446-1.224.795-1.695.348-.472.778-.837 1.288-1.095.511-.259 1.092-.388 1.744-.388.614 0 1.15.129 1.609.388.465.258.859.626 1.182 1.104.329.472.594 1.031.795 1.677.2.639.345 1.34.436 2.102v.446c-.091.73-.236 1.408-.436 2.035-.201.627-.466 1.176-.795 1.647-.323.465-.717.827-1.182 1.085-.465.259-1.008.388-1.628.388-.652 0-1.234-.132-1.744-.397-.504-.265-.93-.637-1.279-1.115-.343-.478-.604-1.04-.785-1.686s-.271-1.35-.271-2.112zm2.79-.203v.203c0 .433.033.837.097 1.211.071.375.184.708.339.998.162.285.369.507.62.669.259.155.572.232.94.232.478 0 .872-.106 1.183-.319.31-.22.545-.52.707-.901.168-.382.265-.821.291-1.318v-1.27c-.02-.407-.078-.772-.175-1.094-.09-.33-.226-.611-.407-.843-.174-.233-.394-.414-.659-.543-.258-.129-.565-.194-.92-.194-.362 0-.672.084-.93.252-.259.162-.469.384-.63.669-.155.284-.272.62-.349 1.007-.071.381-.107.795-.107 1.241z"/><path d="m333.183 113.231v-12.596h2.81v14.883h-2.529zm-6.627-2.829v-.203c0-.801.09-1.528.271-2.181.181-.658.446-1.224.794-1.695.349-.472.779-.837 1.289-1.095.51-.259 1.092-.388 1.744-.388.614 0 1.15.129 1.609.388.465.258.859.626 1.182 1.104.329.472.594 1.031.794 1.677.201.639.346 1.34.436 2.102v.446c-.09.73-.235 1.408-.436 2.035-.2.627-.465 1.176-.794 1.647-.323.465-.717.827-1.182 1.085-.465.259-1.008.388-1.628.388-.653 0-1.234-.132-1.744-.397-.504-.265-.93-.637-1.279-1.115-.343-.478-.604-1.04-.785-1.686s-.271-1.35-.271-2.112zm2.79-.203v.203c0 .433.032.837.097 1.211.071.375.184.708.339.998.162.285.368.507.62.669.259.155.572.232.94.232.478 0 .872-.106 1.182-.319.31-.22.546-.52.708-.901.168-.382.265-.821.29-1.318v-1.27c-.019-.407-.077-.772-.174-1.094-.09-.33-.226-.611-.407-.843-.174-.233-.394-.414-.659-.543-.258-.129-.565-.194-.92-.194-.362 0-.672.084-.931.252-.258.162-.468.384-.629.669-.155.284-.272.62-.349 1.007-.071.381-.107.795-.107 1.241z"/><path d="m340.964 107.321v8.197h-2.791v-10.484h2.626zm3.159-2.355-.049 2.587c-.135-.019-.3-.035-.494-.048-.187-.019-.358-.029-.513-.029-.394 0-.737.051-1.027.155-.285.097-.524.242-.717.436-.188.194-.33.429-.427.707-.09.278-.142.595-.155.95l-.562-.175c0-.678.068-1.301.204-1.87.135-.575.332-1.075.591-1.502.265-.426.588-.755.969-.988.381-.232.817-.349 1.308-.349.155 0 .313.013.475.039.161.019.294.048.397.087z"/><path d="m350.072 115.712c-.814 0-1.544-.129-2.19-.388-.646-.264-1.195-.629-1.647-1.094-.446-.466-.788-1.005-1.027-1.619-.239-.62-.358-1.279-.358-1.976v-.388c0-.794.113-1.521.339-2.18s.549-1.231.969-1.715c.426-.485.943-.856 1.55-1.114.607-.265 1.292-.398 2.054-.398.743 0 1.402.123 1.977.368.575.246 1.056.595 1.444 1.047.394.452.691.995.891 1.628.2.626.301 1.324.301 2.093v1.163h-8.334v-1.861h5.591v-.213c0-.388-.071-.733-.213-1.037-.135-.31-.342-.555-.62-.736s-.633-.272-1.066-.272c-.368 0-.685.081-.949.243-.265.161-.482.387-.65.678-.161.291-.284.633-.368 1.027-.077.388-.116.814-.116 1.279v.388c0 .42.058.807.174 1.162.123.356.294.663.514.921.226.258.497.459.814.601.323.142.688.213 1.095.213.504 0 .972-.097 1.405-.291.439-.2.817-.5 1.133-.901l1.357 1.473c-.22.316-.52.62-.901.911-.375.29-.827.529-1.357.717-.529.181-1.133.271-1.812.271z"/><path d="m361.632 112.621c0-.2-.058-.381-.174-.543-.117-.161-.333-.31-.65-.445-.31-.142-.759-.272-1.346-.388-.53-.116-1.024-.262-1.483-.436-.452-.181-.846-.397-1.182-.649-.33-.252-.588-.549-.775-.892-.188-.348-.281-.746-.281-1.191 0-.44.093-.853.281-1.241.194-.387.468-.73.823-1.027.362-.303.801-.539 1.318-.707.523-.175 1.111-.262 1.764-.262.911 0 1.692.146 2.345.436.658.291 1.162.691 1.511 1.202.355.504.533 1.079.533 1.725h-2.791c0-.272-.058-.514-.174-.727-.11-.22-.284-.391-.523-.514-.233-.129-.536-.194-.911-.194-.31 0-.578.055-.804.165-.226.104-.401.246-.523.427-.117.174-.175.368-.175.581 0 .161.032.307.097.436.071.123.184.236.339.339s.355.2.601.291c.252.084.562.161.93.232.756.155 1.431.359 2.025.611.595.245 1.066.581 1.415 1.008.349.419.523.972.523 1.656 0 .466-.103.892-.31 1.279-.207.388-.504.727-.891 1.018-.388.284-.853.507-1.396.668-.536.155-1.14.233-1.812.233-.975 0-1.802-.174-2.48-.523-.672-.349-1.182-.792-1.531-1.328-.343-.542-.514-1.098-.514-1.666h2.646c.012.381.109.688.29.92.188.233.423.401.708.504.29.103.604.155.94.155.361 0 .662-.048.901-.145.239-.104.42-.239.542-.407.129-.175.194-.375.194-.601z"/><path d="m371.826 112.621c0-.2-.059-.381-.175-.543-.116-.161-.333-.31-.649-.445-.31-.142-.759-.272-1.347-.388-.53-.116-1.024-.262-1.482-.436-.453-.181-.847-.397-1.183-.649-.329-.252-.587-.549-.775-.892-.187-.348-.281-.746-.281-1.191 0-.44.094-.853.281-1.241.194-.387.469-.73.824-1.027.362-.303.801-.539 1.318-.707.523-.175 1.111-.262 1.763-.262.911 0 1.693.146 2.345.436.659.291 1.163.691 1.512 1.202.355.504.533 1.079.533 1.725h-2.791c0-.272-.058-.514-.174-.727-.11-.22-.285-.391-.524-.514-.232-.129-.536-.194-.911-.194-.31 0-.578.055-.804.165-.226.104-.4.246-.523.427-.116.174-.174.368-.174.581 0 .161.032.307.096.436.072.123.185.236.34.339s.355.2.6.291c.252.084.562.161.931.232.755.155 1.43.359 2.025.611.594.245 1.066.581 1.414 1.008.349.419.524.972.524 1.656 0 .466-.104.892-.31 1.279-.207.388-.504.727-.892 1.018-.387.284-.853.507-1.395.668-.536.155-1.14.233-1.812.233-.976 0-1.802-.174-2.481-.523-.671-.349-1.182-.792-1.531-1.328-.342-.542-.513-1.098-.513-1.666h2.645c.013.381.11.688.291.92.187.233.423.401.707.504.291.103.604.155.94.155.362 0 .662-.048.901-.145.239-.104.42-.239.543-.407.129-.175.194-.375.194-.601z"/></g><path d="m462.435 97.5473h-3.594v-2.2674h3.594c.556 0 1.008-.0904 1.357-.2713.349-.1873.604-.4457.765-.7752.162-.3294.243-.7008.243-1.1143 0-.4199-.081-.8107-.243-1.1724-.161-.3618-.416-.6524-.765-.8721-.349-.2196-.801-.3294-1.357-.3294h-2.587v11.8308h-2.907v-14.1079h5.494c1.105 0 2.051.2003 2.84.6008.794.394 1.401.9399 1.821 1.6375.42.6977.63 1.4954.63 2.3934 0 .9108-.21 1.6989-.63 2.3642-.42.6654-1.027 1.1789-1.821 1.5407-.789.3617-1.735.5426-2.84.5426z" fill="#65728a"/><path d="m468.976 97.4407v-.2035c0-.7687.11-1.476.329-2.122.22-.6524.54-1.2177.96-1.6957s.936-.8494 1.55-1.1143c.614-.2713 1.318-.407 2.112-.407.795 0 1.502.1357 2.122.407.621.2649 1.141.6363 1.56 1.1143.427.478.75 1.0433.969 1.6957.22.646.33 1.3533.33 2.122v.2035c0 .7623-.11 1.4696-.33 2.122-.219.6463-.542 1.2113-.969 1.6953-.419.478-.936.85-1.55 1.115s-1.318.397-2.112.397c-.795 0-1.502-.132-2.122-.397-.614-.265-1.134-.637-1.56-1.115-.42-.484-.74-1.049-.96-1.6953-.219-.6524-.329-1.3597-.329-2.122zm2.791-.2035v.2035c0 .4393.038.8495.116 1.2306.077.3811.2.717.368 1.0077.174.2843.401.507.678.669.278.161.617.242 1.018.242.387 0 .72-.081.998-.242.278-.162.5-.3847.668-.669.168-.2907.291-.6266.369-1.0077.084-.3811.126-.7913.126-1.2306v-.2035c0-.4263-.042-.8268-.126-1.2015-.078-.3811-.204-.717-.378-1.0077-.168-.2972-.391-.5297-.669-.6977-.278-.1679-.614-.2519-1.008-.2519s-.73.084-1.007.2519c-.272.168-.495.4005-.669.6977-.168.2907-.291.6266-.368 1.0077-.078.3747-.116.7752-.116 1.2015z" fill="#65728a"/><path d="m480.177 97.4407v-.2035c0-.7687.11-1.476.33-2.122.219-.6524.539-1.2177.959-1.6957s.937-.8494 1.55-1.1143c.614-.2713 1.318-.407 2.113-.407.794 0 1.501.1357 2.122.407.62.2649 1.14.6363 1.56 1.1143.426.478.749 1.0433.969 1.6957.219.646.329 1.3533.329 2.122v.2035c0 .7623-.11 1.4696-.329 2.122-.22.6463-.543 1.2113-.969 1.6953-.42.478-.937.85-1.551 1.115-.613.265-1.317.397-2.112.397s-1.502-.132-2.122-.397c-.614-.265-1.134-.637-1.56-1.115-.42-.484-.74-1.049-.959-1.6953-.22-.6524-.33-1.3597-.33-2.122zm2.791-.2035v.2035c0 .4393.039.8495.116 1.2306.078.3811.2.717.368 1.0077.175.2843.401.507.679.669.277.161.616.242 1.017.242.388 0 .72-.081.998-.242.278-.162.501-.3847.669-.669.168-.2907.29-.6266.368-1.0077.084-.3811.126-.7913.126-1.2306v-.2035c0-.4263-.042-.8268-.126-1.2015-.078-.3811-.204-.717-.378-1.0077-.168-.2972-.391-.5297-.669-.6977-.277-.1679-.613-.2519-1.007-.2519s-.73.084-1.008.2519c-.271.168-.494.4005-.669.6977-.168.2907-.29.6266-.368 1.0077-.077.3747-.116.7752-.116 1.2015z" fill="#65728a"/><path d="m494.77 87.6929v14.8831h-2.801v-14.8831z" fill="#65728a"/><path d="m93.4118 340.776h2.5193c-.0506.825-.2781 1.558-.6825 2.199-.3988.64-.9577 1.14-1.6767 1.499-.7134.36-1.5728.54-2.5783.54-.7864 0-1.4914-.135-2.1149-.405-.6235-.275-1.1571-.668-1.6009-1.179-.4381-.511-.7724-1.129-1.0027-1.854s-.3454-1.536-.3454-2.435v-.851c0-.899.1179-1.71.3539-2.435.2415-.73.5842-1.351 1.0279-1.862.4494-.511.9858-.905 1.6093-1.18s1.3201-.413 2.0896-.413c1.0224 0 1.8846.186 2.5867.556.7078.371 1.2555.882 1.6431 1.534.3932.652.6291 1.393.7077 2.224h-2.5277c-.0281-.494-.1264-.912-.2949-1.255-.1685-.348-.4241-.61-.7667-.784-.3371-.179-.7864-.269-1.3482-.269-.4213 0-.7892.078-1.1037.236-.3146.157-.5786.396-.7921.716-.2134.32-.3735.724-.4802 1.213-.1011.483-.1517 1.051-.1517 1.702v.868c0 .635.0477 1.194.1432 1.677.0955.477.2416.882.4382 1.213.2022.326.4606.573.7751.741.3202.163.705.245 1.1544.245.528 0 .9633-.084 1.306-.253.3426-.168.6038-.418.7836-.75.1853-.331.2949-.744.3286-1.238z" fill="#0a355c"/><path d="m107.668 338.425v.581c0 .933-.126 1.77-.379 2.511s-.609 1.373-1.07 1.896c-.461.517-1.011.913-1.651 1.188-.635.275-1.34.413-2.115.413-.77 0-1.475-.138-2.115-.413-.635-.275-1.1855-.671-1.6517-1.188-.4662-.523-.8285-1.155-1.0869-1.896-.2528-.741-.3792-1.578-.3792-2.511v-.581c0-.938.1264-1.775.3792-2.511.2528-.742.6095-1.374 1.0701-1.896.4662-.522 1.0167-.921 1.6515-1.196.64-.276 1.345-.413 2.115-.413.775 0 1.48.137 2.115.413.64.275 1.191.674 1.651 1.196.466.522.826 1.154 1.079 1.896.258.736.387 1.573.387 2.511zm-2.553.581v-.598c0-.652-.059-1.225-.177-1.719s-.292-.91-.522-1.247-.511-.59-.843-.758c-.331-.174-.71-.261-1.137-.261s-.806.087-1.138.261c-.325.168-.604.421-.834.758-.225.337-.396.753-.5138 1.247-.118.494-.177 1.067-.177 1.719v.598c0 .646.059 1.219.177 1.719.1178.494.2918.913.5228 1.255.23.337.511.593.842.767.332.174.711.261 1.138.261s.806-.087 1.137-.261c.332-.174.61-.43.834-.767.225-.342.396-.761.514-1.255.118-.5.177-1.073.177-1.719z" fill="#0a355c"/><path d="m110.642 332.577h2.141l3.151 9.007 3.151-9.007h2.14l-4.432 12.268h-1.719zm-1.154 0h2.132l.387 8.78v3.488h-2.519zm10.76 0h2.14v12.268h-2.528v-3.488z" fill="#0a355c"/><path d="m129.381 340.472h-3.126v-1.971h3.126c.484 0 .877-.079 1.18-.236.303-.163.525-.388.666-.674.14-.287.21-.61.21-.969 0-.365-.07-.705-.21-1.02-.141-.314-.363-.567-.666-.758s-.696-.287-1.18-.287h-2.249v10.288h-2.528v-12.268h4.777c.961 0 1.784.174 2.469.523.691.342 1.219.817 1.584 1.424.365.606.548 1.3.548 2.081 0 .792-.183 1.477-.548 2.056-.365.578-.893 1.025-1.584 1.339-.685.315-1.508.472-2.469.472z" fill="#0a355c"/><path d="m145.803 338.425v.581c0 .933-.126 1.77-.379 2.511s-.609 1.373-1.07 1.896c-.461.517-1.011.913-1.651 1.188-.635.275-1.34.413-2.115.413-.77 0-1.475-.138-2.115-.413-.635-.275-1.185-.671-1.652-1.188-.466-.523-.828-1.155-1.087-1.896-.252-.741-.379-1.578-.379-2.511v-.581c0-.938.127-1.775.379-2.511.253-.742.61-1.374 1.071-1.896.466-.522 1.016-.921 1.651-1.196.64-.276 1.345-.413 2.115-.413.775 0 1.48.137 2.115.413.64.275 1.191.674 1.651 1.196.466.522.826 1.154 1.079 1.896.258.736.387 1.573.387 2.511zm-2.553.581v-.598c0-.652-.059-1.225-.177-1.719s-.292-.91-.522-1.247-.511-.59-.843-.758c-.331-.174-.71-.261-1.137-.261s-.806.087-1.138.261c-.325.168-.603.421-.834.758-.224.337-.396.753-.514 1.247s-.177 1.067-.177 1.719v.598c0 .646.059 1.219.177 1.719.118.494.292.913.523 1.255.23.337.511.593.842.767.332.174.711.261 1.138.261s.806-.087 1.137-.261c.332-.174.61-.43.834-.767.225-.342.396-.761.514-1.255.118-.5.177-1.073.177-1.719z" fill="#0a355c"/><path d="m154.398 332.577h2.519v8.106c0 .944-.202 1.738-.607 2.384-.399.646-.952 1.132-1.66 1.458-.702.326-1.511.489-2.426.489-.916 0-1.73-.163-2.444-.489-.708-.326-1.264-.812-1.668-1.458-.399-.646-.598-1.44-.598-2.384v-8.106h2.527v8.106c0 .55.088 1 .262 1.348s.424.604.75.767c.331.163.721.244 1.171.244.46 0 .851-.081 1.171-.244.326-.163.573-.419.741-.767.175-.348.262-.798.262-1.348z" fill="#0a355c"/><path d="m168.983 332.577v12.268h-2.528l-4.929-8.223v8.223h-2.528v-12.268h2.528l4.937 8.232v-8.232z" fill="#0a355c"/><path d="m174.948 344.845h-2.671l.017-1.971h2.654c.663 0 1.222-.149 1.677-.447.455-.303.797-.744 1.028-1.323.236-.578.354-1.278.354-2.098v-.598c0-.629-.068-1.183-.203-1.66-.129-.477-.323-.879-.581-1.205s-.576-.57-.952-.733c-.376-.168-.809-.253-1.298-.253h-2.746v-1.98h2.746c.82 0 1.57.141 2.25.422.685.275 1.278.671 1.778 1.188.5.516.885 1.134 1.154 1.853.275.714.413 1.508.413 2.385v.581c0 .871-.138 1.666-.413 2.385-.269.719-.654 1.337-1.154 1.853-.494.511-1.087.907-1.778 1.188-.685.276-1.444.413-2.275.413zm-1.239-12.268v12.268h-2.527v-12.268z" fill="#0a355c"/><path d="m158.432 392.178c-7.363 12.771-23.822 17.101-36.6 9.741-12.777-7.36-17.109-23.812-9.745-36.584 7.363-12.772 23.822-17.101 36.6-9.741 12.669 7.36 17.109 23.812 9.745 36.584z" fill="#f5516c"/><path d="m135.426 360.962v14.997c-.834-.833-1.548-1.547-2.501-2.5-.119-1.428-.357-5.475-.357-5.475l2.382-7.141c-1.429 0-2.858.238-4.168.595l-1.191 3.452-3.334-1.667c-1.191.715-2.382 1.548-3.453 2.619l5.954 2.976.238 3.57-3.573-.238-2.977-5.951c-.952 1.071-1.905 2.142-2.619 3.452l1.667 3.332-3.572 1.191c-.358 1.309-.596 2.737-.596 4.284l7.145-2.261 5.715.238 2.382 2.381-2.382 2.38-5.715.238-7.145-2.261c0 1.428.238 2.856.596 4.284l3.453 1.191-1.667 3.213c.714 1.191 1.548 2.381 2.619 3.333l2.977-5.951 3.573-.238-.239 3.571-5.953 2.975c1.071.952 2.143 1.905 3.453 2.619l3.215-1.548 1.191 3.452c1.31.357 2.738.595 4.167.595l-2.262-7.022s.238-4.047.357-5.475c.834-.834 1.548-1.548 2.501-2.5v14.997c9.883 0 17.861-7.974 17.861-17.853.119-9.879-7.859-17.854-17.742-17.854zm4.048 31.184c0-8.927 0-17.734 0-26.661 4.287.952 9.765 5.713 10.003 12.854.238 7.856-5.716 12.855-10.003 13.807z" fill="#f5f5f5"/><path d="m233.613 83.8297c-2.969 5.15-9.606 6.8957-14.758 3.9279-5.152-2.9677-6.899-9.6016-3.93-14.7516 2.969-5.1499 9.606-6.8957 14.758-3.9279 5.109 2.9678 6.899 9.6016 3.93 14.7516z" fill="#f5516c"/><path d="m236.985 68.0128-.002-.0015c-5.737-3.3044-13.13-1.3643-16.441 4.3787-3.306 5.7347-1.365 13.125 4.381 16.4344 5.736 3.3044 13.129 1.3644 16.44-4.3787 3.309-5.7386 1.316-13.1254-4.378-16.4329z" fill="#f5516c" stroke="#f5f5f5" stroke-width="1.6"/><path d="m231.022 70.9558v6.2891c-.35-.3494-.649-.6489-1.049-1.0482-.05-.599-.15-2.296-.15-2.296l.999-2.9948c-.599 0-1.198.0998-1.748.2496l-.499 1.4474-1.398-.6987c-.5.2994-.999.6488-1.448 1.098l2.496 1.2479.1 1.4974-1.498-.0998-1.248-2.4957c-.4.4492-.799.8984-1.099 1.4475l.699 1.3975-1.498.4992c-.149.549-.249 1.148-.249 1.7969l2.996-.9484 2.397.0998.998.9983-.998.9983-2.397.0998-2.996-.9484c0 .599.1 1.198.249 1.7969l1.448.4992-.699 1.3476c.3.4991.65.9983 1.099 1.3976l1.248-2.4957 1.498-.0998-.099 1.4974-2.497 1.2478c.449.3993.899.7986 1.448 1.0981l1.348-.6489.499 1.4475c.55.1498 1.149.2496 1.748.2496l-.949-2.9449s.1-1.697.15-2.296c.35-.3494.649-.6489 1.049-1.0482v6.2891c4.145 0 7.49-3.3442 7.49-7.487.05-4.1428-3.296-7.487-7.44-7.487zm1.698 13.0773c0-3.7435 0-7.4371 0-11.1806 1.797.3993 4.094 2.3958 4.194 5.3906.1 3.2943-2.397 5.3907-4.194 5.79z" fill="#f5f5f5"/><path d="m104.788 147.297 2.444-10.322h1.365l.311 1.719-2.603 10.549h-1.466zm-1.255-10.322 2.022 10.322-.169 1.946h-1.634l-2.722-12.268zm7.524 10.28 1.997-10.28h2.502l-2.713 12.268h-1.634zm-1.694-10.28 2.461 10.364-.068 1.904h-1.466l-2.62-10.557.337-1.711z" fill="#0a355c"/><path d="m121.547 139.073-3.337 10.17h-2.687l4.558-12.268h1.71zm2.772 10.17-3.345-10.17-.27-2.098h1.728l4.583 12.268zm-.152-4.567v1.98h-6.479v-1.98z" fill="#0a355c"/><path d="m136.039 147.272v1.971h-6.176v-1.971zm-5.358-10.297v12.268h-2.528v-12.268z" fill="#0a355c"/><path d="m145.375 147.272v1.971h-6.176v-1.971zm-5.359-10.297v12.268h-2.527v-12.268z" fill="#0a355c"/><path d="m155.056 147.272v1.971h-6.53v-1.971zm-5.704-10.297v12.268h-2.528v-12.268zm4.853 4.997v1.921h-5.679v-1.921zm.843-4.997v1.98h-6.522v-1.98z" fill="#0a355c"/><path d="m162.185 136.975v12.268h-2.52v-12.268zm3.774 0v1.98h-10.009v-1.98z" fill="#0a355c"/><path clip-rule="evenodd" d="m92.902 128.46h79.207c2.161 0 3.936-2.015 3.936-4.513v-15.168h-13.767c-6.043 0-10.921-4.878-10.921-10.9202 0-6.0424 4.878-10.9206 10.921-10.976h13.767v-15.2117c0-2.4539-1.775-4.4696-3.936-4.4696h-79.207c-2.1605 0-3.9352 2.0157-3.9352 4.4696v52.3199c0 2.454 1.7747 4.469 3.9352 4.469z" fill="#f5516c" fill-rule="evenodd"/><path d="m154.204 97.8519c0 4.5751 3.694 8.2681 8.269 8.2681h16.789v-16.5786h-16.789c-4.575.042-8.269 3.7355-8.269 8.3105z" fill="#f5516c"/><path d="m120.031 82.5501h-11.171v6.2176h9.379c4.953 0 9.063 4.1099 9.063 9.0629 0 4.9534-4.11 9.0624-9.063 9.0624h-9.379v6.218h10.855c8.536 0 15.386-6.85 15.386-15.3858 0-8.4306-6.745-15.1751-15.07-15.1751z" fill="#fff"/><path d="m112.322 89.9276c-.211 0-.422 0-.738 0 2.424 1.6861 4.11 4.5315 4.11 7.7983 0 3.2671-1.581 6.1121-4.11 7.7981h.738c4.32 0 7.798-3.477 7.798-7.7981 0-4.3207-3.478-7.7983-7.798-7.7983z" fill="#fff"/><path d="m114.649 97.7256c0 4.6364-3.793 8.4304-8.43 8.4304s-8.4309-3.794-8.4309-8.4304c0-4.6368 3.7939-8.4306 8.4309-8.4306 4.742 0 8.43 3.7938 8.43 8.4306z" fill="#fff"/></svg>