<svg fill="none" height="471" viewBox="0 0 601 471" width="601" xmlns="http://www.w3.org/2000/svg"><path d="m269.861 278.535c-1.157 0-2.094.937-2.094 2.093 0 1.157.937 2.094 2.094 2.094 1.156 0 2.093-.937 2.093-2.094 0-1.156-.937-2.093-2.093-2.093z" fill="#f5516c"/><path d="m259.393 278.535c-1.156 0-2.094.937-2.094 2.093 0 1.157.938 2.094 2.094 2.094s2.093-.937 2.093-2.094c0-1.156-.937-2.093-2.093-2.093z" fill="#f5516c"/><path d="m290.793 278.535c-1.156 0-2.093.937-2.093 2.093 0 1.157.937 2.094 2.093 2.094s2.094-.937 2.094-2.094c0-1.156-.938-2.093-2.094-2.093z" fill="#f5516c"/><path d="m280.326 278.535c-1.157 0-2.094.937-2.094 2.093 0 1.157.937 2.094 2.094 2.094 1.156 0 2.093-.937 2.093-2.094 0-1.156-.937-2.093-2.093-2.093z" fill="#f5516c"/><path d="m311.981 278.535c-1.156 0-2.094.937-2.094 2.093 0 1.157.938 2.094 2.094 2.094s2.093-.937 2.093-2.094c0-1.156-.937-2.093-2.093-2.093z" fill="#f5516c"/><path d="m301.513 278.535c-1.156 0-2.093.937-2.093 2.093 0 1.157.937 2.094 2.093 2.094s2.093-.937 2.093-2.094c0-1.156-.937-2.093-2.093-2.093z" fill="#f5516c"/><path d="m332.912 278.535c-1.156 0-2.093.937-2.093 2.093 0 1.157.937 2.094 2.093 2.094 1.157 0 2.094-.937 2.094-2.094 0-1.156-.937-2.093-2.094-2.093z" fill="#f5516c"/><path d="m353.843 278.535c-1.156 0-2.093.937-2.093 2.093 0 1.157.937 2.094 2.093 2.094s2.094-.937 2.094-2.094c0-1.156-.938-2.093-2.094-2.093z" fill="#f5516c"/><path d="m322.446 278.535c-1.157 0-2.094.937-2.094 2.093 0 1.157.937 2.094 2.094 2.094 1.156 0 2.093-.937 2.093-2.094 0-1.156-.937-2.093-2.093-2.093z" fill="#f5516c"/><path d="m343.376 278.535c-1.156 0-2.093.937-2.093 2.093 0 1.157.937 2.094 2.093 2.094s2.094-.937 2.094-2.094c0-1.156-.938-2.093-2.094-2.093z" fill="#f5516c"/><path d="m248.926 278.535c-1.156 0-2.093.937-2.093 2.093 0 1.157.937 2.094 2.093 2.094s2.094-.937 2.094-2.094c0-1.156-.938-2.093-2.094-2.093z" fill="#f5516c"/><path d="m238.458 278.535c-1.156 0-2.093.937-2.093 2.093 0 1.157.937 2.094 2.093 2.094s2.094-.937 2.094-2.094c0-1.156-.938-2.093-2.094-2.093z" fill="#f5516c"/><path d="m227.99 278.535c-1.157 0-2.094.937-2.094 2.093 0 1.157.937 2.094 2.094 2.094 1.156 0 2.093-.937 2.093-2.094 0-1.156-.937-2.093-2.093-2.093z" fill="#f5516c"/><path d="m217.522 278.535c-1.156 0-2.094.937-2.094 2.093 0 1.157.938 2.094 2.094 2.094s2.093-.937 2.093-2.094c0-1.156-.937-2.093-2.093-2.093z" fill="#f5516c"/><path d="m207.058 278.535c-1.156 0-2.094.937-2.094 2.093 0 1.157.938 2.094 2.094 2.094s2.093-.937 2.093-2.094c0-1.156-.937-2.093-2.093-2.093z" fill="#f5516c"/><path d="m196.59 278.535c-1.156 0-2.093.937-2.093 2.093 0 1.157.937 2.094 2.093 2.094s2.094-.937 2.094-2.094c0-1.156-.938-2.093-2.094-2.093z" fill="#f5516c"/><path d="m191.716 271.747-8.882 8.881 8.882 8.882" stroke="#f5516c" stroke-width="3"/><path d="m135.85 170.227-8.881-8.882-8.882 8.882" stroke="#f5516c" stroke-width="3"/><g fill="#f5516c"><path d="m129.064 184.592c0-1.156-.937-2.093-2.094-2.093-1.156 0-2.093.937-2.093 2.093s.937 2.094 2.093 2.094c1.157 0 2.094-.938 2.094-2.094z"/><path d="m129.064 174.537c0-1.156-.937-2.093-2.094-2.093-1.156 0-2.093.937-2.093 2.093s.937 2.094 2.093 2.094c1.157 0 2.094-.938 2.094-2.094z"/><path d="m129.064 195.06c0-1.156-.937-2.093-2.094-2.093-1.156 0-2.093.937-2.093 2.093s.937 2.094 2.093 2.094c1.157 0 2.094-.938 2.094-2.094z"/><path d="m211.217 192.967c-1.156 0-2.093.937-2.093 2.093 0 1.157.937 2.094 2.093 2.094s2.094-.937 2.094-2.094c0-1.156-.938-2.093-2.094-2.093z"/><path d="m200.749 192.967c-1.156 0-2.093.937-2.093 2.093 0 1.157.937 2.094 2.093 2.094 1.157 0 2.094-.937 2.094-2.094 0-1.156-.937-2.093-2.094-2.093z"/><path d="m232.148 192.967c-1.156 0-2.094.937-2.094 2.093 0 1.157.938 2.094 2.094 2.094s2.093-.937 2.093-2.094c0-1.156-.937-2.093-2.093-2.093z"/><path d="m221.682 192.967c-1.156 0-2.093.937-2.093 2.093 0 1.157.937 2.094 2.093 2.094s2.093-.937 2.093-2.094c0-1.156-.937-2.093-2.093-2.093z"/><path d="m253.335 192.967c-1.156 0-2.093.937-2.093 2.093 0 1.157.937 2.094 2.093 2.094s2.094-.937 2.094-2.094c0-1.156-.938-2.093-2.094-2.093z"/><path d="m242.868 192.967c-1.156 0-2.093.937-2.093 2.093 0 1.157.937 2.094 2.093 2.094 1.157 0 2.094-.937 2.094-2.094 0-1.156-.937-2.093-2.094-2.093z"/><path d="m274.268 192.967c-1.156 0-2.094.937-2.094 2.093 0 1.157.938 2.094 2.094 2.094s2.093-.937 2.093-2.094c0-1.156-.937-2.093-2.093-2.093z"/><path d="m295.199 192.967c-1.157 0-2.094.937-2.094 2.093 0 1.157.937 2.094 2.094 2.094 1.156 0 2.093-.937 2.093-2.094 0-1.156-.937-2.093-2.093-2.093z"/><path d="m263.801 192.967c-1.156 0-2.093.937-2.093 2.093 0 1.157.937 2.094 2.093 2.094s2.094-.937 2.094-2.094c0-1.156-.938-2.093-2.094-2.093z"/><path d="m284.732 192.967c-1.156 0-2.094.937-2.094 2.093 0 1.157.938 2.094 2.094 2.094s2.093-.937 2.093-2.094c0-1.156-.937-2.093-2.093-2.093z"/><path d="m190.282 192.967c-1.157 0-2.094.937-2.094 2.093 0 1.157.937 2.094 2.094 2.094 1.156 0 2.093-.937 2.093-2.094 0-1.156-.937-2.093-2.093-2.093z"/><path d="m179.814 192.967c-1.156 0-2.094.937-2.094 2.093 0 1.157.938 2.094 2.094 2.094s2.093-.937 2.093-2.094c0-1.156-.937-2.093-2.093-2.093z"/><path d="m169.345 192.967c-1.156 0-2.093.937-2.093 2.093 0 1.157.937 2.094 2.093 2.094s2.093-.937 2.093-2.094c0-1.156-.937-2.093-2.093-2.093z"/><path d="m158.876 192.967c-1.156 0-2.093.937-2.093 2.093 0 1.157.937 2.094 2.093 2.094s2.094-.937 2.094-2.094c0-1.156-.938-2.093-2.094-2.093z"/><path d="m148.412 192.967c-1.156 0-2.093.937-2.093 2.093 0 1.157.937 2.094 2.093 2.094 1.157 0 2.094-.937 2.094-2.094 0-1.156-.937-2.093-2.094-2.093z"/><path d="m137.946 192.967c-1.157 0-2.094.937-2.094 2.093 0 1.157.937 2.094 2.094 2.094 1.156 0 2.093-.937 2.093-2.094 0-1.156-.937-2.093-2.093-2.093z"/><path d="m378.828 192.967c-1.156 0-2.093.937-2.093 2.093 0 1.157.937 2.094 2.093 2.094 1.157 0 2.094-.937 2.094-2.094 0-1.156-.937-2.093-2.094-2.093z"/><path d="m368.36 192.967c-1.156 0-2.094.937-2.094 2.093 0 1.157.938 2.094 2.094 2.094s2.093-.937 2.093-2.094c0-1.156-.937-2.093-2.093-2.093z"/><path d="m399.76 192.967c-1.156 0-2.093.937-2.093 2.093 0 1.157.937 2.094 2.093 2.094s2.094-.937 2.094-2.094c0-1.156-.938-2.093-2.094-2.093z"/><path d="m389.293 192.967c-1.156 0-2.093.937-2.093 2.093 0 1.157.937 2.094 2.093 2.094s2.094-.937 2.094-2.094c0-1.156-.938-2.093-2.094-2.093z"/><path d="m410.479 203.193c-1.156 0-2.094.938-2.094 2.094s.938 2.093 2.094 2.093 2.093-.937 2.093-2.093-.937-2.094-2.093-2.094z"/><path d="m410.479 213.42c-1.156 0-2.094.937-2.094 2.093 0 1.157.938 2.094 2.094 2.094s2.093-.937 2.093-2.094c0-1.156-.937-2.093-2.093-2.093z"/><path d="m410.481 192.967c-1.156 0-2.094.937-2.094 2.093 0 1.157.938 2.094 2.094 2.094s2.093-.937 2.093-2.094c0-1.156-.937-2.093-2.093-2.093z"/><path d="m357.894 192.967c-1.156 0-2.094.937-2.094 2.093 0 1.157.938 2.094 2.094 2.094s2.093-.937 2.093-2.094c0-1.156-.937-2.093-2.093-2.093z"/><path d="m347.425 192.967c-1.156 0-2.093.937-2.093 2.093 0 1.157.937 2.094 2.093 2.094s2.094-.937 2.094-2.094c0-1.156-.938-2.093-2.094-2.093z"/><path d="m336.957 192.967c-1.156 0-2.093.937-2.093 2.093 0 1.157.937 2.094 2.093 2.094 1.157 0 2.094-.937 2.094-2.094 0-1.156-.937-2.093-2.094-2.093z"/><path d="m326.488 192.967c-1.157 0-2.094.937-2.094 2.093 0 1.157.937 2.094 2.094 2.094 1.156 0 2.093-.937 2.093-2.094 0-1.156-.937-2.093-2.093-2.093z"/><path d="m316.024 192.967c-1.156 0-2.094.937-2.094 2.093 0 1.157.938 2.094 2.094 2.094s2.093-.937 2.093-2.094c0-1.156-.937-2.093-2.093-2.093z"/><path d="m305.557 192.967c-1.156 0-2.093.937-2.093 2.093 0 1.157.937 2.094 2.093 2.094s2.093-.937 2.093-2.094c0-1.156-.937-2.093-2.093-2.093z"/><path d="m309.629 367.813c-1.156 0-2.093.937-2.093 2.093s.937 2.094 2.093 2.094 2.094-.938 2.094-2.094-.938-2.093-2.094-2.093z"/><path d="m299.16 367.813c-1.156 0-2.093.937-2.093 2.093s.937 2.094 2.093 2.094c1.157 0 2.094-.938 2.094-2.094s-.937-2.093-2.094-2.093z"/><path d="m330.561 367.813c-1.156 0-2.094.937-2.094 2.093s.938 2.094 2.094 2.094 2.093-.938 2.093-2.094-.937-2.093-2.093-2.093z"/><path d="m320.093 367.813c-1.156 0-2.093.937-2.093 2.093s.937 2.094 2.093 2.094 2.094-.938 2.094-2.094-.938-2.093-2.094-2.093z"/><path d="m351.748 367.813c-1.156 0-2.093.937-2.093 2.093s.937 2.094 2.093 2.094c1.157 0 2.094-.938 2.094-2.094s-.937-2.093-2.094-2.093z"/><path d="m341.281 367.813c-1.157 0-2.094.937-2.094 2.093s.937 2.094 2.094 2.094c1.156 0 2.093-.938 2.093-2.094s-.937-2.093-2.093-2.093z"/><path d="m288.694 367.813c-1.157 0-2.094.937-2.094 2.093s.937 2.094 2.094 2.094c1.156 0 2.093-.938 2.093-2.094s-.937-2.093-2.093-2.093z"/><path d="m278.226 367.813c-1.156 0-2.094.937-2.094 2.093s.938 2.094 2.094 2.094 2.093-.938 2.093-2.094-.937-2.093-2.093-2.093z"/><path d="m267.758 367.813c-1.156 0-2.093.937-2.093 2.093s.937 2.094 2.093 2.094 2.094-.938 2.094-2.094-.938-2.093-2.094-2.093z"/><path d="m257.289 367.813c-1.156 0-2.093.937-2.093 2.093s.937 2.094 2.093 2.094c1.157 0 2.094-.938 2.094-2.094s-.937-2.093-2.094-2.093z"/><path d="m246.826 367.813c-1.157 0-2.094.937-2.094 2.093s.937 2.094 2.094 2.094c1.156 0 2.093-.938 2.093-2.094s-.937-2.093-2.093-2.093z"/><path d="m236.358 367.813c-1.156 0-2.094.937-2.094 2.093s.938 2.094 2.094 2.094 2.093-.938 2.093-2.094-.937-2.093-2.093-2.093z"/></g><path d="m231.483 361.024-8.881 8.882 8.881 8.882" stroke="#f5516c" stroke-width="3"/><path d="m203.5 389.62c1.156 0 2.093-.937 2.093-2.094 0-1.156-.937-2.093-2.093-2.093s-2.094.937-2.094 2.093c0 1.157.938 2.094 2.094 2.094z" fill="#0a355c"/><path d="m213.967 389.62c1.157 0 2.094-.937 2.094-2.094 0-1.156-.937-2.093-2.094-2.093-1.156 0-2.093.937-2.093 2.093 0 1.157.937 2.094 2.093 2.094z" fill="#0a355c"/><path d="m182.567 389.62c1.156 0 2.094-.937 2.094-2.094 0-1.156-.938-2.093-2.094-2.093s-2.093.937-2.093 2.093c0 1.157.937 2.094 2.093 2.094z" fill="#0a355c"/><path d="m193.035 389.62c1.156 0 2.093-.937 2.093-2.094 0-1.156-.937-2.093-2.093-2.093s-2.094.937-2.094 2.093c0 1.157.938 2.094 2.094 2.094z" fill="#0a355c"/><path d="m161.38 389.62c1.156 0 2.093-.937 2.093-2.094 0-1.156-.937-2.093-2.093-2.093-1.157 0-2.094.937-2.094 2.093 0 1.157.937 2.094 2.094 2.094z" fill="#0a355c"/><path d="m171.847 389.62c1.157 0 2.094-.937 2.094-2.094 0-1.156-.937-2.093-2.094-2.093-1.156 0-2.093.937-2.093 2.093 0 1.157.937 2.094 2.093 2.094z" fill="#0a355c"/><path d="m224.434 389.62c1.156 0 2.094-.937 2.094-2.094 0-1.156-.938-2.093-2.094-2.093s-2.093.937-2.093 2.093c0 1.157.937 2.094 2.093 2.094z" fill="#0a355c"/><path d="m234.902 389.62c1.156 0 2.093-.937 2.093-2.094 0-1.156-.937-2.093-2.093-2.093s-2.093.937-2.093 2.093c0 1.157.937 2.094 2.093 2.094z" fill="#0a355c"/><path d="m245.371 389.62c1.156 0 2.093-.937 2.093-2.094 0-1.156-.937-2.093-2.093-2.093s-2.094.937-2.094 2.093c0 1.157.938 2.094 2.094 2.094z" fill="#0a355c"/><path d="m255.839 389.62c1.156 0 2.093-.937 2.093-2.094 0-1.156-.937-2.093-2.093-2.093-1.157 0-2.094.937-2.094 2.093 0 1.157.937 2.094 2.094 2.094z" fill="#0a355c"/><path d="m266.302 389.62c1.157 0 2.094-.937 2.094-2.094 0-1.156-.937-2.093-2.094-2.093-1.156 0-2.093.937-2.093 2.093 0 1.157.937 2.094 2.093 2.094z" fill="#0a355c"/><path d="m276.77 389.62c1.156 0 2.094-.937 2.094-2.094 0-1.156-.938-2.093-2.094-2.093s-2.093.937-2.093 2.093c0 1.157.937 2.094 2.093 2.094z" fill="#0a355c"/><path d="m281.645 396.408 8.881-8.882-8.881-8.881" stroke="#0a355c" stroke-width="3"/><path d="m253.375 97.2457-68.337.0003" stroke="#0a355c" stroke-width="3"/><path d="m255.03 106.128 8.882-8.8822-8.882-8.8817" stroke="#0a355c" stroke-width="3"/><path d="m468.848 203.25-.356-61.251" stroke="#9aa5b8" stroke-width="3"/><path d="m459.966 204.908 8.882 8.882 8.881-8.882" stroke="#9aa5b8" stroke-width="3"/><path d="m398.452 106.128 8.882-8.8822-8.882-8.8817" stroke="#9aa5b8" stroke-width="3"/><rect height="70.4396" rx="13.5" stroke="#0a355c" stroke-width="3" width="107.299" x="280.771" y="62.0261"/><rect height="70.4396" rx="13.5" stroke="#9aa5b8" stroke-width="3" width="107.299" x="415.197" y="62.0261"/><rect height="181.459" rx="23" stroke="#f5516c" stroke-width="4" width="156.481" x="365.516" y="227.067"/><rect fill="#f5516c" height="7.30933" rx="2" width="60.9874" x="426.922" y="369.525"/><rect fill="#f5516c" height="7.30933" rx="2" width="60.9874" x="426.922" y="358.732"/><rect fill="#f5516c" height="7.30933" rx="2" width="60.9874" x="426.922" y="347.939"/><rect fill="#f5516c" height="7.30933" rx="2" width="60.9874" x="426.922" y="337.147"/><rect fill="#f5516c" height="7.30933" rx="2" width="60.9874" x="426.922" y="326.354"/><rect fill="#f5516c" height="7.30933" rx="2" width="60.9874" x="426.922" y="315.562"/><rect fill="#f5516c" height="7.30933" rx="2" width="60.9874" x="426.922" y="304.769"/><rect fill="#f5516c" height="7.30933" rx="2" width="60.9874" x="426.922" y="293.976"/><rect fill="#f5516c" height="7.30933" rx="2" width="60.9874" x="426.922" y="283.184"/><path d="m460.849 359.072c-10.769 18.68-34.856 25.024-53.56 14.25-18.688-10.764-25.034-34.84-14.256-53.535 10.768-18.678 34.853-25.023 53.557-14.251 18.534 10.769 25.032 34.85 14.259 53.536z" fill="#f5516c" stroke="#f5f5f5" stroke-width="3"/><path d="m427.195 312.394v22.786c-1.266-1.266-2.352-2.351-3.799-3.797-.181-2.171-.543-8.319-.543-8.319l3.618-10.85c-2.171 0-4.342.361-6.332.904l-1.809 5.244-5.066-2.532c-1.809 1.085-3.618 2.351-5.246 3.979l9.046 4.521.361 5.425-5.427-.362-4.523-9.042c-1.447 1.628-2.895 3.255-3.98 5.245l2.532 5.063-5.427 1.809c-.543 1.989-.905 4.159-.905 6.51l10.855-3.436 8.685.362 3.618 3.616-3.618 3.617-8.685.362-10.855-3.436c0 2.17.362 4.34.905 6.51l5.247 1.808-2.533 4.883c1.085 1.808 2.352 3.617 3.98 5.064l4.523-9.042 5.427-.362-.361 5.425-9.046 4.521c1.628 1.447 3.256 2.894 5.246 3.979l4.885-2.351 1.809 5.244c1.99.542 4.161.904 6.332.904l-3.437-10.669s.362-6.149.543-8.319c1.266-1.266 2.352-2.351 3.799-3.798v22.786c15.016 0 27.138-12.116 27.138-27.126.181-15.009-11.941-27.126-26.957-27.126zm6.151 47.38c0-13.563 0-26.945 0-40.508 6.513 1.447 14.836 8.681 15.197 19.531.362 11.935-8.684 19.531-15.197 20.977z" fill="#f5f5f5"/><path d="m390.651 256.061h2.461l3.624 10.358 3.624-10.358h2.461l-5.097 14.108h-1.977zm-1.328 0h2.452l.445 10.097v4.011h-2.897zm12.374 0h2.461v14.108h-2.907v-4.011z" fill="#0a355c"/><path d="m411.992 267.805v-4.67c0-.336-.055-.624-.164-.863-.11-.245-.281-.436-.514-.571-.226-.136-.52-.204-.882-.204-.31 0-.578.055-.804.165-.226.103-.4.255-.523.455-.123.194-.184.423-.184.688h-2.791c0-.446.103-.869.31-1.269.207-.401.507-.753.901-1.056.394-.31.863-.553 1.405-.727.549-.174 1.163-.262 1.841-.262.814 0 1.538.136 2.171.407.633.272 1.13.679 1.492 1.221.368.543.552 1.221.552 2.035v4.486c0 .575.036 1.047.107 1.415.071.362.174.678.31.95v.164h-2.82c-.135-.284-.239-.639-.31-1.066-.064-.432-.097-.865-.097-1.298zm.369-4.021.019 1.579h-1.56c-.368 0-.688.042-.959.126-.272.084-.495.204-.669.359-.174.148-.304.323-.388.523-.077.2-.116.42-.116.659s.055.455.165.649c.11.187.268.336.475.446.206.103.449.155.726.155.42 0 .785-.084 1.095-.252s.549-.375.717-.62c.175-.246.265-.478.272-.698l.736 1.182c-.103.265-.245.54-.426.824-.175.284-.397.552-.669.804-.271.246-.597.449-.978.611-.382.155-.834.232-1.357.232-.665 0-1.269-.132-1.812-.397-.536-.271-.962-.643-1.279-1.114-.31-.479-.465-1.021-.465-1.628 0-.549.103-1.037.31-1.463.207-.427.51-.785.911-1.076.407-.297.914-.52 1.521-.669.607-.155 1.311-.232 2.112-.232z" fill="#0a355c"/><path d="m422.423 267.272c0-.2-.058-.381-.174-.543-.116-.161-.333-.31-.649-.445-.31-.142-.759-.272-1.347-.388-.53-.116-1.024-.261-1.483-.436-.452-.181-.846-.397-1.182-.649-.329-.252-.588-.549-.775-.892-.187-.348-.281-.746-.281-1.191 0-.44.094-.853.281-1.241.194-.387.468-.73.824-1.027.362-.303.801-.539 1.318-.707.523-.174 1.111-.262 1.763-.262.911 0 1.693.146 2.345.436.659.291 1.163.692 1.512 1.202.355.504.532 1.079.532 1.725h-2.79c0-.272-.058-.514-.175-.727-.109-.22-.284-.391-.523-.514-.232-.129-.536-.193-.911-.193-.31 0-.578.054-.804.164-.226.104-.4.246-.523.427-.116.174-.175.368-.175.581 0 .161.033.307.097.436.071.123.184.236.34.339.155.104.355.2.6.291.252.084.562.161.93.232.756.155 1.431.359 2.026.611.594.245 1.065.581 1.414 1.008.349.419.524.972.524 1.657 0 .465-.104.891-.311 1.279-.206.387-.503.726-.891 1.017-.388.284-.853.507-1.395.669-.536.155-1.14.232-1.812.232-.976 0-1.803-.174-2.481-.523-.672-.349-1.182-.791-1.531-1.328-.342-.542-.513-1.098-.513-1.666h2.645c.013.381.11.688.291.92.187.233.423.401.707.504.291.103.604.155.94.155.362 0 .662-.048.901-.145.239-.104.42-.239.543-.407.129-.175.193-.375.193-.601z" fill="#0a355c"/><path d="m431.886 259.685v1.977h-6.105v-1.977zm-4.593-2.587h2.79v9.912c0 .304.039.537.117.698.084.162.206.275.368.339.161.058.365.087.61.087.175 0 .33-.006.465-.019.142-.019.262-.039.359-.058l.01 2.054c-.239.078-.498.139-.776.184-.277.045-.584.068-.92.068-.614 0-1.15-.1-1.609-.3-.452-.207-.801-.536-1.046-.989-.246-.452-.368-1.046-.368-1.783z" fill="#0a355c"/><path d="m438.102 270.363c-.814 0-1.544-.129-2.19-.387-.646-.265-1.195-.63-1.647-1.095-.446-.466-.788-1.005-1.028-1.619-.239-.62-.358-1.279-.358-1.976v-.388c0-.794.113-1.521.339-2.18s.549-1.231.969-1.715c.426-.485.943-.856 1.55-1.114.608-.265 1.292-.398 2.055-.398.743 0 1.401.123 1.976.369.575.245 1.056.594 1.444 1.046.394.452.691.995.892 1.628.2.626.3 1.324.3 2.093v1.163h-8.333v-1.861h5.591v-.213c0-.388-.071-.733-.213-1.037-.136-.31-.343-.555-.621-.736-.277-.181-.633-.272-1.065-.272-.369 0-.685.081-.95.243-.265.161-.481.387-.649.678-.162.291-.284.633-.368 1.027-.078.388-.117.814-.117 1.279v.388c0 .42.058.807.175 1.162.122.356.294.663.513.921.226.258.498.459.814.601.323.142.688.213 1.095.213.504 0 .972-.097 1.405-.291.439-.2.817-.5 1.134-.901l1.356 1.473c-.219.316-.52.62-.901.911-.374.29-.827.529-1.356.717-.53.181-1.134.271-1.812.271z" fill="#0a355c"/><path d="m446.585 261.972v8.197h-2.79v-10.484h2.625zm3.159-2.355-.048 2.587c-.136-.019-.301-.035-.495-.048-.187-.019-.358-.029-.513-.029-.394 0-.737.052-1.027.155-.285.097-.524.242-.717.436-.188.194-.33.43-.427.707-.09.278-.142.595-.155.95l-.562-.175c0-.678.068-1.301.204-1.87.135-.575.332-1.075.591-1.502.265-.426.588-.755.969-.988.381-.232.817-.349 1.308-.349.155 0 .313.013.475.039.161.019.294.049.397.087z" fill="#0a355c"/><path d="m467.263 256.061v14.108h-2.907l-5.668-9.457v9.457h-2.907v-14.108h2.907l5.678 9.467v-9.467z" fill="#0a355c"/><path d="m468.974 265.034v-.204c0-.768.11-1.476.329-2.122.22-.652.54-1.217.959-1.695.42-.478.937-.85 1.551-1.115.613-.271 1.318-.407 2.112-.407.795 0 1.502.136 2.122.407.62.265 1.14.637 1.56 1.115.427.478.749 1.043.969 1.695.22.646.33 1.354.33 2.122v.204c0 .762-.11 1.469-.33 2.122-.22.646-.542 1.211-.969 1.696-.42.478-.937.849-1.55 1.114-.614.265-1.318.397-2.113.397-.794 0-1.501-.132-2.122-.397-.613-.265-1.133-.636-1.56-1.114-.419-.485-.739-1.05-.959-1.696-.219-.653-.329-1.36-.329-2.122zm2.79-.204v.204c0 .439.039.849.117 1.23.077.382.2.717.368 1.008.174.284.4.507.678.669.278.161.617.242 1.017.242.388 0 .721-.081.999-.242.277-.162.5-.385.668-.669.168-.291.291-.626.368-1.008.084-.381.126-.791.126-1.23v-.204c0-.426-.042-.827-.126-1.201-.077-.381-.203-.717-.378-1.008-.168-.297-.39-.53-.668-.698s-.614-.252-1.008-.252-.73.084-1.008.252c-.271.168-.494.401-.668.698-.168.291-.291.627-.368 1.008-.078.374-.117.775-.117 1.201z" fill="#0a355c"/><path d="m486.614 267.883v-12.597h2.81v14.883h-2.529zm-6.628-2.83v-.203c0-.801.091-1.528.271-2.18.181-.659.446-1.225.795-1.696.349-.472.778-.837 1.289-1.095.51-.258 1.091-.388 1.744-.388.614 0 1.15.13 1.608.388.465.258.86.626 1.182 1.105.33.471.595 1.03.795 1.676.2.639.346 1.34.436 2.102v.446c-.09.73-.236 1.408-.436 2.035s-.465 1.176-.795 1.647c-.322.465-.717.827-1.182 1.086-.465.258-1.007.387-1.628.387-.652 0-1.233-.132-1.744-.397-.503-.265-.93-.636-1.279-1.114-.342-.479-.604-1.041-.785-1.686-.18-.646-.271-1.351-.271-2.113zm2.791-.203v.203c0 .433.032.837.097 1.211.071.375.184.708.339.998.161.285.368.508.62.669.258.155.572.233.94.233.478 0 .872-.107 1.182-.32.31-.22.546-.52.707-.901.168-.381.265-.821.291-1.318v-1.269c-.019-.407-.078-.772-.174-1.095-.091-.33-.226-.611-.407-.843-.175-.233-.394-.414-.659-.543-.259-.129-.565-.194-.921-.194-.362 0-.672.084-.93.252-.258.162-.468.384-.63.669-.155.284-.271.62-.349 1.007-.071.382-.106.795-.106 1.241z" fill="#0a355c"/><path d="m496.231 270.363c-.814 0-1.544-.129-2.19-.387-.646-.265-1.195-.63-1.647-1.095-.446-.466-.788-1.005-1.027-1.619-.239-.62-.359-1.279-.359-1.976v-.388c0-.794.113-1.521.339-2.18.227-.659.55-1.231.969-1.715.427-.485.944-.856 1.551-1.114.607-.265 1.292-.398 2.054-.398.743 0 1.402.123 1.977.369.575.245 1.056.594 1.443 1.046.394.452.692.995.892 1.628.2.626.3 1.324.3 2.093v1.163h-8.333v-1.861h5.591v-.213c0-.388-.071-.733-.213-1.037-.136-.31-.342-.555-.62-.736s-.633-.272-1.066-.272c-.368 0-.685.081-.95.243-.265.161-.481.387-.649.678-.161.291-.284.633-.368 1.027-.078.388-.116.814-.116 1.279v.388c0 .42.058.807.174 1.162.123.356.294.663.514.921.226.258.497.459.814.601.323.142.687.213 1.094.213.504 0 .973-.097 1.405-.291.44-.2.818-.5 1.134-.901l1.357 1.473c-.22.316-.52.62-.901.911-.375.29-.827.529-1.357.717-.53.181-1.134.271-1.812.271z" fill="#0a355c"/><path d="m120.523 267.733h-5.581v27.281h5.581z" fill="#f5516c"/><path d="m130.748 267.733h-5.58v27.281h5.58z" fill="#f5516c"/><path d="m110.215 267.733h-5.58v27.281h5.58z" fill="#f5516c"/><path d="m151.283 267.733h-5.58v27.281h5.58z" fill="#f5516c"/><path d="m140.986 267.733h-5.581v27.281h5.581z" fill="#f5516c"/><path clip-rule="evenodd" d="m97.3334 262.456 30.6116-12.777 30.534 12.777h.005v3.523h-61.151v-3.523z" fill="#f5516c" fill-rule="evenodd"/><path d="m157.398 296.938h-58.9029v4.509h58.9029z" fill="#f5516c"/><g fill="#0a355c"><path d="m81.6064 237.44h-3.1512l-.0169-1.736h2.6457c.4662 0 .8482-.059 1.1459-.177.2977-.123.5196-.3.6656-.531.1517-.236.2275-.522.2275-.859 0-.382-.073-.691-.219-.927-.1405-.236-.3623-.407-.6657-.514-.2977-.107-.6824-.16-1.1543-.16h-1.7526v10.288h-2.5277v-12.268h4.2803c.7134 0 1.3509.067 1.9127.202.5673.135 1.0476.34 1.4408.615.3932.276.6937.624.9015 1.045.2079.416.3118.91.3118 1.483 0 .506-.1152.972-.3455 1.399-.2247.427-.5814.775-1.0701 1.044-.483.27-1.115.419-1.8958.447zm-.1095 5.384h-3.7327l.9859-1.972h2.7468c.4437 0 .806-.07 1.0869-.21.2809-.146.4887-.343.6235-.59s.2022-.531.2022-.851c0-.36-.0618-.671-.1853-.935-.118-.264-.309-.467-.573-.607-.264-.146-.6123-.219-1.0448-.219h-2.435l.0168-1.736h3.0333l.5814.683c.7471-.012 1.3481.12 1.8031.396.4606.269.7948.62 1.0027 1.053.2134.432.3201.896.3201 1.39 0 .786-.1713 1.449-.5139 1.989-.3427.533-.8454.935-1.5083 1.204-.6572.27-1.4604.405-2.4097.405z"/><path d="m92.8127 232.654-3.3366 10.17h-2.6878l4.5583-12.268h1.7104zm2.7721 10.17-3.3451-10.17-.2696-2.098h1.7273l4.5836 12.268zm-.1517-4.567v1.98h-6.4794v-1.98z"/><path d="m109.403 230.556v12.268h-2.528l-4.929-8.224v8.224h-2.5275v-12.268h2.5275l4.938 8.232v-8.232z"/><path d="m114.13 230.556v12.268h-2.528v-12.268zm7.347 0-4.861 6.058-2.806 3.017-.455-2.393 1.896-2.596 3.126-4.086zm-2.873 12.268-3.615-5.671 1.871-1.567 4.735 7.238z"/><path d="m125.1 230.556v12.268h-2.527v-12.268zm7.348 0-4.862 6.058-2.806 3.017-.455-2.393 1.896-2.596 3.126-4.086zm-2.874 12.268-3.614-5.671 1.87-1.567 4.736 7.238z"/><path d="m143.351 236.403v.582c0 .932-.127 1.769-.38 2.511-.252.741-.609 1.373-1.07 1.896-.46.516-1.011.912-1.651 1.188-.635.275-1.34.412-2.115.412-.77 0-1.475-.137-2.115-.412-.635-.276-1.185-.672-1.651-1.188-.467-.523-.829-1.155-1.087-1.896-.253-.742-.379-1.579-.379-2.511v-.582c0-.938.126-1.775.379-2.51.252-.742.609-1.374 1.07-1.896.466-.523 1.016-.921 1.651-1.197.641-.275 1.346-.413 2.115-.413.775 0 1.48.138 2.115.413.64.276 1.191.674 1.651 1.197.467.522.826 1.154 1.079 1.896.258.735.388 1.572.388 2.51zm-2.553.582v-.598c0-.652-.059-1.225-.177-1.719-.118-.495-.293-.91-.523-1.247s-.511-.59-.842-.759c-.332-.174-.711-.261-1.138-.261s-.806.087-1.137.261c-.326.169-.604.422-.835.759-.224.337-.396.752-.513 1.247-.118.494-.177 1.067-.177 1.719v.598c0 .646.059 1.219.177 1.719.117.494.292.912.522 1.255.23.337.511.593.842.767.332.174.711.261 1.138.261s.806-.087 1.137-.261c.332-.174.61-.43.835-.767.224-.343.396-.761.514-1.255.118-.5.177-1.073.177-1.719z"/><path d="m155.155 230.556v12.268h-2.528l-4.929-8.224v8.224h-2.528v-12.268h2.528l4.938 8.232v-8.232z"/><path d="m162.587 230.556v12.268h-2.52v-12.268zm3.774 0v1.98h-10.01v-1.98z"/><path d="m177.643 236.403v.582c0 .932-.126 1.769-.379 2.511-.252.741-.609 1.373-1.07 1.896-.46.516-1.011.912-1.651 1.188-.635.275-1.34.412-2.115.412-.77 0-1.475-.137-2.115-.412-.635-.276-1.185-.672-1.651-1.188-.467-.523-.829-1.155-1.087-1.896-.253-.742-.38-1.579-.38-2.511v-.582c0-.938.127-1.775.38-2.51.252-.742.609-1.374 1.07-1.896.466-.523 1.016-.921 1.651-1.197.641-.275 1.345-.413 2.115-.413.775 0 1.48.138 2.115.413.64.276 1.191.674 1.651 1.197.467.522.826 1.154 1.079 1.896.258.735.387 1.572.387 2.51zm-2.553.582v-.598c0-.652-.059-1.225-.177-1.719-.117-.495-.292-.91-.522-1.247s-.511-.59-.842-.759c-.332-.174-.711-.261-1.138-.261s-.806.087-1.137.261c-.326.169-.604.422-.835.759-.224.337-.396.752-.514 1.247-.118.494-.177 1.067-.177 1.719v.598c0 .646.059 1.219.177 1.719.118.494.293.912.523 1.255.23.337.511.593.842.767.332.174.711.261 1.138.261s.806-.087 1.137-.261c.332-.174.61-.43.835-.767.224-.343.396-.761.513-1.255.118-.5.177-1.073.177-1.719z"/><path d="m303.858 92.0691h-3.072l.02-2.2674h3.052c.762 0 1.405-.1712 1.928-.5136.523-.3488.918-.8559 1.182-1.5212.272-.6654.407-1.4696.407-2.4128v-.6879c0-.7235-.077-1.3598-.232-1.9089-.149-.5491-.372-1.0109-.669-1.3856s-.662-.6557-1.095-.843c-.433-.1938-.93-.2907-1.492-.2907h-3.159v-2.2771h3.159c.943 0 1.806.1615 2.587.4845.788.3165 1.47.772 2.045 1.3663s1.017 1.3048 1.327 2.1317c.317.8204.475 1.7344.475 2.7422v.6685c0 1.0013-.158 1.9154-.475 2.7422-.31.8269-.752 1.5374-1.327 2.1317-.569.5879-1.25 1.0433-2.045 1.3663-.788.3165-1.66.4748-2.616.4748zm-1.424-14.1082v14.1082h-2.907v-14.1082z"/><path d="m317.084 92.2629c-.814 0-1.544-.1292-2.19-.3876-.645-.2649-1.195-.6299-1.647-1.095-.445-.4651-.788-1.0045-1.027-1.6181-.239-.6202-.358-1.2791-.358-1.9767v-.3876c0-.7946.113-1.5213.339-2.1802s.549-1.2306.969-1.715c.426-.4845.943-.856 1.55-1.1144.607-.2648 1.292-.3972 2.054-.3972.743 0 1.402.1227 1.977.3682s1.056.5943 1.444 1.0465c.394.4521.691.9948.891 1.6278.2.6266.301 1.3243.301 2.093v1.1627h-8.334v-1.8604h5.591v-.2131c0-.3876-.071-.7332-.213-1.0368-.135-.3101-.342-.5556-.62-.7364-.278-.1809-.633-.2714-1.066-.2714-.368 0-.685.0808-.949.2423-.265.1615-.482.3876-.65.6783-.161.2907-.284.633-.368 1.0271-.077.3875-.116.8139-.116 1.279v.3876c0 .4199.058.8075.174 1.1627.123.3553.294.6622.514.9206.226.2583.497.4586.814.6007.323.1421.688.2132 1.095.2132.504 0 .972-.0969 1.405-.2907.439-.2003.817-.5006 1.133-.9011l1.357 1.4728c-.22.3165-.52.6201-.901.9108-.375.2907-.827.5297-1.357.717-.529.1809-1.133.2714-1.812.2714z"/><path d="m325.766 83.6003v12.4997h-2.79v-14.5151h2.587zm6.638 3.1104v.2035c0 .7622-.091 1.4696-.272 2.122-.174.6524-.432 1.2209-.775 1.7054-.342.478-.769.8527-1.279 1.124-.504.2648-1.085.3973-1.744.3973-.639 0-1.195-.1292-1.667-.3876-.471-.2584-.868-.6202-1.191-1.0853-.317-.4715-.572-1.0174-.766-1.6375-.194-.6202-.342-1.2855-.446-1.9961v-.5329c.104-.7623.252-1.4599.446-2.093.194-.6395.449-1.1918.766-1.6569.323-.4716.717-.8365 1.182-1.0949.471-.2584 1.024-.3876 1.657-.3876.665 0 1.25.1259 1.753.3779.511.2519.937.6136 1.28 1.0852.348.4716.61 1.0336.784 1.686.181.6524.272 1.3759.272 2.1705zm-2.801.2035v-.2035c0-.4457-.038-.8559-.116-1.2306-.071-.3811-.187-.7138-.349-.998-.155-.2843-.361-.5039-.62-.6589-.252-.1615-.559-.2423-.92-.2423-.382 0-.708.0614-.979.1841-.265.1228-.481.3004-.649.533-.168.2325-.294.5103-.378.8333s-.136.6879-.155 1.0949v1.3469c.032.478.123.9076.271 1.2887.149.3747.378.6718.688.8914.31.2197.717.3295 1.221.3295.368 0 .678-.0808.93-.2423.252-.1679.456-.3972.611-.6879.161-.2907.274-.6266.339-1.0077.071-.3812.106-.7914.106-1.2306z"/><path d="m333.692 86.9336v-.2035c0-.7687.11-1.4761.33-2.1221.219-.6524.539-1.2176.959-1.6957.42-.478.937-.8494 1.55-1.1143.614-.2713 1.318-.4069 2.113-.4069.794 0 1.502.1356 2.122.4069.62.2649 1.14.6363 1.56 1.1143.426.4781.749 1.0433.969 1.6957.219.646.329 1.3534.329 2.1221v.2035c0 .7622-.11 1.4695-.329 2.122-.22.646-.543 1.2112-.969 1.6957-.42.478-.937.8494-1.55 1.1143-.614.2648-1.318.3973-2.113.3973-.794 0-1.502-.1325-2.122-.3973-.614-.2649-1.134-.6363-1.56-1.1143-.42-.4845-.74-1.0497-.959-1.6957-.22-.6525-.33-1.3598-.33-2.122zm2.791-.2035v.2035c0 .4392.039.8494.116 1.2305.078.3812.201.7171.368 1.0078.175.2842.401.5071.679.6685.278.1615.617.2423 1.017.2423.388 0 .72-.0808.998-.2423.278-.1614.501-.3843.669-.6685.168-.2907.29-.6266.368-1.0078.084-.3811.126-.7913.126-1.2305v-.2035c0-.4264-.042-.8269-.126-1.2015-.078-.3812-.203-.7171-.378-1.0078-.168-.2971-.391-.5297-.668-.6976-.278-.168-.614-.252-1.008-.252s-.73.084-1.008.252c-.271.1679-.494.4005-.669.6976-.167.2907-.29.6266-.368 1.0078-.077.3746-.116.7751-.116 1.2015z"/><path d="m351.008 89.1719c0-.2003-.058-.3812-.175-.5427-.116-.1615-.332-.31-.649-.4457-.31-.1421-.759-.2713-1.347-.3876-.529-.1162-1.024-.2616-1.482-.436-.452-.1809-.846-.3973-1.182-.6492-.33-.2519-.588-.5491-.776-.8915-.187-.3488-.281-.7461-.281-1.1918 0-.4392.094-.8527.281-1.2403.194-.3875.469-.7299.824-1.0271.362-.3036.801-.5394 1.318-.7073.523-.1744 1.111-.2616 1.763-.2616.911 0 1.693.1453 2.345.436.659.2907 1.163.6912 1.512 1.2015.355.5039.533 1.0788.533 1.7248h-2.791c0-.2713-.058-.5136-.174-.7267-.11-.2197-.284-.3909-.523-.5136-.233-.1292-.537-.1938-.911-.1938-.31 0-.578.0549-.805.1647-.226.1034-.4.2455-.523.4264-.116.1744-.174.3682-.174.5814 0 .1615.032.3068.097.436.071.1227.184.2358.339.3391.155.1034.355.2003.601.2907.252.084.562.1615.93.2326.756.155 1.431.3585 2.025.6104.594.2455 1.066.5814 1.415 1.0077.348.4199.523.9722.523 1.657 0 .4651-.103.8914-.31 1.279s-.504.7267-.892 1.0174c-.387.2842-.852.5071-1.395.6686-.536.155-1.14.2326-1.812.2326-.975 0-1.802-.1745-2.48-.5233-.672-.3488-1.183-.7913-1.531-1.3275-.343-.5426-.514-1.0981-.514-1.6666h2.645c.013.3811.11.688.291.9205.187.2326.423.4005.707.5039.291.1033.604.155.94.155.362 0 .662-.0484.901-.1453.239-.1034.42-.239.543-.407.129-.1744.194-.3746.194-.6007z"/><path d="m358.479 81.5849v10.4842h-2.801v-10.4842zm-2.975-2.7325c0-.407.142-.7429.426-1.0077.284-.2649.665-.3973 1.144-.3973.471 0 .849.1324 1.133.3973.291.2648.436.6007.436 1.0077s-.145.7429-.436 1.0077c-.284.2649-.662.3973-1.133.3973-.479 0-.86-.1324-1.144-.3973-.284-.2648-.426-.6007-.426-1.0077z"/><path d="m365.92 81.5849v1.9767h-6.104v-1.9767zm-4.593-2.5872h2.791v9.9125c0 .3036.039.5362.116.6977.084.1615.207.2745.368.3391.162.0582.365.0872.611.0872.174 0 .329-.0064.465-.0193.142-.0194.262-.0388.358-.0582l.01 2.0542c-.239.0775-.497.1389-.775.1841s-.585.0679-.921.0679c-.613 0-1.149-.1002-1.608-.3004-.452-.2067-.801-.5362-1.047-.9884-.245-.4521-.368-1.0464-.368-1.7829z"/><path d="m302.637 103.669-3.837 11.696h-3.091l5.242-14.108h1.967zm3.188 11.696-3.847-11.696-.31-2.412h1.986l5.272 14.108zm-.174-5.252v2.277h-7.452v-2.277z"/><path d="m316.251 113.078v-12.597h2.81v14.884h-2.529zm-6.628-2.829v-.204c0-.801.091-1.528.272-2.18.181-.659.445-1.224.794-1.696.349-.471.779-.836 1.289-1.095.51-.258 1.092-.387 1.744-.387.614 0 1.15.129 1.609.387.465.259.859.627 1.182 1.105.329.471.594 1.03.794 1.676.2.64.346 1.341.436 2.103v.446c-.09.73-.236 1.408-.436 2.034-.2.627-.465 1.176-.794 1.648-.323.465-.717.826-1.182 1.085-.466.258-1.008.387-1.628.387-.653 0-1.234-.132-1.744-.397-.504-.265-.931-.636-1.28-1.114-.342-.478-.603-1.04-.784-1.686s-.272-1.35-.272-2.112zm2.791-.204v.204c0 .432.032.836.097 1.211.071.374.184.707.339.998.161.284.368.507.62.668.258.155.572.233.94.233.478 0 .872-.107 1.182-.32.31-.219.546-.52.707-.901.168-.381.265-.82.291-1.318v-1.269c-.019-.407-.077-.772-.174-1.095-.091-.33-.226-.611-.407-.843-.175-.233-.394-.413-.659-.543-.258-.129-.565-.193-.921-.193-.361 0-.671.084-.93.251-.258.162-.468.385-.63.669-.155.284-.271.62-.348 1.008-.072.381-.107.794-.107 1.24z"/><path d="m324.032 107.167v8.198h-2.791v-10.485h2.626zm3.159-2.354-.049 2.587c-.135-.02-.3-.036-.494-.049-.187-.019-.358-.029-.514-.029-.394 0-.736.052-1.027.155-.284.097-.523.243-.717.436-.187.194-.329.43-.426.708-.09.277-.142.594-.155.949l-.562-.174c0-.678.068-1.302.203-1.87.136-.575.333-1.076.592-1.502.264-.427.587-.756.968-.989.382-.232.818-.348 1.309-.348.155 0 .313.013.474.038.162.02.294.049.398.088z"/><path d="m333.14 115.558c-.814 0-1.544-.129-2.19-.387-.646-.265-1.195-.63-1.647-1.095-.446-.465-.788-1.005-1.027-1.618-.239-.62-.359-1.279-.359-1.977v-.388c0-.794.113-1.521.34-2.18.226-.659.549-1.23.968-1.715.427-.484.944-.856 1.551-1.114.607-.265 1.292-.397 2.054-.397.743 0 1.402.122 1.977.368.575.245 1.056.594 1.443 1.046.395.453.692.995.892 1.628.2.627.3 1.324.3 2.093v1.163h-8.333v-1.86h5.591v-.214c0-.387-.071-.733-.213-1.036-.136-.311-.342-.556-.62-.737s-.633-.271-1.066-.271c-.368 0-.685.081-.95.242-.264.162-.481.388-.649.678-.161.291-.284.633-.368 1.027-.078.388-.116.814-.116 1.279v.388c0 .42.058.808.174 1.163.123.355.294.662.514.92.226.259.497.459.814.601.323.142.688.213 1.095.213.503 0 .972-.097 1.405-.29.439-.201.817-.501 1.133-.902l1.357 1.473c-.22.317-.52.62-.901.911-.375.291-.827.53-1.357.717-.53.181-1.134.271-1.812.271z"/><path d="m344.7 112.467c0-.2-.058-.381-.175-.542-.116-.162-.332-.31-.649-.446-.31-.142-.759-.271-1.347-.387-.529-.117-1.024-.262-1.482-.437-.452-.18-.846-.397-1.182-.649-.33-.252-.588-.549-.775-.891-.188-.349-.281-.746-.281-1.192 0-.439.093-.853.281-1.24.193-.388.468-.73.823-1.027.362-.304.801-.54 1.318-.708.523-.174 1.111-.261 1.763-.261.911 0 1.693.145 2.345.436.659.29 1.163.691 1.512 1.201.355.504.533 1.079.533 1.725h-2.791c0-.271-.058-.514-.174-.727-.11-.219-.284-.391-.523-.513-.233-.129-.537-.194-.911-.194-.31 0-.578.055-.804.165-.227.103-.401.245-.524.426-.116.174-.174.368-.174.581 0 .162.032.307.097.436.071.123.184.236.339.34.155.103.355.2.601.29.252.084.562.162.93.233.756.155 1.431.358 2.025.61.594.246 1.066.582 1.415 1.008.349.42.523.972.523 1.657 0 .465-.103.891-.31 1.279-.207.387-.504.727-.892 1.017-.387.285-.852.507-1.395.669-.536.155-1.14.232-1.812.232-.975 0-1.802-.174-2.48-.523-.672-.349-1.183-.791-1.531-1.327-.343-.543-.514-1.098-.514-1.667h2.645c.013.381.11.688.291.921.187.232.423.4.707.503.291.104.604.156.94.156.362 0 .662-.049.901-.146.239-.103.42-.239.543-.407.129-.174.194-.374.194-.601z"/><path d="m354.893 112.467c0-.2-.058-.381-.174-.542-.116-.162-.333-.31-.649-.446-.31-.142-.759-.271-1.347-.387-.53-.117-1.024-.262-1.483-.437-.452-.18-.846-.397-1.182-.649-.329-.252-.588-.549-.775-.891-.187-.349-.281-.746-.281-1.192 0-.439.094-.853.281-1.24.194-.388.468-.73.824-1.027.361-.304.801-.54 1.317-.708.524-.174 1.112-.261 1.764-.261.911 0 1.692.145 2.345.436.659.29 1.163.691 1.511 1.201.356.504.533 1.079.533 1.725h-2.79c0-.271-.058-.514-.175-.727-.109-.219-.284-.391-.523-.513-.232-.129-.536-.194-.911-.194-.31 0-.578.055-.804.165-.226.103-.4.245-.523.426-.116.174-.175.368-.175.581 0 .162.033.307.097.436.071.123.184.236.339.34.155.103.356.2.601.29.252.084.562.162.93.233.756.155 1.431.358 2.026.61.594.246 1.065.582 1.414 1.008.349.42.523.972.523 1.657 0 .465-.103.891-.31 1.279-.206.387-.503.727-.891 1.017-.388.285-.853.507-1.395.669-.537.155-1.141.232-1.812.232-.976 0-1.803-.174-2.481-.523-.672-.349-1.182-.791-1.531-1.327-.342-.543-.513-1.098-.513-1.667h2.645c.013.381.11.688.291.921.187.232.423.4.707.503.291.104.604.156.94.156.362 0 .662-.049.901-.146.239-.103.42-.239.543-.407.129-.174.193-.374.193-.601z"/><path d="m364.244 115.558c-.814 0-1.544-.129-2.19-.387-.646-.265-1.195-.63-1.647-1.095-.446-.465-.788-1.005-1.027-1.618-.239-.62-.359-1.279-.359-1.977v-.388c0-.794.113-1.521.339-2.18s.549-1.23.969-1.715c.427-.484.943-.856 1.551-1.114.607-.265 1.292-.397 2.054-.397.743 0 1.402.122 1.976.368.575.245 1.057.594 1.444 1.046.394.453.691.995.892 1.628.2.627.3 1.324.3 2.093v1.163h-8.333v-1.86h5.591v-.214c0-.387-.071-.733-.213-1.036-.136-.311-.343-.556-.62-.737-.278-.181-.633-.271-1.066-.271-.368 0-.685.081-.95.242-.265.162-.481.388-.649.678-.162.291-.284.633-.368 1.027-.078.388-.117.814-.117 1.279v.388c0 .42.059.808.175 1.163.123.355.294.662.513.92.226.259.498.459.814.601.323.142.688.213 1.095.213.504 0 .972-.097 1.405-.29.44-.201.817-.501 1.134-.902l1.357 1.473c-.22.317-.521.62-.902.911-.374.291-.826.53-1.356.717-.53.181-1.134.271-1.812.271z"/></g><path d="m455.097 97.3938h-3.595v-2.2674h3.595c.555 0 1.007-.0904 1.356-.2713.349-.1873.604-.4457.766-.7752.161-.3294.242-.7008.242-1.1143 0-.4199-.081-.8107-.242-1.1724-.162-.3618-.417-.6525-.766-.8721s-.801-.3294-1.356-.3294h-2.588v11.8313h-2.906v-14.1084h5.494c1.104 0 2.051.2003 2.839.6008.794.394 1.401.9399 1.821 1.6375.42.6977.63 1.4954.63 2.3934 0 .9108-.21 1.6989-.63 2.3642-.42.6654-1.027 1.1789-1.821 1.5407-.788.3617-1.735.5426-2.839.5426z" fill="#65728a"/><path d="m461.637 97.2872v-.2035c0-.7687.11-1.476.33-2.122.219-.6524.539-1.2177.959-1.6957s.936-.8494 1.55-1.1143c.614-.2713 1.318-.407 2.112-.407.795 0 1.502.1357 2.123.407.62.2649 1.14.6363 1.56 1.1143.426.478.749 1.0433.969 1.6957.219.646.329 1.3533.329 2.122v.2035c0 .7623-.11 1.4696-.329 2.122-.22.6458-.543 1.2108-.969 1.6958-.42.478-.937.849-1.551 1.114-.613.265-1.318.398-2.112.398-.795 0-1.502-.133-2.122-.398-.614-.265-1.134-.636-1.56-1.114-.42-.485-.74-1.05-.959-1.6958-.22-.6524-.33-1.3597-.33-2.122zm2.791-.2035v.2035c0 .4393.038.8495.116 1.2306.077.3811.2.717.368 1.0077.175.2843.401.5075.678.6685.278.162.617.242 1.018.242.387 0 .72-.08.998-.242.278-.161.501-.3842.668-.6685.168-.2907.291-.6266.369-1.0077.084-.3811.126-.7913.126-1.2306v-.2035c0-.4263-.042-.8268-.126-1.2015-.078-.3811-.204-.717-.378-1.0077-.168-.2972-.391-.5297-.669-.6977-.278-.1679-.613-.2519-1.008-.2519-.394 0-.729.084-1.007.2519-.272.168-.494.4005-.669.6977-.168.2907-.291.6266-.368 1.0077-.078.3747-.116.7752-.116 1.2015z" fill="#65728a"/><path d="m472.838 97.2872v-.2035c0-.7687.11-1.476.33-2.122.219-.6524.539-1.2177.959-1.6957s.937-.8494 1.55-1.1143c.614-.2713 1.318-.407 2.113-.407.794 0 1.502.1357 2.122.407.62.2649 1.14.6363 1.56 1.1143.426.478.749 1.0433.969 1.6957.219.646.329 1.3533.329 2.122v.2035c0 .7623-.11 1.4696-.329 2.122-.22.6458-.543 1.2108-.969 1.6958-.42.478-.937.849-1.551 1.114-.613.265-1.317.398-2.112.398-.794 0-1.502-.133-2.122-.398-.614-.265-1.134-.636-1.56-1.114-.42-.485-.74-1.05-.959-1.6958-.22-.6524-.33-1.3597-.33-2.122zm2.791-.2035v.2035c0 .4393.039.8495.116 1.2306.078.3811.2.717.368 1.0077.175.2843.401.5075.679.6685.277.162.617.242 1.017.242.388 0 .72-.08.998-.242.278-.161.501-.3842.669-.6685.168-.2907.29-.6266.368-1.0077.084-.3811.126-.7913.126-1.2306v-.2035c0-.4263-.042-.8268-.126-1.2015-.078-.3811-.204-.717-.378-1.0077-.168-.2972-.391-.5297-.669-.6977-.277-.1679-.613-.2519-1.007-.2519s-.73.084-1.008.2519c-.271.168-.494.4005-.669.6977-.168.2907-.29.6266-.368 1.0077-.077.3747-.116.7752-.116 1.2015z" fill="#65728a"/><path d="m487.431 87.5394v14.8836h-2.8v-14.8836z" fill="#65728a"/><path d="m87.5889 332.424h4.5752c.938 0 1.7441.14 2.4182.421.6796.281 1.202.696 1.5672 1.247.3651.55.5476 1.227.5476 2.031 0 .657-.1123 1.221-.337 1.693-.2191.466-.5308.857-.9353 1.171-.3988.309-.8678.556-1.4071.742l-.8004.421h-3.977l-.0168-1.972h2.9574c.4438 0 .8117-.078 1.1038-.235.2921-.158.5112-.377.6572-.658.1517-.281.2275-.606.2275-.977 0-.393-.073-.733-.2191-1.02-.146-.286-.3679-.505-.6656-.657-.2977-.151-.6713-.227-1.1206-.227h-2.0475v10.288h-2.5277zm6.8586 12.268-2.7974-5.469 2.671-.017 2.831 5.368v.118z" fill="#0a355c"/><path d="m106.875 342.72v1.972h-6.53v-1.972zm-5.704-10.296v12.268h-2.5275v-12.268zm4.853 4.996v1.921h-5.679v-1.921zm.843-4.996v1.98h-6.522v-1.98z" fill="#0a355c"/><path d="m111.038 332.424v12.268h-2.519v-12.268z" fill="#0a355c"/><path d="m123.39 332.424v12.268h-2.528l-4.929-8.224v8.224h-2.528v-12.268h2.528l4.938 8.232v-8.232z" fill="#0a355c"/><path d="m130.013 342.13 2.89-9.706h2.814l-4.272 12.268h-1.854zm-2.663-9.706 2.882 9.706.438 2.562h-1.871l-4.246-12.268z" fill="#0a355c"/><path d="m145.095 342.72v1.972h-6.53v-1.972zm-5.704-10.296v12.268h-2.528v-12.268zm4.853 4.996v1.921h-5.679v-1.921zm.842-4.996v1.98h-6.521v-1.98z" fill="#0a355c"/><path d="m152.956 341.481c0-.219-.034-.415-.101-.589-.062-.18-.18-.343-.354-.489-.174-.152-.418-.301-.733-.447s-.722-.297-1.222-.455c-.556-.179-1.084-.382-1.584-.606-.494-.225-.932-.486-1.314-.784-.377-.303-.674-.654-.893-1.053-.214-.399-.32-.862-.32-1.39 0-.512.112-.975.337-1.391.224-.421.539-.78.943-1.078.405-.304.882-.537 1.433-.7.556-.162 1.165-.244 1.828-.244.904 0 1.694.163 2.368.489s1.196.772 1.567 1.34c.376.567.564 1.216.564 1.946h-2.511c0-.36-.075-.674-.227-.944-.146-.275-.371-.491-.674-.649-.298-.157-.674-.236-1.129-.236-.438 0-.803.068-1.095.203-.293.129-.512.306-.658.531-.146.219-.219.466-.219.741 0 .208.051.396.152.565.107.168.264.325.472.471s.463.284.766.413c.304.129.655.256 1.054.379.668.203 1.255.43 1.761.683.511.253.938.536 1.28.851.343.314.601.671.776 1.07.174.399.261.851.261 1.357 0 .533-.104 1.011-.312 1.432s-.508.778-.902 1.07c-.393.292-.862.514-1.407.666-.544.151-1.154.227-1.828.227-.607 0-1.205-.079-1.795-.236-.59-.163-1.126-.407-1.609-.733-.477-.326-.859-.741-1.146-1.247-.286-.505-.43-1.104-.43-1.795h2.537c0 .382.058.705.176.969s.284.478.498.641c.219.163.477.281.775.354.303.073.634.109.994.109.438 0 .798-.062 1.078-.185.287-.124.498-.295.632-.514.141-.219.211-.466.211-.742z" fill="#0a355c"/><path d="m162.688 332.424v12.268h-2.519v-12.268zm3.775 0v1.98h-10.01v-1.98z" fill="#0a355c"/><path d="m151.092 392.024c-7.364 12.772-23.823 17.101-36.6 9.741-12.778-7.36-17.1094-23.812-9.746-36.584 7.363-12.772 23.822-17.101 36.6-9.741 12.669 7.36 17.109 23.812 9.746 36.584z" fill="#f5516c"/><path d="m128.086 360.808v14.997c-.834-.833-1.548-1.547-2.501-2.499-.119-1.429-.357-5.475-.357-5.475l2.382-7.142c-1.429 0-2.858.238-4.168.595l-1.191 3.452-3.334-1.666c-1.191.714-2.381 1.547-3.453 2.618l5.954 2.976.238 3.57-3.572-.238-2.977-5.951c-.953 1.071-1.906 2.143-2.62 3.452l1.667 3.333-3.572 1.19c-.358 1.309-.596 2.737-.596 4.285l7.145-2.262 5.716.238 2.381 2.381-2.381 2.38-5.716.238-7.145-2.261c0 1.428.238 2.856.596 4.285l3.453 1.19-1.667 3.214c.714 1.19 1.548 2.38 2.62 3.332l2.976-5.951 3.573-.238-.238 3.571-5.954 2.975c1.071.953 2.143 1.905 3.453 2.619l3.215-1.547 1.191 3.451c1.31.357 2.739.595 4.168.595l-2.263-7.022s.238-4.047.357-5.475c.834-.833 1.548-1.547 2.501-2.5v14.997c9.883 0 17.861-7.974 17.861-17.853.12-9.879-7.859-17.854-17.742-17.854zm4.049 31.184c0-8.926 0-17.734 0-26.661 4.286.952 9.764 5.713 10.002 12.855.238 7.855-5.716 12.854-10.002 13.806z" fill="#f5f5f5"/><path d="m226.273 83.6762c-2.969 5.15-9.606 6.8957-14.758 3.9279-5.152-2.9677-6.899-9.6016-3.929-14.7516 2.969-5.1499 9.605-6.8957 14.758-3.9279 5.108 2.9678 6.898 9.6016 3.929 14.7516z" fill="#f5516c"/><path d="m229.646 67.8593-.003-.0015c-5.737-3.3044-13.13-1.3643-16.441 4.3787-3.306 5.7347-1.365 13.125 4.381 16.4344 5.737 3.3044 13.13 1.3644 16.441-4.3787 3.308-5.7386 1.315-13.1255-4.378-16.4329z" fill="#f5516c" stroke="#f5f5f5" stroke-width="1.6"/><path d="m223.682 70.8022v6.2891c-.35-.3494-.649-.6489-1.049-1.0482-.05-.5989-.149-2.296-.149-2.296l.998-2.9948c-.599 0-1.198.0998-1.747.2496l-.5 1.4475-1.398-.6988c-.499.2995-.999.6489-1.448 1.0981l2.497 1.2478.099 1.4974-1.498-.0998-1.248-2.4957c-.399.4492-.799.8985-1.099 1.4475l.7 1.3976-1.499.4991c-.149.5491-.249 1.148-.249 1.7969l2.996-.9484 2.397.0999.999.9982-.999.9983-2.397.0998-2.996-.9483c0 .5989.1 1.1979.249 1.7969l1.449.4991-.699 1.3477c.299.4991.649.9982 1.098 1.3975l1.248-2.4956 1.499-.0999-.1 1.4974-2.497 1.2479c.449.3993.899.7986 1.448 1.0981l1.348-.6489.5 1.4475c.549.1497 1.148.2495 1.747.2495l-.948-2.9448s.099-1.6971.149-2.2961c.35-.3494.65-.6488 1.049-1.0481v6.289c4.145 0 7.49-3.3442 7.49-7.487.05-4.1428-3.295-7.487-7.44-7.487zm1.698 13.0773c0-3.7435 0-7.4371 0-11.1806 1.797.3993 4.094 2.3959 4.194 5.3907.1 3.2943-2.397 5.3906-4.194 5.7899z" fill="#f5f5f5"/><path d="m96.588 147.143 2.4435-10.321h1.3645l.312 1.719-2.6034 10.549h-1.4661zm-1.2555-10.321 2.0222 10.321-.1685 1.947h-1.6346l-2.7215-12.268zm7.5245 10.279 1.997-10.279h2.502l-2.713 12.268h-1.635zm-1.694-10.279 2.461 10.363-.068 1.905h-1.466l-2.6204-10.558.337-1.71z" fill="#0a355c"/><path d="m113.347 138.92-3.337 10.17h-2.688l4.559-12.268h1.71zm2.772 10.17-3.345-10.17-.27-2.098h1.728l4.583 12.268zm-.152-4.567v1.98h-6.479v-1.98z" fill="#0a355c"/><path d="m127.839 147.118v1.972h-6.176v-1.972zm-5.359-10.296v12.268h-2.527v-12.268z" fill="#0a355c"/><path d="m137.175 147.118v1.972h-6.176v-1.972zm-5.359-10.296v12.268h-2.528v-12.268z" fill="#0a355c"/><path d="m146.856 147.118v1.972h-6.53v-1.972zm-5.704-10.296v12.268h-2.528v-12.268zm4.853 4.996v1.921h-5.679v-1.921zm.843-4.996v1.98h-6.522v-1.98z" fill="#0a355c"/><path d="m153.984 136.822v12.268h-2.519v-12.268zm3.775 0v1.98h-10.01v-1.98z" fill="#0a355c"/><path clip-rule="evenodd" d="m85.5612 128.307h79.2078c2.16 0 3.935-2.016 3.935-4.514v-15.167h-13.767c-6.042 0-10.92-4.878-10.92-10.9208 0-6.0423 4.878-10.9205 10.92-10.976h13.767v-15.2116c0-2.4539-1.775-4.4696-3.935-4.4696h-79.2078c-2.1605 0-3.9352 2.0157-3.9352 4.4696v52.3194c0 2.454 1.7747 4.47 3.9352 4.47z" fill="#f5516c" fill-rule="evenodd"/><path d="m146.863 97.6983c0 4.5747 3.694 8.2687 8.269 8.2687h16.789v-16.5792h-16.789c-4.575.042-8.269 3.7356-8.269 8.3105z" fill="#f5516c"/><path d="m112.691 82.3965h-11.17v6.2175h9.379c4.953 0 9.062 4.11 9.062 9.0629 0 4.9531-4.109 9.0631-9.062 9.0631h-9.379v6.217h10.854c8.536 0 15.386-6.849 15.386-15.3854 0-8.4306-6.745-15.1751-15.07-15.1751z" fill="#fff"/><path d="m104.982 89.774c-.211 0-.422 0-.738 0 2.424 1.6862 4.11 4.5315 4.11 7.7983 0 3.2667-1.581 6.1127-4.11 7.7987h.738c4.32 0 7.798-3.478 7.798-7.7987 0-4.3206-3.478-7.7983-7.798-7.7983z" fill="#fff"/><path d="m107.31 97.5721c0 4.6369-3.793 8.4309-8.4302 8.4309-4.6368 0-8.4306-3.794-8.4306-8.4309s3.7938-8.4306 8.4306-8.4306c4.7422 0 8.4302 3.7937 8.4302 8.4306z" fill="#fff"/></svg>