<svg fill="none" height="471" viewBox="0 0 601 471" width="601" xmlns="http://www.w3.org/2000/svg" xmlns:xlink="http://www.w3.org/1999/xlink"><mask id="a" fill="#fff"><path clip-rule="evenodd" d="m176.295 277.491c-4.857-2.082-9.367-2.776-13.53-2.776s-8.847.521-13.53 2.776c-.694-1.041-.868-1.735-.868-1.735 5.378-2.081 10.235-2.775 14.398-2.775 4.336 0 9.193.694 14.397 2.775 0 0-.173.521-.867 1.735zm-9.54 1.388-3.989 22.55-3.99-22.55c-3.816 0-5.03.347-5.204 2.081 0 0-2.602-1.041-3.816-2.949 5.03-2.255 10.061-2.428 10.061-2.428l2.949 3.643 2.949-3.643s5.03.173 10.061 2.428c-1.215 1.908-3.817 2.949-3.817 2.949-.173-1.734-1.387-2.081-5.204-2.081z" fill="#fff" fill-rule="evenodd"/></mask><g stroke-miterlimit="10"><path d="m518.557 121.706h-35.062l-33.891 58.634" stroke="#b8c4d8" stroke-width=".8745"/><path d="m178.841 297.606-33.89 58.634m0 0 33.89 58.633m-33.89-58.633h-47.6043" stroke="#b8c4d8" stroke-width=".8745"/><path d="m77.0527 121.706h.2346 67.6627l33.89 58.634-33.89 58.633 33.89 58.633h67.663l33.89 58.634h67.663-67.663l-33.89 58.633" stroke="#b8c4d8" stroke-width=".8745"/><path d="m178.844 63.0731-33.89 58.6329" stroke="#b8c4d8" stroke-width=".8745"/><path d="m483.496 356.24-33.89-58.634h-67.663m0 0-33.89 58.634 33.89 58.633m0-117.267-33.89-58.633 33.89-58.633-33.89-58.634m0 0 33.89-58.6329m-33.89 58.6329h-67.663m0 0-33.89 58.634m33.89-58.634-27.277-49.8556" stroke="#b8c4d8" stroke-width=".8745"/><path d="m518.563 238.973h-35.063l-33.89-58.633h-67.663l-33.89 58.633h-100.615" stroke="#f5516c" stroke-width="3.4722"/></g><path d="m348.057 246.126c3.95 0 7.153-3.202 7.153-7.153 0-3.95-3.203-7.153-7.153-7.153-3.951 0-7.154 3.203-7.154 7.153 0 3.951 3.203 7.153 7.154 7.153z" fill="#f5516c"/><path d="m381.952 187.493c3.951 0 7.153-3.203 7.153-7.153 0-3.951-3.202-7.154-7.153-7.154s-7.153 3.203-7.153 7.154c0 3.95 3.202 7.153 7.153 7.153z" fill="#f5516c"/><path d="m449.614 187.493c3.951 0 7.153-3.203 7.153-7.153 0-3.951-3.202-7.154-7.153-7.154-3.95 0-7.153 3.203-7.153 7.154 0 3.95 3.203 7.153 7.153 7.153z" fill="#f5516c"/><path d="m352.132 356.24c0 2.249-1.824 4.073-4.073 4.073-2.25 0-4.074-1.824-4.074-4.073 0-2.25 1.824-4.074 4.074-4.074 2.249 0 4.073 1.824 4.073 4.074z" fill="#b8c4d8" stroke="#b8c4d8"/><path d="m284.473 121.707c0 2.249-1.824 4.073-4.073 4.073-2.25 0-4.074-1.824-4.074-4.073 0-2.25 1.824-4.074 4.074-4.074 2.249 0 4.073 1.824 4.073 4.074z" fill="#b8c4d8" stroke="#b8c4d8"/><path d="m149.019 356.24c0 2.249-1.824 4.073-4.074 4.073-2.249 0-4.073-1.824-4.073-4.073 0-2.25 1.824-4.074 4.073-4.074 2.25 0 4.074 1.824 4.074 4.074z" fill="#b8c4d8" stroke="#b8c4d8"/><path d="m149.019 121.707c0 2.249-1.824 4.073-4.074 4.073-2.249 0-4.073-1.824-4.073-4.073 0-2.25 1.824-4.074 4.073-4.074 2.25 0 4.074 1.824 4.074 4.074z" fill="#b8c4d8" stroke="#b8c4d8"/><rect fill="#f5f5f5" height="161.4" rx="17" stroke="#f5516c" stroke-width="4" width="207.634" x="92.5635" y="159.104"/><path d="m150.458 172.675c-11.795 6.755-15.785 21.823-9.02 33.6s21.857 15.76 33.652 9.006c11.796-6.755 15.786-21.823 9.021-33.6-6.766-11.777-21.857-15.934-33.653-9.006z" fill="#f5516c"/><path d="m174.867 191.727h-11.778v4.676h6.755c-.346 1.559-1.212 2.771-2.598 3.81-1.212.693-2.598 1.213-4.33 1.213-3.29 0-6.062-2.252-7.101-5.196-.346-.693-.346-1.559-.346-2.425s.173-1.732.346-2.424c.866-3.118 3.811-5.196 7.101-5.196 1.905 0 3.464.693 4.85 1.905l3.637-3.637c-2.079-2.078-5.023-3.291-8.314-3.291-4.849 0-9.179 2.771-11.257 6.928-.866 1.732-1.386 3.637-1.386 5.715 0 2.079.52 3.984 1.386 5.716 2.078 4.156 6.235 6.927 11.257 6.927 3.291 0 6.235-1.212 8.314-3.117 2.424-2.252 3.81-5.369 3.81-9.179-.173-.866-.173-1.732-.346-2.425z" fill="#fff"/><path d="m215.43 252.463c-6.779 11.759-21.933 15.745-33.698 8.969-11.764-6.777-15.752-21.924-8.973-33.684 6.78-11.759 21.934-15.745 33.698-8.968 11.665 6.776 15.753 21.924 8.973 33.683z" fill="#f5516c"/><path d="m194.098 225.157v12.557c-.697-.698-1.296-1.296-2.093-2.093-.1-1.196-.299-4.584-.299-4.584l1.994-5.979c-1.197 0-2.393.199-3.49.498l-.997 2.89-2.791-1.395c-.997.598-1.994 1.295-2.892 2.192l4.985 2.492.2 2.989-2.991-.199-2.493-4.983c-.797.897-1.595 1.794-2.193 2.89l1.396 2.79-2.991.997c-.299 1.096-.499 2.292-.499 3.588l5.982-1.894 4.786.199 1.994 1.993-1.994 1.994-4.786.199-5.982-1.894c0 1.196.2 2.392.499 3.588l2.891.997-1.396 2.69c.598.997 1.296 1.993 2.194 2.791l2.492-4.983 2.991-.2-.199 2.99-4.985 2.491c.897.798 1.794 1.595 2.891 2.193l2.692-1.296.997 2.89c1.097.299 2.293.499 3.489.499l-1.894-5.88s.199-3.388.299-4.584c.698-.698 1.296-1.296 2.094-2.093v12.557c8.275 0 14.955-6.677 14.955-14.949.099-8.271-6.581-14.948-14.856-14.948zm3.39 26.11c0-7.474 0-14.849 0-22.323 3.589.797 8.175 4.784 8.375 10.763.199 6.577-4.786 10.763-8.375 11.56z" fill="#fff"/><path d="m254.578 239.034c0 13.268 10.711 23.979 23.979 23.979h35.781v-48.079h-35.781c-13.268.121-23.979 10.833-23.979 24.1z" fill="#0a355c"/><path clip-rule="evenodd" d="m287.925 239.605c2.886-.9 4.98-3.592 4.98-6.773 0-3.918-3.176-7.094-7.094-7.094-3.917 0-7.093 3.176-7.093 7.094 0 3.137 2.036 5.798 4.859 6.734l-1.443 11.546c-.136.955.682 1.91 1.773 1.91h3.683c1.092 0 1.91-.819 1.774-1.91z" fill="#f5516c" fill-rule="evenodd"/><path d="m117.865 261.888c-11.796-6.765-15.786-21.856-9.02-33.652 6.765-11.795 21.856-15.785 33.652-9.02 11.795 6.765 15.785 21.857 9.02 33.652-6.765 11.796-22.03 15.786-33.652 9.02z" fill="#f5516c"/><g fill="#fff"><rect height="2.42712" rx="1.21356" width="20.2513" x="124.243" y="253.138"/><rect height="2.42712" rx="1.21356" width="20.2513" x="124.243" y="249.554"/><rect height="2.42712" rx="1.21356" width="20.2513" x="124.243" y="245.969"/><rect height="2.42712" rx="1.21356" width="20.2513" x="124.243" y="242.385"/><rect height="2.42712" rx="1.21356" width="20.2513" x="124.243" y="238.802"/><rect height="2.42712" rx="1.21356" width="20.2513" x="124.243" y="235.218"/><rect height="2.42712" rx="1.21356" width="20.2513" x="124.243" y="231.635"/><rect height="2.42712" rx="1.21356" width="20.2513" x="124.243" y="228.051"/><rect height="2.42712" rx="1.21356" width="20.2513" x="124.243" y="224.467"/></g><path d="m135.496 249.665c-3.575 6.202-11.572 8.308-17.782 4.731-6.205-3.573-8.312-11.567-4.733-17.774 3.575-6.201 11.571-8.307 17.781-4.731 6.154 3.575 8.311 11.57 4.734 17.774z" fill="#f5516c" stroke="#fff"/><path d="m124.315 234.166v7.566c-.42-.42-.781-.78-1.262-1.261-.06-.72-.18-2.762-.18-2.762l1.202-3.603c-.721 0-1.442.12-2.103.3l-.601 1.742-1.682-.841c-.6.36-1.201.781-1.742 1.321l3.004 1.501.12 1.802-1.802-.12-1.502-3.003c-.481.541-.961 1.081-1.322 1.742l.841 1.681-1.802.601c-.18.66-.3 1.381-.3 2.161l3.604-1.141 2.884.121 1.201 1.201-1.201 1.201-2.884.12-3.604-1.141c0 .72.12 1.441.3 2.161l1.742.601-.841 1.621c.361.601.781 1.201 1.322 1.682l1.502-3.003 1.802-.12-.12 1.802-3.004 1.501c.541.48 1.081.961 1.742 1.321l1.622-.781.601 1.742c.661.18 1.382.3 2.103.3l-1.142-3.543s.12-2.042.18-2.762c.421-.421.781-.781 1.262-1.261v7.566c4.986 0 9.011-4.023 9.011-9.007.06-4.985-3.965-9.008-8.951-9.008zm2.043 15.733c0-4.504 0-8.947 0-13.451 2.162.48 4.926 2.882 5.046 6.485.12 3.964-2.884 6.486-5.046 6.966z" fill="#fff"/><circle cx="228.728" cy="193.94" fill="#fff" r="24.626"/><path d="m226.328 169.377c-12.502 1.201-22.226 11.76-22.226 24.531 0 12.835 9.724 23.33 22.226 24.531z" fill="#f5516c"/><path d="m230.361 191.505h22.921c-1.199-11.949-10.86-21.433-22.921-22.191z" fill="#f5516c"/><path d="m230.361 195.552v23.013c12.313-.821 22.164-10.684 22.985-23.013z" fill="#f5516c"/><path d="m150.458 306.819c-11.795-6.765-15.785-21.857-9.02-33.652 6.765-11.796 21.857-15.786 33.652-9.021 11.796 6.766 15.786 21.857 9.021 33.653-6.766 11.795-22.03 15.785-33.653 9.02z" fill="#f5516c"/><path clip-rule="evenodd" d="m176.295 277.491c-4.857-2.082-9.367-2.776-13.53-2.776s-8.847.521-13.53 2.776c-.694-1.041-.868-1.735-.868-1.735 5.378-2.081 10.235-2.775 14.398-2.775 4.336 0 9.193.694 14.397 2.775 0 0-.173.521-.867 1.735zm-9.54 1.388-3.989 22.55-3.99-22.55c-3.816 0-5.03.347-5.204 2.081 0 0-2.602-1.041-3.816-2.949 5.03-2.255 10.061-2.428 10.061-2.428l2.949 3.643 2.949-3.643s5.03.173 10.061 2.428c-1.215 1.908-3.817 2.949-3.817 2.949-.173-1.734-1.387-2.081-5.204-2.081z" fill="#fff" fill-rule="evenodd"/><path d="m176.295 277.491-.394.919.82.351.442-.774zm-27.06 0-.833.554.483.724.783-.377zm-.868-1.735-.361-.932-.823.318.214.857zm28.795 0 .949.316.298-.894-.875-.35zm-14.396 25.673-.985.174h1.969zm3.989-22.55v-1h-.838l-.146.825zm-7.979 0 .985-.175-.146-.825h-.839zm-5.204 2.081-.371.929 1.234.493.132-1.322zm-3.816-2.949-.409-.912-1.056.473.621.976zm10.061-2.428.777-.629-.314-.388-.498.017zm2.949 3.643-.777.629.777.96.777-.96zm2.949-3.643.034-1-.498-.017-.314.388zm10.061 2.428.843.537.621-.976-1.055-.473zm-3.817 2.949-.995.1.133 1.322 1.234-.493zm-9.194-5.245c4.045 0 8.419.673 13.136 2.695l.788-1.838c-4.997-2.142-9.643-2.857-13.924-2.857zm-13.097 2.677c4.498-2.166 9.016-2.677 13.097-2.677v-2c-4.245 0-9.095.53-13.964 2.875zm-1.301-2.636c-.97.243-.97.243-.97.243v.001s.001.001.001.001v.003c.001.001.001.003.002.006.001.004.002.009.004.015.003.011.007.025.012.042.009.033.023.077.04.13.036.107.089.252.166.43.152.357.398.845.78 1.418l1.665-1.109c-.312-.467-.5-.846-.607-1.097-.054-.125-.088-.218-.106-.274-.01-.028-.015-.047-.018-.056-.001-.004-.001-.006-.001-.005 0 0 0 .001.001.003v.003s.001.001.001.001v.002s0 .001-.97.243zm14.398-3.775c-4.278 0-9.258.713-14.759 2.843l.722 1.865c5.254-2.034 9.988-2.708 14.037-2.708zm14.769 2.847c-5.337-2.135-10.322-2.847-14.769-2.847v2c4.226 0 8.955.675 14.026 2.704zm-.371 3.159c.36-.629.59-1.089.734-1.4.072-.156.122-.274.156-.359.017-.043.03-.077.039-.102.005-.013.009-.024.012-.033.001-.004.003-.008.004-.012.001-.001.001-.003.002-.005 0 0 0-.001 0-.002 0 0 .001 0 .001-.001s0-.001-.949-.317c-.948-.316-.948-.316-.948-.317v-.001s.001-.001.001-.001c0-.001 0-.002.001-.003 0-.001 0-.002 0-.003.001 0 0 .001-.001.005-.003.007-.009.024-.019.049-.02.051-.057.138-.115.264-.117.253-.32.661-.654 1.246zm-13.413 23.616 3.99-22.55-1.969-.349-3.99 22.551zm-5.959-22.55 3.99 22.55 1.969-.348-3.989-22.551zm-3.224 2.007c.033-.327.105-.487.168-.575.057-.079.163-.181.427-.281.603-.228 1.675-.325 3.614-.325v-2c-1.878 0-3.321.076-4.322.455-.538.203-1.006.513-1.345.987-.333.465-.478.999-.532 1.54zm-5.655-2.512c.725 1.138 1.824 1.971 2.679 2.503.437.271.832.477 1.12.617.144.069.262.123.346.16.042.018.076.033.1.043.012.005.022.009.029.012.004.001.007.003.009.003.002.001.003.001.003.002h.002c0 .001.001.001.372-.928.371-.928.372-.928.372-.928h.001s-.001 0-.002-.001c-.003-.001-.008-.003-.015-.006-.014-.006-.038-.016-.069-.029-.063-.028-.158-.071-.276-.128-.239-.116-.57-.289-.936-.516-.749-.466-1.557-1.108-2.047-1.878zm10.905-2.965c-.035-1-.035-1-.035-1s0 0-.001 0h-.001c-.001 0-.003.001-.005.001-.003 0-.008 0-.014 0-.012.001-.028.001-.05.002-.042.002-.104.006-.182.011-.157.009-.384.026-.67.052-.572.054-1.384.149-2.356.317-1.94.334-4.541.961-7.156 2.133l.818 1.825c2.416-1.083 4.844-1.671 6.678-1.987.914-.158 1.674-.247 2.202-.296.264-.025.47-.04.608-.048.069-.005.12-.007.154-.009.017-.001.029-.001.036-.002h.008.001c-.001 0-.001 0-.035-.999zm3.726 3.013-2.949-3.642-1.554 1.258 2.949 3.643zm1.394-3.642-2.949 3.642 1.555 1.259 2.949-3.643zm11.248 2.145c-2.615-1.172-5.217-1.799-7.156-2.133-.973-.168-1.785-.263-2.357-.317-.286-.026-.512-.043-.669-.052-.079-.005-.14-.009-.183-.011-.021-.001-.038-.001-.05-.002-.006 0-.01 0-.014 0-.002 0-.003-.001-.004-.001s-.001 0-.002 0-.001 0-.035 1c-.035.999-.035.999-.035.999-.001 0-.001 0-.001 0h.002.007c.008.001.02.001.037.002.033.002.085.004.154.009.137.008.343.023.607.048.528.049 1.289.138 2.203.296 1.833.316 4.262.904 6.678 1.987zm-4.226 3.861c.372.929.372.929.372.928h.001.001c.001-.001.002-.001.003-.002.003 0 .006-.002.009-.003.008-.003.017-.007.029-.012.025-.01.058-.025.101-.043.084-.037.202-.091.346-.16.287-.14.682-.346 1.119-.617.855-.532 1.955-1.365 2.679-2.503l-1.687-1.074c-.49.77-1.298 1.412-2.048 1.878-.365.227-.697.4-.935.516-.119.057-.214.1-.277.128-.031.013-.054.023-.069.029-.007.003-.012.005-.015.006-.001.001-.002.001-.002.001h.001.001s0 0 .371.928zm-5.204-1.081c1.939 0 3.011.097 3.615.325.263.1.37.202.427.281.063.088.135.248.167.575l1.99-.199c-.054-.541-.198-1.075-.531-1.54-.339-.474-.807-.784-1.346-.987-1.001-.379-2.444-.455-4.322-.455z" fill="#fff" mask="url(#a)"/><path d="m228.736 310.109c-13.559 0-24.626-11.067-24.626-24.626 0-13.56 11.067-24.626 24.626-24.626 13.56 0 24.626 11.066 24.626 24.626 0 13.459-11.066 24.626-24.626 24.626z" fill="#f5516c"/><path d="m234.124 275.812 1.097-4.387-2.692-.698-1.097 4.387c-.698-.199-1.396-.299-2.193-.498l1.096-4.387-2.692-.698-1.096 4.487c-.599-.1-1.197-.3-1.695-.399l-3.689-.898-.698 2.892 1.994.498c1.097.299 1.296.997 1.296 1.596l-2.991 12.163c-.199.299-.498.798-1.296.598l-1.994-.498-1.396 3.09 3.49.898 1.894.498-1.097 4.487 2.692.698 1.097-4.487c.698.199 1.396.399 2.193.598l-.997 4.387 2.692.698 1.097-4.487c4.586.898 8.076.499 9.571-3.688 1.197-3.39-.1-5.285-2.492-6.581 1.794-.398 3.09-1.595 3.489-3.988.399-3.389-2.094-5.184-5.583-6.281zm-.698 14.856c-.798 3.389-6.481 1.495-8.375 1.096l1.496-5.982c1.794.499 7.677 1.396 6.879 4.886zm.798-8.774c-.798 3.091-5.484 1.495-6.979 1.097l1.395-5.384c1.496.399 6.381 1.097 5.584 4.287z" fill="#fff"/></svg>